M48
; DRILL file {KiCad 9.0.5} date 2025-12-21T21:47:27+0100
; FORMAT={-:-/ absolute / metric / decimal}
; #@! TF.CreationDate,2025-12-21T21:47:27+01:00
; #@! TF.GenerationSoftware,Kicad,Pcbnew,9.0.5
; #@! TF.FileFunction,Plated,1,2,PTH
FMAT,2
METRIC
; #@! TA.AperFunction,Plated,PTH,ViaDrill
T1C0.400
; #@! TA.AperFunction,Plated,PTH,ComponentDrill
T2C0.800
; #@! TA.AperFunction,Plated,PTH,ComponentDrill
T3C0.900
; #@! TA.AperFunction,Plated,PTH,ComponentDrill
T4C1.000
; #@! TA.AperFunction,Plated,PTH,ComponentDrill
T5C1.200
; #@! TA.AperFunction,Plated,PTH,ComponentDrill
T6C1.300
; #@! TA.AperFunction,Plated,PTH,ComponentDrill
T7C1.700
; #@! TA.AperFunction,Plated,PTH,ComponentDrill
T8C3.200
; #@! TA.AperFunction,Plated,PTH,ComponentDrill
T9C4.000
%
G90
G05
T1
X135.59Y-81.56
X136.18Y-104.06
X137.0Y-104.96
X137.96Y-105.93
X138.01Y-79.68
X138.01Y-81.22
X138.01Y-82.74
X139.31Y-79.65
X139.31Y-81.19
X139.31Y-82.71
X139.43Y-85.98
X140.68Y-79.67
X140.68Y-81.21
X140.68Y-82.73
X148.16Y-118.76
X148.79Y-78.94
X148.79Y-80.71
X149.42Y-82.39
X149.47Y-77.17
X149.75Y-118.76
X150.35Y-112.43
X150.5Y-83.51
X150.65Y-76.03
X151.27Y-118.74
X151.94Y-112.43
X151.96Y-75.36
X151.97Y-84.64
X152.98Y-118.75
X153.18Y-74.54
X153.26Y-85.5
X153.46Y-112.41
X154.3Y-73.85
X154.51Y-86.55
X154.57Y-118.75
X155.17Y-112.42
X155.33Y-73.08
X156.09Y-118.73
X156.54Y-72.22
X156.76Y-112.42
X157.75Y-71.35
X157.8Y-118.71
X158.09Y-88.86
X158.28Y-112.4
X159.22Y-89.64
X159.39Y-118.71
X159.99Y-112.38
X160.6Y-90.59
X160.91Y-118.69
X161.16Y-63.87
X162.75Y-63.87
X163.1Y-67.85
X164.27Y-63.85
X165.98Y-63.86
X166.98Y-93.09
X167.57Y-63.86
X168.48Y-93.15
X169.09Y-63.84
X169.77Y-93.15
X170.8Y-63.82
X171.22Y-66.94
X172.39Y-63.82
X172.78Y-67.39
X173.91Y-63.8
X174.29Y-68.01
X175.89Y-91.053
X177.67Y-89.63
X178.22Y-114.68
X179.253Y-88.037
X180.97Y-72.42
X182.06Y-114.68
X182.4Y-109.73
X182.53Y-73.45
X182.71Y-116.97
X182.89Y-85.97
X184.09Y-85.03
X184.14Y-74.47
X185.48Y-84.22
X185.61Y-75.5
X186.58Y-76.26
X186.76Y-83.32
X187.24Y-108.0
X187.4Y-77.18
X187.56Y-116.9
X187.7Y-82.04
X188.01Y-78.63
X188.12Y-80.42
X188.43Y-95.88
X189.38Y-94.74
X190.48Y-93.73
X190.93Y-97.44
X191.96Y-100.0
X192.21Y-96.11
X197.24Y-82.66
X203.07Y-103.64
X205.295Y-92.175
T2
X195.36Y-89.41
X195.36Y-97.03
X197.9Y-89.41
X197.9Y-97.03
X200.44Y-89.41
X200.44Y-97.03
X202.98Y-89.41
X202.98Y-97.03
T3
X134.82Y-101.95
X138.28Y-108.37
X144.98Y-101.95
X148.44Y-108.37
T4
X176.54Y-102.85
X176.69Y-108.29
X184.16Y-105.39
X184.31Y-110.83
X189.24Y-102.85
X189.39Y-108.29
T5
X121.78Y-97.13
X121.87Y-91.52
X122.05Y-118.34
X122.36Y-102.29
X122.43Y-65.47
X122.56Y-86.97
X126.76Y-118.36
X126.86Y-97.13
X126.95Y-91.52
X126.98Y-65.47
X127.44Y-102.29
X127.64Y-86.97
X206.26Y-111.52
T6
X163.72Y-75.83
X163.72Y-83.99
X167.48Y-73.66
X167.48Y-86.16
X171.76Y-74.41
X171.76Y-85.41
X174.55Y-77.74
X174.55Y-82.08
T7
X164.66Y-108.025
X168.62Y-108.025
X202.495Y-73.54
X202.495Y-77.5
T8
X135.62Y-66.94
X135.62Y-117.01
X203.08Y-66.94
X203.11Y-116.9
T9
X153.48Y-79.91
X183.68Y-79.91
M30
