%TF.GenerationSoftware,KiCad,Pcbnew,9.0.5*%
%TF.CreationDate,2025-12-02T20:22:52+01:00*%
%TF.ProjectId,Amplifier,416d706c-6966-4696-9572-2e6b69636164,rev?*%
%TF.SameCoordinates,Original*%
%TF.FileFunction,Legend,Bot*%
%TF.FilePolarity,Positive*%
%FSLAX46Y46*%
G04 Gerber Fmt 4.6, Leading zero omitted, Abs format (unit mm)*
G04 Created by KiCad (PCBNEW 9.0.5) date 2025-12-02 20:22:52*
%MOMM*%
%LPD*%
G01*
G04 APERTURE LIST*
%ADD10C,0.150000*%
%ADD11C,0.120000*%
G04 APERTURE END LIST*
D10*
X177564819Y-111763333D02*
X177088628Y-111430000D01*
X177564819Y-111191905D02*
X176564819Y-111191905D01*
X176564819Y-111191905D02*
X176564819Y-111572857D01*
X176564819Y-111572857D02*
X176612438Y-111668095D01*
X176612438Y-111668095D02*
X176660057Y-111715714D01*
X176660057Y-111715714D02*
X176755295Y-111763333D01*
X176755295Y-111763333D02*
X176898152Y-111763333D01*
X176898152Y-111763333D02*
X176993390Y-111715714D01*
X176993390Y-111715714D02*
X177041009Y-111668095D01*
X177041009Y-111668095D02*
X177088628Y-111572857D01*
X177088628Y-111572857D02*
X177088628Y-111191905D01*
X176564819Y-112096667D02*
X176564819Y-112715714D01*
X176564819Y-112715714D02*
X176945771Y-112382381D01*
X176945771Y-112382381D02*
X176945771Y-112525238D01*
X176945771Y-112525238D02*
X176993390Y-112620476D01*
X176993390Y-112620476D02*
X177041009Y-112668095D01*
X177041009Y-112668095D02*
X177136247Y-112715714D01*
X177136247Y-112715714D02*
X177374342Y-112715714D01*
X177374342Y-112715714D02*
X177469580Y-112668095D01*
X177469580Y-112668095D02*
X177517200Y-112620476D01*
X177517200Y-112620476D02*
X177564819Y-112525238D01*
X177564819Y-112525238D02*
X177564819Y-112239524D01*
X177564819Y-112239524D02*
X177517200Y-112144286D01*
X177517200Y-112144286D02*
X177469580Y-112096667D01*
D11*
X178985365Y-82732822D02*
X178419680Y-82167136D01*
X178419680Y-82167136D02*
X178284993Y-82301823D01*
X178284993Y-82301823D02*
X178231118Y-82409573D01*
X178231118Y-82409573D02*
X178231118Y-82517322D01*
X178231118Y-82517322D02*
X178258056Y-82598135D01*
X178258056Y-82598135D02*
X178338868Y-82732822D01*
X178338868Y-82732822D02*
X178419680Y-82813634D01*
X178419680Y-82813634D02*
X178554367Y-82894446D01*
X178554367Y-82894446D02*
X178635179Y-82921383D01*
X178635179Y-82921383D02*
X178742929Y-82921383D01*
X178742929Y-82921383D02*
X178850678Y-82867509D01*
X178850678Y-82867509D02*
X178985365Y-82732822D01*
X178123369Y-83594818D02*
X178446617Y-83271570D01*
X178284993Y-83433194D02*
X177719308Y-82867509D01*
X177719308Y-82867509D02*
X177853995Y-82894446D01*
X177853995Y-82894446D02*
X177961744Y-82894446D01*
X177961744Y-82894446D02*
X178042556Y-82867509D01*
X183514812Y-70889755D02*
X182949127Y-70324069D01*
X182949127Y-70324069D02*
X182814440Y-70458756D01*
X182814440Y-70458756D02*
X182760565Y-70566506D01*
X182760565Y-70566506D02*
X182760565Y-70674255D01*
X182760565Y-70674255D02*
X182787503Y-70755068D01*
X182787503Y-70755068D02*
X182868315Y-70889755D01*
X182868315Y-70889755D02*
X182949127Y-70970567D01*
X182949127Y-70970567D02*
X183083814Y-71051379D01*
X183083814Y-71051379D02*
X183164626Y-71078316D01*
X183164626Y-71078316D02*
X183272376Y-71078316D01*
X183272376Y-71078316D02*
X183380125Y-71024442D01*
X183380125Y-71024442D02*
X183514812Y-70889755D01*
X182329567Y-71320753D02*
X182706690Y-71697877D01*
X182248755Y-70970567D02*
X182787503Y-71239941D01*
X182787503Y-71239941D02*
X182437316Y-71590127D01*
D10*
X185236666Y-98164819D02*
X185569999Y-97688628D01*
X185808094Y-98164819D02*
X185808094Y-97164819D01*
X185808094Y-97164819D02*
X185427142Y-97164819D01*
X185427142Y-97164819D02*
X185331904Y-97212438D01*
X185331904Y-97212438D02*
X185284285Y-97260057D01*
X185284285Y-97260057D02*
X185236666Y-97355295D01*
X185236666Y-97355295D02*
X185236666Y-97498152D01*
X185236666Y-97498152D02*
X185284285Y-97593390D01*
X185284285Y-97593390D02*
X185331904Y-97641009D01*
X185331904Y-97641009D02*
X185427142Y-97688628D01*
X185427142Y-97688628D02*
X185808094Y-97688628D01*
X184903332Y-97164819D02*
X184236666Y-97164819D01*
X184236666Y-97164819D02*
X184665237Y-98164819D01*
D11*
X181493332Y-105003855D02*
X181759999Y-104622902D01*
X181950475Y-105003855D02*
X181950475Y-104203855D01*
X181950475Y-104203855D02*
X181645713Y-104203855D01*
X181645713Y-104203855D02*
X181569523Y-104241950D01*
X181569523Y-104241950D02*
X181531428Y-104280045D01*
X181531428Y-104280045D02*
X181493332Y-104356236D01*
X181493332Y-104356236D02*
X181493332Y-104470521D01*
X181493332Y-104470521D02*
X181531428Y-104546712D01*
X181531428Y-104546712D02*
X181569523Y-104584807D01*
X181569523Y-104584807D02*
X181645713Y-104622902D01*
X181645713Y-104622902D02*
X181950475Y-104622902D01*
X181188571Y-104280045D02*
X181150475Y-104241950D01*
X181150475Y-104241950D02*
X181074285Y-104203855D01*
X181074285Y-104203855D02*
X180883809Y-104203855D01*
X180883809Y-104203855D02*
X180807618Y-104241950D01*
X180807618Y-104241950D02*
X180769523Y-104280045D01*
X180769523Y-104280045D02*
X180731428Y-104356236D01*
X180731428Y-104356236D02*
X180731428Y-104432426D01*
X180731428Y-104432426D02*
X180769523Y-104546712D01*
X180769523Y-104546712D02*
X181226666Y-105003855D01*
X181226666Y-105003855D02*
X180731428Y-105003855D01*
X165975332Y-68421855D02*
X166241999Y-68040902D01*
X166432475Y-68421855D02*
X166432475Y-67621855D01*
X166432475Y-67621855D02*
X166127713Y-67621855D01*
X166127713Y-67621855D02*
X166051523Y-67659950D01*
X166051523Y-67659950D02*
X166013428Y-67698045D01*
X166013428Y-67698045D02*
X165975332Y-67774236D01*
X165975332Y-67774236D02*
X165975332Y-67888521D01*
X165975332Y-67888521D02*
X166013428Y-67964712D01*
X166013428Y-67964712D02*
X166051523Y-68002807D01*
X166051523Y-68002807D02*
X166127713Y-68040902D01*
X166127713Y-68040902D02*
X166432475Y-68040902D01*
X165213428Y-68421855D02*
X165670571Y-68421855D01*
X165441999Y-68421855D02*
X165441999Y-67621855D01*
X165441999Y-67621855D02*
X165518190Y-67736140D01*
X165518190Y-67736140D02*
X165594380Y-67812331D01*
X165594380Y-67812331D02*
X165670571Y-67850426D01*
X176690796Y-97427880D02*
X177256482Y-96862195D01*
X177256482Y-96862195D02*
X177121795Y-96727508D01*
X177121795Y-96727508D02*
X177014045Y-96673633D01*
X177014045Y-96673633D02*
X176906296Y-96673633D01*
X176906296Y-96673633D02*
X176825483Y-96700571D01*
X176825483Y-96700571D02*
X176690796Y-96781383D01*
X176690796Y-96781383D02*
X176609984Y-96862195D01*
X176609984Y-96862195D02*
X176529172Y-96996882D01*
X176529172Y-96996882D02*
X176502235Y-97077694D01*
X176502235Y-97077694D02*
X176502235Y-97185444D01*
X176502235Y-97185444D02*
X176556109Y-97293193D01*
X176556109Y-97293193D02*
X176690796Y-97427880D01*
X176744671Y-96350384D02*
X176394485Y-96000198D01*
X176394485Y-96000198D02*
X176367548Y-96404259D01*
X176367548Y-96404259D02*
X176286735Y-96323447D01*
X176286735Y-96323447D02*
X176205923Y-96296510D01*
X176205923Y-96296510D02*
X176152048Y-96296510D01*
X176152048Y-96296510D02*
X176071236Y-96323447D01*
X176071236Y-96323447D02*
X175936549Y-96458134D01*
X175936549Y-96458134D02*
X175909612Y-96538946D01*
X175909612Y-96538946D02*
X175909612Y-96592821D01*
X175909612Y-96592821D02*
X175936549Y-96673633D01*
X175936549Y-96673633D02*
X176098174Y-96835258D01*
X176098174Y-96835258D02*
X176178986Y-96862195D01*
X176178986Y-96862195D02*
X176232861Y-96862195D01*
X177381422Y-93030758D02*
X177381422Y-93084633D01*
X177381422Y-93084633D02*
X177435297Y-93192382D01*
X177435297Y-93192382D02*
X177489172Y-93246257D01*
X177489172Y-93246257D02*
X177596922Y-93300132D01*
X177596922Y-93300132D02*
X177704671Y-93300132D01*
X177704671Y-93300132D02*
X177785483Y-93273194D01*
X177785483Y-93273194D02*
X177920170Y-93192382D01*
X177920170Y-93192382D02*
X178000983Y-93111570D01*
X178000983Y-93111570D02*
X178081795Y-92976883D01*
X178081795Y-92976883D02*
X178108732Y-92896071D01*
X178108732Y-92896071D02*
X178108732Y-92788321D01*
X178108732Y-92788321D02*
X178054857Y-92680572D01*
X178054857Y-92680572D02*
X178000983Y-92626697D01*
X178000983Y-92626697D02*
X177893233Y-92572822D01*
X177893233Y-92572822D02*
X177839358Y-92572822D01*
X177704671Y-92330385D02*
X177354485Y-91980199D01*
X177354485Y-91980199D02*
X177327548Y-92384260D01*
X177327548Y-92384260D02*
X177246735Y-92303448D01*
X177246735Y-92303448D02*
X177165923Y-92276511D01*
X177165923Y-92276511D02*
X177112048Y-92276511D01*
X177112048Y-92276511D02*
X177031236Y-92303448D01*
X177031236Y-92303448D02*
X176896549Y-92438135D01*
X176896549Y-92438135D02*
X176869612Y-92518947D01*
X176869612Y-92518947D02*
X176869612Y-92572822D01*
X176869612Y-92572822D02*
X176896549Y-92653634D01*
X176896549Y-92653634D02*
X177058174Y-92815259D01*
X177058174Y-92815259D02*
X177138986Y-92842196D01*
X177138986Y-92842196D02*
X177192861Y-92842196D01*
D10*
X190612857Y-106044819D02*
X190946190Y-105568628D01*
X191184285Y-106044819D02*
X191184285Y-105044819D01*
X191184285Y-105044819D02*
X190803333Y-105044819D01*
X190803333Y-105044819D02*
X190708095Y-105092438D01*
X190708095Y-105092438D02*
X190660476Y-105140057D01*
X190660476Y-105140057D02*
X190612857Y-105235295D01*
X190612857Y-105235295D02*
X190612857Y-105378152D01*
X190612857Y-105378152D02*
X190660476Y-105473390D01*
X190660476Y-105473390D02*
X190708095Y-105521009D01*
X190708095Y-105521009D02*
X190803333Y-105568628D01*
X190803333Y-105568628D02*
X191184285Y-105568628D01*
X189660476Y-106044819D02*
X190231904Y-106044819D01*
X189946190Y-106044819D02*
X189946190Y-105044819D01*
X189946190Y-105044819D02*
X190041428Y-105187676D01*
X190041428Y-105187676D02*
X190136666Y-105282914D01*
X190136666Y-105282914D02*
X190231904Y-105330533D01*
X189184285Y-106044819D02*
X188993809Y-106044819D01*
X188993809Y-106044819D02*
X188898571Y-105997200D01*
X188898571Y-105997200D02*
X188850952Y-105949580D01*
X188850952Y-105949580D02*
X188755714Y-105806723D01*
X188755714Y-105806723D02*
X188708095Y-105616247D01*
X188708095Y-105616247D02*
X188708095Y-105235295D01*
X188708095Y-105235295D02*
X188755714Y-105140057D01*
X188755714Y-105140057D02*
X188803333Y-105092438D01*
X188803333Y-105092438D02*
X188898571Y-105044819D01*
X188898571Y-105044819D02*
X189089047Y-105044819D01*
X189089047Y-105044819D02*
X189184285Y-105092438D01*
X189184285Y-105092438D02*
X189231904Y-105140057D01*
X189231904Y-105140057D02*
X189279523Y-105235295D01*
X189279523Y-105235295D02*
X189279523Y-105473390D01*
X189279523Y-105473390D02*
X189231904Y-105568628D01*
X189231904Y-105568628D02*
X189184285Y-105616247D01*
X189184285Y-105616247D02*
X189089047Y-105663866D01*
X189089047Y-105663866D02*
X188898571Y-105663866D01*
X188898571Y-105663866D02*
X188803333Y-105616247D01*
X188803333Y-105616247D02*
X188755714Y-105568628D01*
X188755714Y-105568628D02*
X188708095Y-105473390D01*
D11*
X183785365Y-87192822D02*
X183219680Y-86627136D01*
X183219680Y-86627136D02*
X183084993Y-86761823D01*
X183084993Y-86761823D02*
X183031118Y-86869573D01*
X183031118Y-86869573D02*
X183031118Y-86977322D01*
X183031118Y-86977322D02*
X183058056Y-87058135D01*
X183058056Y-87058135D02*
X183138868Y-87192822D01*
X183138868Y-87192822D02*
X183219680Y-87273634D01*
X183219680Y-87273634D02*
X183354367Y-87354446D01*
X183354367Y-87354446D02*
X183435179Y-87381383D01*
X183435179Y-87381383D02*
X183542929Y-87381383D01*
X183542929Y-87381383D02*
X183650678Y-87327509D01*
X183650678Y-87327509D02*
X183785365Y-87192822D01*
X182734807Y-87219759D02*
X182680932Y-87219759D01*
X182680932Y-87219759D02*
X182600120Y-87246696D01*
X182600120Y-87246696D02*
X182465433Y-87381383D01*
X182465433Y-87381383D02*
X182438495Y-87462196D01*
X182438495Y-87462196D02*
X182438495Y-87516070D01*
X182438495Y-87516070D02*
X182465433Y-87596883D01*
X182465433Y-87596883D02*
X182519308Y-87650757D01*
X182519308Y-87650757D02*
X182627057Y-87704632D01*
X182627057Y-87704632D02*
X183273555Y-87704632D01*
X183273555Y-87704632D02*
X182923369Y-88054818D01*
X177769182Y-68100251D02*
X177823057Y-68100251D01*
X177823057Y-68100251D02*
X177930806Y-68046376D01*
X177930806Y-68046376D02*
X177984681Y-67992501D01*
X177984681Y-67992501D02*
X178038556Y-67884751D01*
X178038556Y-67884751D02*
X178038556Y-67777002D01*
X178038556Y-67777002D02*
X178011618Y-67696190D01*
X178011618Y-67696190D02*
X177930806Y-67561503D01*
X177930806Y-67561503D02*
X177849994Y-67480690D01*
X177849994Y-67480690D02*
X177715307Y-67399878D01*
X177715307Y-67399878D02*
X177634495Y-67372941D01*
X177634495Y-67372941D02*
X177526745Y-67372941D01*
X177526745Y-67372941D02*
X177418996Y-67426816D01*
X177418996Y-67426816D02*
X177365121Y-67480690D01*
X177365121Y-67480690D02*
X177311246Y-67588440D01*
X177311246Y-67588440D02*
X177311246Y-67642315D01*
X176961060Y-68261875D02*
X177338183Y-68638999D01*
X176880248Y-67911689D02*
X177418996Y-68181063D01*
X177418996Y-68181063D02*
X177068809Y-68531249D01*
X159723664Y-71408667D02*
X159761760Y-71370571D01*
X159761760Y-71370571D02*
X159799855Y-71256286D01*
X159799855Y-71256286D02*
X159799855Y-71180095D01*
X159799855Y-71180095D02*
X159761760Y-71065809D01*
X159761760Y-71065809D02*
X159685569Y-70989619D01*
X159685569Y-70989619D02*
X159609379Y-70951524D01*
X159609379Y-70951524D02*
X159456998Y-70913428D01*
X159456998Y-70913428D02*
X159342712Y-70913428D01*
X159342712Y-70913428D02*
X159190331Y-70951524D01*
X159190331Y-70951524D02*
X159114140Y-70989619D01*
X159114140Y-70989619D02*
X159037950Y-71065809D01*
X159037950Y-71065809D02*
X158999855Y-71180095D01*
X158999855Y-71180095D02*
X158999855Y-71256286D01*
X158999855Y-71256286D02*
X159037950Y-71370571D01*
X159037950Y-71370571D02*
X159076045Y-71408667D01*
X159799855Y-72170571D02*
X159799855Y-71713428D01*
X159799855Y-71942000D02*
X158999855Y-71942000D01*
X158999855Y-71942000D02*
X159114140Y-71865809D01*
X159114140Y-71865809D02*
X159190331Y-71789619D01*
X159190331Y-71789619D02*
X159228426Y-71713428D01*
D10*
X193992857Y-98774819D02*
X194326190Y-98298628D01*
X194564285Y-98774819D02*
X194564285Y-97774819D01*
X194564285Y-97774819D02*
X194183333Y-97774819D01*
X194183333Y-97774819D02*
X194088095Y-97822438D01*
X194088095Y-97822438D02*
X194040476Y-97870057D01*
X194040476Y-97870057D02*
X193992857Y-97965295D01*
X193992857Y-97965295D02*
X193992857Y-98108152D01*
X193992857Y-98108152D02*
X194040476Y-98203390D01*
X194040476Y-98203390D02*
X194088095Y-98251009D01*
X194088095Y-98251009D02*
X194183333Y-98298628D01*
X194183333Y-98298628D02*
X194564285Y-98298628D01*
X193611904Y-97870057D02*
X193564285Y-97822438D01*
X193564285Y-97822438D02*
X193469047Y-97774819D01*
X193469047Y-97774819D02*
X193230952Y-97774819D01*
X193230952Y-97774819D02*
X193135714Y-97822438D01*
X193135714Y-97822438D02*
X193088095Y-97870057D01*
X193088095Y-97870057D02*
X193040476Y-97965295D01*
X193040476Y-97965295D02*
X193040476Y-98060533D01*
X193040476Y-98060533D02*
X193088095Y-98203390D01*
X193088095Y-98203390D02*
X193659523Y-98774819D01*
X193659523Y-98774819D02*
X193040476Y-98774819D01*
X192421428Y-97774819D02*
X192326190Y-97774819D01*
X192326190Y-97774819D02*
X192230952Y-97822438D01*
X192230952Y-97822438D02*
X192183333Y-97870057D01*
X192183333Y-97870057D02*
X192135714Y-97965295D01*
X192135714Y-97965295D02*
X192088095Y-98155771D01*
X192088095Y-98155771D02*
X192088095Y-98393866D01*
X192088095Y-98393866D02*
X192135714Y-98584342D01*
X192135714Y-98584342D02*
X192183333Y-98679580D01*
X192183333Y-98679580D02*
X192230952Y-98727200D01*
X192230952Y-98727200D02*
X192326190Y-98774819D01*
X192326190Y-98774819D02*
X192421428Y-98774819D01*
X192421428Y-98774819D02*
X192516666Y-98727200D01*
X192516666Y-98727200D02*
X192564285Y-98679580D01*
X192564285Y-98679580D02*
X192611904Y-98584342D01*
X192611904Y-98584342D02*
X192659523Y-98393866D01*
X192659523Y-98393866D02*
X192659523Y-98155771D01*
X192659523Y-98155771D02*
X192611904Y-97965295D01*
X192611904Y-97965295D02*
X192564285Y-97870057D01*
X192564285Y-97870057D02*
X192516666Y-97822438D01*
X192516666Y-97822438D02*
X192421428Y-97774819D01*
D11*
%TO.C,R3*%
X178270000Y-107932936D02*
X178270000Y-109387064D01*
X180090000Y-107932936D02*
X180090000Y-109387064D01*
%TO.C,D1*%
X176487810Y-86081595D02*
X179210171Y-83359234D01*
X177902024Y-87495809D02*
X176487810Y-86081595D01*
X177902024Y-87495809D02*
X180624385Y-84773448D01*
%TO.C,D4*%
X180625096Y-67045071D02*
X175746059Y-71924108D01*
X180625096Y-67045071D02*
X182958548Y-69378523D01*
X182958548Y-69378523D02*
X178079511Y-74257560D01*
%TO.C,R7*%
X184252936Y-99100000D02*
X185707064Y-99100000D01*
X184252936Y-100920000D02*
X185707064Y-100920000D01*
%TO.C,R2*%
X183227064Y-101770000D02*
X181772936Y-101770000D01*
X183227064Y-103590000D02*
X181772936Y-103590000D01*
%TO.C,R1*%
X165124936Y-69068000D02*
X166579064Y-69068000D01*
X165124936Y-70888000D02*
X166579064Y-70888000D01*
%TO.C,D3*%
X168322556Y-90798523D02*
X170656008Y-88465071D01*
X168322556Y-90798523D02*
X173201593Y-95677560D01*
X170656008Y-88465071D02*
X175535045Y-93344108D01*
%TO.C,C3*%
X173639008Y-90088457D02*
X174644870Y-91094319D01*
X174925942Y-88801523D02*
X175931804Y-89807385D01*
%TO.C,R19*%
X185740000Y-103332936D02*
X185740000Y-104787064D01*
X187560000Y-103332936D02*
X187560000Y-104787064D01*
%TO.C,D2*%
X181479080Y-84760325D02*
X178756719Y-87482686D01*
X181479080Y-84760325D02*
X182893294Y-86174539D01*
X182893294Y-86174539D02*
X180170933Y-88896900D01*
%TO.C,C4*%
X173744154Y-70332531D02*
X174750016Y-69326669D01*
X175031088Y-71619465D02*
X176036950Y-70613603D01*
%TO.C,C1*%
X160242000Y-70866748D02*
X160242000Y-72289252D01*
X162062000Y-70866748D02*
X162062000Y-72289252D01*
%TO.C,R20*%
X189682936Y-99090000D02*
X191137064Y-99090000D01*
X189682936Y-100910000D02*
X191137064Y-100910000D01*
%TD*%
M02*
