M48
; DRILL file {KiCad 9.0.5} date 2025-12-02T20:22:50+0100
; FORMAT={-:-/ absolute / metric / decimal}
; #@! TF.CreationDate,2025-12-02T20:22:50+01:00
; #@! TF.GenerationSoftware,Kicad,Pcbnew,9.0.5
; #@! TF.FileFunction,Plated,1,2,PTH
FMAT,2
METRIC
; #@! TA.AperFunction,Plated,PTH,ViaDrill
T1C0.400
; #@! TA.AperFunction,Plated,PTH,ComponentDrill
T2C1.000
; #@! TA.AperFunction,Plated,PTH,ComponentDrill
T3C1.200
; #@! TA.AperFunction,Plated,PTH,ComponentDrill
T4C1.300
; #@! TA.AperFunction,Plated,PTH,ComponentDrill
T5C1.500
; #@! TA.AperFunction,Plated,PTH,ComponentDrill
T6C3.200
; #@! TA.AperFunction,Plated,PTH,ComponentDrill
T7C4.000
%
G90
G05
T1
X180.36Y-91.53
X181.531Y-86.033
X190.22Y-86.537
X192.7Y-86.927
X195.33Y-74.45
X198.01Y-95.54
X200.69Y-95.352
T2
X176.54Y-102.85
X176.69Y-108.29
X184.16Y-105.39
X184.31Y-110.83
X189.24Y-102.85
X189.39Y-108.29
T3
X162.248Y-107.832
X165.748Y-107.832
X201.792Y-74.712
X201.792Y-78.212
T4
X163.72Y-75.83
X163.72Y-83.99
X167.48Y-73.66
X167.48Y-86.16
X171.76Y-74.41
X171.76Y-85.41
X174.55Y-77.74
X174.55Y-82.08
T5
X135.43Y-76.74
X135.45Y-80.96
X135.53Y-87.31
X135.59Y-91.61
T6
X135.62Y-66.94
X135.62Y-117.01
X203.08Y-66.94
X203.11Y-116.9
T7
X153.48Y-79.91
X183.68Y-79.91
M30
