%TF.GenerationSoftware,KiCad,Pcbnew,9.0.5*%
%TF.CreationDate,2025-12-02T20:22:52+01:00*%
%TF.ProjectId,Amplifier,416d706c-6966-4696-9572-2e6b69636164,rev?*%
%TF.SameCoordinates,Original*%
%TF.FileFunction,Soldermask,Top*%
%TF.FilePolarity,Negative*%
%FSLAX46Y46*%
G04 Gerber Fmt 4.6, Leading zero omitted, Abs format (unit mm)*
G04 Created by KiCad (PCBNEW 9.0.5) date 2025-12-02 20:22:52*
%MOMM*%
%LPD*%
G01*
G04 APERTURE LIST*
G04 Aperture macros list*
%AMRoundRect*
0 Rectangle with rounded corners*
0 $1 Rounding radius*
0 $2 $3 $4 $5 $6 $7 $8 $9 X,Y pos of 4 corners*
0 Add a 4 corners polygon primitive as box body*
4,1,4,$2,$3,$4,$5,$6,$7,$8,$9,$2,$3,0*
0 Add four circle primitives for the rounded corners*
1,1,$1+$1,$2,$3*
1,1,$1+$1,$4,$5*
1,1,$1+$1,$6,$7*
1,1,$1+$1,$8,$9*
0 Add four rect primitives between the rounded corners*
20,1,$1+$1,$2,$3,$4,$5,0*
20,1,$1+$1,$4,$5,$6,$7,0*
20,1,$1+$1,$6,$7,$8,$9,0*
20,1,$1+$1,$8,$9,$2,$3,0*%
G04 Aperture macros list end*
%ADD10R,2.500000X2.500000*%
%ADD11RoundRect,0.250000X0.650000X-0.412500X0.650000X0.412500X-0.650000X0.412500X-0.650000X-0.412500X0*%
%ADD12RoundRect,0.250000X-0.625000X0.400000X-0.625000X-0.400000X0.625000X-0.400000X0.625000X0.400000X0*%
%ADD13RoundRect,0.250000X-0.650000X-1.550000X0.650000X-1.550000X0.650000X1.550000X-0.650000X1.550000X0*%
%ADD14O,1.800000X3.600000*%
%ADD15RoundRect,0.250000X0.625000X-0.400000X0.625000X0.400000X-0.625000X0.400000X-0.625000X-0.400000X0*%
%ADD16RoundRect,0.250000X-0.400000X-0.625000X0.400000X-0.625000X0.400000X0.625000X-0.400000X0.625000X0*%
%ADD17C,5.600000*%
%ADD18RoundRect,0.250000X0.400000X0.625000X-0.400000X0.625000X-0.400000X-0.625000X0.400000X-0.625000X0*%
%ADD19C,1.800000*%
%ADD20RoundRect,0.250000X0.600000X-0.400000X0.600000X0.400000X-0.600000X0.400000X-0.600000X-0.400000X0*%
%ADD21RoundRect,0.250000X1.550000X-0.650000X1.550000X0.650000X-1.550000X0.650000X-1.550000X-0.650000X0*%
%ADD22O,3.600000X1.800000*%
%ADD23RoundRect,0.250000X-0.650000X0.412500X-0.650000X-0.412500X0.650000X-0.412500X0.650000X0.412500X0*%
%ADD24C,2.600000*%
%ADD25C,6.350000*%
%ADD26RoundRect,0.250001X1.979898X-0.848528X-0.848528X1.979898X-1.979898X0.848528X0.848528X-1.979898X0*%
%ADD27RoundRect,0.250001X0.848528X1.979898X-1.979898X-0.848528X-0.848528X-1.979898X1.979898X0.848528X0*%
G04 APERTURE END LIST*
D10*
%TO.C,TP4*%
X135530000Y-87310000D03*
%TD*%
D11*
%TO.C,C2*%
X200690000Y-95352500D03*
X200690000Y-92227500D03*
%TD*%
D12*
%TO.C,R13*%
X195450000Y-92260000D03*
X195450000Y-95360000D03*
%TD*%
D13*
%TO.C,J1*%
X162247500Y-107832500D03*
D14*
X165747500Y-107832500D03*
%TD*%
D15*
%TO.C,R10*%
X190210552Y-95303067D03*
X190210552Y-92203067D03*
%TD*%
D16*
%TO.C,R5*%
X162270000Y-100380000D03*
X165370000Y-100380000D03*
%TD*%
D17*
%TO.C,H2*%
X203080000Y-66940000D03*
%TD*%
D16*
%TO.C,R18*%
X168540000Y-100380000D03*
X171640000Y-100380000D03*
%TD*%
%TO.C,R16*%
X171700000Y-97870000D03*
X174800000Y-97870000D03*
%TD*%
D15*
%TO.C,R15*%
X180360000Y-94630000D03*
X180360000Y-91530000D03*
%TD*%
D18*
%TO.C,R8*%
X186120000Y-94400000D03*
X183020000Y-94400000D03*
%TD*%
D16*
%TO.C,R4*%
X165430000Y-97820000D03*
X168530000Y-97820000D03*
%TD*%
%TO.C,R6*%
X162260000Y-95190000D03*
X165360000Y-95190000D03*
%TD*%
D15*
%TO.C,R12*%
X192130000Y-79000000D03*
X192130000Y-75900000D03*
%TD*%
D18*
%TO.C,R14*%
X184730000Y-64430000D03*
X181630000Y-64430000D03*
%TD*%
D19*
%TO.C,RV1*%
X176540000Y-102850000D03*
X184160000Y-105390000D03*
X189240000Y-102850000D03*
%TD*%
D12*
%TO.C,R9*%
X186180552Y-88323067D03*
X186180552Y-91423067D03*
%TD*%
D20*
%TO.C,D5*%
X190220000Y-90037500D03*
X190220000Y-86537500D03*
%TD*%
D21*
%TO.C,J3*%
X201792500Y-78212500D03*
D22*
X201792500Y-74712500D03*
%TD*%
D17*
%TO.C,H4*%
X135620000Y-117010000D03*
%TD*%
D10*
%TO.C,TP1*%
X135590000Y-91610000D03*
%TD*%
D17*
%TO.C,H1*%
X203110000Y-116900000D03*
%TD*%
D10*
%TO.C,TP3*%
X135450000Y-80960000D03*
%TD*%
D20*
%TO.C,D6*%
X198010000Y-95540000D03*
X198010000Y-92040000D03*
%TD*%
D18*
%TO.C,R11*%
X179460000Y-64430000D03*
X176360000Y-64430000D03*
%TD*%
D23*
%TO.C,C5*%
X192700000Y-86927500D03*
X192700000Y-90052500D03*
%TD*%
D15*
%TO.C,R17*%
X195330000Y-77550000D03*
X195330000Y-74450000D03*
%TD*%
D17*
%TO.C,H3*%
X135620000Y-66940000D03*
%TD*%
D19*
%TO.C,RV2*%
X176690000Y-108290000D03*
X184310000Y-110830000D03*
X189390000Y-108290000D03*
%TD*%
D10*
%TO.C,TP2*%
X135430000Y-76740000D03*
%TD*%
D24*
%TO.C,U1*%
X163720000Y-83990000D03*
X167480000Y-86160000D03*
X171760000Y-85410000D03*
X174550000Y-82080000D03*
X174550000Y-77740000D03*
X171760000Y-74410000D03*
X167480000Y-73660000D03*
X163720000Y-75830000D03*
D25*
X153480000Y-79910000D03*
X183680000Y-79910000D03*
%TD*%
D26*
%TO.C,C19*%
X148445584Y-94275584D03*
X143354416Y-89184416D03*
%TD*%
D27*
%TO.C,C20*%
X147408998Y-66401003D03*
X142317830Y-71492171D03*
%TD*%
M02*
