%TF.GenerationSoftware,KiCad,Pcbnew,9.0.5*%
%TF.CreationDate,2025-12-23T22:22:43+01:00*%
%TF.ProjectId,Amplifier Compound,416d706c-6966-4696-9572-20436f6d706f,rev?*%
%TF.SameCoordinates,Original*%
%TF.FileFunction,Legend,Bot*%
%TF.FilePolarity,Positive*%
%FSLAX46Y46*%
G04 Gerber Fmt 4.6, Leading zero omitted, Abs format (unit mm)*
G04 Created by KiCad (PCBNEW 9.0.5) date 2025-12-23 22:22:43*
%MOMM*%
%LPD*%
G01*
G04 APERTURE LIST*
%ADD10C,0.150000*%
%ADD11C,0.120000*%
G04 APERTURE END LIST*
D10*
X180400179Y-77541041D02*
X180299164Y-76968622D01*
X180804240Y-77136980D02*
X180097133Y-76429874D01*
X180097133Y-76429874D02*
X179827759Y-76699248D01*
X179827759Y-76699248D02*
X179794087Y-76800263D01*
X179794087Y-76800263D02*
X179794087Y-76867606D01*
X179794087Y-76867606D02*
X179827759Y-76968622D01*
X179827759Y-76968622D02*
X179928774Y-77069637D01*
X179928774Y-77069637D02*
X180029790Y-77103309D01*
X180029790Y-77103309D02*
X180097133Y-77103309D01*
X180097133Y-77103309D02*
X180198148Y-77069637D01*
X180198148Y-77069637D02*
X180467522Y-76800263D01*
X179726744Y-78214476D02*
X180130805Y-77810415D01*
X179928774Y-78012446D02*
X179221668Y-77305339D01*
X179221668Y-77305339D02*
X179390026Y-77339011D01*
X179390026Y-77339011D02*
X179524713Y-77339011D01*
X179524713Y-77339011D02*
X179625729Y-77305339D01*
X178783935Y-77743072D02*
X178346202Y-78180805D01*
X178346202Y-78180805D02*
X178851278Y-78214477D01*
X178851278Y-78214477D02*
X178750263Y-78315492D01*
X178750263Y-78315492D02*
X178716591Y-78416507D01*
X178716591Y-78416507D02*
X178716591Y-78483851D01*
X178716591Y-78483851D02*
X178750263Y-78584866D01*
X178750263Y-78584866D02*
X178918622Y-78753225D01*
X178918622Y-78753225D02*
X179019637Y-78786896D01*
X179019637Y-78786896D02*
X179086980Y-78786896D01*
X179086980Y-78786896D02*
X179187996Y-78753225D01*
X179187996Y-78753225D02*
X179390026Y-78551194D01*
X179390026Y-78551194D02*
X179423698Y-78450179D01*
X179423698Y-78450179D02*
X179423698Y-78382835D01*
X180796292Y-84341604D02*
X180829964Y-84240589D01*
X180829964Y-84240589D02*
X180829964Y-84105902D01*
X180829964Y-84105902D02*
X180829964Y-83903871D01*
X180829964Y-83903871D02*
X180863636Y-83802856D01*
X180863636Y-83802856D02*
X180930979Y-83735513D01*
X181065666Y-83937543D02*
X181099338Y-83836528D01*
X181099338Y-83836528D02*
X181099338Y-83701841D01*
X181099338Y-83701841D02*
X180998323Y-83533482D01*
X180998323Y-83533482D02*
X180762620Y-83297780D01*
X180762620Y-83297780D02*
X180594262Y-83196765D01*
X180594262Y-83196765D02*
X180459575Y-83196765D01*
X180459575Y-83196765D02*
X180358559Y-83230436D01*
X180358559Y-83230436D02*
X180223872Y-83365123D01*
X180223872Y-83365123D02*
X180190201Y-83466139D01*
X180190201Y-83466139D02*
X180190201Y-83600826D01*
X180190201Y-83600826D02*
X180291216Y-83769184D01*
X180291216Y-83769184D02*
X180526918Y-84004887D01*
X180526918Y-84004887D02*
X180695277Y-84105902D01*
X180695277Y-84105902D02*
X180829964Y-84105902D01*
X180829964Y-84105902D02*
X180930979Y-84072230D01*
X180930979Y-84072230D02*
X181065666Y-83937543D01*
X179853483Y-83870200D02*
X179786140Y-83870200D01*
X179786140Y-83870200D02*
X179685124Y-83903871D01*
X179685124Y-83903871D02*
X179516766Y-84072230D01*
X179516766Y-84072230D02*
X179483094Y-84173245D01*
X179483094Y-84173245D02*
X179483094Y-84240589D01*
X179483094Y-84240589D02*
X179516766Y-84341604D01*
X179516766Y-84341604D02*
X179584109Y-84408948D01*
X179584109Y-84408948D02*
X179718796Y-84476291D01*
X179718796Y-84476291D02*
X180526918Y-84476291D01*
X180526918Y-84476291D02*
X180089185Y-84914024D01*
D11*
X183514812Y-70889755D02*
X182949127Y-70324069D01*
X182949127Y-70324069D02*
X182814440Y-70458756D01*
X182814440Y-70458756D02*
X182760565Y-70566506D01*
X182760565Y-70566506D02*
X182760565Y-70674255D01*
X182760565Y-70674255D02*
X182787503Y-70755068D01*
X182787503Y-70755068D02*
X182868315Y-70889755D01*
X182868315Y-70889755D02*
X182949127Y-70970567D01*
X182949127Y-70970567D02*
X183083814Y-71051379D01*
X183083814Y-71051379D02*
X183164626Y-71078316D01*
X183164626Y-71078316D02*
X183272376Y-71078316D01*
X183272376Y-71078316D02*
X183380125Y-71024442D01*
X183380125Y-71024442D02*
X183514812Y-70889755D01*
X182329567Y-71320753D02*
X182706690Y-71697877D01*
X182248755Y-70970567D02*
X182787503Y-71239941D01*
X182787503Y-71239941D02*
X182437316Y-71590127D01*
D10*
X201546666Y-102299580D02*
X201594285Y-102347200D01*
X201594285Y-102347200D02*
X201737142Y-102394819D01*
X201737142Y-102394819D02*
X201832380Y-102394819D01*
X201832380Y-102394819D02*
X201975237Y-102347200D01*
X201975237Y-102347200D02*
X202070475Y-102251961D01*
X202070475Y-102251961D02*
X202118094Y-102156723D01*
X202118094Y-102156723D02*
X202165713Y-101966247D01*
X202165713Y-101966247D02*
X202165713Y-101823390D01*
X202165713Y-101823390D02*
X202118094Y-101632914D01*
X202118094Y-101632914D02*
X202070475Y-101537676D01*
X202070475Y-101537676D02*
X201975237Y-101442438D01*
X201975237Y-101442438D02*
X201832380Y-101394819D01*
X201832380Y-101394819D02*
X201737142Y-101394819D01*
X201737142Y-101394819D02*
X201594285Y-101442438D01*
X201594285Y-101442438D02*
X201546666Y-101490057D01*
X200975237Y-101823390D02*
X201070475Y-101775771D01*
X201070475Y-101775771D02*
X201118094Y-101728152D01*
X201118094Y-101728152D02*
X201165713Y-101632914D01*
X201165713Y-101632914D02*
X201165713Y-101585295D01*
X201165713Y-101585295D02*
X201118094Y-101490057D01*
X201118094Y-101490057D02*
X201070475Y-101442438D01*
X201070475Y-101442438D02*
X200975237Y-101394819D01*
X200975237Y-101394819D02*
X200784761Y-101394819D01*
X200784761Y-101394819D02*
X200689523Y-101442438D01*
X200689523Y-101442438D02*
X200641904Y-101490057D01*
X200641904Y-101490057D02*
X200594285Y-101585295D01*
X200594285Y-101585295D02*
X200594285Y-101632914D01*
X200594285Y-101632914D02*
X200641904Y-101728152D01*
X200641904Y-101728152D02*
X200689523Y-101775771D01*
X200689523Y-101775771D02*
X200784761Y-101823390D01*
X200784761Y-101823390D02*
X200975237Y-101823390D01*
X200975237Y-101823390D02*
X201070475Y-101871009D01*
X201070475Y-101871009D02*
X201118094Y-101918628D01*
X201118094Y-101918628D02*
X201165713Y-102013866D01*
X201165713Y-102013866D02*
X201165713Y-102204342D01*
X201165713Y-102204342D02*
X201118094Y-102299580D01*
X201118094Y-102299580D02*
X201070475Y-102347200D01*
X201070475Y-102347200D02*
X200975237Y-102394819D01*
X200975237Y-102394819D02*
X200784761Y-102394819D01*
X200784761Y-102394819D02*
X200689523Y-102347200D01*
X200689523Y-102347200D02*
X200641904Y-102299580D01*
X200641904Y-102299580D02*
X200594285Y-102204342D01*
X200594285Y-102204342D02*
X200594285Y-102013866D01*
X200594285Y-102013866D02*
X200641904Y-101918628D01*
X200641904Y-101918628D02*
X200689523Y-101871009D01*
X200689523Y-101871009D02*
X200784761Y-101823390D01*
X185146666Y-102904819D02*
X185479999Y-102428628D01*
X185718094Y-102904819D02*
X185718094Y-101904819D01*
X185718094Y-101904819D02*
X185337142Y-101904819D01*
X185337142Y-101904819D02*
X185241904Y-101952438D01*
X185241904Y-101952438D02*
X185194285Y-102000057D01*
X185194285Y-102000057D02*
X185146666Y-102095295D01*
X185146666Y-102095295D02*
X185146666Y-102238152D01*
X185146666Y-102238152D02*
X185194285Y-102333390D01*
X185194285Y-102333390D02*
X185241904Y-102381009D01*
X185241904Y-102381009D02*
X185337142Y-102428628D01*
X185337142Y-102428628D02*
X185718094Y-102428628D01*
X184813332Y-101904819D02*
X184146666Y-101904819D01*
X184146666Y-101904819D02*
X184575237Y-102904819D01*
X160712707Y-76787036D02*
X160611692Y-76214617D01*
X161116768Y-76382975D02*
X160409661Y-75675869D01*
X160409661Y-75675869D02*
X160140287Y-75945243D01*
X160140287Y-75945243D02*
X160106615Y-76046258D01*
X160106615Y-76046258D02*
X160106615Y-76113601D01*
X160106615Y-76113601D02*
X160140287Y-76214617D01*
X160140287Y-76214617D02*
X160241302Y-76315632D01*
X160241302Y-76315632D02*
X160342318Y-76349304D01*
X160342318Y-76349304D02*
X160409661Y-76349304D01*
X160409661Y-76349304D02*
X160510676Y-76315632D01*
X160510676Y-76315632D02*
X160780050Y-76046258D01*
X160039272Y-77460471D02*
X160443333Y-77056410D01*
X160241302Y-77258441D02*
X159534196Y-76551334D01*
X159534196Y-76551334D02*
X159702554Y-76585006D01*
X159702554Y-76585006D02*
X159837241Y-76585006D01*
X159837241Y-76585006D02*
X159938257Y-76551334D01*
X158894432Y-77191098D02*
X158827089Y-77258441D01*
X158827089Y-77258441D02*
X158793417Y-77359456D01*
X158793417Y-77359456D02*
X158793417Y-77426800D01*
X158793417Y-77426800D02*
X158827089Y-77527815D01*
X158827089Y-77527815D02*
X158928104Y-77696174D01*
X158928104Y-77696174D02*
X159096463Y-77864533D01*
X159096463Y-77864533D02*
X159264821Y-77965548D01*
X159264821Y-77965548D02*
X159365837Y-77999220D01*
X159365837Y-77999220D02*
X159433180Y-77999220D01*
X159433180Y-77999220D02*
X159534195Y-77965548D01*
X159534195Y-77965548D02*
X159601539Y-77898204D01*
X159601539Y-77898204D02*
X159635211Y-77797189D01*
X159635211Y-77797189D02*
X159635211Y-77729846D01*
X159635211Y-77729846D02*
X159601539Y-77628830D01*
X159601539Y-77628830D02*
X159500524Y-77460472D01*
X159500524Y-77460472D02*
X159332165Y-77292113D01*
X159332165Y-77292113D02*
X159163806Y-77191098D01*
X159163806Y-77191098D02*
X159062791Y-77157426D01*
X159062791Y-77157426D02*
X158995447Y-77157426D01*
X158995447Y-77157426D02*
X158894432Y-77191098D01*
X184090606Y-86317289D02*
X184124278Y-86216274D01*
X184124278Y-86216274D02*
X184124278Y-86081587D01*
X184124278Y-86081587D02*
X184124278Y-85879556D01*
X184124278Y-85879556D02*
X184157950Y-85778541D01*
X184157950Y-85778541D02*
X184225293Y-85711198D01*
X184359980Y-85913228D02*
X184393652Y-85812213D01*
X184393652Y-85812213D02*
X184393652Y-85677526D01*
X184393652Y-85677526D02*
X184292637Y-85509167D01*
X184292637Y-85509167D02*
X184056934Y-85273465D01*
X184056934Y-85273465D02*
X183888576Y-85172450D01*
X183888576Y-85172450D02*
X183753889Y-85172450D01*
X183753889Y-85172450D02*
X183652873Y-85206121D01*
X183652873Y-85206121D02*
X183518186Y-85340808D01*
X183518186Y-85340808D02*
X183484515Y-85441824D01*
X183484515Y-85441824D02*
X183484515Y-85576511D01*
X183484515Y-85576511D02*
X183585530Y-85744869D01*
X183585530Y-85744869D02*
X183821232Y-85980572D01*
X183821232Y-85980572D02*
X183989591Y-86081587D01*
X183989591Y-86081587D02*
X184124278Y-86081587D01*
X184124278Y-86081587D02*
X184225293Y-86047915D01*
X184225293Y-86047915D02*
X184359980Y-85913228D01*
X183383499Y-86889709D02*
X183787560Y-86485648D01*
X183585530Y-86687678D02*
X182878423Y-85980572D01*
X182878423Y-85980572D02*
X183046782Y-86014243D01*
X183046782Y-86014243D02*
X183181469Y-86014243D01*
X183181469Y-86014243D02*
X183282484Y-85980572D01*
D11*
X182240396Y-105303855D02*
X182507063Y-104922902D01*
X182697539Y-105303855D02*
X182697539Y-104503855D01*
X182697539Y-104503855D02*
X182392777Y-104503855D01*
X182392777Y-104503855D02*
X182316587Y-104541950D01*
X182316587Y-104541950D02*
X182278492Y-104580045D01*
X182278492Y-104580045D02*
X182240396Y-104656236D01*
X182240396Y-104656236D02*
X182240396Y-104770521D01*
X182240396Y-104770521D02*
X182278492Y-104846712D01*
X182278492Y-104846712D02*
X182316587Y-104884807D01*
X182316587Y-104884807D02*
X182392777Y-104922902D01*
X182392777Y-104922902D02*
X182697539Y-104922902D01*
X181935635Y-104580045D02*
X181897539Y-104541950D01*
X181897539Y-104541950D02*
X181821349Y-104503855D01*
X181821349Y-104503855D02*
X181630873Y-104503855D01*
X181630873Y-104503855D02*
X181554682Y-104541950D01*
X181554682Y-104541950D02*
X181516587Y-104580045D01*
X181516587Y-104580045D02*
X181478492Y-104656236D01*
X181478492Y-104656236D02*
X181478492Y-104732426D01*
X181478492Y-104732426D02*
X181516587Y-104846712D01*
X181516587Y-104846712D02*
X181973730Y-105303855D01*
X181973730Y-105303855D02*
X181478492Y-105303855D01*
D10*
X168636666Y-76684819D02*
X168969999Y-76208628D01*
X169208094Y-76684819D02*
X169208094Y-75684819D01*
X169208094Y-75684819D02*
X168827142Y-75684819D01*
X168827142Y-75684819D02*
X168731904Y-75732438D01*
X168731904Y-75732438D02*
X168684285Y-75780057D01*
X168684285Y-75780057D02*
X168636666Y-75875295D01*
X168636666Y-75875295D02*
X168636666Y-76018152D01*
X168636666Y-76018152D02*
X168684285Y-76113390D01*
X168684285Y-76113390D02*
X168731904Y-76161009D01*
X168731904Y-76161009D02*
X168827142Y-76208628D01*
X168827142Y-76208628D02*
X169208094Y-76208628D01*
X168303332Y-75684819D02*
X167684285Y-75684819D01*
X167684285Y-75684819D02*
X168017618Y-76065771D01*
X168017618Y-76065771D02*
X167874761Y-76065771D01*
X167874761Y-76065771D02*
X167779523Y-76113390D01*
X167779523Y-76113390D02*
X167731904Y-76161009D01*
X167731904Y-76161009D02*
X167684285Y-76256247D01*
X167684285Y-76256247D02*
X167684285Y-76494342D01*
X167684285Y-76494342D02*
X167731904Y-76589580D01*
X167731904Y-76589580D02*
X167779523Y-76637200D01*
X167779523Y-76637200D02*
X167874761Y-76684819D01*
X167874761Y-76684819D02*
X168160475Y-76684819D01*
X168160475Y-76684819D02*
X168255713Y-76637200D01*
X168255713Y-76637200D02*
X168303332Y-76589580D01*
X160033440Y-84389769D02*
X159932425Y-83817350D01*
X160437501Y-83985708D02*
X159730394Y-83278602D01*
X159730394Y-83278602D02*
X159461020Y-83547976D01*
X159461020Y-83547976D02*
X159427348Y-83648991D01*
X159427348Y-83648991D02*
X159427348Y-83716334D01*
X159427348Y-83716334D02*
X159461020Y-83817350D01*
X159461020Y-83817350D02*
X159562035Y-83918365D01*
X159562035Y-83918365D02*
X159663051Y-83952037D01*
X159663051Y-83952037D02*
X159730394Y-83952037D01*
X159730394Y-83952037D02*
X159831409Y-83918365D01*
X159831409Y-83918365D02*
X160100783Y-83648991D01*
X159696722Y-84726487D02*
X159562035Y-84861174D01*
X159562035Y-84861174D02*
X159461020Y-84894846D01*
X159461020Y-84894846D02*
X159393677Y-84894846D01*
X159393677Y-84894846D02*
X159225318Y-84861174D01*
X159225318Y-84861174D02*
X159056959Y-84760159D01*
X159056959Y-84760159D02*
X158787585Y-84490785D01*
X158787585Y-84490785D02*
X158753913Y-84389769D01*
X158753913Y-84389769D02*
X158753913Y-84322426D01*
X158753913Y-84322426D02*
X158787585Y-84221411D01*
X158787585Y-84221411D02*
X158922272Y-84086724D01*
X158922272Y-84086724D02*
X159023287Y-84053052D01*
X159023287Y-84053052D02*
X159090631Y-84053052D01*
X159090631Y-84053052D02*
X159191646Y-84086724D01*
X159191646Y-84086724D02*
X159360005Y-84255082D01*
X159360005Y-84255082D02*
X159393677Y-84356098D01*
X159393677Y-84356098D02*
X159393677Y-84423441D01*
X159393677Y-84423441D02*
X159360005Y-84524456D01*
X159360005Y-84524456D02*
X159225318Y-84659143D01*
X159225318Y-84659143D02*
X159124303Y-84692815D01*
X159124303Y-84692815D02*
X159056959Y-84692815D01*
X159056959Y-84692815D02*
X158955944Y-84659143D01*
D11*
X165975332Y-68421855D02*
X166241999Y-68040902D01*
X166432475Y-68421855D02*
X166432475Y-67621855D01*
X166432475Y-67621855D02*
X166127713Y-67621855D01*
X166127713Y-67621855D02*
X166051523Y-67659950D01*
X166051523Y-67659950D02*
X166013428Y-67698045D01*
X166013428Y-67698045D02*
X165975332Y-67774236D01*
X165975332Y-67774236D02*
X165975332Y-67888521D01*
X165975332Y-67888521D02*
X166013428Y-67964712D01*
X166013428Y-67964712D02*
X166051523Y-68002807D01*
X166051523Y-68002807D02*
X166127713Y-68040902D01*
X166127713Y-68040902D02*
X166432475Y-68040902D01*
X165213428Y-68421855D02*
X165670571Y-68421855D01*
X165441999Y-68421855D02*
X165441999Y-67621855D01*
X165441999Y-67621855D02*
X165518190Y-67736140D01*
X165518190Y-67736140D02*
X165594380Y-67812331D01*
X165594380Y-67812331D02*
X165670571Y-67850426D01*
X176690796Y-97427880D02*
X177256482Y-96862195D01*
X177256482Y-96862195D02*
X177121795Y-96727508D01*
X177121795Y-96727508D02*
X177014045Y-96673633D01*
X177014045Y-96673633D02*
X176906296Y-96673633D01*
X176906296Y-96673633D02*
X176825483Y-96700571D01*
X176825483Y-96700571D02*
X176690796Y-96781383D01*
X176690796Y-96781383D02*
X176609984Y-96862195D01*
X176609984Y-96862195D02*
X176529172Y-96996882D01*
X176529172Y-96996882D02*
X176502235Y-97077694D01*
X176502235Y-97077694D02*
X176502235Y-97185444D01*
X176502235Y-97185444D02*
X176556109Y-97293193D01*
X176556109Y-97293193D02*
X176690796Y-97427880D01*
X176744671Y-96350384D02*
X176394485Y-96000198D01*
X176394485Y-96000198D02*
X176367548Y-96404259D01*
X176367548Y-96404259D02*
X176286735Y-96323447D01*
X176286735Y-96323447D02*
X176205923Y-96296510D01*
X176205923Y-96296510D02*
X176152048Y-96296510D01*
X176152048Y-96296510D02*
X176071236Y-96323447D01*
X176071236Y-96323447D02*
X175936549Y-96458134D01*
X175936549Y-96458134D02*
X175909612Y-96538946D01*
X175909612Y-96538946D02*
X175909612Y-96592821D01*
X175909612Y-96592821D02*
X175936549Y-96673633D01*
X175936549Y-96673633D02*
X176098174Y-96835258D01*
X176098174Y-96835258D02*
X176178986Y-96862195D01*
X176178986Y-96862195D02*
X176232861Y-96862195D01*
X177381422Y-93030758D02*
X177381422Y-93084633D01*
X177381422Y-93084633D02*
X177435297Y-93192382D01*
X177435297Y-93192382D02*
X177489172Y-93246257D01*
X177489172Y-93246257D02*
X177596922Y-93300132D01*
X177596922Y-93300132D02*
X177704671Y-93300132D01*
X177704671Y-93300132D02*
X177785483Y-93273194D01*
X177785483Y-93273194D02*
X177920170Y-93192382D01*
X177920170Y-93192382D02*
X178000983Y-93111570D01*
X178000983Y-93111570D02*
X178081795Y-92976883D01*
X178081795Y-92976883D02*
X178108732Y-92896071D01*
X178108732Y-92896071D02*
X178108732Y-92788321D01*
X178108732Y-92788321D02*
X178054857Y-92680572D01*
X178054857Y-92680572D02*
X178000983Y-92626697D01*
X178000983Y-92626697D02*
X177893233Y-92572822D01*
X177893233Y-92572822D02*
X177839358Y-92572822D01*
X177704671Y-92330385D02*
X177354485Y-91980199D01*
X177354485Y-91980199D02*
X177327548Y-92384260D01*
X177327548Y-92384260D02*
X177246735Y-92303448D01*
X177246735Y-92303448D02*
X177165923Y-92276511D01*
X177165923Y-92276511D02*
X177112048Y-92276511D01*
X177112048Y-92276511D02*
X177031236Y-92303448D01*
X177031236Y-92303448D02*
X176896549Y-92438135D01*
X176896549Y-92438135D02*
X176869612Y-92518947D01*
X176869612Y-92518947D02*
X176869612Y-92572822D01*
X176869612Y-92572822D02*
X176896549Y-92653634D01*
X176896549Y-92653634D02*
X177058174Y-92815259D01*
X177058174Y-92815259D02*
X177138986Y-92842196D01*
X177138986Y-92842196D02*
X177192861Y-92842196D01*
D10*
X196336666Y-94939580D02*
X196384285Y-94987200D01*
X196384285Y-94987200D02*
X196527142Y-95034819D01*
X196527142Y-95034819D02*
X196622380Y-95034819D01*
X196622380Y-95034819D02*
X196765237Y-94987200D01*
X196765237Y-94987200D02*
X196860475Y-94891961D01*
X196860475Y-94891961D02*
X196908094Y-94796723D01*
X196908094Y-94796723D02*
X196955713Y-94606247D01*
X196955713Y-94606247D02*
X196955713Y-94463390D01*
X196955713Y-94463390D02*
X196908094Y-94272914D01*
X196908094Y-94272914D02*
X196860475Y-94177676D01*
X196860475Y-94177676D02*
X196765237Y-94082438D01*
X196765237Y-94082438D02*
X196622380Y-94034819D01*
X196622380Y-94034819D02*
X196527142Y-94034819D01*
X196527142Y-94034819D02*
X196384285Y-94082438D01*
X196384285Y-94082438D02*
X196336666Y-94130057D01*
X195860475Y-95034819D02*
X195669999Y-95034819D01*
X195669999Y-95034819D02*
X195574761Y-94987200D01*
X195574761Y-94987200D02*
X195527142Y-94939580D01*
X195527142Y-94939580D02*
X195431904Y-94796723D01*
X195431904Y-94796723D02*
X195384285Y-94606247D01*
X195384285Y-94606247D02*
X195384285Y-94225295D01*
X195384285Y-94225295D02*
X195431904Y-94130057D01*
X195431904Y-94130057D02*
X195479523Y-94082438D01*
X195479523Y-94082438D02*
X195574761Y-94034819D01*
X195574761Y-94034819D02*
X195765237Y-94034819D01*
X195765237Y-94034819D02*
X195860475Y-94082438D01*
X195860475Y-94082438D02*
X195908094Y-94130057D01*
X195908094Y-94130057D02*
X195955713Y-94225295D01*
X195955713Y-94225295D02*
X195955713Y-94463390D01*
X195955713Y-94463390D02*
X195908094Y-94558628D01*
X195908094Y-94558628D02*
X195860475Y-94606247D01*
X195860475Y-94606247D02*
X195765237Y-94653866D01*
X195765237Y-94653866D02*
X195574761Y-94653866D01*
X195574761Y-94653866D02*
X195479523Y-94606247D01*
X195479523Y-94606247D02*
X195431904Y-94558628D01*
X195431904Y-94558628D02*
X195384285Y-94463390D01*
X174594819Y-104717142D02*
X174118628Y-104383809D01*
X174594819Y-104145714D02*
X173594819Y-104145714D01*
X173594819Y-104145714D02*
X173594819Y-104526666D01*
X173594819Y-104526666D02*
X173642438Y-104621904D01*
X173642438Y-104621904D02*
X173690057Y-104669523D01*
X173690057Y-104669523D02*
X173785295Y-104717142D01*
X173785295Y-104717142D02*
X173928152Y-104717142D01*
X173928152Y-104717142D02*
X174023390Y-104669523D01*
X174023390Y-104669523D02*
X174071009Y-104621904D01*
X174071009Y-104621904D02*
X174118628Y-104526666D01*
X174118628Y-104526666D02*
X174118628Y-104145714D01*
X174594819Y-105669523D02*
X174594819Y-105098095D01*
X174594819Y-105383809D02*
X173594819Y-105383809D01*
X173594819Y-105383809D02*
X173737676Y-105288571D01*
X173737676Y-105288571D02*
X173832914Y-105193333D01*
X173832914Y-105193333D02*
X173880533Y-105098095D01*
X174594819Y-106145714D02*
X174594819Y-106336190D01*
X174594819Y-106336190D02*
X174547200Y-106431428D01*
X174547200Y-106431428D02*
X174499580Y-106479047D01*
X174499580Y-106479047D02*
X174356723Y-106574285D01*
X174356723Y-106574285D02*
X174166247Y-106621904D01*
X174166247Y-106621904D02*
X173785295Y-106621904D01*
X173785295Y-106621904D02*
X173690057Y-106574285D01*
X173690057Y-106574285D02*
X173642438Y-106526666D01*
X173642438Y-106526666D02*
X173594819Y-106431428D01*
X173594819Y-106431428D02*
X173594819Y-106240952D01*
X173594819Y-106240952D02*
X173642438Y-106145714D01*
X173642438Y-106145714D02*
X173690057Y-106098095D01*
X173690057Y-106098095D02*
X173785295Y-106050476D01*
X173785295Y-106050476D02*
X174023390Y-106050476D01*
X174023390Y-106050476D02*
X174118628Y-106098095D01*
X174118628Y-106098095D02*
X174166247Y-106145714D01*
X174166247Y-106145714D02*
X174213866Y-106240952D01*
X174213866Y-106240952D02*
X174213866Y-106431428D01*
X174213866Y-106431428D02*
X174166247Y-106526666D01*
X174166247Y-106526666D02*
X174118628Y-106574285D01*
X174118628Y-106574285D02*
X174023390Y-106621904D01*
D11*
X177769182Y-68100251D02*
X177823057Y-68100251D01*
X177823057Y-68100251D02*
X177930806Y-68046376D01*
X177930806Y-68046376D02*
X177984681Y-67992501D01*
X177984681Y-67992501D02*
X178038556Y-67884751D01*
X178038556Y-67884751D02*
X178038556Y-67777002D01*
X178038556Y-67777002D02*
X178011618Y-67696190D01*
X178011618Y-67696190D02*
X177930806Y-67561503D01*
X177930806Y-67561503D02*
X177849994Y-67480690D01*
X177849994Y-67480690D02*
X177715307Y-67399878D01*
X177715307Y-67399878D02*
X177634495Y-67372941D01*
X177634495Y-67372941D02*
X177526745Y-67372941D01*
X177526745Y-67372941D02*
X177418996Y-67426816D01*
X177418996Y-67426816D02*
X177365121Y-67480690D01*
X177365121Y-67480690D02*
X177311246Y-67588440D01*
X177311246Y-67588440D02*
X177311246Y-67642315D01*
X176961060Y-68261875D02*
X177338183Y-68638999D01*
X176880248Y-67911689D02*
X177418996Y-68181063D01*
X177418996Y-68181063D02*
X177068809Y-68531249D01*
D10*
X169202857Y-83199580D02*
X169250476Y-83247200D01*
X169250476Y-83247200D02*
X169393333Y-83294819D01*
X169393333Y-83294819D02*
X169488571Y-83294819D01*
X169488571Y-83294819D02*
X169631428Y-83247200D01*
X169631428Y-83247200D02*
X169726666Y-83151961D01*
X169726666Y-83151961D02*
X169774285Y-83056723D01*
X169774285Y-83056723D02*
X169821904Y-82866247D01*
X169821904Y-82866247D02*
X169821904Y-82723390D01*
X169821904Y-82723390D02*
X169774285Y-82532914D01*
X169774285Y-82532914D02*
X169726666Y-82437676D01*
X169726666Y-82437676D02*
X169631428Y-82342438D01*
X169631428Y-82342438D02*
X169488571Y-82294819D01*
X169488571Y-82294819D02*
X169393333Y-82294819D01*
X169393333Y-82294819D02*
X169250476Y-82342438D01*
X169250476Y-82342438D02*
X169202857Y-82390057D01*
X168250476Y-83294819D02*
X168821904Y-83294819D01*
X168536190Y-83294819D02*
X168536190Y-82294819D01*
X168536190Y-82294819D02*
X168631428Y-82437676D01*
X168631428Y-82437676D02*
X168726666Y-82532914D01*
X168726666Y-82532914D02*
X168821904Y-82580533D01*
X167631428Y-82294819D02*
X167536190Y-82294819D01*
X167536190Y-82294819D02*
X167440952Y-82342438D01*
X167440952Y-82342438D02*
X167393333Y-82390057D01*
X167393333Y-82390057D02*
X167345714Y-82485295D01*
X167345714Y-82485295D02*
X167298095Y-82675771D01*
X167298095Y-82675771D02*
X167298095Y-82913866D01*
X167298095Y-82913866D02*
X167345714Y-83104342D01*
X167345714Y-83104342D02*
X167393333Y-83199580D01*
X167393333Y-83199580D02*
X167440952Y-83247200D01*
X167440952Y-83247200D02*
X167536190Y-83294819D01*
X167536190Y-83294819D02*
X167631428Y-83294819D01*
X167631428Y-83294819D02*
X167726666Y-83247200D01*
X167726666Y-83247200D02*
X167774285Y-83199580D01*
X167774285Y-83199580D02*
X167821904Y-83104342D01*
X167821904Y-83104342D02*
X167869523Y-82913866D01*
X167869523Y-82913866D02*
X167869523Y-82675771D01*
X167869523Y-82675771D02*
X167821904Y-82485295D01*
X167821904Y-82485295D02*
X167774285Y-82390057D01*
X167774285Y-82390057D02*
X167726666Y-82342438D01*
X167726666Y-82342438D02*
X167631428Y-82294819D01*
D11*
X159723664Y-71408667D02*
X159761760Y-71370571D01*
X159761760Y-71370571D02*
X159799855Y-71256286D01*
X159799855Y-71256286D02*
X159799855Y-71180095D01*
X159799855Y-71180095D02*
X159761760Y-71065809D01*
X159761760Y-71065809D02*
X159685569Y-70989619D01*
X159685569Y-70989619D02*
X159609379Y-70951524D01*
X159609379Y-70951524D02*
X159456998Y-70913428D01*
X159456998Y-70913428D02*
X159342712Y-70913428D01*
X159342712Y-70913428D02*
X159190331Y-70951524D01*
X159190331Y-70951524D02*
X159114140Y-70989619D01*
X159114140Y-70989619D02*
X159037950Y-71065809D01*
X159037950Y-71065809D02*
X158999855Y-71180095D01*
X158999855Y-71180095D02*
X158999855Y-71256286D01*
X158999855Y-71256286D02*
X159037950Y-71370571D01*
X159037950Y-71370571D02*
X159076045Y-71408667D01*
X159799855Y-72170571D02*
X159799855Y-71713428D01*
X159799855Y-71942000D02*
X158999855Y-71942000D01*
X158999855Y-71942000D02*
X159114140Y-71865809D01*
X159114140Y-71865809D02*
X159190331Y-71789619D01*
X159190331Y-71789619D02*
X159228426Y-71713428D01*
D10*
X190762857Y-97984819D02*
X191096190Y-97508628D01*
X191334285Y-97984819D02*
X191334285Y-96984819D01*
X191334285Y-96984819D02*
X190953333Y-96984819D01*
X190953333Y-96984819D02*
X190858095Y-97032438D01*
X190858095Y-97032438D02*
X190810476Y-97080057D01*
X190810476Y-97080057D02*
X190762857Y-97175295D01*
X190762857Y-97175295D02*
X190762857Y-97318152D01*
X190762857Y-97318152D02*
X190810476Y-97413390D01*
X190810476Y-97413390D02*
X190858095Y-97461009D01*
X190858095Y-97461009D02*
X190953333Y-97508628D01*
X190953333Y-97508628D02*
X191334285Y-97508628D01*
X190381904Y-97080057D02*
X190334285Y-97032438D01*
X190334285Y-97032438D02*
X190239047Y-96984819D01*
X190239047Y-96984819D02*
X190000952Y-96984819D01*
X190000952Y-96984819D02*
X189905714Y-97032438D01*
X189905714Y-97032438D02*
X189858095Y-97080057D01*
X189858095Y-97080057D02*
X189810476Y-97175295D01*
X189810476Y-97175295D02*
X189810476Y-97270533D01*
X189810476Y-97270533D02*
X189858095Y-97413390D01*
X189858095Y-97413390D02*
X190429523Y-97984819D01*
X190429523Y-97984819D02*
X189810476Y-97984819D01*
X189191428Y-96984819D02*
X189096190Y-96984819D01*
X189096190Y-96984819D02*
X189000952Y-97032438D01*
X189000952Y-97032438D02*
X188953333Y-97080057D01*
X188953333Y-97080057D02*
X188905714Y-97175295D01*
X188905714Y-97175295D02*
X188858095Y-97365771D01*
X188858095Y-97365771D02*
X188858095Y-97603866D01*
X188858095Y-97603866D02*
X188905714Y-97794342D01*
X188905714Y-97794342D02*
X188953333Y-97889580D01*
X188953333Y-97889580D02*
X189000952Y-97937200D01*
X189000952Y-97937200D02*
X189096190Y-97984819D01*
X189096190Y-97984819D02*
X189191428Y-97984819D01*
X189191428Y-97984819D02*
X189286666Y-97937200D01*
X189286666Y-97937200D02*
X189334285Y-97889580D01*
X189334285Y-97889580D02*
X189381904Y-97794342D01*
X189381904Y-97794342D02*
X189429523Y-97603866D01*
X189429523Y-97603866D02*
X189429523Y-97365771D01*
X189429523Y-97365771D02*
X189381904Y-97175295D01*
X189381904Y-97175295D02*
X189334285Y-97080057D01*
X189334285Y-97080057D02*
X189286666Y-97032438D01*
X189286666Y-97032438D02*
X189191428Y-96984819D01*
D11*
%TO.C,R13*%
X178459355Y-77537579D02*
X179487579Y-76509355D01*
X177172421Y-76250645D02*
X178200645Y-75222421D01*
%TO.C,Q2*%
X175836289Y-84107539D02*
X175871645Y-84142894D01*
X176663604Y-84934854D02*
X177215147Y-85486397D01*
X177123224Y-82820604D02*
X175836289Y-84107539D01*
X177830330Y-83527711D02*
X177123224Y-82820604D01*
X178007107Y-86278356D02*
X178042462Y-86313712D01*
X178042462Y-86313712D02*
X179329397Y-85026777D01*
X179329397Y-85026777D02*
X178622290Y-84319671D01*
X176826239Y-85861163D02*
X176423188Y-85797524D01*
X176762599Y-85458113D01*
X176826239Y-85861163D01*
G36*
X176826239Y-85861163D02*
G01*
X176423188Y-85797524D01*
X176762599Y-85458113D01*
X176826239Y-85861163D01*
G37*
%TO.C,D4*%
X180625096Y-67045071D02*
X175746059Y-71924108D01*
X180625096Y-67045071D02*
X182958548Y-69378523D01*
X182958548Y-69378523D02*
X178079511Y-74257560D01*
%TO.C,C8*%
X200668748Y-99180000D02*
X202091252Y-99180000D01*
X200668748Y-101000000D02*
X202091252Y-101000000D01*
%TO.C,R7*%
X184252936Y-99100000D02*
X185707064Y-99100000D01*
X184252936Y-100920000D02*
X185707064Y-100920000D01*
%TO.C,R10*%
X159422421Y-79100645D02*
X160450645Y-78072421D01*
X160709355Y-80387579D02*
X161737579Y-79359355D01*
%TO.C,Q1*%
X178310603Y-86773223D02*
X179017710Y-87480329D01*
X179597538Y-85486288D02*
X178310603Y-86773223D01*
X179632893Y-85521644D02*
X179597538Y-85486288D01*
X179809670Y-88272289D02*
X180516776Y-88979396D01*
X180516776Y-88979396D02*
X181803711Y-87692461D01*
X180976396Y-86865146D02*
X180424853Y-86313603D01*
X181803711Y-87692461D02*
X181768355Y-87657106D01*
X181216812Y-86002476D02*
X180877401Y-86341887D01*
X180813761Y-85938837D01*
X181216812Y-86002476D01*
G36*
X181216812Y-86002476D02*
G01*
X180877401Y-86341887D01*
X180813761Y-85938837D01*
X181216812Y-86002476D01*
G37*
%TO.C,R2*%
X180652936Y-102060000D02*
X182107064Y-102060000D01*
X180652936Y-103880000D02*
X182107064Y-103880000D01*
%TO.C,R3*%
X167832936Y-77110000D02*
X169287064Y-77110000D01*
X167832936Y-78930000D02*
X169287064Y-78930000D01*
%TO.C,R9*%
X160656405Y-81196661D02*
X161684629Y-80168437D01*
X161943339Y-82483595D02*
X162971563Y-81455371D01*
%TO.C,R1*%
X165124936Y-69068000D02*
X166579064Y-69068000D01*
X165124936Y-70888000D02*
X166579064Y-70888000D01*
%TO.C,D3*%
X168322556Y-90798523D02*
X170656008Y-88465071D01*
X168322556Y-90798523D02*
X173201593Y-95677560D01*
X170656008Y-88465071D02*
X175535045Y-93344108D01*
%TO.C,C3*%
X173639008Y-90088457D02*
X174644870Y-91094319D01*
X174925942Y-88801523D02*
X175931804Y-89807385D01*
%TO.C,C9*%
X195578748Y-91590000D02*
X197001252Y-91590000D01*
X195578748Y-93410000D02*
X197001252Y-93410000D01*
%TO.C,R19*%
X177272936Y-104450000D02*
X178727064Y-104450000D01*
X177272936Y-106270000D02*
X178727064Y-106270000D01*
%TO.C,R17*%
X197012936Y-76530000D02*
X198467064Y-76530000D01*
X197012936Y-78350000D02*
X198467064Y-78350000D01*
%TO.C,C4*%
X173744154Y-70332531D02*
X174750016Y-69326669D01*
X175031088Y-71619465D02*
X176036950Y-70613603D01*
%TO.C,C10*%
X169271252Y-79470000D02*
X167848748Y-79470000D01*
X169271252Y-81290000D02*
X167848748Y-81290000D01*
%TO.C,C7*%
X200748748Y-85340000D02*
X202171252Y-85340000D01*
X200748748Y-87160000D02*
X202171252Y-87160000D01*
%TO.C,C1*%
X160242000Y-70866748D02*
X160242000Y-72289252D01*
X162062000Y-70866748D02*
X162062000Y-72289252D01*
%TO.C,R20*%
X189682936Y-99090000D02*
X191137064Y-99090000D01*
X189682936Y-100910000D02*
X191137064Y-100910000D01*
%TD*%
M02*
