%TF.GenerationSoftware,KiCad,Pcbnew,9.0.5*%
%TF.CreationDate,2025-12-21T21:47:29+01:00*%
%TF.ProjectId,Amplifier Compound,416d706c-6966-4696-9572-20436f6d706f,rev?*%
%TF.SameCoordinates,Original*%
%TF.FileFunction,Copper,L2,Bot*%
%TF.FilePolarity,Positive*%
%FSLAX46Y46*%
G04 Gerber Fmt 4.6, Leading zero omitted, Abs format (unit mm)*
G04 Created by KiCad (PCBNEW 9.0.5) date 2025-12-21 21:47:29*
%MOMM*%
%LPD*%
G01*
G04 APERTURE LIST*
G04 Aperture macros list*
%AMRoundRect*
0 Rectangle with rounded corners*
0 $1 Rounding radius*
0 $2 $3 $4 $5 $6 $7 $8 $9 X,Y pos of 4 corners*
0 Add a 4 corners polygon primitive as box body*
4,1,4,$2,$3,$4,$5,$6,$7,$8,$9,$2,$3,0*
0 Add four circle primitives for the rounded corners*
1,1,$1+$1,$2,$3*
1,1,$1+$1,$4,$5*
1,1,$1+$1,$6,$7*
1,1,$1+$1,$8,$9*
0 Add four rect primitives between the rounded corners*
20,1,$1+$1,$2,$3,$4,$5,0*
20,1,$1+$1,$4,$5,$6,$7,0*
20,1,$1+$1,$6,$7,$8,$9,0*
20,1,$1+$1,$8,$9,$2,$3,0*%
%AMRotRect*
0 Rectangle, with rotation*
0 The origin of the aperture is its center*
0 $1 length*
0 $2 width*
0 $3 Rotation angle, in degrees counterclockwise*
0 Add horizontal line*
21,1,$1,$2,0,0,$3*%
G04 Aperture macros list end*
%TA.AperFunction,ComponentPad*%
%ADD10RoundRect,0.250000X1.800000X-1.330000X1.800000X1.330000X-1.800000X1.330000X-1.800000X-1.330000X0*%
%TD*%
%TA.AperFunction,ComponentPad*%
%ADD11O,4.100000X3.160000*%
%TD*%
%TA.AperFunction,ComponentPad*%
%ADD12RoundRect,0.250000X-1.330000X-1.800000X1.330000X-1.800000X1.330000X1.800000X-1.330000X1.800000X0*%
%TD*%
%TA.AperFunction,ComponentPad*%
%ADD13O,3.160000X4.100000*%
%TD*%
%TA.AperFunction,ComponentPad*%
%ADD14R,2.500000X2.500000*%
%TD*%
%TA.AperFunction,ComponentPad*%
%ADD15RoundRect,0.250000X0.550000X-0.950000X0.550000X0.950000X-0.550000X0.950000X-0.550000X-0.950000X0*%
%TD*%
%TA.AperFunction,ComponentPad*%
%ADD16O,1.600000X2.400000*%
%TD*%
%TA.AperFunction,ComponentPad*%
%ADD17C,5.700000*%
%TD*%
%TA.AperFunction,ComponentPad*%
%ADD18C,2.400000*%
%TD*%
%TA.AperFunction,ComponentPad*%
%ADD19C,1.800000*%
%TD*%
%TA.AperFunction,ComponentPad*%
%ADD20RoundRect,0.250000X-0.650000X-0.650000X0.650000X-0.650000X0.650000X0.650000X-0.650000X0.650000X0*%
%TD*%
%TA.AperFunction,SMDPad,CuDef*%
%ADD21RoundRect,0.250000X-0.400000X-0.625000X0.400000X-0.625000X0.400000X0.625000X-0.400000X0.625000X0*%
%TD*%
%TA.AperFunction,ComponentPad*%
%ADD22C,2.600000*%
%TD*%
%TA.AperFunction,ComponentPad*%
%ADD23C,6.350000*%
%TD*%
%TA.AperFunction,ComponentPad*%
%ADD24RoundRect,0.250000X0.650000X0.650000X-0.650000X0.650000X-0.650000X-0.650000X0.650000X-0.650000X0*%
%TD*%
%TA.AperFunction,SMDPad,CuDef*%
%ADD25RoundRect,0.150000X-0.256326X-0.468458X0.468458X0.256326X0.256326X0.468458X-0.468458X-0.256326X0*%
%TD*%
%TA.AperFunction,SMDPad,CuDef*%
%ADD26RotRect,3.500000X1.800000X225.000000*%
%TD*%
%TA.AperFunction,SMDPad,CuDef*%
%ADD27RoundRect,0.250000X-0.412500X-0.650000X0.412500X-0.650000X0.412500X0.650000X-0.412500X0.650000X0*%
%TD*%
%TA.AperFunction,SMDPad,CuDef*%
%ADD28RoundRect,0.250000X0.159099X-0.724784X0.724784X-0.159099X-0.159099X0.724784X-0.724784X0.159099X0*%
%TD*%
%TA.AperFunction,SMDPad,CuDef*%
%ADD29RoundRect,0.150000X0.256326X0.468458X-0.468458X-0.256326X-0.256326X-0.468458X0.468458X0.256326X0*%
%TD*%
%TA.AperFunction,SMDPad,CuDef*%
%ADD30RotRect,3.500000X1.800000X315.000000*%
%TD*%
%TA.AperFunction,SMDPad,CuDef*%
%ADD31RoundRect,0.250000X-0.751301X-0.167938X-0.167938X-0.751301X0.751301X0.167938X0.167938X0.751301X0*%
%TD*%
%TA.AperFunction,SMDPad,CuDef*%
%ADD32RoundRect,0.250000X0.167938X-0.751301X0.751301X-0.167938X-0.167938X0.751301X-0.751301X0.167938X0*%
%TD*%
%TA.AperFunction,SMDPad,CuDef*%
%ADD33RoundRect,0.250000X0.412500X0.650000X-0.412500X0.650000X-0.412500X-0.650000X0.412500X-0.650000X0*%
%TD*%
%TA.AperFunction,SMDPad,CuDef*%
%ADD34RoundRect,0.250000X-0.650000X0.412500X-0.650000X-0.412500X0.650000X-0.412500X0.650000X0.412500X0*%
%TD*%
%TA.AperFunction,ViaPad*%
%ADD35C,0.800000*%
%TD*%
%TA.AperFunction,Conductor*%
%ADD36C,0.250000*%
%TD*%
%TA.AperFunction,Conductor*%
%ADD37C,0.500000*%
%TD*%
%TA.AperFunction,Conductor*%
%ADD38C,1.500000*%
%TD*%
G04 APERTURE END LIST*
D10*
%TO.P,J3,1,Pin_1*%
%TO.N,Net-(D16-A2)*%
X202495000Y-77500000D03*
D11*
%TO.P,J3,2,Pin_2*%
%TO.N,GND*%
X202495000Y-73540000D03*
%TD*%
D12*
%TO.P,J1,1,Pin_1*%
%TO.N,/HVOUT*%
X164660000Y-108025000D03*
D13*
%TO.P,J1,2,Pin_2*%
%TO.N,GND*%
X168620000Y-108025000D03*
%TD*%
D14*
%TO.P,TP4,1*%
%TO.N,GND*%
X122050000Y-118340000D03*
%TD*%
D15*
%TO.P,U2,1,BAL*%
%TO.N,Net-(U2-BAL)*%
X195360000Y-97030000D03*
D16*
%TO.P,U2,2,-*%
%TO.N,Net-(U2--)*%
X197900000Y-97030000D03*
%TO.P,U2,3,+*%
%TO.N,Net-(U2-+)*%
X200440000Y-97030000D03*
%TO.P,U2,4,V-*%
%TO.N,-VLV*%
X202980000Y-97030000D03*
%TO.P,U2,5,COMP*%
%TO.N,Net-(U2-COMP)*%
X202980000Y-89410000D03*
%TO.P,U2,6*%
%TO.N,/CTRL*%
X200440000Y-89410000D03*
%TO.P,U2,7,V+*%
%TO.N,+VLV*%
X197900000Y-89410000D03*
%TO.P,U2,8,C/B*%
%TO.N,Net-(U2-C{slash}B)*%
X195360000Y-89410000D03*
%TD*%
D17*
%TO.P,H2,1,1*%
%TO.N,GND*%
X203080000Y-66940000D03*
%TD*%
D18*
%TO.P,R11,1*%
%TO.N,-VLV*%
X126950000Y-91520000D03*
%TO.P,R11,2*%
%TO.N,Net-(R11-Pad2)*%
X121870000Y-91520000D03*
%TD*%
%TO.P,R22,1*%
%TO.N,Net-(R11-Pad2)*%
X122560000Y-86970000D03*
%TO.P,R22,2*%
%TO.N,-VHV*%
X127640000Y-86970000D03*
%TD*%
D14*
%TO.P,TP2,1*%
%TO.N,-VHV*%
X126980000Y-65470000D03*
%TD*%
D19*
%TO.P,RV1,1,1*%
%TO.N,Net-(R19-Pad1)*%
X176540000Y-102850000D03*
%TO.P,RV1,2,2*%
X184160000Y-105390000D03*
%TO.P,RV1,3,3*%
%TO.N,Net-(U2--)*%
X189240000Y-102850000D03*
%TD*%
D18*
%TO.P,R12,1*%
%TO.N,Net-(R12-Pad1)*%
X122360000Y-102290000D03*
%TO.P,R12,2*%
%TO.N,+VHV*%
X127440000Y-102290000D03*
%TD*%
D20*
%TO.P,D5,1,K*%
%TO.N,+VLV*%
X138280000Y-108370000D03*
D19*
%TO.P,D5,2,A*%
%TO.N,GND*%
X148440000Y-108370000D03*
%TD*%
D14*
%TO.P,TP3,1*%
%TO.N,GND*%
X122430000Y-65470000D03*
%TD*%
%TO.P,TP5,1*%
%TO.N,GND*%
X206260000Y-111520000D03*
%TD*%
D17*
%TO.P,H4,1,1*%
%TO.N,GND*%
X135620000Y-117010000D03*
%TD*%
D14*
%TO.P,TP1,1*%
%TO.N,+VHV*%
X126760000Y-118360000D03*
%TD*%
D18*
%TO.P,R14,1*%
%TO.N,+VLV*%
X126860000Y-97130000D03*
%TO.P,R14,2*%
%TO.N,Net-(R12-Pad1)*%
X121780000Y-97130000D03*
%TD*%
D17*
%TO.P,H1,1,1*%
%TO.N,GND*%
X203110000Y-116900000D03*
%TD*%
D21*
%TO.P,R17,1*%
%TO.N,GND*%
X196190000Y-77440000D03*
%TO.P,R17,2*%
%TO.N,Net-(D16-A2)*%
X199290000Y-77440000D03*
%TD*%
D17*
%TO.P,H3,1,1*%
%TO.N,GND*%
X135620000Y-66940000D03*
%TD*%
D19*
%TO.P,RV2,1,1*%
%TO.N,Net-(U2-C{slash}B)*%
X176690000Y-108290000D03*
%TO.P,RV2,2,2*%
%TO.N,+VLV*%
X184310000Y-110830000D03*
%TO.P,RV2,3,3*%
%TO.N,Net-(U2-BAL)*%
X189390000Y-108290000D03*
%TD*%
D22*
%TO.P,U1,1,OUT*%
%TO.N,/HVOUT*%
X163720000Y-83990000D03*
%TO.P,U1,2,CL*%
%TO.N,Net-(U1-CL)*%
X167480000Y-86160000D03*
%TO.P,U1,3,+VS*%
%TO.N,+VHV*%
X171760000Y-85410000D03*
%TO.P,U1,4,+IN*%
%TO.N,Net-(Q1-G)*%
X174550000Y-82080000D03*
%TO.P,U1,5,-IN*%
%TO.N,Net-(Q1-D)*%
X174550000Y-77740000D03*
%TO.P,U1,6,-VS*%
%TO.N,-VHV*%
X171760000Y-74410000D03*
%TO.P,U1,7,RC*%
%TO.N,Net-(U1-RC)*%
X167480000Y-73660000D03*
%TO.P,U1,8,CC*%
%TO.N,Net-(U1-CC)*%
X163720000Y-75830000D03*
D23*
%TO.P,U1,C*%
%TO.N,N/C*%
X153480000Y-79910000D03*
X183680000Y-79910000D03*
%TD*%
D24*
%TO.P,D6,1,K*%
%TO.N,GND*%
X144980000Y-101950000D03*
D19*
%TO.P,D6,2,A*%
%TO.N,-VLV*%
X134820000Y-101950000D03*
%TD*%
D25*
%TO.P,Q2,1,D*%
%TO.N,Net-(Q1-G)*%
X177450260Y-86043243D03*
%TO.P,Q2,2,S*%
X176106758Y-84699741D03*
%TO.P,Q2,3,G*%
%TO.N,Net-(Q1-D)*%
X178387177Y-83762824D03*
%TD*%
D26*
%TO.P,D4,1,K*%
%TO.N,GND*%
X180448319Y-69555300D03*
%TO.P,D4,2,A*%
%TO.N,-VHV*%
X176912785Y-73090834D03*
%TD*%
D27*
%TO.P,C8,1*%
%TO.N,GND*%
X199817500Y-100090000D03*
%TO.P,C8,2*%
%TO.N,-VLV*%
X202942500Y-100090000D03*
%TD*%
D21*
%TO.P,R7,1*%
%TO.N,Net-(R2-Pad2)*%
X183430000Y-100010000D03*
%TO.P,R7,2*%
%TO.N,Net-(R20-Pad1)*%
X186530000Y-100010000D03*
%TD*%
D28*
%TO.P,R10,1*%
%TO.N,/HVOUT*%
X159123984Y-80586016D03*
%TO.P,R10,2*%
%TO.N,Net-(R10-Pad2)*%
X161316016Y-78393984D03*
%TD*%
D29*
%TO.P,Q1,1,D*%
%TO.N,Net-(Q1-D)*%
X180189740Y-85756757D03*
%TO.P,Q1,2,S*%
X181533242Y-87100259D03*
%TO.P,Q1,3,G*%
%TO.N,Net-(Q1-G)*%
X179252823Y-88037176D03*
%TD*%
D21*
%TO.P,R2,1*%
%TO.N,Net-(R19-Pad2)*%
X179830000Y-102970000D03*
%TO.P,R2,2*%
%TO.N,Net-(R2-Pad2)*%
X182930000Y-102970000D03*
%TD*%
%TO.P,R3,1*%
%TO.N,Net-(R10-Pad2)*%
X167009999Y-78020000D03*
%TO.P,R3,2*%
%TO.N,Net-(Q1-D)*%
X170110001Y-78020000D03*
%TD*%
D28*
%TO.P,R13,1*%
%TO.N,Net-(Q1-D)*%
X176583984Y-79606016D03*
%TO.P,R13,2*%
%TO.N,GND*%
X178776016Y-77413984D03*
%TD*%
%TO.P,R9,1*%
%TO.N,/HVOUT*%
X160717968Y-82422032D03*
%TO.P,R9,2*%
%TO.N,Net-(C10-Pad2)*%
X162910000Y-80230000D03*
%TD*%
D21*
%TO.P,R1,1*%
%TO.N,Net-(C1-Pad1)*%
X164302000Y-69978000D03*
%TO.P,R1,2*%
%TO.N,Net-(U1-RC)*%
X167402000Y-69978000D03*
%TD*%
D30*
%TO.P,D3,1,K*%
%TO.N,+VHV*%
X170832785Y-90975300D03*
%TO.P,D3,2,A*%
%TO.N,GND*%
X174368319Y-94510834D03*
%TD*%
D31*
%TO.P,C3,1*%
%TO.N,+VHV*%
X173680552Y-88843067D03*
%TO.P,C3,2*%
%TO.N,GND*%
X175890260Y-91052775D03*
%TD*%
D27*
%TO.P,C9,1*%
%TO.N,GND*%
X194727500Y-92500000D03*
%TO.P,C9,2*%
%TO.N,+VLV*%
X197852500Y-92500000D03*
%TD*%
D21*
%TO.P,R19,1*%
%TO.N,Net-(R19-Pad1)*%
X176450000Y-105360000D03*
%TO.P,R19,2*%
%TO.N,Net-(R19-Pad2)*%
X179550000Y-105360000D03*
%TD*%
D32*
%TO.P,C4,1*%
%TO.N,-VHV*%
X173785698Y-71577921D03*
%TO.P,C4,2*%
%TO.N,GND*%
X175995406Y-69368213D03*
%TD*%
D33*
%TO.P,C10,1*%
%TO.N,Net-(Q1-D)*%
X170122500Y-80380000D03*
%TO.P,C10,2*%
%TO.N,Net-(C10-Pad2)*%
X166997500Y-80380000D03*
%TD*%
D27*
%TO.P,C7,1*%
%TO.N,GND*%
X199897500Y-86250000D03*
%TO.P,C7,2*%
%TO.N,Net-(U2-COMP)*%
X203022500Y-86250000D03*
%TD*%
D34*
%TO.P,C1,1*%
%TO.N,Net-(C1-Pad1)*%
X161152000Y-70015500D03*
%TO.P,C1,2*%
%TO.N,Net-(U1-CC)*%
X161152000Y-73140500D03*
%TD*%
D21*
%TO.P,R20,1*%
%TO.N,Net-(R20-Pad1)*%
X188860000Y-100000000D03*
%TO.P,R20,2*%
%TO.N,GND*%
X191960000Y-100000000D03*
%TD*%
D35*
%TO.N,GND*%
X171220000Y-66940000D03*
X175890260Y-91052775D03*
X188010000Y-78630000D03*
X156540000Y-72220000D03*
X149420000Y-82390000D03*
X160600000Y-90590000D03*
X140680000Y-81210000D03*
X184140000Y-74470000D03*
X189380000Y-94740000D03*
X151960000Y-75360000D03*
X197240000Y-82660000D03*
X139310000Y-82710000D03*
X136180000Y-104060000D03*
X150350000Y-112430000D03*
X140680000Y-82730000D03*
X182530000Y-73450000D03*
X182400000Y-109730000D03*
X177670000Y-89630000D03*
X190930000Y-97440000D03*
X172780000Y-67390000D03*
X159990000Y-112380000D03*
X169770000Y-93150000D03*
X187560000Y-116900000D03*
X138010000Y-82740000D03*
X159220000Y-89640000D03*
X137960000Y-105930000D03*
X150650000Y-76030000D03*
X158280000Y-112400000D03*
X157800000Y-118710000D03*
X186760000Y-83320000D03*
X156760000Y-112420000D03*
X188120000Y-80420000D03*
X187240000Y-108000000D03*
X182890000Y-85970000D03*
X165980000Y-63860000D03*
X160910000Y-118690000D03*
X152980000Y-118750000D03*
X151970000Y-84640000D03*
X157750000Y-71350000D03*
X139310000Y-81190000D03*
X186580000Y-76260000D03*
X161160000Y-63870000D03*
X185480000Y-84220000D03*
X135590000Y-81560000D03*
X167570000Y-63860000D03*
X139430000Y-85980000D03*
X149750000Y-118760000D03*
X187700000Y-82040000D03*
X140680000Y-79670000D03*
X154510000Y-86550000D03*
X164270000Y-63850000D03*
X154300000Y-73850000D03*
X173910000Y-63800000D03*
X187400000Y-77180000D03*
X185610000Y-75500000D03*
X148790000Y-80710000D03*
X174290000Y-68010000D03*
X153180000Y-74540000D03*
X163100000Y-67850000D03*
X169090000Y-63840000D03*
X155330000Y-73080000D03*
X139310000Y-79650000D03*
X148160000Y-118760000D03*
X190480000Y-93730000D03*
X168480000Y-93150000D03*
X180970000Y-72420000D03*
X170800000Y-63820000D03*
X158090000Y-88860000D03*
X184090000Y-85030000D03*
X151270000Y-118740000D03*
X154570000Y-118750000D03*
X159390000Y-118710000D03*
X166980000Y-93090000D03*
X192210000Y-96110000D03*
X191960000Y-100000000D03*
X150500000Y-83510000D03*
X148790000Y-78940000D03*
X153460000Y-112410000D03*
X137000000Y-104960000D03*
X151940000Y-112430000D03*
X155170000Y-112420000D03*
X138010000Y-81220000D03*
X156090000Y-118730000D03*
X188430000Y-95880000D03*
X162750000Y-63870000D03*
X172390000Y-63820000D03*
X182710000Y-116970000D03*
X138010000Y-79680000D03*
X153260000Y-85500000D03*
X149470000Y-77170000D03*
%TO.N,-VLV*%
X182060000Y-114680000D03*
X178220000Y-114680000D03*
X203070000Y-103640000D03*
%TO.N,Net-(U2-+)*%
X205295000Y-92175000D03*
%TO.N,Net-(Q1-G)*%
X179252823Y-88037176D03*
%TD*%
D36*
%TO.N,Net-(D16-A2)*%
X202495000Y-77500000D02*
X199350000Y-77500000D01*
X199350000Y-77500000D02*
X199290000Y-77440000D01*
D37*
%TO.N,Net-(C1-Pad1)*%
X161152000Y-70015500D02*
X164264500Y-70015500D01*
%TO.N,Net-(U1-CC)*%
X163720000Y-75708500D02*
X161152000Y-73140500D01*
%TO.N,/HVOUT*%
X159123984Y-80828048D02*
X160717968Y-82422032D01*
X163720000Y-83990000D02*
X163670000Y-84040000D01*
X160717968Y-82422032D02*
X162285936Y-83990000D01*
X162285936Y-83990000D02*
X163720000Y-83990000D01*
X159123984Y-80586016D02*
X159123984Y-80828048D01*
%TO.N,Net-(R2-Pad2)*%
X182930000Y-102970000D02*
X182930000Y-100510000D01*
X182930000Y-100510000D02*
X183430000Y-100010000D01*
D38*
%TO.N,+VHV*%
X171548319Y-90975300D02*
X173680552Y-88843067D01*
X173680552Y-87330552D02*
X171760000Y-85410000D01*
X173680552Y-88843067D02*
X173680552Y-87330552D01*
X170832785Y-90975300D02*
X171548319Y-90975300D01*
%TO.N,-VHV*%
X176912785Y-73090834D02*
X175298611Y-73090834D01*
X175298611Y-73090834D02*
X173785698Y-71577921D01*
X173785698Y-71577921D02*
X173785698Y-72384302D01*
X173785698Y-72384302D02*
X171760000Y-74410000D01*
D37*
%TO.N,+VLV*%
X138280000Y-108370000D02*
X138100000Y-108370000D01*
X197852500Y-92500000D02*
X197852500Y-89457500D01*
X138100000Y-108370000D02*
X126860000Y-97130000D01*
%TO.N,-VLV*%
X203070000Y-103640000D02*
X203070000Y-100217500D01*
X202942500Y-100090000D02*
X202942500Y-97067500D01*
X134780000Y-100310000D02*
X134780000Y-101910000D01*
X126950000Y-92480000D02*
X134780000Y-100310000D01*
X178220000Y-114680000D02*
X182060000Y-114680000D01*
X126950000Y-91520000D02*
X126950000Y-92480000D01*
X134780000Y-101910000D02*
X134820000Y-101950000D01*
D36*
%TO.N,Net-(U2-COMP)*%
X202980000Y-89410000D02*
X202980000Y-86292500D01*
D37*
%TO.N,Net-(U1-RC)*%
X167402000Y-69978000D02*
X167402000Y-73582000D01*
%TO.N,Net-(R19-Pad2)*%
X179550000Y-105360000D02*
X179550000Y-103250000D01*
%TO.N,Net-(C10-Pad2)*%
X166847500Y-80230000D02*
X166997500Y-80380000D01*
X162910000Y-80230000D02*
X166847500Y-80230000D01*
%TO.N,Net-(R20-Pad1)*%
X188860000Y-100000000D02*
X186540000Y-100000000D01*
%TO.N,Net-(R19-Pad1)*%
X176450000Y-105360000D02*
X176450000Y-102940000D01*
%TO.N,Net-(R10-Pad2)*%
X161316016Y-78393984D02*
X166636015Y-78393984D01*
%TO.N,Net-(U2-+)*%
X200440000Y-97030000D02*
X205295000Y-92175000D01*
%TO.N,Net-(Q1-D)*%
X176583984Y-79606016D02*
X177300000Y-80322032D01*
X174717968Y-77740000D02*
X176583984Y-79606016D01*
X178387177Y-83954194D02*
X180189740Y-85756757D01*
X178387177Y-83762824D02*
X178387177Y-83954194D01*
X177300000Y-80322032D02*
X177300000Y-82180000D01*
X170110001Y-78020000D02*
X170110001Y-80367501D01*
X174550000Y-77740000D02*
X174717968Y-77740000D01*
X170110001Y-80367501D02*
X170122500Y-80380000D01*
X177300000Y-82180000D02*
X178387177Y-83267177D01*
X170390001Y-77740000D02*
X170110001Y-78020000D01*
X178387177Y-83267177D02*
X178387177Y-83762824D01*
X180189740Y-85756757D02*
X181533242Y-87100259D01*
X171910000Y-80380000D02*
X174550000Y-77740000D01*
X170122500Y-80380000D02*
X171910000Y-80380000D01*
%TO.N,Net-(Q1-G)*%
X176106758Y-84699741D02*
X177450260Y-86043243D01*
X174550000Y-82080000D02*
X174550000Y-83142983D01*
X174550000Y-83142983D02*
X176106758Y-84699741D01*
X177450260Y-86234613D02*
X179252823Y-88037176D01*
X177450260Y-86043243D02*
X177450260Y-86234613D01*
%TD*%
%TA.AperFunction,Conductor*%
%TO.N,GND*%
G36*
X207782886Y-62451089D02*
G01*
X207892901Y-62510627D01*
X207977623Y-62602660D01*
X208027872Y-62717216D01*
X208039500Y-62810500D01*
X208039500Y-109398740D01*
X208018911Y-109522126D01*
X207959373Y-109632141D01*
X207867340Y-109716863D01*
X207752784Y-109767112D01*
X207628120Y-109777442D01*
X207618883Y-109776563D01*
X207557839Y-109770000D01*
X206641001Y-109770000D01*
X206641000Y-109770001D01*
X206641000Y-111052473D01*
X206628408Y-111039881D01*
X206491591Y-110960889D01*
X206338991Y-110920000D01*
X206181009Y-110920000D01*
X206028409Y-110960889D01*
X205891592Y-111039881D01*
X205879000Y-111052473D01*
X205879000Y-109770001D01*
X205878999Y-109770000D01*
X204962167Y-109770000D01*
X204902625Y-109776401D01*
X204902622Y-109776402D01*
X204767912Y-109826646D01*
X204652811Y-109912810D01*
X204652810Y-109912811D01*
X204566646Y-110027912D01*
X204516402Y-110162622D01*
X204516401Y-110162625D01*
X204510000Y-110222167D01*
X204510000Y-111138999D01*
X204510001Y-111139000D01*
X205792473Y-111139000D01*
X205779881Y-111151592D01*
X205700889Y-111288409D01*
X205660000Y-111441009D01*
X205660000Y-111598991D01*
X205700889Y-111751591D01*
X205779881Y-111888408D01*
X205792473Y-111901000D01*
X204510001Y-111901000D01*
X204510000Y-111901001D01*
X204510000Y-112817832D01*
X204516401Y-112877374D01*
X204516402Y-112877377D01*
X204566646Y-113012087D01*
X204652810Y-113127188D01*
X204652811Y-113127189D01*
X204767912Y-113213353D01*
X204902622Y-113263597D01*
X204902625Y-113263598D01*
X204962167Y-113269999D01*
X204962174Y-113270000D01*
X205878999Y-113270000D01*
X205879000Y-113269999D01*
X205879000Y-111987527D01*
X205891592Y-112000119D01*
X206028409Y-112079111D01*
X206181009Y-112120000D01*
X206338991Y-112120000D01*
X206491591Y-112079111D01*
X206628408Y-112000119D01*
X206641000Y-111987527D01*
X206641000Y-113269999D01*
X206641001Y-113270000D01*
X207557826Y-113270000D01*
X207557827Y-113269999D01*
X207618878Y-113263436D01*
X207743758Y-113270718D01*
X207859507Y-113318153D01*
X207953582Y-113400602D01*
X208015789Y-113509130D01*
X208039387Y-113631976D01*
X208039500Y-113641259D01*
X208039500Y-121049500D01*
X208018911Y-121172886D01*
X207959373Y-121282901D01*
X207867340Y-121367623D01*
X207752784Y-121417872D01*
X207659500Y-121429500D01*
X119420500Y-121429500D01*
X119297114Y-121408911D01*
X119187099Y-121349373D01*
X119102377Y-121257340D01*
X119052128Y-121142784D01*
X119040500Y-121049500D01*
X119040500Y-117042167D01*
X120300000Y-117042167D01*
X120300000Y-117958999D01*
X120300001Y-117959000D01*
X121582473Y-117959000D01*
X121569881Y-117971592D01*
X121490889Y-118108409D01*
X121450000Y-118261009D01*
X121450000Y-118418991D01*
X121490889Y-118571591D01*
X121569881Y-118708408D01*
X121582473Y-118721000D01*
X120300001Y-118721000D01*
X120300000Y-118721001D01*
X120300000Y-119637832D01*
X120306401Y-119697374D01*
X120306402Y-119697377D01*
X120356646Y-119832087D01*
X120442810Y-119947188D01*
X120442811Y-119947189D01*
X120557912Y-120033353D01*
X120692622Y-120083597D01*
X120692625Y-120083598D01*
X120752167Y-120089999D01*
X120752174Y-120090000D01*
X121668999Y-120090000D01*
X121669000Y-120089999D01*
X121669000Y-118807527D01*
X121681592Y-118820119D01*
X121818409Y-118899111D01*
X121971009Y-118940000D01*
X122128991Y-118940000D01*
X122281591Y-118899111D01*
X122418408Y-118820119D01*
X122431000Y-118807527D01*
X122431000Y-120089999D01*
X122431001Y-120090000D01*
X123347826Y-120090000D01*
X123347832Y-120089999D01*
X123407374Y-120083598D01*
X123407377Y-120083597D01*
X123542087Y-120033353D01*
X123657188Y-119947189D01*
X123657189Y-119947188D01*
X123743353Y-119832087D01*
X123793597Y-119697377D01*
X123793598Y-119697374D01*
X123799999Y-119637832D01*
X123800000Y-119637825D01*
X123800000Y-118721001D01*
X123799999Y-118721000D01*
X122517527Y-118721000D01*
X122530119Y-118708408D01*
X122609111Y-118571591D01*
X122650000Y-118418991D01*
X122650000Y-118261009D01*
X122609111Y-118108409D01*
X122530119Y-117971592D01*
X122517527Y-117959000D01*
X123799999Y-117959000D01*
X123800000Y-117958999D01*
X123800000Y-117059189D01*
X124747500Y-117059189D01*
X124747500Y-117059197D01*
X124747500Y-117059198D01*
X124747500Y-119660807D01*
X124751236Y-119697374D01*
X124758169Y-119765241D01*
X124758171Y-119765245D01*
X124814237Y-119934442D01*
X124907808Y-120086145D01*
X124907809Y-120086146D01*
X124907811Y-120086149D01*
X125033851Y-120212189D01*
X125185560Y-120305764D01*
X125354752Y-120361829D01*
X125354754Y-120361830D01*
X125354756Y-120361830D01*
X125354759Y-120361831D01*
X125459189Y-120372500D01*
X128060810Y-120372499D01*
X128165241Y-120361831D01*
X128334440Y-120305764D01*
X128486149Y-120212189D01*
X128612189Y-120086149D01*
X128705764Y-119934440D01*
X128761831Y-119765241D01*
X128772500Y-119660811D01*
X128772499Y-117059190D01*
X128761831Y-116954759D01*
X128705764Y-116785560D01*
X128612189Y-116633851D01*
X128486149Y-116507811D01*
X128486146Y-116507809D01*
X128486145Y-116507808D01*
X128380681Y-116442758D01*
X128334440Y-116414236D01*
X128334439Y-116414235D01*
X128165247Y-116358170D01*
X128165245Y-116358169D01*
X128135403Y-116355120D01*
X128060811Y-116347500D01*
X128060801Y-116347500D01*
X125459192Y-116347500D01*
X125354758Y-116358169D01*
X125354756Y-116358170D01*
X125185557Y-116414237D01*
X125033854Y-116507808D01*
X124907808Y-116633854D01*
X124814235Y-116785560D01*
X124758170Y-116954752D01*
X124758169Y-116954754D01*
X124755322Y-116982622D01*
X124747500Y-117059189D01*
X123800000Y-117059189D01*
X123800000Y-117042174D01*
X123799999Y-117042167D01*
X123793598Y-116982625D01*
X123793597Y-116982622D01*
X123743353Y-116847912D01*
X123657189Y-116732811D01*
X123657188Y-116732810D01*
X123542087Y-116646646D01*
X123407377Y-116596402D01*
X123407374Y-116596401D01*
X123347832Y-116590000D01*
X122431001Y-116590000D01*
X122431000Y-116590001D01*
X122431000Y-117872473D01*
X122418408Y-117859881D01*
X122281591Y-117780889D01*
X122128991Y-117740000D01*
X121971009Y-117740000D01*
X121818409Y-117780889D01*
X121681592Y-117859881D01*
X121669000Y-117872473D01*
X121669000Y-116590001D01*
X121668999Y-116590000D01*
X120752167Y-116590000D01*
X120692625Y-116596401D01*
X120692622Y-116596402D01*
X120557912Y-116646646D01*
X120442811Y-116732810D01*
X120442810Y-116732811D01*
X120356646Y-116847912D01*
X120306402Y-116982622D01*
X120306401Y-116982625D01*
X120300000Y-117042167D01*
X119040500Y-117042167D01*
X119040500Y-114588509D01*
X177057500Y-114588509D01*
X177057500Y-114771491D01*
X177086124Y-114952218D01*
X177142668Y-115126245D01*
X177199126Y-115237049D01*
X177225741Y-115289283D01*
X177333294Y-115437318D01*
X177462682Y-115566706D01*
X177610717Y-115674259D01*
X177715175Y-115727483D01*
X177773754Y-115757331D01*
X177816432Y-115771197D01*
X177947781Y-115813876D01*
X178128509Y-115842500D01*
X178128512Y-115842500D01*
X178311493Y-115842500D01*
X178470862Y-115817258D01*
X178470861Y-115817258D01*
X178492146Y-115813887D01*
X178500564Y-115812712D01*
X178734811Y-115752662D01*
X178757736Y-115746405D01*
X178758430Y-115746204D01*
X178781001Y-115739289D01*
X178808136Y-115730516D01*
X178873052Y-115712823D01*
X178960286Y-115699663D01*
X179026605Y-115697450D01*
X179044418Y-115695497D01*
X179051145Y-115694761D01*
X179092537Y-115692500D01*
X181192146Y-115692500D01*
X181215050Y-115693191D01*
X181231160Y-115694163D01*
X181253665Y-115697455D01*
X181324287Y-115699787D01*
X181329469Y-115700100D01*
X181342977Y-115703201D01*
X181406143Y-115712688D01*
X181471000Y-115730299D01*
X181483420Y-115733900D01*
X181516516Y-115744108D01*
X181585351Y-115765339D01*
X181609696Y-115772410D01*
X181610448Y-115772615D01*
X181635440Y-115778979D01*
X181793320Y-115816368D01*
X181804724Y-115818977D01*
X181805109Y-115819062D01*
X181870918Y-115827255D01*
X181883394Y-115829019D01*
X181968509Y-115842500D01*
X181968511Y-115842500D01*
X182151488Y-115842500D01*
X182151491Y-115842500D01*
X182332219Y-115813876D01*
X182506245Y-115757331D01*
X182669283Y-115674259D01*
X182817318Y-115566706D01*
X182946706Y-115437318D01*
X183054259Y-115289283D01*
X183137331Y-115126245D01*
X183193876Y-114952219D01*
X183222500Y-114771491D01*
X183222500Y-114588509D01*
X183193876Y-114407781D01*
X183137331Y-114233755D01*
X183137331Y-114233754D01*
X183108563Y-114177296D01*
X183054259Y-114070717D01*
X182946706Y-113922682D01*
X182817318Y-113793294D01*
X182669283Y-113685741D01*
X182593591Y-113647174D01*
X182506245Y-113602668D01*
X182374896Y-113559990D01*
X182332219Y-113546124D01*
X182151491Y-113517500D01*
X181968509Y-113517500D01*
X181809180Y-113542732D01*
X181809160Y-113542737D01*
X181787914Y-113546102D01*
X181779435Y-113547287D01*
X181545164Y-113607343D01*
X181522037Y-113613658D01*
X181521392Y-113613845D01*
X181499022Y-113620702D01*
X181471849Y-113629486D01*
X181460830Y-113632488D01*
X181460741Y-113632512D01*
X181406943Y-113647174D01*
X181319708Y-113660334D01*
X181253400Y-113662548D01*
X181253381Y-113662549D01*
X181237982Y-113664237D01*
X181228875Y-113665236D01*
X181187462Y-113667500D01*
X179087857Y-113667500D01*
X179064949Y-113666809D01*
X179048843Y-113665836D01*
X179026330Y-113662544D01*
X178955715Y-113660211D01*
X178950519Y-113659898D01*
X178937007Y-113656796D01*
X178873846Y-113647309D01*
X178870182Y-113646314D01*
X178809056Y-113629715D01*
X178796660Y-113626122D01*
X178765114Y-113616392D01*
X178765088Y-113616384D01*
X178764955Y-113616343D01*
X178764895Y-113616324D01*
X178764850Y-113616310D01*
X178764849Y-113616310D01*
X178694631Y-113594654D01*
X178677037Y-113589537D01*
X178670895Y-113587751D01*
X178670182Y-113587556D01*
X178658720Y-113584632D01*
X178644570Y-113581023D01*
X178594386Y-113569139D01*
X178486628Y-113543620D01*
X178474840Y-113540926D01*
X178474808Y-113540919D01*
X178474505Y-113540852D01*
X178474484Y-113540849D01*
X178408569Y-113532659D01*
X178395983Y-113530881D01*
X178311495Y-113517500D01*
X178311491Y-113517500D01*
X178128509Y-113517500D01*
X177969198Y-113542732D01*
X177947781Y-113546124D01*
X177773754Y-113602668D01*
X177610713Y-113685743D01*
X177462685Y-113793291D01*
X177333291Y-113922685D01*
X177225743Y-114070713D01*
X177142668Y-114233754D01*
X177086124Y-114407781D01*
X177057500Y-114588509D01*
X119040500Y-114588509D01*
X119040500Y-108147764D01*
X119061089Y-108024378D01*
X119120627Y-107914363D01*
X119212660Y-107829641D01*
X119327216Y-107779392D01*
X119420500Y-107767764D01*
X131819999Y-107767764D01*
X131820000Y-107767764D01*
X131820000Y-104439293D01*
X131840589Y-104315907D01*
X131900127Y-104205892D01*
X131992160Y-104121170D01*
X132106716Y-104070921D01*
X132231380Y-104060591D01*
X132352644Y-104091299D01*
X132457367Y-104159718D01*
X132468701Y-104170592D01*
X135972207Y-107674098D01*
X135989870Y-107693008D01*
X136003373Y-107708488D01*
X136009427Y-107717163D01*
X136189271Y-107921605D01*
X136189840Y-107922257D01*
X136190084Y-107922653D01*
X136207867Y-107944571D01*
X136236855Y-107983360D01*
X136278669Y-108039314D01*
X136290605Y-108056230D01*
X136369699Y-108175057D01*
X136381060Y-108193213D01*
X136427865Y-108272936D01*
X136442742Y-108298275D01*
X136453866Y-108318621D01*
X136506670Y-108422612D01*
X136517355Y-108445510D01*
X136532147Y-108480178D01*
X136548864Y-108519358D01*
X136558848Y-108545359D01*
X136580817Y-108609510D01*
X136589636Y-108639148D01*
X136597403Y-108669757D01*
X136604318Y-108703276D01*
X136606200Y-108715057D01*
X136610470Y-108755752D01*
X136612616Y-108798079D01*
X136612616Y-108798080D01*
X136613581Y-108804741D01*
X136617500Y-108859176D01*
X136617500Y-109069734D01*
X136617502Y-109069759D01*
X136632148Y-109218477D01*
X136632150Y-109218488D01*
X136690044Y-109409337D01*
X136690049Y-109409348D01*
X136784059Y-109585230D01*
X136784062Y-109585234D01*
X136784064Y-109585237D01*
X136910590Y-109739410D01*
X137064763Y-109865936D01*
X137064766Y-109865937D01*
X137064769Y-109865940D01*
X137197419Y-109936842D01*
X137240658Y-109959954D01*
X137240662Y-109959955D01*
X137240664Y-109959956D01*
X137300565Y-109978126D01*
X137431515Y-110017850D01*
X137580259Y-110032500D01*
X138979740Y-110032499D01*
X139035944Y-110026963D01*
X139128477Y-110017851D01*
X139128479Y-110017850D01*
X139128485Y-110017850D01*
X139319342Y-109959954D01*
X139451998Y-109889047D01*
X139495230Y-109865940D01*
X139495230Y-109865939D01*
X139495237Y-109865936D01*
X139649410Y-109739410D01*
X139769757Y-109592766D01*
X147756049Y-109592766D01*
X147902580Y-109667428D01*
X147902586Y-109667431D01*
X148112165Y-109735526D01*
X148329821Y-109770000D01*
X148550179Y-109770000D01*
X148767833Y-109735526D01*
X148767836Y-109735526D01*
X148977410Y-109667431D01*
X149123949Y-109592766D01*
X149123949Y-109592765D01*
X148440000Y-108908815D01*
X147756049Y-109592766D01*
X139769757Y-109592766D01*
X139775936Y-109585237D01*
X139869954Y-109409342D01*
X139927850Y-109218485D01*
X139942500Y-109069741D01*
X139942499Y-108259821D01*
X147040000Y-108259821D01*
X147040000Y-108480178D01*
X147074473Y-108697832D01*
X147142570Y-108907414D01*
X147217232Y-109053949D01*
X147901183Y-108370000D01*
X147841939Y-108310756D01*
X147990000Y-108310756D01*
X147990000Y-108429244D01*
X148020667Y-108543694D01*
X148079910Y-108646306D01*
X148163694Y-108730090D01*
X148266306Y-108789333D01*
X148380756Y-108820000D01*
X148499244Y-108820000D01*
X148613694Y-108789333D01*
X148716306Y-108730090D01*
X148800090Y-108646306D01*
X148859333Y-108543694D01*
X148890000Y-108429244D01*
X148890000Y-108370000D01*
X148978815Y-108370000D01*
X149662765Y-109053949D01*
X149662766Y-109053949D01*
X149737431Y-108907410D01*
X149805526Y-108697836D01*
X149805526Y-108697833D01*
X149840000Y-108480178D01*
X149840000Y-108259821D01*
X149805526Y-108042166D01*
X149805526Y-108042163D01*
X149737431Y-107832586D01*
X149737428Y-107832580D01*
X149662766Y-107686049D01*
X148978815Y-108370000D01*
X148890000Y-108370000D01*
X148890000Y-108310756D01*
X148859333Y-108196306D01*
X148800090Y-108093694D01*
X148716306Y-108009910D01*
X148613694Y-107950667D01*
X148499244Y-107920000D01*
X148380756Y-107920000D01*
X148266306Y-107950667D01*
X148163694Y-108009910D01*
X148079910Y-108093694D01*
X148020667Y-108196306D01*
X147990000Y-108310756D01*
X147841939Y-108310756D01*
X147217232Y-107686049D01*
X147142571Y-107832582D01*
X147142569Y-107832587D01*
X147074473Y-108042167D01*
X147040000Y-108259821D01*
X139942499Y-108259821D01*
X139942499Y-107670260D01*
X139927850Y-107521515D01*
X139916214Y-107483156D01*
X139887754Y-107389336D01*
X139887753Y-107389333D01*
X139869954Y-107330659D01*
X139869950Y-107330651D01*
X139775940Y-107154769D01*
X139775937Y-107154766D01*
X139775936Y-107154763D01*
X139769755Y-107147232D01*
X147756049Y-107147232D01*
X148440000Y-107831183D01*
X149123950Y-107147233D01*
X148977414Y-107072570D01*
X148767832Y-107004473D01*
X148550179Y-106970000D01*
X148329821Y-106970000D01*
X148112167Y-107004473D01*
X147902587Y-107072569D01*
X147902582Y-107072571D01*
X147756049Y-107147232D01*
X139769755Y-107147232D01*
X139649410Y-107000590D01*
X139495237Y-106874064D01*
X139495234Y-106874062D01*
X139495230Y-106874059D01*
X139319348Y-106780049D01*
X139319335Y-106780043D01*
X139128486Y-106722150D01*
X138979751Y-106707500D01*
X138979741Y-106707500D01*
X138596940Y-106707500D01*
X138551034Y-106705397D01*
X138519409Y-106707500D01*
X138358975Y-106707500D01*
X138323583Y-106705848D01*
X138314988Y-106705044D01*
X138262481Y-106696390D01*
X138144190Y-106668265D01*
X138098785Y-106654422D01*
X137944879Y-106596768D01*
X137904288Y-106578793D01*
X137758595Y-106503809D01*
X137758590Y-106503807D01*
X137725367Y-106486708D01*
X137695981Y-106469887D01*
X137692621Y-106467759D01*
X137692604Y-106467748D01*
X137636426Y-106432168D01*
X137616175Y-106418408D01*
X137568728Y-106383885D01*
X137541809Y-106362366D01*
X137446170Y-106278528D01*
X137446146Y-106278508D01*
X137442040Y-106275374D01*
X137403918Y-106242027D01*
X137337139Y-106175248D01*
X162317500Y-106175248D01*
X162317500Y-109874736D01*
X162317502Y-109874759D01*
X162332148Y-110023477D01*
X162332150Y-110023488D01*
X162390044Y-110214337D01*
X162390049Y-110214348D01*
X162484059Y-110390230D01*
X162484061Y-110390232D01*
X162484064Y-110390237D01*
X162610590Y-110544410D01*
X162764763Y-110670936D01*
X162764766Y-110670937D01*
X162764769Y-110670940D01*
X162897419Y-110741842D01*
X162940658Y-110764954D01*
X162940662Y-110764955D01*
X162940664Y-110764956D01*
X163000565Y-110783126D01*
X163131515Y-110822850D01*
X163280259Y-110837500D01*
X166039740Y-110837499D01*
X166095944Y-110831963D01*
X166188477Y-110822851D01*
X166188479Y-110822850D01*
X166188485Y-110822850D01*
X166379342Y-110764954D01*
X166502437Y-110699158D01*
X182647500Y-110699158D01*
X182647500Y-110960842D01*
X182677712Y-111151592D01*
X182688436Y-111219302D01*
X182769301Y-111468179D01*
X182769305Y-111468188D01*
X182888099Y-111701335D01*
X182888103Y-111701342D01*
X183024015Y-111888408D01*
X183041916Y-111913046D01*
X183226954Y-112098084D01*
X183226957Y-112098086D01*
X183226956Y-112098086D01*
X183438657Y-112251896D01*
X183438660Y-112251898D01*
X183671821Y-112370699D01*
X183920697Y-112451564D01*
X184179158Y-112492500D01*
X184179162Y-112492500D01*
X184440838Y-112492500D01*
X184440842Y-112492500D01*
X184699303Y-112451564D01*
X184948179Y-112370699D01*
X185181340Y-112251898D01*
X185393046Y-112098084D01*
X185578084Y-111913046D01*
X185731898Y-111701340D01*
X185850699Y-111468179D01*
X185931564Y-111219303D01*
X185972500Y-110960842D01*
X185972500Y-110699158D01*
X185931564Y-110440697D01*
X185850699Y-110191821D01*
X185835821Y-110162622D01*
X185731900Y-109958664D01*
X185731896Y-109958657D01*
X185653382Y-109850593D01*
X185578084Y-109746954D01*
X185393046Y-109561916D01*
X185393042Y-109561913D01*
X185393043Y-109561913D01*
X185181342Y-109408103D01*
X185181335Y-109408099D01*
X184948188Y-109289305D01*
X184948179Y-109289301D01*
X184699303Y-109208436D01*
X184440842Y-109167500D01*
X184179158Y-109167500D01*
X183920697Y-109208436D01*
X183671820Y-109289301D01*
X183671811Y-109289305D01*
X183438664Y-109408099D01*
X183438657Y-109408103D01*
X183226957Y-109561913D01*
X183041913Y-109746957D01*
X182888103Y-109958657D01*
X182888099Y-109958664D01*
X182769305Y-110191811D01*
X182769301Y-110191820D01*
X182688436Y-110440697D01*
X182647500Y-110699158D01*
X166502437Y-110699158D01*
X166555237Y-110670936D01*
X166709410Y-110544410D01*
X166835936Y-110390237D01*
X166868311Y-110329667D01*
X166944631Y-110230558D01*
X167048999Y-110161598D01*
X167170102Y-110130263D01*
X167294819Y-110139948D01*
X167409633Y-110189604D01*
X167434773Y-110207326D01*
X167461930Y-110228165D01*
X167461943Y-110228173D01*
X167698066Y-110364498D01*
X167698069Y-110364500D01*
X167949966Y-110468839D01*
X168213339Y-110539410D01*
X168239000Y-110542788D01*
X168239000Y-108787217D01*
X168372064Y-108842335D01*
X168536282Y-108875000D01*
X168703718Y-108875000D01*
X168867936Y-108842335D01*
X169001000Y-108787217D01*
X169001000Y-110542788D01*
X169026660Y-110539410D01*
X169026661Y-110539410D01*
X169290033Y-110468839D01*
X169541927Y-110364501D01*
X169558149Y-110355136D01*
X169558153Y-110355134D01*
X169778056Y-110228173D01*
X169778065Y-110228167D01*
X169994378Y-110062184D01*
X170187184Y-109869378D01*
X170353167Y-109653065D01*
X170353173Y-109653056D01*
X170489498Y-109416933D01*
X170489500Y-109416930D01*
X170593840Y-109165032D01*
X170664410Y-108901656D01*
X170699999Y-108631337D01*
X170700000Y-108631325D01*
X170700000Y-108406001D01*
X170699999Y-108406000D01*
X169382218Y-108406000D01*
X169437335Y-108272936D01*
X169470000Y-108108718D01*
X169470000Y-107941282D01*
X169437335Y-107777064D01*
X169382218Y-107644000D01*
X170699999Y-107644000D01*
X170700000Y-107643999D01*
X170700000Y-107418674D01*
X170699999Y-107418662D01*
X170664410Y-107148343D01*
X170593840Y-106884967D01*
X170489500Y-106633069D01*
X170489498Y-106633066D01*
X170353173Y-106396943D01*
X170353167Y-106396934D01*
X170187184Y-106180621D01*
X169994378Y-105987815D01*
X169778065Y-105821832D01*
X169778056Y-105821826D01*
X169541933Y-105685501D01*
X169541930Y-105685499D01*
X169290033Y-105581160D01*
X169026652Y-105510587D01*
X169001000Y-105507209D01*
X169001000Y-107262782D01*
X168867936Y-107207665D01*
X168703718Y-107175000D01*
X168536282Y-107175000D01*
X168372064Y-107207665D01*
X168239000Y-107262782D01*
X168239000Y-105507210D01*
X168238999Y-105507209D01*
X168213348Y-105510587D01*
X168213345Y-105510587D01*
X167949966Y-105581160D01*
X167698069Y-105685499D01*
X167698066Y-105685501D01*
X167461943Y-105821826D01*
X167461929Y-105821835D01*
X167434768Y-105842677D01*
X167324345Y-105901454D01*
X167200820Y-105921192D01*
X167077579Y-105899752D01*
X166967978Y-105839458D01*
X166883892Y-105746842D01*
X166868311Y-105720332D01*
X166835938Y-105659767D01*
X166835936Y-105659763D01*
X166709410Y-105505590D01*
X166555237Y-105379064D01*
X166555234Y-105379062D01*
X166555230Y-105379059D01*
X166379348Y-105285049D01*
X166379335Y-105285043D01*
X166188486Y-105227150D01*
X166039745Y-105212500D01*
X163280263Y-105212500D01*
X163280240Y-105212502D01*
X163131522Y-105227148D01*
X163131511Y-105227150D01*
X162940662Y-105285044D01*
X162940651Y-105285049D01*
X162764769Y-105379059D01*
X162610590Y-105505590D01*
X162484059Y-105659769D01*
X162390049Y-105835651D01*
X162390043Y-105835664D01*
X162332150Y-106026513D01*
X162317500Y-106175248D01*
X137337139Y-106175248D01*
X135288630Y-104126739D01*
X135215942Y-104024933D01*
X135180249Y-103905041D01*
X135185419Y-103780056D01*
X135230890Y-103663522D01*
X135311737Y-103568066D01*
X135419198Y-103504033D01*
X135439899Y-103496638D01*
X135458179Y-103490699D01*
X135691340Y-103371898D01*
X135903046Y-103218084D01*
X136088084Y-103033046D01*
X136241898Y-102821340D01*
X136360699Y-102588179D01*
X136441564Y-102339303D01*
X136442879Y-102331001D01*
X143580001Y-102331001D01*
X143580001Y-102649975D01*
X143590494Y-102752697D01*
X143645643Y-102919123D01*
X143645644Y-102919126D01*
X143737680Y-103068340D01*
X143861659Y-103192319D01*
X144010873Y-103284355D01*
X144177307Y-103339506D01*
X144280014Y-103349999D01*
X144599000Y-103349999D01*
X144599000Y-102331001D01*
X144598999Y-102331000D01*
X143580002Y-102331000D01*
X143580001Y-102331001D01*
X136442879Y-102331001D01*
X136482500Y-102080842D01*
X136482500Y-101890756D01*
X144530000Y-101890756D01*
X144530000Y-102009244D01*
X144560667Y-102123694D01*
X144619910Y-102226306D01*
X144703694Y-102310090D01*
X144806306Y-102369333D01*
X144920756Y-102400000D01*
X145039244Y-102400000D01*
X145153694Y-102369333D01*
X145220087Y-102331001D01*
X145361000Y-102331001D01*
X145361000Y-103349998D01*
X145361001Y-103349999D01*
X145679975Y-103349999D01*
X145782697Y-103339505D01*
X145949123Y-103284356D01*
X145949126Y-103284355D01*
X146098340Y-103192319D01*
X146222319Y-103068340D01*
X146314355Y-102919126D01*
X146314355Y-102919125D01*
X146369505Y-102752695D01*
X146372931Y-102719158D01*
X174877500Y-102719158D01*
X174877500Y-102980842D01*
X174907770Y-103171963D01*
X174909767Y-103189365D01*
X174909769Y-103189386D01*
X174912097Y-103209660D01*
X174914390Y-103219611D01*
X174917353Y-103232468D01*
X174918436Y-103239303D01*
X174920126Y-103244506D01*
X174923866Y-103260735D01*
X174923870Y-103260747D01*
X174944590Y-103350666D01*
X174950541Y-103374715D01*
X174950721Y-103375394D01*
X174950729Y-103375423D01*
X174957513Y-103399464D01*
X174997015Y-103531221D01*
X175006512Y-103560197D01*
X175009188Y-103568361D01*
X175009571Y-103569435D01*
X175009580Y-103569459D01*
X175023798Y-103606342D01*
X175075781Y-103731491D01*
X175118291Y-103833834D01*
X175138043Y-103877487D01*
X175138671Y-103878767D01*
X175154042Y-103907807D01*
X175193565Y-104026491D01*
X175192410Y-104151578D01*
X175153318Y-104264701D01*
X175110046Y-104345658D01*
X175110043Y-104345664D01*
X175052150Y-104536513D01*
X175037500Y-104685248D01*
X175037500Y-106034736D01*
X175037502Y-106034759D01*
X175052148Y-106183477D01*
X175052150Y-106183488D01*
X175110044Y-106374337D01*
X175110049Y-106374348D01*
X175204059Y-106550230D01*
X175204062Y-106550234D01*
X175204064Y-106550237D01*
X175330590Y-106704410D01*
X175339604Y-106711807D01*
X175421919Y-106805994D01*
X175469194Y-106921809D01*
X175476302Y-107046698D01*
X175442473Y-107167129D01*
X175405963Y-107228910D01*
X175268102Y-107418659D01*
X175268099Y-107418664D01*
X175149305Y-107651811D01*
X175149301Y-107651820D01*
X175090569Y-107832580D01*
X175068436Y-107900697D01*
X175027500Y-108159158D01*
X175027500Y-108420842D01*
X175068436Y-108679303D01*
X175132022Y-108875000D01*
X175149301Y-108928179D01*
X175149305Y-108928188D01*
X175268099Y-109161335D01*
X175268103Y-109161342D01*
X175361071Y-109289301D01*
X175421916Y-109373046D01*
X175606954Y-109558084D01*
X175606957Y-109558086D01*
X175606956Y-109558086D01*
X175818657Y-109711896D01*
X175818664Y-109711900D01*
X176043866Y-109826646D01*
X176051821Y-109830699D01*
X176300697Y-109911564D01*
X176559158Y-109952500D01*
X176559162Y-109952500D01*
X176820838Y-109952500D01*
X176820842Y-109952500D01*
X177079303Y-109911564D01*
X177328179Y-109830699D01*
X177561340Y-109711898D01*
X177773046Y-109558084D01*
X177958084Y-109373046D01*
X178111898Y-109161340D01*
X178230699Y-108928179D01*
X178311564Y-108679303D01*
X178352500Y-108420842D01*
X178352500Y-108159158D01*
X187727500Y-108159158D01*
X187727500Y-108420842D01*
X187768436Y-108679303D01*
X187832022Y-108875000D01*
X187849301Y-108928179D01*
X187849305Y-108928188D01*
X187968099Y-109161335D01*
X187968103Y-109161342D01*
X188061071Y-109289301D01*
X188121916Y-109373046D01*
X188306954Y-109558084D01*
X188306957Y-109558086D01*
X188306956Y-109558086D01*
X188518657Y-109711896D01*
X188518664Y-109711900D01*
X188743866Y-109826646D01*
X188751821Y-109830699D01*
X189000697Y-109911564D01*
X189259158Y-109952500D01*
X189259162Y-109952500D01*
X189520838Y-109952500D01*
X189520842Y-109952500D01*
X189779303Y-109911564D01*
X190028179Y-109830699D01*
X190261340Y-109711898D01*
X190473046Y-109558084D01*
X190658084Y-109373046D01*
X190811898Y-109161340D01*
X190930699Y-108928179D01*
X191011564Y-108679303D01*
X191052500Y-108420842D01*
X191052500Y-108159158D01*
X191011564Y-107900697D01*
X190930699Y-107651821D01*
X190811898Y-107418660D01*
X190747955Y-107330651D01*
X190674036Y-107228910D01*
X190658084Y-107206954D01*
X190473046Y-107021916D01*
X190473042Y-107021913D01*
X190473043Y-107021913D01*
X190261342Y-106868103D01*
X190261335Y-106868099D01*
X190028188Y-106749305D01*
X190028179Y-106749301D01*
X189944617Y-106722150D01*
X189779303Y-106668436D01*
X189520842Y-106627500D01*
X189259158Y-106627500D01*
X189001777Y-106668265D01*
X189000697Y-106668436D01*
X188751820Y-106749301D01*
X188751811Y-106749305D01*
X188518664Y-106868099D01*
X188518657Y-106868103D01*
X188306957Y-107021913D01*
X188121913Y-107206957D01*
X187968103Y-107418657D01*
X187968099Y-107418664D01*
X187849305Y-107651811D01*
X187849301Y-107651820D01*
X187790569Y-107832580D01*
X187768436Y-107900697D01*
X187727500Y-108159158D01*
X178352500Y-108159158D01*
X178311564Y-107900697D01*
X178230699Y-107651821D01*
X178111898Y-107418660D01*
X178085863Y-107382826D01*
X178029997Y-107270902D01*
X178013499Y-107146903D01*
X178038157Y-107024265D01*
X178101300Y-106916279D01*
X178196084Y-106834647D01*
X178312239Y-106788214D01*
X178437177Y-106782012D01*
X178557359Y-106816713D01*
X178572422Y-106824339D01*
X178584760Y-106830934D01*
X178584763Y-106830936D01*
X178760658Y-106924954D01*
X178760663Y-106924955D01*
X178760664Y-106924956D01*
X178816917Y-106942020D01*
X178951515Y-106982850D01*
X179100259Y-106997500D01*
X179999740Y-106997499D01*
X180055944Y-106991963D01*
X180148477Y-106982851D01*
X180148479Y-106982850D01*
X180148485Y-106982850D01*
X180339342Y-106924954D01*
X180471998Y-106854047D01*
X180515230Y-106830940D01*
X180515230Y-106830939D01*
X180515237Y-106830936D01*
X180669410Y-106704410D01*
X180795936Y-106550237D01*
X180889954Y-106374342D01*
X180947850Y-106183485D01*
X180962500Y-106034741D01*
X180962499Y-104685260D01*
X180947850Y-104536515D01*
X180947847Y-104536507D01*
X180947657Y-104535546D01*
X180947611Y-104534088D01*
X180946392Y-104521704D01*
X180944048Y-104514255D01*
X180945387Y-104462383D01*
X180943779Y-104410514D01*
X180946996Y-104400100D01*
X180947278Y-104389204D01*
X180965388Y-104340577D01*
X180980708Y-104290997D01*
X180988080Y-104279647D01*
X180990937Y-104271979D01*
X181026601Y-104220352D01*
X181075936Y-104160237D01*
X181075940Y-104160229D01*
X181086252Y-104147664D01*
X181180443Y-104065346D01*
X181296258Y-104018072D01*
X181421148Y-104010964D01*
X181541578Y-104044794D01*
X181644499Y-104115894D01*
X181673743Y-104147661D01*
X181804473Y-104306957D01*
X181810590Y-104314410D01*
X181964763Y-104440936D01*
X181964766Y-104440937D01*
X181964769Y-104440940D01*
X182097419Y-104511842D01*
X182140658Y-104534954D01*
X182273786Y-104575338D01*
X182385879Y-104630856D01*
X182473874Y-104719765D01*
X182528233Y-104832429D01*
X182543064Y-104956638D01*
X182538797Y-104998418D01*
X182538436Y-105000696D01*
X182538436Y-105000697D01*
X182497500Y-105259158D01*
X182497500Y-105520842D01*
X182538436Y-105779303D01*
X182584539Y-105921192D01*
X182619301Y-106028179D01*
X182619305Y-106028188D01*
X182738099Y-106261335D01*
X182738103Y-106261342D01*
X182888825Y-106468792D01*
X182891916Y-106473046D01*
X183076954Y-106658084D01*
X183076957Y-106658086D01*
X183076956Y-106658086D01*
X183288657Y-106811896D01*
X183288664Y-106811900D01*
X183432066Y-106884967D01*
X183521821Y-106930699D01*
X183770697Y-107011564D01*
X184029158Y-107052500D01*
X184029162Y-107052500D01*
X184290838Y-107052500D01*
X184290842Y-107052500D01*
X184549303Y-107011564D01*
X184798179Y-106930699D01*
X185031340Y-106811898D01*
X185243046Y-106658084D01*
X185428084Y-106473046D01*
X185581898Y-106261340D01*
X185700699Y-106028179D01*
X185781564Y-105779303D01*
X185822500Y-105520842D01*
X185822500Y-105259158D01*
X185781564Y-105000697D01*
X185700699Y-104751821D01*
X185666778Y-104685248D01*
X185590996Y-104536515D01*
X185581898Y-104518660D01*
X185577422Y-104512500D01*
X185493735Y-104397314D01*
X185428084Y-104306954D01*
X185243046Y-104121916D01*
X185243042Y-104121913D01*
X185243043Y-104121913D01*
X185031342Y-103968103D01*
X185031335Y-103968099D01*
X184798188Y-103849305D01*
X184798182Y-103849302D01*
X184798179Y-103849301D01*
X184798175Y-103849299D01*
X184798171Y-103849298D01*
X184605072Y-103786556D01*
X184494088Y-103728846D01*
X184407855Y-103638226D01*
X184355720Y-103524517D01*
X184342499Y-103425161D01*
X184342499Y-102295260D01*
X184334282Y-102211821D01*
X184327851Y-102146522D01*
X184327849Y-102146511D01*
X184276933Y-101978664D01*
X184269954Y-101955658D01*
X184269951Y-101955652D01*
X184262810Y-101938412D01*
X184266678Y-101936809D01*
X184238320Y-101852868D01*
X184238933Y-101727778D01*
X184280129Y-101609664D01*
X184345894Y-101522308D01*
X184378715Y-101489766D01*
X184395237Y-101480936D01*
X184549410Y-101354410D01*
X184675936Y-101200237D01*
X184681793Y-101189278D01*
X184712455Y-101158879D01*
X184747820Y-101133857D01*
X184780445Y-101105345D01*
X184798583Y-101097941D01*
X184814572Y-101086629D01*
X184856142Y-101074446D01*
X184896261Y-101058071D01*
X184915819Y-101056958D01*
X184934615Y-101051450D01*
X184977894Y-101053426D01*
X185021151Y-101050965D01*
X185040009Y-101056262D01*
X185059577Y-101057156D01*
X185099871Y-101073078D01*
X185141581Y-101084795D01*
X185157696Y-101095927D01*
X185175915Y-101103127D01*
X185208854Y-101131268D01*
X185244502Y-101155895D01*
X185269634Y-101183196D01*
X185271023Y-101184383D01*
X185271552Y-101185280D01*
X185273745Y-101187662D01*
X185284062Y-101200233D01*
X185284064Y-101200237D01*
X185410590Y-101354410D01*
X185564763Y-101480936D01*
X185564766Y-101480937D01*
X185564769Y-101480940D01*
X185676914Y-101540882D01*
X185740658Y-101574954D01*
X185740662Y-101574955D01*
X185740664Y-101574956D01*
X185785102Y-101588436D01*
X185931515Y-101632850D01*
X186080259Y-101647500D01*
X186979740Y-101647499D01*
X187035944Y-101641963D01*
X187128477Y-101632851D01*
X187128478Y-101632850D01*
X187128485Y-101632850D01*
X187298506Y-101581274D01*
X187422551Y-101565159D01*
X187545112Y-101590196D01*
X187652903Y-101653672D01*
X187734242Y-101748708D01*
X187780317Y-101865005D01*
X187786133Y-101989962D01*
X187751061Y-102110037D01*
X187747397Y-102117424D01*
X187699303Y-102211814D01*
X187699301Y-102211820D01*
X187672196Y-102295240D01*
X187618436Y-102460697D01*
X187577500Y-102719158D01*
X187577500Y-102980842D01*
X187618436Y-103239303D01*
X187670476Y-103399464D01*
X187699301Y-103488179D01*
X187699305Y-103488188D01*
X187818099Y-103721335D01*
X187818103Y-103721342D01*
X187956784Y-103912219D01*
X187971916Y-103933046D01*
X188156954Y-104118084D01*
X188156957Y-104118086D01*
X188156956Y-104118086D01*
X188368657Y-104271896D01*
X188368664Y-104271900D01*
X188540993Y-104359706D01*
X188601821Y-104390699D01*
X188850697Y-104471564D01*
X189109158Y-104512500D01*
X189109162Y-104512500D01*
X189370838Y-104512500D01*
X189370842Y-104512500D01*
X189629303Y-104471564D01*
X189878179Y-104390699D01*
X190111340Y-104271898D01*
X190323046Y-104118084D01*
X190508084Y-103933046D01*
X190661898Y-103721340D01*
X190780699Y-103488179D01*
X190861564Y-103239303D01*
X190902500Y-102980842D01*
X190902500Y-102719158D01*
X190861564Y-102460697D01*
X190780699Y-102211821D01*
X190661898Y-101978660D01*
X190625842Y-101929034D01*
X190549605Y-101824103D01*
X190508084Y-101766954D01*
X190323046Y-101581916D01*
X190283697Y-101553327D01*
X190250654Y-101519733D01*
X190214962Y-101488966D01*
X190207020Y-101475370D01*
X190195980Y-101464146D01*
X190175633Y-101421637D01*
X190151867Y-101380952D01*
X190148770Y-101365516D01*
X190141972Y-101351314D01*
X190136530Y-101304509D01*
X190127261Y-101258304D01*
X190129344Y-101242694D01*
X190127527Y-101227059D01*
X190137576Y-101181026D01*
X190143813Y-101134312D01*
X190152146Y-101114294D01*
X190154209Y-101104846D01*
X190167135Y-101076046D01*
X190169467Y-101071378D01*
X190199954Y-101014342D01*
X190203022Y-101004226D01*
X190215583Y-100979090D01*
X190244571Y-100939227D01*
X190270668Y-100897419D01*
X190281183Y-100888879D01*
X190289153Y-100877920D01*
X190329516Y-100849627D01*
X190367772Y-100818560D01*
X190380491Y-100813896D01*
X190391587Y-100806120D01*
X190438947Y-100792467D01*
X190485221Y-100775504D01*
X190498766Y-100775223D01*
X190511785Y-100771471D01*
X190561006Y-100773935D01*
X190610286Y-100772916D01*
X190623189Y-100777049D01*
X190636720Y-100777727D01*
X190682476Y-100796041D01*
X190729415Y-100811077D01*
X190740275Y-100819175D01*
X190752855Y-100824210D01*
X190790192Y-100856395D01*
X190829698Y-100885852D01*
X190840391Y-100899667D01*
X190847604Y-100905884D01*
X190854984Y-100918519D01*
X190878932Y-100949456D01*
X190967681Y-101093341D01*
X191091659Y-101217319D01*
X191240873Y-101309355D01*
X191407308Y-101364507D01*
X191510013Y-101374999D01*
X191579000Y-101374999D01*
X191579000Y-100381001D01*
X192341000Y-100381001D01*
X192341000Y-101374998D01*
X192341001Y-101374999D01*
X192409975Y-101374999D01*
X192512697Y-101364505D01*
X192679123Y-101309356D01*
X192679126Y-101309355D01*
X192828340Y-101217319D01*
X192952319Y-101093340D01*
X193044355Y-100944126D01*
X193044355Y-100944125D01*
X193099505Y-100777695D01*
X193110000Y-100674969D01*
X193110000Y-100471001D01*
X198655001Y-100471001D01*
X198655001Y-100789975D01*
X198665494Y-100892697D01*
X198720643Y-101059123D01*
X198720644Y-101059126D01*
X198812680Y-101208340D01*
X198936659Y-101332319D01*
X199085873Y-101424355D01*
X199252308Y-101479507D01*
X199355013Y-101489999D01*
X199436500Y-101489998D01*
X199436500Y-100471000D01*
X198655002Y-100471000D01*
X198655001Y-100471001D01*
X193110000Y-100471001D01*
X193110000Y-100381001D01*
X193109999Y-100381000D01*
X192341001Y-100381000D01*
X192341000Y-100381001D01*
X191579000Y-100381001D01*
X191579000Y-98625001D01*
X192341000Y-98625001D01*
X192341000Y-99618999D01*
X192341001Y-99619000D01*
X193109998Y-99619000D01*
X193109999Y-99618999D01*
X193109999Y-99325024D01*
X193099505Y-99222302D01*
X193044356Y-99055876D01*
X193044355Y-99055873D01*
X192952319Y-98906659D01*
X192828340Y-98782680D01*
X192679126Y-98690644D01*
X192512695Y-98635494D01*
X192409970Y-98625000D01*
X192341001Y-98625000D01*
X192341000Y-98625001D01*
X191579000Y-98625001D01*
X191579000Y-98625000D01*
X191510017Y-98625000D01*
X191510010Y-98625001D01*
X191407307Y-98635493D01*
X191240876Y-98690643D01*
X191240873Y-98690644D01*
X191091659Y-98782680D01*
X190967680Y-98906659D01*
X190878931Y-99050544D01*
X190796632Y-99144750D01*
X190688204Y-99207130D01*
X190565396Y-99230923D01*
X190441516Y-99213552D01*
X190329989Y-99156897D01*
X190242900Y-99067100D01*
X190204432Y-98996469D01*
X190199956Y-98985664D01*
X190199954Y-98985658D01*
X190168614Y-98927026D01*
X190105940Y-98809769D01*
X190105937Y-98809766D01*
X190105936Y-98809763D01*
X189979410Y-98655590D01*
X189825237Y-98529064D01*
X189825234Y-98529062D01*
X189825230Y-98529059D01*
X189649348Y-98435049D01*
X189649335Y-98435043D01*
X189458486Y-98377150D01*
X189309745Y-98362500D01*
X188410263Y-98362500D01*
X188410240Y-98362502D01*
X188261522Y-98377148D01*
X188261511Y-98377150D01*
X188070662Y-98435044D01*
X188070651Y-98435049D01*
X187878298Y-98537864D01*
X187877379Y-98536144D01*
X187784224Y-98578156D01*
X187659672Y-98589770D01*
X187538098Y-98560313D01*
X187508017Y-98545895D01*
X187436243Y-98507531D01*
X187319342Y-98445046D01*
X187319339Y-98445045D01*
X187319335Y-98445043D01*
X187128486Y-98387150D01*
X186979745Y-98372500D01*
X186080263Y-98372500D01*
X186080240Y-98372502D01*
X185931522Y-98387148D01*
X185931511Y-98387150D01*
X185740662Y-98445044D01*
X185740651Y-98445049D01*
X185564769Y-98539059D01*
X185460049Y-98625000D01*
X185410590Y-98665590D01*
X185284064Y-98819763D01*
X185284062Y-98819766D01*
X185273745Y-98832338D01*
X185179554Y-98914655D01*
X185063738Y-98961928D01*
X184938848Y-98969034D01*
X184818418Y-98935204D01*
X184715497Y-98864103D01*
X184686255Y-98832338D01*
X184675937Y-98819766D01*
X184675936Y-98819763D01*
X184549410Y-98665590D01*
X184395237Y-98539064D01*
X184395234Y-98539062D01*
X184395230Y-98539059D01*
X184219348Y-98445049D01*
X184219335Y-98445043D01*
X184028486Y-98387150D01*
X183879745Y-98372500D01*
X182980263Y-98372500D01*
X182980240Y-98372502D01*
X182831522Y-98387148D01*
X182831511Y-98387150D01*
X182640662Y-98445044D01*
X182640651Y-98445049D01*
X182464769Y-98539059D01*
X182310590Y-98665590D01*
X182184059Y-98819769D01*
X182090049Y-98995651D01*
X182090043Y-98995664D01*
X182032150Y-99186513D01*
X182017500Y-99335248D01*
X182017500Y-99927845D01*
X182017434Y-99934937D01*
X182017378Y-99937884D01*
X182015992Y-99978427D01*
X182016500Y-99984938D01*
X182016188Y-100001691D01*
X182006132Y-100055716D01*
X181998271Y-100110114D01*
X181993666Y-100122697D01*
X181993299Y-100124671D01*
X181992293Y-100126448D01*
X181987328Y-100140019D01*
X181956409Y-100214663D01*
X181927286Y-100361072D01*
X181927287Y-100361073D01*
X181917500Y-100410277D01*
X181917500Y-101361278D01*
X181911362Y-101398057D01*
X181910215Y-101435330D01*
X181901136Y-101459341D01*
X181896911Y-101484664D01*
X181879161Y-101517461D01*
X181865975Y-101552338D01*
X181846827Y-101577208D01*
X181837373Y-101594679D01*
X181830048Y-101603798D01*
X181814946Y-101622014D01*
X181810590Y-101625590D01*
X181684064Y-101779763D01*
X181683863Y-101780138D01*
X181672547Y-101793789D01*
X181626021Y-101834045D01*
X181579553Y-101874655D01*
X181578669Y-101875015D01*
X181577950Y-101875638D01*
X181520821Y-101898627D01*
X181463737Y-101921928D01*
X181462786Y-101921982D01*
X181461902Y-101922338D01*
X181400321Y-101925536D01*
X181338847Y-101929034D01*
X181337930Y-101928776D01*
X181336978Y-101928826D01*
X181277728Y-101911865D01*
X181218417Y-101895204D01*
X181217632Y-101894662D01*
X181216717Y-101894400D01*
X181166253Y-101859167D01*
X181115496Y-101824103D01*
X181114536Y-101823060D01*
X181114149Y-101822790D01*
X181113618Y-101822063D01*
X181086254Y-101792337D01*
X181075938Y-101779766D01*
X181075936Y-101779763D01*
X180949410Y-101625590D01*
X180795237Y-101499064D01*
X180795234Y-101499062D01*
X180795230Y-101499059D01*
X180619348Y-101405049D01*
X180619335Y-101405043D01*
X180428486Y-101347150D01*
X180279745Y-101332500D01*
X179380263Y-101332500D01*
X179380240Y-101332502D01*
X179231522Y-101347148D01*
X179231511Y-101347150D01*
X179040662Y-101405044D01*
X179040651Y-101405049D01*
X178864769Y-101499059D01*
X178710590Y-101625590D01*
X178584059Y-101779769D01*
X178584059Y-101779770D01*
X178545073Y-101852707D01*
X178468751Y-101951817D01*
X178364382Y-102020775D01*
X178243278Y-102052108D01*
X178118562Y-102042421D01*
X178003748Y-101992764D01*
X177911279Y-101908518D01*
X177902519Y-101896932D01*
X177849605Y-101824103D01*
X177808084Y-101766954D01*
X177623046Y-101581916D01*
X177623042Y-101581913D01*
X177623043Y-101581913D01*
X177411342Y-101428103D01*
X177411335Y-101428099D01*
X177178188Y-101309305D01*
X177178179Y-101309301D01*
X177141044Y-101297235D01*
X176929303Y-101228436D01*
X176670842Y-101187500D01*
X176409158Y-101187500D01*
X176159391Y-101227059D01*
X176150697Y-101228436D01*
X175901820Y-101309301D01*
X175901811Y-101309305D01*
X175668664Y-101428099D01*
X175668657Y-101428103D01*
X175456957Y-101581913D01*
X175271913Y-101766957D01*
X175118103Y-101978657D01*
X175118099Y-101978664D01*
X174999305Y-102211811D01*
X174999301Y-102211820D01*
X174918436Y-102460697D01*
X174885982Y-102665607D01*
X174877500Y-102719158D01*
X146372931Y-102719158D01*
X146378402Y-102665610D01*
X146378402Y-102665607D01*
X146378403Y-102665604D01*
X146380000Y-102649973D01*
X146380000Y-102331001D01*
X146379999Y-102331000D01*
X145361001Y-102331000D01*
X145361000Y-102331001D01*
X145220087Y-102331001D01*
X145256306Y-102310090D01*
X145340090Y-102226306D01*
X145399333Y-102123694D01*
X145430000Y-102009244D01*
X145430000Y-101890756D01*
X145399333Y-101776306D01*
X145340090Y-101673694D01*
X145256306Y-101589910D01*
X145153694Y-101530667D01*
X145039244Y-101500000D01*
X144920756Y-101500000D01*
X144806306Y-101530667D01*
X144703694Y-101589910D01*
X144619910Y-101673694D01*
X144560667Y-101776306D01*
X144530000Y-101890756D01*
X136482500Y-101890756D01*
X136482500Y-101819158D01*
X136441564Y-101560697D01*
X136360699Y-101311821D01*
X136329215Y-101250030D01*
X143580000Y-101250030D01*
X143580000Y-101568999D01*
X143580001Y-101569000D01*
X144598999Y-101569000D01*
X144599000Y-101568999D01*
X144599000Y-100550001D01*
X145361000Y-100550001D01*
X145361000Y-101568999D01*
X145361001Y-101569000D01*
X146379998Y-101569000D01*
X146379999Y-101568999D01*
X146379999Y-101250024D01*
X146369505Y-101147302D01*
X146314356Y-100980876D01*
X146314355Y-100980873D01*
X146222319Y-100831659D01*
X146098340Y-100707680D01*
X145949126Y-100615644D01*
X145782695Y-100560494D01*
X145679970Y-100550000D01*
X145361001Y-100550000D01*
X145361000Y-100550001D01*
X144599000Y-100550001D01*
X144599000Y-100550000D01*
X144280023Y-100550000D01*
X144177302Y-100560494D01*
X144010876Y-100615643D01*
X144010873Y-100615644D01*
X143861659Y-100707680D01*
X143737680Y-100831659D01*
X143645644Y-100980873D01*
X143645644Y-100980874D01*
X143590494Y-101147304D01*
X143580000Y-101250030D01*
X136329215Y-101250030D01*
X136241898Y-101078660D01*
X136220937Y-101049810D01*
X136213274Y-101033787D01*
X136158095Y-100945446D01*
X136145483Y-100923680D01*
X136128096Y-100891244D01*
X136111249Y-100855457D01*
X136067887Y-100749342D01*
X136053729Y-100708074D01*
X136013546Y-100564586D01*
X136012996Y-100562602D01*
X136009541Y-100550001D01*
X135968156Y-100399076D01*
X135961335Y-100376716D01*
X135955409Y-100357291D01*
X135955404Y-100357276D01*
X135954977Y-100356007D01*
X135939690Y-100314562D01*
X135871973Y-100146072D01*
X135852146Y-100100979D01*
X135851499Y-100099627D01*
X135828902Y-100056044D01*
X135828895Y-100056030D01*
X135779203Y-99967260D01*
X135761689Y-99937559D01*
X135761675Y-99937535D01*
X135761121Y-99936642D01*
X135761109Y-99936623D01*
X135761095Y-99936601D01*
X135742327Y-99907812D01*
X135677581Y-99813205D01*
X135674880Y-99809425D01*
X135659537Y-99787950D01*
X135658960Y-99787176D01*
X135639103Y-99761678D01*
X135622294Y-99741006D01*
X135609382Y-99725127D01*
X135609370Y-99725113D01*
X135595597Y-99708175D01*
X135566460Y-99664569D01*
X135517093Y-99615202D01*
X135423449Y-99515544D01*
X135415215Y-99506917D01*
X135414962Y-99506656D01*
X135380845Y-99477388D01*
X135359566Y-99457675D01*
X131931299Y-96029408D01*
X131899448Y-95984798D01*
X131865800Y-95941567D01*
X131863223Y-95934062D01*
X131858611Y-95927602D01*
X131842971Y-95875070D01*
X131825183Y-95823253D01*
X131824271Y-95812257D01*
X131822918Y-95807710D01*
X131820589Y-95770190D01*
X173647777Y-95770190D01*
X174649631Y-96772044D01*
X174696257Y-96809619D01*
X174827044Y-96869347D01*
X174969360Y-96889807D01*
X175111674Y-96869347D01*
X175111675Y-96869347D01*
X175242462Y-96809619D01*
X175289090Y-96772042D01*
X175289106Y-96772028D01*
X175689900Y-96371232D01*
X174368317Y-95049649D01*
X173647777Y-95770190D01*
X131820589Y-95770190D01*
X131820000Y-95760707D01*
X131820000Y-81535770D01*
X131820000Y-81535769D01*
X131819999Y-81535769D01*
X119420500Y-81535769D01*
X119297114Y-81515180D01*
X119187099Y-81455642D01*
X119102377Y-81363609D01*
X119052128Y-81249053D01*
X119040500Y-81155769D01*
X119040500Y-79716550D01*
X149542500Y-79716550D01*
X149542500Y-80103449D01*
X149580418Y-80488433D01*
X149580419Y-80488443D01*
X149655892Y-80867877D01*
X149655894Y-80867885D01*
X149655895Y-80867888D01*
X149675246Y-80931678D01*
X149768198Y-81238103D01*
X149916251Y-81595534D01*
X149916253Y-81595537D01*
X150098620Y-81936722D01*
X150313551Y-82258388D01*
X150313557Y-82258397D01*
X150415341Y-82382421D01*
X150558986Y-82557453D01*
X150832547Y-82831014D01*
X150924431Y-82906421D01*
X151131602Y-83076442D01*
X151131611Y-83076448D01*
X151453277Y-83291379D01*
X151453279Y-83291380D01*
X151794471Y-83473751D01*
X152151896Y-83621801D01*
X152522112Y-83734105D01*
X152901552Y-83809580D01*
X153122815Y-83831372D01*
X153286550Y-83847499D01*
X153286560Y-83847499D01*
X153286563Y-83847500D01*
X153286564Y-83847500D01*
X153673436Y-83847500D01*
X153673437Y-83847500D01*
X153673440Y-83847499D01*
X153673449Y-83847499D01*
X153779667Y-83837037D01*
X154058448Y-83809580D01*
X154437888Y-83734105D01*
X154808104Y-83621801D01*
X155165529Y-83473751D01*
X155506721Y-83291380D01*
X155828395Y-83076444D01*
X156127453Y-82831014D01*
X156401014Y-82557453D01*
X156646444Y-82258395D01*
X156861380Y-81936721D01*
X157043751Y-81595529D01*
X157146006Y-81348661D01*
X157212242Y-81242554D01*
X157309347Y-81163697D01*
X157426797Y-81120643D01*
X157551862Y-81118057D01*
X157670990Y-81156220D01*
X157765777Y-81225386D01*
X158407980Y-81867587D01*
X158602310Y-82061917D01*
X158717847Y-82156737D01*
X158802028Y-82201733D01*
X158901137Y-82278053D01*
X158970096Y-82382421D01*
X158989544Y-82443667D01*
X158989916Y-82443555D01*
X159053225Y-82652265D01*
X159053231Y-82652278D01*
X159147244Y-82828165D01*
X159147246Y-82828168D01*
X159147247Y-82828169D01*
X159211461Y-82906414D01*
X159242068Y-82943708D01*
X159242074Y-82943715D01*
X159988176Y-83689815D01*
X160196294Y-83897933D01*
X160311831Y-83992753D01*
X160311833Y-83992754D01*
X160311836Y-83992756D01*
X160398778Y-84039227D01*
X160487726Y-84086771D01*
X160678583Y-84144666D01*
X160877067Y-84164216D01*
X160877067Y-84164215D01*
X160895647Y-84166046D01*
X160895384Y-84168708D01*
X160898451Y-84169219D01*
X160928849Y-84169045D01*
X160959715Y-84179442D01*
X160991850Y-84184805D01*
X161019082Y-84199441D01*
X161047395Y-84208979D01*
X161091285Y-84238247D01*
X161100133Y-84243003D01*
X161105001Y-84246747D01*
X161105245Y-84246961D01*
X161109998Y-84250591D01*
X161110502Y-84250978D01*
X161111072Y-84251590D01*
X161147533Y-84283490D01*
X161640504Y-84776460D01*
X161640506Y-84776462D01*
X161700576Y-84816599D01*
X161700580Y-84816601D01*
X161700587Y-84816606D01*
X161763520Y-84858656D01*
X161836275Y-84921996D01*
X161895843Y-84988935D01*
X161917204Y-85015208D01*
X161963541Y-85077696D01*
X161987390Y-85114031D01*
X162001415Y-85138322D01*
X162166004Y-85352818D01*
X162357182Y-85543996D01*
X162373014Y-85556144D01*
X162551011Y-85692727D01*
X162571678Y-85708585D01*
X162805822Y-85843769D01*
X162805827Y-85843771D01*
X162805833Y-85843774D01*
X163055595Y-85947229D01*
X163055600Y-85947230D01*
X163055609Y-85947234D01*
X163316763Y-86017210D01*
X163584817Y-86052500D01*
X163584822Y-86052500D01*
X163855178Y-86052500D01*
X163855183Y-86052500D01*
X164123237Y-86017210D01*
X164384391Y-85947234D01*
X164384401Y-85947229D01*
X164384404Y-85947229D01*
X164634166Y-85843774D01*
X164634166Y-85843773D01*
X164634178Y-85843769D01*
X164847500Y-85720606D01*
X164964649Y-85676745D01*
X165089693Y-85673297D01*
X165209082Y-85710639D01*
X165309877Y-85784723D01*
X165381155Y-85887520D01*
X165415194Y-86007892D01*
X165417500Y-86049696D01*
X165417500Y-86295188D01*
X165421317Y-86324178D01*
X165452790Y-86563237D01*
X165522766Y-86824391D01*
X165522767Y-86824393D01*
X165522770Y-86824404D01*
X165626225Y-87074166D01*
X165626228Y-87074172D01*
X165626229Y-87074175D01*
X165626231Y-87074178D01*
X165708763Y-87217127D01*
X165761416Y-87308324D01*
X165897793Y-87486053D01*
X165926004Y-87522818D01*
X166117182Y-87713996D01*
X166177521Y-87760296D01*
X166264254Y-87826849D01*
X166331678Y-87878585D01*
X166565822Y-88013769D01*
X166565827Y-88013771D01*
X166565833Y-88013774D01*
X166815595Y-88117229D01*
X166815600Y-88117230D01*
X166815609Y-88117234D01*
X167076763Y-88187210D01*
X167344817Y-88222500D01*
X167344822Y-88222500D01*
X167615178Y-88222500D01*
X167615183Y-88222500D01*
X167883237Y-88187210D01*
X168144391Y-88117234D01*
X168144401Y-88117229D01*
X168144404Y-88117229D01*
X168394166Y-88013774D01*
X168394166Y-88013773D01*
X168394178Y-88013769D01*
X168628322Y-87878585D01*
X168842818Y-87713996D01*
X169033996Y-87522818D01*
X169198585Y-87308322D01*
X169333769Y-87074178D01*
X169379408Y-86963996D01*
X169437229Y-86824404D01*
X169437230Y-86824400D01*
X169437234Y-86824391D01*
X169447011Y-86787900D01*
X169498831Y-86674050D01*
X169584812Y-86583192D01*
X169695636Y-86525175D01*
X169819294Y-86506286D01*
X169942385Y-86528572D01*
X170051570Y-86589618D01*
X170115536Y-86654919D01*
X170130216Y-86674050D01*
X170206004Y-86772818D01*
X170397182Y-86963996D01*
X170489317Y-87034694D01*
X170540773Y-87074178D01*
X170611678Y-87128585D01*
X170845822Y-87263769D01*
X170845827Y-87263771D01*
X170845833Y-87263774D01*
X171095595Y-87367229D01*
X171095601Y-87367230D01*
X171095609Y-87367234D01*
X171356763Y-87437210D01*
X171477051Y-87453046D01*
X171529578Y-87469078D01*
X171582723Y-87482965D01*
X171592218Y-87488196D01*
X171596691Y-87489562D01*
X171637686Y-87513249D01*
X171652087Y-87522814D01*
X171709386Y-87560871D01*
X171743441Y-87586347D01*
X171940793Y-87751989D01*
X171959986Y-87769242D01*
X172010848Y-87818191D01*
X172014866Y-87822058D01*
X172089491Y-87922453D01*
X172127474Y-88041639D01*
X172124700Y-88166700D01*
X172081469Y-88284084D01*
X172020062Y-88364558D01*
X171565316Y-88819303D01*
X171463510Y-88891991D01*
X171343619Y-88927684D01*
X171218634Y-88922514D01*
X171102099Y-88877042D01*
X171027921Y-88819308D01*
X170734984Y-88526371D01*
X170734977Y-88526365D01*
X170734975Y-88526363D01*
X170661113Y-88466193D01*
X170653597Y-88460070D01*
X170494310Y-88380074D01*
X170494311Y-88380074D01*
X170382765Y-88353637D01*
X170320868Y-88338967D01*
X170142620Y-88338967D01*
X170084806Y-88352669D01*
X169969177Y-88380074D01*
X169809891Y-88460069D01*
X169809890Y-88460070D01*
X169728508Y-88526365D01*
X169728496Y-88526376D01*
X168383853Y-89871021D01*
X168317555Y-89952405D01*
X168317553Y-89952408D01*
X168237558Y-90111694D01*
X168196452Y-90285135D01*
X168196452Y-90463383D01*
X168208606Y-90514665D01*
X168237559Y-90636826D01*
X168317554Y-90796111D01*
X168317555Y-90796112D01*
X168383854Y-90877499D01*
X170930586Y-93424229D01*
X171011973Y-93490530D01*
X171171260Y-93570526D01*
X171344702Y-93611633D01*
X171344703Y-93611633D01*
X171522950Y-93611633D01*
X171527920Y-93610454D01*
X171540017Y-93609638D01*
X171544933Y-93609064D01*
X171544961Y-93609304D01*
X171652728Y-93602032D01*
X171773508Y-93634591D01*
X171877173Y-93704603D01*
X171952487Y-93804481D01*
X171991291Y-93923402D01*
X171991694Y-93926133D01*
X172009805Y-94052108D01*
X172069533Y-94182895D01*
X172107108Y-94229521D01*
X173108961Y-95231374D01*
X173829504Y-94510832D01*
X174907134Y-94510832D01*
X176228717Y-95832415D01*
X176629513Y-95431621D01*
X176629527Y-95431605D01*
X176667104Y-95384977D01*
X176726832Y-95254190D01*
X176726832Y-95254189D01*
X176747292Y-95111875D01*
X176726832Y-94969560D01*
X176726832Y-94969559D01*
X176667104Y-94838772D01*
X176629529Y-94792146D01*
X175627675Y-93790292D01*
X174907134Y-94510832D01*
X173829504Y-94510832D01*
X174098911Y-94241426D01*
X174255609Y-94084728D01*
X175088859Y-93251476D01*
X174893215Y-93055832D01*
X174820527Y-92954026D01*
X174798787Y-92881001D01*
X193565001Y-92881001D01*
X193565001Y-93199975D01*
X193575494Y-93302697D01*
X193630643Y-93469123D01*
X193630644Y-93469126D01*
X193722680Y-93618340D01*
X193846659Y-93742319D01*
X193995873Y-93834355D01*
X194162308Y-93889507D01*
X194265013Y-93899999D01*
X194346500Y-93899998D01*
X194346500Y-92881000D01*
X193565002Y-92881000D01*
X193565001Y-92881001D01*
X174798787Y-92881001D01*
X174784834Y-92834134D01*
X174790004Y-92709149D01*
X174835475Y-92592615D01*
X174916322Y-92497159D01*
X175023783Y-92433126D01*
X175146213Y-92407456D01*
X175270344Y-92422929D01*
X175332458Y-92447550D01*
X175464059Y-92513642D01*
X175464064Y-92513644D01*
X175634653Y-92554075D01*
X175634663Y-92554077D01*
X175809981Y-92554077D01*
X175809990Y-92554075D01*
X175980579Y-92513644D01*
X175980584Y-92513642D01*
X176137258Y-92434958D01*
X176217305Y-92369752D01*
X176217316Y-92369742D01*
X176442863Y-92144193D01*
X176098700Y-91800030D01*
X193565000Y-91800030D01*
X193565000Y-92118999D01*
X193565001Y-92119000D01*
X194347500Y-92119000D01*
X194363109Y-92121604D01*
X194378880Y-92120298D01*
X194424479Y-92131845D01*
X194470886Y-92139589D01*
X194484804Y-92147121D01*
X194500144Y-92151006D01*
X194539526Y-92176736D01*
X194580901Y-92199127D01*
X194591618Y-92210769D01*
X194604867Y-92219425D01*
X194633763Y-92256551D01*
X194665623Y-92291160D01*
X194671979Y-92305650D01*
X194681700Y-92318140D01*
X194696975Y-92362636D01*
X194715872Y-92405716D01*
X194718213Y-92424501D01*
X194722317Y-92436454D01*
X194727500Y-92499000D01*
X194727500Y-92500000D01*
X194728500Y-92500000D01*
X194851886Y-92520589D01*
X194961901Y-92580127D01*
X195046623Y-92672160D01*
X195096872Y-92786716D01*
X195108500Y-92880000D01*
X195108500Y-93899998D01*
X195108501Y-93899999D01*
X195189975Y-93899999D01*
X195292697Y-93889505D01*
X195459123Y-93834356D01*
X195459126Y-93834355D01*
X195608340Y-93742319D01*
X195732321Y-93618338D01*
X195821067Y-93474458D01*
X195903365Y-93380251D01*
X196011793Y-93317870D01*
X196134601Y-93294076D01*
X196258481Y-93311447D01*
X196370008Y-93368100D01*
X196457097Y-93457897D01*
X196495565Y-93528524D01*
X196500047Y-93539345D01*
X196594059Y-93715230D01*
X196594062Y-93715234D01*
X196594064Y-93715237D01*
X196720590Y-93869410D01*
X196874763Y-93995936D01*
X196874766Y-93995937D01*
X196874769Y-93995940D01*
X196979853Y-94052108D01*
X197050658Y-94089954D01*
X197050662Y-94089955D01*
X197050664Y-94089956D01*
X197110565Y-94108126D01*
X197241515Y-94147850D01*
X197390259Y-94162500D01*
X198314740Y-94162499D01*
X198370944Y-94156963D01*
X198463477Y-94147851D01*
X198463479Y-94147850D01*
X198463485Y-94147850D01*
X198654342Y-94089954D01*
X198830237Y-93995936D01*
X198984410Y-93869410D01*
X199110936Y-93715237D01*
X199204954Y-93539342D01*
X199262850Y-93348485D01*
X199277500Y-93199741D01*
X199277499Y-91800260D01*
X199268184Y-91705675D01*
X199261021Y-91632936D01*
X199262802Y-91632760D01*
X199259602Y-91529666D01*
X199296528Y-91410148D01*
X199370261Y-91309097D01*
X199472811Y-91237462D01*
X199593064Y-91203006D01*
X199717989Y-91209463D01*
X199808697Y-91241970D01*
X199840208Y-91258026D01*
X200074114Y-91334026D01*
X200317029Y-91372500D01*
X200317032Y-91372500D01*
X200562968Y-91372500D01*
X200562971Y-91372500D01*
X200805886Y-91334026D01*
X201039792Y-91258026D01*
X201258929Y-91146370D01*
X201457901Y-91001809D01*
X201457906Y-91001803D01*
X201463207Y-90997277D01*
X201468620Y-90994021D01*
X201469980Y-90993033D01*
X201470065Y-90993151D01*
X201570401Y-90932800D01*
X201692723Y-90906622D01*
X201816917Y-90921580D01*
X201929526Y-90976054D01*
X201956793Y-90997277D01*
X201962099Y-91001809D01*
X202161071Y-91146370D01*
X202380208Y-91258026D01*
X202614114Y-91334026D01*
X202857029Y-91372500D01*
X202857032Y-91372500D01*
X203102968Y-91372500D01*
X203102971Y-91372500D01*
X203345886Y-91334026D01*
X203579792Y-91258026D01*
X203705035Y-91194211D01*
X203718562Y-91189939D01*
X203730567Y-91182371D01*
X203777918Y-91171193D01*
X203824315Y-91156541D01*
X203838502Y-91156892D01*
X203852313Y-91153633D01*
X203900729Y-91158436D01*
X203949368Y-91159643D01*
X203962670Y-91164581D01*
X203976794Y-91165983D01*
X204021028Y-91186247D01*
X204066639Y-91203181D01*
X204077618Y-91212172D01*
X204090520Y-91218083D01*
X204125772Y-91251606D01*
X204163419Y-91282437D01*
X204170885Y-91294508D01*
X204181167Y-91304286D01*
X204203625Y-91347443D01*
X204229220Y-91388824D01*
X204232361Y-91402662D01*
X204238913Y-91415252D01*
X204246141Y-91463363D01*
X204256913Y-91510812D01*
X204255390Y-91524923D01*
X204257499Y-91538956D01*
X204248713Y-91586810D01*
X204243495Y-91635183D01*
X204236916Y-91651072D01*
X204234912Y-91661991D01*
X204214309Y-91705675D01*
X204208773Y-91719049D01*
X204206695Y-91722743D01*
X204172468Y-91780569D01*
X204161125Y-91800400D01*
X204160814Y-91800963D01*
X204149293Y-91822630D01*
X204136896Y-91846869D01*
X204133214Y-91853418D01*
X204133030Y-91853645D01*
X204131894Y-91855745D01*
X204102902Y-91906461D01*
X204050526Y-91977450D01*
X204005189Y-92025919D01*
X204005181Y-92025929D01*
X203989761Y-92045146D01*
X203962090Y-92076016D01*
X201083292Y-94954815D01*
X201054967Y-94980426D01*
X201017534Y-95010999D01*
X200908947Y-95073102D01*
X200786078Y-95096582D01*
X200717715Y-95092009D01*
X200562971Y-95067500D01*
X200317029Y-95067500D01*
X200074114Y-95105974D01*
X200074112Y-95105974D01*
X199840208Y-95181973D01*
X199840202Y-95181976D01*
X199621069Y-95293631D01*
X199422089Y-95438197D01*
X199416783Y-95442730D01*
X199411373Y-95445983D01*
X199410020Y-95446967D01*
X199409934Y-95446849D01*
X199309587Y-95507204D01*
X199187264Y-95533378D01*
X199063070Y-95518415D01*
X198950464Y-95463937D01*
X198923217Y-95442730D01*
X198917910Y-95438197D01*
X198779980Y-95337986D01*
X198718929Y-95293630D01*
X198602022Y-95234063D01*
X198499797Y-95181976D01*
X198499791Y-95181973D01*
X198341885Y-95130667D01*
X198265886Y-95105974D01*
X198022971Y-95067500D01*
X197777029Y-95067500D01*
X197534114Y-95105974D01*
X197534112Y-95105974D01*
X197300208Y-95181973D01*
X197300202Y-95181976D01*
X197081066Y-95293632D01*
X197035719Y-95326579D01*
X196923795Y-95382445D01*
X196799796Y-95398943D01*
X196677159Y-95374285D01*
X196571295Y-95312896D01*
X196475236Y-95234063D01*
X196475230Y-95234059D01*
X196299348Y-95140049D01*
X196299335Y-95140043D01*
X196108486Y-95082150D01*
X195959745Y-95067500D01*
X194760263Y-95067500D01*
X194760240Y-95067502D01*
X194611522Y-95082148D01*
X194611511Y-95082150D01*
X194420662Y-95140044D01*
X194420651Y-95140049D01*
X194244769Y-95234059D01*
X194090590Y-95360590D01*
X193964059Y-95514769D01*
X193870049Y-95690651D01*
X193870043Y-95690664D01*
X193812150Y-95881513D01*
X193797500Y-96030248D01*
X193797500Y-98029736D01*
X193797502Y-98029759D01*
X193812148Y-98178477D01*
X193812150Y-98178488D01*
X193870044Y-98369337D01*
X193870049Y-98369348D01*
X193964059Y-98545230D01*
X193964062Y-98545234D01*
X193964064Y-98545237D01*
X194090590Y-98699410D01*
X194244763Y-98825936D01*
X194244766Y-98825937D01*
X194244769Y-98825940D01*
X194342216Y-98878026D01*
X194420658Y-98919954D01*
X194420662Y-98919955D01*
X194420664Y-98919956D01*
X194470930Y-98935204D01*
X194611515Y-98977850D01*
X194760259Y-98992500D01*
X195959740Y-98992499D01*
X196029234Y-98985655D01*
X196108477Y-98977851D01*
X196108479Y-98977850D01*
X196108485Y-98977850D01*
X196299342Y-98919954D01*
X196475237Y-98825936D01*
X196571298Y-98747100D01*
X196679732Y-98684745D01*
X196802544Y-98660975D01*
X196926421Y-98678370D01*
X197035719Y-98733421D01*
X197081065Y-98766367D01*
X197272883Y-98864103D01*
X197300208Y-98878026D01*
X197534114Y-98954026D01*
X197777029Y-98992500D01*
X197777032Y-98992500D01*
X198022972Y-98992500D01*
X198066170Y-98985658D01*
X198219018Y-98961449D01*
X198344103Y-98962482D01*
X198462077Y-99004076D01*
X198560154Y-99081722D01*
X198627705Y-99187007D01*
X198657410Y-99308520D01*
X198656496Y-99375378D01*
X198655000Y-99390026D01*
X198655000Y-99708999D01*
X198655001Y-99709000D01*
X199437500Y-99709000D01*
X199453109Y-99711604D01*
X199468880Y-99710298D01*
X199514479Y-99721845D01*
X199560886Y-99729589D01*
X199574804Y-99737121D01*
X199590144Y-99741006D01*
X199629526Y-99766736D01*
X199670901Y-99789127D01*
X199681618Y-99800769D01*
X199694867Y-99809425D01*
X199723763Y-99846551D01*
X199755623Y-99881160D01*
X199761979Y-99895650D01*
X199771700Y-99908140D01*
X199786975Y-99952636D01*
X199805872Y-99995716D01*
X199808213Y-100014501D01*
X199812317Y-100026454D01*
X199817500Y-100089000D01*
X199817500Y-100090000D01*
X199818500Y-100090000D01*
X199941886Y-100110589D01*
X200051901Y-100170127D01*
X200136623Y-100262160D01*
X200186872Y-100376716D01*
X200198500Y-100470000D01*
X200198500Y-101489998D01*
X200198501Y-101489999D01*
X200279975Y-101489999D01*
X200382697Y-101479505D01*
X200549123Y-101424356D01*
X200549126Y-101424355D01*
X200698340Y-101332319D01*
X200822321Y-101208338D01*
X200911067Y-101064458D01*
X200993365Y-100970251D01*
X201101793Y-100907870D01*
X201224601Y-100884076D01*
X201348481Y-100901447D01*
X201460008Y-100958100D01*
X201536060Y-101032739D01*
X201576900Y-101086008D01*
X201590046Y-101129342D01*
X201684064Y-101305237D01*
X201810590Y-101459410D01*
X201952425Y-101575811D01*
X201979068Y-101610561D01*
X201988153Y-101627646D01*
X202000885Y-101642214D01*
X202017346Y-101682543D01*
X202037801Y-101721008D01*
X202040846Y-101740116D01*
X202048158Y-101758029D01*
X202057500Y-101841769D01*
X202057500Y-102772141D01*
X202053502Y-102827119D01*
X202052545Y-102833662D01*
X202052543Y-102833678D01*
X202050382Y-102899113D01*
X202048053Y-102914613D01*
X202048698Y-102924430D01*
X202037309Y-102986148D01*
X202019710Y-103050958D01*
X202016112Y-103063368D01*
X201984658Y-103165353D01*
X201977439Y-103190241D01*
X201977249Y-103190942D01*
X201971016Y-103215458D01*
X201933619Y-103373371D01*
X201930863Y-103385441D01*
X201930786Y-103385790D01*
X201930785Y-103385796D01*
X201922593Y-103451833D01*
X201920806Y-103464491D01*
X201911300Y-103524517D01*
X201907500Y-103548509D01*
X201907500Y-103731491D01*
X201926159Y-103849301D01*
X201936124Y-103912218D01*
X201992668Y-104086245D01*
X202075743Y-104249286D01*
X202145761Y-104345658D01*
X202183294Y-104397318D01*
X202312682Y-104526706D01*
X202460717Y-104634259D01*
X202560773Y-104685240D01*
X202623754Y-104717331D01*
X202666432Y-104731197D01*
X202797781Y-104773876D01*
X202978509Y-104802500D01*
X202978512Y-104802500D01*
X203161488Y-104802500D01*
X203161491Y-104802500D01*
X203342219Y-104773876D01*
X203516245Y-104717331D01*
X203679283Y-104634259D01*
X203827318Y-104526706D01*
X203956706Y-104397318D01*
X204064259Y-104249283D01*
X204147331Y-104086245D01*
X204203876Y-103912219D01*
X204232500Y-103731491D01*
X204232500Y-103548509D01*
X204203888Y-103367861D01*
X204202712Y-103359435D01*
X204142662Y-103125187D01*
X204136405Y-103102262D01*
X204136204Y-103101568D01*
X204129287Y-103078990D01*
X204120513Y-103051852D01*
X204102821Y-102986938D01*
X204089663Y-102899711D01*
X204087450Y-102833395D01*
X204084761Y-102808855D01*
X204082500Y-102767463D01*
X204082500Y-101721089D01*
X204082942Y-101702773D01*
X204083731Y-101686416D01*
X204087565Y-101658052D01*
X204089654Y-101563674D01*
X204089893Y-101558731D01*
X204102113Y-101502382D01*
X204112859Y-101445738D01*
X204115341Y-101441383D01*
X204116405Y-101436481D01*
X204146269Y-101387136D01*
X204174816Y-101337068D01*
X204175587Y-101336124D01*
X204200936Y-101305237D01*
X204294954Y-101129342D01*
X204352850Y-100938485D01*
X204367500Y-100789741D01*
X204367499Y-99390260D01*
X204352850Y-99241515D01*
X204344367Y-99213552D01*
X204304377Y-99081722D01*
X204294954Y-99050658D01*
X204243303Y-98954026D01*
X204200940Y-98874769D01*
X204190568Y-98859247D01*
X204192970Y-98857641D01*
X204144858Y-98773971D01*
X204121091Y-98651158D01*
X204138489Y-98527282D01*
X204193535Y-98417996D01*
X204316370Y-98248929D01*
X204428026Y-98029792D01*
X204504026Y-97795886D01*
X204542500Y-97552971D01*
X204542500Y-96507029D01*
X204504026Y-96264114D01*
X204428026Y-96030208D01*
X204316370Y-95811071D01*
X204171809Y-95612099D01*
X203999498Y-95439788D01*
X203926813Y-95337986D01*
X203891120Y-95218094D01*
X203896290Y-95093109D01*
X203941761Y-94976575D01*
X203999501Y-94902391D01*
X205397289Y-93504602D01*
X205413971Y-93488897D01*
X205426049Y-93478193D01*
X205444290Y-93464608D01*
X205495878Y-93416316D01*
X205499751Y-93412885D01*
X205511499Y-93405523D01*
X205562867Y-93367569D01*
X205621223Y-93334138D01*
X205632453Y-93327957D01*
X205726829Y-93278075D01*
X205749069Y-93265845D01*
X205749746Y-93265458D01*
X205771887Y-93252303D01*
X205909963Y-93167103D01*
X205921370Y-93159926D01*
X205921702Y-93159713D01*
X205974423Y-93118573D01*
X205984761Y-93110787D01*
X206052318Y-93061706D01*
X206181706Y-92932318D01*
X206289259Y-92784283D01*
X206372331Y-92621245D01*
X206428876Y-92447219D01*
X206457500Y-92266491D01*
X206457500Y-92083509D01*
X206428876Y-91902781D01*
X206372331Y-91728755D01*
X206372331Y-91728754D01*
X206332975Y-91651515D01*
X206289259Y-91565717D01*
X206181706Y-91417682D01*
X206052318Y-91288294D01*
X206047458Y-91284763D01*
X205904286Y-91180743D01*
X205904285Y-91180742D01*
X205904283Y-91180741D01*
X205822992Y-91139321D01*
X205741245Y-91097668D01*
X205603074Y-91052774D01*
X205567219Y-91041124D01*
X205386491Y-91012500D01*
X205203509Y-91012500D01*
X205022781Y-91041124D01*
X204848753Y-91097669D01*
X204834962Y-91103382D01*
X204834436Y-91102114D01*
X204729850Y-91135137D01*
X204604796Y-91132028D01*
X204487528Y-91088483D01*
X204390754Y-91009220D01*
X204324959Y-90902829D01*
X204297274Y-90780839D01*
X204310699Y-90656470D01*
X204338052Y-90586375D01*
X204428026Y-90409792D01*
X204504026Y-90175886D01*
X204542500Y-89932971D01*
X204542500Y-88887029D01*
X204504026Y-88644114D01*
X204428026Y-88410208D01*
X204316370Y-88191071D01*
X204192565Y-88020667D01*
X204136699Y-87908746D01*
X204120201Y-87784747D01*
X204144859Y-87662109D01*
X204206245Y-87556248D01*
X204280936Y-87465237D01*
X204374954Y-87289342D01*
X204432850Y-87098485D01*
X204447500Y-86949741D01*
X204447499Y-85550260D01*
X204437576Y-85449498D01*
X204432851Y-85401522D01*
X204432849Y-85401511D01*
X204396254Y-85280874D01*
X204374954Y-85210658D01*
X204313230Y-85095180D01*
X204280940Y-85034769D01*
X204280937Y-85034766D01*
X204280936Y-85034763D01*
X204154410Y-84880590D01*
X204000237Y-84754064D01*
X204000234Y-84754062D01*
X204000230Y-84754059D01*
X203824348Y-84660049D01*
X203824335Y-84660043D01*
X203633486Y-84602150D01*
X203484745Y-84587500D01*
X202560263Y-84587500D01*
X202560240Y-84587502D01*
X202411522Y-84602148D01*
X202411511Y-84602150D01*
X202220662Y-84660044D01*
X202220651Y-84660049D01*
X202044769Y-84754059D01*
X201890590Y-84880590D01*
X201764059Y-85034769D01*
X201670046Y-85210655D01*
X201665563Y-85221480D01*
X201599321Y-85327593D01*
X201502213Y-85406447D01*
X201384762Y-85449498D01*
X201259697Y-85452081D01*
X201140570Y-85413914D01*
X201040290Y-85339136D01*
X200991067Y-85275542D01*
X200902319Y-85131659D01*
X200778340Y-85007680D01*
X200629126Y-84915644D01*
X200462695Y-84860494D01*
X200359970Y-84850000D01*
X200278501Y-84850000D01*
X200278500Y-84850001D01*
X200278500Y-85870000D01*
X200275895Y-85885609D01*
X200277202Y-85901380D01*
X200265654Y-85946979D01*
X200257911Y-85993386D01*
X200250378Y-86007304D01*
X200246494Y-86022644D01*
X200220763Y-86062026D01*
X200198373Y-86103401D01*
X200186730Y-86114118D01*
X200178075Y-86127367D01*
X200140948Y-86156263D01*
X200106340Y-86188123D01*
X200091849Y-86194479D01*
X200079360Y-86204200D01*
X200034863Y-86219475D01*
X199991784Y-86238372D01*
X199972998Y-86240713D01*
X199961046Y-86244817D01*
X199898500Y-86250000D01*
X199897500Y-86250000D01*
X199897500Y-86251000D01*
X199876911Y-86374386D01*
X199817373Y-86484401D01*
X199725340Y-86569123D01*
X199610784Y-86619372D01*
X199517500Y-86631000D01*
X198735002Y-86631000D01*
X198735001Y-86631001D01*
X198735001Y-86949975D01*
X198747603Y-87073335D01*
X198744509Y-87073651D01*
X198748717Y-87166172D01*
X198713516Y-87286209D01*
X198641246Y-87388312D01*
X198539740Y-87461417D01*
X198419996Y-87497603D01*
X198294991Y-87492946D01*
X198280482Y-87489111D01*
X198280399Y-87489459D01*
X198265891Y-87485975D01*
X198265886Y-87485974D01*
X198022971Y-87447500D01*
X197777029Y-87447500D01*
X197534114Y-87485974D01*
X197534112Y-87485974D01*
X197300208Y-87561973D01*
X197300202Y-87561976D01*
X197081069Y-87673631D01*
X196882089Y-87818197D01*
X196876783Y-87822730D01*
X196871373Y-87825983D01*
X196870020Y-87826967D01*
X196869934Y-87826849D01*
X196769587Y-87887204D01*
X196647264Y-87913378D01*
X196523070Y-87898415D01*
X196410464Y-87843937D01*
X196383217Y-87822730D01*
X196377910Y-87818197D01*
X196178930Y-87673631D01*
X196178931Y-87673631D01*
X196178929Y-87673630D01*
X196007627Y-87586347D01*
X195959797Y-87561976D01*
X195959791Y-87561973D01*
X195801885Y-87510667D01*
X195725886Y-87485974D01*
X195482971Y-87447500D01*
X195237029Y-87447500D01*
X194994114Y-87485974D01*
X194994112Y-87485974D01*
X194760208Y-87561973D01*
X194760202Y-87561976D01*
X194541069Y-87673631D01*
X194342102Y-87818188D01*
X194168188Y-87992102D01*
X194023631Y-88191069D01*
X193911976Y-88410202D01*
X193911973Y-88410208D01*
X193835974Y-88644112D01*
X193835974Y-88644114D01*
X193797500Y-88887029D01*
X193797500Y-89932971D01*
X193800579Y-89952408D01*
X193835974Y-90175884D01*
X193835974Y-90175887D01*
X193911973Y-90409791D01*
X193911976Y-90409797D01*
X193970877Y-90525396D01*
X194023630Y-90628929D01*
X194036529Y-90646683D01*
X194043391Y-90656128D01*
X194099258Y-90768052D01*
X194115756Y-90892051D01*
X194091098Y-91014688D01*
X194027956Y-91122675D01*
X193935455Y-91202910D01*
X193846660Y-91257679D01*
X193722680Y-91381659D01*
X193630644Y-91530873D01*
X193630644Y-91530874D01*
X193575494Y-91697304D01*
X193565000Y-91800030D01*
X176098700Y-91800030D01*
X175889552Y-91590882D01*
X175880317Y-91577948D01*
X175868194Y-91567673D01*
X175844161Y-91527308D01*
X175816864Y-91489076D01*
X175812329Y-91473843D01*
X175804200Y-91460190D01*
X175794576Y-91414213D01*
X175781171Y-91369185D01*
X175781827Y-91353305D01*
X175778572Y-91337751D01*
X175784399Y-91291134D01*
X175786341Y-91244200D01*
X175792117Y-91229395D01*
X175794089Y-91213626D01*
X175814735Y-91171431D01*
X175831813Y-91127665D01*
X175843487Y-91112670D01*
X175849069Y-91101264D01*
X175889647Y-91053386D01*
X175890259Y-91052774D01*
X175890258Y-91052773D01*
X176429075Y-91052773D01*
X176981679Y-91605377D01*
X177207230Y-91379826D01*
X177207235Y-91379820D01*
X177272443Y-91299773D01*
X177351128Y-91143095D01*
X177351129Y-91143094D01*
X177391560Y-90972505D01*
X177391562Y-90972496D01*
X177391562Y-90797177D01*
X177391560Y-90797168D01*
X177351129Y-90626579D01*
X177351127Y-90626574D01*
X177272444Y-90469903D01*
X177207232Y-90389849D01*
X177149616Y-90332233D01*
X176429075Y-91052773D01*
X175890258Y-91052773D01*
X175889552Y-91052067D01*
X175816864Y-90950261D01*
X175781171Y-90830369D01*
X175786341Y-90705384D01*
X175831812Y-90588850D01*
X175889552Y-90514665D01*
X176610799Y-89793418D01*
X176553187Y-89735806D01*
X176553173Y-89735793D01*
X176473141Y-89670596D01*
X176473132Y-89670590D01*
X176316460Y-89591907D01*
X176316455Y-89591905D01*
X176145866Y-89551474D01*
X176145857Y-89551473D01*
X175970535Y-89551473D01*
X175806038Y-89590461D01*
X175681230Y-89598882D01*
X175560450Y-89566321D01*
X175456787Y-89496308D01*
X175381473Y-89396428D01*
X175342671Y-89277507D01*
X175344586Y-89152429D01*
X175367327Y-89075287D01*
X175371802Y-89064479D01*
X175371807Y-89064471D01*
X175429703Y-88873613D01*
X175449252Y-88675129D01*
X175429703Y-88476645D01*
X175371807Y-88285788D01*
X175357548Y-88259110D01*
X175277789Y-88109891D01*
X175267420Y-88094372D01*
X175268791Y-88093455D01*
X175262016Y-88081674D01*
X175240477Y-88054503D01*
X175231050Y-88027822D01*
X175216945Y-88003291D01*
X175210357Y-87969248D01*
X175198807Y-87936555D01*
X175194508Y-87887350D01*
X175193179Y-87880478D01*
X175193067Y-87874058D01*
X175193052Y-87872374D01*
X175193052Y-87211516D01*
X175191225Y-87199982D01*
X175155810Y-86976374D01*
X175082242Y-86749954D01*
X175016363Y-86620660D01*
X175016362Y-86620658D01*
X175016362Y-86620657D01*
X174967380Y-86524525D01*
X174969210Y-86523592D01*
X174929632Y-86425769D01*
X174922910Y-86300858D01*
X174957111Y-86180532D01*
X175028529Y-86077831D01*
X175129424Y-86003883D01*
X175248862Y-85966703D01*
X175373902Y-85970319D01*
X175400701Y-85976608D01*
X175448040Y-85989542D01*
X175477241Y-86006401D01*
X175659667Y-86065675D01*
X175768584Y-86077122D01*
X175798338Y-86085252D01*
X175827503Y-86098700D01*
X175858460Y-86107270D01*
X175883914Y-86124712D01*
X175911935Y-86137633D01*
X175935154Y-86159824D01*
X175961650Y-86177980D01*
X175980060Y-86202741D01*
X176002368Y-86224061D01*
X176017125Y-86252592D01*
X176036288Y-86278365D01*
X176045661Y-86307761D01*
X176059838Y-86335170D01*
X176064531Y-86366943D01*
X176074289Y-86397545D01*
X176076102Y-86412095D01*
X176084324Y-86490321D01*
X176084325Y-86490327D01*
X176084326Y-86490334D01*
X176143600Y-86672760D01*
X176239507Y-86838877D01*
X176239508Y-86838878D01*
X176291414Y-86899652D01*
X176593842Y-87202079D01*
X176593860Y-87202096D01*
X176611459Y-87217127D01*
X176654626Y-87253996D01*
X176820743Y-87349903D01*
X177003169Y-87409177D01*
X177081392Y-87417398D01*
X177115244Y-87426769D01*
X177150098Y-87431114D01*
X177175110Y-87443341D01*
X177201945Y-87450770D01*
X177230920Y-87470625D01*
X177262479Y-87486053D01*
X177300803Y-87518512D01*
X177305135Y-87521480D01*
X177310371Y-87526615D01*
X177758688Y-87974932D01*
X177831376Y-88076738D01*
X177867069Y-88196630D01*
X177867906Y-88283349D01*
X177866839Y-88293502D01*
X177866839Y-88293506D01*
X177886887Y-88484254D01*
X177886888Y-88484260D01*
X177886889Y-88484267D01*
X177946163Y-88666693D01*
X178034272Y-88819303D01*
X178042071Y-88832811D01*
X178093977Y-88893585D01*
X178396405Y-89196012D01*
X178396423Y-89196029D01*
X178396429Y-89196034D01*
X178457189Y-89247929D01*
X178623306Y-89343836D01*
X178805732Y-89403110D01*
X178878847Y-89410794D01*
X178996493Y-89423160D01*
X178996497Y-89423160D01*
X178996501Y-89423160D01*
X179105505Y-89411702D01*
X179187261Y-89403110D01*
X179369688Y-89343836D01*
X179535805Y-89247929D01*
X179596574Y-89196027D01*
X179613743Y-89178856D01*
X179709931Y-89108972D01*
X179862106Y-89031435D01*
X180010141Y-88923882D01*
X180139529Y-88794494D01*
X180247082Y-88646459D01*
X180308858Y-88525215D01*
X180383214Y-88424632D01*
X180486207Y-88353637D01*
X180606673Y-88319930D01*
X180731555Y-88327164D01*
X180837431Y-88368644D01*
X180903725Y-88406919D01*
X181086151Y-88466193D01*
X181159266Y-88473877D01*
X181276912Y-88486243D01*
X181276916Y-88486243D01*
X181276920Y-88486243D01*
X181385924Y-88474785D01*
X181467680Y-88466193D01*
X181650107Y-88406919D01*
X181816224Y-88311012D01*
X181876993Y-88259110D01*
X182692092Y-87444010D01*
X182743995Y-87383241D01*
X182753239Y-87367231D01*
X182812969Y-87263774D01*
X182839902Y-87217124D01*
X182899176Y-87034697D01*
X182913370Y-86899652D01*
X182919226Y-86843937D01*
X182919226Y-86843928D01*
X182899177Y-86653180D01*
X182899176Y-86653168D01*
X182839902Y-86470742D01*
X182743995Y-86304625D01*
X182692093Y-86243856D01*
X182692092Y-86243855D01*
X182692087Y-86243849D01*
X182389659Y-85941422D01*
X182389641Y-85941405D01*
X182328875Y-85889505D01*
X182196773Y-85813237D01*
X182162759Y-85793599D01*
X181980333Y-85734325D01*
X181980326Y-85734324D01*
X181980320Y-85734323D01*
X181902094Y-85726101D01*
X181781536Y-85692727D01*
X181678347Y-85622016D01*
X181624824Y-85550030D01*
X198735000Y-85550030D01*
X198735000Y-85868999D01*
X198735001Y-85869000D01*
X199516500Y-85869000D01*
X199516500Y-84849999D01*
X199435024Y-84850000D01*
X199332302Y-84860494D01*
X199165876Y-84915643D01*
X199165873Y-84915644D01*
X199016659Y-85007680D01*
X198892680Y-85131659D01*
X198800644Y-85280873D01*
X198800644Y-85280874D01*
X198745494Y-85447304D01*
X198735000Y-85550030D01*
X181624824Y-85550030D01*
X181603709Y-85521631D01*
X181565710Y-85402450D01*
X181563900Y-85387938D01*
X181555674Y-85309666D01*
X181496400Y-85127240D01*
X181400493Y-84961123D01*
X181348591Y-84900354D01*
X181348590Y-84900353D01*
X181348585Y-84900347D01*
X181046157Y-84597920D01*
X181046139Y-84597903D01*
X180985373Y-84546003D01*
X180915163Y-84505467D01*
X180819257Y-84450097D01*
X180636831Y-84390823D01*
X180636824Y-84390822D01*
X180636818Y-84390821D01*
X180446070Y-84370773D01*
X180446066Y-84370773D01*
X180435913Y-84371840D01*
X180423786Y-84371103D01*
X180411900Y-84373596D01*
X180361631Y-84367329D01*
X180311051Y-84364259D01*
X180299820Y-84359625D01*
X180287769Y-84358123D01*
X180242251Y-84335871D01*
X180195416Y-84316546D01*
X180183710Y-84307252D01*
X180175388Y-84303184D01*
X180127496Y-84262622D01*
X179863111Y-83998237D01*
X179790423Y-83896431D01*
X179754730Y-83776539D01*
X179753894Y-83689815D01*
X179773161Y-83506500D01*
X179773161Y-83506493D01*
X179756450Y-83347500D01*
X179753111Y-83315733D01*
X179693837Y-83133307D01*
X179597930Y-82967190D01*
X179546028Y-82906421D01*
X179546027Y-82906420D01*
X179546022Y-82906414D01*
X179243594Y-82603987D01*
X179243576Y-82603970D01*
X179189112Y-82557453D01*
X179182811Y-82552071D01*
X179182808Y-82552069D01*
X179039582Y-82469378D01*
X179022468Y-82456246D01*
X179008772Y-82449551D01*
X178960880Y-82408989D01*
X178423799Y-81871908D01*
X178351111Y-81770102D01*
X178315418Y-81650210D01*
X178312500Y-81603207D01*
X178312500Y-80884016D01*
X178314214Y-80854735D01*
X178314383Y-80845735D01*
X178314385Y-80845724D01*
X178313695Y-80837043D01*
X178312500Y-80806931D01*
X178312500Y-80222312D01*
X178312500Y-80222309D01*
X178297658Y-80147698D01*
X178293780Y-80022675D01*
X178306309Y-79965147D01*
X178306617Y-79963602D01*
X178306616Y-79963602D01*
X178306618Y-79963599D01*
X178326168Y-79765115D01*
X178306618Y-79566631D01*
X178254627Y-79395237D01*
X178248723Y-79375773D01*
X178244245Y-79364963D01*
X178216048Y-79243091D01*
X178228950Y-79118666D01*
X178281554Y-79005172D01*
X178368159Y-78914909D01*
X178479380Y-78857656D01*
X178603165Y-78839619D01*
X178682952Y-78849781D01*
X178847454Y-78888769D01*
X179022777Y-78888769D01*
X179193374Y-78848336D01*
X179257394Y-78816184D01*
X179376896Y-78779207D01*
X179501929Y-78783035D01*
X179618944Y-78827255D01*
X179715262Y-78907073D01*
X179780444Y-79013841D01*
X179807426Y-79135988D01*
X179800640Y-79229893D01*
X179780421Y-79331542D01*
X179780418Y-79331566D01*
X179742500Y-79716550D01*
X179742500Y-80103449D01*
X179780418Y-80488433D01*
X179780419Y-80488443D01*
X179855892Y-80867877D01*
X179855894Y-80867885D01*
X179855895Y-80867888D01*
X179875246Y-80931678D01*
X179968198Y-81238103D01*
X180116251Y-81595534D01*
X180116253Y-81595537D01*
X180298620Y-81936722D01*
X180513551Y-82258388D01*
X180513557Y-82258397D01*
X180615341Y-82382421D01*
X180758986Y-82557453D01*
X181032547Y-82831014D01*
X181124431Y-82906421D01*
X181331602Y-83076442D01*
X181331611Y-83076448D01*
X181653277Y-83291379D01*
X181653279Y-83291380D01*
X181994471Y-83473751D01*
X182351896Y-83621801D01*
X182722112Y-83734105D01*
X183101552Y-83809580D01*
X183322815Y-83831372D01*
X183486550Y-83847499D01*
X183486560Y-83847499D01*
X183486563Y-83847500D01*
X183486564Y-83847500D01*
X183873436Y-83847500D01*
X183873437Y-83847500D01*
X183873440Y-83847499D01*
X183873449Y-83847499D01*
X183979667Y-83837037D01*
X184258448Y-83809580D01*
X184637888Y-83734105D01*
X185008104Y-83621801D01*
X185365529Y-83473751D01*
X185706721Y-83291380D01*
X186028395Y-83076444D01*
X186327453Y-82831014D01*
X186601014Y-82557453D01*
X186846444Y-82258395D01*
X187061380Y-81936721D01*
X187243751Y-81595529D01*
X187391801Y-81238104D01*
X187504105Y-80867888D01*
X187579580Y-80488448D01*
X187617500Y-80103437D01*
X187617500Y-79716563D01*
X187613924Y-79680260D01*
X187591871Y-79456350D01*
X187579580Y-79331552D01*
X187504105Y-78952112D01*
X187391801Y-78581896D01*
X187243751Y-78224471D01*
X187061380Y-77883279D01*
X187019767Y-77821001D01*
X195040001Y-77821001D01*
X195040001Y-78114975D01*
X195050494Y-78217697D01*
X195105643Y-78384123D01*
X195105644Y-78384126D01*
X195197680Y-78533340D01*
X195321659Y-78657319D01*
X195470873Y-78749355D01*
X195637308Y-78804507D01*
X195740013Y-78814999D01*
X195809000Y-78814999D01*
X195809000Y-77821001D01*
X195808999Y-77821000D01*
X195040002Y-77821000D01*
X195040001Y-77821001D01*
X187019767Y-77821001D01*
X186846444Y-77561605D01*
X186821458Y-77531160D01*
X186698623Y-77381484D01*
X186601014Y-77262547D01*
X186327453Y-76988986D01*
X186148763Y-76842339D01*
X186054562Y-76765030D01*
X195040000Y-76765030D01*
X195040000Y-77058999D01*
X195040001Y-77059000D01*
X195808999Y-77059000D01*
X195809000Y-77058999D01*
X195809000Y-76065001D01*
X196571000Y-76065001D01*
X196571000Y-78814998D01*
X196571001Y-78814999D01*
X196639975Y-78814999D01*
X196742697Y-78804505D01*
X196909123Y-78749356D01*
X196909126Y-78749355D01*
X197058340Y-78657319D01*
X197182321Y-78533338D01*
X197271067Y-78389458D01*
X197353365Y-78295251D01*
X197461793Y-78232870D01*
X197584601Y-78209076D01*
X197708481Y-78226447D01*
X197820008Y-78283100D01*
X197907097Y-78372897D01*
X197945565Y-78443524D01*
X197950047Y-78454345D01*
X198044059Y-78630230D01*
X198044062Y-78630234D01*
X198044064Y-78630237D01*
X198170590Y-78784410D01*
X198324763Y-78910936D01*
X198324766Y-78910937D01*
X198324769Y-78910940D01*
X198401816Y-78952122D01*
X198500658Y-79004954D01*
X198500662Y-79004955D01*
X198500664Y-79004956D01*
X198560565Y-79023126D01*
X198691515Y-79062850D01*
X198840259Y-79077500D01*
X199451466Y-79077499D01*
X199574851Y-79098088D01*
X199684866Y-79157625D01*
X199769589Y-79249658D01*
X199786596Y-79278368D01*
X199832120Y-79363538D01*
X199849064Y-79395237D01*
X199975590Y-79549410D01*
X200129763Y-79675936D01*
X200129766Y-79675937D01*
X200129769Y-79675940D01*
X200261113Y-79746144D01*
X200305658Y-79769954D01*
X200305662Y-79769955D01*
X200305664Y-79769956D01*
X200365565Y-79788126D01*
X200496515Y-79827850D01*
X200645259Y-79842500D01*
X204344740Y-79842499D01*
X204417605Y-79835323D01*
X204493477Y-79827851D01*
X204493479Y-79827850D01*
X204493485Y-79827850D01*
X204684342Y-79769954D01*
X204816998Y-79699047D01*
X204860230Y-79675940D01*
X204860230Y-79675939D01*
X204860237Y-79675936D01*
X205014410Y-79549410D01*
X205140936Y-79395237D01*
X205157880Y-79363538D01*
X205174982Y-79331542D01*
X205234954Y-79219342D01*
X205292850Y-79028485D01*
X205307500Y-78879741D01*
X205307499Y-76120260D01*
X205298530Y-76029185D01*
X205292851Y-75971522D01*
X205292849Y-75971511D01*
X205263586Y-75875044D01*
X205234954Y-75780658D01*
X205192245Y-75700755D01*
X205140940Y-75604769D01*
X205140937Y-75604766D01*
X205140936Y-75604763D01*
X205014410Y-75450590D01*
X204860237Y-75324064D01*
X204860234Y-75324062D01*
X204860230Y-75324059D01*
X204799666Y-75291687D01*
X204700555Y-75215365D01*
X204631597Y-75110997D01*
X204600263Y-74989893D01*
X204609949Y-74865176D01*
X204659606Y-74750363D01*
X204677329Y-74725222D01*
X204698167Y-74698066D01*
X204698173Y-74698056D01*
X204834498Y-74461933D01*
X204834500Y-74461930D01*
X204938839Y-74210033D01*
X205009410Y-73946661D01*
X205009410Y-73946660D01*
X205012789Y-73921000D01*
X203257218Y-73921000D01*
X203312335Y-73787936D01*
X203345000Y-73623718D01*
X203345000Y-73456282D01*
X203312335Y-73292064D01*
X203257218Y-73159000D01*
X205012789Y-73159000D01*
X205009410Y-73133339D01*
X205009410Y-73133338D01*
X204938839Y-72869966D01*
X204834500Y-72618069D01*
X204834498Y-72618066D01*
X204698173Y-72381943D01*
X204698167Y-72381934D01*
X204532184Y-72165621D01*
X204339378Y-71972815D01*
X204123065Y-71806832D01*
X204123056Y-71806826D01*
X203886933Y-71670501D01*
X203886930Y-71670499D01*
X203635032Y-71566159D01*
X203371656Y-71495589D01*
X203101337Y-71460000D01*
X202876001Y-71460000D01*
X202876000Y-71460001D01*
X202876000Y-72777782D01*
X202742936Y-72722665D01*
X202578718Y-72690000D01*
X202411282Y-72690000D01*
X202247064Y-72722665D01*
X202114000Y-72777782D01*
X202114000Y-71460001D01*
X202113999Y-71460000D01*
X201888662Y-71460000D01*
X201618343Y-71495589D01*
X201354967Y-71566159D01*
X201103069Y-71670499D01*
X201103066Y-71670501D01*
X200866943Y-71806826D01*
X200866934Y-71806832D01*
X200650621Y-71972815D01*
X200457815Y-72165621D01*
X200291832Y-72381934D01*
X200291826Y-72381943D01*
X200155501Y-72618066D01*
X200155499Y-72618069D01*
X200051160Y-72869966D01*
X199980589Y-73133338D01*
X199980589Y-73133339D01*
X199977211Y-73159000D01*
X201732782Y-73159000D01*
X201677665Y-73292064D01*
X201645000Y-73456282D01*
X201645000Y-73623718D01*
X201677665Y-73787936D01*
X201732782Y-73921000D01*
X199977211Y-73921000D01*
X199980589Y-73946660D01*
X199980589Y-73946661D01*
X200051160Y-74210033D01*
X200155499Y-74461930D01*
X200155501Y-74461933D01*
X200291826Y-74698056D01*
X200291833Y-74698067D01*
X200312674Y-74725227D01*
X200371452Y-74835649D01*
X200391192Y-74959174D01*
X200369754Y-75082415D01*
X200309461Y-75192017D01*
X200271492Y-75233413D01*
X200234773Y-75267934D01*
X200129763Y-75324064D01*
X199975590Y-75450590D01*
X199849064Y-75604763D01*
X199821338Y-75656632D01*
X199775898Y-75699355D01*
X199775034Y-75699931D01*
X199774401Y-75700755D01*
X199723069Y-75734667D01*
X199671900Y-75768871D01*
X199670895Y-75769136D01*
X199670029Y-75769709D01*
X199610387Y-75785137D01*
X199550965Y-75800851D01*
X199549931Y-75800776D01*
X199548924Y-75801037D01*
X199515608Y-75802500D01*
X198840263Y-75802500D01*
X198840240Y-75802502D01*
X198691522Y-75817148D01*
X198691511Y-75817150D01*
X198500662Y-75875044D01*
X198500651Y-75875049D01*
X198324769Y-75969059D01*
X198170590Y-76095590D01*
X198044059Y-76249769D01*
X197950046Y-76425655D01*
X197945563Y-76436480D01*
X197879321Y-76542593D01*
X197782213Y-76621447D01*
X197664762Y-76664498D01*
X197539697Y-76667081D01*
X197420570Y-76628914D01*
X197320290Y-76554136D01*
X197271067Y-76490542D01*
X197182319Y-76346659D01*
X197058340Y-76222680D01*
X196909126Y-76130644D01*
X196742695Y-76075494D01*
X196639970Y-76065000D01*
X196571001Y-76065000D01*
X196571000Y-76065001D01*
X195809000Y-76065001D01*
X195809000Y-76065000D01*
X195740017Y-76065000D01*
X195740010Y-76065001D01*
X195637307Y-76075493D01*
X195470876Y-76130643D01*
X195470873Y-76130644D01*
X195321659Y-76222680D01*
X195197680Y-76346659D01*
X195105644Y-76495873D01*
X195105644Y-76495874D01*
X195050494Y-76662304D01*
X195040000Y-76765030D01*
X186054562Y-76765030D01*
X186028397Y-76743557D01*
X186028388Y-76743551D01*
X185706722Y-76528620D01*
X185365537Y-76346253D01*
X185365534Y-76346251D01*
X185008103Y-76198198D01*
X184741266Y-76117254D01*
X184637888Y-76085895D01*
X184637885Y-76085894D01*
X184637877Y-76085892D01*
X184258443Y-76010419D01*
X184258433Y-76010418D01*
X183873449Y-75972500D01*
X183873437Y-75972500D01*
X183486563Y-75972500D01*
X183486550Y-75972500D01*
X183101566Y-76010418D01*
X183101556Y-76010419D01*
X182722122Y-76085892D01*
X182722102Y-76085898D01*
X182351896Y-76198198D01*
X181994465Y-76346251D01*
X181994462Y-76346253D01*
X181653277Y-76528620D01*
X181331611Y-76743551D01*
X181331602Y-76743557D01*
X181032555Y-76988979D01*
X181032549Y-76988984D01*
X181032547Y-76988986D01*
X180758986Y-77262547D01*
X180758981Y-77262552D01*
X180752390Y-77269144D01*
X180751198Y-77267952D01*
X180663272Y-77337483D01*
X180545274Y-77379010D01*
X180420186Y-77379974D01*
X180301563Y-77340269D01*
X180202259Y-77264199D01*
X180140262Y-77175229D01*
X180131681Y-77158144D01*
X180066480Y-77078104D01*
X180066465Y-77078087D01*
X179858596Y-76870219D01*
X179314124Y-77414691D01*
X179301188Y-77423926D01*
X179290914Y-77436049D01*
X179250555Y-77460077D01*
X179212318Y-77487379D01*
X179197083Y-77491914D01*
X179183431Y-77500043D01*
X179137455Y-77509666D01*
X179092426Y-77523072D01*
X179076546Y-77522415D01*
X179060992Y-77525671D01*
X179014375Y-77519843D01*
X178967441Y-77517902D01*
X178952636Y-77512125D01*
X178936867Y-77510154D01*
X178894675Y-77489509D01*
X178850907Y-77472431D01*
X178835911Y-77460755D01*
X178824505Y-77455174D01*
X178776627Y-77414596D01*
X178776015Y-77413984D01*
X178775404Y-77414596D01*
X178673623Y-77487320D01*
X178553744Y-77523055D01*
X178428758Y-77517930D01*
X178312207Y-77472499D01*
X178237908Y-77414691D01*
X177534336Y-76711119D01*
X177534336Y-76711120D01*
X177485571Y-76759884D01*
X177485555Y-76759903D01*
X177420348Y-76839948D01*
X177341663Y-76996623D01*
X177301230Y-77167226D01*
X177298661Y-77189206D01*
X177295167Y-77188797D01*
X177280642Y-77275844D01*
X177221104Y-77385859D01*
X177129071Y-77470581D01*
X177014515Y-77520830D01*
X176889851Y-77531160D01*
X176768587Y-77500452D01*
X176663864Y-77432033D01*
X176587031Y-77333318D01*
X176554179Y-77250810D01*
X176549264Y-77232466D01*
X176507234Y-77075609D01*
X176507230Y-77075599D01*
X176507229Y-77075595D01*
X176403774Y-76825833D01*
X176403771Y-76825827D01*
X176403769Y-76825822D01*
X176268585Y-76591678D01*
X176222366Y-76531445D01*
X176108077Y-76382501D01*
X176103996Y-76377182D01*
X176102678Y-76375864D01*
X176101969Y-76374872D01*
X176095795Y-76367831D01*
X176096500Y-76367212D01*
X176029993Y-76274062D01*
X175999699Y-76172304D01*
X178073153Y-76172304D01*
X178776015Y-76875166D01*
X179319779Y-76331403D01*
X179111900Y-76123524D01*
X179031853Y-76058316D01*
X178875178Y-75979631D01*
X178704579Y-75939199D01*
X178529255Y-75939199D01*
X178358656Y-75979631D01*
X178201978Y-76058318D01*
X178121938Y-76123519D01*
X178073153Y-76172304D01*
X175999699Y-76172304D01*
X175994300Y-76154170D01*
X175999470Y-76029185D01*
X176044941Y-75912651D01*
X176125788Y-75817195D01*
X176233249Y-75753162D01*
X176355679Y-75727492D01*
X176371382Y-75727167D01*
X176400867Y-75727167D01*
X176400868Y-75727167D01*
X176574310Y-75686060D01*
X176733597Y-75606064D01*
X176814984Y-75539765D01*
X179361714Y-72993033D01*
X179428015Y-72911646D01*
X179508011Y-72752359D01*
X179549118Y-72578917D01*
X179549118Y-72400669D01*
X179547938Y-72395694D01*
X179547122Y-72383589D01*
X179546549Y-72378686D01*
X179546789Y-72378657D01*
X179539517Y-72270887D01*
X179572077Y-72150107D01*
X179642090Y-72046443D01*
X179741969Y-71971129D01*
X179860891Y-71932327D01*
X179863621Y-71931924D01*
X179989592Y-71913813D01*
X179989593Y-71913813D01*
X180120380Y-71854085D01*
X180167011Y-71816506D01*
X181168860Y-70814657D01*
X181168860Y-70814656D01*
X180178911Y-69824707D01*
X180178911Y-69824708D01*
X180020803Y-69666600D01*
X180020800Y-69666596D01*
X179909504Y-69555300D01*
X180987134Y-69555300D01*
X181707675Y-70275841D01*
X182709525Y-69273992D01*
X182747104Y-69227361D01*
X182806832Y-69096574D01*
X182806832Y-69096573D01*
X182827292Y-68954259D01*
X182806832Y-68811944D01*
X182806832Y-68811943D01*
X182747104Y-68681156D01*
X182709529Y-68634530D01*
X182308717Y-68233718D01*
X180987134Y-69555300D01*
X179909504Y-69555300D01*
X179188961Y-68834758D01*
X178187113Y-69836606D01*
X178172587Y-69854632D01*
X178079133Y-69937784D01*
X177963743Y-69986086D01*
X177838921Y-69994305D01*
X177718195Y-69961548D01*
X177614645Y-69891366D01*
X177539494Y-69791365D01*
X177500886Y-69672380D01*
X177496708Y-69616188D01*
X177496708Y-69448491D01*
X177496706Y-69448482D01*
X177456275Y-69277893D01*
X177456273Y-69277888D01*
X177377589Y-69121214D01*
X177312383Y-69041167D01*
X177312373Y-69041156D01*
X177086825Y-68815609D01*
X176533514Y-69368920D01*
X176520633Y-69378116D01*
X176510407Y-69390191D01*
X176469997Y-69414270D01*
X176431708Y-69441608D01*
X176416540Y-69446123D01*
X176402946Y-69454224D01*
X176356906Y-69463877D01*
X176311816Y-69477301D01*
X176296002Y-69476646D01*
X176280516Y-69479894D01*
X176233836Y-69474075D01*
X176186831Y-69472131D01*
X176172088Y-69466378D01*
X176156385Y-69464421D01*
X176114123Y-69443760D01*
X176070297Y-69426660D01*
X176055357Y-69415032D01*
X176044004Y-69409482D01*
X175996112Y-69368920D01*
X175995405Y-69368213D01*
X175994699Y-69368920D01*
X175892893Y-69441608D01*
X175773001Y-69477301D01*
X175648016Y-69472131D01*
X175531482Y-69426660D01*
X175457298Y-69368920D01*
X174736049Y-68647671D01*
X174678446Y-68705274D01*
X174678433Y-68705289D01*
X174613223Y-68785337D01*
X174613221Y-68785340D01*
X174534538Y-68942012D01*
X174534536Y-68942017D01*
X174494105Y-69112606D01*
X174494104Y-69112615D01*
X174494104Y-69287934D01*
X174494105Y-69287943D01*
X174533091Y-69452433D01*
X174541513Y-69577242D01*
X174508952Y-69698022D01*
X174438939Y-69801685D01*
X174339060Y-69876998D01*
X174220138Y-69915801D01*
X174095061Y-69913886D01*
X174017929Y-69891150D01*
X174007104Y-69886666D01*
X173816245Y-69828770D01*
X173617761Y-69809221D01*
X173617759Y-69809221D01*
X173419275Y-69828770D01*
X173228415Y-69886667D01*
X173052525Y-69980682D01*
X172936990Y-70075499D01*
X172936983Y-70075505D01*
X172283287Y-70729203D01*
X172283274Y-70729217D01*
X172188460Y-70844747D01*
X172094442Y-71020642D01*
X172036547Y-71211498D01*
X172021138Y-71367954D01*
X172016998Y-71409983D01*
X172036547Y-71608467D01*
X172046112Y-71639999D01*
X172054855Y-71668821D01*
X172062665Y-71728948D01*
X172071088Y-71789041D01*
X172070718Y-71790948D01*
X172070968Y-71792871D01*
X172058829Y-71852287D01*
X172047286Y-71911847D01*
X172046318Y-71913527D01*
X172045930Y-71915431D01*
X172015148Y-71967699D01*
X171984899Y-72020272D01*
X171983090Y-72022136D01*
X171982452Y-72023221D01*
X171941203Y-72065321D01*
X171780435Y-72205749D01*
X171758819Y-72223277D01*
X171690301Y-72274796D01*
X171666434Y-72291353D01*
X171637650Y-72309732D01*
X171522575Y-72358780D01*
X171482752Y-72366201D01*
X171356769Y-72382788D01*
X171182660Y-72429440D01*
X171095609Y-72452766D01*
X171095607Y-72452766D01*
X171095606Y-72452767D01*
X171095595Y-72452770D01*
X170845833Y-72556225D01*
X170845827Y-72556228D01*
X170611675Y-72691416D01*
X170397185Y-72856001D01*
X170205999Y-73047187D01*
X170205999Y-73047188D01*
X170115535Y-73165081D01*
X170024087Y-73250435D01*
X169909880Y-73301470D01*
X169785289Y-73312658D01*
X169663817Y-73282785D01*
X169558626Y-73215088D01*
X169481115Y-73116904D01*
X169447012Y-73032103D01*
X169437234Y-72995609D01*
X169437230Y-72995601D01*
X169437229Y-72995595D01*
X169333774Y-72745833D01*
X169333771Y-72745827D01*
X169333769Y-72745822D01*
X169198585Y-72511678D01*
X169095751Y-72377663D01*
X169033996Y-72297182D01*
X169033993Y-72297179D01*
X168842819Y-72106004D01*
X168833465Y-72097801D01*
X168833972Y-72097222D01*
X168809709Y-72075670D01*
X168809312Y-72075263D01*
X168751680Y-72015835D01*
X168749764Y-72013866D01*
X168576335Y-71836309D01*
X168576260Y-71836202D01*
X168553331Y-71810458D01*
X168533704Y-71786267D01*
X168471957Y-71677483D01*
X168448876Y-71554539D01*
X168466965Y-71430762D01*
X168524265Y-71319565D01*
X168535030Y-71305813D01*
X168647936Y-71168237D01*
X168654658Y-71155662D01*
X168691357Y-71087002D01*
X168741954Y-70992342D01*
X168799850Y-70801485D01*
X168814500Y-70652741D01*
X168814499Y-69303260D01*
X168799850Y-69154515D01*
X168782273Y-69096573D01*
X168752721Y-68999151D01*
X168741954Y-68963658D01*
X168690320Y-68867057D01*
X168647940Y-68787769D01*
X168647937Y-68787766D01*
X168647936Y-68787763D01*
X168521410Y-68633590D01*
X168367237Y-68507064D01*
X168367234Y-68507062D01*
X168367230Y-68507059D01*
X168191348Y-68413049D01*
X168191335Y-68413043D01*
X168000486Y-68355150D01*
X167851745Y-68340500D01*
X166952263Y-68340500D01*
X166952240Y-68340502D01*
X166803522Y-68355148D01*
X166803511Y-68355150D01*
X166612662Y-68413044D01*
X166612651Y-68413049D01*
X166436769Y-68507059D01*
X166335094Y-68590501D01*
X166282590Y-68633590D01*
X166156064Y-68787763D01*
X166156062Y-68787766D01*
X166145745Y-68800338D01*
X166051554Y-68882655D01*
X165935738Y-68929928D01*
X165810848Y-68937034D01*
X165690418Y-68903204D01*
X165587497Y-68832103D01*
X165558255Y-68800338D01*
X165547937Y-68787766D01*
X165547936Y-68787763D01*
X165421410Y-68633590D01*
X165267237Y-68507064D01*
X165267234Y-68507062D01*
X165267230Y-68507059D01*
X165091348Y-68413049D01*
X165091335Y-68413043D01*
X164900486Y-68355150D01*
X164751745Y-68340500D01*
X163852263Y-68340500D01*
X163852240Y-68340502D01*
X163703522Y-68355148D01*
X163703511Y-68355150D01*
X163512662Y-68413044D01*
X163512651Y-68413049D01*
X163336769Y-68507059D01*
X163235094Y-68590501D01*
X163182590Y-68633590D01*
X163056064Y-68787763D01*
X163056062Y-68787766D01*
X163044222Y-68802194D01*
X163042740Y-68800978D01*
X162972607Y-68875593D01*
X162861980Y-68933985D01*
X162738387Y-68953292D01*
X162615221Y-68931422D01*
X162505830Y-68870745D01*
X162501265Y-68867057D01*
X162367236Y-68757063D01*
X162367230Y-68757059D01*
X162191348Y-68663049D01*
X162191335Y-68663043D01*
X162000486Y-68605150D01*
X161851745Y-68590500D01*
X160452263Y-68590500D01*
X160452240Y-68590502D01*
X160303522Y-68605148D01*
X160303511Y-68605150D01*
X160112662Y-68663044D01*
X160112651Y-68663049D01*
X159936769Y-68757059D01*
X159782590Y-68883590D01*
X159656059Y-69037769D01*
X159562049Y-69213651D01*
X159562043Y-69213664D01*
X159504150Y-69404513D01*
X159489500Y-69553248D01*
X159489500Y-70477736D01*
X159489502Y-70477759D01*
X159504148Y-70626477D01*
X159504150Y-70626488D01*
X159562044Y-70817337D01*
X159562049Y-70817348D01*
X159656059Y-70993230D01*
X159656062Y-70993234D01*
X159656064Y-70993237D01*
X159782590Y-71147410D01*
X159936763Y-71273936D01*
X159936766Y-71273937D01*
X159949338Y-71284255D01*
X160031655Y-71378446D01*
X160078928Y-71494262D01*
X160086034Y-71619152D01*
X160052204Y-71739582D01*
X159981103Y-71842503D01*
X159949338Y-71871745D01*
X159936766Y-71882062D01*
X159936763Y-71882064D01*
X159832416Y-71967699D01*
X159782590Y-72008590D01*
X159656059Y-72162769D01*
X159562049Y-72338651D01*
X159562043Y-72338664D01*
X159504150Y-72529513D01*
X159489500Y-72678248D01*
X159489500Y-73602736D01*
X159489502Y-73602759D01*
X159504148Y-73751477D01*
X159504150Y-73751488D01*
X159562044Y-73942337D01*
X159562049Y-73942348D01*
X159656059Y-74118230D01*
X159656062Y-74118234D01*
X159656064Y-74118237D01*
X159782590Y-74272410D01*
X159936763Y-74398936D01*
X159936766Y-74398937D01*
X159936769Y-74398940D01*
X160052147Y-74460610D01*
X160112658Y-74492954D01*
X160112662Y-74492955D01*
X160112664Y-74492956D01*
X160123500Y-74496243D01*
X160303515Y-74550850D01*
X160452259Y-74565500D01*
X160770287Y-74565499D01*
X160808390Y-74567414D01*
X160816255Y-74568206D01*
X160816257Y-74568207D01*
X160879789Y-74574610D01*
X160947091Y-74587607D01*
X160968205Y-74593704D01*
X161021891Y-74613702D01*
X161104010Y-74651566D01*
X161146210Y-74674357D01*
X161175971Y-74692947D01*
X161275967Y-74755408D01*
X161310053Y-74779396D01*
X161463450Y-74900447D01*
X161473178Y-74910063D01*
X161480210Y-74914474D01*
X161523561Y-74959857D01*
X161545942Y-74987543D01*
X161564033Y-75011842D01*
X161574293Y-75026836D01*
X161613445Y-75100148D01*
X161622367Y-75122425D01*
X161641767Y-75186915D01*
X161646149Y-75208152D01*
X161653377Y-75263382D01*
X161660204Y-75383508D01*
X161660800Y-75408552D01*
X161659579Y-75541753D01*
X161659595Y-75557475D01*
X161660549Y-75642290D01*
X161658148Y-75682390D01*
X161658313Y-75682401D01*
X161657500Y-75694811D01*
X161657500Y-75965190D01*
X161693163Y-76236071D01*
X161688855Y-76361089D01*
X161644187Y-76477934D01*
X161564000Y-76573944D01*
X161456983Y-76638716D01*
X161334733Y-76665229D01*
X161279166Y-76663841D01*
X161156917Y-76651800D01*
X160958433Y-76671350D01*
X160958431Y-76671350D01*
X160958428Y-76671351D01*
X160767573Y-76729245D01*
X160591681Y-76823262D01*
X160591680Y-76823263D01*
X160476141Y-76918084D01*
X160476134Y-76918090D01*
X159840124Y-77554101D01*
X159840115Y-77554111D01*
X159745296Y-77669647D01*
X159651276Y-77845545D01*
X159593383Y-78036396D01*
X159593382Y-78036399D01*
X159593382Y-78036401D01*
X159580922Y-78162903D01*
X159573832Y-78234885D01*
X159594976Y-78449558D01*
X159586580Y-78574368D01*
X159538113Y-78689689D01*
X159454828Y-78783025D01*
X159345749Y-78844260D01*
X159222697Y-78866760D01*
X159179558Y-78864976D01*
X158964886Y-78843832D01*
X158964885Y-78843832D01*
X158766401Y-78863382D01*
X158766399Y-78863382D01*
X158766396Y-78863383D01*
X158575541Y-78921277D01*
X158399649Y-79015294D01*
X158399648Y-79015295D01*
X158284111Y-79110114D01*
X157995616Y-79398610D01*
X157893810Y-79471298D01*
X157773918Y-79506991D01*
X157648933Y-79501821D01*
X157532399Y-79456350D01*
X157436943Y-79375503D01*
X157372910Y-79268042D01*
X157354218Y-79204050D01*
X157304105Y-78952112D01*
X157191801Y-78581896D01*
X157043751Y-78224471D01*
X156861380Y-77883279D01*
X156855658Y-77874716D01*
X156646448Y-77561611D01*
X156646442Y-77561602D01*
X156498623Y-77381484D01*
X156401014Y-77262547D01*
X156127453Y-76988986D01*
X155948763Y-76842339D01*
X155828397Y-76743557D01*
X155828388Y-76743551D01*
X155506722Y-76528620D01*
X155165537Y-76346253D01*
X155165534Y-76346251D01*
X154808103Y-76198198D01*
X154541266Y-76117254D01*
X154437888Y-76085895D01*
X154437885Y-76085894D01*
X154437877Y-76085892D01*
X154058443Y-76010419D01*
X154058433Y-76010418D01*
X153673449Y-75972500D01*
X153673437Y-75972500D01*
X153286563Y-75972500D01*
X153286550Y-75972500D01*
X152901566Y-76010418D01*
X152901556Y-76010419D01*
X152522122Y-76085892D01*
X152522102Y-76085898D01*
X152151896Y-76198198D01*
X151794465Y-76346251D01*
X151794462Y-76346253D01*
X151453277Y-76528620D01*
X151131611Y-76743551D01*
X151131602Y-76743557D01*
X150832555Y-76988979D01*
X150832549Y-76988984D01*
X150558984Y-77262549D01*
X150558979Y-77262555D01*
X150313557Y-77561602D01*
X150313551Y-77561611D01*
X150098620Y-77883277D01*
X149916253Y-78224462D01*
X149916251Y-78224465D01*
X149768198Y-78581896D01*
X149655898Y-78952102D01*
X149655892Y-78952122D01*
X149580419Y-79331556D01*
X149580418Y-79331566D01*
X149542500Y-79716550D01*
X119040500Y-79716550D01*
X119040500Y-68108855D01*
X175274863Y-68108855D01*
X175995404Y-68829396D01*
X176528859Y-68295942D01*
X179727777Y-68295942D01*
X180448317Y-69016483D01*
X181769900Y-67694901D01*
X181369088Y-67294089D01*
X181322462Y-67256514D01*
X181191675Y-67196786D01*
X181049360Y-67176326D01*
X180907045Y-67196786D01*
X180907044Y-67196786D01*
X180776257Y-67256514D01*
X180729626Y-67294093D01*
X179727777Y-68295942D01*
X176528859Y-68295942D01*
X176548009Y-68276792D01*
X176322466Y-68051251D01*
X176322450Y-68051237D01*
X176242404Y-67986029D01*
X176085726Y-67907344D01*
X176085725Y-67907343D01*
X175915136Y-67866912D01*
X175915127Y-67866911D01*
X175739809Y-67866911D01*
X175739799Y-67866912D01*
X175569210Y-67907343D01*
X175569205Y-67907345D01*
X175412531Y-67986029D01*
X175332489Y-68051232D01*
X175332471Y-68051247D01*
X175274863Y-68108855D01*
X119040500Y-68108855D01*
X119040500Y-64172167D01*
X120680000Y-64172167D01*
X120680000Y-65088999D01*
X120680001Y-65089000D01*
X121962473Y-65089000D01*
X121949881Y-65101592D01*
X121870889Y-65238409D01*
X121830000Y-65391009D01*
X121830000Y-65548991D01*
X121870889Y-65701591D01*
X121949881Y-65838408D01*
X121962473Y-65851000D01*
X120680001Y-65851000D01*
X120680000Y-65851001D01*
X120680000Y-66767832D01*
X120686401Y-66827374D01*
X120686402Y-66827377D01*
X120736646Y-66962087D01*
X120822810Y-67077188D01*
X120822811Y-67077189D01*
X120937912Y-67163353D01*
X121072622Y-67213597D01*
X121072625Y-67213598D01*
X121132167Y-67219999D01*
X121132174Y-67220000D01*
X122048999Y-67220000D01*
X122049000Y-67219999D01*
X122049000Y-65937527D01*
X122061592Y-65950119D01*
X122198409Y-66029111D01*
X122351009Y-66070000D01*
X122508991Y-66070000D01*
X122661591Y-66029111D01*
X122798408Y-65950119D01*
X122811000Y-65937527D01*
X122811000Y-67219999D01*
X122811001Y-67220000D01*
X123727826Y-67220000D01*
X123727832Y-67219999D01*
X123787374Y-67213598D01*
X123787377Y-67213597D01*
X123922087Y-67163353D01*
X124037188Y-67077189D01*
X124037189Y-67077188D01*
X124123353Y-66962087D01*
X124173597Y-66827377D01*
X124173598Y-66827374D01*
X124179999Y-66767832D01*
X124180000Y-66767825D01*
X124180000Y-65851001D01*
X124179999Y-65851000D01*
X122897527Y-65851000D01*
X122910119Y-65838408D01*
X122989111Y-65701591D01*
X123030000Y-65548991D01*
X123030000Y-65391009D01*
X122989111Y-65238409D01*
X122910119Y-65101592D01*
X122897527Y-65089000D01*
X124179999Y-65089000D01*
X124180000Y-65088999D01*
X124180000Y-64172173D01*
X124179999Y-64172168D01*
X124179679Y-64169189D01*
X124967500Y-64169189D01*
X124967500Y-64169197D01*
X124967500Y-64169198D01*
X124967500Y-66770807D01*
X124978169Y-66875241D01*
X124978171Y-66875245D01*
X125034237Y-67044442D01*
X125127808Y-67196145D01*
X125127809Y-67196146D01*
X125127811Y-67196149D01*
X125253851Y-67322189D01*
X125405560Y-67415764D01*
X125574752Y-67471829D01*
X125574754Y-67471830D01*
X125574756Y-67471830D01*
X125574759Y-67471831D01*
X125679189Y-67482500D01*
X128280810Y-67482499D01*
X128385241Y-67471831D01*
X128554440Y-67415764D01*
X128706149Y-67322189D01*
X128832189Y-67196149D01*
X128925764Y-67044440D01*
X128981831Y-66875241D01*
X128992500Y-66770811D01*
X128992499Y-64169190D01*
X128981831Y-64064759D01*
X128925764Y-63895560D01*
X128832189Y-63743851D01*
X128706149Y-63617811D01*
X128706146Y-63617809D01*
X128706145Y-63617808D01*
X128600681Y-63552758D01*
X128554440Y-63524236D01*
X128554439Y-63524235D01*
X128385247Y-63468170D01*
X128385245Y-63468169D01*
X128355403Y-63465120D01*
X128280811Y-63457500D01*
X128280801Y-63457500D01*
X125679192Y-63457500D01*
X125574758Y-63468169D01*
X125574756Y-63468170D01*
X125405557Y-63524237D01*
X125253854Y-63617808D01*
X125127808Y-63743854D01*
X125034235Y-63895560D01*
X124978170Y-64064752D01*
X124978169Y-64064754D01*
X124974358Y-64102055D01*
X124967500Y-64169189D01*
X124179679Y-64169189D01*
X124173598Y-64112625D01*
X124173597Y-64112622D01*
X124123353Y-63977912D01*
X124037189Y-63862811D01*
X124037188Y-63862810D01*
X123922087Y-63776646D01*
X123787377Y-63726402D01*
X123787374Y-63726401D01*
X123727832Y-63720000D01*
X122811001Y-63720000D01*
X122811000Y-63720001D01*
X122811000Y-65002473D01*
X122798408Y-64989881D01*
X122661591Y-64910889D01*
X122508991Y-64870000D01*
X122351009Y-64870000D01*
X122198409Y-64910889D01*
X122061592Y-64989881D01*
X122049000Y-65002473D01*
X122049000Y-63720001D01*
X122048999Y-63720000D01*
X121132167Y-63720000D01*
X121072625Y-63726401D01*
X121072622Y-63726402D01*
X120937912Y-63776646D01*
X120822811Y-63862810D01*
X120822810Y-63862811D01*
X120736646Y-63977912D01*
X120686402Y-64112622D01*
X120686401Y-64112625D01*
X120680000Y-64172167D01*
X119040500Y-64172167D01*
X119040500Y-62810500D01*
X119061089Y-62687114D01*
X119120627Y-62577099D01*
X119212660Y-62492377D01*
X119327216Y-62442128D01*
X119420500Y-62430500D01*
X207659500Y-62430500D01*
X207782886Y-62451089D01*
G37*
%TD.AperFunction*%
%TD*%
%TA.AperFunction,Conductor*%
%TO.N,Net-(D16-A2)*%
G36*
X199939942Y-76835552D02*
G01*
X199943068Y-76842059D01*
X199954139Y-76924042D01*
X199978846Y-76991053D01*
X200000280Y-77029165D01*
X200013931Y-77053440D01*
X200013932Y-77053441D01*
X200065770Y-77119992D01*
X200065772Y-77119994D01*
X200065773Y-77119995D01*
X200127023Y-77179634D01*
X200205230Y-77238822D01*
X200288678Y-77288034D01*
X200365911Y-77323129D01*
X200375603Y-77327534D01*
X200416965Y-77341222D01*
X200460080Y-77355492D01*
X200580037Y-77373504D01*
X200587710Y-77378121D01*
X200590000Y-77385074D01*
X200590000Y-77614139D01*
X200586573Y-77622412D01*
X200579361Y-77625791D01*
X200512411Y-77631889D01*
X200512401Y-77631891D01*
X200425089Y-77651441D01*
X200425077Y-77651444D01*
X200250107Y-77719614D01*
X200250104Y-77719615D01*
X200107284Y-77809784D01*
X200107275Y-77809791D01*
X200007919Y-77908933D01*
X199949681Y-78012143D01*
X199933323Y-78097691D01*
X199928403Y-78105174D01*
X199919634Y-78106986D01*
X199913310Y-78103512D01*
X199296965Y-77448465D01*
X199293791Y-77440091D01*
X199297411Y-77431980D01*
X199923400Y-76835157D01*
X199931753Y-76831929D01*
X199939942Y-76835552D01*
G37*
%TD.AperFunction*%
%TD*%
%TA.AperFunction,Conductor*%
%TO.N,Net-(C1-Pad1)*%
G36*
X163671007Y-69363668D02*
G01*
X164095246Y-69776052D01*
X164294660Y-69969893D01*
X164298204Y-69978117D01*
X164294944Y-69986387D01*
X163678188Y-70628581D01*
X163669985Y-70632175D01*
X163661645Y-70628916D01*
X163658111Y-70621681D01*
X163655095Y-70592513D01*
X163640464Y-70543426D01*
X163640463Y-70543425D01*
X163640463Y-70543423D01*
X163626712Y-70517674D01*
X163612961Y-70491923D01*
X163575836Y-70446887D01*
X163575833Y-70446884D01*
X163575832Y-70446883D01*
X163518284Y-70399086D01*
X163518278Y-70399082D01*
X163451193Y-70360005D01*
X163349543Y-70319277D01*
X163243596Y-70291467D01*
X163110839Y-70271245D01*
X163013083Y-70266085D01*
X163005002Y-70262227D01*
X163002000Y-70254401D01*
X163002000Y-69776052D01*
X163005427Y-69767779D01*
X163012495Y-69764414D01*
X163191470Y-69745902D01*
X163361415Y-69697680D01*
X163491277Y-69630701D01*
X163580718Y-69550365D01*
X163634355Y-69457033D01*
X163648347Y-69404372D01*
X163651196Y-69371061D01*
X163655315Y-69363111D01*
X163663850Y-69360402D01*
X163671007Y-69363668D01*
G37*
%TD.AperFunction*%
%TD*%
%TA.AperFunction,Conductor*%
%TO.N,Net-(C1-Pad1)*%
G36*
X161900969Y-69384632D02*
G01*
X161903201Y-69388557D01*
X161916326Y-69427774D01*
X161916327Y-69427776D01*
X161943613Y-69478257D01*
X161986966Y-69532827D01*
X162006501Y-69550386D01*
X162039894Y-69580403D01*
X162039898Y-69580406D01*
X162039902Y-69580409D01*
X162116659Y-69630560D01*
X162202281Y-69671347D01*
X162263184Y-69691912D01*
X162324080Y-69712475D01*
X162324083Y-69712475D01*
X162324087Y-69712477D01*
X162447832Y-69740450D01*
X162447839Y-69740451D01*
X162447835Y-69740451D01*
X162593451Y-69759869D01*
X162703344Y-69764981D01*
X162711449Y-69768788D01*
X162714500Y-69776668D01*
X162714500Y-70254612D01*
X162711073Y-70262885D01*
X162703641Y-70266282D01*
X162515697Y-70279825D01*
X162306673Y-70323464D01*
X162306663Y-70323467D01*
X162141024Y-70387531D01*
X162141021Y-70387533D01*
X162021308Y-70465692D01*
X162021304Y-70465695D01*
X161941799Y-70555548D01*
X161941797Y-70555552D01*
X161903949Y-70644254D01*
X161897551Y-70650518D01*
X161888596Y-70650423D01*
X161885552Y-70648526D01*
X161161283Y-70024362D01*
X161157254Y-70016366D01*
X161160059Y-70007862D01*
X161161284Y-70006637D01*
X161428136Y-69776668D01*
X161884470Y-69383406D01*
X161892972Y-69380602D01*
X161900969Y-69384632D01*
G37*
%TD.AperFunction*%
%TD*%
%TA.AperFunction,Conductor*%
%TO.N,Net-(U1-CC)*%
G36*
X162347302Y-73981567D02*
G01*
X162510924Y-74131660D01*
X162510931Y-74131666D01*
X162672889Y-74252835D01*
X162827455Y-74342806D01*
X162827457Y-74342806D01*
X162827459Y-74342808D01*
X162870401Y-74361187D01*
X162977167Y-74406883D01*
X163124562Y-74450375D01*
X163272177Y-74478588D01*
X163272185Y-74478588D01*
X163272192Y-74478590D01*
X163578184Y-74510398D01*
X163578213Y-74510401D01*
X163876417Y-74539933D01*
X163884312Y-74544158D01*
X163886907Y-74552729D01*
X163886866Y-74553085D01*
X163721951Y-75821138D01*
X163717486Y-75828900D01*
X163711076Y-75831306D01*
X162443409Y-75910193D01*
X162434939Y-75907287D01*
X162431005Y-75899243D01*
X162430983Y-75898648D01*
X162427047Y-75548815D01*
X162428616Y-75377739D01*
X162414858Y-75135659D01*
X162372810Y-74931856D01*
X162295339Y-74738420D01*
X162240049Y-74640692D01*
X162209640Y-74596253D01*
X162171590Y-74540646D01*
X162171588Y-74540643D01*
X162086830Y-74435796D01*
X162086822Y-74435786D01*
X161993227Y-74335808D01*
X161990075Y-74327427D01*
X161993495Y-74319541D01*
X162331121Y-73981915D01*
X162339393Y-73978489D01*
X162347302Y-73981567D01*
G37*
%TD.AperFunction*%
%TD*%
%TA.AperFunction,Conductor*%
%TO.N,Net-(U1-CC)*%
G36*
X162044660Y-73107308D02*
G01*
X162048417Y-73115437D01*
X162048053Y-73118837D01*
X162034606Y-73170813D01*
X162034605Y-73170822D01*
X162027226Y-73239969D01*
X162030132Y-73316904D01*
X162030489Y-73326337D01*
X162040104Y-73381579D01*
X162045698Y-73413715D01*
X162045701Y-73413725D01*
X162078258Y-73520929D01*
X162123216Y-73626269D01*
X162123220Y-73626278D01*
X162193822Y-73755254D01*
X162273152Y-73874206D01*
X162278018Y-73880396D01*
X162369154Y-73996326D01*
X162369160Y-73996334D01*
X162450068Y-74084348D01*
X162453144Y-74092758D01*
X162449727Y-74100539D01*
X162112107Y-74438159D01*
X162103834Y-74441586D01*
X162095843Y-74438432D01*
X162045311Y-74391183D01*
X161981855Y-74331849D01*
X161736028Y-74137855D01*
X161736021Y-74137850D01*
X161736014Y-74137845D01*
X161491281Y-73984975D01*
X161491277Y-73984973D01*
X161264471Y-73880396D01*
X161264468Y-73880395D01*
X161060160Y-73821402D01*
X161060156Y-73821401D01*
X161060157Y-73821401D01*
X160893221Y-73804576D01*
X160885333Y-73800337D01*
X160882753Y-73791762D01*
X160883577Y-73788476D01*
X161148434Y-73146719D01*
X161154758Y-73140379D01*
X161158778Y-73139492D01*
X162036258Y-73104216D01*
X162044660Y-73107308D01*
G37*
%TD.AperFunction*%
%TD*%
%TA.AperFunction,Conductor*%
%TO.N,/HVOUT*%
G36*
X159824644Y-81174140D02*
G01*
X159956742Y-81289986D01*
X160133536Y-81408768D01*
X160294287Y-81482295D01*
X160432685Y-81513110D01*
X160551156Y-81507058D01*
X160639646Y-81472152D01*
X160648597Y-81472304D01*
X160654821Y-81478743D01*
X160655611Y-81482253D01*
X160717779Y-82409386D01*
X160714913Y-82417870D01*
X160706888Y-82421843D01*
X160705322Y-82421843D01*
X159778408Y-82359689D01*
X159770383Y-82355716D01*
X159767517Y-82347232D01*
X159768363Y-82343584D01*
X159801114Y-82263602D01*
X159810443Y-82196506D01*
X159808125Y-82127560D01*
X159808125Y-82127557D01*
X159791195Y-82040443D01*
X159791194Y-82040441D01*
X159791193Y-82040434D01*
X159761351Y-81953461D01*
X159706121Y-81840116D01*
X159639706Y-81734084D01*
X159547282Y-81613031D01*
X159470382Y-81528725D01*
X159467339Y-81520305D01*
X159470753Y-81512570D01*
X159808659Y-81174664D01*
X159816931Y-81171238D01*
X159824644Y-81174140D01*
G37*
%TD.AperFunction*%
%TD*%
%TA.AperFunction,Conductor*%
%TO.N,/HVOUT*%
G36*
X159138039Y-80587982D02*
G01*
X160077274Y-80758045D01*
X160084804Y-80762891D01*
X160086702Y-80771643D01*
X160084677Y-80776404D01*
X160058339Y-80812905D01*
X160027876Y-80873435D01*
X160008359Y-80936129D01*
X160008357Y-80936137D01*
X159998108Y-81010115D01*
X159999449Y-81084994D01*
X160014407Y-81175603D01*
X160041347Y-81264077D01*
X160086673Y-81366985D01*
X160086675Y-81366989D01*
X160140634Y-81460309D01*
X160140637Y-81460313D01*
X160200438Y-81543556D01*
X160200443Y-81543561D01*
X160200444Y-81543563D01*
X160250776Y-81600349D01*
X160253699Y-81608813D01*
X160250293Y-81616382D01*
X159912836Y-81953839D01*
X159904563Y-81957266D01*
X159896290Y-81953839D01*
X159871495Y-81928835D01*
X159647068Y-81716117D01*
X159489429Y-81599596D01*
X159365287Y-81539486D01*
X159365285Y-81539485D01*
X159365284Y-81539485D01*
X159267647Y-81522817D01*
X159267646Y-81522817D01*
X159200852Y-81538596D01*
X159192012Y-81537163D01*
X159186775Y-81529899D01*
X159186488Y-81527992D01*
X159151762Y-81010115D01*
X159124280Y-80600276D01*
X159127146Y-80591794D01*
X159135171Y-80587821D01*
X159138039Y-80587982D01*
G37*
%TD.AperFunction*%
%TD*%
%TA.AperFunction,Conductor*%
%TO.N,/HVOUT*%
G36*
X161619439Y-82481820D02*
G01*
X161657527Y-82484374D01*
X161665552Y-82488347D01*
X161668418Y-82496831D01*
X161667571Y-82500481D01*
X161634824Y-82580455D01*
X161634823Y-82580459D01*
X161634822Y-82580462D01*
X161630654Y-82610433D01*
X161625492Y-82647559D01*
X161627810Y-82716501D01*
X161627810Y-82716506D01*
X161644739Y-82803619D01*
X161644741Y-82803624D01*
X161644742Y-82803629D01*
X161674585Y-82890602D01*
X161729815Y-83003947D01*
X161796229Y-83109978D01*
X161796233Y-83109983D01*
X161796236Y-83109988D01*
X161888643Y-83231019D01*
X161888653Y-83231032D01*
X161965552Y-83315337D01*
X161968596Y-83323758D01*
X161965181Y-83331494D01*
X161627277Y-83669398D01*
X161619004Y-83672825D01*
X161611290Y-83669922D01*
X161610692Y-83669398D01*
X161479194Y-83554078D01*
X161302401Y-83435296D01*
X161141650Y-83361769D01*
X161141646Y-83361768D01*
X161141644Y-83361767D01*
X161003252Y-83330954D01*
X160884778Y-83337006D01*
X160796291Y-83371911D01*
X160787338Y-83371759D01*
X160781114Y-83365320D01*
X160780324Y-83361814D01*
X160718156Y-82434676D01*
X160721022Y-82426193D01*
X160729047Y-82422220D01*
X160730608Y-82422220D01*
X161619439Y-82481820D01*
G37*
%TD.AperFunction*%
%TD*%
%TA.AperFunction,Conductor*%
%TO.N,/HVOUT*%
G36*
X163214723Y-82806928D02*
G01*
X163215218Y-82807947D01*
X163310222Y-83030240D01*
X163716917Y-83981840D01*
X163717017Y-83990794D01*
X163712727Y-83996120D01*
X162660405Y-84710103D01*
X162651635Y-84711912D01*
X162644438Y-84707390D01*
X162503215Y-84516943D01*
X162357439Y-84353131D01*
X162357437Y-84353129D01*
X162204496Y-84205532D01*
X162035112Y-84054736D01*
X162035099Y-84054724D01*
X161887055Y-83923699D01*
X161886772Y-83923441D01*
X161513459Y-83570597D01*
X161509802Y-83562425D01*
X161512994Y-83554058D01*
X161513185Y-83553861D01*
X161850805Y-83216241D01*
X161859077Y-83212815D01*
X161866456Y-83215436D01*
X161985791Y-83312462D01*
X162097265Y-83362882D01*
X162109031Y-83368204D01*
X162228711Y-83382758D01*
X162228713Y-83382757D01*
X162228715Y-83382758D01*
X162345572Y-83362882D01*
X162460328Y-83315330D01*
X162573710Y-83246859D01*
X162799260Y-83074177D01*
X162853401Y-83030510D01*
X162853732Y-83030254D01*
X163052317Y-82882692D01*
X163053645Y-82881840D01*
X163198841Y-82802288D01*
X163207742Y-82801319D01*
X163214723Y-82806928D01*
G37*
%TD.AperFunction*%
%TD*%
%TA.AperFunction,Conductor*%
%TO.N,Net-(R2-Pad2)*%
G36*
X183177315Y-101448427D02*
G01*
X183180716Y-101455934D01*
X183192209Y-101631255D01*
X183233230Y-101840259D01*
X183278641Y-101962230D01*
X183294907Y-102005921D01*
X183294909Y-102005925D01*
X183370975Y-102125566D01*
X183370982Y-102125573D01*
X183459025Y-102205059D01*
X183459027Y-102205060D01*
X183459030Y-102205063D01*
X183546283Y-102242951D01*
X183552506Y-102249389D01*
X183552354Y-102258342D01*
X183550430Y-102261383D01*
X182938808Y-102960925D01*
X182930783Y-102964898D01*
X182922299Y-102962032D01*
X182921192Y-102960925D01*
X182309713Y-102261548D01*
X182306847Y-102253064D01*
X182310820Y-102245039D01*
X182313995Y-102243058D01*
X182393714Y-102209659D01*
X182447754Y-102168812D01*
X182494867Y-102118421D01*
X182544502Y-102044841D01*
X182584900Y-101962240D01*
X182625993Y-101843040D01*
X182654006Y-101721102D01*
X182674251Y-101570151D01*
X182679487Y-101456162D01*
X182683290Y-101448056D01*
X182691175Y-101445000D01*
X183169042Y-101445000D01*
X183177315Y-101448427D01*
G37*
%TD.AperFunction*%
%TD*%
%TA.AperFunction,Conductor*%
%TO.N,Net-(R2-Pad2)*%
G36*
X182794691Y-99906168D02*
G01*
X183423781Y-100007993D01*
X183431401Y-100012698D01*
X183432582Y-100014744D01*
X183632188Y-100458801D01*
X183816263Y-100868308D01*
X183816530Y-100877259D01*
X183810389Y-100883776D01*
X183805474Y-100884804D01*
X183804120Y-100884790D01*
X183804104Y-100884791D01*
X183804101Y-100884791D01*
X183786323Y-100885963D01*
X183720730Y-100890290D01*
X183643723Y-100905509D01*
X183643717Y-100905510D01*
X183643715Y-100905511D01*
X183643712Y-100905511D01*
X183643701Y-100905515D01*
X183567812Y-100931563D01*
X183499057Y-100966368D01*
X183499052Y-100966372D01*
X183430705Y-101013889D01*
X183430701Y-101013892D01*
X183370937Y-101068869D01*
X183313533Y-101137715D01*
X183266675Y-101211180D01*
X183266666Y-101211197D01*
X183227604Y-101292837D01*
X183200331Y-101373543D01*
X183181459Y-101503064D01*
X183176875Y-101510757D01*
X183169881Y-101513077D01*
X182692441Y-101513077D01*
X182684168Y-101509650D01*
X182680741Y-101501377D01*
X182680763Y-101500659D01*
X182696019Y-101252497D01*
X182696077Y-101251853D01*
X182724290Y-101013889D01*
X182732494Y-100944686D01*
X182736833Y-100905509D01*
X182740952Y-100868308D01*
X182786301Y-100458803D01*
X182798388Y-100139090D01*
X182781159Y-99918629D01*
X182783930Y-99910116D01*
X182791911Y-99906055D01*
X182794691Y-99906168D01*
G37*
%TD.AperFunction*%
%TD*%
%TA.AperFunction,Conductor*%
%TO.N,+VHV*%
G36*
X171941287Y-89538243D02*
G01*
X171941757Y-89538688D01*
X172984357Y-90581288D01*
X172987784Y-90589561D01*
X172984357Y-90597834D01*
X172983322Y-90598754D01*
X172943711Y-90629940D01*
X172942409Y-90630829D01*
X172873778Y-90671235D01*
X172872995Y-90671657D01*
X172698009Y-90757498D01*
X172697878Y-90757561D01*
X172604664Y-90801857D01*
X172604617Y-90801880D01*
X172414927Y-90903979D01*
X172414918Y-90903984D01*
X172313994Y-90982198D01*
X172269801Y-91046995D01*
X172269800Y-91046998D01*
X172265556Y-91108556D01*
X172265557Y-91108559D01*
X172280503Y-91143350D01*
X172290683Y-91155969D01*
X172293210Y-91164560D01*
X172288922Y-91172422D01*
X172280331Y-91174949D01*
X172279984Y-91174906D01*
X170843682Y-90977601D01*
X170835952Y-90973080D01*
X170833683Y-90964419D01*
X170984132Y-89878493D01*
X170988661Y-89870771D01*
X170997327Y-89868512D01*
X171003481Y-89871345D01*
X171031646Y-89896308D01*
X171053276Y-89915478D01*
X171053278Y-89915479D01*
X171118140Y-89958660D01*
X171118143Y-89958662D01*
X171181614Y-89987627D01*
X171181618Y-89987628D01*
X171181624Y-89987631D01*
X171243645Y-90003628D01*
X171243649Y-90003628D01*
X171243653Y-90003629D01*
X171262971Y-90004989D01*
X171304111Y-90007887D01*
X171362931Y-90001641D01*
X171475270Y-89962575D01*
X171549667Y-89915474D01*
X171579933Y-89896313D01*
X171579936Y-89896311D01*
X171579937Y-89896309D01*
X171579940Y-89896308D01*
X171676216Y-89812719D01*
X171840695Y-89633083D01*
X171924768Y-89539156D01*
X171932837Y-89535279D01*
X171941287Y-89538243D01*
G37*
%TD.AperFunction*%
%TD*%
%TA.AperFunction,Conductor*%
%TO.N,+VHV*%
G36*
X173047047Y-85288283D02*
G01*
X173051052Y-85294878D01*
X173080958Y-85435366D01*
X173119677Y-85534387D01*
X173172320Y-85636382D01*
X173255387Y-85766470D01*
X173255403Y-85766492D01*
X173358550Y-85903673D01*
X173358563Y-85903688D01*
X173358564Y-85903689D01*
X173601265Y-86181543D01*
X173601273Y-86181551D01*
X173900776Y-86489879D01*
X173904083Y-86498201D01*
X173900657Y-86506304D01*
X172856266Y-87550695D01*
X172847993Y-87554122D01*
X172839881Y-87550852D01*
X172635823Y-87354469D01*
X172464093Y-87189197D01*
X172187596Y-86957125D01*
X171974365Y-86815503D01*
X171974363Y-86815502D01*
X171795763Y-86734401D01*
X171795760Y-86734400D01*
X171795759Y-86734400D01*
X171644788Y-86701110D01*
X171637446Y-86695982D01*
X171635661Y-86688559D01*
X171654058Y-86498201D01*
X171758366Y-85418883D01*
X171762572Y-85410980D01*
X171768883Y-85408366D01*
X173038484Y-85285668D01*
X173047047Y-85288283D01*
G37*
%TD.AperFunction*%
%TD*%
%TA.AperFunction,Conductor*%
%TO.N,-VHV*%
G36*
X176618132Y-72128803D02*
G01*
X176620696Y-72133290D01*
X176910068Y-73080336D01*
X176909209Y-73089250D01*
X176902298Y-73094944D01*
X176902283Y-73094949D01*
X175115684Y-73638237D01*
X175106772Y-73637365D01*
X175101086Y-73630447D01*
X175101958Y-73621535D01*
X175102786Y-73620206D01*
X175132353Y-73579224D01*
X175140199Y-73548447D01*
X175137862Y-73519986D01*
X175106259Y-73469411D01*
X175044776Y-73426296D01*
X175044776Y-73426295D01*
X174960661Y-73389439D01*
X174960655Y-73389436D01*
X174960649Y-73389434D01*
X174861110Y-73357624D01*
X174644733Y-73304338D01*
X174482165Y-73264987D01*
X174480982Y-73264633D01*
X174390688Y-73232379D01*
X174384050Y-73226369D01*
X174383606Y-73217425D01*
X174386349Y-73213090D01*
X175427735Y-72171704D01*
X175436007Y-72168278D01*
X175441629Y-72169717D01*
X175492245Y-72197460D01*
X175596717Y-72252663D01*
X175644194Y-72277750D01*
X175792140Y-72336918D01*
X175821010Y-72348464D01*
X175902256Y-72364845D01*
X175983502Y-72381227D01*
X175983502Y-72381226D01*
X175983503Y-72381227D01*
X176139260Y-72377898D01*
X176293784Y-72336918D01*
X176371897Y-72300763D01*
X176451434Y-72252663D01*
X176532764Y-72191186D01*
X176601603Y-72128083D01*
X176610015Y-72125020D01*
X176618132Y-72128803D01*
G37*
%TD.AperFunction*%
%TD*%
%TA.AperFunction,Conductor*%
%TO.N,-VHV*%
G36*
X172856304Y-72269342D02*
G01*
X173900695Y-73313733D01*
X173904122Y-73322006D01*
X173900852Y-73330119D01*
X173539196Y-73705907D01*
X173307125Y-73982403D01*
X173165503Y-74195634D01*
X173084401Y-74374236D01*
X173084400Y-74374239D01*
X173051110Y-74525211D01*
X173045982Y-74532553D01*
X173038559Y-74534338D01*
X171768886Y-74411634D01*
X171760980Y-74407427D01*
X171758366Y-74401115D01*
X171635668Y-73131514D01*
X171638283Y-73122952D01*
X171644876Y-73118948D01*
X171785364Y-73089043D01*
X171884381Y-73050325D01*
X171986382Y-72997679D01*
X172116469Y-72914612D01*
X172116489Y-72914597D01*
X172253670Y-72811451D01*
X172253678Y-72811443D01*
X172253686Y-72811438D01*
X172531541Y-72568736D01*
X172839881Y-72269222D01*
X172848201Y-72265916D01*
X172856304Y-72269342D01*
G37*
%TD.AperFunction*%
%TD*%
%TA.AperFunction,Conductor*%
%TO.N,+VLV*%
G36*
X198099885Y-90940927D02*
G01*
X198103282Y-90948359D01*
X198116825Y-91136303D01*
X198160464Y-91345328D01*
X198160467Y-91345338D01*
X198224532Y-91510976D01*
X198224534Y-91510979D01*
X198302693Y-91630692D01*
X198302696Y-91630696D01*
X198392548Y-91710200D01*
X198392549Y-91710200D01*
X198392551Y-91710202D01*
X198452247Y-91735673D01*
X198481254Y-91748050D01*
X198487518Y-91754448D01*
X198487423Y-91763403D01*
X198485525Y-91766449D01*
X197861363Y-92490715D01*
X197853366Y-92494745D01*
X197844862Y-92491940D01*
X197843637Y-92490715D01*
X197220407Y-91767531D01*
X197217602Y-91759027D01*
X197221632Y-91751030D01*
X197225557Y-91748798D01*
X197227792Y-91748050D01*
X197264776Y-91735673D01*
X197315258Y-91708387D01*
X197369827Y-91665035D01*
X197417409Y-91612098D01*
X197467560Y-91535342D01*
X197508347Y-91449719D01*
X197549477Y-91327914D01*
X197577450Y-91204169D01*
X197596869Y-91058549D01*
X197601981Y-90948655D01*
X197605788Y-90940551D01*
X197613668Y-90937500D01*
X198091612Y-90937500D01*
X198099885Y-90940927D01*
G37*
%TD.AperFunction*%
%TD*%
%TA.AperFunction,Conductor*%
%TO.N,+VLV*%
G36*
X197906770Y-89413807D02*
G01*
X198672643Y-89957563D01*
X198677405Y-89965146D01*
X198675410Y-89973875D01*
X198673648Y-89975842D01*
X198576584Y-90062218D01*
X198576579Y-90062223D01*
X198500186Y-90150200D01*
X198431154Y-90247195D01*
X198431131Y-90247230D01*
X198360491Y-90367912D01*
X198360477Y-90367939D01*
X198299038Y-90495775D01*
X198299036Y-90495781D01*
X198239485Y-90648001D01*
X198191261Y-90802279D01*
X198151007Y-90968582D01*
X198123176Y-91127598D01*
X198123174Y-91127610D01*
X198103336Y-91383831D01*
X198099281Y-91391815D01*
X198091671Y-91394628D01*
X197613454Y-91394628D01*
X197605181Y-91391201D01*
X197601779Y-91383698D01*
X197582322Y-91088655D01*
X197526422Y-90771190D01*
X197444802Y-90492530D01*
X197444800Y-90492525D01*
X197444799Y-90492522D01*
X197345817Y-90266622D01*
X197345811Y-90266612D01*
X197235044Y-90092956D01*
X197235037Y-90092947D01*
X197124599Y-89975855D01*
X197121415Y-89967485D01*
X197125082Y-89959316D01*
X197126337Y-89958287D01*
X197127358Y-89957562D01*
X197893228Y-89413807D01*
X197901956Y-89411813D01*
X197906770Y-89413807D01*
G37*
%TD.AperFunction*%
%TD*%
%TA.AperFunction,Conductor*%
%TO.N,+VLV*%
G36*
X128021714Y-96884868D02*
G01*
X128026792Y-96892244D01*
X128026893Y-96892782D01*
X128067856Y-97141217D01*
X128067957Y-97141984D01*
X128090797Y-97376119D01*
X128122172Y-97663054D01*
X128171442Y-97874142D01*
X128253765Y-98070289D01*
X128253766Y-98070291D01*
X128312029Y-98170321D01*
X128312037Y-98170333D01*
X128384377Y-98273843D01*
X128440205Y-98341980D01*
X128455623Y-98360798D01*
X128475415Y-98384953D01*
X128475415Y-98384954D01*
X128577376Y-98493333D01*
X128580549Y-98501707D01*
X128577127Y-98509623D01*
X128239530Y-98847220D01*
X128231257Y-98850647D01*
X128223340Y-98847561D01*
X128073788Y-98710105D01*
X127925639Y-98598591D01*
X127784791Y-98515755D01*
X127784785Y-98515752D01*
X127784780Y-98515749D01*
X127733172Y-98493333D01*
X127648817Y-98456693D01*
X127648808Y-98456690D01*
X127515364Y-98416549D01*
X127515363Y-98416548D01*
X127515354Y-98416546D01*
X127382011Y-98390433D01*
X127382009Y-98390432D01*
X127382005Y-98390432D01*
X127106092Y-98360794D01*
X126907346Y-98342073D01*
X126906605Y-98341980D01*
X126622861Y-98296836D01*
X126615229Y-98292151D01*
X126613144Y-98283443D01*
X126613249Y-98282877D01*
X126857710Y-97136710D01*
X126862788Y-97129336D01*
X126866708Y-97127711D01*
X128012909Y-96883242D01*
X128021714Y-96884868D01*
G37*
%TD.AperFunction*%
%TD*%
%TA.AperFunction,Conductor*%
%TO.N,+VLV*%
G36*
X136940232Y-106855662D02*
G01*
X137075044Y-106973838D01*
X137194526Y-107060778D01*
X137281955Y-107116149D01*
X137328584Y-107145682D01*
X137328587Y-107145684D01*
X137612752Y-107291936D01*
X137612761Y-107291940D01*
X137896785Y-107398338D01*
X137896782Y-107398338D01*
X137896790Y-107398339D01*
X137896793Y-107398341D01*
X138163331Y-107461711D01*
X138404956Y-107484308D01*
X138404958Y-107484307D01*
X138404960Y-107484308D01*
X138601968Y-107471205D01*
X138610448Y-107474075D01*
X138614416Y-107482103D01*
X138613691Y-107487004D01*
X138282420Y-108366159D01*
X138276296Y-108372693D01*
X138276275Y-108372702D01*
X137395621Y-108769296D01*
X137386671Y-108769569D01*
X137380149Y-108763432D01*
X137379132Y-108759220D01*
X137373851Y-108655065D01*
X137373849Y-108655052D01*
X137354052Y-108531145D01*
X137354050Y-108531132D01*
X137322065Y-108405074D01*
X137271312Y-108256874D01*
X137208295Y-108109183D01*
X137122342Y-107939906D01*
X137026543Y-107776735D01*
X136912178Y-107604917D01*
X136822047Y-107484308D01*
X136795286Y-107448497D01*
X136795282Y-107448492D01*
X136585689Y-107210233D01*
X136582799Y-107201760D01*
X136586201Y-107194235D01*
X136924249Y-106856187D01*
X136932521Y-106852761D01*
X136940232Y-106855662D01*
G37*
%TD.AperFunction*%
%TD*%
%TA.AperFunction,Conductor*%
%TO.N,-VLV*%
G36*
X202950157Y-100098339D02*
G01*
X202952092Y-100100130D01*
X203576000Y-100824102D01*
X203578805Y-100832606D01*
X203574775Y-100840603D01*
X203572205Y-100842285D01*
X203524626Y-100865152D01*
X203524625Y-100865152D01*
X203458997Y-100929967D01*
X203409138Y-101017933D01*
X203382046Y-101095912D01*
X203377613Y-101108674D01*
X203372890Y-101122267D01*
X203372885Y-101122283D01*
X203348079Y-101236211D01*
X203348078Y-101236215D01*
X203348078Y-101236218D01*
X203346347Y-101252818D01*
X203324134Y-101465810D01*
X203320253Y-101641059D01*
X203316644Y-101649254D01*
X203308556Y-101652500D01*
X202831484Y-101652500D01*
X202823211Y-101649073D01*
X202819786Y-101641019D01*
X202819511Y-101626329D01*
X202793680Y-101434038D01*
X202793680Y-101434036D01*
X202736874Y-101252818D01*
X202659648Y-101108668D01*
X202568113Y-101004317D01*
X202463789Y-100936483D01*
X202463786Y-100936481D01*
X202360541Y-100907814D01*
X202353486Y-100902299D01*
X202352398Y-100893411D01*
X202354239Y-100889618D01*
X202933800Y-100100839D01*
X202941461Y-100096202D01*
X202950157Y-100098339D01*
G37*
%TD.AperFunction*%
%TD*%
%TA.AperFunction,Conductor*%
%TO.N,-VLV*%
G36*
X203316957Y-102851113D02*
G01*
X203320377Y-102858996D01*
X203324833Y-102992528D01*
X203324834Y-102992539D01*
X203338286Y-103100526D01*
X203338289Y-103100541D01*
X203371469Y-103222281D01*
X203384726Y-103270925D01*
X203384731Y-103270939D01*
X203399001Y-103315081D01*
X203399202Y-103315775D01*
X203459252Y-103550023D01*
X203457986Y-103558888D01*
X203450823Y-103564262D01*
X203450229Y-103564398D01*
X203072311Y-103640534D01*
X203067689Y-103640534D01*
X202689548Y-103564353D01*
X202682115Y-103559359D01*
X202680389Y-103550572D01*
X202680460Y-103550249D01*
X202717870Y-103392279D01*
X202718060Y-103391580D01*
X202755273Y-103270925D01*
X202802045Y-103098684D01*
X202815256Y-102991337D01*
X202819626Y-102858999D01*
X202823324Y-102850844D01*
X202831320Y-102847686D01*
X203308684Y-102847686D01*
X203316957Y-102851113D01*
G37*
%TD.AperFunction*%
%TD*%
%TA.AperFunction,Conductor*%
%TO.N,-VLV*%
G36*
X202986770Y-97033807D02*
G01*
X203429506Y-97348141D01*
X203752665Y-97577579D01*
X203757427Y-97585163D01*
X203755432Y-97593892D01*
X203753687Y-97595844D01*
X203663916Y-97676038D01*
X203588244Y-97763031D01*
X203519871Y-97859141D01*
X203449748Y-97979242D01*
X203388776Y-98106670D01*
X203388774Y-98106674D01*
X203329458Y-98259250D01*
X203329457Y-98259254D01*
X203281436Y-98414128D01*
X203281435Y-98414132D01*
X203241099Y-98582424D01*
X203241098Y-98582432D01*
X203213248Y-98743401D01*
X203213248Y-98743407D01*
X203193327Y-99003820D01*
X203189279Y-99011808D01*
X203181661Y-99014628D01*
X202703792Y-99014628D01*
X202695519Y-99011201D01*
X202692121Y-99003750D01*
X202686997Y-98931003D01*
X202670960Y-98703299D01*
X202613440Y-98388301D01*
X202530086Y-98111301D01*
X202429335Y-97886265D01*
X202316802Y-97712933D01*
X202204738Y-97595857D01*
X202201494Y-97587512D01*
X202205101Y-97579316D01*
X202206404Y-97578238D01*
X202973228Y-97033807D01*
X202981956Y-97031813D01*
X202986770Y-97033807D01*
G37*
%TD.AperFunction*%
%TD*%
%TA.AperFunction,Conductor*%
%TO.N,-VLV*%
G36*
X203189885Y-98530927D02*
G01*
X203193282Y-98538359D01*
X203206825Y-98726303D01*
X203250464Y-98935328D01*
X203250467Y-98935338D01*
X203314532Y-99100976D01*
X203314534Y-99100979D01*
X203392693Y-99220692D01*
X203392696Y-99220696D01*
X203482548Y-99300200D01*
X203482549Y-99300200D01*
X203482551Y-99300202D01*
X203542247Y-99325673D01*
X203571254Y-99338050D01*
X203577518Y-99344448D01*
X203577423Y-99353403D01*
X203575525Y-99356449D01*
X202951363Y-100080715D01*
X202943366Y-100084745D01*
X202934862Y-100081940D01*
X202933637Y-100080715D01*
X202310407Y-99357531D01*
X202307602Y-99349027D01*
X202311632Y-99341030D01*
X202315557Y-99338798D01*
X202317792Y-99338050D01*
X202354776Y-99325673D01*
X202405258Y-99298387D01*
X202459827Y-99255035D01*
X202507409Y-99202098D01*
X202557560Y-99125342D01*
X202598347Y-99039719D01*
X202639477Y-98917914D01*
X202667450Y-98794169D01*
X202686869Y-98648549D01*
X202691981Y-98538655D01*
X202695788Y-98530551D01*
X202703668Y-98527500D01*
X203181612Y-98527500D01*
X203189885Y-98530927D01*
G37*
%TD.AperFunction*%
%TD*%
%TA.AperFunction,Conductor*%
%TO.N,-VLV*%
G36*
X134863878Y-100040849D02*
G01*
X134864131Y-100041110D01*
X134960220Y-100143370D01*
X134960772Y-100144000D01*
X135043627Y-100245893D01*
X135044204Y-100246667D01*
X135108932Y-100341248D01*
X135109486Y-100342141D01*
X135159189Y-100430932D01*
X135159836Y-100432284D01*
X135227553Y-100600774D01*
X135227980Y-100602043D01*
X135273691Y-100768741D01*
X135273692Y-100768741D01*
X135332458Y-100978592D01*
X135423400Y-101201140D01*
X135486999Y-101319785D01*
X135562319Y-101440374D01*
X135563796Y-101449206D01*
X135558907Y-101456293D01*
X134824743Y-101948003D01*
X134815962Y-101949760D01*
X134815942Y-101949756D01*
X133949516Y-101776858D01*
X133942074Y-101771878D01*
X133940332Y-101763094D01*
X133940495Y-101762394D01*
X133967364Y-101661490D01*
X133967817Y-101660133D01*
X134009399Y-101557454D01*
X134009946Y-101556297D01*
X134061158Y-101462152D01*
X134061735Y-101461206D01*
X134120390Y-101374798D01*
X134121170Y-101373776D01*
X134253210Y-101219353D01*
X134253877Y-101218637D01*
X134390869Y-101083360D01*
X134528203Y-100946221D01*
X134616115Y-100831726D01*
X134656071Y-100734016D01*
X134657726Y-100636441D01*
X134642277Y-100582200D01*
X134614288Y-100525082D01*
X134567349Y-100457842D01*
X134567348Y-100457840D01*
X134509771Y-100394119D01*
X134506767Y-100385683D01*
X134510178Y-100378003D01*
X134847333Y-100040848D01*
X134855605Y-100037422D01*
X134863878Y-100040849D01*
G37*
%TD.AperFunction*%
%TD*%
%TA.AperFunction,Conductor*%
%TO.N,-VLV*%
G36*
X128127391Y-91674999D02*
G01*
X128135143Y-91679480D01*
X128137456Y-91688131D01*
X128137338Y-91688849D01*
X128111380Y-91821239D01*
X128111077Y-91822443D01*
X128068828Y-91959142D01*
X128068466Y-91960148D01*
X127962166Y-92217900D01*
X127962165Y-92217904D01*
X127863876Y-92456602D01*
X127863874Y-92456607D01*
X127818861Y-92627712D01*
X127818859Y-92627719D01*
X127811926Y-92776320D01*
X127811926Y-92776323D01*
X127841985Y-92918606D01*
X127841986Y-92918610D01*
X127841987Y-92918613D01*
X127841988Y-92918616D01*
X127872934Y-92991240D01*
X127872938Y-92991249D01*
X127915892Y-93065256D01*
X127974387Y-93143913D01*
X127974390Y-93143916D01*
X128040619Y-93216358D01*
X128043672Y-93224776D01*
X128040257Y-93232525D01*
X127702710Y-93570072D01*
X127694437Y-93573499D01*
X127686346Y-93570249D01*
X127333706Y-93232552D01*
X127333702Y-93232548D01*
X127048030Y-92994827D01*
X127048028Y-92994826D01*
X127048025Y-92994823D01*
X126888549Y-92884695D01*
X126777475Y-92807992D01*
X126461914Y-92615043D01*
X126345271Y-92544888D01*
X126339947Y-92537688D01*
X126341275Y-92528832D01*
X126341275Y-92528831D01*
X126945338Y-91525858D01*
X126952541Y-91520541D01*
X126956890Y-91520297D01*
X128127391Y-91674999D01*
G37*
%TD.AperFunction*%
%TD*%
%TA.AperFunction,Conductor*%
%TO.N,-VLV*%
G36*
X178309763Y-114290463D02*
G01*
X178467712Y-114327868D01*
X178468425Y-114328063D01*
X178538901Y-114349798D01*
X178589066Y-114365271D01*
X178698416Y-114394965D01*
X178761315Y-114412045D01*
X178868663Y-114425256D01*
X179001000Y-114429626D01*
X179009156Y-114433324D01*
X179012314Y-114441320D01*
X179012314Y-114918684D01*
X179008887Y-114926957D01*
X179001004Y-114930377D01*
X178867470Y-114934833D01*
X178867459Y-114934834D01*
X178759472Y-114948286D01*
X178759457Y-114948289D01*
X178601167Y-114991430D01*
X178589072Y-114994727D01*
X178589065Y-114994728D01*
X178589059Y-114994731D01*
X178544917Y-115009001D01*
X178544223Y-115009202D01*
X178309976Y-115069252D01*
X178301111Y-115067986D01*
X178295737Y-115060823D01*
X178295601Y-115060229D01*
X178282405Y-114994726D01*
X178219465Y-114682308D01*
X178219465Y-114677691D01*
X178295646Y-114299547D01*
X178300640Y-114292115D01*
X178309427Y-114290389D01*
X178309763Y-114290463D01*
G37*
%TD.AperFunction*%
%TD*%
%TA.AperFunction,Conductor*%
%TO.N,-VLV*%
G36*
X181978888Y-114292013D02*
G01*
X181984262Y-114299176D01*
X181984398Y-114299770D01*
X182060534Y-114677689D01*
X182060534Y-114682311D01*
X181984353Y-115060451D01*
X181979359Y-115067884D01*
X181970572Y-115069610D01*
X181970187Y-115069525D01*
X181812307Y-115032136D01*
X181811555Y-115031931D01*
X181690934Y-114994728D01*
X181518691Y-114947956D01*
X181518684Y-114947954D01*
X181411341Y-114934744D01*
X181279000Y-114930373D01*
X181270844Y-114926675D01*
X181267686Y-114918679D01*
X181267686Y-114441315D01*
X181271113Y-114433042D01*
X181278994Y-114429622D01*
X181340943Y-114427554D01*
X181412527Y-114425166D01*
X181412536Y-114425165D01*
X181412540Y-114425165D01*
X181520533Y-114411712D01*
X181690925Y-114365273D01*
X181735107Y-114350990D01*
X181735752Y-114350803D01*
X181970023Y-114290747D01*
X181978888Y-114292013D01*
G37*
%TD.AperFunction*%
%TD*%
%TA.AperFunction,Conductor*%
%TO.N,Net-(U2-COMP)*%
G36*
X203101770Y-87428799D02*
G01*
X203105167Y-87436237D01*
X203112954Y-87545104D01*
X203112955Y-87545113D01*
X203133733Y-87671448D01*
X203208193Y-87939743D01*
X203208196Y-87939751D01*
X203309304Y-88177569D01*
X203309307Y-88177575D01*
X203309309Y-88177578D01*
X203420846Y-88360514D01*
X203503602Y-88453432D01*
X203533850Y-88487395D01*
X203635062Y-88558444D01*
X203639865Y-88566002D01*
X203637916Y-88574742D01*
X203637535Y-88575254D01*
X202989195Y-89399312D01*
X202981386Y-89403696D01*
X202972766Y-89401273D01*
X202970805Y-89399312D01*
X202625151Y-88959978D01*
X202322775Y-88575650D01*
X202320353Y-88567032D01*
X202324737Y-88559223D01*
X202325620Y-88558592D01*
X202393079Y-88515160D01*
X202461288Y-88453432D01*
X202524799Y-88379583D01*
X202593902Y-88278931D01*
X202655709Y-88167688D01*
X202716700Y-88032762D01*
X202767261Y-87893962D01*
X202835475Y-87622889D01*
X202853957Y-87435920D01*
X202858181Y-87428025D01*
X202865600Y-87425372D01*
X203093497Y-87425372D01*
X203101770Y-87428799D01*
G37*
%TD.AperFunction*%
%TD*%
%TA.AperFunction,Conductor*%
%TO.N,Net-(U2-COMP)*%
G36*
X203029259Y-86259078D02*
G01*
X203031153Y-86261156D01*
X203601547Y-87062407D01*
X203603553Y-87071134D01*
X203598800Y-87078724D01*
X203594559Y-87080612D01*
X203542847Y-87092131D01*
X203479889Y-87119682D01*
X203421257Y-87158018D01*
X203421250Y-87158024D01*
X203357325Y-87215454D01*
X203357316Y-87215463D01*
X203299971Y-87283160D01*
X203241444Y-87371994D01*
X203241437Y-87372005D01*
X203192773Y-87466783D01*
X203192766Y-87466798D01*
X203152780Y-87567758D01*
X203124570Y-87665348D01*
X203124570Y-87665350D01*
X203106351Y-87802342D01*
X203101863Y-87810092D01*
X203094753Y-87812500D01*
X202865422Y-87812500D01*
X202857149Y-87809073D01*
X202853800Y-87802147D01*
X202836905Y-87656360D01*
X202810556Y-87567758D01*
X202774341Y-87445978D01*
X202685753Y-87263732D01*
X202685747Y-87263723D01*
X202685744Y-87263719D01*
X202586448Y-87129316D01*
X202518063Y-87071134D01*
X202483784Y-87041969D01*
X202483781Y-87041967D01*
X202483780Y-87041967D01*
X202393468Y-87002052D01*
X202387287Y-86995574D01*
X202387497Y-86986621D01*
X202389335Y-86983713D01*
X203012760Y-86260301D01*
X203020755Y-86256273D01*
X203029259Y-86259078D01*
G37*
%TD.AperFunction*%
%TD*%
%TA.AperFunction,Conductor*%
%TO.N,Net-(U1-RC)*%
G36*
X167409701Y-69985967D02*
G01*
X167410808Y-69987074D01*
X168022286Y-70686451D01*
X168025152Y-70694935D01*
X168021179Y-70702960D01*
X168017999Y-70704943D01*
X167938291Y-70738338D01*
X167938286Y-70738341D01*
X167884242Y-70779190D01*
X167837143Y-70829566D01*
X167837128Y-70829585D01*
X167787501Y-70903153D01*
X167787493Y-70903166D01*
X167747103Y-70985752D01*
X167747096Y-70985769D01*
X167706009Y-71104955D01*
X167706008Y-71104956D01*
X167677996Y-71226886D01*
X167677993Y-71226901D01*
X167657750Y-71377839D01*
X167657749Y-71377850D01*
X167652513Y-71491837D01*
X167648710Y-71499944D01*
X167640825Y-71503000D01*
X167162958Y-71503000D01*
X167154685Y-71499573D01*
X167151283Y-71492065D01*
X167151268Y-71491837D01*
X167139792Y-71316746D01*
X167098771Y-71107742D01*
X167037094Y-70942082D01*
X167037090Y-70942075D01*
X166961025Y-70822434D01*
X166961018Y-70822427D01*
X166872974Y-70742941D01*
X166872967Y-70742936D01*
X166807665Y-70714579D01*
X166785716Y-70705048D01*
X166779493Y-70698610D01*
X166779645Y-70689657D01*
X166781566Y-70686619D01*
X167393192Y-69987073D01*
X167401217Y-69983101D01*
X167409701Y-69985967D01*
G37*
%TD.AperFunction*%
%TD*%
%TA.AperFunction,Conductor*%
%TO.N,Net-(U1-RC)*%
G36*
X167649158Y-71374549D02*
G01*
X167652570Y-71382222D01*
X167663487Y-71594750D01*
X167696281Y-71786365D01*
X167696282Y-71786370D01*
X167747889Y-71951112D01*
X167815811Y-72094068D01*
X167815812Y-72094069D01*
X167897545Y-72220338D01*
X167897547Y-72220340D01*
X167897549Y-72220343D01*
X167988721Y-72332718D01*
X167990606Y-72335041D01*
X168200686Y-72550121D01*
X168200715Y-72550151D01*
X168442987Y-72799972D01*
X168446287Y-72808296D01*
X168442733Y-72816516D01*
X168442303Y-72816913D01*
X167487252Y-73654638D01*
X167478773Y-73657517D01*
X167472373Y-73655092D01*
X166461850Y-72872340D01*
X166457408Y-72864564D01*
X166459765Y-72855925D01*
X166459961Y-72855679D01*
X166652766Y-72622376D01*
X166717034Y-72547021D01*
X166884876Y-72332717D01*
X166999426Y-72140014D01*
X167080816Y-71931673D01*
X167110662Y-71813807D01*
X167132877Y-71683720D01*
X167147110Y-71535664D01*
X167151663Y-71382474D01*
X167155334Y-71374307D01*
X167163358Y-71371122D01*
X167640885Y-71371122D01*
X167649158Y-71374549D01*
G37*
%TD.AperFunction*%
%TD*%
%TA.AperFunction,Conductor*%
%TO.N,Net-(R19-Pad2)*%
G36*
X179797315Y-103838427D02*
G01*
X179800716Y-103845934D01*
X179812209Y-104021255D01*
X179853230Y-104230259D01*
X179898641Y-104352230D01*
X179914907Y-104395921D01*
X179914909Y-104395925D01*
X179990975Y-104515566D01*
X179990982Y-104515573D01*
X180079025Y-104595059D01*
X180079027Y-104595060D01*
X180079030Y-104595063D01*
X180166283Y-104632951D01*
X180172506Y-104639389D01*
X180172354Y-104648342D01*
X180170430Y-104651383D01*
X179558808Y-105350925D01*
X179550783Y-105354898D01*
X179542299Y-105352032D01*
X179541192Y-105350925D01*
X178929713Y-104651548D01*
X178926847Y-104643064D01*
X178930820Y-104635039D01*
X178933995Y-104633058D01*
X179013714Y-104599659D01*
X179067754Y-104558812D01*
X179114867Y-104508421D01*
X179164502Y-104434841D01*
X179204900Y-104352240D01*
X179245993Y-104233040D01*
X179274006Y-104111102D01*
X179294251Y-103960151D01*
X179299487Y-103846162D01*
X179303290Y-103838056D01*
X179311175Y-103835000D01*
X179789042Y-103835000D01*
X179797315Y-103838427D01*
G37*
%TD.AperFunction*%
%TD*%
%TA.AperFunction,Conductor*%
%TO.N,Net-(R19-Pad2)*%
G36*
X179835901Y-102979560D02*
G01*
X179837537Y-102981707D01*
X180298676Y-103759160D01*
X180325699Y-103804718D01*
X180326972Y-103813582D01*
X180321605Y-103820750D01*
X180317197Y-103822282D01*
X180234860Y-103833366D01*
X180234857Y-103833367D01*
X180234854Y-103833368D01*
X180167083Y-103855775D01*
X180167081Y-103855775D01*
X180167078Y-103855777D01*
X180105786Y-103887324D01*
X180105781Y-103887327D01*
X180105780Y-103887328D01*
X180068907Y-103914297D01*
X180043418Y-103932941D01*
X179988920Y-103986972D01*
X179988919Y-103986974D01*
X179933895Y-104059654D01*
X179933892Y-104059658D01*
X179889081Y-104138439D01*
X179848809Y-104234461D01*
X179848807Y-104234468D01*
X179821091Y-104329395D01*
X179821090Y-104329402D01*
X179801302Y-104484778D01*
X179796858Y-104492552D01*
X179789696Y-104495000D01*
X179312058Y-104495000D01*
X179303785Y-104491573D01*
X179300358Y-104483300D01*
X179300363Y-104482948D01*
X179304557Y-104343717D01*
X179310245Y-104177440D01*
X179309366Y-104138440D01*
X179304593Y-103926547D01*
X179304593Y-103926538D01*
X179277538Y-103759160D01*
X179235011Y-103654790D01*
X179235010Y-103654789D01*
X179235010Y-103654788D01*
X179187743Y-103603415D01*
X179184663Y-103595006D01*
X179188236Y-103587068D01*
X179819358Y-102979248D01*
X179827694Y-102975978D01*
X179835901Y-102979560D01*
G37*
%TD.AperFunction*%
%TD*%
%TA.AperFunction,Conductor*%
%TO.N,Net-(C10-Pad2)*%
G36*
X166369969Y-79659848D02*
G01*
X166990888Y-80371279D01*
X166993746Y-80379765D01*
X166989860Y-80387704D01*
X166352422Y-80956131D01*
X166343967Y-80959080D01*
X166335903Y-80955186D01*
X166332979Y-80948412D01*
X166328560Y-80897563D01*
X166328560Y-80897560D01*
X166311526Y-80834095D01*
X166285091Y-80776694D01*
X166285089Y-80776691D01*
X166285090Y-80776691D01*
X166244673Y-80717922D01*
X166244670Y-80717919D01*
X166195290Y-80666534D01*
X166195289Y-80666533D01*
X166195285Y-80666529D01*
X166125719Y-80613434D01*
X166048922Y-80570169D01*
X166048923Y-80570169D01*
X166048917Y-80570166D01*
X165949342Y-80529497D01*
X165850061Y-80501673D01*
X165850064Y-80501673D01*
X165754362Y-80485207D01*
X165683457Y-80480697D01*
X165675418Y-80476752D01*
X165672500Y-80469021D01*
X165672500Y-79991020D01*
X165675927Y-79982747D01*
X165683500Y-79979341D01*
X165848916Y-79969436D01*
X166038731Y-79933420D01*
X166180126Y-79879260D01*
X166274931Y-79812599D01*
X166331254Y-79734437D01*
X166346508Y-79689817D01*
X166349549Y-79666055D01*
X166353998Y-79658285D01*
X166362639Y-79655936D01*
X166369969Y-79659848D01*
G37*
%TD.AperFunction*%
%TD*%
%TA.AperFunction,Conductor*%
%TO.N,Net-(C10-Pad2)*%
G36*
X163188341Y-79588584D02*
G01*
X163191474Y-79590514D01*
X163281749Y-79668086D01*
X163378803Y-79731591D01*
X163378824Y-79731604D01*
X163483995Y-79786367D01*
X163483998Y-79786368D01*
X163484004Y-79786371D01*
X163618383Y-79841439D01*
X163758183Y-79885685D01*
X163934854Y-79927199D01*
X164107940Y-79955362D01*
X164107942Y-79955362D01*
X164107947Y-79955363D01*
X164180734Y-79962427D01*
X164304286Y-79974420D01*
X164462060Y-79979626D01*
X164470215Y-79983324D01*
X164473373Y-79991320D01*
X164473373Y-80468934D01*
X164469946Y-80477207D01*
X164462324Y-80480616D01*
X164379294Y-80485245D01*
X164285606Y-80490470D01*
X164285602Y-80490470D01*
X164285590Y-80490472D01*
X164043366Y-80531784D01*
X164043363Y-80531784D01*
X164043362Y-80531785D01*
X163840517Y-80596679D01*
X163840511Y-80596681D01*
X163684683Y-80678330D01*
X163684682Y-80678331D01*
X163572169Y-80772915D01*
X163572167Y-80772918D01*
X163505844Y-80867951D01*
X163498300Y-80872774D01*
X163489554Y-80870849D01*
X163487576Y-80869107D01*
X163144800Y-80490470D01*
X162913975Y-80235496D01*
X162910964Y-80227064D01*
X162911845Y-80223156D01*
X163173046Y-79594894D01*
X163179386Y-79588573D01*
X163188341Y-79588584D01*
G37*
%TD.AperFunction*%
%TD*%
%TA.AperFunction,Conductor*%
%TO.N,Net-(R20-Pad1)*%
G36*
X187172962Y-99372788D02*
G01*
X187176368Y-99379730D01*
X187181019Y-99418512D01*
X187181020Y-99418514D01*
X187181020Y-99418516D01*
X187197546Y-99470147D01*
X187197548Y-99470153D01*
X187226828Y-99522537D01*
X187226831Y-99522542D01*
X187265671Y-99568335D01*
X187265680Y-99568344D01*
X187325124Y-99616843D01*
X187325133Y-99616850D01*
X187325142Y-99616855D01*
X187393841Y-99656459D01*
X187393843Y-99656460D01*
X187393847Y-99656462D01*
X187496020Y-99697263D01*
X187601638Y-99725049D01*
X187726830Y-99744381D01*
X187818936Y-99749397D01*
X187827011Y-99753269D01*
X187830000Y-99761080D01*
X187830000Y-100239365D01*
X187826573Y-100247638D01*
X187819414Y-100251012D01*
X187643672Y-100267815D01*
X187471036Y-100313910D01*
X187471031Y-100313912D01*
X187339616Y-100378632D01*
X187249444Y-100456550D01*
X187195399Y-100547240D01*
X187181197Y-100598536D01*
X187178287Y-100630246D01*
X187174118Y-100638172D01*
X187165567Y-100640828D01*
X187158375Y-100637463D01*
X187119329Y-100598536D01*
X186537234Y-100018209D01*
X186533796Y-100009942D01*
X186537160Y-100001714D01*
X186781834Y-99753269D01*
X187156416Y-99372913D01*
X187164663Y-99369424D01*
X187172962Y-99372788D01*
G37*
%TD.AperFunction*%
%TD*%
%TA.AperFunction,Conductor*%
%TO.N,Net-(R20-Pad1)*%
G36*
X188232579Y-99367715D02*
G01*
X188852802Y-99991752D01*
X188856204Y-100000036D01*
X188852802Y-100008248D01*
X188232755Y-100632107D01*
X188224493Y-100635559D01*
X188216209Y-100632157D01*
X188212853Y-100625354D01*
X188207338Y-100582539D01*
X188190274Y-100530622D01*
X188160379Y-100477902D01*
X188120947Y-100431820D01*
X188060861Y-100383050D01*
X188060859Y-100383049D01*
X188060854Y-100383045D01*
X187991629Y-100343245D01*
X187991630Y-100343245D01*
X187991624Y-100343242D01*
X187889398Y-100302421D01*
X187885207Y-100301316D01*
X187784019Y-100274638D01*
X187784009Y-100274636D01*
X187661322Y-100255581D01*
X187661313Y-100255580D01*
X187571056Y-100250608D01*
X187562984Y-100246732D01*
X187560000Y-100238926D01*
X187560000Y-99760664D01*
X187563427Y-99752391D01*
X187570617Y-99749014D01*
X187745142Y-99732820D01*
X187918779Y-99687505D01*
X188050785Y-99623600D01*
X188141231Y-99546553D01*
X188195426Y-99456808D01*
X188209703Y-99406007D01*
X188212633Y-99374864D01*
X188216819Y-99366951D01*
X188225377Y-99364314D01*
X188232579Y-99367715D01*
G37*
%TD.AperFunction*%
%TD*%
%TA.AperFunction,Conductor*%
%TO.N,Net-(R19-Pad1)*%
G36*
X176697315Y-103838427D02*
G01*
X176700716Y-103845934D01*
X176712209Y-104021255D01*
X176753230Y-104230259D01*
X176798641Y-104352230D01*
X176814907Y-104395921D01*
X176814909Y-104395925D01*
X176890975Y-104515566D01*
X176890982Y-104515573D01*
X176979025Y-104595059D01*
X176979027Y-104595060D01*
X176979030Y-104595063D01*
X177066283Y-104632951D01*
X177072506Y-104639389D01*
X177072354Y-104648342D01*
X177070430Y-104651383D01*
X176458808Y-105350925D01*
X176450783Y-105354898D01*
X176442299Y-105352032D01*
X176441192Y-105350925D01*
X175829713Y-104651548D01*
X175826847Y-104643064D01*
X175830820Y-104635039D01*
X175833995Y-104633058D01*
X175913714Y-104599659D01*
X175967754Y-104558812D01*
X176014867Y-104508421D01*
X176064502Y-104434841D01*
X176104900Y-104352240D01*
X176145993Y-104233040D01*
X176174006Y-104111102D01*
X176194251Y-103960151D01*
X176199487Y-103846162D01*
X176203290Y-103838056D01*
X176211175Y-103835000D01*
X176689042Y-103835000D01*
X176697315Y-103838427D01*
G37*
%TD.AperFunction*%
%TD*%
%TA.AperFunction,Conductor*%
%TO.N,Net-(R19-Pad1)*%
G36*
X176544019Y-102851690D02*
G01*
X176800323Y-103023290D01*
X177278326Y-103343320D01*
X177283294Y-103350770D01*
X177281539Y-103359551D01*
X177281354Y-103359819D01*
X177142096Y-103555797D01*
X177141788Y-103556212D01*
X177016441Y-103717068D01*
X177016384Y-103717140D01*
X176973796Y-103770911D01*
X176846554Y-103947750D01*
X176846550Y-103947756D01*
X176769377Y-104105840D01*
X176740966Y-104199566D01*
X176740966Y-104199567D01*
X176719996Y-104307282D01*
X176705001Y-104454840D01*
X176704999Y-104454867D01*
X176700320Y-104621336D01*
X176696662Y-104629509D01*
X176688625Y-104632707D01*
X176211333Y-104632707D01*
X176203060Y-104629280D01*
X176199639Y-104621379D01*
X176199638Y-104621336D01*
X176194816Y-104469850D01*
X176193233Y-104454840D01*
X176180036Y-104329681D01*
X176180035Y-104329668D01*
X176175743Y-104307282D01*
X176156814Y-104208553D01*
X176126311Y-104102939D01*
X176048089Y-103923838D01*
X175954628Y-103763658D01*
X175827704Y-103540699D01*
X175827075Y-103539417D01*
X175732585Y-103311933D01*
X175732185Y-103310810D01*
X175692683Y-103179053D01*
X175692489Y-103178320D01*
X175659997Y-103037316D01*
X175661478Y-103028487D01*
X175668771Y-103023290D01*
X175669075Y-103023224D01*
X176535235Y-102849953D01*
X176544019Y-102851690D01*
G37*
%TD.AperFunction*%
%TD*%
%TA.AperFunction,Conductor*%
%TO.N,Net-(R10-Pad2)*%
G36*
X166377358Y-77543857D02*
G01*
X167002293Y-78013458D01*
X167006848Y-78021168D01*
X167005097Y-78029152D01*
X166486533Y-78833447D01*
X166479170Y-78838543D01*
X166470360Y-78836940D01*
X166466375Y-78832610D01*
X166438654Y-78780586D01*
X166372335Y-78728562D01*
X166283892Y-78691584D01*
X166283885Y-78691581D01*
X166180444Y-78667120D01*
X166180427Y-78667118D01*
X165956890Y-78645596D01*
X165956894Y-78645596D01*
X165758639Y-78643736D01*
X165758611Y-78643736D01*
X165758596Y-78643736D01*
X165721758Y-78643923D01*
X165713468Y-78640539D01*
X165709999Y-78632284D01*
X165709999Y-78154923D01*
X165713426Y-78146650D01*
X165720911Y-78143249D01*
X165773111Y-78139739D01*
X165773114Y-78139738D01*
X165773116Y-78139738D01*
X165773116Y-78139737D01*
X165932330Y-78099509D01*
X166080612Y-78025537D01*
X166200436Y-77928097D01*
X166287492Y-77812869D01*
X166341229Y-77681082D01*
X166355153Y-77608828D01*
X166358653Y-77552481D01*
X166362585Y-77544441D01*
X166371054Y-77541533D01*
X166377358Y-77543857D01*
G37*
%TD.AperFunction*%
%TD*%
%TA.AperFunction,Conductor*%
%TO.N,Net-(R10-Pad2)*%
G36*
X161594357Y-77752568D02*
G01*
X161597490Y-77754498D01*
X161687765Y-77832070D01*
X161784819Y-77895575D01*
X161784840Y-77895588D01*
X161890011Y-77950351D01*
X161890014Y-77950352D01*
X161890020Y-77950355D01*
X162024399Y-78005423D01*
X162164199Y-78049669D01*
X162340870Y-78091183D01*
X162513956Y-78119346D01*
X162513958Y-78119346D01*
X162513963Y-78119347D01*
X162586750Y-78126411D01*
X162710302Y-78138404D01*
X162868076Y-78143610D01*
X162876231Y-78147308D01*
X162879389Y-78155304D01*
X162879389Y-78632918D01*
X162875962Y-78641191D01*
X162868340Y-78644600D01*
X162785310Y-78649229D01*
X162691622Y-78654454D01*
X162691618Y-78654454D01*
X162691606Y-78654456D01*
X162449382Y-78695768D01*
X162449379Y-78695768D01*
X162449378Y-78695769D01*
X162246533Y-78760663D01*
X162246527Y-78760665D01*
X162090699Y-78842314D01*
X162090698Y-78842315D01*
X161978185Y-78936899D01*
X161978183Y-78936902D01*
X161911860Y-79031935D01*
X161904316Y-79036758D01*
X161895570Y-79034833D01*
X161893592Y-79033091D01*
X161550816Y-78654454D01*
X161319991Y-78399480D01*
X161316980Y-78391048D01*
X161317861Y-78387140D01*
X161579062Y-77758878D01*
X161585402Y-77752557D01*
X161594357Y-77752568D01*
G37*
%TD.AperFunction*%
%TD*%
%TA.AperFunction,Conductor*%
%TO.N,Net-(U2-+)*%
G36*
X201554074Y-95577332D02*
G01*
X201891953Y-95915211D01*
X201895380Y-95923484D01*
X201892032Y-95931678D01*
X201878401Y-95945570D01*
X201683896Y-96177815D01*
X201683895Y-96177817D01*
X201507845Y-96445232D01*
X201373954Y-96709357D01*
X201373947Y-96709373D01*
X201286981Y-96952827D01*
X201286980Y-96952832D01*
X201243967Y-97170066D01*
X201243967Y-97170071D01*
X201240354Y-97344270D01*
X201236757Y-97352470D01*
X201228414Y-97355724D01*
X201224191Y-97354841D01*
X200446888Y-97033843D01*
X200440549Y-97027518D01*
X200439666Y-97022500D01*
X200492431Y-95863499D01*
X200496231Y-95855392D01*
X200504651Y-95852345D01*
X200509428Y-95853607D01*
X200602868Y-95901191D01*
X200602870Y-95901191D01*
X200602871Y-95901192D01*
X200630571Y-95908265D01*
X200676164Y-95919907D01*
X200676167Y-95919907D01*
X200676169Y-95919908D01*
X200752163Y-95927567D01*
X200843984Y-95923911D01*
X200936892Y-95908262D01*
X201048592Y-95875935D01*
X201157242Y-95831956D01*
X201276981Y-95770081D01*
X201385031Y-95701806D01*
X201538402Y-95576542D01*
X201546975Y-95573964D01*
X201554074Y-95577332D01*
G37*
%TD.AperFunction*%
%TD*%
%TA.AperFunction,Conductor*%
%TO.N,Net-(U2-+)*%
G36*
X204972161Y-91959270D02*
G01*
X204972662Y-91959585D01*
X204978370Y-91963378D01*
X205293743Y-92172988D01*
X205297011Y-92176256D01*
X205510529Y-92497509D01*
X205512255Y-92506296D01*
X205507261Y-92513729D01*
X205506929Y-92513942D01*
X205368853Y-92599142D01*
X205368176Y-92599529D01*
X205256575Y-92658517D01*
X205101702Y-92747241D01*
X205101698Y-92747243D01*
X205016454Y-92813806D01*
X204919790Y-92904291D01*
X204911408Y-92907443D01*
X204903521Y-92904022D01*
X204565975Y-92566476D01*
X204562548Y-92558203D01*
X204565703Y-92550211D01*
X204656979Y-92452629D01*
X204656986Y-92452621D01*
X204681992Y-92420497D01*
X204723831Y-92366752D01*
X204811479Y-92213429D01*
X204832628Y-92172072D01*
X204832939Y-92171509D01*
X204956135Y-91963376D01*
X204963296Y-91958004D01*
X204972161Y-91959270D01*
G37*
%TD.AperFunction*%
%TD*%
%TA.AperFunction,Conductor*%
%TO.N,Net-(Q1-D)*%
G36*
X176598971Y-79609859D02*
G01*
X177496213Y-79899798D01*
X177503031Y-79905603D01*
X177503748Y-79914529D01*
X177502502Y-79917187D01*
X177473064Y-79963703D01*
X177473064Y-79963704D01*
X177473063Y-79963705D01*
X177451832Y-80041866D01*
X177444232Y-80134703D01*
X177447622Y-80237974D01*
X177476803Y-80458849D01*
X177518239Y-80670646D01*
X177518240Y-80670666D01*
X177518243Y-80670666D01*
X177547299Y-80820506D01*
X177545510Y-80829280D01*
X177538040Y-80834219D01*
X177535813Y-80834433D01*
X177058792Y-80834433D01*
X177050519Y-80831006D01*
X177047554Y-80825988D01*
X177016846Y-80719986D01*
X177016846Y-80719985D01*
X176954083Y-80606031D01*
X176876949Y-80526839D01*
X176876943Y-80526835D01*
X176789050Y-80482794D01*
X176740567Y-80473760D01*
X176740565Y-80473760D01*
X176740098Y-80473762D01*
X176687515Y-80473991D01*
X176629339Y-80484834D01*
X176629337Y-80484834D01*
X176629335Y-80484835D01*
X176601806Y-80494768D01*
X176582308Y-80501803D01*
X176573363Y-80501387D01*
X176567331Y-80494768D01*
X176566639Y-80490568D01*
X176567260Y-80458849D01*
X176583675Y-79620761D01*
X176587263Y-79612558D01*
X176595602Y-79609294D01*
X176598971Y-79609859D01*
G37*
%TD.AperFunction*%
%TD*%
%TA.AperFunction,Conductor*%
%TO.N,Net-(Q1-D)*%
G36*
X175690660Y-78358124D02*
G01*
X175822758Y-78473970D01*
X175999552Y-78592752D01*
X176160303Y-78666279D01*
X176298701Y-78697094D01*
X176417172Y-78691042D01*
X176505662Y-78656136D01*
X176514613Y-78656288D01*
X176520837Y-78662727D01*
X176521627Y-78666237D01*
X176583795Y-79593370D01*
X176580929Y-79601854D01*
X176572904Y-79605827D01*
X176571338Y-79605827D01*
X175644424Y-79543673D01*
X175636399Y-79539700D01*
X175633533Y-79531216D01*
X175634379Y-79527568D01*
X175667130Y-79447586D01*
X175676459Y-79380490D01*
X175674141Y-79311544D01*
X175674141Y-79311541D01*
X175657211Y-79224427D01*
X175657210Y-79224425D01*
X175657209Y-79224418D01*
X175627367Y-79137445D01*
X175572137Y-79024100D01*
X175505722Y-78918068D01*
X175413298Y-78797015D01*
X175336398Y-78712709D01*
X175333355Y-78704289D01*
X175336769Y-78696554D01*
X175674675Y-78358648D01*
X175682947Y-78355222D01*
X175690660Y-78358124D01*
G37*
%TD.AperFunction*%
%TD*%
%TA.AperFunction,Conductor*%
%TO.N,Net-(Q1-D)*%
G36*
X175830401Y-77554601D02*
G01*
X175834994Y-77562289D01*
X175835036Y-77562603D01*
X175869248Y-77849458D01*
X175869266Y-77849621D01*
X175877470Y-77927671D01*
X175917209Y-78207997D01*
X175917211Y-78208009D01*
X175977024Y-78430024D01*
X176070979Y-78638874D01*
X176070987Y-78638889D01*
X176135577Y-78745624D01*
X176135590Y-78745644D01*
X176214492Y-78855911D01*
X176214494Y-78855913D01*
X176312453Y-78974014D01*
X176421438Y-79089455D01*
X176424625Y-79097822D01*
X176421203Y-79105759D01*
X176083532Y-79443430D01*
X176075259Y-79446857D01*
X176067438Y-79443859D01*
X175910363Y-79302697D01*
X175910359Y-79302694D01*
X175752134Y-79192250D01*
X175599294Y-79114519D01*
X175450119Y-79064077D01*
X175450114Y-79064076D01*
X175450111Y-79064075D01*
X175302888Y-79035500D01*
X175155895Y-79023370D01*
X175155890Y-79023370D01*
X175138807Y-79023562D01*
X174855698Y-79026748D01*
X174785716Y-79029155D01*
X174785303Y-79029162D01*
X174498661Y-79028889D01*
X174490391Y-79025454D01*
X174486972Y-79017178D01*
X174486984Y-79016660D01*
X174548824Y-77748900D01*
X174552650Y-77740805D01*
X174558809Y-77737895D01*
X175821720Y-77552413D01*
X175830401Y-77554601D01*
G37*
%TD.AperFunction*%
%TD*%
%TA.AperFunction,Conductor*%
%TO.N,Net-(Q1-D)*%
G36*
X170357450Y-78820927D02*
G01*
X170360841Y-78828290D01*
X170368031Y-78920611D01*
X170375805Y-79020431D01*
X170421454Y-79227020D01*
X170421456Y-79227025D01*
X170487649Y-79391368D01*
X170568000Y-79510634D01*
X170568000Y-79510635D01*
X170660160Y-79590130D01*
X170660162Y-79590131D01*
X170751088Y-79628112D01*
X170757401Y-79634463D01*
X170757374Y-79643418D01*
X170755441Y-79646546D01*
X170131363Y-80370715D01*
X170123366Y-80374745D01*
X170114862Y-80371940D01*
X170113637Y-80370715D01*
X169489558Y-79646546D01*
X169489499Y-79646477D01*
X169486695Y-79637975D01*
X169490725Y-79629978D01*
X169493794Y-79628070D01*
X169574413Y-79593898D01*
X169595907Y-79577372D01*
X169628147Y-79552586D01*
X169628155Y-79552578D01*
X169675015Y-79501617D01*
X169675016Y-79501615D01*
X169675024Y-79501607D01*
X169724553Y-79426960D01*
X169764877Y-79343130D01*
X169805986Y-79221887D01*
X169834007Y-79097863D01*
X169834009Y-79097853D01*
X169854252Y-78944459D01*
X169854252Y-78944452D01*
X169859495Y-78828671D01*
X169863293Y-78820561D01*
X169871183Y-78817500D01*
X170349177Y-78817500D01*
X170357450Y-78820927D01*
G37*
%TD.AperFunction*%
%TD*%
%TA.AperFunction,Conductor*%
%TO.N,Net-(Q1-D)*%
G36*
X170117702Y-78027967D02*
G01*
X170118809Y-78029074D01*
X170730287Y-78728451D01*
X170733153Y-78736935D01*
X170729180Y-78744960D01*
X170726000Y-78746943D01*
X170646292Y-78780338D01*
X170646287Y-78780341D01*
X170592243Y-78821190D01*
X170545144Y-78871566D01*
X170545129Y-78871585D01*
X170495502Y-78945153D01*
X170495494Y-78945166D01*
X170455104Y-79027752D01*
X170455097Y-79027769D01*
X170414010Y-79146955D01*
X170414009Y-79146956D01*
X170385997Y-79268886D01*
X170385994Y-79268901D01*
X170365751Y-79419839D01*
X170365750Y-79419850D01*
X170360514Y-79533837D01*
X170356711Y-79541944D01*
X170348826Y-79545000D01*
X169870959Y-79545000D01*
X169862686Y-79541573D01*
X169859284Y-79534065D01*
X169859269Y-79533837D01*
X169847793Y-79358746D01*
X169806772Y-79149742D01*
X169745095Y-78984082D01*
X169745091Y-78984075D01*
X169669026Y-78864434D01*
X169669019Y-78864427D01*
X169580975Y-78784941D01*
X169580968Y-78784936D01*
X169515666Y-78756579D01*
X169493717Y-78747048D01*
X169487494Y-78740610D01*
X169487646Y-78731657D01*
X169489567Y-78728619D01*
X170101193Y-78029073D01*
X170109218Y-78025101D01*
X170117702Y-78027967D01*
G37*
%TD.AperFunction*%
%TD*%
%TA.AperFunction,Conductor*%
%TO.N,Net-(Q1-D)*%
G36*
X173273232Y-77615835D02*
G01*
X174541114Y-77738365D01*
X174549019Y-77742572D01*
X174551634Y-77748886D01*
X174674163Y-79016745D01*
X174671548Y-79025309D01*
X174663642Y-79029516D01*
X174663164Y-79029552D01*
X174335813Y-79047696D01*
X174335598Y-79047706D01*
X174201520Y-79052665D01*
X174201510Y-79052665D01*
X173946179Y-79075645D01*
X173735687Y-79124281D01*
X173536493Y-79207912D01*
X173435433Y-79266642D01*
X173331615Y-79338948D01*
X173222040Y-79428425D01*
X173222027Y-79428437D01*
X173116560Y-79527495D01*
X173108184Y-79530661D01*
X173100277Y-79527240D01*
X172762631Y-79189594D01*
X172759204Y-79181321D01*
X172762248Y-79173450D01*
X172907950Y-79013219D01*
X173024171Y-78853291D01*
X173108716Y-78699794D01*
X173166900Y-78550599D01*
X173204037Y-78403579D01*
X173225439Y-78256607D01*
X173242297Y-77954294D01*
X173260447Y-77626835D01*
X173264326Y-77618765D01*
X173272776Y-77615801D01*
X173273232Y-77615835D01*
G37*
%TD.AperFunction*%
%TD*%
%TA.AperFunction,Conductor*%
%TO.N,Net-(Q1-D)*%
G36*
X170780598Y-79735984D02*
G01*
X170783892Y-79742449D01*
X170792281Y-79795820D01*
X170810996Y-79847947D01*
X170842935Y-79901197D01*
X170842937Y-79901199D01*
X170842940Y-79901204D01*
X170884434Y-79947755D01*
X170884439Y-79947760D01*
X170947119Y-79997085D01*
X171018822Y-80037332D01*
X171123013Y-80078228D01*
X171229690Y-80106034D01*
X171348847Y-80124504D01*
X171436452Y-80129384D01*
X171444520Y-80133266D01*
X171447500Y-80141066D01*
X171447500Y-80619417D01*
X171444073Y-80627690D01*
X171436970Y-80631058D01*
X171251050Y-80649742D01*
X171251038Y-80649744D01*
X171077621Y-80697584D01*
X170945877Y-80763737D01*
X170945872Y-80763740D01*
X170855608Y-80842773D01*
X170801660Y-80934270D01*
X170801659Y-80934273D01*
X170787570Y-80985816D01*
X170787569Y-80985820D01*
X170785448Y-81009598D01*
X170784741Y-81017527D01*
X170780592Y-81025463D01*
X170772047Y-81028141D01*
X170764805Y-81024751D01*
X170129745Y-80388264D01*
X170126327Y-80379987D01*
X170129745Y-80371736D01*
X170764054Y-79736000D01*
X170772321Y-79732566D01*
X170780598Y-79735984D01*
G37*
%TD.AperFunction*%
%TD*%
%TA.AperFunction,Conductor*%
%TO.N,Net-(Q1-G)*%
G36*
X175787470Y-82393915D02*
G01*
X175794645Y-82399274D01*
X175795929Y-82408136D01*
X175795763Y-82408723D01*
X175765374Y-82506652D01*
X175765044Y-82507577D01*
X175721460Y-82615163D01*
X175721137Y-82615888D01*
X175617842Y-82828256D01*
X175617766Y-82828410D01*
X175574241Y-82914631D01*
X175574233Y-82914648D01*
X175478695Y-83129321D01*
X175478695Y-83129322D01*
X175431835Y-83298555D01*
X175431834Y-83298558D01*
X175427988Y-83366478D01*
X175423360Y-83448200D01*
X175451831Y-83590820D01*
X175481468Y-83662525D01*
X175522666Y-83735052D01*
X175578139Y-83810653D01*
X175640388Y-83879073D01*
X175643421Y-83887499D01*
X175640007Y-83895220D01*
X175302553Y-84232674D01*
X175294280Y-84236101D01*
X175286073Y-84232740D01*
X175029089Y-83979827D01*
X174708897Y-83690484D01*
X174571933Y-83583315D01*
X174571929Y-83583312D01*
X174434781Y-83488504D01*
X174434763Y-83488492D01*
X174228649Y-83366478D01*
X173997577Y-83248639D01*
X173991763Y-83241828D01*
X173992354Y-83233132D01*
X174545138Y-82087899D01*
X174551821Y-82081939D01*
X174558553Y-82081646D01*
X175787470Y-82393915D01*
G37*
%TD.AperFunction*%
%TD*%
M02*
