%TF.GenerationSoftware,KiCad,Pcbnew,9.0.5*%
%TF.CreationDate,2025-11-24T13:11:31+01:00*%
%TF.ProjectId,200v psu,32303076-2070-4737-952e-6b696361645f,rev?*%
%TF.SameCoordinates,Original*%
%TF.FileFunction,Paste,Top*%
%TF.FilePolarity,Positive*%
%FSLAX46Y46*%
G04 Gerber Fmt 4.6, Leading zero omitted, Abs format (unit mm)*
G04 Created by KiCad (PCBNEW 9.0.5) date 2025-11-24 13:11:31*
%MOMM*%
%LPD*%
G01*
G04 APERTURE LIST*
G04 Aperture macros list*
%AMRoundRect*
0 Rectangle with rounded corners*
0 $1 Rounding radius*
0 $2 $3 $4 $5 $6 $7 $8 $9 X,Y pos of 4 corners*
0 Add a 4 corners polygon primitive as box body*
4,1,4,$2,$3,$4,$5,$6,$7,$8,$9,$2,$3,0*
0 Add four circle primitives for the rounded corners*
1,1,$1+$1,$2,$3*
1,1,$1+$1,$4,$5*
1,1,$1+$1,$6,$7*
1,1,$1+$1,$8,$9*
0 Add four rect primitives between the rounded corners*
20,1,$1+$1,$2,$3,$4,$5,0*
20,1,$1+$1,$4,$5,$6,$7,0*
20,1,$1+$1,$6,$7,$8,$9,0*
20,1,$1+$1,$8,$9,$2,$3,0*%
G04 Aperture macros list end*
%ADD10RoundRect,0.250000X-0.475000X0.337500X-0.475000X-0.337500X0.475000X-0.337500X0.475000X0.337500X0*%
%ADD11RoundRect,0.375000X-0.625000X-0.375000X0.625000X-0.375000X0.625000X0.375000X-0.625000X0.375000X0*%
%ADD12RoundRect,0.500000X-0.500000X-1.400000X0.500000X-1.400000X0.500000X1.400000X-0.500000X1.400000X0*%
%ADD13RoundRect,0.250000X-0.400000X-0.600000X0.400000X-0.600000X0.400000X0.600000X-0.400000X0.600000X0*%
%ADD14RoundRect,0.250000X0.475000X-0.337500X0.475000X0.337500X-0.475000X0.337500X-0.475000X-0.337500X0*%
%ADD15RoundRect,0.250000X0.400000X0.600000X-0.400000X0.600000X-0.400000X-0.600000X0.400000X-0.600000X0*%
%ADD16RoundRect,0.250000X-0.600000X0.400000X-0.600000X-0.400000X0.600000X-0.400000X0.600000X0.400000X0*%
%ADD17RoundRect,0.250000X0.337500X0.475000X-0.337500X0.475000X-0.337500X-0.475000X0.337500X-0.475000X0*%
%ADD18RoundRect,0.150000X-0.512500X-0.150000X0.512500X-0.150000X0.512500X0.150000X-0.512500X0.150000X0*%
%ADD19R,1.500000X1.300000*%
%ADD20RoundRect,0.250000X-0.337500X-0.475000X0.337500X-0.475000X0.337500X0.475000X-0.337500X0.475000X0*%
%ADD21RoundRect,0.375000X0.625000X0.375000X-0.625000X0.375000X-0.625000X-0.375000X0.625000X-0.375000X0*%
%ADD22RoundRect,0.500000X0.500000X1.400000X-0.500000X1.400000X-0.500000X-1.400000X0.500000X-1.400000X0*%
%ADD23RoundRect,0.150000X0.150000X-0.512500X0.150000X0.512500X-0.150000X0.512500X-0.150000X-0.512500X0*%
G04 APERTURE END LIST*
D10*
%TO.C,R6*%
X200130000Y-76912500D03*
X200130000Y-78987500D03*
%TD*%
D11*
%TO.C,Q2*%
X193070000Y-65357500D03*
X193070000Y-67657500D03*
D12*
X199370000Y-67657500D03*
D11*
X193070000Y-69957500D03*
%TD*%
D13*
%TO.C,D3*%
X188842500Y-62860000D03*
X192342500Y-62860000D03*
%TD*%
D10*
%TO.C,R4*%
X188870000Y-65372500D03*
X188870000Y-67447500D03*
%TD*%
D14*
%TO.C,R3*%
X210870000Y-70365000D03*
X210870000Y-68290000D03*
%TD*%
D15*
%TO.C,D2*%
X183900000Y-75660000D03*
X180400000Y-75660000D03*
%TD*%
D16*
%TO.C,D4*%
X203370000Y-69592500D03*
X203370000Y-73092500D03*
%TD*%
D17*
%TO.C,RVset1*%
X207687500Y-76970000D03*
X205612500Y-76970000D03*
%TD*%
D15*
%TO.C,D1*%
X190527500Y-75660000D03*
X187027500Y-75660000D03*
%TD*%
D10*
%TO.C,R2*%
X188870000Y-69382500D03*
X188870000Y-71457500D03*
%TD*%
D18*
%TO.C,U2*%
X205790000Y-69600000D03*
X205790000Y-71500000D03*
X208065000Y-70550000D03*
%TD*%
D19*
%TO.C,D5*%
X133290000Y-65070000D03*
X133290000Y-59970000D03*
X124390000Y-59970000D03*
X124390000Y-65070000D03*
%TD*%
D20*
%TO.C,R1*%
X181820000Y-63152500D03*
X183895000Y-63152500D03*
%TD*%
D10*
%TO.C,R5*%
X196440000Y-76892500D03*
X196440000Y-78967500D03*
%TD*%
D21*
%TO.C,Q1*%
X183897500Y-71472500D03*
X183897500Y-69172500D03*
D22*
X177597500Y-69172500D03*
D21*
X183897500Y-66872500D03*
%TD*%
D23*
%TO.C,U3*%
X196560000Y-74917500D03*
X198460000Y-74917500D03*
X197510000Y-72642500D03*
%TD*%
M02*
