%TF.GenerationSoftware,KiCad,Pcbnew,9.0.5*%
%TF.CreationDate,2025-11-24T13:11:31+01:00*%
%TF.ProjectId,200v psu,32303076-2070-4737-952e-6b696361645f,rev?*%
%TF.SameCoordinates,Original*%
%TF.FileFunction,Soldermask,Top*%
%TF.FilePolarity,Negative*%
%FSLAX46Y46*%
G04 Gerber Fmt 4.6, Leading zero omitted, Abs format (unit mm)*
G04 Created by KiCad (PCBNEW 9.0.5) date 2025-11-24 13:11:31*
%MOMM*%
%LPD*%
G01*
G04 APERTURE LIST*
G04 Aperture macros list*
%AMRoundRect*
0 Rectangle with rounded corners*
0 $1 Rounding radius*
0 $2 $3 $4 $5 $6 $7 $8 $9 X,Y pos of 4 corners*
0 Add a 4 corners polygon primitive as box body*
4,1,4,$2,$3,$4,$5,$6,$7,$8,$9,$2,$3,0*
0 Add four circle primitives for the rounded corners*
1,1,$1+$1,$2,$3*
1,1,$1+$1,$4,$5*
1,1,$1+$1,$6,$7*
1,1,$1+$1,$8,$9*
0 Add four rect primitives between the rounded corners*
20,1,$1+$1,$2,$3,$4,$5,0*
20,1,$1+$1,$4,$5,$6,$7,0*
20,1,$1+$1,$6,$7,$8,$9,0*
20,1,$1+$1,$8,$9,$2,$3,0*%
G04 Aperture macros list end*
%ADD10C,5.600000*%
%ADD11RoundRect,0.250000X1.750000X-1.750000X1.750000X1.750000X-1.750000X1.750000X-1.750000X-1.750000X0*%
%ADD12C,4.000000*%
%ADD13RoundRect,0.250000X-0.475000X0.337500X-0.475000X-0.337500X0.475000X-0.337500X0.475000X0.337500X0*%
%ADD14RoundRect,0.375000X-0.625000X-0.375000X0.625000X-0.375000X0.625000X0.375000X-0.625000X0.375000X0*%
%ADD15RoundRect,0.500000X-0.500000X-1.400000X0.500000X-1.400000X0.500000X1.400000X-0.500000X1.400000X0*%
%ADD16C,3.000000*%
%ADD17RoundRect,0.250000X-0.400000X-0.600000X0.400000X-0.600000X0.400000X0.600000X-0.400000X0.600000X0*%
%ADD18RoundRect,0.250000X0.475000X-0.337500X0.475000X0.337500X-0.475000X0.337500X-0.475000X-0.337500X0*%
%ADD19RoundRect,0.250000X1.800000X-1.330000X1.800000X1.330000X-1.800000X1.330000X-1.800000X-1.330000X0*%
%ADD20O,4.100000X3.160000*%
%ADD21RoundRect,0.250000X0.400000X0.600000X-0.400000X0.600000X-0.400000X-0.600000X0.400000X-0.600000X0*%
%ADD22R,1.905000X2.000000*%
%ADD23O,1.905000X2.000000*%
%ADD24RoundRect,0.250000X-0.600000X0.400000X-0.600000X-0.400000X0.600000X-0.400000X0.600000X0.400000X0*%
%ADD25RoundRect,0.250000X0.337500X0.475000X-0.337500X0.475000X-0.337500X-0.475000X0.337500X-0.475000X0*%
%ADD26RoundRect,0.250001X-0.949999X0.949999X-0.949999X-0.949999X0.949999X-0.949999X0.949999X0.949999X0*%
%ADD27C,2.400000*%
%ADD28C,6.000000*%
%ADD29RoundRect,0.150000X-0.512500X-0.150000X0.512500X-0.150000X0.512500X0.150000X-0.512500X0.150000X0*%
%ADD30R,1.500000X1.300000*%
%ADD31RoundRect,0.250000X-0.337500X-0.475000X0.337500X-0.475000X0.337500X0.475000X-0.337500X0.475000X0*%
%ADD32RoundRect,0.375000X0.625000X0.375000X-0.625000X0.375000X-0.625000X-0.375000X0.625000X-0.375000X0*%
%ADD33RoundRect,0.500000X0.500000X1.400000X-0.500000X1.400000X-0.500000X-1.400000X0.500000X-1.400000X0*%
%ADD34RoundRect,0.150000X0.150000X-0.512500X0.150000X0.512500X-0.150000X0.512500X-0.150000X-0.512500X0*%
G04 APERTURE END LIST*
D10*
%TO.C,H3*%
X213570000Y-54550000D03*
%TD*%
%TO.C,H2*%
X138050000Y-54550000D03*
%TD*%
%TO.C,H1*%
X171760000Y-75670000D03*
%TD*%
D11*
%TO.C,C2*%
X153190000Y-70907935D03*
D12*
X153190000Y-60907935D03*
%TD*%
D13*
%TO.C,R6*%
X200130000Y-76912500D03*
X200130000Y-78987500D03*
%TD*%
D14*
%TO.C,Q2*%
X193070000Y-65357500D03*
X193070000Y-67657500D03*
D15*
X199370000Y-67657500D03*
D14*
X193070000Y-69957500D03*
%TD*%
D16*
%TO.C,H5*%
X171830000Y-58350000D03*
%TD*%
%TO.C,H6*%
X175610000Y-57460000D03*
%TD*%
D17*
%TO.C,D3*%
X188842500Y-62860000D03*
X192342500Y-62860000D03*
%TD*%
D16*
%TO.C,H8*%
X195800000Y-57420000D03*
%TD*%
D13*
%TO.C,R4*%
X188870000Y-65372500D03*
X188870000Y-67447500D03*
%TD*%
D18*
%TO.C,R3*%
X210870000Y-70365000D03*
X210870000Y-68290000D03*
%TD*%
D16*
%TO.C,H7*%
X199430000Y-58260000D03*
%TD*%
D19*
%TO.C,J2*%
X224565000Y-63450000D03*
D20*
X224565000Y-59490000D03*
%TD*%
D21*
%TO.C,D2*%
X183900000Y-75660000D03*
X180400000Y-75660000D03*
%TD*%
D22*
%TO.C,U1*%
X183020000Y-57480000D03*
D23*
X185560000Y-57480000D03*
X188100000Y-57480000D03*
%TD*%
D24*
%TO.C,D4*%
X203370000Y-69592500D03*
X203370000Y-73092500D03*
%TD*%
D25*
%TO.C,RVset1*%
X207687500Y-76970000D03*
X205612500Y-76970000D03*
%TD*%
D21*
%TO.C,D1*%
X190527500Y-75660000D03*
X187027500Y-75660000D03*
%TD*%
D13*
%TO.C,R2*%
X188870000Y-69382500D03*
X188870000Y-71457500D03*
%TD*%
D26*
%TO.C,C1*%
X218840000Y-70680000D03*
D27*
X218840000Y-75680000D03*
%TD*%
D28*
%TO.C,HS1*%
X172960000Y-53230000D03*
X198360000Y-53230000D03*
%TD*%
D19*
%TO.C,J1*%
X129130000Y-76100000D03*
D20*
X129130000Y-72140000D03*
%TD*%
D29*
%TO.C,U2*%
X205790000Y-69600000D03*
X205790000Y-71500000D03*
X208065000Y-70550000D03*
%TD*%
D30*
%TO.C,D5*%
X133290000Y-65070000D03*
X133290000Y-59970000D03*
X124390000Y-59970000D03*
X124390000Y-65070000D03*
%TD*%
D31*
%TO.C,R1*%
X181820000Y-63152500D03*
X183895000Y-63152500D03*
%TD*%
D13*
%TO.C,R5*%
X196440000Y-76892500D03*
X196440000Y-78967500D03*
%TD*%
D32*
%TO.C,Q1*%
X183897500Y-71472500D03*
X183897500Y-69172500D03*
D33*
X177597500Y-69172500D03*
D32*
X183897500Y-66872500D03*
%TD*%
D34*
%TO.C,U3*%
X196560000Y-74917500D03*
X198460000Y-74917500D03*
X197510000Y-72642500D03*
%TD*%
M02*
