%TF.GenerationSoftware,KiCad,Pcbnew,9.0.5*%
%TF.CreationDate,2025-11-24T15:53:12+01:00*%
%TF.ProjectId,simplified HV amp,73696d70-6c69-4666-9965-642048562061,rev?*%
%TF.SameCoordinates,Original*%
%TF.FileFunction,Legend,Bot*%
%TF.FilePolarity,Positive*%
%FSLAX46Y46*%
G04 Gerber Fmt 4.6, Leading zero omitted, Abs format (unit mm)*
G04 Created by KiCad (PCBNEW 9.0.5) date 2025-11-24 15:53:12*
%MOMM*%
%LPD*%
G01*
G04 APERTURE LIST*
%ADD10C,0.150000*%
%ADD11C,0.120000*%
G04 APERTURE END LIST*
D10*
X179354819Y-106973333D02*
X178878628Y-106640000D01*
X179354819Y-106401905D02*
X178354819Y-106401905D01*
X178354819Y-106401905D02*
X178354819Y-106782857D01*
X178354819Y-106782857D02*
X178402438Y-106878095D01*
X178402438Y-106878095D02*
X178450057Y-106925714D01*
X178450057Y-106925714D02*
X178545295Y-106973333D01*
X178545295Y-106973333D02*
X178688152Y-106973333D01*
X178688152Y-106973333D02*
X178783390Y-106925714D01*
X178783390Y-106925714D02*
X178831009Y-106878095D01*
X178831009Y-106878095D02*
X178878628Y-106782857D01*
X178878628Y-106782857D02*
X178878628Y-106401905D01*
X178354819Y-107306667D02*
X178354819Y-107925714D01*
X178354819Y-107925714D02*
X178735771Y-107592381D01*
X178735771Y-107592381D02*
X178735771Y-107735238D01*
X178735771Y-107735238D02*
X178783390Y-107830476D01*
X178783390Y-107830476D02*
X178831009Y-107878095D01*
X178831009Y-107878095D02*
X178926247Y-107925714D01*
X178926247Y-107925714D02*
X179164342Y-107925714D01*
X179164342Y-107925714D02*
X179259580Y-107878095D01*
X179259580Y-107878095D02*
X179307200Y-107830476D01*
X179307200Y-107830476D02*
X179354819Y-107735238D01*
X179354819Y-107735238D02*
X179354819Y-107449524D01*
X179354819Y-107449524D02*
X179307200Y-107354286D01*
X179307200Y-107354286D02*
X179259580Y-107306667D01*
D11*
X178985365Y-82732822D02*
X178419680Y-82167136D01*
X178419680Y-82167136D02*
X178284993Y-82301823D01*
X178284993Y-82301823D02*
X178231118Y-82409573D01*
X178231118Y-82409573D02*
X178231118Y-82517322D01*
X178231118Y-82517322D02*
X178258056Y-82598135D01*
X178258056Y-82598135D02*
X178338868Y-82732822D01*
X178338868Y-82732822D02*
X178419680Y-82813634D01*
X178419680Y-82813634D02*
X178554367Y-82894446D01*
X178554367Y-82894446D02*
X178635179Y-82921383D01*
X178635179Y-82921383D02*
X178742929Y-82921383D01*
X178742929Y-82921383D02*
X178850678Y-82867509D01*
X178850678Y-82867509D02*
X178985365Y-82732822D01*
X178123369Y-83594818D02*
X178446617Y-83271570D01*
X178284993Y-83433194D02*
X177719308Y-82867509D01*
X177719308Y-82867509D02*
X177853995Y-82894446D01*
X177853995Y-82894446D02*
X177961744Y-82894446D01*
X177961744Y-82894446D02*
X178042556Y-82867509D01*
X183286879Y-67259593D02*
X182721194Y-66693907D01*
X182721194Y-66693907D02*
X182586507Y-66828594D01*
X182586507Y-66828594D02*
X182532632Y-66936344D01*
X182532632Y-66936344D02*
X182532632Y-67044093D01*
X182532632Y-67044093D02*
X182559570Y-67124906D01*
X182559570Y-67124906D02*
X182640382Y-67259593D01*
X182640382Y-67259593D02*
X182721194Y-67340405D01*
X182721194Y-67340405D02*
X182855881Y-67421217D01*
X182855881Y-67421217D02*
X182936693Y-67448154D01*
X182936693Y-67448154D02*
X183044443Y-67448154D01*
X183044443Y-67448154D02*
X183152192Y-67394280D01*
X183152192Y-67394280D02*
X183286879Y-67259593D01*
X182101634Y-67690591D02*
X182478757Y-68067715D01*
X182020822Y-67340405D02*
X182559570Y-67609779D01*
X182559570Y-67609779D02*
X182209383Y-67959965D01*
X167413884Y-89946922D02*
X167680551Y-89565969D01*
X167871027Y-89946922D02*
X167871027Y-89146922D01*
X167871027Y-89146922D02*
X167566265Y-89146922D01*
X167566265Y-89146922D02*
X167490075Y-89185017D01*
X167490075Y-89185017D02*
X167451980Y-89223112D01*
X167451980Y-89223112D02*
X167413884Y-89299303D01*
X167413884Y-89299303D02*
X167413884Y-89413588D01*
X167413884Y-89413588D02*
X167451980Y-89489779D01*
X167451980Y-89489779D02*
X167490075Y-89527874D01*
X167490075Y-89527874D02*
X167566265Y-89565969D01*
X167566265Y-89565969D02*
X167871027Y-89565969D01*
X166728170Y-89146922D02*
X166880551Y-89146922D01*
X166880551Y-89146922D02*
X166956742Y-89185017D01*
X166956742Y-89185017D02*
X166994837Y-89223112D01*
X166994837Y-89223112D02*
X167071027Y-89337398D01*
X167071027Y-89337398D02*
X167109123Y-89489779D01*
X167109123Y-89489779D02*
X167109123Y-89794541D01*
X167109123Y-89794541D02*
X167071027Y-89870731D01*
X167071027Y-89870731D02*
X167032932Y-89908827D01*
X167032932Y-89908827D02*
X166956742Y-89946922D01*
X166956742Y-89946922D02*
X166804361Y-89946922D01*
X166804361Y-89946922D02*
X166728170Y-89908827D01*
X166728170Y-89908827D02*
X166690075Y-89870731D01*
X166690075Y-89870731D02*
X166651980Y-89794541D01*
X166651980Y-89794541D02*
X166651980Y-89604065D01*
X166651980Y-89604065D02*
X166690075Y-89527874D01*
X166690075Y-89527874D02*
X166728170Y-89489779D01*
X166728170Y-89489779D02*
X166804361Y-89451684D01*
X166804361Y-89451684D02*
X166956742Y-89451684D01*
X166956742Y-89451684D02*
X167032932Y-89489779D01*
X167032932Y-89489779D02*
X167071027Y-89527874D01*
X167071027Y-89527874D02*
X167109123Y-89604065D01*
X169443332Y-104693855D02*
X169709999Y-104312902D01*
X169900475Y-104693855D02*
X169900475Y-103893855D01*
X169900475Y-103893855D02*
X169595713Y-103893855D01*
X169595713Y-103893855D02*
X169519523Y-103931950D01*
X169519523Y-103931950D02*
X169481428Y-103970045D01*
X169481428Y-103970045D02*
X169443332Y-104046236D01*
X169443332Y-104046236D02*
X169443332Y-104160521D01*
X169443332Y-104160521D02*
X169481428Y-104236712D01*
X169481428Y-104236712D02*
X169519523Y-104274807D01*
X169519523Y-104274807D02*
X169595713Y-104312902D01*
X169595713Y-104312902D02*
X169900475Y-104312902D01*
X168757618Y-104160521D02*
X168757618Y-104693855D01*
X168948094Y-103855760D02*
X169138571Y-104427188D01*
X169138571Y-104427188D02*
X168643332Y-104427188D01*
X182893855Y-101376667D02*
X182512902Y-101110000D01*
X182893855Y-100919524D02*
X182093855Y-100919524D01*
X182093855Y-100919524D02*
X182093855Y-101224286D01*
X182093855Y-101224286D02*
X182131950Y-101300476D01*
X182131950Y-101300476D02*
X182170045Y-101338571D01*
X182170045Y-101338571D02*
X182246236Y-101376667D01*
X182246236Y-101376667D02*
X182360521Y-101376667D01*
X182360521Y-101376667D02*
X182436712Y-101338571D01*
X182436712Y-101338571D02*
X182474807Y-101300476D01*
X182474807Y-101300476D02*
X182512902Y-101224286D01*
X182512902Y-101224286D02*
X182512902Y-100919524D01*
X182170045Y-101681428D02*
X182131950Y-101719524D01*
X182131950Y-101719524D02*
X182093855Y-101795714D01*
X182093855Y-101795714D02*
X182093855Y-101986190D01*
X182093855Y-101986190D02*
X182131950Y-102062381D01*
X182131950Y-102062381D02*
X182170045Y-102100476D01*
X182170045Y-102100476D02*
X182246236Y-102138571D01*
X182246236Y-102138571D02*
X182322426Y-102138571D01*
X182322426Y-102138571D02*
X182436712Y-102100476D01*
X182436712Y-102100476D02*
X182893855Y-101643333D01*
X182893855Y-101643333D02*
X182893855Y-102138571D01*
D10*
X166386666Y-101224819D02*
X166719999Y-100748628D01*
X166958094Y-101224819D02*
X166958094Y-100224819D01*
X166958094Y-100224819D02*
X166577142Y-100224819D01*
X166577142Y-100224819D02*
X166481904Y-100272438D01*
X166481904Y-100272438D02*
X166434285Y-100320057D01*
X166434285Y-100320057D02*
X166386666Y-100415295D01*
X166386666Y-100415295D02*
X166386666Y-100558152D01*
X166386666Y-100558152D02*
X166434285Y-100653390D01*
X166434285Y-100653390D02*
X166481904Y-100701009D01*
X166481904Y-100701009D02*
X166577142Y-100748628D01*
X166577142Y-100748628D02*
X166958094Y-100748628D01*
X165481904Y-100224819D02*
X165958094Y-100224819D01*
X165958094Y-100224819D02*
X166005713Y-100701009D01*
X166005713Y-100701009D02*
X165958094Y-100653390D01*
X165958094Y-100653390D02*
X165862856Y-100605771D01*
X165862856Y-100605771D02*
X165624761Y-100605771D01*
X165624761Y-100605771D02*
X165529523Y-100653390D01*
X165529523Y-100653390D02*
X165481904Y-100701009D01*
X165481904Y-100701009D02*
X165434285Y-100796247D01*
X165434285Y-100796247D02*
X165434285Y-101034342D01*
X165434285Y-101034342D02*
X165481904Y-101129580D01*
X165481904Y-101129580D02*
X165529523Y-101177200D01*
X165529523Y-101177200D02*
X165624761Y-101224819D01*
X165624761Y-101224819D02*
X165862856Y-101224819D01*
X165862856Y-101224819D02*
X165958094Y-101177200D01*
X165958094Y-101177200D02*
X166005713Y-101129580D01*
D11*
X165975332Y-68421855D02*
X166241999Y-68040902D01*
X166432475Y-68421855D02*
X166432475Y-67621855D01*
X166432475Y-67621855D02*
X166127713Y-67621855D01*
X166127713Y-67621855D02*
X166051523Y-67659950D01*
X166051523Y-67659950D02*
X166013428Y-67698045D01*
X166013428Y-67698045D02*
X165975332Y-67774236D01*
X165975332Y-67774236D02*
X165975332Y-67888521D01*
X165975332Y-67888521D02*
X166013428Y-67964712D01*
X166013428Y-67964712D02*
X166051523Y-68002807D01*
X166051523Y-68002807D02*
X166127713Y-68040902D01*
X166127713Y-68040902D02*
X166432475Y-68040902D01*
X165213428Y-68421855D02*
X165670571Y-68421855D01*
X165441999Y-68421855D02*
X165441999Y-67621855D01*
X165441999Y-67621855D02*
X165518190Y-67736140D01*
X165518190Y-67736140D02*
X165594380Y-67812331D01*
X165594380Y-67812331D02*
X165670571Y-67850426D01*
X176690796Y-97427880D02*
X177256482Y-96862195D01*
X177256482Y-96862195D02*
X177121795Y-96727508D01*
X177121795Y-96727508D02*
X177014045Y-96673633D01*
X177014045Y-96673633D02*
X176906296Y-96673633D01*
X176906296Y-96673633D02*
X176825483Y-96700571D01*
X176825483Y-96700571D02*
X176690796Y-96781383D01*
X176690796Y-96781383D02*
X176609984Y-96862195D01*
X176609984Y-96862195D02*
X176529172Y-96996882D01*
X176529172Y-96996882D02*
X176502235Y-97077694D01*
X176502235Y-97077694D02*
X176502235Y-97185444D01*
X176502235Y-97185444D02*
X176556109Y-97293193D01*
X176556109Y-97293193D02*
X176690796Y-97427880D01*
X176744671Y-96350384D02*
X176394485Y-96000198D01*
X176394485Y-96000198D02*
X176367548Y-96404259D01*
X176367548Y-96404259D02*
X176286735Y-96323447D01*
X176286735Y-96323447D02*
X176205923Y-96296510D01*
X176205923Y-96296510D02*
X176152048Y-96296510D01*
X176152048Y-96296510D02*
X176071236Y-96323447D01*
X176071236Y-96323447D02*
X175936549Y-96458134D01*
X175936549Y-96458134D02*
X175909612Y-96538946D01*
X175909612Y-96538946D02*
X175909612Y-96592821D01*
X175909612Y-96592821D02*
X175936549Y-96673633D01*
X175936549Y-96673633D02*
X176098174Y-96835258D01*
X176098174Y-96835258D02*
X176178986Y-96862195D01*
X176178986Y-96862195D02*
X176232861Y-96862195D01*
X177381422Y-93030758D02*
X177381422Y-93084633D01*
X177381422Y-93084633D02*
X177435297Y-93192382D01*
X177435297Y-93192382D02*
X177489172Y-93246257D01*
X177489172Y-93246257D02*
X177596922Y-93300132D01*
X177596922Y-93300132D02*
X177704671Y-93300132D01*
X177704671Y-93300132D02*
X177785483Y-93273194D01*
X177785483Y-93273194D02*
X177920170Y-93192382D01*
X177920170Y-93192382D02*
X178000983Y-93111570D01*
X178000983Y-93111570D02*
X178081795Y-92976883D01*
X178081795Y-92976883D02*
X178108732Y-92896071D01*
X178108732Y-92896071D02*
X178108732Y-92788321D01*
X178108732Y-92788321D02*
X178054857Y-92680572D01*
X178054857Y-92680572D02*
X178000983Y-92626697D01*
X178000983Y-92626697D02*
X177893233Y-92572822D01*
X177893233Y-92572822D02*
X177839358Y-92572822D01*
X177704671Y-92330385D02*
X177354485Y-91980199D01*
X177354485Y-91980199D02*
X177327548Y-92384260D01*
X177327548Y-92384260D02*
X177246735Y-92303448D01*
X177246735Y-92303448D02*
X177165923Y-92276511D01*
X177165923Y-92276511D02*
X177112048Y-92276511D01*
X177112048Y-92276511D02*
X177031236Y-92303448D01*
X177031236Y-92303448D02*
X176896549Y-92438135D01*
X176896549Y-92438135D02*
X176869612Y-92518947D01*
X176869612Y-92518947D02*
X176869612Y-92572822D01*
X176869612Y-92572822D02*
X176896549Y-92653634D01*
X176896549Y-92653634D02*
X177058174Y-92815259D01*
X177058174Y-92815259D02*
X177138986Y-92842196D01*
X177138986Y-92842196D02*
X177192861Y-92842196D01*
X183785365Y-87192822D02*
X183219680Y-86627136D01*
X183219680Y-86627136D02*
X183084993Y-86761823D01*
X183084993Y-86761823D02*
X183031118Y-86869573D01*
X183031118Y-86869573D02*
X183031118Y-86977322D01*
X183031118Y-86977322D02*
X183058056Y-87058135D01*
X183058056Y-87058135D02*
X183138868Y-87192822D01*
X183138868Y-87192822D02*
X183219680Y-87273634D01*
X183219680Y-87273634D02*
X183354367Y-87354446D01*
X183354367Y-87354446D02*
X183435179Y-87381383D01*
X183435179Y-87381383D02*
X183542929Y-87381383D01*
X183542929Y-87381383D02*
X183650678Y-87327509D01*
X183650678Y-87327509D02*
X183785365Y-87192822D01*
X182734807Y-87219759D02*
X182680932Y-87219759D01*
X182680932Y-87219759D02*
X182600120Y-87246696D01*
X182600120Y-87246696D02*
X182465433Y-87381383D01*
X182465433Y-87381383D02*
X182438495Y-87462196D01*
X182438495Y-87462196D02*
X182438495Y-87516070D01*
X182438495Y-87516070D02*
X182465433Y-87596883D01*
X182465433Y-87596883D02*
X182519308Y-87650757D01*
X182519308Y-87650757D02*
X182627057Y-87704632D01*
X182627057Y-87704632D02*
X183273555Y-87704632D01*
X183273555Y-87704632D02*
X182923369Y-88054818D01*
X177769182Y-68100251D02*
X177823057Y-68100251D01*
X177823057Y-68100251D02*
X177930806Y-68046376D01*
X177930806Y-68046376D02*
X177984681Y-67992501D01*
X177984681Y-67992501D02*
X178038556Y-67884751D01*
X178038556Y-67884751D02*
X178038556Y-67777002D01*
X178038556Y-67777002D02*
X178011618Y-67696190D01*
X178011618Y-67696190D02*
X177930806Y-67561503D01*
X177930806Y-67561503D02*
X177849994Y-67480690D01*
X177849994Y-67480690D02*
X177715307Y-67399878D01*
X177715307Y-67399878D02*
X177634495Y-67372941D01*
X177634495Y-67372941D02*
X177526745Y-67372941D01*
X177526745Y-67372941D02*
X177418996Y-67426816D01*
X177418996Y-67426816D02*
X177365121Y-67480690D01*
X177365121Y-67480690D02*
X177311246Y-67588440D01*
X177311246Y-67588440D02*
X177311246Y-67642315D01*
X176961060Y-68261875D02*
X177338183Y-68638999D01*
X176880248Y-67911689D02*
X177418996Y-68181063D01*
X177418996Y-68181063D02*
X177068809Y-68531249D01*
X159723664Y-71408667D02*
X159761760Y-71370571D01*
X159761760Y-71370571D02*
X159799855Y-71256286D01*
X159799855Y-71256286D02*
X159799855Y-71180095D01*
X159799855Y-71180095D02*
X159761760Y-71065809D01*
X159761760Y-71065809D02*
X159685569Y-70989619D01*
X159685569Y-70989619D02*
X159609379Y-70951524D01*
X159609379Y-70951524D02*
X159456998Y-70913428D01*
X159456998Y-70913428D02*
X159342712Y-70913428D01*
X159342712Y-70913428D02*
X159190331Y-70951524D01*
X159190331Y-70951524D02*
X159114140Y-70989619D01*
X159114140Y-70989619D02*
X159037950Y-71065809D01*
X159037950Y-71065809D02*
X158999855Y-71180095D01*
X158999855Y-71180095D02*
X158999855Y-71256286D01*
X158999855Y-71256286D02*
X159037950Y-71370571D01*
X159037950Y-71370571D02*
X159076045Y-71408667D01*
X159799855Y-72170571D02*
X159799855Y-71713428D01*
X159799855Y-71942000D02*
X158999855Y-71942000D01*
X158999855Y-71942000D02*
X159114140Y-71865809D01*
X159114140Y-71865809D02*
X159190331Y-71789619D01*
X159190331Y-71789619D02*
X159228426Y-71713428D01*
%TO.C,R3*%
X179820000Y-106412936D02*
X179820000Y-107867064D01*
X181640000Y-106412936D02*
X181640000Y-107867064D01*
%TO.C,D1*%
X176487810Y-86081595D02*
X179210171Y-83359234D01*
X177902024Y-87495809D02*
X176487810Y-86081595D01*
X177902024Y-87495809D02*
X180624385Y-84773448D01*
%TO.C,D4*%
X180625096Y-67045071D02*
X175746059Y-71924108D01*
X180625096Y-67045071D02*
X182958548Y-69378523D01*
X182958548Y-69378523D02*
X178079511Y-74257560D01*
%TO.C,R6*%
X163173488Y-88683067D02*
X164627616Y-88683067D01*
X163173488Y-90503067D02*
X164627616Y-90503067D01*
%TO.C,R4*%
X168652936Y-101530000D02*
X170107064Y-101530000D01*
X168652936Y-103350000D02*
X170107064Y-103350000D01*
%TO.C,R2*%
X179850000Y-102237064D02*
X179850000Y-100782936D01*
X181670000Y-102237064D02*
X181670000Y-100782936D01*
%TO.C,R5*%
X165492936Y-98030000D02*
X166947064Y-98030000D01*
X165492936Y-99850000D02*
X166947064Y-99850000D01*
%TO.C,R1*%
X165124936Y-69068000D02*
X166579064Y-69068000D01*
X165124936Y-70888000D02*
X166579064Y-70888000D01*
%TO.C,D3*%
X168322556Y-90798523D02*
X170656008Y-88465071D01*
X168322556Y-90798523D02*
X173201593Y-95677560D01*
X170656008Y-88465071D02*
X175535045Y-93344108D01*
%TO.C,C3*%
X173639008Y-90088457D02*
X174644870Y-91094319D01*
X174925942Y-88801523D02*
X175931804Y-89807385D01*
%TO.C,D2*%
X181479080Y-84760325D02*
X178756719Y-87482686D01*
X181479080Y-84760325D02*
X182893294Y-86174539D01*
X182893294Y-86174539D02*
X180170933Y-88896900D01*
%TO.C,C4*%
X173744154Y-70332531D02*
X174750016Y-69326669D01*
X175031088Y-71619465D02*
X176036950Y-70613603D01*
%TO.C,C1*%
X160242000Y-70866748D02*
X160242000Y-72289252D01*
X162062000Y-70866748D02*
X162062000Y-72289252D01*
%TD*%
M02*
