%TF.GenerationSoftware,KiCad,Pcbnew,9.0.5*%
%TF.CreationDate,2025-11-30T23:48:03+01:00*%
%TF.ProjectId,Amplifier,416d706c-6966-4696-9572-2e6b69636164,rev?*%
%TF.SameCoordinates,Original*%
%TF.FileFunction,Legend,Top*%
%TF.FilePolarity,Positive*%
%FSLAX46Y46*%
G04 Gerber Fmt 4.6, Leading zero omitted, Abs format (unit mm)*
G04 Created by KiCad (PCBNEW 9.0.5) date 2025-11-30 23:48:03*
%MOMM*%
%LPD*%
G01*
G04 APERTURE LIST*
%ADD10C,0.150000*%
%ADD11C,0.200000*%
%ADD12C,0.120000*%
G04 APERTURE END LIST*
D10*
G36*
X140535573Y-107278056D02*
G01*
X140575503Y-107317986D01*
X140623519Y-107414019D01*
X140676428Y-107625652D01*
X140676428Y-107892897D01*
X140623519Y-108104529D01*
X140575503Y-108200562D01*
X140535573Y-108240492D01*
X140448009Y-108284274D01*
X140369133Y-108284274D01*
X140281569Y-108240492D01*
X140241639Y-108200562D01*
X140193621Y-108104526D01*
X140140714Y-107892897D01*
X140140714Y-107625651D01*
X140193621Y-107414022D01*
X140241639Y-107317987D01*
X140281570Y-107278055D01*
X140369133Y-107234274D01*
X140448009Y-107234274D01*
X140535573Y-107278056D01*
G37*
G36*
X141678430Y-107278056D02*
G01*
X141718360Y-107317986D01*
X141766376Y-107414019D01*
X141819285Y-107625652D01*
X141819285Y-107892897D01*
X141766376Y-108104529D01*
X141718360Y-108200562D01*
X141678430Y-108240492D01*
X141590866Y-108284274D01*
X141511990Y-108284274D01*
X141424426Y-108240492D01*
X141384496Y-108200562D01*
X141336478Y-108104526D01*
X141283571Y-107892897D01*
X141283571Y-107625651D01*
X141336478Y-107414022D01*
X141384496Y-107317987D01*
X141424427Y-107278055D01*
X141511990Y-107234274D01*
X141590866Y-107234274D01*
X141678430Y-107278056D01*
G37*
G36*
X136162145Y-105730837D02*
G01*
X136162145Y-106323847D01*
X136105154Y-106352342D01*
X135911992Y-106352342D01*
X135824428Y-106308560D01*
X135784498Y-106268630D01*
X135740716Y-106181066D01*
X135740716Y-105873619D01*
X135784498Y-105786055D01*
X135824429Y-105746123D01*
X135911992Y-105702342D01*
X136105154Y-105702342D01*
X136162145Y-105730837D01*
G37*
G36*
X143762143Y-105730837D02*
G01*
X143762143Y-106323847D01*
X143705152Y-106352342D01*
X143511990Y-106352342D01*
X143424426Y-106308560D01*
X143384496Y-106268630D01*
X143340714Y-106181066D01*
X143340714Y-105873619D01*
X143384496Y-105786055D01*
X143424427Y-105746123D01*
X143511990Y-105702342D01*
X143705152Y-105702342D01*
X143762143Y-105730837D01*
G37*
G36*
X140249860Y-105746124D02*
G01*
X140289790Y-105786054D01*
X140333572Y-105873617D01*
X140333572Y-106181067D01*
X140289790Y-106268630D01*
X140249860Y-106308560D01*
X140162296Y-106352342D01*
X140026277Y-106352342D01*
X139938713Y-106308560D01*
X139898783Y-106268630D01*
X139855001Y-106181066D01*
X139855001Y-105873619D01*
X139898783Y-105786055D01*
X139938714Y-105746123D01*
X140026277Y-105702342D01*
X140162296Y-105702342D01*
X140249860Y-105746124D01*
G37*
G36*
X142676429Y-106323847D02*
G01*
X142619438Y-106352342D01*
X142369133Y-106352342D01*
X142293044Y-106314298D01*
X142255000Y-106238209D01*
X142255000Y-106159333D01*
X142293044Y-106083243D01*
X142369133Y-106045200D01*
X142637143Y-106045200D01*
X142651775Y-106043759D01*
X142654264Y-106042727D01*
X142656952Y-106042537D01*
X142670684Y-106037282D01*
X142676429Y-106034409D01*
X142676429Y-106323847D01*
G37*
G36*
X144809812Y-105740386D02*
G01*
X144847857Y-105816476D01*
X144847857Y-105851572D01*
X144426428Y-105935856D01*
X144426428Y-105816476D01*
X144464472Y-105740386D01*
X144540562Y-105702342D01*
X144733723Y-105702342D01*
X144809812Y-105740386D01*
G37*
G36*
X139619286Y-103798905D02*
G01*
X139619286Y-104391915D01*
X139562295Y-104420410D01*
X139369133Y-104420410D01*
X139281569Y-104376628D01*
X139241639Y-104336698D01*
X139197857Y-104249134D01*
X139197857Y-103941687D01*
X139241639Y-103854123D01*
X139281570Y-103814191D01*
X139369133Y-103770410D01*
X139562295Y-103770410D01*
X139619286Y-103798905D01*
G37*
G36*
X136225200Y-103418104D02*
G01*
X136318360Y-103511265D01*
X136366378Y-103607301D01*
X136419286Y-103818931D01*
X136419286Y-103971890D01*
X136366378Y-104183520D01*
X136318360Y-104279555D01*
X136225200Y-104372716D01*
X136082116Y-104420410D01*
X135883572Y-104420410D01*
X135883572Y-103370410D01*
X136082116Y-103370410D01*
X136225200Y-103418104D01*
G37*
G36*
X137447858Y-104391915D02*
G01*
X137390867Y-104420410D01*
X137140562Y-104420410D01*
X137064473Y-104382366D01*
X137026429Y-104306277D01*
X137026429Y-104227401D01*
X137064473Y-104151311D01*
X137140562Y-104113268D01*
X137408572Y-104113268D01*
X137423204Y-104111827D01*
X137425693Y-104110795D01*
X137428381Y-104110605D01*
X137442113Y-104105350D01*
X137447858Y-104102477D01*
X137447858Y-104391915D01*
G37*
G36*
X140666955Y-103808454D02*
G01*
X140705000Y-103884544D01*
X140705000Y-103919640D01*
X140283571Y-104003924D01*
X140283571Y-103884544D01*
X140321615Y-103808454D01*
X140397705Y-103770410D01*
X140590866Y-103770410D01*
X140666955Y-103808454D01*
G37*
G36*
X145131190Y-108567607D02*
G01*
X133685954Y-108567607D01*
X133685954Y-107887500D01*
X135935013Y-107887500D01*
X135935013Y-107916764D01*
X135946212Y-107943800D01*
X135966904Y-107964492D01*
X135993940Y-107975691D01*
X136008572Y-107977132D01*
X136390715Y-107977132D01*
X136390715Y-108359274D01*
X136392156Y-108373906D01*
X136403355Y-108400942D01*
X136424047Y-108421634D01*
X136451083Y-108432833D01*
X136480347Y-108432833D01*
X136507383Y-108421634D01*
X136528075Y-108400942D01*
X136539274Y-108373906D01*
X136540715Y-108359274D01*
X136540715Y-108344642D01*
X138792155Y-108344642D01*
X138792155Y-108373906D01*
X138803354Y-108400942D01*
X138824046Y-108421634D01*
X138851082Y-108432833D01*
X138865714Y-108434274D01*
X139608571Y-108434274D01*
X139623203Y-108432833D01*
X139650239Y-108421634D01*
X139670931Y-108400942D01*
X139682130Y-108373906D01*
X139682130Y-108344642D01*
X139670931Y-108317606D01*
X139650239Y-108296914D01*
X139623203Y-108285715D01*
X139608571Y-108284274D01*
X139046780Y-108284274D01*
X139604461Y-107726593D01*
X139613788Y-107715228D01*
X139614818Y-107712739D01*
X139616585Y-107710703D01*
X139622579Y-107697277D01*
X139649532Y-107616417D01*
X139990714Y-107616417D01*
X139990714Y-107902132D01*
X139990965Y-107904685D01*
X139990803Y-107905778D01*
X139991612Y-107911251D01*
X139992155Y-107916764D01*
X139992577Y-107917785D01*
X139992953Y-107920322D01*
X140050096Y-108148894D01*
X140050481Y-108149973D01*
X140050520Y-108150512D01*
X140052844Y-108156587D01*
X140055043Y-108162739D01*
X140055365Y-108163174D01*
X140055775Y-108164244D01*
X140112918Y-108278530D01*
X140116881Y-108284826D01*
X140117640Y-108286657D01*
X140119331Y-108288718D01*
X140120751Y-108290973D01*
X140122246Y-108292270D01*
X140126967Y-108298022D01*
X140184110Y-108355165D01*
X140189859Y-108359883D01*
X140191159Y-108361382D01*
X140193418Y-108362803D01*
X140195475Y-108364492D01*
X140197302Y-108365249D01*
X140203602Y-108369214D01*
X140317887Y-108426356D01*
X140331619Y-108431611D01*
X140334306Y-108431801D01*
X140336796Y-108432833D01*
X140351428Y-108434274D01*
X140465714Y-108434274D01*
X140480346Y-108432833D01*
X140482835Y-108431801D01*
X140485523Y-108431611D01*
X140499255Y-108426356D01*
X140613540Y-108369214D01*
X140619837Y-108365250D01*
X140621668Y-108364492D01*
X140623728Y-108362801D01*
X140625983Y-108361382D01*
X140627280Y-108359885D01*
X140633033Y-108355165D01*
X140690176Y-108298022D01*
X140694896Y-108292269D01*
X140696393Y-108290972D01*
X140697812Y-108288716D01*
X140699503Y-108286657D01*
X140700260Y-108284827D01*
X140704225Y-108278530D01*
X140761367Y-108164244D01*
X140761776Y-108163174D01*
X140762099Y-108162739D01*
X140764294Y-108156593D01*
X140766622Y-108150512D01*
X140766660Y-108149972D01*
X140767046Y-108148893D01*
X140824189Y-107920322D01*
X140824564Y-107917784D01*
X140824987Y-107916764D01*
X140825528Y-107911261D01*
X140826340Y-107905777D01*
X140826176Y-107904681D01*
X140826428Y-107902132D01*
X140826428Y-107616417D01*
X141133571Y-107616417D01*
X141133571Y-107902132D01*
X141133822Y-107904685D01*
X141133660Y-107905778D01*
X141134469Y-107911251D01*
X141135012Y-107916764D01*
X141135434Y-107917785D01*
X141135810Y-107920322D01*
X141192953Y-108148894D01*
X141193338Y-108149973D01*
X141193377Y-108150512D01*
X141195701Y-108156587D01*
X141197900Y-108162739D01*
X141198222Y-108163174D01*
X141198632Y-108164244D01*
X141255775Y-108278530D01*
X141259738Y-108284826D01*
X141260497Y-108286657D01*
X141262188Y-108288718D01*
X141263608Y-108290973D01*
X141265103Y-108292270D01*
X141269824Y-108298022D01*
X141326967Y-108355165D01*
X141332716Y-108359883D01*
X141334016Y-108361382D01*
X141336275Y-108362803D01*
X141338332Y-108364492D01*
X141340159Y-108365249D01*
X141346459Y-108369214D01*
X141460744Y-108426356D01*
X141474476Y-108431611D01*
X141477163Y-108431801D01*
X141479653Y-108432833D01*
X141494285Y-108434274D01*
X141608571Y-108434274D01*
X141623203Y-108432833D01*
X141625692Y-108431801D01*
X141628380Y-108431611D01*
X141642112Y-108426356D01*
X141756397Y-108369214D01*
X141762694Y-108365250D01*
X141764525Y-108364492D01*
X141766585Y-108362801D01*
X141768840Y-108361382D01*
X141770137Y-108359885D01*
X141775890Y-108355165D01*
X141833033Y-108298022D01*
X141837753Y-108292269D01*
X141839250Y-108290972D01*
X141840669Y-108288716D01*
X141842360Y-108286657D01*
X141843117Y-108284827D01*
X141847082Y-108278530D01*
X141904224Y-108164244D01*
X141904633Y-108163174D01*
X141904956Y-108162739D01*
X141907151Y-108156593D01*
X141909479Y-108150512D01*
X141909517Y-108149972D01*
X141909903Y-108148893D01*
X141967046Y-107920322D01*
X141967421Y-107917784D01*
X141967844Y-107916764D01*
X141968385Y-107911261D01*
X141969197Y-107905777D01*
X141969033Y-107904681D01*
X141969285Y-107902132D01*
X141969285Y-107616417D01*
X141969033Y-107613867D01*
X141969197Y-107612772D01*
X141968385Y-107607287D01*
X141967844Y-107601785D01*
X141967421Y-107600764D01*
X141967046Y-107598227D01*
X141960048Y-107570235D01*
X142220090Y-107570235D01*
X142223654Y-107584499D01*
X142509369Y-108384500D01*
X142515647Y-108397795D01*
X142518174Y-108400586D01*
X142519785Y-108403987D01*
X142527919Y-108411350D01*
X142535287Y-108419489D01*
X142538689Y-108421100D01*
X142541479Y-108423626D01*
X142551811Y-108427316D01*
X142561733Y-108432016D01*
X142565493Y-108432202D01*
X142569038Y-108433469D01*
X142579999Y-108432924D01*
X142590960Y-108433469D01*
X142594505Y-108432202D01*
X142598266Y-108432016D01*
X142608181Y-108427318D01*
X142618519Y-108423627D01*
X142621311Y-108421098D01*
X142624712Y-108419488D01*
X142632072Y-108411357D01*
X142640214Y-108403987D01*
X142641826Y-108400582D01*
X142644351Y-108397794D01*
X142650630Y-108384499D01*
X142936345Y-107584499D01*
X142939909Y-107570235D01*
X142938456Y-107541007D01*
X142925929Y-107514561D01*
X142904234Y-107494922D01*
X142876675Y-107485079D01*
X142847448Y-107486532D01*
X142821002Y-107499059D01*
X142801362Y-107520754D01*
X142795083Y-107534049D01*
X142579999Y-108136282D01*
X142364916Y-107534049D01*
X142358637Y-107520754D01*
X142338998Y-107499060D01*
X142312552Y-107486533D01*
X142283324Y-107485079D01*
X142255765Y-107494922D01*
X142234071Y-107514561D01*
X142221544Y-107541007D01*
X142220090Y-107570235D01*
X141960048Y-107570235D01*
X141909903Y-107369656D01*
X141909517Y-107368576D01*
X141909479Y-107368037D01*
X141907151Y-107361955D01*
X141904956Y-107355810D01*
X141904633Y-107355374D01*
X141904224Y-107354305D01*
X141847082Y-107240019D01*
X141843117Y-107233721D01*
X141842360Y-107231892D01*
X141840669Y-107229832D01*
X141839250Y-107227577D01*
X141837753Y-107226279D01*
X141833033Y-107220527D01*
X141775890Y-107163384D01*
X141770138Y-107158663D01*
X141768841Y-107157168D01*
X141766586Y-107155748D01*
X141764525Y-107154057D01*
X141762694Y-107153298D01*
X141756398Y-107149335D01*
X141642112Y-107092192D01*
X141628380Y-107086937D01*
X141625692Y-107086746D01*
X141623203Y-107085715D01*
X141608571Y-107084274D01*
X141494285Y-107084274D01*
X141479653Y-107085715D01*
X141477163Y-107086746D01*
X141474476Y-107086937D01*
X141460744Y-107092192D01*
X141346459Y-107149335D01*
X141340162Y-107153298D01*
X141338332Y-107154057D01*
X141336270Y-107155748D01*
X141334016Y-107157168D01*
X141332719Y-107158663D01*
X141326967Y-107163384D01*
X141269824Y-107220527D01*
X141265103Y-107226278D01*
X141263608Y-107227576D01*
X141262188Y-107229830D01*
X141260497Y-107231892D01*
X141259738Y-107233722D01*
X141255775Y-107240019D01*
X141198632Y-107354305D01*
X141198222Y-107355374D01*
X141197900Y-107355810D01*
X141195701Y-107361961D01*
X141193377Y-107368037D01*
X141193338Y-107368575D01*
X141192953Y-107369655D01*
X141135810Y-107598227D01*
X141135434Y-107600763D01*
X141135012Y-107601785D01*
X141134469Y-107607297D01*
X141133660Y-107612771D01*
X141133822Y-107613863D01*
X141133571Y-107616417D01*
X140826428Y-107616417D01*
X140826176Y-107613867D01*
X140826340Y-107612772D01*
X140825528Y-107607287D01*
X140824987Y-107601785D01*
X140824564Y-107600764D01*
X140824189Y-107598227D01*
X140767046Y-107369656D01*
X140766660Y-107368576D01*
X140766622Y-107368037D01*
X140764294Y-107361955D01*
X140762099Y-107355810D01*
X140761776Y-107355374D01*
X140761367Y-107354305D01*
X140704225Y-107240019D01*
X140700260Y-107233721D01*
X140699503Y-107231892D01*
X140697812Y-107229832D01*
X140696393Y-107227577D01*
X140694896Y-107226279D01*
X140690176Y-107220527D01*
X140633033Y-107163384D01*
X140627281Y-107158663D01*
X140625984Y-107157168D01*
X140623729Y-107155748D01*
X140621668Y-107154057D01*
X140619837Y-107153298D01*
X140613541Y-107149335D01*
X140499255Y-107092192D01*
X140485523Y-107086937D01*
X140482835Y-107086746D01*
X140480346Y-107085715D01*
X140465714Y-107084274D01*
X140351428Y-107084274D01*
X140336796Y-107085715D01*
X140334306Y-107086746D01*
X140331619Y-107086937D01*
X140317887Y-107092192D01*
X140203602Y-107149335D01*
X140197305Y-107153298D01*
X140195475Y-107154057D01*
X140193413Y-107155748D01*
X140191159Y-107157168D01*
X140189862Y-107158663D01*
X140184110Y-107163384D01*
X140126967Y-107220527D01*
X140122246Y-107226278D01*
X140120751Y-107227576D01*
X140119331Y-107229830D01*
X140117640Y-107231892D01*
X140116881Y-107233722D01*
X140112918Y-107240019D01*
X140055775Y-107354305D01*
X140055365Y-107355374D01*
X140055043Y-107355810D01*
X140052844Y-107361961D01*
X140050520Y-107368037D01*
X140050481Y-107368575D01*
X140050096Y-107369655D01*
X139992953Y-107598227D01*
X139992577Y-107600763D01*
X139992155Y-107601785D01*
X139991612Y-107607297D01*
X139990803Y-107612771D01*
X139990965Y-107613863D01*
X139990714Y-107616417D01*
X139649532Y-107616417D01*
X139679722Y-107525849D01*
X139681371Y-107518595D01*
X139682130Y-107516764D01*
X139682391Y-107514109D01*
X139682982Y-107511512D01*
X139682841Y-107509537D01*
X139683571Y-107502132D01*
X139683571Y-107387846D01*
X139682130Y-107373214D01*
X139681098Y-107370724D01*
X139680908Y-107368037D01*
X139675653Y-107354305D01*
X139618510Y-107240019D01*
X139614546Y-107233722D01*
X139613789Y-107231893D01*
X139612099Y-107229834D01*
X139610678Y-107227576D01*
X139609179Y-107226276D01*
X139604462Y-107220528D01*
X139547319Y-107163384D01*
X139541567Y-107158663D01*
X139540270Y-107157168D01*
X139538015Y-107155748D01*
X139535954Y-107154057D01*
X139534123Y-107153298D01*
X139527827Y-107149335D01*
X139413541Y-107092192D01*
X139399809Y-107086937D01*
X139397121Y-107086746D01*
X139394632Y-107085715D01*
X139380000Y-107084274D01*
X139094286Y-107084274D01*
X139079654Y-107085715D01*
X139077164Y-107086746D01*
X139074477Y-107086937D01*
X139060745Y-107092192D01*
X138946459Y-107149335D01*
X138940159Y-107153299D01*
X138938332Y-107154057D01*
X138936275Y-107155745D01*
X138934016Y-107157167D01*
X138932716Y-107158665D01*
X138926967Y-107163384D01*
X138869824Y-107220527D01*
X138860497Y-107231892D01*
X138849298Y-107258929D01*
X138849298Y-107288191D01*
X138860497Y-107315228D01*
X138881189Y-107335920D01*
X138908226Y-107347119D01*
X138937488Y-107347119D01*
X138964525Y-107335920D01*
X138975890Y-107326593D01*
X139024427Y-107278056D01*
X139111991Y-107234274D01*
X139362295Y-107234274D01*
X139449858Y-107278055D01*
X139489788Y-107317986D01*
X139533571Y-107405551D01*
X139533571Y-107489961D01*
X139485876Y-107633045D01*
X138812681Y-108306241D01*
X138803354Y-108317606D01*
X138792155Y-108344642D01*
X136540715Y-108344642D01*
X136540715Y-107977132D01*
X136922858Y-107977132D01*
X136937490Y-107975691D01*
X136964526Y-107964492D01*
X136985218Y-107943800D01*
X136996417Y-107916764D01*
X136996417Y-107887500D01*
X137420727Y-107887500D01*
X137420727Y-107916764D01*
X137431926Y-107943800D01*
X137452618Y-107964492D01*
X137479654Y-107975691D01*
X137494286Y-107977132D01*
X138408572Y-107977132D01*
X138423204Y-107975691D01*
X138450240Y-107964492D01*
X138470932Y-107943800D01*
X138482131Y-107916764D01*
X138482131Y-107887500D01*
X138470932Y-107860464D01*
X138450240Y-107839772D01*
X138423204Y-107828573D01*
X138408572Y-107827132D01*
X137494286Y-107827132D01*
X137479654Y-107828573D01*
X137452618Y-107839772D01*
X137431926Y-107860464D01*
X137420727Y-107887500D01*
X136996417Y-107887500D01*
X136985218Y-107860464D01*
X136964526Y-107839772D01*
X136937490Y-107828573D01*
X136922858Y-107827132D01*
X136540715Y-107827132D01*
X136540715Y-107444989D01*
X136539274Y-107430357D01*
X136528075Y-107403321D01*
X136507383Y-107382629D01*
X136480347Y-107371430D01*
X136451083Y-107371430D01*
X136424047Y-107382629D01*
X136403355Y-107403321D01*
X136392156Y-107430357D01*
X136390715Y-107444989D01*
X136390715Y-107827132D01*
X136008572Y-107827132D01*
X135993940Y-107828573D01*
X135966904Y-107839772D01*
X135946212Y-107860464D01*
X135935013Y-107887500D01*
X133685954Y-107887500D01*
X133685954Y-105227342D01*
X133819287Y-105227342D01*
X133819287Y-106427342D01*
X133820728Y-106441974D01*
X133831927Y-106469010D01*
X133852619Y-106489702D01*
X133879655Y-106500901D01*
X133908919Y-106500901D01*
X133935955Y-106489702D01*
X133956647Y-106469010D01*
X133967846Y-106441974D01*
X133969287Y-106427342D01*
X133969287Y-105873771D01*
X134505001Y-105873771D01*
X134505001Y-106427342D01*
X134506442Y-106441974D01*
X134517641Y-106469010D01*
X134538333Y-106489702D01*
X134565369Y-106500901D01*
X134594633Y-106500901D01*
X134621669Y-106489702D01*
X134642361Y-106469010D01*
X134653560Y-106441974D01*
X134655001Y-106427342D01*
X134655001Y-105627342D01*
X135076430Y-105627342D01*
X135076430Y-106427342D01*
X135077871Y-106441974D01*
X135089070Y-106469010D01*
X135109762Y-106489702D01*
X135136798Y-106500901D01*
X135166062Y-106500901D01*
X135193098Y-106489702D01*
X135213790Y-106469010D01*
X135224989Y-106441974D01*
X135226430Y-106427342D01*
X135226430Y-105855914D01*
X135590716Y-105855914D01*
X135590716Y-106198771D01*
X135592157Y-106213403D01*
X135593188Y-106215892D01*
X135593379Y-106218580D01*
X135598634Y-106232312D01*
X135655777Y-106346598D01*
X135659740Y-106352894D01*
X135660499Y-106354725D01*
X135662190Y-106356786D01*
X135663610Y-106359041D01*
X135665105Y-106360338D01*
X135669826Y-106366090D01*
X135726969Y-106423233D01*
X135732718Y-106427951D01*
X135734018Y-106429450D01*
X135736277Y-106430871D01*
X135738334Y-106432560D01*
X135740161Y-106433317D01*
X135746461Y-106437282D01*
X135860746Y-106494424D01*
X135874478Y-106499679D01*
X135877165Y-106499869D01*
X135879655Y-106500901D01*
X135894287Y-106502342D01*
X136122859Y-106502342D01*
X136137491Y-106500901D01*
X136139980Y-106499869D01*
X136142668Y-106499679D01*
X136156400Y-106494424D01*
X136162145Y-106491551D01*
X136162145Y-106581066D01*
X136118363Y-106668630D01*
X136078432Y-106708560D01*
X135990868Y-106752342D01*
X135854849Y-106752342D01*
X135756400Y-106703118D01*
X135742668Y-106697863D01*
X135713478Y-106695789D01*
X135685717Y-106705043D01*
X135663609Y-106724217D01*
X135650522Y-106750391D01*
X135648448Y-106779581D01*
X135657702Y-106807342D01*
X135676876Y-106829450D01*
X135689318Y-106837282D01*
X135803604Y-106894424D01*
X135817336Y-106899679D01*
X135820023Y-106899869D01*
X135822513Y-106900901D01*
X135837145Y-106902342D01*
X136008573Y-106902342D01*
X136023205Y-106900901D01*
X136025694Y-106899869D01*
X136028382Y-106899679D01*
X136042114Y-106894424D01*
X136156399Y-106837282D01*
X136162696Y-106833318D01*
X136164527Y-106832560D01*
X136166587Y-106830869D01*
X136168842Y-106829450D01*
X136170139Y-106827953D01*
X136175892Y-106823233D01*
X136233035Y-106766090D01*
X136237753Y-106760340D01*
X136239252Y-106759041D01*
X136240673Y-106756781D01*
X136242362Y-106754725D01*
X136243119Y-106752897D01*
X136247084Y-106746598D01*
X136304227Y-106632312D01*
X136309482Y-106618580D01*
X136309672Y-106615892D01*
X136310704Y-106613403D01*
X136312145Y-106598771D01*
X136312145Y-105627342D01*
X136310704Y-105612710D01*
X136299505Y-105585674D01*
X136278813Y-105564982D01*
X136251777Y-105553783D01*
X136222513Y-105553783D01*
X136195477Y-105564982D01*
X136185599Y-105574859D01*
X136156400Y-105560260D01*
X136142668Y-105555005D01*
X136139980Y-105554814D01*
X136137491Y-105553783D01*
X136122859Y-105552342D01*
X135894287Y-105552342D01*
X135879655Y-105553783D01*
X135877165Y-105554814D01*
X135874478Y-105555005D01*
X135860746Y-105560260D01*
X135746461Y-105617403D01*
X135740164Y-105621366D01*
X135738334Y-105622125D01*
X135736272Y-105623816D01*
X135734018Y-105625236D01*
X135732721Y-105626731D01*
X135726969Y-105631452D01*
X135669826Y-105688595D01*
X135665105Y-105694346D01*
X135663610Y-105695644D01*
X135662190Y-105697898D01*
X135660499Y-105699960D01*
X135659740Y-105701790D01*
X135655777Y-105708087D01*
X135598634Y-105822373D01*
X135593379Y-105836105D01*
X135593188Y-105838792D01*
X135592157Y-105841282D01*
X135590716Y-105855914D01*
X135226430Y-105855914D01*
X135226430Y-105627342D01*
X135224989Y-105612710D01*
X135213790Y-105585674D01*
X135193098Y-105564982D01*
X135166062Y-105553783D01*
X135136798Y-105553783D01*
X135109762Y-105564982D01*
X135089070Y-105585674D01*
X135077871Y-105612710D01*
X135076430Y-105627342D01*
X134655001Y-105627342D01*
X134655001Y-105269854D01*
X135020728Y-105269854D01*
X135020728Y-105299116D01*
X135031927Y-105326153D01*
X135041254Y-105337518D01*
X135098397Y-105394661D01*
X135109762Y-105403988D01*
X135136798Y-105415187D01*
X135136799Y-105415187D01*
X135166061Y-105415187D01*
X135166062Y-105415187D01*
X135193098Y-105403988D01*
X135204463Y-105394661D01*
X135261606Y-105337518D01*
X135270933Y-105326153D01*
X135282132Y-105299117D01*
X135282132Y-105269854D01*
X135281783Y-105269010D01*
X135270933Y-105242817D01*
X135261606Y-105231452D01*
X135257496Y-105227342D01*
X136733573Y-105227342D01*
X136733573Y-106427342D01*
X136735014Y-106441974D01*
X136746213Y-106469010D01*
X136766905Y-106489702D01*
X136793941Y-106500901D01*
X136823205Y-106500901D01*
X136850241Y-106489702D01*
X136870933Y-106469010D01*
X136882132Y-106441974D01*
X136883573Y-106427342D01*
X136883573Y-105772694D01*
X136910143Y-105746123D01*
X136997706Y-105702342D01*
X137133725Y-105702342D01*
X137209814Y-105740386D01*
X137247859Y-105816476D01*
X137247859Y-106427342D01*
X137249300Y-106441974D01*
X137260499Y-106469010D01*
X137281191Y-106489702D01*
X137308227Y-106500901D01*
X137337491Y-106500901D01*
X137364527Y-106489702D01*
X137385219Y-106469010D01*
X137396418Y-106441974D01*
X137397859Y-106427342D01*
X137397859Y-105798771D01*
X137396418Y-105784139D01*
X137395386Y-105781649D01*
X137395196Y-105778962D01*
X137389941Y-105765230D01*
X137332798Y-105650944D01*
X137331259Y-105648499D01*
X137330874Y-105647343D01*
X137329625Y-105645902D01*
X137324966Y-105638501D01*
X137317860Y-105632338D01*
X137311700Y-105625236D01*
X137304296Y-105620575D01*
X137302858Y-105619328D01*
X137301703Y-105618943D01*
X137299257Y-105617403D01*
X137184971Y-105560260D01*
X137171239Y-105555005D01*
X137168551Y-105554814D01*
X137166062Y-105553783D01*
X137151430Y-105552342D01*
X136980001Y-105552342D01*
X136965369Y-105553783D01*
X136962879Y-105554814D01*
X136960192Y-105555005D01*
X136946460Y-105560260D01*
X136883573Y-105591703D01*
X136883573Y-105236722D01*
X138562733Y-105236722D01*
X138565993Y-105251059D01*
X138965993Y-106451059D01*
X138971987Y-106464484D01*
X138975497Y-106468531D01*
X138977894Y-106473325D01*
X138984999Y-106479488D01*
X138991161Y-106486592D01*
X138995952Y-106488987D01*
X139000001Y-106492499D01*
X139008924Y-106495473D01*
X139017334Y-106499678D01*
X139022678Y-106500057D01*
X139027764Y-106501753D01*
X139037144Y-106501086D01*
X139046524Y-106501753D01*
X139051609Y-106500057D01*
X139056954Y-106499678D01*
X139065363Y-106495473D01*
X139074287Y-106492499D01*
X139078335Y-106488987D01*
X139083127Y-106486592D01*
X139089289Y-106479487D01*
X139096394Y-106473325D01*
X139098789Y-106468533D01*
X139102301Y-106464485D01*
X139108295Y-106451059D01*
X139306677Y-105855914D01*
X139705001Y-105855914D01*
X139705001Y-106198771D01*
X139706442Y-106213403D01*
X139707473Y-106215892D01*
X139707664Y-106218580D01*
X139712919Y-106232312D01*
X139770062Y-106346598D01*
X139774025Y-106352894D01*
X139774784Y-106354725D01*
X139776475Y-106356786D01*
X139777895Y-106359041D01*
X139779390Y-106360338D01*
X139784111Y-106366090D01*
X139841254Y-106423233D01*
X139847003Y-106427951D01*
X139848303Y-106429450D01*
X139850562Y-106430871D01*
X139852619Y-106432560D01*
X139854446Y-106433317D01*
X139860746Y-106437282D01*
X139975031Y-106494424D01*
X139988763Y-106499679D01*
X139991450Y-106499869D01*
X139993940Y-106500901D01*
X140008572Y-106502342D01*
X140180001Y-106502342D01*
X140194633Y-106500901D01*
X140197122Y-106499869D01*
X140199810Y-106499679D01*
X140213542Y-106494424D01*
X140327827Y-106437282D01*
X140334124Y-106433318D01*
X140335955Y-106432560D01*
X140338015Y-106430869D01*
X140340270Y-106429450D01*
X140341567Y-106427953D01*
X140347320Y-106423233D01*
X140404463Y-106366090D01*
X140409183Y-106360337D01*
X140410680Y-106359040D01*
X140412099Y-106356784D01*
X140413790Y-106354725D01*
X140414547Y-106352895D01*
X140418512Y-106346598D01*
X140475654Y-106232312D01*
X140480909Y-106218580D01*
X140481099Y-106215892D01*
X140482131Y-106213403D01*
X140483572Y-106198771D01*
X140483572Y-105855914D01*
X140482131Y-105841282D01*
X140481099Y-105838792D01*
X140480909Y-105836105D01*
X140475654Y-105822373D01*
X140418512Y-105708087D01*
X140414547Y-105701789D01*
X140413790Y-105699960D01*
X140412099Y-105697900D01*
X140410680Y-105695645D01*
X140409183Y-105694347D01*
X140404463Y-105688595D01*
X140347320Y-105631452D01*
X140341568Y-105626731D01*
X140340271Y-105625236D01*
X140338016Y-105623816D01*
X140335955Y-105622125D01*
X140334124Y-105621366D01*
X140327828Y-105617403D01*
X140213542Y-105560260D01*
X140199810Y-105555005D01*
X140197122Y-105554814D01*
X140194633Y-105553783D01*
X140180001Y-105552342D01*
X140008572Y-105552342D01*
X139993940Y-105553783D01*
X139991450Y-105554814D01*
X139988763Y-105555005D01*
X139975031Y-105560260D01*
X139860746Y-105617403D01*
X139854449Y-105621366D01*
X139852619Y-105622125D01*
X139850557Y-105623816D01*
X139848303Y-105625236D01*
X139847006Y-105626731D01*
X139841254Y-105631452D01*
X139784111Y-105688595D01*
X139779390Y-105694346D01*
X139777895Y-105695644D01*
X139776475Y-105697898D01*
X139774784Y-105699960D01*
X139774025Y-105701790D01*
X139770062Y-105708087D01*
X139712919Y-105822373D01*
X139707664Y-105836105D01*
X139707473Y-105838792D01*
X139706442Y-105841282D01*
X139705001Y-105855914D01*
X139306677Y-105855914D01*
X139508295Y-105251059D01*
X139511555Y-105236722D01*
X139510888Y-105227342D01*
X140847858Y-105227342D01*
X140847858Y-106255914D01*
X140849299Y-106270546D01*
X140850330Y-106273035D01*
X140850521Y-106275723D01*
X140855776Y-106289455D01*
X140912919Y-106403741D01*
X140914459Y-106406187D01*
X140914844Y-106407342D01*
X140916091Y-106408780D01*
X140920752Y-106416184D01*
X140927854Y-106422344D01*
X140934017Y-106429450D01*
X140941418Y-106434109D01*
X140942859Y-106435358D01*
X140944015Y-106435743D01*
X140946460Y-106437282D01*
X141060745Y-106494424D01*
X141074477Y-106499679D01*
X141103667Y-106501753D01*
X141131428Y-106492499D01*
X141153535Y-106473326D01*
X141166623Y-106447151D01*
X141168697Y-106417961D01*
X141159443Y-106390200D01*
X141140269Y-106368092D01*
X141127827Y-106360260D01*
X141035902Y-106314298D01*
X140997858Y-106238209D01*
X140997858Y-105612710D01*
X141306441Y-105612710D01*
X141306441Y-105641974D01*
X141317640Y-105669010D01*
X141338332Y-105689702D01*
X141365368Y-105700901D01*
X141380000Y-105702342D01*
X141476429Y-105702342D01*
X141476429Y-106255914D01*
X141477870Y-106270546D01*
X141478901Y-106273035D01*
X141479092Y-106275723D01*
X141484347Y-106289455D01*
X141541490Y-106403741D01*
X141543030Y-106406187D01*
X141543415Y-106407342D01*
X141544662Y-106408780D01*
X141549323Y-106416184D01*
X141556425Y-106422344D01*
X141562588Y-106429450D01*
X141569989Y-106434109D01*
X141571430Y-106435358D01*
X141572586Y-106435743D01*
X141575031Y-106437282D01*
X141689316Y-106494424D01*
X141703048Y-106499679D01*
X141705735Y-106499869D01*
X141708225Y-106500901D01*
X141722857Y-106502342D01*
X141837143Y-106502342D01*
X141851775Y-106500901D01*
X141878811Y-106489702D01*
X141899503Y-106469010D01*
X141910702Y-106441974D01*
X141910702Y-106412710D01*
X141899503Y-106385674D01*
X141878811Y-106364982D01*
X141851775Y-106353783D01*
X141837143Y-106352342D01*
X141740562Y-106352342D01*
X141664473Y-106314298D01*
X141626429Y-106238209D01*
X141626429Y-106141628D01*
X142105000Y-106141628D01*
X142105000Y-106255914D01*
X142106441Y-106270546D01*
X142107472Y-106273035D01*
X142107663Y-106275723D01*
X142112918Y-106289455D01*
X142170061Y-106403741D01*
X142171601Y-106406187D01*
X142171986Y-106407342D01*
X142173232Y-106408779D01*
X142177894Y-106416184D01*
X142184999Y-106422346D01*
X142191160Y-106429450D01*
X142198559Y-106434108D01*
X142200001Y-106435358D01*
X142201158Y-106435743D01*
X142203602Y-106437282D01*
X142317888Y-106494424D01*
X142331620Y-106499679D01*
X142334307Y-106499869D01*
X142336797Y-106500901D01*
X142351429Y-106502342D01*
X142637143Y-106502342D01*
X142651775Y-106500901D01*
X142654264Y-106499869D01*
X142656952Y-106499679D01*
X142670684Y-106494424D01*
X142699883Y-106479824D01*
X142709761Y-106489702D01*
X142736797Y-106500901D01*
X142766061Y-106500901D01*
X142793097Y-106489702D01*
X142813789Y-106469010D01*
X142824988Y-106441974D01*
X142826429Y-106427342D01*
X142826429Y-105855914D01*
X143190714Y-105855914D01*
X143190714Y-106198771D01*
X143192155Y-106213403D01*
X143193186Y-106215892D01*
X143193377Y-106218580D01*
X143198632Y-106232312D01*
X143255775Y-106346598D01*
X143259738Y-106352894D01*
X143260497Y-106354725D01*
X143262188Y-106356786D01*
X143263608Y-106359041D01*
X143265103Y-106360338D01*
X143269824Y-106366090D01*
X143326967Y-106423233D01*
X143332716Y-106427951D01*
X143334016Y-106429450D01*
X143336275Y-106430871D01*
X143338332Y-106432560D01*
X143340159Y-106433317D01*
X143346459Y-106437282D01*
X143460744Y-106494424D01*
X143474476Y-106499679D01*
X143477163Y-106499869D01*
X143479653Y-106500901D01*
X143494285Y-106502342D01*
X143722857Y-106502342D01*
X143737489Y-106500901D01*
X143739978Y-106499869D01*
X143742666Y-106499679D01*
X143756398Y-106494424D01*
X143762143Y-106491551D01*
X143762143Y-106581066D01*
X143718361Y-106668630D01*
X143678430Y-106708560D01*
X143590866Y-106752342D01*
X143454847Y-106752342D01*
X143356398Y-106703118D01*
X143342666Y-106697863D01*
X143313476Y-106695789D01*
X143285715Y-106705043D01*
X143263607Y-106724217D01*
X143250520Y-106750391D01*
X143248446Y-106779581D01*
X143257700Y-106807342D01*
X143276874Y-106829450D01*
X143289316Y-106837282D01*
X143403602Y-106894424D01*
X143417334Y-106899679D01*
X143420021Y-106899869D01*
X143422511Y-106900901D01*
X143437143Y-106902342D01*
X143608571Y-106902342D01*
X143623203Y-106900901D01*
X143625692Y-106899869D01*
X143628380Y-106899679D01*
X143642112Y-106894424D01*
X143756397Y-106837282D01*
X143762694Y-106833318D01*
X143764525Y-106832560D01*
X143766585Y-106830869D01*
X143768840Y-106829450D01*
X143770137Y-106827953D01*
X143775890Y-106823233D01*
X143833033Y-106766090D01*
X143837751Y-106760340D01*
X143839250Y-106759041D01*
X143840671Y-106756781D01*
X143842360Y-106754725D01*
X143843117Y-106752897D01*
X143847082Y-106746598D01*
X143904225Y-106632312D01*
X143909480Y-106618580D01*
X143909670Y-106615892D01*
X143910702Y-106613403D01*
X143912143Y-106598771D01*
X143912143Y-105798771D01*
X144276428Y-105798771D01*
X144276428Y-106255914D01*
X144277869Y-106270546D01*
X144278900Y-106273035D01*
X144279091Y-106275723D01*
X144284346Y-106289455D01*
X144341489Y-106403741D01*
X144343029Y-106406187D01*
X144343414Y-106407342D01*
X144344660Y-106408779D01*
X144349322Y-106416184D01*
X144356427Y-106422346D01*
X144362588Y-106429450D01*
X144369987Y-106434108D01*
X144371429Y-106435358D01*
X144372586Y-106435743D01*
X144375030Y-106437282D01*
X144489316Y-106494424D01*
X144503048Y-106499679D01*
X144505735Y-106499869D01*
X144508225Y-106500901D01*
X144522857Y-106502342D01*
X144751428Y-106502342D01*
X144766060Y-106500901D01*
X144768549Y-106499869D01*
X144771237Y-106499679D01*
X144784969Y-106494424D01*
X144899254Y-106437282D01*
X144911697Y-106429450D01*
X144930871Y-106407343D01*
X144940125Y-106379581D01*
X144938051Y-106350391D01*
X144924964Y-106324217D01*
X144902856Y-106305043D01*
X144875095Y-106295789D01*
X144845905Y-106297863D01*
X144832173Y-106303118D01*
X144733723Y-106352342D01*
X144540561Y-106352342D01*
X144464472Y-106314298D01*
X144426428Y-106238209D01*
X144426428Y-106088827D01*
X144937565Y-105986601D01*
X144951631Y-105982318D01*
X144957736Y-105978229D01*
X144964525Y-105975417D01*
X144969777Y-105970164D01*
X144975945Y-105966034D01*
X144980019Y-105959923D01*
X144985217Y-105954725D01*
X144988060Y-105947861D01*
X144992177Y-105941686D01*
X144993602Y-105934480D01*
X144996416Y-105927689D01*
X144997857Y-105913057D01*
X144997857Y-105798771D01*
X144996416Y-105784139D01*
X144995384Y-105781649D01*
X144995194Y-105778962D01*
X144989939Y-105765230D01*
X144932796Y-105650944D01*
X144931257Y-105648499D01*
X144930872Y-105647343D01*
X144929623Y-105645902D01*
X144924964Y-105638501D01*
X144917858Y-105632338D01*
X144911698Y-105625236D01*
X144904294Y-105620575D01*
X144902856Y-105619328D01*
X144901701Y-105618943D01*
X144899255Y-105617403D01*
X144784969Y-105560260D01*
X144771237Y-105555005D01*
X144768549Y-105554814D01*
X144766060Y-105553783D01*
X144751428Y-105552342D01*
X144522857Y-105552342D01*
X144508225Y-105553783D01*
X144505735Y-105554814D01*
X144503048Y-105555005D01*
X144489316Y-105560260D01*
X144375030Y-105617403D01*
X144372585Y-105618941D01*
X144371429Y-105619327D01*
X144369988Y-105620575D01*
X144362587Y-105625235D01*
X144356424Y-105632340D01*
X144349322Y-105638501D01*
X144344661Y-105645904D01*
X144343414Y-105647343D01*
X144343029Y-105648497D01*
X144341489Y-105650944D01*
X144284346Y-105765230D01*
X144279091Y-105778962D01*
X144278900Y-105781649D01*
X144277869Y-105784139D01*
X144276428Y-105798771D01*
X143912143Y-105798771D01*
X143912143Y-105627342D01*
X143910702Y-105612710D01*
X143899503Y-105585674D01*
X143878811Y-105564982D01*
X143851775Y-105553783D01*
X143822511Y-105553783D01*
X143795475Y-105564982D01*
X143785597Y-105574859D01*
X143756398Y-105560260D01*
X143742666Y-105555005D01*
X143739978Y-105554814D01*
X143737489Y-105553783D01*
X143722857Y-105552342D01*
X143494285Y-105552342D01*
X143479653Y-105553783D01*
X143477163Y-105554814D01*
X143474476Y-105555005D01*
X143460744Y-105560260D01*
X143346459Y-105617403D01*
X143340162Y-105621366D01*
X143338332Y-105622125D01*
X143336270Y-105623816D01*
X143334016Y-105625236D01*
X143332719Y-105626731D01*
X143326967Y-105631452D01*
X143269824Y-105688595D01*
X143265103Y-105694346D01*
X143263608Y-105695644D01*
X143262188Y-105697898D01*
X143260497Y-105699960D01*
X143259738Y-105701790D01*
X143255775Y-105708087D01*
X143198632Y-105822373D01*
X143193377Y-105836105D01*
X143193186Y-105838792D01*
X143192155Y-105841282D01*
X143190714Y-105855914D01*
X142826429Y-105855914D01*
X142826429Y-105798771D01*
X142824988Y-105784139D01*
X142823956Y-105781649D01*
X142823766Y-105778962D01*
X142818511Y-105765230D01*
X142761368Y-105650944D01*
X142759829Y-105648499D01*
X142759444Y-105647343D01*
X142758195Y-105645902D01*
X142753536Y-105638501D01*
X142746430Y-105632338D01*
X142740270Y-105625236D01*
X142732866Y-105620575D01*
X142731428Y-105619328D01*
X142730273Y-105618943D01*
X142727827Y-105617403D01*
X142613541Y-105560260D01*
X142599809Y-105555005D01*
X142597121Y-105554814D01*
X142594632Y-105553783D01*
X142580000Y-105552342D01*
X142351429Y-105552342D01*
X142336797Y-105553783D01*
X142334307Y-105554814D01*
X142331620Y-105555005D01*
X142317888Y-105560260D01*
X142203602Y-105617403D01*
X142191159Y-105625235D01*
X142171986Y-105647343D01*
X142162732Y-105675104D01*
X142164806Y-105704294D01*
X142177893Y-105730469D01*
X142200001Y-105749642D01*
X142227762Y-105758896D01*
X142256952Y-105756822D01*
X142270684Y-105751567D01*
X142369134Y-105702342D01*
X142562295Y-105702342D01*
X142638384Y-105740386D01*
X142676429Y-105816476D01*
X142676429Y-105866704D01*
X142619438Y-105895200D01*
X142351429Y-105895200D01*
X142336797Y-105896641D01*
X142334307Y-105897672D01*
X142331620Y-105897863D01*
X142317888Y-105903118D01*
X142203602Y-105960260D01*
X142201158Y-105961798D01*
X142200001Y-105962184D01*
X142198559Y-105963433D01*
X142191160Y-105968092D01*
X142184999Y-105975195D01*
X142177894Y-105981358D01*
X142173232Y-105988762D01*
X142171986Y-105990200D01*
X142171601Y-105991354D01*
X142170061Y-105993801D01*
X142112918Y-106108087D01*
X142107663Y-106121819D01*
X142107472Y-106124506D01*
X142106441Y-106126996D01*
X142105000Y-106141628D01*
X141626429Y-106141628D01*
X141626429Y-105702342D01*
X141837143Y-105702342D01*
X141851775Y-105700901D01*
X141878811Y-105689702D01*
X141899503Y-105669010D01*
X141910702Y-105641974D01*
X141910702Y-105612710D01*
X141899503Y-105585674D01*
X141878811Y-105564982D01*
X141851775Y-105553783D01*
X141837143Y-105552342D01*
X141626429Y-105552342D01*
X141626429Y-105227342D01*
X141624988Y-105212710D01*
X141613789Y-105185674D01*
X141593097Y-105164982D01*
X141566061Y-105153783D01*
X141536797Y-105153783D01*
X141509761Y-105164982D01*
X141489069Y-105185674D01*
X141477870Y-105212710D01*
X141476429Y-105227342D01*
X141476429Y-105552342D01*
X141380000Y-105552342D01*
X141365368Y-105553783D01*
X141338332Y-105564982D01*
X141317640Y-105585674D01*
X141306441Y-105612710D01*
X140997858Y-105612710D01*
X140997858Y-105227342D01*
X140996417Y-105212710D01*
X140985218Y-105185674D01*
X140964526Y-105164982D01*
X140937490Y-105153783D01*
X140908226Y-105153783D01*
X140881190Y-105164982D01*
X140860498Y-105185674D01*
X140849299Y-105212710D01*
X140847858Y-105227342D01*
X139510888Y-105227342D01*
X139509480Y-105207532D01*
X139496394Y-105181359D01*
X139474287Y-105162185D01*
X139446524Y-105152931D01*
X139417334Y-105155006D01*
X139391161Y-105168092D01*
X139371987Y-105190200D01*
X139365993Y-105203625D01*
X139037144Y-106190172D01*
X138708295Y-105203625D01*
X138702301Y-105190199D01*
X138683127Y-105168092D01*
X138656954Y-105155006D01*
X138627764Y-105152931D01*
X138600001Y-105162185D01*
X138577894Y-105181359D01*
X138564808Y-105207532D01*
X138562733Y-105236722D01*
X136883573Y-105236722D01*
X136883573Y-105227342D01*
X136882132Y-105212710D01*
X136870933Y-105185674D01*
X136850241Y-105164982D01*
X136823205Y-105153783D01*
X136793941Y-105153783D01*
X136766905Y-105164982D01*
X136746213Y-105185674D01*
X136735014Y-105212710D01*
X136733573Y-105227342D01*
X135257496Y-105227342D01*
X135204463Y-105174309D01*
X135193098Y-105164982D01*
X135166062Y-105153783D01*
X135166061Y-105153783D01*
X135136798Y-105153783D01*
X135109762Y-105164982D01*
X135098397Y-105174309D01*
X135041254Y-105231452D01*
X135031927Y-105242817D01*
X135020728Y-105269854D01*
X134655001Y-105269854D01*
X134655001Y-105227342D01*
X134653560Y-105212710D01*
X134642361Y-105185674D01*
X134621669Y-105164982D01*
X134594633Y-105153783D01*
X134565369Y-105153783D01*
X134538333Y-105164982D01*
X134517641Y-105185674D01*
X134506442Y-105212710D01*
X134505001Y-105227342D01*
X134505001Y-105723771D01*
X133969287Y-105723771D01*
X133969287Y-105227342D01*
X133967846Y-105212710D01*
X133956647Y-105185674D01*
X133935955Y-105164982D01*
X133908919Y-105153783D01*
X133879655Y-105153783D01*
X133852619Y-105164982D01*
X133831927Y-105185674D01*
X133820728Y-105212710D01*
X133819287Y-105227342D01*
X133685954Y-105227342D01*
X133685954Y-103295410D01*
X135733572Y-103295410D01*
X135733572Y-104495410D01*
X135735013Y-104510041D01*
X135735013Y-104510042D01*
X135746212Y-104537078D01*
X135766904Y-104557770D01*
X135793940Y-104568969D01*
X135808572Y-104570410D01*
X136094286Y-104570410D01*
X136101691Y-104569680D01*
X136103666Y-104569821D01*
X136106263Y-104569230D01*
X136108918Y-104568969D01*
X136110749Y-104568210D01*
X136118003Y-104566561D01*
X136289432Y-104509419D01*
X136302857Y-104503425D01*
X136304892Y-104501659D01*
X136307383Y-104500628D01*
X136318748Y-104491301D01*
X136433033Y-104377015D01*
X136437751Y-104371265D01*
X136439250Y-104369966D01*
X136440671Y-104367707D01*
X136442361Y-104365649D01*
X136443118Y-104363819D01*
X136447082Y-104357523D01*
X136504225Y-104243237D01*
X136504634Y-104242167D01*
X136504957Y-104241732D01*
X136507152Y-104235586D01*
X136509480Y-104229505D01*
X136509518Y-104228965D01*
X136509904Y-104227886D01*
X136514452Y-104209696D01*
X136876429Y-104209696D01*
X136876429Y-104323982D01*
X136877870Y-104338614D01*
X136878901Y-104341103D01*
X136879092Y-104343791D01*
X136884347Y-104357523D01*
X136941490Y-104471809D01*
X136943030Y-104474255D01*
X136943415Y-104475410D01*
X136944661Y-104476847D01*
X136949323Y-104484252D01*
X136956428Y-104490414D01*
X136962589Y-104497518D01*
X136969988Y-104502176D01*
X136971430Y-104503426D01*
X136972587Y-104503811D01*
X136975031Y-104505350D01*
X137089317Y-104562492D01*
X137103049Y-104567747D01*
X137105736Y-104567937D01*
X137108226Y-104568969D01*
X137122858Y-104570410D01*
X137408572Y-104570410D01*
X137423204Y-104568969D01*
X137425693Y-104567937D01*
X137428381Y-104567747D01*
X137442113Y-104562492D01*
X137471312Y-104547892D01*
X137481190Y-104557770D01*
X137508226Y-104568969D01*
X137537490Y-104568969D01*
X137564526Y-104557770D01*
X137585218Y-104537078D01*
X137596417Y-104510042D01*
X137597858Y-104495410D01*
X137597858Y-103866839D01*
X137596417Y-103852207D01*
X137595385Y-103849717D01*
X137595195Y-103847030D01*
X137589940Y-103833298D01*
X137532797Y-103719012D01*
X137531258Y-103716567D01*
X137530873Y-103715411D01*
X137529624Y-103713970D01*
X137524965Y-103706569D01*
X137517859Y-103700406D01*
X137513526Y-103695410D01*
X138019286Y-103695410D01*
X138019286Y-104495410D01*
X138020727Y-104510042D01*
X138031926Y-104537078D01*
X138052618Y-104557770D01*
X138079654Y-104568969D01*
X138108918Y-104568969D01*
X138135954Y-104557770D01*
X138156646Y-104537078D01*
X138167845Y-104510042D01*
X138169286Y-104495410D01*
X138169286Y-103840762D01*
X138195856Y-103814191D01*
X138283419Y-103770410D01*
X138419438Y-103770410D01*
X138495527Y-103808454D01*
X138533572Y-103884544D01*
X138533572Y-104495410D01*
X138535013Y-104510042D01*
X138546212Y-104537078D01*
X138566904Y-104557770D01*
X138593940Y-104568969D01*
X138623204Y-104568969D01*
X138650240Y-104557770D01*
X138670932Y-104537078D01*
X138682131Y-104510042D01*
X138683572Y-104495410D01*
X138683572Y-103923982D01*
X139047857Y-103923982D01*
X139047857Y-104266839D01*
X139049298Y-104281471D01*
X139050329Y-104283960D01*
X139050520Y-104286648D01*
X139055775Y-104300380D01*
X139112918Y-104414666D01*
X139116881Y-104420962D01*
X139117640Y-104422793D01*
X139119331Y-104424854D01*
X139120751Y-104427109D01*
X139122246Y-104428406D01*
X139126967Y-104434158D01*
X139184110Y-104491301D01*
X139189859Y-104496019D01*
X139191159Y-104497518D01*
X139193418Y-104498939D01*
X139195475Y-104500628D01*
X139197302Y-104501385D01*
X139203602Y-104505350D01*
X139317887Y-104562492D01*
X139331619Y-104567747D01*
X139334306Y-104567937D01*
X139336796Y-104568969D01*
X139351428Y-104570410D01*
X139580000Y-104570410D01*
X139594632Y-104568969D01*
X139597121Y-104567937D01*
X139599809Y-104567747D01*
X139613541Y-104562492D01*
X139619286Y-104559619D01*
X139619286Y-104649134D01*
X139575504Y-104736698D01*
X139535573Y-104776628D01*
X139448009Y-104820410D01*
X139311990Y-104820410D01*
X139213541Y-104771186D01*
X139199809Y-104765931D01*
X139170619Y-104763857D01*
X139142858Y-104773111D01*
X139120750Y-104792285D01*
X139107663Y-104818459D01*
X139105589Y-104847649D01*
X139114843Y-104875410D01*
X139134017Y-104897518D01*
X139146459Y-104905350D01*
X139260745Y-104962492D01*
X139274477Y-104967747D01*
X139277164Y-104967937D01*
X139279654Y-104968969D01*
X139294286Y-104970410D01*
X139465714Y-104970410D01*
X139480346Y-104968969D01*
X139482835Y-104967937D01*
X139485523Y-104967747D01*
X139499255Y-104962492D01*
X139613540Y-104905350D01*
X139619837Y-104901386D01*
X139621668Y-104900628D01*
X139623728Y-104898937D01*
X139625983Y-104897518D01*
X139627280Y-104896021D01*
X139633033Y-104891301D01*
X139690176Y-104834158D01*
X139694894Y-104828408D01*
X139696393Y-104827109D01*
X139697814Y-104824849D01*
X139699503Y-104822793D01*
X139700260Y-104820965D01*
X139704225Y-104814666D01*
X139761368Y-104700380D01*
X139766623Y-104686648D01*
X139766813Y-104683960D01*
X139767845Y-104681471D01*
X139769286Y-104666839D01*
X139769286Y-103866839D01*
X140133571Y-103866839D01*
X140133571Y-104323982D01*
X140135012Y-104338614D01*
X140136043Y-104341103D01*
X140136234Y-104343791D01*
X140141489Y-104357523D01*
X140198632Y-104471809D01*
X140200172Y-104474255D01*
X140200557Y-104475410D01*
X140201803Y-104476847D01*
X140206465Y-104484252D01*
X140213570Y-104490414D01*
X140219731Y-104497518D01*
X140227130Y-104502176D01*
X140228572Y-104503426D01*
X140229729Y-104503811D01*
X140232173Y-104505350D01*
X140346459Y-104562492D01*
X140360191Y-104567747D01*
X140362878Y-104567937D01*
X140365368Y-104568969D01*
X140380000Y-104570410D01*
X140608571Y-104570410D01*
X140623203Y-104568969D01*
X140625692Y-104567937D01*
X140628380Y-104567747D01*
X140642112Y-104562492D01*
X140756397Y-104505350D01*
X140768840Y-104497518D01*
X140788014Y-104475411D01*
X140797268Y-104447649D01*
X140795194Y-104418459D01*
X140782107Y-104392285D01*
X140759999Y-104373111D01*
X140732238Y-104363857D01*
X140703048Y-104365931D01*
X140689316Y-104371186D01*
X140590866Y-104420410D01*
X140397704Y-104420410D01*
X140321615Y-104382366D01*
X140283571Y-104306277D01*
X140283571Y-104156895D01*
X140794708Y-104054669D01*
X140808774Y-104050386D01*
X140814879Y-104046297D01*
X140821668Y-104043485D01*
X140826920Y-104038232D01*
X140833088Y-104034102D01*
X140837162Y-104027991D01*
X140842360Y-104022793D01*
X140845203Y-104015929D01*
X140849320Y-104009754D01*
X140850745Y-104002548D01*
X140853559Y-103995757D01*
X140855000Y-103981125D01*
X140855000Y-103866839D01*
X140853559Y-103852207D01*
X140852527Y-103849717D01*
X140852337Y-103847030D01*
X140847082Y-103833298D01*
X140789939Y-103719012D01*
X140788400Y-103716567D01*
X140788015Y-103715411D01*
X140786766Y-103713970D01*
X140782107Y-103706569D01*
X140775001Y-103700406D01*
X140770668Y-103695410D01*
X141219285Y-103695410D01*
X141219285Y-104495410D01*
X141220726Y-104510042D01*
X141231925Y-104537078D01*
X141252617Y-104557770D01*
X141279653Y-104568969D01*
X141308917Y-104568969D01*
X141335953Y-104557770D01*
X141356645Y-104537078D01*
X141367844Y-104510042D01*
X141369285Y-104495410D01*
X141369285Y-104423637D01*
X141906440Y-104423637D01*
X141906440Y-104452900D01*
X141917639Y-104479936D01*
X141926966Y-104491301D01*
X141984110Y-104548444D01*
X141995475Y-104557771D01*
X142011312Y-104564330D01*
X142022510Y-104568969D01*
X142022511Y-104568969D01*
X142051774Y-104568969D01*
X142062972Y-104564330D01*
X142078809Y-104557771D01*
X142090175Y-104548443D01*
X142147318Y-104491301D01*
X142156645Y-104479936D01*
X142167844Y-104452900D01*
X142167844Y-104423637D01*
X142167494Y-104422793D01*
X142163205Y-104412438D01*
X142156646Y-104396601D01*
X142156645Y-104396600D01*
X142147318Y-104385235D01*
X142090175Y-104328092D01*
X142078810Y-104318765D01*
X142051774Y-104307566D01*
X142051773Y-104307566D01*
X142022510Y-104307566D01*
X141995474Y-104318765D01*
X141984109Y-104328092D01*
X141926966Y-104385235D01*
X141917639Y-104396600D01*
X141917638Y-104396601D01*
X141906440Y-104423637D01*
X141369285Y-104423637D01*
X141369285Y-103941687D01*
X141413067Y-103854123D01*
X141452998Y-103814191D01*
X141540561Y-103770410D01*
X141637142Y-103770410D01*
X141651774Y-103768969D01*
X141678810Y-103757770D01*
X141699502Y-103737078D01*
X141710701Y-103710042D01*
X141710701Y-103680778D01*
X141699502Y-103653742D01*
X141678810Y-103633050D01*
X141651774Y-103621851D01*
X141637142Y-103620410D01*
X141522856Y-103620410D01*
X141508224Y-103621851D01*
X141505734Y-103622882D01*
X141503047Y-103623073D01*
X141489315Y-103628328D01*
X141375030Y-103685471D01*
X141368733Y-103689434D01*
X141368697Y-103689449D01*
X141367844Y-103680778D01*
X141356645Y-103653742D01*
X141335953Y-103633050D01*
X141308917Y-103621851D01*
X141279653Y-103621851D01*
X141252617Y-103633050D01*
X141231925Y-103653742D01*
X141220726Y-103680778D01*
X141219285Y-103695410D01*
X140770668Y-103695410D01*
X140768841Y-103693304D01*
X140761437Y-103688643D01*
X140759999Y-103687396D01*
X140758844Y-103687011D01*
X140756398Y-103685471D01*
X140642112Y-103628328D01*
X140628380Y-103623073D01*
X140625692Y-103622882D01*
X140623203Y-103621851D01*
X140608571Y-103620410D01*
X140380000Y-103620410D01*
X140365368Y-103621851D01*
X140362878Y-103622882D01*
X140360191Y-103623073D01*
X140346459Y-103628328D01*
X140232173Y-103685471D01*
X140229728Y-103687009D01*
X140228572Y-103687395D01*
X140227131Y-103688643D01*
X140219730Y-103693303D01*
X140213567Y-103700408D01*
X140206465Y-103706569D01*
X140201804Y-103713972D01*
X140200557Y-103715411D01*
X140200172Y-103716565D01*
X140198632Y-103719012D01*
X140141489Y-103833298D01*
X140136234Y-103847030D01*
X140136043Y-103849717D01*
X140135012Y-103852207D01*
X140133571Y-103866839D01*
X139769286Y-103866839D01*
X139769286Y-103695410D01*
X139767845Y-103680778D01*
X139756646Y-103653742D01*
X139735954Y-103633050D01*
X139708918Y-103621851D01*
X139679654Y-103621851D01*
X139652618Y-103633050D01*
X139642740Y-103642927D01*
X139613541Y-103628328D01*
X139599809Y-103623073D01*
X139597121Y-103622882D01*
X139594632Y-103621851D01*
X139580000Y-103620410D01*
X139351428Y-103620410D01*
X139336796Y-103621851D01*
X139334306Y-103622882D01*
X139331619Y-103623073D01*
X139317887Y-103628328D01*
X139203602Y-103685471D01*
X139197305Y-103689434D01*
X139195475Y-103690193D01*
X139193413Y-103691884D01*
X139191159Y-103693304D01*
X139189862Y-103694799D01*
X139184110Y-103699520D01*
X139126967Y-103756663D01*
X139122246Y-103762414D01*
X139120751Y-103763712D01*
X139119331Y-103765966D01*
X139117640Y-103768028D01*
X139116881Y-103769858D01*
X139112918Y-103776155D01*
X139055775Y-103890441D01*
X139050520Y-103904173D01*
X139050329Y-103906860D01*
X139049298Y-103909350D01*
X139047857Y-103923982D01*
X138683572Y-103923982D01*
X138683572Y-103866839D01*
X138682131Y-103852207D01*
X138681099Y-103849717D01*
X138680909Y-103847030D01*
X138675654Y-103833298D01*
X138618511Y-103719012D01*
X138616972Y-103716567D01*
X138616587Y-103715411D01*
X138615338Y-103713970D01*
X138610679Y-103706569D01*
X138603573Y-103700406D01*
X138597413Y-103693304D01*
X138590009Y-103688643D01*
X138588571Y-103687396D01*
X138587416Y-103687011D01*
X138584970Y-103685471D01*
X138470684Y-103628328D01*
X138456952Y-103623073D01*
X138454264Y-103622882D01*
X138451775Y-103621851D01*
X138437143Y-103620410D01*
X138265714Y-103620410D01*
X138251082Y-103621851D01*
X138248592Y-103622882D01*
X138245905Y-103623073D01*
X138232173Y-103628328D01*
X138160883Y-103663972D01*
X138156646Y-103653742D01*
X138135954Y-103633050D01*
X138108918Y-103621851D01*
X138079654Y-103621851D01*
X138052618Y-103633050D01*
X138031926Y-103653742D01*
X138020727Y-103680778D01*
X138019286Y-103695410D01*
X137513526Y-103695410D01*
X137511699Y-103693304D01*
X137504295Y-103688643D01*
X137502857Y-103687396D01*
X137501702Y-103687011D01*
X137499256Y-103685471D01*
X137384970Y-103628328D01*
X137371238Y-103623073D01*
X137368550Y-103622882D01*
X137366061Y-103621851D01*
X137351429Y-103620410D01*
X137122858Y-103620410D01*
X137108226Y-103621851D01*
X137105736Y-103622882D01*
X137103049Y-103623073D01*
X137089317Y-103628328D01*
X136975031Y-103685471D01*
X136962588Y-103693303D01*
X136943415Y-103715411D01*
X136934161Y-103743172D01*
X136936235Y-103772362D01*
X136949322Y-103798537D01*
X136971430Y-103817710D01*
X136999191Y-103826964D01*
X137028381Y-103824890D01*
X137042113Y-103819635D01*
X137140563Y-103770410D01*
X137333724Y-103770410D01*
X137409813Y-103808454D01*
X137447858Y-103884544D01*
X137447858Y-103934772D01*
X137390867Y-103963268D01*
X137122858Y-103963268D01*
X137108226Y-103964709D01*
X137105736Y-103965740D01*
X137103049Y-103965931D01*
X137089317Y-103971186D01*
X136975031Y-104028328D01*
X136972587Y-104029866D01*
X136971430Y-104030252D01*
X136969988Y-104031501D01*
X136962589Y-104036160D01*
X136956428Y-104043263D01*
X136949323Y-104049426D01*
X136944661Y-104056830D01*
X136943415Y-104058268D01*
X136943030Y-104059422D01*
X136941490Y-104061869D01*
X136884347Y-104176155D01*
X136879092Y-104189887D01*
X136878901Y-104192574D01*
X136877870Y-104195064D01*
X136876429Y-104209696D01*
X136514452Y-104209696D01*
X136567047Y-103999315D01*
X136567422Y-103996777D01*
X136567845Y-103995757D01*
X136568386Y-103990254D01*
X136569198Y-103984770D01*
X136569034Y-103983674D01*
X136569286Y-103981125D01*
X136569286Y-103809696D01*
X136569034Y-103807146D01*
X136569198Y-103806051D01*
X136568386Y-103800566D01*
X136567845Y-103795064D01*
X136567422Y-103794043D01*
X136567047Y-103791506D01*
X136509904Y-103562935D01*
X136509518Y-103561855D01*
X136509480Y-103561316D01*
X136507152Y-103555234D01*
X136504957Y-103549089D01*
X136504634Y-103548653D01*
X136504225Y-103547584D01*
X136447082Y-103433298D01*
X136443118Y-103427001D01*
X136442361Y-103425172D01*
X136440671Y-103423113D01*
X136439250Y-103420855D01*
X136437751Y-103419555D01*
X136433033Y-103413806D01*
X136378008Y-103358781D01*
X141905258Y-103358781D01*
X141962401Y-104044497D01*
X141962604Y-104045609D01*
X141962622Y-104046741D01*
X141963067Y-104048135D01*
X141963166Y-104048674D01*
X141963583Y-104052900D01*
X141964226Y-104054452D01*
X141965052Y-104058958D01*
X141968947Y-104066516D01*
X141971537Y-104074613D01*
X141973574Y-104077021D01*
X141974782Y-104079936D01*
X141977012Y-104082166D01*
X141978458Y-104084971D01*
X141984947Y-104090462D01*
X141990439Y-104096952D01*
X141993243Y-104098397D01*
X141995474Y-104100628D01*
X141998388Y-104101835D01*
X142000797Y-104103873D01*
X142008893Y-104106462D01*
X142016452Y-104110358D01*
X142019596Y-104110619D01*
X142022510Y-104111827D01*
X142025665Y-104111827D01*
X142028669Y-104112788D01*
X142037142Y-104112081D01*
X142045615Y-104112788D01*
X142048619Y-104111827D01*
X142051774Y-104111827D01*
X142054687Y-104110619D01*
X142057832Y-104110358D01*
X142065390Y-104106462D01*
X142073487Y-104103873D01*
X142075895Y-104101835D01*
X142078810Y-104100628D01*
X142081040Y-104098397D01*
X142083845Y-104096952D01*
X142089337Y-104090461D01*
X142095826Y-104084971D01*
X142097271Y-104082166D01*
X142099502Y-104079936D01*
X142100708Y-104077022D01*
X142102747Y-104074614D01*
X142105337Y-104066515D01*
X142109232Y-104058958D01*
X142110057Y-104054452D01*
X142110701Y-104052900D01*
X142111117Y-104048673D01*
X142111215Y-104048136D01*
X142111662Y-104046741D01*
X142111679Y-104045608D01*
X142111883Y-104044496D01*
X142169026Y-103358781D01*
X142168805Y-103344080D01*
X142167844Y-103341075D01*
X142167844Y-103337921D01*
X142163416Y-103327231D01*
X142159890Y-103316207D01*
X142157851Y-103313798D01*
X142156645Y-103310885D01*
X142147318Y-103299520D01*
X142090175Y-103242377D01*
X142078810Y-103233050D01*
X142051774Y-103221851D01*
X142051773Y-103221851D01*
X142022510Y-103221851D01*
X141995474Y-103233050D01*
X141984109Y-103242377D01*
X141926966Y-103299520D01*
X141917639Y-103310885D01*
X141916431Y-103313799D01*
X141914394Y-103316208D01*
X141910867Y-103327231D01*
X141906440Y-103337922D01*
X141906440Y-103341075D01*
X141905479Y-103344080D01*
X141905258Y-103358781D01*
X136378008Y-103358781D01*
X136318748Y-103299520D01*
X136307383Y-103290193D01*
X136304894Y-103289162D01*
X136302858Y-103287396D01*
X136289432Y-103281402D01*
X136118003Y-103224259D01*
X136110749Y-103222609D01*
X136108918Y-103221851D01*
X136106263Y-103221589D01*
X136103666Y-103220999D01*
X136101691Y-103221139D01*
X136094286Y-103220410D01*
X135808572Y-103220410D01*
X135793940Y-103221851D01*
X135766904Y-103233050D01*
X135746212Y-103253742D01*
X135735013Y-103280778D01*
X135733572Y-103295410D01*
X133685954Y-103295410D01*
X133685954Y-103087077D01*
X145131190Y-103087077D01*
X145131190Y-108567607D01*
G37*
D11*
X131757142Y-73872100D02*
X132900000Y-73872100D01*
X133400000Y-72943528D02*
X133900000Y-74443528D01*
X133900000Y-74443528D02*
X134400000Y-72943528D01*
X134899999Y-74443528D02*
X134899999Y-72943528D01*
X134899999Y-73657814D02*
X135757142Y-73657814D01*
X135757142Y-74443528D02*
X135757142Y-72943528D01*
X136257143Y-72943528D02*
X136757143Y-74443528D01*
X136757143Y-74443528D02*
X137257143Y-72943528D01*
D10*
X196239047Y-103592438D02*
X196143809Y-103544819D01*
X196143809Y-103544819D02*
X196000952Y-103544819D01*
X196000952Y-103544819D02*
X195858095Y-103592438D01*
X195858095Y-103592438D02*
X195762857Y-103687676D01*
X195762857Y-103687676D02*
X195715238Y-103782914D01*
X195715238Y-103782914D02*
X195667619Y-103973390D01*
X195667619Y-103973390D02*
X195667619Y-104116247D01*
X195667619Y-104116247D02*
X195715238Y-104306723D01*
X195715238Y-104306723D02*
X195762857Y-104401961D01*
X195762857Y-104401961D02*
X195858095Y-104497200D01*
X195858095Y-104497200D02*
X196000952Y-104544819D01*
X196000952Y-104544819D02*
X196096190Y-104544819D01*
X196096190Y-104544819D02*
X196239047Y-104497200D01*
X196239047Y-104497200D02*
X196286666Y-104449580D01*
X196286666Y-104449580D02*
X196286666Y-104116247D01*
X196286666Y-104116247D02*
X196096190Y-104116247D01*
X197143809Y-104544819D02*
X197143809Y-104021009D01*
X197143809Y-104021009D02*
X197096190Y-103925771D01*
X197096190Y-103925771D02*
X197000952Y-103878152D01*
X197000952Y-103878152D02*
X196810476Y-103878152D01*
X196810476Y-103878152D02*
X196715238Y-103925771D01*
X197143809Y-104497200D02*
X197048571Y-104544819D01*
X197048571Y-104544819D02*
X196810476Y-104544819D01*
X196810476Y-104544819D02*
X196715238Y-104497200D01*
X196715238Y-104497200D02*
X196667619Y-104401961D01*
X196667619Y-104401961D02*
X196667619Y-104306723D01*
X196667619Y-104306723D02*
X196715238Y-104211485D01*
X196715238Y-104211485D02*
X196810476Y-104163866D01*
X196810476Y-104163866D02*
X197048571Y-104163866D01*
X197048571Y-104163866D02*
X197143809Y-104116247D01*
X197620000Y-104544819D02*
X197620000Y-103878152D01*
X197620000Y-103544819D02*
X197572381Y-103592438D01*
X197572381Y-103592438D02*
X197620000Y-103640057D01*
X197620000Y-103640057D02*
X197667619Y-103592438D01*
X197667619Y-103592438D02*
X197620000Y-103544819D01*
X197620000Y-103544819D02*
X197620000Y-103640057D01*
X198096190Y-103878152D02*
X198096190Y-104544819D01*
X198096190Y-103973390D02*
X198143809Y-103925771D01*
X198143809Y-103925771D02*
X198239047Y-103878152D01*
X198239047Y-103878152D02*
X198381904Y-103878152D01*
X198381904Y-103878152D02*
X198477142Y-103925771D01*
X198477142Y-103925771D02*
X198524761Y-104021009D01*
X198524761Y-104021009D02*
X198524761Y-104544819D01*
X199715238Y-104259104D02*
X200191428Y-104259104D01*
X199620000Y-104544819D02*
X199953333Y-103544819D01*
X199953333Y-103544819D02*
X200286666Y-104544819D01*
X201048571Y-104544819D02*
X201048571Y-103544819D01*
X201048571Y-104497200D02*
X200953333Y-104544819D01*
X200953333Y-104544819D02*
X200762857Y-104544819D01*
X200762857Y-104544819D02*
X200667619Y-104497200D01*
X200667619Y-104497200D02*
X200620000Y-104449580D01*
X200620000Y-104449580D02*
X200572381Y-104354342D01*
X200572381Y-104354342D02*
X200572381Y-104068628D01*
X200572381Y-104068628D02*
X200620000Y-103973390D01*
X200620000Y-103973390D02*
X200667619Y-103925771D01*
X200667619Y-103925771D02*
X200762857Y-103878152D01*
X200762857Y-103878152D02*
X200953333Y-103878152D01*
X200953333Y-103878152D02*
X201048571Y-103925771D01*
X201524762Y-103878152D02*
X201524762Y-104735295D01*
X201524762Y-104735295D02*
X201477143Y-104830533D01*
X201477143Y-104830533D02*
X201381905Y-104878152D01*
X201381905Y-104878152D02*
X201334286Y-104878152D01*
X201524762Y-103544819D02*
X201477143Y-103592438D01*
X201477143Y-103592438D02*
X201524762Y-103640057D01*
X201524762Y-103640057D02*
X201572381Y-103592438D01*
X201572381Y-103592438D02*
X201524762Y-103544819D01*
X201524762Y-103544819D02*
X201524762Y-103640057D01*
X155980000Y-95484819D02*
X155980000Y-94484819D01*
X157170476Y-95437200D02*
X157265714Y-95484819D01*
X157265714Y-95484819D02*
X157456190Y-95484819D01*
X157456190Y-95484819D02*
X157551428Y-95437200D01*
X157551428Y-95437200D02*
X157599047Y-95341961D01*
X157599047Y-95341961D02*
X157599047Y-95294342D01*
X157599047Y-95294342D02*
X157551428Y-95199104D01*
X157551428Y-95199104D02*
X157456190Y-95151485D01*
X157456190Y-95151485D02*
X157313333Y-95151485D01*
X157313333Y-95151485D02*
X157218095Y-95103866D01*
X157218095Y-95103866D02*
X157170476Y-95008628D01*
X157170476Y-95008628D02*
X157170476Y-94961009D01*
X157170476Y-94961009D02*
X157218095Y-94865771D01*
X157218095Y-94865771D02*
X157313333Y-94818152D01*
X157313333Y-94818152D02*
X157456190Y-94818152D01*
X157456190Y-94818152D02*
X157551428Y-94865771D01*
X158408571Y-95437200D02*
X158313333Y-95484819D01*
X158313333Y-95484819D02*
X158122857Y-95484819D01*
X158122857Y-95484819D02*
X158027619Y-95437200D01*
X158027619Y-95437200D02*
X157980000Y-95341961D01*
X157980000Y-95341961D02*
X157980000Y-94961009D01*
X157980000Y-94961009D02*
X158027619Y-94865771D01*
X158027619Y-94865771D02*
X158122857Y-94818152D01*
X158122857Y-94818152D02*
X158313333Y-94818152D01*
X158313333Y-94818152D02*
X158408571Y-94865771D01*
X158408571Y-94865771D02*
X158456190Y-94961009D01*
X158456190Y-94961009D02*
X158456190Y-95056247D01*
X158456190Y-95056247D02*
X157980000Y-95151485D01*
X158741905Y-94818152D02*
X159122857Y-94818152D01*
X158884762Y-94484819D02*
X158884762Y-95341961D01*
X158884762Y-95341961D02*
X158932381Y-95437200D01*
X158932381Y-95437200D02*
X159027619Y-95484819D01*
X159027619Y-95484819D02*
X159122857Y-95484819D01*
X195424285Y-108964819D02*
X195614761Y-108964819D01*
X195614761Y-108964819D02*
X195709999Y-109012438D01*
X195709999Y-109012438D02*
X195805237Y-109107676D01*
X195805237Y-109107676D02*
X195852856Y-109298152D01*
X195852856Y-109298152D02*
X195852856Y-109631485D01*
X195852856Y-109631485D02*
X195805237Y-109821961D01*
X195805237Y-109821961D02*
X195709999Y-109917200D01*
X195709999Y-109917200D02*
X195614761Y-109964819D01*
X195614761Y-109964819D02*
X195424285Y-109964819D01*
X195424285Y-109964819D02*
X195329047Y-109917200D01*
X195329047Y-109917200D02*
X195233809Y-109821961D01*
X195233809Y-109821961D02*
X195186190Y-109631485D01*
X195186190Y-109631485D02*
X195186190Y-109298152D01*
X195186190Y-109298152D02*
X195233809Y-109107676D01*
X195233809Y-109107676D02*
X195329047Y-109012438D01*
X195329047Y-109012438D02*
X195424285Y-108964819D01*
X196138571Y-109298152D02*
X196519523Y-109298152D01*
X196281428Y-109964819D02*
X196281428Y-109107676D01*
X196281428Y-109107676D02*
X196329047Y-109012438D01*
X196329047Y-109012438D02*
X196424285Y-108964819D01*
X196424285Y-108964819D02*
X196519523Y-108964819D01*
X196710000Y-109298152D02*
X197090952Y-109298152D01*
X196852857Y-109964819D02*
X196852857Y-109107676D01*
X196852857Y-109107676D02*
X196900476Y-109012438D01*
X196900476Y-109012438D02*
X196995714Y-108964819D01*
X196995714Y-108964819D02*
X197090952Y-108964819D01*
X197376667Y-109917200D02*
X197471905Y-109964819D01*
X197471905Y-109964819D02*
X197662381Y-109964819D01*
X197662381Y-109964819D02*
X197757619Y-109917200D01*
X197757619Y-109917200D02*
X197805238Y-109821961D01*
X197805238Y-109821961D02*
X197805238Y-109774342D01*
X197805238Y-109774342D02*
X197757619Y-109679104D01*
X197757619Y-109679104D02*
X197662381Y-109631485D01*
X197662381Y-109631485D02*
X197519524Y-109631485D01*
X197519524Y-109631485D02*
X197424286Y-109583866D01*
X197424286Y-109583866D02*
X197376667Y-109488628D01*
X197376667Y-109488628D02*
X197376667Y-109441009D01*
X197376667Y-109441009D02*
X197424286Y-109345771D01*
X197424286Y-109345771D02*
X197519524Y-109298152D01*
X197519524Y-109298152D02*
X197662381Y-109298152D01*
X197662381Y-109298152D02*
X197757619Y-109345771D01*
X198614762Y-109917200D02*
X198519524Y-109964819D01*
X198519524Y-109964819D02*
X198329048Y-109964819D01*
X198329048Y-109964819D02*
X198233810Y-109917200D01*
X198233810Y-109917200D02*
X198186191Y-109821961D01*
X198186191Y-109821961D02*
X198186191Y-109441009D01*
X198186191Y-109441009D02*
X198233810Y-109345771D01*
X198233810Y-109345771D02*
X198329048Y-109298152D01*
X198329048Y-109298152D02*
X198519524Y-109298152D01*
X198519524Y-109298152D02*
X198614762Y-109345771D01*
X198614762Y-109345771D02*
X198662381Y-109441009D01*
X198662381Y-109441009D02*
X198662381Y-109536247D01*
X198662381Y-109536247D02*
X198186191Y-109631485D01*
X198948096Y-109298152D02*
X199329048Y-109298152D01*
X199090953Y-108964819D02*
X199090953Y-109821961D01*
X199090953Y-109821961D02*
X199138572Y-109917200D01*
X199138572Y-109917200D02*
X199233810Y-109964819D01*
X199233810Y-109964819D02*
X199329048Y-109964819D01*
X200376668Y-109679104D02*
X200852858Y-109679104D01*
X200281430Y-109964819D02*
X200614763Y-108964819D01*
X200614763Y-108964819D02*
X200948096Y-109964819D01*
X201710001Y-109964819D02*
X201710001Y-108964819D01*
X201710001Y-109917200D02*
X201614763Y-109964819D01*
X201614763Y-109964819D02*
X201424287Y-109964819D01*
X201424287Y-109964819D02*
X201329049Y-109917200D01*
X201329049Y-109917200D02*
X201281430Y-109869580D01*
X201281430Y-109869580D02*
X201233811Y-109774342D01*
X201233811Y-109774342D02*
X201233811Y-109488628D01*
X201233811Y-109488628D02*
X201281430Y-109393390D01*
X201281430Y-109393390D02*
X201329049Y-109345771D01*
X201329049Y-109345771D02*
X201424287Y-109298152D01*
X201424287Y-109298152D02*
X201614763Y-109298152D01*
X201614763Y-109298152D02*
X201710001Y-109345771D01*
X202186192Y-109298152D02*
X202186192Y-110155295D01*
X202186192Y-110155295D02*
X202138573Y-110250533D01*
X202138573Y-110250533D02*
X202043335Y-110298152D01*
X202043335Y-110298152D02*
X201995716Y-110298152D01*
X202186192Y-108964819D02*
X202138573Y-109012438D01*
X202138573Y-109012438D02*
X202186192Y-109060057D01*
X202186192Y-109060057D02*
X202233811Y-109012438D01*
X202233811Y-109012438D02*
X202186192Y-108964819D01*
X202186192Y-108964819D02*
X202186192Y-109060057D01*
X152490001Y-65157342D02*
X152490001Y-63957342D01*
X152490001Y-63957342D02*
X152947144Y-63957342D01*
X152947144Y-63957342D02*
X153061429Y-64014485D01*
X153061429Y-64014485D02*
X153118572Y-64071628D01*
X153118572Y-64071628D02*
X153175715Y-64185914D01*
X153175715Y-64185914D02*
X153175715Y-64357342D01*
X153175715Y-64357342D02*
X153118572Y-64471628D01*
X153118572Y-64471628D02*
X153061429Y-64528771D01*
X153061429Y-64528771D02*
X152947144Y-64585914D01*
X152947144Y-64585914D02*
X152490001Y-64585914D01*
X153632858Y-64814485D02*
X154204287Y-64814485D01*
X153518572Y-65157342D02*
X153918572Y-63957342D01*
X153918572Y-63957342D02*
X154318572Y-65157342D01*
X154890000Y-64471628D02*
X154775715Y-64414485D01*
X154775715Y-64414485D02*
X154718572Y-64357342D01*
X154718572Y-64357342D02*
X154661429Y-64243057D01*
X154661429Y-64243057D02*
X154661429Y-64185914D01*
X154661429Y-64185914D02*
X154718572Y-64071628D01*
X154718572Y-64071628D02*
X154775715Y-64014485D01*
X154775715Y-64014485D02*
X154890000Y-63957342D01*
X154890000Y-63957342D02*
X155118572Y-63957342D01*
X155118572Y-63957342D02*
X155232858Y-64014485D01*
X155232858Y-64014485D02*
X155290000Y-64071628D01*
X155290000Y-64071628D02*
X155347143Y-64185914D01*
X155347143Y-64185914D02*
X155347143Y-64243057D01*
X155347143Y-64243057D02*
X155290000Y-64357342D01*
X155290000Y-64357342D02*
X155232858Y-64414485D01*
X155232858Y-64414485D02*
X155118572Y-64471628D01*
X155118572Y-64471628D02*
X154890000Y-64471628D01*
X154890000Y-64471628D02*
X154775715Y-64528771D01*
X154775715Y-64528771D02*
X154718572Y-64585914D01*
X154718572Y-64585914D02*
X154661429Y-64700200D01*
X154661429Y-64700200D02*
X154661429Y-64928771D01*
X154661429Y-64928771D02*
X154718572Y-65043057D01*
X154718572Y-65043057D02*
X154775715Y-65100200D01*
X154775715Y-65100200D02*
X154890000Y-65157342D01*
X154890000Y-65157342D02*
X155118572Y-65157342D01*
X155118572Y-65157342D02*
X155232858Y-65100200D01*
X155232858Y-65100200D02*
X155290000Y-65043057D01*
X155290000Y-65043057D02*
X155347143Y-64928771D01*
X155347143Y-64928771D02*
X155347143Y-64700200D01*
X155347143Y-64700200D02*
X155290000Y-64585914D01*
X155290000Y-64585914D02*
X155232858Y-64528771D01*
X155232858Y-64528771D02*
X155118572Y-64471628D01*
X156032857Y-64471628D02*
X155918572Y-64414485D01*
X155918572Y-64414485D02*
X155861429Y-64357342D01*
X155861429Y-64357342D02*
X155804286Y-64243057D01*
X155804286Y-64243057D02*
X155804286Y-64185914D01*
X155804286Y-64185914D02*
X155861429Y-64071628D01*
X155861429Y-64071628D02*
X155918572Y-64014485D01*
X155918572Y-64014485D02*
X156032857Y-63957342D01*
X156032857Y-63957342D02*
X156261429Y-63957342D01*
X156261429Y-63957342D02*
X156375715Y-64014485D01*
X156375715Y-64014485D02*
X156432857Y-64071628D01*
X156432857Y-64071628D02*
X156490000Y-64185914D01*
X156490000Y-64185914D02*
X156490000Y-64243057D01*
X156490000Y-64243057D02*
X156432857Y-64357342D01*
X156432857Y-64357342D02*
X156375715Y-64414485D01*
X156375715Y-64414485D02*
X156261429Y-64471628D01*
X156261429Y-64471628D02*
X156032857Y-64471628D01*
X156032857Y-64471628D02*
X155918572Y-64528771D01*
X155918572Y-64528771D02*
X155861429Y-64585914D01*
X155861429Y-64585914D02*
X155804286Y-64700200D01*
X155804286Y-64700200D02*
X155804286Y-64928771D01*
X155804286Y-64928771D02*
X155861429Y-65043057D01*
X155861429Y-65043057D02*
X155918572Y-65100200D01*
X155918572Y-65100200D02*
X156032857Y-65157342D01*
X156032857Y-65157342D02*
X156261429Y-65157342D01*
X156261429Y-65157342D02*
X156375715Y-65100200D01*
X156375715Y-65100200D02*
X156432857Y-65043057D01*
X156432857Y-65043057D02*
X156490000Y-64928771D01*
X156490000Y-64928771D02*
X156490000Y-64700200D01*
X156490000Y-64700200D02*
X156432857Y-64585914D01*
X156432857Y-64585914D02*
X156375715Y-64528771D01*
X156375715Y-64528771D02*
X156261429Y-64471628D01*
X158147143Y-63957342D02*
X158375715Y-63957342D01*
X158375715Y-63957342D02*
X158490000Y-64014485D01*
X158490000Y-64014485D02*
X158604286Y-64128771D01*
X158604286Y-64128771D02*
X158661429Y-64357342D01*
X158661429Y-64357342D02*
X158661429Y-64757342D01*
X158661429Y-64757342D02*
X158604286Y-64985914D01*
X158604286Y-64985914D02*
X158490000Y-65100200D01*
X158490000Y-65100200D02*
X158375715Y-65157342D01*
X158375715Y-65157342D02*
X158147143Y-65157342D01*
X158147143Y-65157342D02*
X158032858Y-65100200D01*
X158032858Y-65100200D02*
X157918572Y-64985914D01*
X157918572Y-64985914D02*
X157861429Y-64757342D01*
X157861429Y-64757342D02*
X157861429Y-64357342D01*
X157861429Y-64357342D02*
X157918572Y-64128771D01*
X157918572Y-64128771D02*
X158032858Y-64014485D01*
X158032858Y-64014485D02*
X158147143Y-63957342D01*
X159175715Y-64357342D02*
X159175715Y-65557342D01*
X159175715Y-64414485D02*
X159290001Y-64357342D01*
X159290001Y-64357342D02*
X159518572Y-64357342D01*
X159518572Y-64357342D02*
X159632858Y-64414485D01*
X159632858Y-64414485D02*
X159690001Y-64471628D01*
X159690001Y-64471628D02*
X159747143Y-64585914D01*
X159747143Y-64585914D02*
X159747143Y-64928771D01*
X159747143Y-64928771D02*
X159690001Y-65043057D01*
X159690001Y-65043057D02*
X159632858Y-65100200D01*
X159632858Y-65100200D02*
X159518572Y-65157342D01*
X159518572Y-65157342D02*
X159290001Y-65157342D01*
X159290001Y-65157342D02*
X159175715Y-65100200D01*
X160261429Y-64700200D02*
X161175715Y-64700200D01*
X161690000Y-64814485D02*
X162261429Y-64814485D01*
X161575714Y-65157342D02*
X161975714Y-63957342D01*
X161975714Y-63957342D02*
X162375714Y-65157342D01*
X162775714Y-65157342D02*
X162775714Y-64357342D01*
X162775714Y-64471628D02*
X162832857Y-64414485D01*
X162832857Y-64414485D02*
X162947142Y-64357342D01*
X162947142Y-64357342D02*
X163118571Y-64357342D01*
X163118571Y-64357342D02*
X163232857Y-64414485D01*
X163232857Y-64414485D02*
X163290000Y-64528771D01*
X163290000Y-64528771D02*
X163290000Y-65157342D01*
X163290000Y-64528771D02*
X163347142Y-64414485D01*
X163347142Y-64414485D02*
X163461428Y-64357342D01*
X163461428Y-64357342D02*
X163632857Y-64357342D01*
X163632857Y-64357342D02*
X163747142Y-64414485D01*
X163747142Y-64414485D02*
X163804285Y-64528771D01*
X163804285Y-64528771D02*
X163804285Y-65157342D01*
X164375714Y-64357342D02*
X164375714Y-65557342D01*
X164375714Y-64414485D02*
X164490000Y-64357342D01*
X164490000Y-64357342D02*
X164718571Y-64357342D01*
X164718571Y-64357342D02*
X164832857Y-64414485D01*
X164832857Y-64414485D02*
X164890000Y-64471628D01*
X164890000Y-64471628D02*
X164947142Y-64585914D01*
X164947142Y-64585914D02*
X164947142Y-64928771D01*
X164947142Y-64928771D02*
X164890000Y-65043057D01*
X164890000Y-65043057D02*
X164832857Y-65100200D01*
X164832857Y-65100200D02*
X164718571Y-65157342D01*
X164718571Y-65157342D02*
X164490000Y-65157342D01*
X164490000Y-65157342D02*
X164375714Y-65100200D01*
X206309580Y-78579047D02*
X206357200Y-78626666D01*
X206357200Y-78626666D02*
X206404819Y-78769523D01*
X206404819Y-78769523D02*
X206404819Y-78864761D01*
X206404819Y-78864761D02*
X206357200Y-79007618D01*
X206357200Y-79007618D02*
X206261961Y-79102856D01*
X206261961Y-79102856D02*
X206166723Y-79150475D01*
X206166723Y-79150475D02*
X205976247Y-79198094D01*
X205976247Y-79198094D02*
X205833390Y-79198094D01*
X205833390Y-79198094D02*
X205642914Y-79150475D01*
X205642914Y-79150475D02*
X205547676Y-79102856D01*
X205547676Y-79102856D02*
X205452438Y-79007618D01*
X205452438Y-79007618D02*
X205404819Y-78864761D01*
X205404819Y-78864761D02*
X205404819Y-78769523D01*
X205404819Y-78769523D02*
X205452438Y-78626666D01*
X205452438Y-78626666D02*
X205500057Y-78579047D01*
X205404819Y-78293332D02*
X205404819Y-77721904D01*
X206404819Y-78007618D02*
X205404819Y-78007618D01*
X206404819Y-76817142D02*
X205928628Y-77150475D01*
X206404819Y-77388570D02*
X205404819Y-77388570D01*
X205404819Y-77388570D02*
X205404819Y-77007618D01*
X205404819Y-77007618D02*
X205452438Y-76912380D01*
X205452438Y-76912380D02*
X205500057Y-76864761D01*
X205500057Y-76864761D02*
X205595295Y-76817142D01*
X205595295Y-76817142D02*
X205738152Y-76817142D01*
X205738152Y-76817142D02*
X205833390Y-76864761D01*
X205833390Y-76864761D02*
X205881009Y-76912380D01*
X205881009Y-76912380D02*
X205928628Y-77007618D01*
X205928628Y-77007618D02*
X205928628Y-77388570D01*
X206404819Y-75912380D02*
X206404819Y-76388570D01*
X206404819Y-76388570D02*
X205404819Y-76388570D01*
X206404819Y-74817141D02*
X205404819Y-74817141D01*
X206404819Y-74340951D02*
X205404819Y-74340951D01*
X205404819Y-74340951D02*
X206404819Y-73769523D01*
X206404819Y-73769523D02*
X205404819Y-73769523D01*
D11*
X134007143Y-83274957D02*
X133864286Y-83203528D01*
X133864286Y-83203528D02*
X133650000Y-83203528D01*
X133650000Y-83203528D02*
X133435714Y-83274957D01*
X133435714Y-83274957D02*
X133292857Y-83417814D01*
X133292857Y-83417814D02*
X133221428Y-83560671D01*
X133221428Y-83560671D02*
X133150000Y-83846385D01*
X133150000Y-83846385D02*
X133150000Y-84060671D01*
X133150000Y-84060671D02*
X133221428Y-84346385D01*
X133221428Y-84346385D02*
X133292857Y-84489242D01*
X133292857Y-84489242D02*
X133435714Y-84632100D01*
X133435714Y-84632100D02*
X133650000Y-84703528D01*
X133650000Y-84703528D02*
X133792857Y-84703528D01*
X133792857Y-84703528D02*
X134007143Y-84632100D01*
X134007143Y-84632100D02*
X134078571Y-84560671D01*
X134078571Y-84560671D02*
X134078571Y-84060671D01*
X134078571Y-84060671D02*
X133792857Y-84060671D01*
X134721428Y-84703528D02*
X134721428Y-83203528D01*
X134721428Y-83203528D02*
X135578571Y-84703528D01*
X135578571Y-84703528D02*
X135578571Y-83203528D01*
X136292857Y-84703528D02*
X136292857Y-83203528D01*
X136292857Y-83203528D02*
X136650000Y-83203528D01*
X136650000Y-83203528D02*
X136864286Y-83274957D01*
X136864286Y-83274957D02*
X137007143Y-83417814D01*
X137007143Y-83417814D02*
X137078572Y-83560671D01*
X137078572Y-83560671D02*
X137150000Y-83846385D01*
X137150000Y-83846385D02*
X137150000Y-84060671D01*
X137150000Y-84060671D02*
X137078572Y-84346385D01*
X137078572Y-84346385D02*
X137007143Y-84489242D01*
X137007143Y-84489242D02*
X136864286Y-84632100D01*
X136864286Y-84632100D02*
X136650000Y-84703528D01*
X136650000Y-84703528D02*
X136292857Y-84703528D01*
X132057142Y-94882100D02*
X133200000Y-94882100D01*
X132628571Y-95453528D02*
X132628571Y-94310671D01*
X133700000Y-93953528D02*
X134200000Y-95453528D01*
X134200000Y-95453528D02*
X134700000Y-93953528D01*
X135199999Y-95453528D02*
X135199999Y-93953528D01*
X135199999Y-94667814D02*
X136057142Y-94667814D01*
X136057142Y-95453528D02*
X136057142Y-93953528D01*
X136557143Y-93953528D02*
X137057143Y-95453528D01*
X137057143Y-95453528D02*
X137557143Y-93953528D01*
D10*
X161346190Y-113174819D02*
X161346190Y-112174819D01*
X161346190Y-112651009D02*
X161917618Y-112651009D01*
X161917618Y-113174819D02*
X161917618Y-112174819D01*
X162250952Y-112174819D02*
X162584285Y-113174819D01*
X162584285Y-113174819D02*
X162917618Y-112174819D01*
X164203333Y-112174819D02*
X164393809Y-112174819D01*
X164393809Y-112174819D02*
X164489047Y-112222438D01*
X164489047Y-112222438D02*
X164584285Y-112317676D01*
X164584285Y-112317676D02*
X164631904Y-112508152D01*
X164631904Y-112508152D02*
X164631904Y-112841485D01*
X164631904Y-112841485D02*
X164584285Y-113031961D01*
X164584285Y-113031961D02*
X164489047Y-113127200D01*
X164489047Y-113127200D02*
X164393809Y-113174819D01*
X164393809Y-113174819D02*
X164203333Y-113174819D01*
X164203333Y-113174819D02*
X164108095Y-113127200D01*
X164108095Y-113127200D02*
X164012857Y-113031961D01*
X164012857Y-113031961D02*
X163965238Y-112841485D01*
X163965238Y-112841485D02*
X163965238Y-112508152D01*
X163965238Y-112508152D02*
X164012857Y-112317676D01*
X164012857Y-112317676D02*
X164108095Y-112222438D01*
X164108095Y-112222438D02*
X164203333Y-112174819D01*
X165060476Y-112174819D02*
X165060476Y-112984342D01*
X165060476Y-112984342D02*
X165108095Y-113079580D01*
X165108095Y-113079580D02*
X165155714Y-113127200D01*
X165155714Y-113127200D02*
X165250952Y-113174819D01*
X165250952Y-113174819D02*
X165441428Y-113174819D01*
X165441428Y-113174819D02*
X165536666Y-113127200D01*
X165536666Y-113127200D02*
X165584285Y-113079580D01*
X165584285Y-113079580D02*
X165631904Y-112984342D01*
X165631904Y-112984342D02*
X165631904Y-112174819D01*
X165965238Y-112174819D02*
X166536666Y-112174819D01*
X166250952Y-113174819D02*
X166250952Y-112174819D01*
X161858095Y-114413866D02*
X162620000Y-114413866D01*
X162239047Y-114794819D02*
X162239047Y-114032914D01*
X164620000Y-114413866D02*
X165381905Y-114413866D01*
X207551366Y-78049404D02*
X207551366Y-77287500D01*
X207932319Y-77668452D02*
X207170414Y-77668452D01*
X207551366Y-75287499D02*
X207551366Y-74525595D01*
X201039580Y-90446666D02*
X201087200Y-90494285D01*
X201087200Y-90494285D02*
X201134819Y-90637142D01*
X201134819Y-90637142D02*
X201134819Y-90732380D01*
X201134819Y-90732380D02*
X201087200Y-90875237D01*
X201087200Y-90875237D02*
X200991961Y-90970475D01*
X200991961Y-90970475D02*
X200896723Y-91018094D01*
X200896723Y-91018094D02*
X200706247Y-91065713D01*
X200706247Y-91065713D02*
X200563390Y-91065713D01*
X200563390Y-91065713D02*
X200372914Y-91018094D01*
X200372914Y-91018094D02*
X200277676Y-90970475D01*
X200277676Y-90970475D02*
X200182438Y-90875237D01*
X200182438Y-90875237D02*
X200134819Y-90732380D01*
X200134819Y-90732380D02*
X200134819Y-90637142D01*
X200134819Y-90637142D02*
X200182438Y-90494285D01*
X200182438Y-90494285D02*
X200230057Y-90446666D01*
X200230057Y-90065713D02*
X200182438Y-90018094D01*
X200182438Y-90018094D02*
X200134819Y-89922856D01*
X200134819Y-89922856D02*
X200134819Y-89684761D01*
X200134819Y-89684761D02*
X200182438Y-89589523D01*
X200182438Y-89589523D02*
X200230057Y-89541904D01*
X200230057Y-89541904D02*
X200325295Y-89494285D01*
X200325295Y-89494285D02*
X200420533Y-89494285D01*
X200420533Y-89494285D02*
X200563390Y-89541904D01*
X200563390Y-89541904D02*
X201134819Y-90113332D01*
X201134819Y-90113332D02*
X201134819Y-89494285D01*
X197054819Y-98462857D02*
X196578628Y-98796190D01*
X197054819Y-99034285D02*
X196054819Y-99034285D01*
X196054819Y-99034285D02*
X196054819Y-98653333D01*
X196054819Y-98653333D02*
X196102438Y-98558095D01*
X196102438Y-98558095D02*
X196150057Y-98510476D01*
X196150057Y-98510476D02*
X196245295Y-98462857D01*
X196245295Y-98462857D02*
X196388152Y-98462857D01*
X196388152Y-98462857D02*
X196483390Y-98510476D01*
X196483390Y-98510476D02*
X196531009Y-98558095D01*
X196531009Y-98558095D02*
X196578628Y-98653333D01*
X196578628Y-98653333D02*
X196578628Y-99034285D01*
X197054819Y-97510476D02*
X197054819Y-98081904D01*
X197054819Y-97796190D02*
X196054819Y-97796190D01*
X196054819Y-97796190D02*
X196197676Y-97891428D01*
X196197676Y-97891428D02*
X196292914Y-97986666D01*
X196292914Y-97986666D02*
X196340533Y-98081904D01*
X196054819Y-97177142D02*
X196054819Y-96558095D01*
X196054819Y-96558095D02*
X196435771Y-96891428D01*
X196435771Y-96891428D02*
X196435771Y-96748571D01*
X196435771Y-96748571D02*
X196483390Y-96653333D01*
X196483390Y-96653333D02*
X196531009Y-96605714D01*
X196531009Y-96605714D02*
X196626247Y-96558095D01*
X196626247Y-96558095D02*
X196864342Y-96558095D01*
X196864342Y-96558095D02*
X196959580Y-96605714D01*
X196959580Y-96605714D02*
X197007200Y-96653333D01*
X197007200Y-96653333D02*
X197054819Y-96748571D01*
X197054819Y-96748571D02*
X197054819Y-97034285D01*
X197054819Y-97034285D02*
X197007200Y-97129523D01*
X197007200Y-97129523D02*
X196959580Y-97177142D01*
X163664166Y-101837319D02*
X163664166Y-102551604D01*
X163664166Y-102551604D02*
X163616547Y-102694461D01*
X163616547Y-102694461D02*
X163521309Y-102789700D01*
X163521309Y-102789700D02*
X163378452Y-102837319D01*
X163378452Y-102837319D02*
X163283214Y-102837319D01*
X164664166Y-102837319D02*
X164092738Y-102837319D01*
X164378452Y-102837319D02*
X164378452Y-101837319D01*
X164378452Y-101837319D02*
X164283214Y-101980176D01*
X164283214Y-101980176D02*
X164187976Y-102075414D01*
X164187976Y-102075414D02*
X164092738Y-102123033D01*
X190684819Y-98182857D02*
X190208628Y-98516190D01*
X190684819Y-98754285D02*
X189684819Y-98754285D01*
X189684819Y-98754285D02*
X189684819Y-98373333D01*
X189684819Y-98373333D02*
X189732438Y-98278095D01*
X189732438Y-98278095D02*
X189780057Y-98230476D01*
X189780057Y-98230476D02*
X189875295Y-98182857D01*
X189875295Y-98182857D02*
X190018152Y-98182857D01*
X190018152Y-98182857D02*
X190113390Y-98230476D01*
X190113390Y-98230476D02*
X190161009Y-98278095D01*
X190161009Y-98278095D02*
X190208628Y-98373333D01*
X190208628Y-98373333D02*
X190208628Y-98754285D01*
X190684819Y-97230476D02*
X190684819Y-97801904D01*
X190684819Y-97516190D02*
X189684819Y-97516190D01*
X189684819Y-97516190D02*
X189827676Y-97611428D01*
X189827676Y-97611428D02*
X189922914Y-97706666D01*
X189922914Y-97706666D02*
X189970533Y-97801904D01*
X189684819Y-96611428D02*
X189684819Y-96516190D01*
X189684819Y-96516190D02*
X189732438Y-96420952D01*
X189732438Y-96420952D02*
X189780057Y-96373333D01*
X189780057Y-96373333D02*
X189875295Y-96325714D01*
X189875295Y-96325714D02*
X190065771Y-96278095D01*
X190065771Y-96278095D02*
X190303866Y-96278095D01*
X190303866Y-96278095D02*
X190494342Y-96325714D01*
X190494342Y-96325714D02*
X190589580Y-96373333D01*
X190589580Y-96373333D02*
X190637200Y-96420952D01*
X190637200Y-96420952D02*
X190684819Y-96516190D01*
X190684819Y-96516190D02*
X190684819Y-96611428D01*
X190684819Y-96611428D02*
X190637200Y-96706666D01*
X190637200Y-96706666D02*
X190589580Y-96754285D01*
X190589580Y-96754285D02*
X190494342Y-96801904D01*
X190494342Y-96801904D02*
X190303866Y-96849523D01*
X190303866Y-96849523D02*
X190065771Y-96849523D01*
X190065771Y-96849523D02*
X189875295Y-96801904D01*
X189875295Y-96801904D02*
X189780057Y-96754285D01*
X189780057Y-96754285D02*
X189732438Y-96706666D01*
X189732438Y-96706666D02*
X189684819Y-96611428D01*
X163693333Y-98674819D02*
X163360000Y-98198628D01*
X163121905Y-98674819D02*
X163121905Y-97674819D01*
X163121905Y-97674819D02*
X163502857Y-97674819D01*
X163502857Y-97674819D02*
X163598095Y-97722438D01*
X163598095Y-97722438D02*
X163645714Y-97770057D01*
X163645714Y-97770057D02*
X163693333Y-97865295D01*
X163693333Y-97865295D02*
X163693333Y-98008152D01*
X163693333Y-98008152D02*
X163645714Y-98103390D01*
X163645714Y-98103390D02*
X163598095Y-98151009D01*
X163598095Y-98151009D02*
X163502857Y-98198628D01*
X163502857Y-98198628D02*
X163121905Y-98198628D01*
X164598095Y-97674819D02*
X164121905Y-97674819D01*
X164121905Y-97674819D02*
X164074286Y-98151009D01*
X164074286Y-98151009D02*
X164121905Y-98103390D01*
X164121905Y-98103390D02*
X164217143Y-98055771D01*
X164217143Y-98055771D02*
X164455238Y-98055771D01*
X164455238Y-98055771D02*
X164550476Y-98103390D01*
X164550476Y-98103390D02*
X164598095Y-98151009D01*
X164598095Y-98151009D02*
X164645714Y-98246247D01*
X164645714Y-98246247D02*
X164645714Y-98484342D01*
X164645714Y-98484342D02*
X164598095Y-98579580D01*
X164598095Y-98579580D02*
X164550476Y-98627200D01*
X164550476Y-98627200D02*
X164455238Y-98674819D01*
X164455238Y-98674819D02*
X164217143Y-98674819D01*
X164217143Y-98674819D02*
X164121905Y-98627200D01*
X164121905Y-98627200D02*
X164074286Y-98579580D01*
X202318095Y-63644819D02*
X202318095Y-62644819D01*
X202318095Y-63121009D02*
X202889523Y-63121009D01*
X202889523Y-63644819D02*
X202889523Y-62644819D01*
X203318095Y-62740057D02*
X203365714Y-62692438D01*
X203365714Y-62692438D02*
X203460952Y-62644819D01*
X203460952Y-62644819D02*
X203699047Y-62644819D01*
X203699047Y-62644819D02*
X203794285Y-62692438D01*
X203794285Y-62692438D02*
X203841904Y-62740057D01*
X203841904Y-62740057D02*
X203889523Y-62835295D01*
X203889523Y-62835295D02*
X203889523Y-62930533D01*
X203889523Y-62930533D02*
X203841904Y-63073390D01*
X203841904Y-63073390D02*
X203270476Y-63644819D01*
X203270476Y-63644819D02*
X203889523Y-63644819D01*
X178984819Y-93722857D02*
X178508628Y-94056190D01*
X178984819Y-94294285D02*
X177984819Y-94294285D01*
X177984819Y-94294285D02*
X177984819Y-93913333D01*
X177984819Y-93913333D02*
X178032438Y-93818095D01*
X178032438Y-93818095D02*
X178080057Y-93770476D01*
X178080057Y-93770476D02*
X178175295Y-93722857D01*
X178175295Y-93722857D02*
X178318152Y-93722857D01*
X178318152Y-93722857D02*
X178413390Y-93770476D01*
X178413390Y-93770476D02*
X178461009Y-93818095D01*
X178461009Y-93818095D02*
X178508628Y-93913333D01*
X178508628Y-93913333D02*
X178508628Y-94294285D01*
X178984819Y-92770476D02*
X178984819Y-93341904D01*
X178984819Y-93056190D02*
X177984819Y-93056190D01*
X177984819Y-93056190D02*
X178127676Y-93151428D01*
X178127676Y-93151428D02*
X178222914Y-93246666D01*
X178222914Y-93246666D02*
X178270533Y-93341904D01*
X177984819Y-91865714D02*
X177984819Y-92341904D01*
X177984819Y-92341904D02*
X178461009Y-92389523D01*
X178461009Y-92389523D02*
X178413390Y-92341904D01*
X178413390Y-92341904D02*
X178365771Y-92246666D01*
X178365771Y-92246666D02*
X178365771Y-92008571D01*
X178365771Y-92008571D02*
X178413390Y-91913333D01*
X178413390Y-91913333D02*
X178461009Y-91865714D01*
X178461009Y-91865714D02*
X178556247Y-91818095D01*
X178556247Y-91818095D02*
X178794342Y-91818095D01*
X178794342Y-91818095D02*
X178889580Y-91865714D01*
X178889580Y-91865714D02*
X178937200Y-91913333D01*
X178937200Y-91913333D02*
X178984819Y-92008571D01*
X178984819Y-92008571D02*
X178984819Y-92246666D01*
X178984819Y-92246666D02*
X178937200Y-92341904D01*
X178937200Y-92341904D02*
X178889580Y-92389523D01*
X184403333Y-96684819D02*
X184070000Y-96208628D01*
X183831905Y-96684819D02*
X183831905Y-95684819D01*
X183831905Y-95684819D02*
X184212857Y-95684819D01*
X184212857Y-95684819D02*
X184308095Y-95732438D01*
X184308095Y-95732438D02*
X184355714Y-95780057D01*
X184355714Y-95780057D02*
X184403333Y-95875295D01*
X184403333Y-95875295D02*
X184403333Y-96018152D01*
X184403333Y-96018152D02*
X184355714Y-96113390D01*
X184355714Y-96113390D02*
X184308095Y-96161009D01*
X184308095Y-96161009D02*
X184212857Y-96208628D01*
X184212857Y-96208628D02*
X183831905Y-96208628D01*
X184974762Y-96113390D02*
X184879524Y-96065771D01*
X184879524Y-96065771D02*
X184831905Y-96018152D01*
X184831905Y-96018152D02*
X184784286Y-95922914D01*
X184784286Y-95922914D02*
X184784286Y-95875295D01*
X184784286Y-95875295D02*
X184831905Y-95780057D01*
X184831905Y-95780057D02*
X184879524Y-95732438D01*
X184879524Y-95732438D02*
X184974762Y-95684819D01*
X184974762Y-95684819D02*
X185165238Y-95684819D01*
X185165238Y-95684819D02*
X185260476Y-95732438D01*
X185260476Y-95732438D02*
X185308095Y-95780057D01*
X185308095Y-95780057D02*
X185355714Y-95875295D01*
X185355714Y-95875295D02*
X185355714Y-95922914D01*
X185355714Y-95922914D02*
X185308095Y-96018152D01*
X185308095Y-96018152D02*
X185260476Y-96065771D01*
X185260476Y-96065771D02*
X185165238Y-96113390D01*
X185165238Y-96113390D02*
X184974762Y-96113390D01*
X184974762Y-96113390D02*
X184879524Y-96161009D01*
X184879524Y-96161009D02*
X184831905Y-96208628D01*
X184831905Y-96208628D02*
X184784286Y-96303866D01*
X184784286Y-96303866D02*
X184784286Y-96494342D01*
X184784286Y-96494342D02*
X184831905Y-96589580D01*
X184831905Y-96589580D02*
X184879524Y-96637200D01*
X184879524Y-96637200D02*
X184974762Y-96684819D01*
X184974762Y-96684819D02*
X185165238Y-96684819D01*
X185165238Y-96684819D02*
X185260476Y-96637200D01*
X185260476Y-96637200D02*
X185308095Y-96589580D01*
X185308095Y-96589580D02*
X185355714Y-96494342D01*
X185355714Y-96494342D02*
X185355714Y-96303866D01*
X185355714Y-96303866D02*
X185308095Y-96208628D01*
X185308095Y-96208628D02*
X185260476Y-96161009D01*
X185260476Y-96161009D02*
X185165238Y-96113390D01*
X171753333Y-98664819D02*
X171420000Y-98188628D01*
X171181905Y-98664819D02*
X171181905Y-97664819D01*
X171181905Y-97664819D02*
X171562857Y-97664819D01*
X171562857Y-97664819D02*
X171658095Y-97712438D01*
X171658095Y-97712438D02*
X171705714Y-97760057D01*
X171705714Y-97760057D02*
X171753333Y-97855295D01*
X171753333Y-97855295D02*
X171753333Y-97998152D01*
X171753333Y-97998152D02*
X171705714Y-98093390D01*
X171705714Y-98093390D02*
X171658095Y-98141009D01*
X171658095Y-98141009D02*
X171562857Y-98188628D01*
X171562857Y-98188628D02*
X171181905Y-98188628D01*
X172610476Y-97998152D02*
X172610476Y-98664819D01*
X172372381Y-97617200D02*
X172134286Y-98331485D01*
X172134286Y-98331485D02*
X172753333Y-98331485D01*
D12*
X167056667Y-95563855D02*
X166790000Y-95182902D01*
X166599524Y-95563855D02*
X166599524Y-94763855D01*
X166599524Y-94763855D02*
X166904286Y-94763855D01*
X166904286Y-94763855D02*
X166980476Y-94801950D01*
X166980476Y-94801950D02*
X167018571Y-94840045D01*
X167018571Y-94840045D02*
X167056667Y-94916236D01*
X167056667Y-94916236D02*
X167056667Y-95030521D01*
X167056667Y-95030521D02*
X167018571Y-95106712D01*
X167018571Y-95106712D02*
X166980476Y-95144807D01*
X166980476Y-95144807D02*
X166904286Y-95182902D01*
X166904286Y-95182902D02*
X166599524Y-95182902D01*
X167742381Y-94763855D02*
X167590000Y-94763855D01*
X167590000Y-94763855D02*
X167513809Y-94801950D01*
X167513809Y-94801950D02*
X167475714Y-94840045D01*
X167475714Y-94840045D02*
X167399524Y-94954331D01*
X167399524Y-94954331D02*
X167361428Y-95106712D01*
X167361428Y-95106712D02*
X167361428Y-95411474D01*
X167361428Y-95411474D02*
X167399524Y-95487664D01*
X167399524Y-95487664D02*
X167437619Y-95525760D01*
X167437619Y-95525760D02*
X167513809Y-95563855D01*
X167513809Y-95563855D02*
X167666190Y-95563855D01*
X167666190Y-95563855D02*
X167742381Y-95525760D01*
X167742381Y-95525760D02*
X167780476Y-95487664D01*
X167780476Y-95487664D02*
X167818571Y-95411474D01*
X167818571Y-95411474D02*
X167818571Y-95220998D01*
X167818571Y-95220998D02*
X167780476Y-95144807D01*
X167780476Y-95144807D02*
X167742381Y-95106712D01*
X167742381Y-95106712D02*
X167666190Y-95068617D01*
X167666190Y-95068617D02*
X167513809Y-95068617D01*
X167513809Y-95068617D02*
X167437619Y-95106712D01*
X167437619Y-95106712D02*
X167399524Y-95144807D01*
X167399524Y-95144807D02*
X167361428Y-95220998D01*
D10*
X190374267Y-77739790D02*
X189898076Y-78073123D01*
X190374267Y-78311218D02*
X189374267Y-78311218D01*
X189374267Y-78311218D02*
X189374267Y-77930266D01*
X189374267Y-77930266D02*
X189421886Y-77835028D01*
X189421886Y-77835028D02*
X189469505Y-77787409D01*
X189469505Y-77787409D02*
X189564743Y-77739790D01*
X189564743Y-77739790D02*
X189707600Y-77739790D01*
X189707600Y-77739790D02*
X189802838Y-77787409D01*
X189802838Y-77787409D02*
X189850457Y-77835028D01*
X189850457Y-77835028D02*
X189898076Y-77930266D01*
X189898076Y-77930266D02*
X189898076Y-78311218D01*
X190374267Y-76787409D02*
X190374267Y-77358837D01*
X190374267Y-77073123D02*
X189374267Y-77073123D01*
X189374267Y-77073123D02*
X189517124Y-77168361D01*
X189517124Y-77168361D02*
X189612362Y-77263599D01*
X189612362Y-77263599D02*
X189659981Y-77358837D01*
X189469505Y-76406456D02*
X189421886Y-76358837D01*
X189421886Y-76358837D02*
X189374267Y-76263599D01*
X189374267Y-76263599D02*
X189374267Y-76025504D01*
X189374267Y-76025504D02*
X189421886Y-75930266D01*
X189421886Y-75930266D02*
X189469505Y-75882647D01*
X189469505Y-75882647D02*
X189564743Y-75835028D01*
X189564743Y-75835028D02*
X189659981Y-75835028D01*
X189659981Y-75835028D02*
X189802838Y-75882647D01*
X189802838Y-75882647D02*
X190374267Y-76454075D01*
X190374267Y-76454075D02*
X190374267Y-75835028D01*
X182537142Y-66714819D02*
X182203809Y-66238628D01*
X181965714Y-66714819D02*
X181965714Y-65714819D01*
X181965714Y-65714819D02*
X182346666Y-65714819D01*
X182346666Y-65714819D02*
X182441904Y-65762438D01*
X182441904Y-65762438D02*
X182489523Y-65810057D01*
X182489523Y-65810057D02*
X182537142Y-65905295D01*
X182537142Y-65905295D02*
X182537142Y-66048152D01*
X182537142Y-66048152D02*
X182489523Y-66143390D01*
X182489523Y-66143390D02*
X182441904Y-66191009D01*
X182441904Y-66191009D02*
X182346666Y-66238628D01*
X182346666Y-66238628D02*
X181965714Y-66238628D01*
X183489523Y-66714819D02*
X182918095Y-66714819D01*
X183203809Y-66714819D02*
X183203809Y-65714819D01*
X183203809Y-65714819D02*
X183108571Y-65857676D01*
X183108571Y-65857676D02*
X183013333Y-65952914D01*
X183013333Y-65952914D02*
X182918095Y-66000533D01*
X184346666Y-66048152D02*
X184346666Y-66714819D01*
X184108571Y-65667200D02*
X183870476Y-66381485D01*
X183870476Y-66381485D02*
X184489523Y-66381485D01*
X188465371Y-90039733D02*
X187989180Y-90373066D01*
X188465371Y-90611161D02*
X187465371Y-90611161D01*
X187465371Y-90611161D02*
X187465371Y-90230209D01*
X187465371Y-90230209D02*
X187512990Y-90134971D01*
X187512990Y-90134971D02*
X187560609Y-90087352D01*
X187560609Y-90087352D02*
X187655847Y-90039733D01*
X187655847Y-90039733D02*
X187798704Y-90039733D01*
X187798704Y-90039733D02*
X187893942Y-90087352D01*
X187893942Y-90087352D02*
X187941561Y-90134971D01*
X187941561Y-90134971D02*
X187989180Y-90230209D01*
X187989180Y-90230209D02*
X187989180Y-90611161D01*
X188465371Y-89563542D02*
X188465371Y-89373066D01*
X188465371Y-89373066D02*
X188417752Y-89277828D01*
X188417752Y-89277828D02*
X188370132Y-89230209D01*
X188370132Y-89230209D02*
X188227275Y-89134971D01*
X188227275Y-89134971D02*
X188036799Y-89087352D01*
X188036799Y-89087352D02*
X187655847Y-89087352D01*
X187655847Y-89087352D02*
X187560609Y-89134971D01*
X187560609Y-89134971D02*
X187512990Y-89182590D01*
X187512990Y-89182590D02*
X187465371Y-89277828D01*
X187465371Y-89277828D02*
X187465371Y-89468304D01*
X187465371Y-89468304D02*
X187512990Y-89563542D01*
X187512990Y-89563542D02*
X187560609Y-89611161D01*
X187560609Y-89611161D02*
X187655847Y-89658780D01*
X187655847Y-89658780D02*
X187893942Y-89658780D01*
X187893942Y-89658780D02*
X187989180Y-89611161D01*
X187989180Y-89611161D02*
X188036799Y-89563542D01*
X188036799Y-89563542D02*
X188084418Y-89468304D01*
X188084418Y-89468304D02*
X188084418Y-89277828D01*
X188084418Y-89277828D02*
X188036799Y-89182590D01*
X188036799Y-89182590D02*
X187989180Y-89134971D01*
X187989180Y-89134971D02*
X187893942Y-89087352D01*
X189471353Y-85469252D02*
X189471353Y-84469252D01*
X189471353Y-84469252D02*
X189709448Y-84469252D01*
X189709448Y-84469252D02*
X189852305Y-84516871D01*
X189852305Y-84516871D02*
X189947543Y-84612109D01*
X189947543Y-84612109D02*
X189995162Y-84707347D01*
X189995162Y-84707347D02*
X190042781Y-84897823D01*
X190042781Y-84897823D02*
X190042781Y-85040680D01*
X190042781Y-85040680D02*
X189995162Y-85231156D01*
X189995162Y-85231156D02*
X189947543Y-85326394D01*
X189947543Y-85326394D02*
X189852305Y-85421633D01*
X189852305Y-85421633D02*
X189709448Y-85469252D01*
X189709448Y-85469252D02*
X189471353Y-85469252D01*
X190947543Y-84469252D02*
X190471353Y-84469252D01*
X190471353Y-84469252D02*
X190423734Y-84945442D01*
X190423734Y-84945442D02*
X190471353Y-84897823D01*
X190471353Y-84897823D02*
X190566591Y-84850204D01*
X190566591Y-84850204D02*
X190804686Y-84850204D01*
X190804686Y-84850204D02*
X190899924Y-84897823D01*
X190899924Y-84897823D02*
X190947543Y-84945442D01*
X190947543Y-84945442D02*
X190995162Y-85040680D01*
X190995162Y-85040680D02*
X190995162Y-85278775D01*
X190995162Y-85278775D02*
X190947543Y-85374013D01*
X190947543Y-85374013D02*
X190899924Y-85421633D01*
X190899924Y-85421633D02*
X190804686Y-85469252D01*
X190804686Y-85469252D02*
X190566591Y-85469252D01*
X190566591Y-85469252D02*
X190471353Y-85421633D01*
X190471353Y-85421633D02*
X190423734Y-85374013D01*
X134858095Y-113714819D02*
X134858095Y-112714819D01*
X134858095Y-113191009D02*
X135429523Y-113191009D01*
X135429523Y-113714819D02*
X135429523Y-112714819D01*
X136334285Y-113048152D02*
X136334285Y-113714819D01*
X136096190Y-112667200D02*
X135858095Y-113381485D01*
X135858095Y-113381485D02*
X136477142Y-113381485D01*
X198494819Y-90828094D02*
X197494819Y-90828094D01*
X197494819Y-90828094D02*
X197494819Y-90589999D01*
X197494819Y-90589999D02*
X197542438Y-90447142D01*
X197542438Y-90447142D02*
X197637676Y-90351904D01*
X197637676Y-90351904D02*
X197732914Y-90304285D01*
X197732914Y-90304285D02*
X197923390Y-90256666D01*
X197923390Y-90256666D02*
X198066247Y-90256666D01*
X198066247Y-90256666D02*
X198256723Y-90304285D01*
X198256723Y-90304285D02*
X198351961Y-90351904D01*
X198351961Y-90351904D02*
X198447200Y-90447142D01*
X198447200Y-90447142D02*
X198494819Y-90589999D01*
X198494819Y-90589999D02*
X198494819Y-90828094D01*
X197494819Y-89399523D02*
X197494819Y-89589999D01*
X197494819Y-89589999D02*
X197542438Y-89685237D01*
X197542438Y-89685237D02*
X197590057Y-89732856D01*
X197590057Y-89732856D02*
X197732914Y-89828094D01*
X197732914Y-89828094D02*
X197923390Y-89875713D01*
X197923390Y-89875713D02*
X198304342Y-89875713D01*
X198304342Y-89875713D02*
X198399580Y-89828094D01*
X198399580Y-89828094D02*
X198447200Y-89780475D01*
X198447200Y-89780475D02*
X198494819Y-89685237D01*
X198494819Y-89685237D02*
X198494819Y-89494761D01*
X198494819Y-89494761D02*
X198447200Y-89399523D01*
X198447200Y-89399523D02*
X198399580Y-89351904D01*
X198399580Y-89351904D02*
X198304342Y-89304285D01*
X198304342Y-89304285D02*
X198066247Y-89304285D01*
X198066247Y-89304285D02*
X197971009Y-89351904D01*
X197971009Y-89351904D02*
X197923390Y-89399523D01*
X197923390Y-89399523D02*
X197875771Y-89494761D01*
X197875771Y-89494761D02*
X197875771Y-89685237D01*
X197875771Y-89685237D02*
X197923390Y-89780475D01*
X197923390Y-89780475D02*
X197971009Y-89828094D01*
X197971009Y-89828094D02*
X198066247Y-89875713D01*
X177267142Y-66714819D02*
X176933809Y-66238628D01*
X176695714Y-66714819D02*
X176695714Y-65714819D01*
X176695714Y-65714819D02*
X177076666Y-65714819D01*
X177076666Y-65714819D02*
X177171904Y-65762438D01*
X177171904Y-65762438D02*
X177219523Y-65810057D01*
X177219523Y-65810057D02*
X177267142Y-65905295D01*
X177267142Y-65905295D02*
X177267142Y-66048152D01*
X177267142Y-66048152D02*
X177219523Y-66143390D01*
X177219523Y-66143390D02*
X177171904Y-66191009D01*
X177171904Y-66191009D02*
X177076666Y-66238628D01*
X177076666Y-66238628D02*
X176695714Y-66238628D01*
X178219523Y-66714819D02*
X177648095Y-66714819D01*
X177933809Y-66714819D02*
X177933809Y-65714819D01*
X177933809Y-65714819D02*
X177838571Y-65857676D01*
X177838571Y-65857676D02*
X177743333Y-65952914D01*
X177743333Y-65952914D02*
X177648095Y-66000533D01*
X179171904Y-66714819D02*
X178600476Y-66714819D01*
X178886190Y-66714819D02*
X178886190Y-65714819D01*
X178886190Y-65714819D02*
X178790952Y-65857676D01*
X178790952Y-65857676D02*
X178695714Y-65952914D01*
X178695714Y-65952914D02*
X178600476Y-66000533D01*
X192453333Y-85652080D02*
X192405714Y-85699700D01*
X192405714Y-85699700D02*
X192262857Y-85747319D01*
X192262857Y-85747319D02*
X192167619Y-85747319D01*
X192167619Y-85747319D02*
X192024762Y-85699700D01*
X192024762Y-85699700D02*
X191929524Y-85604461D01*
X191929524Y-85604461D02*
X191881905Y-85509223D01*
X191881905Y-85509223D02*
X191834286Y-85318747D01*
X191834286Y-85318747D02*
X191834286Y-85175890D01*
X191834286Y-85175890D02*
X191881905Y-84985414D01*
X191881905Y-84985414D02*
X191929524Y-84890176D01*
X191929524Y-84890176D02*
X192024762Y-84794938D01*
X192024762Y-84794938D02*
X192167619Y-84747319D01*
X192167619Y-84747319D02*
X192262857Y-84747319D01*
X192262857Y-84747319D02*
X192405714Y-84794938D01*
X192405714Y-84794938D02*
X192453333Y-84842557D01*
X193358095Y-84747319D02*
X192881905Y-84747319D01*
X192881905Y-84747319D02*
X192834286Y-85223509D01*
X192834286Y-85223509D02*
X192881905Y-85175890D01*
X192881905Y-85175890D02*
X192977143Y-85128271D01*
X192977143Y-85128271D02*
X193215238Y-85128271D01*
X193215238Y-85128271D02*
X193310476Y-85175890D01*
X193310476Y-85175890D02*
X193358095Y-85223509D01*
X193358095Y-85223509D02*
X193405714Y-85318747D01*
X193405714Y-85318747D02*
X193405714Y-85556842D01*
X193405714Y-85556842D02*
X193358095Y-85652080D01*
X193358095Y-85652080D02*
X193310476Y-85699700D01*
X193310476Y-85699700D02*
X193215238Y-85747319D01*
X193215238Y-85747319D02*
X192977143Y-85747319D01*
X192977143Y-85747319D02*
X192881905Y-85699700D01*
X192881905Y-85699700D02*
X192834286Y-85652080D01*
X195794819Y-69472857D02*
X195318628Y-69806190D01*
X195794819Y-70044285D02*
X194794819Y-70044285D01*
X194794819Y-70044285D02*
X194794819Y-69663333D01*
X194794819Y-69663333D02*
X194842438Y-69568095D01*
X194842438Y-69568095D02*
X194890057Y-69520476D01*
X194890057Y-69520476D02*
X194985295Y-69472857D01*
X194985295Y-69472857D02*
X195128152Y-69472857D01*
X195128152Y-69472857D02*
X195223390Y-69520476D01*
X195223390Y-69520476D02*
X195271009Y-69568095D01*
X195271009Y-69568095D02*
X195318628Y-69663333D01*
X195318628Y-69663333D02*
X195318628Y-70044285D01*
X195794819Y-68520476D02*
X195794819Y-69091904D01*
X195794819Y-68806190D02*
X194794819Y-68806190D01*
X194794819Y-68806190D02*
X194937676Y-68901428D01*
X194937676Y-68901428D02*
X195032914Y-68996666D01*
X195032914Y-68996666D02*
X195080533Y-69091904D01*
X194794819Y-68187142D02*
X194794819Y-67520476D01*
X194794819Y-67520476D02*
X195794819Y-67949047D01*
X134858095Y-63644819D02*
X134858095Y-62644819D01*
X134858095Y-63121009D02*
X135429523Y-63121009D01*
X135429523Y-63644819D02*
X135429523Y-62644819D01*
X135810476Y-62644819D02*
X136429523Y-62644819D01*
X136429523Y-62644819D02*
X136096190Y-63025771D01*
X136096190Y-63025771D02*
X136239047Y-63025771D01*
X136239047Y-63025771D02*
X136334285Y-63073390D01*
X136334285Y-63073390D02*
X136381904Y-63121009D01*
X136381904Y-63121009D02*
X136429523Y-63216247D01*
X136429523Y-63216247D02*
X136429523Y-63454342D01*
X136429523Y-63454342D02*
X136381904Y-63549580D01*
X136381904Y-63549580D02*
X136334285Y-63597200D01*
X136334285Y-63597200D02*
X136239047Y-63644819D01*
X136239047Y-63644819D02*
X135953333Y-63644819D01*
X135953333Y-63644819D02*
X135858095Y-63597200D01*
X135858095Y-63597200D02*
X135810476Y-63549580D01*
D12*
X167970476Y-64773855D02*
X167970476Y-65421474D01*
X167970476Y-65421474D02*
X168008571Y-65497664D01*
X168008571Y-65497664D02*
X168046666Y-65535760D01*
X168046666Y-65535760D02*
X168122857Y-65573855D01*
X168122857Y-65573855D02*
X168275238Y-65573855D01*
X168275238Y-65573855D02*
X168351428Y-65535760D01*
X168351428Y-65535760D02*
X168389523Y-65497664D01*
X168389523Y-65497664D02*
X168427619Y-65421474D01*
X168427619Y-65421474D02*
X168427619Y-64773855D01*
X169227618Y-65573855D02*
X168770475Y-65573855D01*
X168999047Y-65573855D02*
X168999047Y-64773855D01*
X168999047Y-64773855D02*
X168922856Y-64888140D01*
X168922856Y-64888140D02*
X168846666Y-64964331D01*
X168846666Y-64964331D02*
X168770475Y-65002426D01*
%TO.C,TP4*%
X134080000Y-85860000D02*
X136980000Y-85860000D01*
X134080000Y-88760000D02*
X134080000Y-85860000D01*
X136980000Y-85860000D02*
X136980000Y-88760000D01*
X136980000Y-88760000D02*
X134080000Y-88760000D01*
%TO.C,C2*%
X199780000Y-94501252D02*
X199780000Y-93078748D01*
X201600000Y-94501252D02*
X201600000Y-93078748D01*
%TO.C,R13*%
X194540000Y-93082936D02*
X194540000Y-94537064D01*
X196360000Y-93082936D02*
X196360000Y-94537064D01*
%TO.C,J1*%
X159297500Y-103082500D02*
X161297500Y-103082500D01*
X159297500Y-104332500D02*
X159297500Y-103082500D01*
X159687500Y-103472500D02*
X159687500Y-110942500D01*
X159687500Y-110942500D02*
X168307500Y-110942500D01*
X160747500Y-104432500D02*
X163747500Y-104432500D01*
X160747500Y-105782500D02*
X161497500Y-105782500D01*
X160747500Y-110082500D02*
X160747500Y-105782500D01*
X160997500Y-105432500D02*
X160747500Y-104432500D01*
X161497500Y-105432500D02*
X160997500Y-105432500D01*
X161497500Y-105782500D02*
X161497500Y-105432500D01*
X161497500Y-110082500D02*
X160747500Y-110082500D01*
X162997500Y-105432500D02*
X162997500Y-105782500D01*
X162997500Y-105782500D02*
X163747500Y-105782500D01*
X163497500Y-105432500D02*
X162997500Y-105432500D01*
X163747500Y-104432500D02*
X163497500Y-105432500D01*
X163747500Y-105782500D02*
X163747500Y-110082500D01*
X163747500Y-110082500D02*
X162997500Y-110082500D01*
X164247500Y-104432500D02*
X167247500Y-104432500D01*
X164247500Y-105782500D02*
X164997500Y-105782500D01*
X164247500Y-110082500D02*
X164247500Y-105782500D01*
X164497500Y-105432500D02*
X164247500Y-104432500D01*
X164997500Y-105432500D02*
X164497500Y-105432500D01*
X164997500Y-105782500D02*
X164997500Y-105432500D01*
X164997500Y-110082500D02*
X164247500Y-110082500D01*
X166497500Y-105432500D02*
X166497500Y-105782500D01*
X166497500Y-105782500D02*
X167247500Y-105782500D01*
X166997500Y-105432500D02*
X166497500Y-105432500D01*
X167247500Y-104432500D02*
X166997500Y-105432500D01*
X167247500Y-105782500D02*
X167247500Y-110082500D01*
X167247500Y-110082500D02*
X166497500Y-110082500D01*
X168307500Y-103472500D02*
X159687500Y-103472500D01*
X168307500Y-110942500D02*
X168307500Y-103472500D01*
X161497500Y-110082500D02*
G75*
G02*
X162997147Y-110082344I750000J-1700000D01*
G01*
X164997500Y-110082500D02*
G75*
G02*
X166497147Y-110082344I750000J-1700000D01*
G01*
%TO.C,R10*%
X189300552Y-94480131D02*
X189300552Y-93026003D01*
X191120552Y-94480131D02*
X191120552Y-93026003D01*
%TO.C,R5*%
X163132936Y-99140000D02*
X164587064Y-99140000D01*
X163132936Y-100960000D02*
X164587064Y-100960000D01*
%TO.C,R15*%
X179450000Y-93807064D02*
X179450000Y-92352936D01*
X181270000Y-93807064D02*
X181270000Y-92352936D01*
%TO.C,R8*%
X185297064Y-93490000D02*
X183842936Y-93490000D01*
X185297064Y-95310000D02*
X183842936Y-95310000D01*
%TO.C,R4*%
X171192936Y-99130000D02*
X172647064Y-99130000D01*
X171192936Y-100950000D02*
X172647064Y-100950000D01*
%TO.C,R6*%
X163082936Y-94280000D02*
X164537064Y-94280000D01*
X163082936Y-96100000D02*
X164537064Y-96100000D01*
%TO.C,R12*%
X191220000Y-78177064D02*
X191220000Y-76722936D01*
X193040000Y-78177064D02*
X193040000Y-76722936D01*
%TO.C,R14*%
X183907064Y-63520000D02*
X182452936Y-63520000D01*
X183907064Y-65340000D02*
X182452936Y-65340000D01*
%TO.C,RV1*%
X173130000Y-101980000D02*
X175819000Y-101980000D01*
X173130000Y-106260000D02*
X173130000Y-101980000D01*
X177261000Y-101980000D02*
X188519000Y-101980000D01*
X183439000Y-106260000D02*
X173130000Y-106260000D01*
X189961000Y-101980000D02*
X192650000Y-101980000D01*
X192650000Y-101980000D02*
X192650000Y-106260000D01*
X192650000Y-102510000D02*
X194170000Y-102510000D01*
X192650000Y-105730000D02*
X192650000Y-102510000D01*
X192650000Y-106260000D02*
X184881000Y-106260000D01*
X194170000Y-102510000D02*
X194170000Y-105730000D01*
X194170000Y-104120000D02*
X193410000Y-104120000D01*
X194170000Y-105730000D02*
X192650000Y-105730000D01*
%TO.C,R9*%
X185270552Y-89146003D02*
X185270552Y-90600131D01*
X187090552Y-89146003D02*
X187090552Y-90600131D01*
%TO.C,D5*%
X189110000Y-86537500D02*
X189110000Y-90947500D01*
X189110000Y-90947500D02*
X191330000Y-90947500D01*
X191330000Y-90947500D02*
X191330000Y-86537500D01*
%TO.C,J3*%
X197042500Y-81162500D02*
X197042500Y-79162500D01*
X197432500Y-72152500D02*
X197432500Y-80772500D01*
X197432500Y-80772500D02*
X204902500Y-80772500D01*
X198292500Y-81162500D02*
X197042500Y-81162500D01*
X198392500Y-73212500D02*
X199392500Y-73462500D01*
X198392500Y-76212500D02*
X198392500Y-73212500D01*
X198392500Y-76712500D02*
X199392500Y-76962500D01*
X198392500Y-79712500D02*
X198392500Y-76712500D01*
X199392500Y-73462500D02*
X199392500Y-73962500D01*
X199392500Y-73962500D02*
X199742500Y-73962500D01*
X199392500Y-75462500D02*
X199392500Y-75962500D01*
X199392500Y-75962500D02*
X198392500Y-76212500D01*
X199392500Y-76962500D02*
X199392500Y-77462500D01*
X199392500Y-77462500D02*
X199742500Y-77462500D01*
X199392500Y-78962500D02*
X199392500Y-79462500D01*
X199392500Y-79462500D02*
X198392500Y-79712500D01*
X199742500Y-73212500D02*
X204042500Y-73212500D01*
X199742500Y-73962500D02*
X199742500Y-73212500D01*
X199742500Y-75462500D02*
X199392500Y-75462500D01*
X199742500Y-76212500D02*
X199742500Y-75462500D01*
X199742500Y-76712500D02*
X204042500Y-76712500D01*
X199742500Y-77462500D02*
X199742500Y-76712500D01*
X199742500Y-78962500D02*
X199392500Y-78962500D01*
X199742500Y-79712500D02*
X199742500Y-78962500D01*
X204042500Y-73212500D02*
X204042500Y-73962500D01*
X204042500Y-75462500D02*
X204042500Y-76212500D01*
X204042500Y-76212500D02*
X199742500Y-76212500D01*
X204042500Y-76712500D02*
X204042500Y-77462500D01*
X204042500Y-78962500D02*
X204042500Y-79712500D01*
X204042500Y-79712500D02*
X199742500Y-79712500D01*
X204902500Y-72152500D02*
X197432500Y-72152500D01*
X204902500Y-80772500D02*
X204902500Y-72152500D01*
X204042500Y-75462500D02*
G75*
G02*
X204042344Y-73962853I1700000J750000D01*
G01*
X204042500Y-78962500D02*
G75*
G02*
X204042344Y-77462853I1700000J750000D01*
G01*
%TO.C,TP1*%
X134140000Y-90160000D02*
X137040000Y-90160000D01*
X134140000Y-93060000D02*
X134140000Y-90160000D01*
X137040000Y-90160000D02*
X137040000Y-93060000D01*
X137040000Y-93060000D02*
X134140000Y-93060000D01*
%TO.C,TP3*%
X134000000Y-79510000D02*
X136900000Y-79510000D01*
X134000000Y-82410000D02*
X134000000Y-79510000D01*
X136900000Y-79510000D02*
X136900000Y-82410000D01*
X136900000Y-82410000D02*
X134000000Y-82410000D01*
%TO.C,D6*%
X196900000Y-92040000D02*
X196900000Y-96450000D01*
X196900000Y-96450000D02*
X199120000Y-96450000D01*
X199120000Y-96450000D02*
X199120000Y-92040000D01*
%TO.C,R11*%
X178637064Y-63520000D02*
X177182936Y-63520000D01*
X178637064Y-65340000D02*
X177182936Y-65340000D01*
%TO.C,C5*%
X191790000Y-87778748D02*
X191790000Y-89201252D01*
X193610000Y-87778748D02*
X193610000Y-89201252D01*
%TO.C,R17*%
X194420000Y-76727064D02*
X194420000Y-75272936D01*
X196240000Y-76727064D02*
X196240000Y-75272936D01*
%TO.C,RV2*%
X173280000Y-107420000D02*
X175969000Y-107420000D01*
X173280000Y-111700000D02*
X173280000Y-107420000D01*
X177411000Y-107420000D02*
X188669000Y-107420000D01*
X183589000Y-111700000D02*
X173280000Y-111700000D01*
X190111000Y-107420000D02*
X192800000Y-107420000D01*
X192800000Y-107420000D02*
X192800000Y-111700000D01*
X192800000Y-107950000D02*
X194320000Y-107950000D01*
X192800000Y-111170000D02*
X192800000Y-107950000D01*
X192800000Y-111700000D02*
X185031000Y-111700000D01*
X194320000Y-107950000D02*
X194320000Y-111170000D01*
X194320000Y-109560000D02*
X193560000Y-109560000D01*
X194320000Y-111170000D02*
X192800000Y-111170000D01*
%TO.C,TP2*%
X133980000Y-75290000D02*
X136880000Y-75290000D01*
X133980000Y-78190000D02*
X133980000Y-75290000D01*
X136880000Y-75290000D02*
X136880000Y-78190000D01*
X136880000Y-78190000D02*
X133980000Y-78190000D01*
%TO.C,U1*%
X162480000Y-67560000D02*
X150580000Y-75560000D01*
X162480000Y-92260000D02*
X150480000Y-84160000D01*
X174880000Y-67660000D02*
X186680000Y-75660000D01*
X174880000Y-92160000D02*
X186680000Y-84160000D01*
X150503033Y-84207694D02*
G75*
G02*
X150580000Y-75560000I2976966J4297694D01*
G01*
X162480000Y-67560000D02*
G75*
G02*
X174985870Y-67715848I6100000J-12350000D01*
G01*
X174985870Y-92104152D02*
G75*
G02*
X162480000Y-92260000I-6405870J12194152D01*
G01*
X186680000Y-75660000D02*
G75*
G02*
X186527176Y-84263859I-3000000J-4250000D01*
G01*
%TO.C,C19*%
X139875450Y-91730000D02*
X141961415Y-89644035D01*
X145147329Y-97001879D02*
X139875450Y-91730000D01*
X145900000Y-85705450D02*
X143814035Y-87791415D01*
X146652671Y-97001879D02*
X145147329Y-97001879D01*
X146652671Y-97001879D02*
X147985965Y-95668585D01*
X151171879Y-90977329D02*
X145900000Y-85705450D01*
X151171879Y-92482671D02*
X149838585Y-93815965D01*
X151171879Y-92482671D02*
X151171879Y-90977329D01*
%TO.C,C20*%
X138838864Y-68946587D02*
X140924829Y-71032552D01*
X144110743Y-63674708D02*
X138838864Y-68946587D01*
X144863414Y-74971137D02*
X142777449Y-72885172D01*
X145616085Y-63674708D02*
X144110743Y-63674708D01*
X145616085Y-63674708D02*
X146949379Y-65008002D01*
X150135293Y-68193916D02*
X148801999Y-66860622D01*
X150135293Y-68193916D02*
X150135293Y-69699258D01*
X150135293Y-69699258D02*
X144863414Y-74971137D01*
%TD*%
M02*
