%TF.GenerationSoftware,KiCad,Pcbnew,9.0.5*%
%TF.CreationDate,2025-11-24T15:53:12+01:00*%
%TF.ProjectId,simplified HV amp,73696d70-6c69-4666-9965-642048562061,rev?*%
%TF.SameCoordinates,Original*%
%TF.FileFunction,Copper,L2,Bot*%
%TF.FilePolarity,Positive*%
%FSLAX46Y46*%
G04 Gerber Fmt 4.6, Leading zero omitted, Abs format (unit mm)*
G04 Created by KiCad (PCBNEW 9.0.5) date 2025-11-24 15:53:12*
%MOMM*%
%LPD*%
G01*
G04 APERTURE LIST*
G04 Aperture macros list*
%AMRoundRect*
0 Rectangle with rounded corners*
0 $1 Rounding radius*
0 $2 $3 $4 $5 $6 $7 $8 $9 X,Y pos of 4 corners*
0 Add a 4 corners polygon primitive as box body*
4,1,4,$2,$3,$4,$5,$6,$7,$8,$9,$2,$3,0*
0 Add four circle primitives for the rounded corners*
1,1,$1+$1,$2,$3*
1,1,$1+$1,$4,$5*
1,1,$1+$1,$6,$7*
1,1,$1+$1,$8,$9*
0 Add four rect primitives between the rounded corners*
20,1,$1+$1,$2,$3,$4,$5,0*
20,1,$1+$1,$4,$5,$6,$7,0*
20,1,$1+$1,$6,$7,$8,$9,0*
20,1,$1+$1,$8,$9,$2,$3,0*%
%AMRotRect*
0 Rectangle, with rotation*
0 The origin of the aperture is its center*
0 $1 length*
0 $2 width*
0 $3 Rotation angle, in degrees counterclockwise*
0 Add horizontal line*
21,1,$1,$2,0,0,$3*%
G04 Aperture macros list end*
%TA.AperFunction,ComponentPad*%
%ADD10R,2.500000X2.500000*%
%TD*%
%TA.AperFunction,ComponentPad*%
%ADD11RoundRect,0.250000X-0.650000X-1.550000X0.650000X-1.550000X0.650000X1.550000X-0.650000X1.550000X0*%
%TD*%
%TA.AperFunction,ComponentPad*%
%ADD12O,1.800000X3.600000*%
%TD*%
%TA.AperFunction,ComponentPad*%
%ADD13C,5.600000*%
%TD*%
%TA.AperFunction,ComponentPad*%
%ADD14C,1.800000*%
%TD*%
%TA.AperFunction,ComponentPad*%
%ADD15RoundRect,0.250000X1.550000X-0.650000X1.550000X0.650000X-1.550000X0.650000X-1.550000X-0.650000X0*%
%TD*%
%TA.AperFunction,ComponentPad*%
%ADD16O,3.600000X1.800000*%
%TD*%
%TA.AperFunction,ComponentPad*%
%ADD17C,2.600000*%
%TD*%
%TA.AperFunction,ComponentPad*%
%ADD18C,6.350000*%
%TD*%
%TA.AperFunction,SMDPad,CuDef*%
%ADD19RoundRect,0.250000X-0.625000X0.400000X-0.625000X-0.400000X0.625000X-0.400000X0.625000X0.400000X0*%
%TD*%
%TA.AperFunction,SMDPad,CuDef*%
%ADD20RotRect,1.100000X1.100000X45.000000*%
%TD*%
%TA.AperFunction,SMDPad,CuDef*%
%ADD21RotRect,3.500000X1.800000X225.000000*%
%TD*%
%TA.AperFunction,SMDPad,CuDef*%
%ADD22RoundRect,0.250000X-0.400000X-0.625000X0.400000X-0.625000X0.400000X0.625000X-0.400000X0.625000X0*%
%TD*%
%TA.AperFunction,SMDPad,CuDef*%
%ADD23RoundRect,0.250000X0.625000X-0.400000X0.625000X0.400000X-0.625000X0.400000X-0.625000X-0.400000X0*%
%TD*%
%TA.AperFunction,SMDPad,CuDef*%
%ADD24RotRect,3.500000X1.800000X315.000000*%
%TD*%
%TA.AperFunction,SMDPad,CuDef*%
%ADD25RoundRect,0.250000X-0.751301X-0.167938X-0.167938X-0.751301X0.751301X0.167938X0.167938X0.751301X0*%
%TD*%
%TA.AperFunction,SMDPad,CuDef*%
%ADD26RotRect,1.100000X1.100000X225.000000*%
%TD*%
%TA.AperFunction,SMDPad,CuDef*%
%ADD27RoundRect,0.250000X0.167938X-0.751301X0.751301X-0.167938X-0.167938X0.751301X-0.751301X0.167938X0*%
%TD*%
%TA.AperFunction,SMDPad,CuDef*%
%ADD28RoundRect,0.250000X-0.650000X0.412500X-0.650000X-0.412500X0.650000X-0.412500X0.650000X0.412500X0*%
%TD*%
%TA.AperFunction,ViaPad*%
%ADD29C,0.800000*%
%TD*%
%TA.AperFunction,Conductor*%
%ADD30C,0.500000*%
%TD*%
%TA.AperFunction,Conductor*%
%ADD31C,1.500000*%
%TD*%
G04 APERTURE END LIST*
D10*
%TO.P,TP4,1*%
%TO.N,GND*%
X135530000Y-87310000D03*
%TD*%
D11*
%TO.P,J1,1,Pin_1*%
%TO.N,/HVOUT*%
X156430000Y-107180000D03*
D12*
%TO.P,J1,2,Pin_2*%
%TO.N,GND*%
X159930000Y-107180000D03*
%TD*%
D13*
%TO.P,H2,1,1*%
%TO.N,unconnected-(H2-Pad1)*%
X203080000Y-66940000D03*
%TD*%
D14*
%TO.P,RV1,1,1*%
%TO.N,Net-(D1-A)*%
X176540000Y-102850000D03*
%TO.P,RV1,2,2*%
%TO.N,Net-(R2-Pad1)*%
X184160000Y-105390000D03*
%TO.P,RV1,3,3*%
X189240000Y-102850000D03*
%TD*%
D15*
%TO.P,J3,1,Pin_1*%
%TO.N,/CTRL*%
X201792500Y-78212500D03*
D16*
%TO.P,J3,2,Pin_2*%
%TO.N,GND*%
X201792500Y-74712500D03*
%TD*%
D13*
%TO.P,H4,1,1*%
%TO.N,GND*%
X135620000Y-117010000D03*
%TD*%
D10*
%TO.P,TP1,1*%
%TO.N,+VHV*%
X135590000Y-91610000D03*
%TD*%
D13*
%TO.P,H1,1,1*%
%TO.N,unconnected-(H1-Pad1)*%
X203110000Y-116900000D03*
%TD*%
D10*
%TO.P,TP3,1*%
%TO.N,GND*%
X135450000Y-80960000D03*
%TD*%
D13*
%TO.P,H3,1,1*%
%TO.N,unconnected-(H3-Pad1)*%
X135620000Y-66940000D03*
%TD*%
D14*
%TO.P,RV2,1,1*%
%TO.N,Net-(R10-Pad1)*%
X176690000Y-108290000D03*
%TO.P,RV2,2,2*%
%TO.N,Net-(R3-Pad2)*%
X184310000Y-110830000D03*
%TO.P,RV2,3,3*%
%TO.N,Net-(R13-Pad2)*%
X189390000Y-108290000D03*
%TD*%
D10*
%TO.P,TP2,1*%
%TO.N,-VHV*%
X135430000Y-76740000D03*
%TD*%
D17*
%TO.P,U1,1,OUT*%
%TO.N,/HVOUT*%
X163720000Y-83990000D03*
%TO.P,U1,2,CL*%
%TO.N,Net-(U1-CL)*%
X167480000Y-86160000D03*
%TO.P,U1,3,+VS*%
%TO.N,+VHV*%
X171760000Y-85410000D03*
%TO.P,U1,4,+IN*%
%TO.N,/CTRL*%
X174550000Y-82080000D03*
%TO.P,U1,5,-IN*%
%TO.N,Net-(D1-A)*%
X174550000Y-77740000D03*
%TO.P,U1,6,-VS*%
%TO.N,-VHV*%
X171760000Y-74410000D03*
%TO.P,U1,7,RC*%
%TO.N,Net-(U1-RC)*%
X167480000Y-73660000D03*
%TO.P,U1,8,CC*%
%TO.N,Net-(U1-CC)*%
X163720000Y-75830000D03*
D18*
%TO.P,U1,C*%
%TO.N,N/C*%
X153480000Y-79910000D03*
X183680000Y-79910000D03*
%TD*%
D19*
%TO.P,R3,1*%
%TO.N,Net-(R2-Pad1)*%
X180730000Y-105590000D03*
%TO.P,R3,2*%
%TO.N,Net-(R3-Pad2)*%
X180730000Y-108690000D03*
%TD*%
D20*
%TO.P,D1,1,K*%
%TO.N,/CTRL*%
X177760603Y-86223016D03*
%TO.P,D1,2,A*%
%TO.N,Net-(D1-A)*%
X179740501Y-84243118D03*
%TD*%
D21*
%TO.P,D4,1,K*%
%TO.N,GND*%
X180448319Y-69555300D03*
%TO.P,D4,2,A*%
%TO.N,-VHV*%
X176912785Y-73090834D03*
%TD*%
D22*
%TO.P,R6,1*%
%TO.N,/HVOUT*%
X162350552Y-89593067D03*
%TO.P,R6,2*%
%TO.N,Net-(U1-CL)*%
X165450552Y-89593067D03*
%TD*%
%TO.P,R4,1*%
%TO.N,Net-(R4-Pad1)*%
X167830000Y-102440000D03*
%TO.P,R4,2*%
%TO.N,Net-(D1-A)*%
X170930000Y-102440000D03*
%TD*%
D23*
%TO.P,R2,1*%
%TO.N,Net-(R2-Pad1)*%
X180760000Y-103060000D03*
%TO.P,R2,2*%
%TO.N,GND*%
X180760000Y-99960000D03*
%TD*%
D22*
%TO.P,R5,1*%
%TO.N,/HVOUT*%
X164670000Y-98940000D03*
%TO.P,R5,2*%
%TO.N,Net-(R4-Pad1)*%
X167770000Y-98940000D03*
%TD*%
%TO.P,R1,1*%
%TO.N,Net-(C1-Pad1)*%
X164302000Y-69978000D03*
%TO.P,R1,2*%
%TO.N,Net-(U1-RC)*%
X167402000Y-69978000D03*
%TD*%
D24*
%TO.P,D3,1,K*%
%TO.N,+VHV*%
X170832785Y-90975300D03*
%TO.P,D3,2,A*%
%TO.N,GND*%
X174368319Y-94510834D03*
%TD*%
D25*
%TO.P,C3,1*%
%TO.N,+VHV*%
X173680552Y-88843067D03*
%TO.P,C3,2*%
%TO.N,GND*%
X175890260Y-91052775D03*
%TD*%
D26*
%TO.P,D2,1,K*%
%TO.N,Net-(D1-A)*%
X181620501Y-86033118D03*
%TO.P,D2,2,A*%
%TO.N,/CTRL*%
X179640603Y-88013016D03*
%TD*%
D27*
%TO.P,C4,1*%
%TO.N,-VHV*%
X173785698Y-71577921D03*
%TO.P,C4,2*%
%TO.N,GND*%
X175995406Y-69368213D03*
%TD*%
D28*
%TO.P,C1,1*%
%TO.N,Net-(C1-Pad1)*%
X161152000Y-70015500D03*
%TO.P,C1,2*%
%TO.N,Net-(U1-CC)*%
X161152000Y-73140500D03*
%TD*%
D29*
%TO.N,GND*%
X195330000Y-74450000D03*
X190150552Y-85663067D03*
X199030000Y-95550000D03*
X202450000Y-95202500D03*
X193480000Y-85965000D03*
%TO.N,/HVOUT*%
X162350552Y-98909448D03*
%TO.N,+VHV*%
X182000000Y-93690000D03*
%TO.N,Net-(D1-A)*%
X181530501Y-86033118D03*
%TO.N,-VLV*%
X192170000Y-78910000D03*
X192170000Y-75940000D03*
%TD*%
D30*
%TO.N,Net-(C1-Pad1)*%
X161152000Y-70015500D02*
X164264500Y-70015500D01*
%TO.N,Net-(U1-CC)*%
X163720000Y-75708500D02*
X161152000Y-73140500D01*
%TO.N,/CTRL*%
X177760603Y-85290603D02*
X174550000Y-82080000D01*
X179550603Y-88013016D02*
X177760603Y-86223016D01*
X177760603Y-86223016D02*
X177760603Y-85290603D01*
%TO.N,/HVOUT*%
X164670000Y-98940000D02*
X162381104Y-98940000D01*
X162350552Y-89593067D02*
X162350552Y-98909448D01*
X162381104Y-98940000D02*
X162350552Y-98909448D01*
X162350552Y-85359448D02*
X163720000Y-83990000D01*
X162350552Y-89593067D02*
X162350552Y-85359448D01*
%TO.N,Net-(R4-Pad1)*%
X167770000Y-102380000D02*
X167830000Y-102440000D01*
X167770000Y-98940000D02*
X167770000Y-102380000D01*
X167700000Y-102310000D02*
X167830000Y-102440000D01*
%TO.N,Net-(R2-Pad1)*%
X180730000Y-105590000D02*
X180730000Y-103090000D01*
X180730000Y-103090000D02*
X180760000Y-103060000D01*
X183960000Y-105590000D02*
X184160000Y-105390000D01*
X180730000Y-105590000D02*
X183960000Y-105590000D01*
%TO.N,Net-(U1-CL)*%
X165450552Y-89593067D02*
X165450552Y-88189448D01*
X165450552Y-88189448D02*
X167480000Y-86160000D01*
D31*
%TO.N,+VHV*%
X171548319Y-90975300D02*
X173680552Y-88843067D01*
X173680552Y-87330552D02*
X171760000Y-85410000D01*
X173680552Y-88843067D02*
X173680552Y-87330552D01*
D30*
X175748037Y-87330552D02*
X175748037Y-87438037D01*
X175748037Y-87330552D02*
X173680552Y-87330552D01*
D31*
X170832785Y-90975300D02*
X171548319Y-90975300D01*
D30*
X175748037Y-87438037D02*
X182000000Y-93690000D01*
D31*
%TO.N,-VHV*%
X176912785Y-73090834D02*
X175298611Y-73090834D01*
X175298611Y-73090834D02*
X173785698Y-71577921D01*
X173785698Y-71577921D02*
X173785698Y-72384302D01*
X173785698Y-72384302D02*
X171760000Y-74410000D01*
D30*
%TO.N,Net-(D1-A)*%
X179740501Y-82930502D02*
X174550000Y-77740000D01*
X181530501Y-86033118D02*
X179740501Y-84243118D01*
X170930000Y-102440000D02*
X171340000Y-102850000D01*
X179740501Y-84243118D02*
X179740501Y-82930502D01*
X171340000Y-102850000D02*
X176540000Y-102850000D01*
%TO.N,-VLV*%
X192170000Y-75940000D02*
X192170000Y-78910000D01*
%TO.N,Net-(R3-Pad2)*%
X182170000Y-108690000D02*
X184310000Y-110830000D01*
X180730000Y-108690000D02*
X182170000Y-108690000D01*
%TO.N,Net-(U1-RC)*%
X167402000Y-69978000D02*
X167402000Y-73582000D01*
%TD*%
%TA.AperFunction,Conductor*%
%TO.N,GND*%
G36*
X207872539Y-62570185D02*
G01*
X207918294Y-62622989D01*
X207929500Y-62674500D01*
X207929500Y-121425500D01*
X207909815Y-121492539D01*
X207857011Y-121538294D01*
X207805500Y-121549500D01*
X131314500Y-121549500D01*
X131247461Y-121529815D01*
X131201706Y-121477011D01*
X131190500Y-121425500D01*
X131190500Y-116728034D01*
X199609500Y-116728034D01*
X199609500Y-117071965D01*
X199643210Y-117414249D01*
X199710308Y-117751572D01*
X199810150Y-118080706D01*
X199941770Y-118398464D01*
X199941772Y-118398469D01*
X200103893Y-118701775D01*
X200103904Y-118701793D01*
X200294975Y-118987751D01*
X200294985Y-118987765D01*
X200513176Y-119253632D01*
X200756367Y-119496823D01*
X200756372Y-119496827D01*
X200756373Y-119496828D01*
X201022240Y-119715019D01*
X201308213Y-119906100D01*
X201308222Y-119906105D01*
X201308224Y-119906106D01*
X201611530Y-120068227D01*
X201611532Y-120068227D01*
X201611538Y-120068231D01*
X201929295Y-120199850D01*
X202258422Y-120299690D01*
X202595750Y-120366789D01*
X202938031Y-120400500D01*
X202938034Y-120400500D01*
X203281966Y-120400500D01*
X203281969Y-120400500D01*
X203624250Y-120366789D01*
X203961578Y-120299690D01*
X204290705Y-120199850D01*
X204608462Y-120068231D01*
X204911787Y-119906100D01*
X205197760Y-119715019D01*
X205463627Y-119496828D01*
X205706828Y-119253627D01*
X205925019Y-118987760D01*
X206116100Y-118701787D01*
X206278231Y-118398462D01*
X206409850Y-118080705D01*
X206509690Y-117751578D01*
X206576789Y-117414250D01*
X206610500Y-117071969D01*
X206610500Y-116728031D01*
X206576789Y-116385750D01*
X206509690Y-116048422D01*
X206409850Y-115719295D01*
X206278231Y-115401538D01*
X206116100Y-115098213D01*
X205925019Y-114812240D01*
X205706828Y-114546373D01*
X205706827Y-114546372D01*
X205706823Y-114546367D01*
X205463632Y-114303176D01*
X205197765Y-114084985D01*
X205197764Y-114084984D01*
X205197760Y-114084981D01*
X204911787Y-113893900D01*
X204911782Y-113893897D01*
X204911775Y-113893893D01*
X204608469Y-113731772D01*
X204608464Y-113731770D01*
X204290706Y-113600150D01*
X203961572Y-113500308D01*
X203624248Y-113433210D01*
X203624249Y-113433210D01*
X203366456Y-113407821D01*
X203281969Y-113399500D01*
X202938031Y-113399500D01*
X202859966Y-113407188D01*
X202595750Y-113433210D01*
X202258427Y-113500308D01*
X201929293Y-113600150D01*
X201611535Y-113731770D01*
X201611530Y-113731772D01*
X201308224Y-113893893D01*
X201308206Y-113893904D01*
X201022248Y-114084975D01*
X201022234Y-114084985D01*
X200756367Y-114303176D01*
X200513176Y-114546367D01*
X200294985Y-114812234D01*
X200294975Y-114812248D01*
X200103904Y-115098206D01*
X200103893Y-115098224D01*
X199941772Y-115401530D01*
X199941770Y-115401535D01*
X199810150Y-115719293D01*
X199710308Y-116048427D01*
X199643210Y-116385750D01*
X199609500Y-116728034D01*
X131190500Y-116728034D01*
X131190500Y-105574863D01*
X154829500Y-105574863D01*
X154829500Y-108785136D01*
X154839582Y-108898548D01*
X154839582Y-108898551D01*
X154839583Y-108898552D01*
X154848537Y-108929845D01*
X154892762Y-109084405D01*
X154925907Y-109147857D01*
X154982266Y-109255751D01*
X155029518Y-109313700D01*
X155104428Y-109405571D01*
X155172566Y-109461130D01*
X155254249Y-109527734D01*
X155425594Y-109617237D01*
X155611448Y-109670417D01*
X155724862Y-109680500D01*
X155724870Y-109680500D01*
X157135130Y-109680500D01*
X157135138Y-109680500D01*
X157248552Y-109670417D01*
X157434406Y-109617237D01*
X157605751Y-109527734D01*
X157755571Y-109405571D01*
X157877734Y-109255751D01*
X157967237Y-109084406D01*
X158020417Y-108898552D01*
X158030500Y-108785138D01*
X158030500Y-106169818D01*
X158530000Y-106169818D01*
X158530000Y-106930000D01*
X159381518Y-106930000D01*
X159370889Y-106948409D01*
X159330000Y-107101009D01*
X159330000Y-107258991D01*
X159370889Y-107411591D01*
X159381518Y-107430000D01*
X158530000Y-107430000D01*
X158530000Y-108190181D01*
X158564473Y-108407835D01*
X158632567Y-108617410D01*
X158732613Y-108813760D01*
X158862142Y-108992041D01*
X159017958Y-109147857D01*
X159196239Y-109277386D01*
X159392589Y-109377432D01*
X159602163Y-109445526D01*
X159679999Y-109457854D01*
X159680000Y-109457854D01*
X159680000Y-107728482D01*
X159698409Y-107739111D01*
X159851009Y-107780000D01*
X160008991Y-107780000D01*
X160161591Y-107739111D01*
X160180000Y-107728482D01*
X160180000Y-109457854D01*
X160257834Y-109445526D01*
X160257837Y-109445526D01*
X160467410Y-109377432D01*
X160663760Y-109277386D01*
X160842041Y-109147857D01*
X160997857Y-108992041D01*
X161127386Y-108813760D01*
X161227432Y-108617410D01*
X161295526Y-108407835D01*
X161330000Y-108190181D01*
X161330000Y-108164038D01*
X175089500Y-108164038D01*
X175089500Y-108415962D01*
X175128910Y-108664785D01*
X175206760Y-108904383D01*
X175321132Y-109128848D01*
X175469201Y-109332649D01*
X175469205Y-109332654D01*
X175647345Y-109510794D01*
X175647350Y-109510798D01*
X175793852Y-109617237D01*
X175851155Y-109658870D01*
X175994184Y-109731747D01*
X176075616Y-109773239D01*
X176075618Y-109773239D01*
X176075621Y-109773241D01*
X176315215Y-109851090D01*
X176564038Y-109890500D01*
X176564039Y-109890500D01*
X176815961Y-109890500D01*
X176815962Y-109890500D01*
X177064785Y-109851090D01*
X177304379Y-109773241D01*
X177528845Y-109658870D01*
X177732656Y-109510793D01*
X177910793Y-109332656D01*
X178058870Y-109128845D01*
X178173241Y-108904379D01*
X178251090Y-108664785D01*
X178290500Y-108415962D01*
X178290500Y-108234863D01*
X179154500Y-108234863D01*
X179154500Y-109145136D01*
X179164582Y-109258548D01*
X179217762Y-109444405D01*
X179252441Y-109510794D01*
X179307266Y-109615751D01*
X179308478Y-109617237D01*
X179429428Y-109765571D01*
X179500603Y-109823606D01*
X179579249Y-109887734D01*
X179750594Y-109977237D01*
X179936448Y-110030417D01*
X180049862Y-110040500D01*
X180049870Y-110040500D01*
X181410130Y-110040500D01*
X181410138Y-110040500D01*
X181523552Y-110030417D01*
X181709406Y-109977237D01*
X181880751Y-109887734D01*
X181880759Y-109887727D01*
X181882374Y-109886664D01*
X181883403Y-109886348D01*
X181886326Y-109884822D01*
X181886610Y-109885366D01*
X181949180Y-109866201D01*
X182016443Y-109885105D01*
X182038302Y-109902512D01*
X182682643Y-110546853D01*
X182716128Y-110608176D01*
X182717435Y-110653931D01*
X182709500Y-110704032D01*
X182709500Y-110955961D01*
X182748910Y-111204785D01*
X182826760Y-111444383D01*
X182941132Y-111668848D01*
X183089201Y-111872649D01*
X183089205Y-111872654D01*
X183267345Y-112050794D01*
X183267350Y-112050798D01*
X183445117Y-112179952D01*
X183471155Y-112198870D01*
X183614184Y-112271747D01*
X183695616Y-112313239D01*
X183695618Y-112313239D01*
X183695621Y-112313241D01*
X183935215Y-112391090D01*
X184184038Y-112430500D01*
X184184039Y-112430500D01*
X184435961Y-112430500D01*
X184435962Y-112430500D01*
X184684785Y-112391090D01*
X184924379Y-112313241D01*
X185148845Y-112198870D01*
X185352656Y-112050793D01*
X185530793Y-111872656D01*
X185678870Y-111668845D01*
X185793241Y-111444379D01*
X185871090Y-111204785D01*
X185910500Y-110955962D01*
X185910500Y-110704038D01*
X185871090Y-110455215D01*
X185793241Y-110215621D01*
X185793239Y-110215618D01*
X185793239Y-110215616D01*
X185751747Y-110134184D01*
X185678870Y-109991155D01*
X185605740Y-109890500D01*
X185530798Y-109787350D01*
X185530794Y-109787345D01*
X185352654Y-109609205D01*
X185352649Y-109609201D01*
X185148848Y-109461132D01*
X185148847Y-109461131D01*
X185148845Y-109461130D01*
X185078747Y-109425413D01*
X184924383Y-109346760D01*
X184684785Y-109268910D01*
X184435962Y-109229500D01*
X184184038Y-109229500D01*
X184184032Y-109229500D01*
X184133931Y-109237435D01*
X184064638Y-109228480D01*
X184026853Y-109202643D01*
X183071058Y-108246847D01*
X182988249Y-108164038D01*
X187789500Y-108164038D01*
X187789500Y-108415962D01*
X187828910Y-108664785D01*
X187906760Y-108904383D01*
X188021132Y-109128848D01*
X188169201Y-109332649D01*
X188169205Y-109332654D01*
X188347345Y-109510794D01*
X188347350Y-109510798D01*
X188493852Y-109617237D01*
X188551155Y-109658870D01*
X188694184Y-109731747D01*
X188775616Y-109773239D01*
X188775618Y-109773239D01*
X188775621Y-109773241D01*
X189015215Y-109851090D01*
X189264038Y-109890500D01*
X189264039Y-109890500D01*
X189515961Y-109890500D01*
X189515962Y-109890500D01*
X189764785Y-109851090D01*
X190004379Y-109773241D01*
X190228845Y-109658870D01*
X190432656Y-109510793D01*
X190610793Y-109332656D01*
X190758870Y-109128845D01*
X190873241Y-108904379D01*
X190951090Y-108664785D01*
X190990500Y-108415962D01*
X190990500Y-108164038D01*
X190951090Y-107915215D01*
X190873241Y-107675621D01*
X190873239Y-107675618D01*
X190873239Y-107675616D01*
X190808423Y-107548408D01*
X190758870Y-107451155D01*
X190677748Y-107339500D01*
X190610798Y-107247350D01*
X190610794Y-107247345D01*
X190432654Y-107069205D01*
X190432649Y-107069201D01*
X190228848Y-106921132D01*
X190228847Y-106921131D01*
X190228845Y-106921130D01*
X190142700Y-106877237D01*
X190004383Y-106806760D01*
X189764785Y-106728910D01*
X189515962Y-106689500D01*
X189264038Y-106689500D01*
X189139626Y-106709205D01*
X189015214Y-106728910D01*
X188775616Y-106806760D01*
X188551151Y-106921132D01*
X188347350Y-107069201D01*
X188347345Y-107069205D01*
X188169205Y-107247345D01*
X188169201Y-107247350D01*
X188021132Y-107451151D01*
X187906760Y-107675616D01*
X187828910Y-107915214D01*
X187823131Y-107951700D01*
X187789500Y-108164038D01*
X182988249Y-108164038D01*
X182775911Y-107951700D01*
X182775907Y-107951697D01*
X182620236Y-107847680D01*
X182620227Y-107847675D01*
X182518903Y-107805706D01*
X182518901Y-107805705D01*
X182447251Y-107776027D01*
X182447247Y-107776026D01*
X182447243Y-107776024D01*
X182360731Y-107758816D01*
X182360721Y-107758814D01*
X182355433Y-107757763D01*
X182263617Y-107739500D01*
X182263616Y-107739500D01*
X182184664Y-107739500D01*
X182177919Y-107738760D01*
X182151678Y-107727824D01*
X182124403Y-107719815D01*
X182117351Y-107713518D01*
X182113426Y-107711882D01*
X182110050Y-107706998D01*
X182095340Y-107693861D01*
X182030571Y-107614428D01*
X181938700Y-107539518D01*
X181880751Y-107492266D01*
X181802048Y-107451155D01*
X181709405Y-107402762D01*
X181554845Y-107358537D01*
X181523552Y-107349583D01*
X181523551Y-107349582D01*
X181523548Y-107349582D01*
X181434662Y-107341680D01*
X181410138Y-107339500D01*
X180049862Y-107339500D01*
X180037599Y-107340590D01*
X179936451Y-107349582D01*
X179750594Y-107402762D01*
X179579250Y-107492265D01*
X179429428Y-107614428D01*
X179307265Y-107764250D01*
X179217762Y-107935594D01*
X179164582Y-108121451D01*
X179154500Y-108234863D01*
X178290500Y-108234863D01*
X178290500Y-108164038D01*
X178251090Y-107915215D01*
X178173241Y-107675621D01*
X178173239Y-107675618D01*
X178173239Y-107675616D01*
X178108423Y-107548408D01*
X178058870Y-107451155D01*
X177977748Y-107339500D01*
X177910798Y-107247350D01*
X177910794Y-107247345D01*
X177732654Y-107069205D01*
X177732649Y-107069201D01*
X177528848Y-106921132D01*
X177528847Y-106921131D01*
X177528845Y-106921130D01*
X177442700Y-106877237D01*
X177304383Y-106806760D01*
X177064785Y-106728910D01*
X176815962Y-106689500D01*
X176564038Y-106689500D01*
X176439626Y-106709205D01*
X176315214Y-106728910D01*
X176075616Y-106806760D01*
X175851151Y-106921132D01*
X175647350Y-107069201D01*
X175647345Y-107069205D01*
X175469205Y-107247345D01*
X175469201Y-107247350D01*
X175321132Y-107451151D01*
X175206760Y-107675616D01*
X175128910Y-107915214D01*
X175123131Y-107951700D01*
X175089500Y-108164038D01*
X161330000Y-108164038D01*
X161330000Y-107430000D01*
X160478482Y-107430000D01*
X160489111Y-107411591D01*
X160530000Y-107258991D01*
X160530000Y-107101009D01*
X160489111Y-106948409D01*
X160478482Y-106930000D01*
X161330000Y-106930000D01*
X161330000Y-106169818D01*
X161295526Y-105952164D01*
X161227432Y-105742589D01*
X161127386Y-105546239D01*
X160997857Y-105367958D01*
X160842041Y-105212142D01*
X160735676Y-105134863D01*
X179154500Y-105134863D01*
X179154500Y-106045136D01*
X179164582Y-106158548D01*
X179217762Y-106344405D01*
X179217763Y-106344406D01*
X179307266Y-106515751D01*
X179354518Y-106573700D01*
X179429428Y-106665571D01*
X179504339Y-106726652D01*
X179579249Y-106787734D01*
X179750594Y-106877237D01*
X179936448Y-106930417D01*
X180049862Y-106940500D01*
X180049870Y-106940500D01*
X181410130Y-106940500D01*
X181410138Y-106940500D01*
X181523552Y-106930417D01*
X181709406Y-106877237D01*
X181880751Y-106787734D01*
X182030571Y-106665571D01*
X182095340Y-106586139D01*
X182152961Y-106546622D01*
X182191442Y-106540500D01*
X182995689Y-106540500D01*
X183062728Y-106560185D01*
X183083370Y-106576819D01*
X183117345Y-106610794D01*
X183117350Y-106610798D01*
X183225675Y-106689500D01*
X183321155Y-106758870D01*
X183415143Y-106806759D01*
X183545616Y-106873239D01*
X183545618Y-106873239D01*
X183545621Y-106873241D01*
X183785215Y-106951090D01*
X184034038Y-106990500D01*
X184034039Y-106990500D01*
X184285961Y-106990500D01*
X184285962Y-106990500D01*
X184534785Y-106951090D01*
X184774379Y-106873241D01*
X184998845Y-106758870D01*
X185202656Y-106610793D01*
X185380793Y-106432656D01*
X185528870Y-106228845D01*
X185643241Y-106004379D01*
X185721090Y-105764785D01*
X185760500Y-105515962D01*
X185760500Y-105264038D01*
X185721090Y-105015215D01*
X185643241Y-104775621D01*
X185643239Y-104775618D01*
X185643239Y-104775616D01*
X185601747Y-104694184D01*
X185528870Y-104551155D01*
X185427107Y-104411090D01*
X185380798Y-104347350D01*
X185380794Y-104347345D01*
X185202654Y-104169205D01*
X185202649Y-104169201D01*
X184998848Y-104021132D01*
X184998847Y-104021131D01*
X184998845Y-104021130D01*
X184928747Y-103985413D01*
X184774383Y-103906760D01*
X184534785Y-103828910D01*
X184443211Y-103814406D01*
X184285962Y-103789500D01*
X184034038Y-103789500D01*
X183959606Y-103801289D01*
X183785214Y-103828910D01*
X183545616Y-103906760D01*
X183321151Y-104021132D01*
X183117350Y-104169201D01*
X183117345Y-104169205D01*
X182939205Y-104347345D01*
X182939201Y-104347350D01*
X182791132Y-104551150D01*
X182786025Y-104561173D01*
X182780613Y-104571794D01*
X182732641Y-104622590D01*
X182670129Y-104639500D01*
X182191442Y-104639500D01*
X182124403Y-104619815D01*
X182095340Y-104593861D01*
X182030568Y-104514425D01*
X181931115Y-104433331D01*
X181891598Y-104375710D01*
X181889507Y-104305872D01*
X181925505Y-104245990D01*
X181931091Y-104241148D01*
X182060571Y-104135571D01*
X182182734Y-103985751D01*
X182272237Y-103814406D01*
X182325417Y-103628552D01*
X182335500Y-103515138D01*
X182335500Y-102724038D01*
X187639500Y-102724038D01*
X187639500Y-102975961D01*
X187678910Y-103224785D01*
X187756760Y-103464383D01*
X187871132Y-103688848D01*
X188019201Y-103892649D01*
X188019205Y-103892654D01*
X188197345Y-104070794D01*
X188197350Y-104070798D01*
X188375117Y-104199952D01*
X188401155Y-104218870D01*
X188509921Y-104274289D01*
X188625616Y-104333239D01*
X188625618Y-104333239D01*
X188625621Y-104333241D01*
X188865215Y-104411090D01*
X189114038Y-104450500D01*
X189114039Y-104450500D01*
X189365961Y-104450500D01*
X189365962Y-104450500D01*
X189614785Y-104411090D01*
X189854379Y-104333241D01*
X190078845Y-104218870D01*
X190282656Y-104070793D01*
X190460793Y-103892656D01*
X190608870Y-103688845D01*
X190723241Y-103464379D01*
X190801090Y-103224785D01*
X190840500Y-102975962D01*
X190840500Y-102724038D01*
X190801090Y-102475215D01*
X190723241Y-102235621D01*
X190723239Y-102235618D01*
X190723239Y-102235616D01*
X190671589Y-102134249D01*
X190608870Y-102011155D01*
X190521609Y-101891050D01*
X190460798Y-101807350D01*
X190460794Y-101807345D01*
X190282654Y-101629205D01*
X190282649Y-101629201D01*
X190078848Y-101481132D01*
X190078847Y-101481131D01*
X190078845Y-101481130D01*
X190008747Y-101445413D01*
X189854383Y-101366760D01*
X189614785Y-101288910D01*
X189365962Y-101249500D01*
X189114038Y-101249500D01*
X188989626Y-101269205D01*
X188865214Y-101288910D01*
X188625616Y-101366760D01*
X188401151Y-101481132D01*
X188197350Y-101629201D01*
X188197345Y-101629205D01*
X188019205Y-101807345D01*
X188019201Y-101807350D01*
X187871132Y-102011151D01*
X187756760Y-102235616D01*
X187678910Y-102475214D01*
X187639500Y-102724038D01*
X182335500Y-102724038D01*
X182335500Y-102604862D01*
X182325417Y-102491448D01*
X182272237Y-102305594D01*
X182182734Y-102134249D01*
X182121652Y-102059339D01*
X182060571Y-101984428D01*
X181968700Y-101909518D01*
X181910751Y-101862266D01*
X181805610Y-101807345D01*
X181739405Y-101772762D01*
X181584845Y-101728537D01*
X181553552Y-101719583D01*
X181553551Y-101719582D01*
X181553548Y-101719582D01*
X181464662Y-101711680D01*
X181440138Y-101709500D01*
X180079862Y-101709500D01*
X180067599Y-101710590D01*
X179966451Y-101719582D01*
X179780594Y-101772762D01*
X179609250Y-101862265D01*
X179459428Y-101984428D01*
X179337265Y-102134250D01*
X179247762Y-102305594D01*
X179194582Y-102491451D01*
X179184500Y-102604863D01*
X179184500Y-103515136D01*
X179194582Y-103628548D01*
X179247762Y-103814405D01*
X179319760Y-103952237D01*
X179337266Y-103985751D01*
X179366114Y-104021130D01*
X179459428Y-104135571D01*
X179558884Y-104216667D01*
X179598401Y-104274289D01*
X179600492Y-104344127D01*
X179564494Y-104404009D01*
X179558884Y-104408871D01*
X179429428Y-104514428D01*
X179307265Y-104664250D01*
X179217762Y-104835594D01*
X179164582Y-105021451D01*
X179154500Y-105134863D01*
X160735676Y-105134863D01*
X160663760Y-105082613D01*
X160467410Y-104982567D01*
X160257836Y-104914473D01*
X160180000Y-104902144D01*
X160180000Y-106631517D01*
X160161591Y-106620889D01*
X160008991Y-106580000D01*
X159851009Y-106580000D01*
X159698409Y-106620889D01*
X159680000Y-106631517D01*
X159680000Y-104902144D01*
X159602164Y-104914473D01*
X159602161Y-104914473D01*
X159392589Y-104982567D01*
X159196239Y-105082613D01*
X159017958Y-105212142D01*
X158862142Y-105367958D01*
X158732613Y-105546239D01*
X158632567Y-105742589D01*
X158564473Y-105952164D01*
X158530000Y-106169818D01*
X158030500Y-106169818D01*
X158030500Y-105574862D01*
X158020417Y-105461448D01*
X157967237Y-105275594D01*
X157877734Y-105104249D01*
X157778515Y-104982567D01*
X157755571Y-104954428D01*
X157609832Y-104835594D01*
X157605751Y-104832266D01*
X157497300Y-104775616D01*
X157434405Y-104742762D01*
X157279845Y-104698537D01*
X157248552Y-104689583D01*
X157248551Y-104689582D01*
X157248548Y-104689582D01*
X157159662Y-104681680D01*
X157135138Y-104679500D01*
X155724862Y-104679500D01*
X155712599Y-104680590D01*
X155611451Y-104689582D01*
X155425594Y-104742762D01*
X155254250Y-104832265D01*
X155104428Y-104954428D01*
X154982265Y-105104250D01*
X154892762Y-105275594D01*
X154839582Y-105461451D01*
X154829500Y-105574863D01*
X131190500Y-105574863D01*
X131190500Y-90303386D01*
X133639500Y-90303386D01*
X133639500Y-92916613D01*
X133645913Y-92987192D01*
X133696522Y-93149606D01*
X133784530Y-93295188D01*
X133904811Y-93415469D01*
X133904813Y-93415470D01*
X133904815Y-93415472D01*
X134050394Y-93503478D01*
X134212804Y-93554086D01*
X134283384Y-93560500D01*
X134283387Y-93560500D01*
X136896613Y-93560500D01*
X136896616Y-93560500D01*
X136967196Y-93554086D01*
X137129606Y-93503478D01*
X137275185Y-93415472D01*
X137395472Y-93295185D01*
X137483478Y-93149606D01*
X137534086Y-92987196D01*
X137540500Y-92916616D01*
X137540500Y-90303384D01*
X137534086Y-90232804D01*
X137483478Y-90070394D01*
X137395472Y-89924815D01*
X137395470Y-89924813D01*
X137395469Y-89924811D01*
X137275188Y-89804530D01*
X137129606Y-89716522D01*
X136967196Y-89665914D01*
X136967194Y-89665913D01*
X136967192Y-89665913D01*
X136917778Y-89661423D01*
X136896616Y-89659500D01*
X134283384Y-89659500D01*
X134264145Y-89661248D01*
X134212807Y-89665913D01*
X134050393Y-89716522D01*
X133904811Y-89804530D01*
X133784530Y-89924811D01*
X133696522Y-90070393D01*
X133645913Y-90232807D01*
X133639500Y-90303386D01*
X131190500Y-90303386D01*
X131190500Y-86012155D01*
X133780000Y-86012155D01*
X133780000Y-87060000D01*
X134981518Y-87060000D01*
X134970889Y-87078409D01*
X134930000Y-87231009D01*
X134930000Y-87388991D01*
X134970889Y-87541591D01*
X134981518Y-87560000D01*
X133780000Y-87560000D01*
X133780000Y-88607844D01*
X133786401Y-88667372D01*
X133786403Y-88667379D01*
X133836645Y-88802086D01*
X133836649Y-88802093D01*
X133922809Y-88917187D01*
X133922812Y-88917190D01*
X134037906Y-89003350D01*
X134037913Y-89003354D01*
X134172620Y-89053596D01*
X134172627Y-89053598D01*
X134232155Y-89059999D01*
X134232172Y-89060000D01*
X135280000Y-89060000D01*
X135280000Y-87858482D01*
X135298409Y-87869111D01*
X135451009Y-87910000D01*
X135608991Y-87910000D01*
X135761591Y-87869111D01*
X135780000Y-87858482D01*
X135780000Y-89060000D01*
X136827828Y-89060000D01*
X136827844Y-89059999D01*
X136887372Y-89053598D01*
X136887379Y-89053596D01*
X137022086Y-89003354D01*
X137022093Y-89003350D01*
X137137187Y-88917190D01*
X137137190Y-88917187D01*
X137140377Y-88912930D01*
X161000052Y-88912930D01*
X161000052Y-90273203D01*
X161010134Y-90386615D01*
X161063314Y-90572472D01*
X161112213Y-90666083D01*
X161152818Y-90743818D01*
X161217867Y-90823594D01*
X161274978Y-90893635D01*
X161274979Y-90893636D01*
X161274981Y-90893638D01*
X161354413Y-90958406D01*
X161393930Y-91016027D01*
X161400052Y-91054508D01*
X161400052Y-98321079D01*
X161386537Y-98377373D01*
X161330682Y-98486995D01*
X161330678Y-98487005D01*
X161277149Y-98651750D01*
X161252085Y-98810000D01*
X161250052Y-98822837D01*
X161250052Y-98996059D01*
X161277150Y-99167149D01*
X161330679Y-99331893D01*
X161409320Y-99486236D01*
X161511138Y-99626376D01*
X161633624Y-99748862D01*
X161773764Y-99850680D01*
X161928107Y-99929321D01*
X162092851Y-99982850D01*
X162263941Y-100009948D01*
X162263942Y-100009948D01*
X162437162Y-100009948D01*
X162437163Y-100009948D01*
X162608253Y-99982850D01*
X162772997Y-99929321D01*
X162822663Y-99904014D01*
X162878958Y-99890500D01*
X163292538Y-99890500D01*
X163359577Y-99910185D01*
X163402446Y-99957088D01*
X163472266Y-100090751D01*
X163519518Y-100148700D01*
X163594428Y-100240571D01*
X163669339Y-100301652D01*
X163744249Y-100362734D01*
X163915594Y-100452237D01*
X164101448Y-100505417D01*
X164214862Y-100515500D01*
X164214870Y-100515500D01*
X165125130Y-100515500D01*
X165125138Y-100515500D01*
X165238552Y-100505417D01*
X165424406Y-100452237D01*
X165595751Y-100362734D01*
X165745571Y-100240571D01*
X165867734Y-100090751D01*
X165957237Y-99919406D01*
X166010417Y-99733552D01*
X166020500Y-99620138D01*
X166020500Y-98259863D01*
X166419500Y-98259863D01*
X166419500Y-99620136D01*
X166429582Y-99733548D01*
X166482762Y-99919405D01*
X166482763Y-99919406D01*
X166572266Y-100090751D01*
X166637315Y-100170527D01*
X166694426Y-100240568D01*
X166694427Y-100240569D01*
X166694429Y-100240571D01*
X166773861Y-100305339D01*
X166813378Y-100362960D01*
X166819500Y-100401441D01*
X166819500Y-101027481D01*
X166799815Y-101094520D01*
X166773863Y-101123581D01*
X166754430Y-101139427D01*
X166632265Y-101289250D01*
X166542762Y-101460594D01*
X166489582Y-101646451D01*
X166479500Y-101759863D01*
X166479500Y-103120136D01*
X166489582Y-103233548D01*
X166542762Y-103419405D01*
X166542763Y-103419406D01*
X166632266Y-103590751D01*
X166663086Y-103628548D01*
X166754428Y-103740571D01*
X166814435Y-103789500D01*
X166904249Y-103862734D01*
X167075594Y-103952237D01*
X167261448Y-104005417D01*
X167374862Y-104015500D01*
X167374870Y-104015500D01*
X168285130Y-104015500D01*
X168285138Y-104015500D01*
X168398552Y-104005417D01*
X168584406Y-103952237D01*
X168755751Y-103862734D01*
X168905571Y-103740571D01*
X169027734Y-103590751D01*
X169117237Y-103419406D01*
X169170417Y-103233552D01*
X169180500Y-103120138D01*
X169180500Y-101759863D01*
X169579500Y-101759863D01*
X169579500Y-103120136D01*
X169589582Y-103233548D01*
X169642762Y-103419405D01*
X169642763Y-103419406D01*
X169732266Y-103590751D01*
X169763086Y-103628548D01*
X169854428Y-103740571D01*
X169914435Y-103789500D01*
X170004249Y-103862734D01*
X170175594Y-103952237D01*
X170361448Y-104005417D01*
X170474862Y-104015500D01*
X170474870Y-104015500D01*
X171385130Y-104015500D01*
X171385138Y-104015500D01*
X171498552Y-104005417D01*
X171684406Y-103952237D01*
X171855751Y-103862734D01*
X171897859Y-103828398D01*
X171962254Y-103801289D01*
X171976221Y-103800500D01*
X175189071Y-103800500D01*
X175256110Y-103820185D01*
X175289390Y-103851616D01*
X175319203Y-103892652D01*
X175497345Y-104070794D01*
X175497350Y-104070798D01*
X175675117Y-104199952D01*
X175701155Y-104218870D01*
X175809921Y-104274289D01*
X175925616Y-104333239D01*
X175925618Y-104333239D01*
X175925621Y-104333241D01*
X176165215Y-104411090D01*
X176414038Y-104450500D01*
X176414039Y-104450500D01*
X176665961Y-104450500D01*
X176665962Y-104450500D01*
X176914785Y-104411090D01*
X177154379Y-104333241D01*
X177378845Y-104218870D01*
X177582656Y-104070793D01*
X177760793Y-103892656D01*
X177908870Y-103688845D01*
X178023241Y-103464379D01*
X178101090Y-103224785D01*
X178140500Y-102975962D01*
X178140500Y-102724038D01*
X178101090Y-102475215D01*
X178023241Y-102235621D01*
X178023239Y-102235618D01*
X178023239Y-102235616D01*
X177971589Y-102134249D01*
X177908870Y-102011155D01*
X177821609Y-101891050D01*
X177760798Y-101807350D01*
X177760794Y-101807345D01*
X177582654Y-101629205D01*
X177582649Y-101629201D01*
X177378848Y-101481132D01*
X177378847Y-101481131D01*
X177378845Y-101481130D01*
X177308747Y-101445413D01*
X177154383Y-101366760D01*
X176914785Y-101288910D01*
X176665962Y-101249500D01*
X176414038Y-101249500D01*
X176289626Y-101269205D01*
X176165214Y-101288910D01*
X175925616Y-101366760D01*
X175701151Y-101481132D01*
X175497350Y-101629201D01*
X175497345Y-101629205D01*
X175319203Y-101807347D01*
X175289390Y-101848384D01*
X175234061Y-101891050D01*
X175189071Y-101899500D01*
X172404500Y-101899500D01*
X172337461Y-101879815D01*
X172291706Y-101827011D01*
X172280500Y-101775500D01*
X172280500Y-101759869D01*
X172280500Y-101759862D01*
X172270417Y-101646448D01*
X172217237Y-101460594D01*
X172127734Y-101289249D01*
X172066652Y-101214339D01*
X172005571Y-101139428D01*
X171888974Y-101044356D01*
X171855751Y-101017266D01*
X171820499Y-100998852D01*
X171684405Y-100927762D01*
X171529845Y-100883537D01*
X171498552Y-100874583D01*
X171498551Y-100874582D01*
X171498548Y-100874582D01*
X171409662Y-100866680D01*
X171385138Y-100864500D01*
X170474862Y-100864500D01*
X170462599Y-100865590D01*
X170361451Y-100874582D01*
X170175594Y-100927762D01*
X170004250Y-101017265D01*
X169854428Y-101139428D01*
X169732265Y-101289250D01*
X169642762Y-101460594D01*
X169589582Y-101646451D01*
X169579500Y-101759863D01*
X169180500Y-101759863D01*
X169180500Y-101759862D01*
X169170417Y-101646448D01*
X169117237Y-101460594D01*
X169027734Y-101289249D01*
X168905571Y-101139429D01*
X168905569Y-101139427D01*
X168766138Y-101025734D01*
X168726622Y-100968113D01*
X168720500Y-100929633D01*
X168720500Y-100409986D01*
X179385001Y-100409986D01*
X179395494Y-100512697D01*
X179450641Y-100679119D01*
X179450643Y-100679124D01*
X179542684Y-100828345D01*
X179666654Y-100952315D01*
X179815875Y-101044356D01*
X179815880Y-101044358D01*
X179982302Y-101099505D01*
X179982309Y-101099506D01*
X180085019Y-101109999D01*
X180509999Y-101109999D01*
X181010000Y-101109999D01*
X181434972Y-101109999D01*
X181434986Y-101109998D01*
X181537697Y-101099505D01*
X181704119Y-101044358D01*
X181704124Y-101044356D01*
X181853345Y-100952315D01*
X181977315Y-100828345D01*
X182069356Y-100679124D01*
X182069358Y-100679119D01*
X182124505Y-100512697D01*
X182124506Y-100512690D01*
X182134999Y-100409986D01*
X182135000Y-100409973D01*
X182135000Y-100210000D01*
X181010000Y-100210000D01*
X181010000Y-101109999D01*
X180509999Y-101109999D01*
X180510000Y-101109998D01*
X180510000Y-100210000D01*
X179385001Y-100210000D01*
X179385001Y-100409986D01*
X168720500Y-100409986D01*
X168720500Y-100401441D01*
X168740185Y-100334402D01*
X168766139Y-100305339D01*
X168845571Y-100240571D01*
X168967734Y-100090751D01*
X169057237Y-99919406D01*
X169110417Y-99733552D01*
X169120500Y-99620138D01*
X169120500Y-99510013D01*
X179385000Y-99510013D01*
X179385000Y-99710000D01*
X180510000Y-99710000D01*
X181010000Y-99710000D01*
X182134999Y-99710000D01*
X182134999Y-99510028D01*
X182134998Y-99510013D01*
X182124505Y-99407302D01*
X182069358Y-99240880D01*
X182069356Y-99240875D01*
X181977315Y-99091654D01*
X181853345Y-98967684D01*
X181704124Y-98875643D01*
X181704119Y-98875641D01*
X181537697Y-98820494D01*
X181537690Y-98820493D01*
X181434986Y-98810000D01*
X181010000Y-98810000D01*
X181010000Y-99710000D01*
X180510000Y-99710000D01*
X180510000Y-98810000D01*
X180085028Y-98810000D01*
X180085012Y-98810001D01*
X179982302Y-98820494D01*
X179815880Y-98875641D01*
X179815875Y-98875643D01*
X179666654Y-98967684D01*
X179542684Y-99091654D01*
X179450643Y-99240875D01*
X179450641Y-99240880D01*
X179395494Y-99407302D01*
X179395493Y-99407309D01*
X179385000Y-99510013D01*
X169120500Y-99510013D01*
X169120500Y-98259862D01*
X169110417Y-98146448D01*
X169057237Y-97960594D01*
X168967734Y-97789249D01*
X168906652Y-97714339D01*
X168845571Y-97639428D01*
X168753700Y-97564518D01*
X168695751Y-97517266D01*
X168681082Y-97509604D01*
X168524405Y-97427762D01*
X168369845Y-97383537D01*
X168338552Y-97374583D01*
X168338551Y-97374582D01*
X168338548Y-97374582D01*
X168249662Y-97366680D01*
X168225138Y-97364500D01*
X167314862Y-97364500D01*
X167302599Y-97365590D01*
X167201451Y-97374582D01*
X167015594Y-97427762D01*
X166844250Y-97517265D01*
X166694428Y-97639428D01*
X166572265Y-97789250D01*
X166482762Y-97960594D01*
X166429582Y-98146451D01*
X166419500Y-98259863D01*
X166020500Y-98259863D01*
X166020500Y-98259862D01*
X166010417Y-98146448D01*
X165957237Y-97960594D01*
X165867734Y-97789249D01*
X165806652Y-97714339D01*
X165745571Y-97639428D01*
X165653700Y-97564518D01*
X165595751Y-97517266D01*
X165581082Y-97509604D01*
X165424405Y-97427762D01*
X165269845Y-97383537D01*
X165238552Y-97374583D01*
X165238551Y-97374582D01*
X165238548Y-97374582D01*
X165149662Y-97366680D01*
X165125138Y-97364500D01*
X164214862Y-97364500D01*
X164202599Y-97365590D01*
X164101451Y-97374582D01*
X163915594Y-97427762D01*
X163744250Y-97517265D01*
X163594428Y-97639428D01*
X163521154Y-97729293D01*
X163463533Y-97768810D01*
X163393694Y-97770902D01*
X163333812Y-97734904D01*
X163302897Y-97672245D01*
X163301052Y-97650932D01*
X163301052Y-95677559D01*
X173555146Y-95677559D01*
X173555146Y-95677560D01*
X174649627Y-96772041D01*
X174696262Y-96809621D01*
X174827043Y-96869347D01*
X174969360Y-96889808D01*
X175111676Y-96869347D01*
X175242457Y-96809621D01*
X175289092Y-96772041D01*
X175782532Y-96278601D01*
X174368318Y-94864387D01*
X174368317Y-94864387D01*
X173555146Y-95677559D01*
X163301052Y-95677559D01*
X163301052Y-93909792D01*
X171989345Y-93909792D01*
X171989345Y-93909793D01*
X172009805Y-94052109D01*
X172069531Y-94182890D01*
X172107111Y-94229525D01*
X173201592Y-95324006D01*
X174014765Y-94510834D01*
X174014763Y-94510832D01*
X174721872Y-94510832D01*
X174721872Y-94510833D01*
X176136085Y-95925047D01*
X176136086Y-95925047D01*
X176629526Y-95431607D01*
X176667106Y-95384972D01*
X176726832Y-95254191D01*
X176747293Y-95111875D01*
X176747293Y-95111874D01*
X176726832Y-94969558D01*
X176667106Y-94838777D01*
X176629526Y-94792142D01*
X175535045Y-93697661D01*
X174721872Y-94510832D01*
X174014763Y-94510832D01*
X172600551Y-93096620D01*
X172600550Y-93096620D01*
X172107115Y-93590055D01*
X172069531Y-93636695D01*
X172009805Y-93767476D01*
X171989345Y-93909792D01*
X163301052Y-93909792D01*
X163301052Y-91054508D01*
X163320737Y-90987469D01*
X163346691Y-90958406D01*
X163426123Y-90893638D01*
X163548286Y-90743818D01*
X163637789Y-90572473D01*
X163690969Y-90386619D01*
X163701052Y-90273205D01*
X163701052Y-88912930D01*
X164100052Y-88912930D01*
X164100052Y-90273203D01*
X164110134Y-90386615D01*
X164163314Y-90572472D01*
X164212213Y-90666083D01*
X164252818Y-90743818D01*
X164296321Y-90797170D01*
X164374980Y-90893638D01*
X164449891Y-90954719D01*
X164524801Y-91015801D01*
X164696146Y-91105304D01*
X164882000Y-91158484D01*
X164995414Y-91168567D01*
X164995422Y-91168567D01*
X165905682Y-91168567D01*
X165905690Y-91168567D01*
X166019104Y-91158484D01*
X166204958Y-91105304D01*
X166376303Y-91015801D01*
X166526123Y-90893638D01*
X166648286Y-90743818D01*
X166737789Y-90572473D01*
X166790969Y-90386619D01*
X166799630Y-90289203D01*
X168258452Y-90289203D01*
X168258452Y-90459314D01*
X168299161Y-90624484D01*
X168361794Y-90743818D01*
X168378218Y-90775111D01*
X168423590Y-90829554D01*
X170978531Y-93384495D01*
X171032974Y-93429867D01*
X171183600Y-93508923D01*
X171348770Y-93549633D01*
X171518882Y-93549633D01*
X171684051Y-93508923D01*
X171834678Y-93429867D01*
X171889121Y-93384495D01*
X172530551Y-92743065D01*
X172954105Y-92743065D01*
X172954105Y-92743066D01*
X174368319Y-94157280D01*
X174368320Y-94157280D01*
X175181491Y-93344107D01*
X174087010Y-92249626D01*
X174049624Y-92219499D01*
X175077087Y-92219499D01*
X175227335Y-92369746D01*
X175227346Y-92369756D01*
X175307377Y-92434952D01*
X175307383Y-92434956D01*
X175464063Y-92513644D01*
X175634652Y-92554075D01*
X175634663Y-92554077D01*
X175809981Y-92554077D01*
X175809991Y-92554075D01*
X175980583Y-92513643D01*
X176137259Y-92434957D01*
X176217308Y-92369750D01*
X176217324Y-92369735D01*
X176535495Y-92051563D01*
X176535495Y-92051562D01*
X175890260Y-91406328D01*
X175077087Y-92219499D01*
X174049624Y-92219499D01*
X174040375Y-92212046D01*
X173909594Y-92152320D01*
X173767278Y-92131860D01*
X173624961Y-92152320D01*
X173494180Y-92212046D01*
X173447540Y-92249630D01*
X172954105Y-92743065D01*
X172530551Y-92743065D01*
X173241980Y-92031636D01*
X173287352Y-91977193D01*
X173366408Y-91826566D01*
X173407118Y-91661397D01*
X173407118Y-91491285D01*
X173366408Y-91326115D01*
X173366407Y-91326114D01*
X173366407Y-91326112D01*
X173363749Y-91319103D01*
X173366021Y-91318241D01*
X173363337Y-91304839D01*
X173354449Y-91281009D01*
X173356591Y-91271158D01*
X173354612Y-91261274D01*
X173363894Y-91237591D01*
X173369301Y-91212736D01*
X173378398Y-91200582D01*
X173380108Y-91196222D01*
X173390444Y-91184490D01*
X173441880Y-91133054D01*
X174388958Y-91133054D01*
X174388958Y-91308371D01*
X174388959Y-91308382D01*
X174429390Y-91478971D01*
X174508080Y-91635655D01*
X174573278Y-91715690D01*
X174573294Y-91715708D01*
X174723534Y-91865947D01*
X174723535Y-91865947D01*
X175536706Y-91052774D01*
X175536706Y-91052773D01*
X174891472Y-90407540D01*
X174891471Y-90407540D01*
X174573292Y-90725720D01*
X174573286Y-90725727D01*
X174508077Y-90805776D01*
X174429390Y-90962454D01*
X174388959Y-91133043D01*
X174388958Y-91133054D01*
X173441880Y-91133054D01*
X174786932Y-89788004D01*
X174891469Y-89644121D01*
X174921131Y-89603295D01*
X174989519Y-89469073D01*
X174990835Y-89466747D01*
X174993878Y-89463792D01*
X175011092Y-89440099D01*
X175142946Y-89308246D01*
X175216012Y-89220920D01*
X175309827Y-89051898D01*
X175367698Y-88867450D01*
X175384253Y-88704643D01*
X175410619Y-88639941D01*
X175467780Y-88599762D01*
X175537590Y-88596866D01*
X175595298Y-88629508D01*
X176323458Y-89357668D01*
X176356943Y-89418991D01*
X176351959Y-89488683D01*
X176310087Y-89544616D01*
X176244623Y-89569033D01*
X176207180Y-89566006D01*
X176145867Y-89551474D01*
X176145857Y-89551473D01*
X175970539Y-89551473D01*
X175970528Y-89551474D01*
X175799936Y-89591906D01*
X175643260Y-89670592D01*
X175563211Y-89735799D01*
X175563195Y-89735814D01*
X175245024Y-90053985D01*
X175245024Y-90053986D01*
X176067037Y-90875998D01*
X176889046Y-91698009D01*
X176889047Y-91698009D01*
X177207222Y-91379834D01*
X177207238Y-91379816D01*
X177272441Y-91299776D01*
X177351129Y-91143095D01*
X177391560Y-90972506D01*
X177391562Y-90972495D01*
X177391562Y-90797178D01*
X177391561Y-90797170D01*
X177377028Y-90735855D01*
X177380720Y-90666083D01*
X177421548Y-90609384D01*
X177486549Y-90583758D01*
X177555085Y-90597342D01*
X177585366Y-90619576D01*
X180911855Y-93946065D01*
X180942105Y-93995427D01*
X180980128Y-94112449D01*
X181058768Y-94266788D01*
X181160586Y-94406928D01*
X181283072Y-94529414D01*
X181423212Y-94631232D01*
X181577555Y-94709873D01*
X181742299Y-94763402D01*
X181913389Y-94790500D01*
X181913390Y-94790500D01*
X182086610Y-94790500D01*
X182086611Y-94790500D01*
X182257701Y-94763402D01*
X182422445Y-94709873D01*
X182576788Y-94631232D01*
X182716928Y-94529414D01*
X182839414Y-94406928D01*
X182941232Y-94266788D01*
X183019873Y-94112445D01*
X183073402Y-93947701D01*
X183100500Y-93776611D01*
X183100500Y-93603389D01*
X183073402Y-93432299D01*
X183019873Y-93267555D01*
X182941232Y-93113212D01*
X182839414Y-92973072D01*
X182716928Y-92850586D01*
X182576788Y-92748768D01*
X182565595Y-92743065D01*
X182422449Y-92670128D01*
X182305427Y-92632105D01*
X182256065Y-92601855D01*
X179325959Y-89671749D01*
X179292474Y-89610426D01*
X179297458Y-89540734D01*
X179339330Y-89484801D01*
X179404794Y-89460384D01*
X179443314Y-89463670D01*
X179555547Y-89491334D01*
X179555548Y-89491334D01*
X179725660Y-89491334D01*
X179837891Y-89463671D01*
X179890828Y-89450623D01*
X180041455Y-89371568D01*
X180095898Y-89326195D01*
X180953782Y-88468311D01*
X180999155Y-88413868D01*
X181078210Y-88263241D01*
X181118921Y-88098072D01*
X181118921Y-87927960D01*
X181117446Y-87921977D01*
X181078211Y-87762795D01*
X181078210Y-87762794D01*
X181078210Y-87762791D01*
X180999155Y-87612164D01*
X180953782Y-87557721D01*
X180953773Y-87557712D01*
X180953765Y-87557703D01*
X180095915Y-86699853D01*
X180095906Y-86699845D01*
X180095898Y-86699837D01*
X180053021Y-86664103D01*
X180041458Y-86654466D01*
X180041456Y-86654465D01*
X180041455Y-86654464D01*
X179890828Y-86575409D01*
X179890825Y-86575408D01*
X179890823Y-86575407D01*
X179725660Y-86534698D01*
X179725659Y-86534698D01*
X179555547Y-86534698D01*
X179555545Y-86534698D01*
X179511893Y-86545457D01*
X179501145Y-86544984D01*
X179491065Y-86548744D01*
X179466847Y-86543475D01*
X179442091Y-86542387D01*
X179431505Y-86535787D01*
X179422792Y-86533892D01*
X179394538Y-86512741D01*
X179275240Y-86393443D01*
X179241755Y-86332120D01*
X179238921Y-86305762D01*
X179238921Y-86137959D01*
X179198211Y-85972795D01*
X179198210Y-85972794D01*
X179198210Y-85972791D01*
X179119155Y-85822164D01*
X179115606Y-85817906D01*
X179107802Y-85808541D01*
X179073782Y-85767721D01*
X179073773Y-85767712D01*
X179073765Y-85767703D01*
X178747422Y-85441360D01*
X178732718Y-85414432D01*
X178716126Y-85388614D01*
X178715234Y-85382413D01*
X178713937Y-85380037D01*
X178711103Y-85353679D01*
X178711103Y-85281556D01*
X178730788Y-85214517D01*
X178783592Y-85168762D01*
X178852750Y-85158818D01*
X178916306Y-85187843D01*
X178922784Y-85193875D01*
X179285188Y-85556280D01*
X179285197Y-85556288D01*
X179285206Y-85556297D01*
X179339649Y-85601670D01*
X179490276Y-85680725D01*
X179490279Y-85680725D01*
X179490280Y-85680726D01*
X179655444Y-85721436D01*
X179823247Y-85721436D01*
X179890286Y-85741121D01*
X179910928Y-85757755D01*
X180105864Y-85952691D01*
X180139349Y-86014014D01*
X180142183Y-86040372D01*
X180142183Y-86118174D01*
X180182892Y-86283338D01*
X180182893Y-86283340D01*
X180182894Y-86283343D01*
X180252822Y-86416579D01*
X180261951Y-86433973D01*
X180263868Y-86436273D01*
X180307322Y-86488413D01*
X180307330Y-86488421D01*
X180307338Y-86488430D01*
X181165188Y-87346280D01*
X181165197Y-87346288D01*
X181165206Y-87346297D01*
X181219649Y-87391670D01*
X181370276Y-87470725D01*
X181370279Y-87470725D01*
X181370280Y-87470726D01*
X181535444Y-87511436D01*
X181535445Y-87511436D01*
X181705558Y-87511436D01*
X181825550Y-87481860D01*
X181870726Y-87470725D01*
X182021353Y-87391670D01*
X182075796Y-87346297D01*
X182933680Y-86488413D01*
X182979053Y-86433970D01*
X183058108Y-86283343D01*
X183098819Y-86118174D01*
X183098819Y-85948062D01*
X183058108Y-85782893D01*
X182979053Y-85632266D01*
X182933680Y-85577823D01*
X182933671Y-85577814D01*
X182933663Y-85577805D01*
X182075813Y-84719955D01*
X182075804Y-84719947D01*
X182075796Y-84719939D01*
X182041774Y-84691585D01*
X182021356Y-84674568D01*
X182021354Y-84674567D01*
X182021353Y-84674566D01*
X181870726Y-84595511D01*
X181870723Y-84595510D01*
X181870721Y-84595509D01*
X181705558Y-84554800D01*
X181705557Y-84554800D01*
X181535445Y-84554800D01*
X181535443Y-84554800D01*
X181491791Y-84565559D01*
X181481043Y-84565086D01*
X181470963Y-84568846D01*
X181446745Y-84563577D01*
X181421989Y-84562489D01*
X181411403Y-84555889D01*
X181402690Y-84553994D01*
X181374436Y-84532843D01*
X181255138Y-84413545D01*
X181221653Y-84352222D01*
X181218819Y-84325864D01*
X181218819Y-84158061D01*
X181178109Y-83992897D01*
X181178108Y-83992896D01*
X181178108Y-83992893D01*
X181099053Y-83842266D01*
X181053680Y-83787823D01*
X181053671Y-83787814D01*
X181053663Y-83787805D01*
X180727320Y-83461462D01*
X180693835Y-83400139D01*
X180691001Y-83373781D01*
X180691001Y-82836885D01*
X180691000Y-82836884D01*
X180662712Y-82694667D01*
X180668939Y-82625077D01*
X180711802Y-82569900D01*
X180777692Y-82546655D01*
X180845689Y-82562723D01*
X180872010Y-82582796D01*
X181074228Y-82785014D01*
X181074233Y-82785018D01*
X181074234Y-82785019D01*
X181368583Y-83026585D01*
X181685192Y-83238136D01*
X181685201Y-83238141D01*
X181685203Y-83238142D01*
X182021004Y-83417632D01*
X182021006Y-83417632D01*
X182021012Y-83417636D01*
X182372809Y-83563355D01*
X182737195Y-83673890D01*
X182737201Y-83673891D01*
X182737204Y-83673892D01*
X182737215Y-83673895D01*
X183104361Y-83746924D01*
X183110660Y-83748177D01*
X183489609Y-83785500D01*
X183489612Y-83785500D01*
X183870388Y-83785500D01*
X183870391Y-83785500D01*
X184249340Y-83748177D01*
X184322041Y-83733715D01*
X184622784Y-83673895D01*
X184622795Y-83673892D01*
X184622795Y-83673891D01*
X184622805Y-83673890D01*
X184987191Y-83563355D01*
X185338988Y-83417636D01*
X185674808Y-83238136D01*
X185991417Y-83026585D01*
X186285766Y-82785019D01*
X186555019Y-82515766D01*
X186796585Y-82221417D01*
X187008136Y-81904808D01*
X187187636Y-81568988D01*
X187333355Y-81217191D01*
X187443890Y-80852805D01*
X187443892Y-80852795D01*
X187443895Y-80852784D01*
X187518177Y-80479339D01*
X187555500Y-80100387D01*
X187555500Y-79719612D01*
X187543977Y-79602620D01*
X187518177Y-79340660D01*
X187503455Y-79266649D01*
X187443895Y-78967215D01*
X187443892Y-78967204D01*
X187443891Y-78967201D01*
X187443890Y-78967195D01*
X187333355Y-78602809D01*
X187187636Y-78251012D01*
X187008136Y-77915192D01*
X186796585Y-77598583D01*
X186555019Y-77304234D01*
X186555018Y-77304233D01*
X186555014Y-77304228D01*
X186285771Y-77034985D01*
X185991422Y-76793419D01*
X185991421Y-76793418D01*
X185991417Y-76793415D01*
X185674808Y-76581864D01*
X185674803Y-76581861D01*
X185674796Y-76581857D01*
X185338995Y-76402367D01*
X185338990Y-76402365D01*
X184987192Y-76256645D01*
X184622795Y-76146107D01*
X184622784Y-76146104D01*
X184249339Y-76071822D01*
X183963931Y-76043712D01*
X183870391Y-76034500D01*
X183489609Y-76034500D01*
X183403180Y-76043012D01*
X183110660Y-76071822D01*
X182737215Y-76146104D01*
X182737204Y-76146107D01*
X182372807Y-76256645D01*
X182021009Y-76402365D01*
X182021004Y-76402367D01*
X181685203Y-76581857D01*
X181685185Y-76581868D01*
X181368591Y-76793409D01*
X181368577Y-76793419D01*
X181074228Y-77034985D01*
X180804985Y-77304228D01*
X180563419Y-77598577D01*
X180563409Y-77598591D01*
X180351868Y-77915185D01*
X180351857Y-77915203D01*
X180172367Y-78251004D01*
X180172365Y-78251009D01*
X180026645Y-78602807D01*
X179916107Y-78967204D01*
X179916104Y-78967215D01*
X179841822Y-79340660D01*
X179804500Y-79719612D01*
X179804500Y-80100387D01*
X179841822Y-80479339D01*
X179916104Y-80852784D01*
X179916107Y-80852795D01*
X180026645Y-81217192D01*
X180172365Y-81568990D01*
X180172367Y-81568995D01*
X180294073Y-81796690D01*
X180308315Y-81865093D01*
X180283315Y-81930336D01*
X180227010Y-81971707D01*
X180157277Y-81976069D01*
X180097034Y-81942824D01*
X176518088Y-78363879D01*
X176484603Y-78302556D01*
X176485993Y-78244106D01*
X176516270Y-78131116D01*
X176550500Y-77871120D01*
X176550500Y-77608880D01*
X176516270Y-77348884D01*
X176448398Y-77095581D01*
X176448394Y-77095571D01*
X176348046Y-76853309D01*
X176348041Y-76853299D01*
X176216924Y-76626196D01*
X176057281Y-76418148D01*
X176057274Y-76418140D01*
X175871860Y-76232726D01*
X175871851Y-76232718D01*
X175663803Y-76073075D01*
X175460854Y-75955904D01*
X175436699Y-75941958D01*
X175436690Y-75941953D01*
X175222877Y-75853389D01*
X191069500Y-75853389D01*
X191069500Y-76026611D01*
X191096598Y-76197701D01*
X191115750Y-76256645D01*
X191150128Y-76362447D01*
X191205985Y-76472073D01*
X191219500Y-76528368D01*
X191219500Y-78321631D01*
X191205985Y-78377925D01*
X191150130Y-78487547D01*
X191150126Y-78487557D01*
X191096597Y-78652302D01*
X191069500Y-78823389D01*
X191069500Y-78996611D01*
X191096598Y-79167701D01*
X191150127Y-79332445D01*
X191228768Y-79486788D01*
X191330586Y-79626928D01*
X191453072Y-79749414D01*
X191593212Y-79851232D01*
X191747555Y-79929873D01*
X191912299Y-79983402D01*
X192083389Y-80010500D01*
X192083390Y-80010500D01*
X192256610Y-80010500D01*
X192256611Y-80010500D01*
X192427701Y-79983402D01*
X192592445Y-79929873D01*
X192746788Y-79851232D01*
X192886928Y-79749414D01*
X193009414Y-79626928D01*
X193111232Y-79486788D01*
X193189873Y-79332445D01*
X193243402Y-79167701D01*
X193270500Y-78996611D01*
X193270500Y-78823389D01*
X193243402Y-78652299D01*
X193189873Y-78487555D01*
X193158096Y-78425188D01*
X193134015Y-78377925D01*
X193120500Y-78321631D01*
X193120500Y-77507363D01*
X199292000Y-77507363D01*
X199292000Y-78917636D01*
X199302082Y-79031048D01*
X199355262Y-79216905D01*
X199426253Y-79352809D01*
X199444766Y-79388251D01*
X199459992Y-79406924D01*
X199566928Y-79538071D01*
X199641839Y-79599152D01*
X199716749Y-79660234D01*
X199888094Y-79749737D01*
X200073948Y-79802917D01*
X200187362Y-79813000D01*
X200187370Y-79813000D01*
X203397630Y-79813000D01*
X203397638Y-79813000D01*
X203511052Y-79802917D01*
X203696906Y-79749737D01*
X203868251Y-79660234D01*
X204018071Y-79538071D01*
X204140234Y-79388251D01*
X204229737Y-79216906D01*
X204282917Y-79031052D01*
X204293000Y-78917638D01*
X204293000Y-77507362D01*
X204282917Y-77393948D01*
X204229737Y-77208094D01*
X204140234Y-77036749D01*
X204064446Y-76943803D01*
X204018071Y-76886928D01*
X203903386Y-76793415D01*
X203868251Y-76764766D01*
X203853582Y-76757104D01*
X203696905Y-76675262D01*
X203542345Y-76631037D01*
X203511052Y-76622083D01*
X203511051Y-76622082D01*
X203511048Y-76622082D01*
X203422162Y-76614180D01*
X203397638Y-76612000D01*
X200187362Y-76612000D01*
X200175099Y-76613090D01*
X200073951Y-76622082D01*
X199888094Y-76675262D01*
X199716750Y-76764765D01*
X199566928Y-76886928D01*
X199444765Y-77036750D01*
X199355262Y-77208094D01*
X199302082Y-77393951D01*
X199292000Y-77507363D01*
X193120500Y-77507363D01*
X193120500Y-76528368D01*
X193134015Y-76472073D01*
X193189873Y-76362445D01*
X193243402Y-76197701D01*
X193270500Y-76026611D01*
X193270500Y-75853389D01*
X193243402Y-75682299D01*
X193189873Y-75517555D01*
X193111232Y-75363212D01*
X193009414Y-75223072D01*
X192886928Y-75100586D01*
X192746788Y-74998768D01*
X192592445Y-74920127D01*
X192427701Y-74866598D01*
X192427699Y-74866597D01*
X192427698Y-74866597D01*
X192296271Y-74845781D01*
X192256611Y-74839500D01*
X192083389Y-74839500D01*
X192043728Y-74845781D01*
X191912302Y-74866597D01*
X191747552Y-74920128D01*
X191593211Y-74998768D01*
X191536000Y-75040335D01*
X191453072Y-75100586D01*
X191453070Y-75100588D01*
X191453069Y-75100588D01*
X191330588Y-75223069D01*
X191330588Y-75223070D01*
X191330586Y-75223072D01*
X191325501Y-75230071D01*
X191228768Y-75363211D01*
X191150128Y-75517552D01*
X191150127Y-75517554D01*
X191150127Y-75517555D01*
X191136857Y-75558397D01*
X191096597Y-75682302D01*
X191088748Y-75731860D01*
X191069500Y-75853389D01*
X175222877Y-75853389D01*
X175194428Y-75841605D01*
X175194421Y-75841603D01*
X175194419Y-75841602D01*
X174941116Y-75773730D01*
X174883339Y-75766123D01*
X174681127Y-75739500D01*
X174681120Y-75739500D01*
X174418880Y-75739500D01*
X174418872Y-75739500D01*
X174187772Y-75769926D01*
X174158884Y-75773730D01*
X174134152Y-75780357D01*
X173905581Y-75841602D01*
X173905571Y-75841605D01*
X173663309Y-75941953D01*
X173663299Y-75941958D01*
X173436196Y-76073075D01*
X173228148Y-76232718D01*
X173042718Y-76418148D01*
X172883075Y-76626196D01*
X172751958Y-76853299D01*
X172751953Y-76853309D01*
X172651605Y-77095571D01*
X172651602Y-77095581D01*
X172595696Y-77304228D01*
X172583730Y-77348885D01*
X172549500Y-77608872D01*
X172549500Y-77871127D01*
X172572605Y-78046613D01*
X172583730Y-78131116D01*
X172649862Y-78377925D01*
X172651602Y-78384418D01*
X172651605Y-78384428D01*
X172751953Y-78626690D01*
X172751958Y-78626700D01*
X172883075Y-78853803D01*
X173042718Y-79061851D01*
X173042726Y-79061860D01*
X173228140Y-79247274D01*
X173228148Y-79247281D01*
X173228149Y-79247282D01*
X173276554Y-79284424D01*
X173436196Y-79406924D01*
X173663299Y-79538041D01*
X173663309Y-79538046D01*
X173905571Y-79638394D01*
X173905581Y-79638398D01*
X174158884Y-79706270D01*
X174418880Y-79740500D01*
X174418887Y-79740500D01*
X174681113Y-79740500D01*
X174681120Y-79740500D01*
X174941116Y-79706270D01*
X175054107Y-79675994D01*
X175123953Y-79677657D01*
X175173875Y-79708086D01*
X175395660Y-79929871D01*
X175526887Y-80061098D01*
X175560372Y-80122421D01*
X175555388Y-80192113D01*
X175513516Y-80248046D01*
X175448052Y-80272463D01*
X175391753Y-80263340D01*
X175194428Y-80181605D01*
X175194421Y-80181603D01*
X175194419Y-80181602D01*
X174941116Y-80113730D01*
X174883339Y-80106123D01*
X174681127Y-80079500D01*
X174681120Y-80079500D01*
X174418880Y-80079500D01*
X174418872Y-80079500D01*
X174187772Y-80109926D01*
X174158884Y-80113730D01*
X174126449Y-80122421D01*
X173905581Y-80181602D01*
X173905571Y-80181605D01*
X173663309Y-80281953D01*
X173663299Y-80281958D01*
X173436196Y-80413075D01*
X173228148Y-80572718D01*
X173042718Y-80758148D01*
X172883075Y-80966196D01*
X172751958Y-81193299D01*
X172751953Y-81193309D01*
X172651605Y-81435571D01*
X172651602Y-81435581D01*
X172583730Y-81688885D01*
X172549500Y-81948872D01*
X172549500Y-82211127D01*
X172576123Y-82413339D01*
X172583730Y-82471116D01*
X172651602Y-82724418D01*
X172651605Y-82724428D01*
X172751953Y-82966690D01*
X172751958Y-82966700D01*
X172883075Y-83193803D01*
X173042718Y-83401851D01*
X173042726Y-83401860D01*
X173228140Y-83587274D01*
X173228148Y-83587281D01*
X173436196Y-83746924D01*
X173663299Y-83878041D01*
X173663309Y-83878046D01*
X173905571Y-83978394D01*
X173905581Y-83978398D01*
X174158884Y-84046270D01*
X174418880Y-84080500D01*
X174418887Y-84080500D01*
X174681113Y-84080500D01*
X174681120Y-84080500D01*
X174941116Y-84046270D01*
X175054105Y-84015994D01*
X175123953Y-84017657D01*
X175173878Y-84048088D01*
X176582786Y-85456996D01*
X176616271Y-85518319D01*
X176611287Y-85588011D01*
X176582788Y-85632356D01*
X176558221Y-85656924D01*
X176447418Y-85767727D01*
X176402053Y-85822160D01*
X176402051Y-85822164D01*
X176323904Y-85971062D01*
X176322994Y-85972795D01*
X176282285Y-86137959D01*
X176282285Y-86308075D01*
X176282614Y-86309410D01*
X176282569Y-86310418D01*
X176283189Y-86315520D01*
X176282340Y-86315623D01*
X176279542Y-86379212D01*
X176239220Y-86436273D01*
X176174449Y-86462475D01*
X176114763Y-86453641D01*
X176025288Y-86416579D01*
X176025280Y-86416577D01*
X175841657Y-86380052D01*
X175841653Y-86380052D01*
X174832731Y-86380052D01*
X174765692Y-86360367D01*
X174745050Y-86343733D01*
X173796819Y-85395502D01*
X173763334Y-85334179D01*
X173760500Y-85307821D01*
X173760500Y-85278886D01*
X173760499Y-85278872D01*
X173749718Y-85196987D01*
X173726270Y-85018884D01*
X173658398Y-84765581D01*
X173658394Y-84765571D01*
X173558046Y-84523309D01*
X173558041Y-84523299D01*
X173426924Y-84296196D01*
X173267281Y-84088148D01*
X173267274Y-84088140D01*
X173081860Y-83902726D01*
X173081851Y-83902718D01*
X172873803Y-83743075D01*
X172646700Y-83611958D01*
X172646690Y-83611953D01*
X172404428Y-83511605D01*
X172404421Y-83511603D01*
X172404419Y-83511602D01*
X172151116Y-83443730D01*
X172093339Y-83436123D01*
X171891127Y-83409500D01*
X171891120Y-83409500D01*
X171628880Y-83409500D01*
X171628872Y-83409500D01*
X171397772Y-83439926D01*
X171368884Y-83443730D01*
X171115581Y-83511602D01*
X171115571Y-83511605D01*
X170873309Y-83611953D01*
X170873299Y-83611958D01*
X170646196Y-83743075D01*
X170438148Y-83902718D01*
X170252718Y-84088148D01*
X170093075Y-84296196D01*
X169961958Y-84523299D01*
X169961953Y-84523309D01*
X169861605Y-84765571D01*
X169861602Y-84765581D01*
X169795213Y-85013352D01*
X169793730Y-85018885D01*
X169759500Y-85278872D01*
X169759500Y-85541127D01*
X169783240Y-85721436D01*
X169793730Y-85801116D01*
X169857838Y-86040372D01*
X169861602Y-86054418D01*
X169861605Y-86054428D01*
X169961953Y-86296690D01*
X169961958Y-86296700D01*
X170093075Y-86523803D01*
X170252718Y-86731851D01*
X170252726Y-86731860D01*
X170438140Y-86917274D01*
X170438148Y-86917281D01*
X170646196Y-87076924D01*
X170873299Y-87208041D01*
X170873309Y-87208046D01*
X171032061Y-87273803D01*
X171115581Y-87308398D01*
X171368884Y-87376270D01*
X171628880Y-87410500D01*
X171657821Y-87410500D01*
X171724860Y-87430185D01*
X171745502Y-87446819D01*
X172193733Y-87895050D01*
X172208436Y-87921977D01*
X172225029Y-87947796D01*
X172225920Y-87953996D01*
X172227218Y-87956373D01*
X172230052Y-87982731D01*
X172230052Y-88190888D01*
X172210367Y-88257927D01*
X172193733Y-88278569D01*
X171384299Y-89088003D01*
X171322976Y-89121488D01*
X171253284Y-89116504D01*
X171208937Y-89088003D01*
X170687049Y-88566115D01*
X170687039Y-88566105D01*
X170632596Y-88520733D01*
X170632595Y-88520732D01*
X170481969Y-88441676D01*
X170316800Y-88400967D01*
X170146688Y-88400967D01*
X169981519Y-88441676D01*
X169830890Y-88520734D01*
X169776453Y-88566101D01*
X169776438Y-88566115D01*
X168423600Y-89918953D01*
X168423586Y-89918968D01*
X168378219Y-89973405D01*
X168299161Y-90124034D01*
X168258452Y-90289203D01*
X166799630Y-90289203D01*
X166801052Y-90273205D01*
X166801052Y-88912929D01*
X166790969Y-88799515D01*
X166737789Y-88613661D01*
X166653936Y-88453133D01*
X166640346Y-88384601D01*
X166665965Y-88319597D01*
X166676157Y-88308051D01*
X166856122Y-88128086D01*
X166917443Y-88094603D01*
X166975894Y-88095993D01*
X167088884Y-88126270D01*
X167348880Y-88160500D01*
X167348887Y-88160500D01*
X167611113Y-88160500D01*
X167611120Y-88160500D01*
X167871116Y-88126270D01*
X168124419Y-88058398D01*
X168366697Y-87958043D01*
X168593803Y-87826924D01*
X168593804Y-87826923D01*
X168593805Y-87826923D01*
X168678434Y-87761984D01*
X168801851Y-87667282D01*
X168801855Y-87667277D01*
X168801860Y-87667274D01*
X168987274Y-87481860D01*
X168987277Y-87481855D01*
X168987282Y-87481851D01*
X169146924Y-87273803D01*
X169278043Y-87046697D01*
X169378398Y-86804419D01*
X169446270Y-86551116D01*
X169480500Y-86291120D01*
X169480500Y-86028880D01*
X169480247Y-86026962D01*
X169475251Y-85989010D01*
X169446270Y-85768884D01*
X169378398Y-85515581D01*
X169328660Y-85395502D01*
X169278046Y-85273309D01*
X169278041Y-85273299D01*
X169146924Y-85046196D01*
X168987281Y-84838148D01*
X168987274Y-84838140D01*
X168801860Y-84652726D01*
X168801851Y-84652718D01*
X168593803Y-84493075D01*
X168366700Y-84361958D01*
X168366690Y-84361953D01*
X168124428Y-84261605D01*
X168124421Y-84261603D01*
X168124419Y-84261602D01*
X167871116Y-84193730D01*
X167813339Y-84186123D01*
X167611127Y-84159500D01*
X167611120Y-84159500D01*
X167348880Y-84159500D01*
X167348872Y-84159500D01*
X167117772Y-84189926D01*
X167088884Y-84193730D01*
X166835581Y-84261602D01*
X166835571Y-84261605D01*
X166593309Y-84361953D01*
X166593299Y-84361958D01*
X166366196Y-84493075D01*
X166158148Y-84652718D01*
X165972718Y-84838148D01*
X165813075Y-85046196D01*
X165681958Y-85273299D01*
X165681953Y-85273309D01*
X165581605Y-85515571D01*
X165581602Y-85515581D01*
X165514047Y-85767703D01*
X165513730Y-85768885D01*
X165479500Y-86028872D01*
X165479500Y-86291127D01*
X165491208Y-86380052D01*
X165513730Y-86551116D01*
X165524752Y-86592250D01*
X165544005Y-86664103D01*
X165542342Y-86733952D01*
X165511911Y-86783877D01*
X164712252Y-87583536D01*
X164712249Y-87583540D01*
X164608232Y-87739211D01*
X164608227Y-87739220D01*
X164571900Y-87826924D01*
X164536579Y-87912195D01*
X164536576Y-87912204D01*
X164500052Y-88095827D01*
X164500052Y-88131624D01*
X164480367Y-88198663D01*
X164454414Y-88227725D01*
X164374981Y-88292495D01*
X164252817Y-88442317D01*
X164163314Y-88613661D01*
X164110134Y-88799518D01*
X164100052Y-88912930D01*
X163701052Y-88912930D01*
X163701052Y-88912929D01*
X163690969Y-88799515D01*
X163637789Y-88613661D01*
X163548286Y-88442316D01*
X163426123Y-88292496D01*
X163410927Y-88280105D01*
X163346690Y-88227725D01*
X163307174Y-88170104D01*
X163301052Y-88131624D01*
X163301052Y-86094001D01*
X163320737Y-86026962D01*
X163373541Y-85981207D01*
X163441238Y-85971062D01*
X163454401Y-85972795D01*
X163577562Y-85989010D01*
X163588880Y-85990500D01*
X163588887Y-85990500D01*
X163851113Y-85990500D01*
X163851120Y-85990500D01*
X164111116Y-85956270D01*
X164364419Y-85888398D01*
X164606697Y-85788043D01*
X164833803Y-85656924D01*
X165041851Y-85497282D01*
X165041855Y-85497277D01*
X165041860Y-85497274D01*
X165227274Y-85311860D01*
X165227277Y-85311855D01*
X165227282Y-85311851D01*
X165386924Y-85103803D01*
X165518043Y-84876697D01*
X165618398Y-84634419D01*
X165686270Y-84381116D01*
X165720500Y-84121120D01*
X165720500Y-83858880D01*
X165686270Y-83598884D01*
X165618398Y-83345581D01*
X165594131Y-83286996D01*
X165518046Y-83103309D01*
X165518041Y-83103299D01*
X165386924Y-82876196D01*
X165227281Y-82668148D01*
X165227274Y-82668140D01*
X165041860Y-82482726D01*
X165041851Y-82482718D01*
X164833803Y-82323075D01*
X164606700Y-82191958D01*
X164606690Y-82191953D01*
X164364428Y-82091605D01*
X164364421Y-82091603D01*
X164364419Y-82091602D01*
X164111116Y-82023730D01*
X164053339Y-82016123D01*
X163851127Y-81989500D01*
X163851120Y-81989500D01*
X163588880Y-81989500D01*
X163588872Y-81989500D01*
X163357772Y-82019926D01*
X163328884Y-82023730D01*
X163075581Y-82091602D01*
X163075571Y-82091605D01*
X162833309Y-82191953D01*
X162833299Y-82191958D01*
X162606196Y-82323075D01*
X162398148Y-82482718D01*
X162212718Y-82668148D01*
X162053075Y-82876196D01*
X161921958Y-83103299D01*
X161921953Y-83103309D01*
X161821605Y-83345571D01*
X161821602Y-83345581D01*
X161753730Y-83598885D01*
X161719500Y-83858872D01*
X161719500Y-84121127D01*
X161738706Y-84267003D01*
X161753730Y-84381116D01*
X161783730Y-84493076D01*
X161784005Y-84494103D01*
X161782342Y-84563952D01*
X161751912Y-84613877D01*
X161612249Y-84753540D01*
X161508232Y-84909211D01*
X161508225Y-84909224D01*
X161436579Y-85082196D01*
X161436576Y-85082205D01*
X161404881Y-85241555D01*
X161404881Y-85241559D01*
X161400052Y-85265832D01*
X161400052Y-88131624D01*
X161380367Y-88198663D01*
X161354414Y-88227725D01*
X161274981Y-88292495D01*
X161152817Y-88442317D01*
X161063314Y-88613661D01*
X161010134Y-88799518D01*
X161000052Y-88912930D01*
X137140377Y-88912930D01*
X137198066Y-88835869D01*
X137223350Y-88802093D01*
X137223354Y-88802086D01*
X137273596Y-88667379D01*
X137273598Y-88667372D01*
X137279999Y-88607844D01*
X137280000Y-88607824D01*
X137280000Y-87560000D01*
X136078482Y-87560000D01*
X136089111Y-87541591D01*
X136130000Y-87388991D01*
X136130000Y-87231009D01*
X136089111Y-87078409D01*
X136078482Y-87060000D01*
X137280000Y-87060000D01*
X137280000Y-86012172D01*
X137279999Y-86012155D01*
X137273598Y-85952627D01*
X137273596Y-85952620D01*
X137223354Y-85817913D01*
X137223350Y-85817906D01*
X137137190Y-85702812D01*
X137137187Y-85702809D01*
X137022093Y-85616649D01*
X137022086Y-85616645D01*
X136887379Y-85566403D01*
X136887372Y-85566401D01*
X136827844Y-85560000D01*
X135780000Y-85560000D01*
X135780000Y-86761517D01*
X135761591Y-86750889D01*
X135608991Y-86710000D01*
X135451009Y-86710000D01*
X135298409Y-86750889D01*
X135280000Y-86761517D01*
X135280000Y-85560000D01*
X134232155Y-85560000D01*
X134172627Y-85566401D01*
X134172620Y-85566403D01*
X134037913Y-85616645D01*
X134037906Y-85616649D01*
X133922812Y-85702809D01*
X133922809Y-85702812D01*
X133836649Y-85817906D01*
X133836645Y-85817913D01*
X133786403Y-85952620D01*
X133786401Y-85952627D01*
X133780000Y-86012155D01*
X131190500Y-86012155D01*
X131190500Y-79662155D01*
X133700000Y-79662155D01*
X133700000Y-80710000D01*
X134901518Y-80710000D01*
X134890889Y-80728409D01*
X134850000Y-80881009D01*
X134850000Y-81038991D01*
X134890889Y-81191591D01*
X134901518Y-81210000D01*
X133700000Y-81210000D01*
X133700000Y-82257844D01*
X133706401Y-82317372D01*
X133706403Y-82317379D01*
X133756645Y-82452086D01*
X133756649Y-82452093D01*
X133842809Y-82567187D01*
X133842812Y-82567190D01*
X133957906Y-82653350D01*
X133957913Y-82653354D01*
X134092620Y-82703596D01*
X134092627Y-82703598D01*
X134152155Y-82709999D01*
X134152172Y-82710000D01*
X135200000Y-82710000D01*
X135200000Y-81508482D01*
X135218409Y-81519111D01*
X135371009Y-81560000D01*
X135528991Y-81560000D01*
X135681591Y-81519111D01*
X135700000Y-81508482D01*
X135700000Y-82710000D01*
X136747828Y-82710000D01*
X136747844Y-82709999D01*
X136807372Y-82703598D01*
X136807379Y-82703596D01*
X136942086Y-82653354D01*
X136942093Y-82653350D01*
X137057187Y-82567190D01*
X137057190Y-82567187D01*
X137143350Y-82452093D01*
X137143354Y-82452086D01*
X137193596Y-82317379D01*
X137193598Y-82317372D01*
X137199999Y-82257844D01*
X137200000Y-82257827D01*
X137200000Y-81210000D01*
X135998482Y-81210000D01*
X136009111Y-81191591D01*
X136050000Y-81038991D01*
X136050000Y-80881009D01*
X136009111Y-80728409D01*
X135998482Y-80710000D01*
X137200000Y-80710000D01*
X137200000Y-79719612D01*
X149604500Y-79719612D01*
X149604500Y-80100387D01*
X149641822Y-80479339D01*
X149716104Y-80852784D01*
X149716107Y-80852795D01*
X149826645Y-81217192D01*
X149972365Y-81568990D01*
X149972367Y-81568995D01*
X150151857Y-81904796D01*
X150151861Y-81904803D01*
X150151864Y-81904808D01*
X150343730Y-82191957D01*
X150363409Y-82221408D01*
X150363419Y-82221422D01*
X150604985Y-82515771D01*
X150874228Y-82785014D01*
X150874233Y-82785018D01*
X150874234Y-82785019D01*
X151168583Y-83026585D01*
X151485192Y-83238136D01*
X151485201Y-83238141D01*
X151485203Y-83238142D01*
X151821004Y-83417632D01*
X151821006Y-83417632D01*
X151821012Y-83417636D01*
X152172809Y-83563355D01*
X152537195Y-83673890D01*
X152537201Y-83673891D01*
X152537204Y-83673892D01*
X152537215Y-83673895D01*
X152904361Y-83746924D01*
X152910660Y-83748177D01*
X153289609Y-83785500D01*
X153289612Y-83785500D01*
X153670388Y-83785500D01*
X153670391Y-83785500D01*
X154049340Y-83748177D01*
X154122041Y-83733715D01*
X154422784Y-83673895D01*
X154422795Y-83673892D01*
X154422795Y-83673891D01*
X154422805Y-83673890D01*
X154787191Y-83563355D01*
X155138988Y-83417636D01*
X155474808Y-83238136D01*
X155791417Y-83026585D01*
X156085766Y-82785019D01*
X156355019Y-82515766D01*
X156596585Y-82221417D01*
X156808136Y-81904808D01*
X156987636Y-81568988D01*
X157133355Y-81217191D01*
X157243890Y-80852805D01*
X157243892Y-80852795D01*
X157243895Y-80852784D01*
X157318177Y-80479339D01*
X157355500Y-80100387D01*
X157355500Y-79719612D01*
X157343977Y-79602620D01*
X157318177Y-79340660D01*
X157303455Y-79266649D01*
X157243895Y-78967215D01*
X157243892Y-78967204D01*
X157243891Y-78967201D01*
X157243890Y-78967195D01*
X157133355Y-78602809D01*
X156987636Y-78251012D01*
X156808136Y-77915192D01*
X156596585Y-77598583D01*
X156355019Y-77304234D01*
X156355018Y-77304233D01*
X156355014Y-77304228D01*
X156085771Y-77034985D01*
X155791422Y-76793419D01*
X155791421Y-76793418D01*
X155791417Y-76793415D01*
X155474808Y-76581864D01*
X155474803Y-76581861D01*
X155474796Y-76581857D01*
X155138995Y-76402367D01*
X155138990Y-76402365D01*
X154787192Y-76256645D01*
X154422795Y-76146107D01*
X154422784Y-76146104D01*
X154049339Y-76071822D01*
X153763931Y-76043712D01*
X153670391Y-76034500D01*
X153289609Y-76034500D01*
X153203180Y-76043012D01*
X152910660Y-76071822D01*
X152537215Y-76146104D01*
X152537204Y-76146107D01*
X152172807Y-76256645D01*
X151821009Y-76402365D01*
X151821004Y-76402367D01*
X151485203Y-76581857D01*
X151485185Y-76581868D01*
X151168591Y-76793409D01*
X151168577Y-76793419D01*
X150874228Y-77034985D01*
X150604985Y-77304228D01*
X150363419Y-77598577D01*
X150363409Y-77598591D01*
X150151868Y-77915185D01*
X150151857Y-77915203D01*
X149972367Y-78251004D01*
X149972365Y-78251009D01*
X149826645Y-78602807D01*
X149716107Y-78967204D01*
X149716104Y-78967215D01*
X149641822Y-79340660D01*
X149604500Y-79719612D01*
X137200000Y-79719612D01*
X137200000Y-79662172D01*
X137199999Y-79662155D01*
X137193598Y-79602627D01*
X137193596Y-79602620D01*
X137143354Y-79467913D01*
X137143350Y-79467906D01*
X137057190Y-79352812D01*
X137057187Y-79352809D01*
X136942093Y-79266649D01*
X136942086Y-79266645D01*
X136807379Y-79216403D01*
X136807372Y-79216401D01*
X136747844Y-79210000D01*
X135700000Y-79210000D01*
X135700000Y-80411517D01*
X135681591Y-80400889D01*
X135528991Y-80360000D01*
X135371009Y-80360000D01*
X135218409Y-80400889D01*
X135200000Y-80411517D01*
X135200000Y-79210000D01*
X134152155Y-79210000D01*
X134092627Y-79216401D01*
X134092620Y-79216403D01*
X133957913Y-79266645D01*
X133957906Y-79266649D01*
X133842812Y-79352809D01*
X133842809Y-79352812D01*
X133756649Y-79467906D01*
X133756645Y-79467913D01*
X133706403Y-79602620D01*
X133706401Y-79602627D01*
X133700000Y-79662155D01*
X131190500Y-79662155D01*
X131190500Y-75433386D01*
X133479500Y-75433386D01*
X133479500Y-78046613D01*
X133485913Y-78117192D01*
X133485913Y-78117194D01*
X133485914Y-78117196D01*
X133536522Y-78279606D01*
X133599889Y-78384428D01*
X133624530Y-78425188D01*
X133744811Y-78545469D01*
X133744813Y-78545470D01*
X133744815Y-78545472D01*
X133890394Y-78633478D01*
X134052804Y-78684086D01*
X134123384Y-78690500D01*
X134123387Y-78690500D01*
X136736613Y-78690500D01*
X136736616Y-78690500D01*
X136807196Y-78684086D01*
X136969606Y-78633478D01*
X137115185Y-78545472D01*
X137235472Y-78425185D01*
X137323478Y-78279606D01*
X137374086Y-78117196D01*
X137380500Y-78046616D01*
X137380500Y-75433384D01*
X137374086Y-75362804D01*
X137323478Y-75200394D01*
X137235472Y-75054815D01*
X137235470Y-75054813D01*
X137235469Y-75054811D01*
X137115188Y-74934530D01*
X137091364Y-74920128D01*
X136969606Y-74846522D01*
X136807196Y-74795914D01*
X136807194Y-74795913D01*
X136807192Y-74795913D01*
X136757778Y-74791423D01*
X136736616Y-74789500D01*
X134123384Y-74789500D01*
X134104145Y-74791248D01*
X134052807Y-74795913D01*
X133890393Y-74846522D01*
X133744811Y-74934530D01*
X133624530Y-75054811D01*
X133536522Y-75200393D01*
X133485913Y-75362807D01*
X133479500Y-75433386D01*
X131190500Y-75433386D01*
X131190500Y-72672863D01*
X159551500Y-72672863D01*
X159551500Y-73608136D01*
X159561582Y-73721548D01*
X159614762Y-73907405D01*
X159614763Y-73907406D01*
X159704266Y-74078751D01*
X159710686Y-74086624D01*
X159826428Y-74228571D01*
X159901339Y-74289652D01*
X159976249Y-74350734D01*
X160147594Y-74440237D01*
X160333448Y-74493417D01*
X160446862Y-74503500D01*
X161119428Y-74503500D01*
X161186467Y-74523185D01*
X161207109Y-74539819D01*
X161777587Y-75110297D01*
X161811072Y-75171620D01*
X161809681Y-75230070D01*
X161774007Y-75363211D01*
X161753730Y-75438885D01*
X161719500Y-75698872D01*
X161719500Y-75961127D01*
X161734746Y-76076924D01*
X161753730Y-76221116D01*
X161821602Y-76474418D01*
X161821605Y-76474428D01*
X161921953Y-76716690D01*
X161921958Y-76716700D01*
X162053075Y-76943803D01*
X162212718Y-77151851D01*
X162212726Y-77151860D01*
X162398140Y-77337274D01*
X162398148Y-77337281D01*
X162606196Y-77496924D01*
X162833299Y-77628041D01*
X162833309Y-77628046D01*
X163075571Y-77728394D01*
X163075581Y-77728398D01*
X163328884Y-77796270D01*
X163588880Y-77830500D01*
X163588887Y-77830500D01*
X163851113Y-77830500D01*
X163851120Y-77830500D01*
X164111116Y-77796270D01*
X164364419Y-77728398D01*
X164606697Y-77628043D01*
X164833803Y-77496924D01*
X165041851Y-77337282D01*
X165041855Y-77337277D01*
X165041860Y-77337274D01*
X165227274Y-77151860D01*
X165227277Y-77151855D01*
X165227282Y-77151851D01*
X165386924Y-76943803D01*
X165518043Y-76716697D01*
X165618398Y-76474419D01*
X165686270Y-76221116D01*
X165720500Y-75961120D01*
X165720500Y-75698880D01*
X165686270Y-75438884D01*
X165618398Y-75185581D01*
X165609239Y-75163470D01*
X165518046Y-74943309D01*
X165518041Y-74943299D01*
X165386924Y-74716196D01*
X165251583Y-74539819D01*
X165227282Y-74508149D01*
X165227281Y-74508148D01*
X165227274Y-74508140D01*
X165041860Y-74322726D01*
X165041851Y-74322718D01*
X164833803Y-74163075D01*
X164606700Y-74031958D01*
X164606690Y-74031953D01*
X164364428Y-73931605D01*
X164364421Y-73931603D01*
X164364419Y-73931602D01*
X164111116Y-73863730D01*
X164053339Y-73856123D01*
X163851127Y-73829500D01*
X163851120Y-73829500D01*
X163588880Y-73829500D01*
X163588872Y-73829500D01*
X163341402Y-73862081D01*
X163328884Y-73863730D01*
X163328880Y-73863730D01*
X163328874Y-73863732D01*
X163311714Y-73868330D01*
X163241865Y-73866664D01*
X163191945Y-73836235D01*
X162884582Y-73528872D01*
X165479500Y-73528872D01*
X165479500Y-73791127D01*
X165504201Y-73978739D01*
X165513730Y-74051116D01*
X165581602Y-74304419D01*
X165581603Y-74304421D01*
X165581605Y-74304428D01*
X165681953Y-74546690D01*
X165681958Y-74546700D01*
X165813075Y-74773803D01*
X165972718Y-74981851D01*
X165972726Y-74981860D01*
X166158140Y-75167274D01*
X166158148Y-75167281D01*
X166158149Y-75167282D01*
X166181984Y-75185571D01*
X166366196Y-75326924D01*
X166593299Y-75458041D01*
X166593309Y-75458046D01*
X166835571Y-75558394D01*
X166835581Y-75558398D01*
X167088884Y-75626270D01*
X167348880Y-75660500D01*
X167348887Y-75660500D01*
X167611113Y-75660500D01*
X167611120Y-75660500D01*
X167871116Y-75626270D01*
X168124419Y-75558398D01*
X168366697Y-75458043D01*
X168593803Y-75326924D01*
X168801851Y-75167282D01*
X168801855Y-75167277D01*
X168801860Y-75167274D01*
X168987274Y-74981860D01*
X168987277Y-74981855D01*
X168987282Y-74981851D01*
X169146924Y-74773803D01*
X169278043Y-74546697D01*
X169378398Y-74304419D01*
X169385243Y-74278872D01*
X169759500Y-74278872D01*
X169759500Y-74541127D01*
X169782550Y-74716196D01*
X169793730Y-74801116D01*
X169857829Y-75040338D01*
X169861602Y-75054418D01*
X169861605Y-75054428D01*
X169961953Y-75296690D01*
X169961958Y-75296700D01*
X170093075Y-75523803D01*
X170252718Y-75731851D01*
X170252726Y-75731860D01*
X170438140Y-75917274D01*
X170438148Y-75917281D01*
X170646196Y-76076924D01*
X170873299Y-76208041D01*
X170873309Y-76208046D01*
X170990638Y-76256645D01*
X171115581Y-76308398D01*
X171368884Y-76376270D01*
X171628880Y-76410500D01*
X171628887Y-76410500D01*
X171891113Y-76410500D01*
X171891120Y-76410500D01*
X172151116Y-76376270D01*
X172404419Y-76308398D01*
X172646697Y-76208043D01*
X172873803Y-76076924D01*
X173081851Y-75917282D01*
X173081855Y-75917277D01*
X173081860Y-75917274D01*
X173267274Y-75731860D01*
X173267277Y-75731855D01*
X173267282Y-75731851D01*
X173426924Y-75523803D01*
X173558043Y-75296697D01*
X173658398Y-75054419D01*
X173726270Y-74801116D01*
X173760500Y-74541120D01*
X173760500Y-74512178D01*
X173780185Y-74445139D01*
X173796815Y-74424501D01*
X174101207Y-74120108D01*
X174162530Y-74086624D01*
X174232222Y-74091608D01*
X174276569Y-74120109D01*
X174353674Y-74197214D01*
X174501229Y-74304419D01*
X174519806Y-74317916D01*
X174538381Y-74331412D01*
X174538383Y-74331413D01*
X174741812Y-74435065D01*
X174787081Y-74449774D01*
X174836443Y-74480023D01*
X175856449Y-75500029D01*
X175910892Y-75545401D01*
X176061519Y-75624457D01*
X176226688Y-75665167D01*
X176396800Y-75665167D01*
X176561970Y-75624457D01*
X176712596Y-75545401D01*
X176767039Y-75500029D01*
X177804568Y-74462500D01*
X199514645Y-74462500D01*
X201244018Y-74462500D01*
X201233389Y-74480909D01*
X201192500Y-74633509D01*
X201192500Y-74791491D01*
X201233389Y-74944091D01*
X201244018Y-74962500D01*
X199514645Y-74962500D01*
X199526973Y-75040335D01*
X199526973Y-75040338D01*
X199595067Y-75249910D01*
X199695113Y-75446260D01*
X199824642Y-75624541D01*
X199980458Y-75780357D01*
X200158739Y-75909886D01*
X200355089Y-76009932D01*
X200564664Y-76078026D01*
X200782319Y-76112500D01*
X201542500Y-76112500D01*
X201542500Y-75260982D01*
X201560909Y-75271611D01*
X201713509Y-75312500D01*
X201871491Y-75312500D01*
X202024091Y-75271611D01*
X202042500Y-75260982D01*
X202042500Y-76112500D01*
X202802681Y-76112500D01*
X203020335Y-76078026D01*
X203229910Y-76009932D01*
X203426260Y-75909886D01*
X203604541Y-75780357D01*
X203760357Y-75624541D01*
X203889886Y-75446260D01*
X203989932Y-75249910D01*
X204058026Y-75040338D01*
X204058026Y-75040335D01*
X204070355Y-74962500D01*
X202340982Y-74962500D01*
X202351611Y-74944091D01*
X202392500Y-74791491D01*
X202392500Y-74633509D01*
X202351611Y-74480909D01*
X202340982Y-74462500D01*
X204070355Y-74462500D01*
X204058026Y-74384664D01*
X204058026Y-74384661D01*
X203989932Y-74175089D01*
X203889886Y-73978739D01*
X203760357Y-73800458D01*
X203604541Y-73644642D01*
X203426260Y-73515113D01*
X203229910Y-73415067D01*
X203020335Y-73346973D01*
X202802681Y-73312500D01*
X202042500Y-73312500D01*
X202042500Y-74164017D01*
X202024091Y-74153389D01*
X201871491Y-74112500D01*
X201713509Y-74112500D01*
X201560909Y-74153389D01*
X201542500Y-74164017D01*
X201542500Y-73312500D01*
X200782319Y-73312500D01*
X200564664Y-73346973D01*
X200355089Y-73415067D01*
X200158739Y-73515113D01*
X199980458Y-73644642D01*
X199824642Y-73800458D01*
X199695113Y-73978739D01*
X199595067Y-74175089D01*
X199526973Y-74384661D01*
X199526973Y-74384664D01*
X199514645Y-74462500D01*
X177804568Y-74462500D01*
X179321980Y-72945088D01*
X179367352Y-72890645D01*
X179446408Y-72740019D01*
X179487118Y-72574849D01*
X179487118Y-72404737D01*
X179446408Y-72239568D01*
X179367352Y-72088941D01*
X179321980Y-72034498D01*
X178610549Y-71323067D01*
X179034105Y-71323067D01*
X179527545Y-71816507D01*
X179574180Y-71854087D01*
X179704961Y-71913813D01*
X179847278Y-71934274D01*
X179989594Y-71913813D01*
X180120375Y-71854087D01*
X180167010Y-71816507D01*
X181261491Y-70722026D01*
X181261491Y-70722025D01*
X180448320Y-69908853D01*
X180448319Y-69908853D01*
X179034105Y-71323067D01*
X178610549Y-71323067D01*
X177969121Y-70681639D01*
X177914678Y-70636267D01*
X177839001Y-70596548D01*
X177764050Y-70557210D01*
X177598882Y-70516501D01*
X177428770Y-70516501D01*
X177263600Y-70557210D01*
X177112974Y-70636266D01*
X177058535Y-70681635D01*
X177058520Y-70681649D01*
X176136155Y-71604015D01*
X176109227Y-71618718D01*
X176083409Y-71635311D01*
X176077208Y-71636202D01*
X176074832Y-71637500D01*
X176048474Y-71640334D01*
X175950790Y-71640334D01*
X175883751Y-71620649D01*
X175863109Y-71604015D01*
X174730635Y-70471541D01*
X174687910Y-70440500D01*
X174654129Y-70415956D01*
X174623653Y-70393815D01*
X174623651Y-70393812D01*
X174586747Y-70367000D01*
X175350171Y-70367000D01*
X175668351Y-70685180D01*
X175668358Y-70685186D01*
X175748407Y-70750395D01*
X175905085Y-70829082D01*
X176075674Y-70869513D01*
X176075685Y-70869515D01*
X176251003Y-70869515D01*
X176251013Y-70869513D01*
X176421602Y-70829082D01*
X176578286Y-70750392D01*
X176658321Y-70685194D01*
X176658328Y-70685188D01*
X176808578Y-70534937D01*
X175995405Y-69721766D01*
X175350171Y-70367000D01*
X174586747Y-70367000D01*
X174549159Y-70339691D01*
X174545926Y-70337342D01*
X174414110Y-70270178D01*
X174382724Y-70247374D01*
X174250886Y-70115536D01*
X174250877Y-70115527D01*
X174163551Y-70042461D01*
X173994529Y-69948646D01*
X173994526Y-69948645D01*
X173994520Y-69948642D01*
X173810082Y-69890774D01*
X173617760Y-69871218D01*
X173425437Y-69890774D01*
X173241000Y-69948642D01*
X173240985Y-69948649D01*
X173071976Y-70042456D01*
X173071962Y-70042466D01*
X172984647Y-70115523D01*
X172323300Y-70776870D01*
X172250243Y-70864185D01*
X172250233Y-70864199D01*
X172156426Y-71033208D01*
X172156419Y-71033223D01*
X172098551Y-71217660D01*
X172078995Y-71409983D01*
X172098551Y-71602305D01*
X172156419Y-71786743D01*
X172156424Y-71786755D01*
X172173694Y-71817869D01*
X172189016Y-71886037D01*
X172165052Y-71951669D01*
X172152955Y-71965726D01*
X171745502Y-72373181D01*
X171684179Y-72406666D01*
X171657821Y-72409500D01*
X171628872Y-72409500D01*
X171397772Y-72439926D01*
X171368884Y-72443730D01*
X171115581Y-72511602D01*
X171115571Y-72511605D01*
X170873309Y-72611953D01*
X170873299Y-72611958D01*
X170646196Y-72743075D01*
X170438148Y-72902718D01*
X170252718Y-73088148D01*
X170093075Y-73296196D01*
X169961958Y-73523299D01*
X169961953Y-73523309D01*
X169861605Y-73765571D01*
X169861602Y-73765581D01*
X169835304Y-73863729D01*
X169793730Y-74018885D01*
X169759500Y-74278872D01*
X169385243Y-74278872D01*
X169446270Y-74051116D01*
X169480500Y-73791120D01*
X169480500Y-73528880D01*
X169446270Y-73268884D01*
X169378398Y-73015581D01*
X169326648Y-72890645D01*
X169278046Y-72773309D01*
X169278041Y-72773299D01*
X169146924Y-72546196D01*
X168987281Y-72338148D01*
X168987274Y-72338140D01*
X168801860Y-72152726D01*
X168801851Y-72152718D01*
X168593803Y-71993075D01*
X168414500Y-71889555D01*
X168366284Y-71838988D01*
X168352500Y-71782168D01*
X168352500Y-71439441D01*
X168372185Y-71372402D01*
X168398139Y-71343339D01*
X168477571Y-71278571D01*
X168599734Y-71128751D01*
X168689237Y-70957406D01*
X168742417Y-70771552D01*
X168752500Y-70658138D01*
X168752500Y-69297862D01*
X168742417Y-69184448D01*
X168721863Y-69112616D01*
X174494104Y-69112616D01*
X174494104Y-69287933D01*
X174494105Y-69287944D01*
X174534537Y-69458536D01*
X174613223Y-69615212D01*
X174678430Y-69695261D01*
X174678445Y-69695277D01*
X174996616Y-70013448D01*
X175641852Y-69368213D01*
X175641852Y-69368212D01*
X175641851Y-69368211D01*
X176348959Y-69368211D01*
X176348959Y-69368212D01*
X177162130Y-70181385D01*
X177162131Y-70181385D01*
X177187176Y-70156340D01*
X178069345Y-70156340D01*
X178069345Y-70156341D01*
X178089805Y-70298657D01*
X178149531Y-70429438D01*
X178187111Y-70476073D01*
X178680551Y-70969513D01*
X180094765Y-69555299D01*
X180801872Y-69555299D01*
X180801872Y-69555300D01*
X181615044Y-70368472D01*
X182709522Y-69273995D01*
X182709526Y-69273991D01*
X182747106Y-69227356D01*
X182806832Y-69096575D01*
X182827293Y-68954259D01*
X182827293Y-68954258D01*
X182806832Y-68811942D01*
X182747106Y-68681161D01*
X182709526Y-68634526D01*
X182216086Y-68141086D01*
X180801872Y-69555299D01*
X180094765Y-69555299D01*
X180094765Y-69555298D01*
X179281592Y-68742127D01*
X179281591Y-68742127D01*
X178187115Y-69836603D01*
X178149531Y-69883243D01*
X178089805Y-70014024D01*
X178069345Y-70156340D01*
X177187176Y-70156340D01*
X177283724Y-70059792D01*
X177312368Y-70031147D01*
X177312387Y-70031126D01*
X177377583Y-69951095D01*
X177377587Y-69951089D01*
X177456275Y-69794409D01*
X177496706Y-69623820D01*
X177496708Y-69623809D01*
X177496708Y-69448492D01*
X177496706Y-69448481D01*
X177456274Y-69277889D01*
X177377588Y-69121213D01*
X177312381Y-69041164D01*
X177312366Y-69041148D01*
X176994194Y-68722977D01*
X176348959Y-69368211D01*
X175641851Y-69368211D01*
X174828680Y-68555040D01*
X174678433Y-68705288D01*
X174613228Y-68785330D01*
X174613224Y-68785336D01*
X174534536Y-68942016D01*
X174494105Y-69112605D01*
X174494104Y-69112616D01*
X168721863Y-69112616D01*
X168689237Y-68998594D01*
X168599734Y-68827249D01*
X168530053Y-68741793D01*
X168477571Y-68677428D01*
X168385700Y-68602518D01*
X168327751Y-68555266D01*
X168313082Y-68547604D01*
X168156405Y-68465762D01*
X168001845Y-68421537D01*
X167970552Y-68412583D01*
X167970551Y-68412582D01*
X167970548Y-68412582D01*
X167881662Y-68404680D01*
X167857138Y-68402500D01*
X166946862Y-68402500D01*
X166934599Y-68403590D01*
X166833451Y-68412582D01*
X166647594Y-68465762D01*
X166476250Y-68555265D01*
X166326428Y-68677428D01*
X166204265Y-68827250D01*
X166114762Y-68998594D01*
X166061582Y-69184451D01*
X166051500Y-69297863D01*
X166051500Y-70658136D01*
X166061582Y-70771548D01*
X166061582Y-70771551D01*
X166061583Y-70771552D01*
X166064689Y-70782406D01*
X166114762Y-70957405D01*
X166154362Y-71033215D01*
X166204266Y-71128751D01*
X166269315Y-71208527D01*
X166326426Y-71278568D01*
X166326427Y-71278569D01*
X166326429Y-71278571D01*
X166380999Y-71323067D01*
X166405861Y-71343339D01*
X166445378Y-71400960D01*
X166451500Y-71439441D01*
X166451500Y-71872234D01*
X166431815Y-71939273D01*
X166389503Y-71979619D01*
X166366208Y-71993069D01*
X166366186Y-71993083D01*
X166158148Y-72152718D01*
X165972718Y-72338148D01*
X165813075Y-72546196D01*
X165681958Y-72773299D01*
X165681953Y-72773309D01*
X165581605Y-73015571D01*
X165581602Y-73015581D01*
X165513730Y-73268885D01*
X165479500Y-73528872D01*
X162884582Y-73528872D01*
X162788819Y-73433109D01*
X162755334Y-73371786D01*
X162752500Y-73345428D01*
X162752500Y-72672869D01*
X162752500Y-72672862D01*
X162742417Y-72559448D01*
X162689237Y-72373594D01*
X162599734Y-72202249D01*
X162507343Y-72088941D01*
X162477571Y-72052428D01*
X162371239Y-71965726D01*
X162327751Y-71930266D01*
X162243079Y-71886037D01*
X162156405Y-71840762D01*
X162001845Y-71796537D01*
X161970552Y-71787583D01*
X161970551Y-71787582D01*
X161970548Y-71787582D01*
X161881662Y-71779680D01*
X161857138Y-71777500D01*
X160446862Y-71777500D01*
X160434599Y-71778590D01*
X160333451Y-71787582D01*
X160147594Y-71840762D01*
X159976250Y-71930265D01*
X159826428Y-72052428D01*
X159704265Y-72202250D01*
X159614762Y-72373594D01*
X159561582Y-72559451D01*
X159551500Y-72672863D01*
X131190500Y-72672863D01*
X131190500Y-66768031D01*
X132119500Y-66768031D01*
X132119500Y-67111969D01*
X132127854Y-67196786D01*
X132153210Y-67454249D01*
X132220308Y-67791572D01*
X132320150Y-68120706D01*
X132451770Y-68438464D01*
X132451772Y-68438469D01*
X132613893Y-68741775D01*
X132613904Y-68741793D01*
X132804975Y-69027751D01*
X132804985Y-69027765D01*
X133023176Y-69293632D01*
X133266367Y-69536823D01*
X133266372Y-69536827D01*
X133266373Y-69536828D01*
X133532240Y-69755019D01*
X133818213Y-69946100D01*
X133818222Y-69946105D01*
X133818224Y-69946106D01*
X134121530Y-70108227D01*
X134121532Y-70108227D01*
X134121538Y-70108231D01*
X134439295Y-70239850D01*
X134768422Y-70339690D01*
X135105750Y-70406789D01*
X135448031Y-70440500D01*
X135448034Y-70440500D01*
X135791966Y-70440500D01*
X135791969Y-70440500D01*
X136134250Y-70406789D01*
X136471578Y-70339690D01*
X136800705Y-70239850D01*
X137118462Y-70108231D01*
X137421787Y-69946100D01*
X137707760Y-69755019D01*
X137960181Y-69547863D01*
X159551500Y-69547863D01*
X159551500Y-70483136D01*
X159561582Y-70596548D01*
X159614762Y-70782405D01*
X159657484Y-70864192D01*
X159704266Y-70953751D01*
X159719246Y-70972122D01*
X159826428Y-71103571D01*
X159901339Y-71164652D01*
X159976249Y-71225734D01*
X160147594Y-71315237D01*
X160333448Y-71368417D01*
X160446862Y-71378500D01*
X160446870Y-71378500D01*
X161857130Y-71378500D01*
X161857138Y-71378500D01*
X161970552Y-71368417D01*
X162156406Y-71315237D01*
X162327751Y-71225734D01*
X162477571Y-71103571D01*
X162552532Y-71011638D01*
X162610153Y-70972122D01*
X162648634Y-70966000D01*
X162944126Y-70966000D01*
X163011165Y-70985685D01*
X163054034Y-71032587D01*
X163091113Y-71103571D01*
X163104266Y-71128751D01*
X163226428Y-71278571D01*
X163301339Y-71339652D01*
X163376249Y-71400734D01*
X163547594Y-71490237D01*
X163733448Y-71543417D01*
X163846862Y-71553500D01*
X163846870Y-71553500D01*
X164757130Y-71553500D01*
X164757138Y-71553500D01*
X164870552Y-71543417D01*
X165056406Y-71490237D01*
X165227751Y-71400734D01*
X165377571Y-71278571D01*
X165499734Y-71128751D01*
X165589237Y-70957406D01*
X165642417Y-70771552D01*
X165652500Y-70658138D01*
X165652500Y-69297862D01*
X165642417Y-69184448D01*
X165589237Y-68998594D01*
X165499734Y-68827249D01*
X165430053Y-68741793D01*
X165377571Y-68677428D01*
X165285700Y-68602518D01*
X165227751Y-68555266D01*
X165213082Y-68547604D01*
X165056405Y-68465762D01*
X164901845Y-68421537D01*
X164870552Y-68412583D01*
X164870551Y-68412582D01*
X164870548Y-68412582D01*
X164781662Y-68404680D01*
X164757138Y-68402500D01*
X163846862Y-68402500D01*
X163834599Y-68403590D01*
X163733451Y-68412582D01*
X163547594Y-68465762D01*
X163376250Y-68555265D01*
X163226428Y-68677428D01*
X163104265Y-68827250D01*
X163014859Y-68998411D01*
X162966372Y-69048719D01*
X162904950Y-69065000D01*
X162648634Y-69065000D01*
X162581595Y-69045315D01*
X162552532Y-69019361D01*
X162477571Y-68927428D01*
X162354712Y-68827250D01*
X162327751Y-68805266D01*
X162289597Y-68785336D01*
X162156405Y-68715762D01*
X162001845Y-68671537D01*
X161970552Y-68662583D01*
X161970551Y-68662582D01*
X161970548Y-68662582D01*
X161881662Y-68654680D01*
X161857138Y-68652500D01*
X160446862Y-68652500D01*
X160434599Y-68653590D01*
X160333451Y-68662582D01*
X160147594Y-68715762D01*
X159976250Y-68805265D01*
X159826428Y-68927428D01*
X159704265Y-69077250D01*
X159614762Y-69248594D01*
X159561582Y-69434451D01*
X159551500Y-69547863D01*
X137960181Y-69547863D01*
X137973627Y-69536828D01*
X137973632Y-69536823D01*
X138053024Y-69457432D01*
X138216823Y-69293632D01*
X138216828Y-69293627D01*
X138435019Y-69027760D01*
X138626100Y-68741787D01*
X138788231Y-68438462D01*
X138886389Y-68201487D01*
X175182233Y-68201487D01*
X175995405Y-69014659D01*
X176621493Y-68388572D01*
X179635146Y-68388572D01*
X179635146Y-68388573D01*
X180448317Y-69201746D01*
X180448318Y-69201746D01*
X181862532Y-67787532D01*
X181369092Y-67294092D01*
X181322457Y-67256512D01*
X181191676Y-67196786D01*
X181049360Y-67176326D01*
X180907043Y-67196786D01*
X180776262Y-67256512D01*
X180729622Y-67294096D01*
X179635146Y-68388572D01*
X176621493Y-68388572D01*
X176640640Y-68369425D01*
X176322460Y-68051245D01*
X176322453Y-68051239D01*
X176242404Y-67986030D01*
X176085726Y-67907343D01*
X175915137Y-67866912D01*
X175915127Y-67866911D01*
X175739809Y-67866911D01*
X175739798Y-67866912D01*
X175569209Y-67907343D01*
X175412525Y-67986033D01*
X175332490Y-68051231D01*
X175332472Y-68051247D01*
X175182233Y-68201487D01*
X138886389Y-68201487D01*
X138919850Y-68120705D01*
X139019690Y-67791578D01*
X139086789Y-67454250D01*
X139120500Y-67111969D01*
X139120500Y-66768031D01*
X199579500Y-66768031D01*
X199579500Y-67111969D01*
X199587854Y-67196786D01*
X199613210Y-67454249D01*
X199680308Y-67791572D01*
X199780150Y-68120706D01*
X199911770Y-68438464D01*
X199911772Y-68438469D01*
X200073893Y-68741775D01*
X200073904Y-68741793D01*
X200264975Y-69027751D01*
X200264985Y-69027765D01*
X200483176Y-69293632D01*
X200726367Y-69536823D01*
X200726372Y-69536827D01*
X200726373Y-69536828D01*
X200992240Y-69755019D01*
X201278213Y-69946100D01*
X201278222Y-69946105D01*
X201278224Y-69946106D01*
X201581530Y-70108227D01*
X201581532Y-70108227D01*
X201581538Y-70108231D01*
X201899295Y-70239850D01*
X202228422Y-70339690D01*
X202565750Y-70406789D01*
X202908031Y-70440500D01*
X202908034Y-70440500D01*
X203251966Y-70440500D01*
X203251969Y-70440500D01*
X203594250Y-70406789D01*
X203931578Y-70339690D01*
X204260705Y-70239850D01*
X204578462Y-70108231D01*
X204881787Y-69946100D01*
X205167760Y-69755019D01*
X205433627Y-69536828D01*
X205676828Y-69293627D01*
X205895019Y-69027760D01*
X206086100Y-68741787D01*
X206248231Y-68438462D01*
X206379850Y-68120705D01*
X206479690Y-67791578D01*
X206546789Y-67454250D01*
X206580500Y-67111969D01*
X206580500Y-66768031D01*
X206546789Y-66425750D01*
X206479690Y-66088422D01*
X206379850Y-65759295D01*
X206248231Y-65441538D01*
X206086100Y-65138213D01*
X205895019Y-64852240D01*
X205676828Y-64586373D01*
X205676827Y-64586372D01*
X205676823Y-64586367D01*
X205433632Y-64343176D01*
X205167765Y-64124985D01*
X205167764Y-64124984D01*
X205167760Y-64124981D01*
X204881787Y-63933900D01*
X204881782Y-63933897D01*
X204881775Y-63933893D01*
X204578469Y-63771772D01*
X204578464Y-63771770D01*
X204260706Y-63640150D01*
X203931572Y-63540308D01*
X203594248Y-63473210D01*
X203594249Y-63473210D01*
X203336456Y-63447821D01*
X203251969Y-63439500D01*
X202908031Y-63439500D01*
X202829966Y-63447188D01*
X202565750Y-63473210D01*
X202228427Y-63540308D01*
X201899293Y-63640150D01*
X201581535Y-63771770D01*
X201581530Y-63771772D01*
X201278224Y-63933893D01*
X201278206Y-63933904D01*
X200992248Y-64124975D01*
X200992234Y-64124985D01*
X200726367Y-64343176D01*
X200483176Y-64586367D01*
X200264985Y-64852234D01*
X200264975Y-64852248D01*
X200073904Y-65138206D01*
X200073893Y-65138224D01*
X199911772Y-65441530D01*
X199911770Y-65441535D01*
X199780150Y-65759293D01*
X199680308Y-66088427D01*
X199613210Y-66425750D01*
X199587188Y-66689966D01*
X199579500Y-66768031D01*
X139120500Y-66768031D01*
X139086789Y-66425750D01*
X139019690Y-66088422D01*
X138919850Y-65759295D01*
X138788231Y-65441538D01*
X138626100Y-65138213D01*
X138435019Y-64852240D01*
X138216828Y-64586373D01*
X138216827Y-64586372D01*
X138216823Y-64586367D01*
X137973632Y-64343176D01*
X137707765Y-64124985D01*
X137707764Y-64124984D01*
X137707760Y-64124981D01*
X137421787Y-63933900D01*
X137421782Y-63933897D01*
X137421775Y-63933893D01*
X137118469Y-63771772D01*
X137118464Y-63771770D01*
X136800706Y-63640150D01*
X136471572Y-63540308D01*
X136134248Y-63473210D01*
X136134249Y-63473210D01*
X135876456Y-63447821D01*
X135791969Y-63439500D01*
X135448031Y-63439500D01*
X135369966Y-63447188D01*
X135105750Y-63473210D01*
X134768427Y-63540308D01*
X134439293Y-63640150D01*
X134121535Y-63771770D01*
X134121530Y-63771772D01*
X133818224Y-63933893D01*
X133818206Y-63933904D01*
X133532248Y-64124975D01*
X133532234Y-64124985D01*
X133266367Y-64343176D01*
X133023176Y-64586367D01*
X132804985Y-64852234D01*
X132804975Y-64852248D01*
X132613904Y-65138206D01*
X132613893Y-65138224D01*
X132451772Y-65441530D01*
X132451770Y-65441535D01*
X132320150Y-65759293D01*
X132220308Y-66088427D01*
X132153210Y-66425750D01*
X132127188Y-66689966D01*
X132119500Y-66768031D01*
X131190500Y-66768031D01*
X131190500Y-62674500D01*
X131210185Y-62607461D01*
X131262989Y-62561706D01*
X131314500Y-62550500D01*
X207805500Y-62550500D01*
X207872539Y-62570185D01*
G37*
%TD.AperFunction*%
%TD*%
M02*
