%TF.GenerationSoftware,KiCad,Pcbnew,9.0.5*%
%TF.CreationDate,2025-11-30T23:48:03+01:00*%
%TF.ProjectId,Amplifier,416d706c-6966-4696-9572-2e6b69636164,rev?*%
%TF.SameCoordinates,Original*%
%TF.FileFunction,Soldermask,Bot*%
%TF.FilePolarity,Negative*%
%FSLAX46Y46*%
G04 Gerber Fmt 4.6, Leading zero omitted, Abs format (unit mm)*
G04 Created by KiCad (PCBNEW 9.0.5) date 2025-11-30 23:48:03*
%MOMM*%
%LPD*%
G01*
G04 APERTURE LIST*
G04 Aperture macros list*
%AMRoundRect*
0 Rectangle with rounded corners*
0 $1 Rounding radius*
0 $2 $3 $4 $5 $6 $7 $8 $9 X,Y pos of 4 corners*
0 Add a 4 corners polygon primitive as box body*
4,1,4,$2,$3,$4,$5,$6,$7,$8,$9,$2,$3,0*
0 Add four circle primitives for the rounded corners*
1,1,$1+$1,$2,$3*
1,1,$1+$1,$4,$5*
1,1,$1+$1,$6,$7*
1,1,$1+$1,$8,$9*
0 Add four rect primitives between the rounded corners*
20,1,$1+$1,$2,$3,$4,$5,0*
20,1,$1+$1,$4,$5,$6,$7,0*
20,1,$1+$1,$6,$7,$8,$9,0*
20,1,$1+$1,$8,$9,$2,$3,0*%
%AMRotRect*
0 Rectangle, with rotation*
0 The origin of the aperture is its center*
0 $1 length*
0 $2 width*
0 $3 Rotation angle, in degrees counterclockwise*
0 Add horizontal line*
21,1,$1,$2,0,0,$3*%
G04 Aperture macros list end*
%ADD10R,2.500000X2.500000*%
%ADD11RoundRect,0.250000X-0.650000X-1.550000X0.650000X-1.550000X0.650000X1.550000X-0.650000X1.550000X0*%
%ADD12O,1.800000X3.600000*%
%ADD13C,5.600000*%
%ADD14C,1.800000*%
%ADD15RoundRect,0.250000X1.550000X-0.650000X1.550000X0.650000X-1.550000X0.650000X-1.550000X-0.650000X0*%
%ADD16O,3.600000X1.800000*%
%ADD17C,2.600000*%
%ADD18C,6.350000*%
%ADD19RoundRect,0.250000X-0.625000X0.400000X-0.625000X-0.400000X0.625000X-0.400000X0.625000X0.400000X0*%
%ADD20RotRect,1.100000X1.100000X45.000000*%
%ADD21RotRect,3.500000X1.800000X225.000000*%
%ADD22RoundRect,0.250000X-0.400000X-0.625000X0.400000X-0.625000X0.400000X0.625000X-0.400000X0.625000X0*%
%ADD23RoundRect,0.250000X0.625000X-0.400000X0.625000X0.400000X-0.625000X0.400000X-0.625000X-0.400000X0*%
%ADD24RotRect,3.500000X1.800000X315.000000*%
%ADD25RoundRect,0.250000X-0.751301X-0.167938X-0.167938X-0.751301X0.751301X0.167938X0.167938X0.751301X0*%
%ADD26RotRect,1.100000X1.100000X225.000000*%
%ADD27RoundRect,0.250000X0.167938X-0.751301X0.751301X-0.167938X-0.167938X0.751301X-0.751301X0.167938X0*%
%ADD28RoundRect,0.250000X-0.650000X0.412500X-0.650000X-0.412500X0.650000X-0.412500X0.650000X0.412500X0*%
G04 APERTURE END LIST*
D10*
%TO.C,TP4*%
X135530000Y-87310000D03*
%TD*%
D11*
%TO.C,J1*%
X162247500Y-107832500D03*
D12*
X165747500Y-107832500D03*
%TD*%
D13*
%TO.C,H2*%
X203080000Y-66940000D03*
%TD*%
D14*
%TO.C,RV1*%
X176540000Y-102850000D03*
X184160000Y-105390000D03*
X189240000Y-102850000D03*
%TD*%
D15*
%TO.C,J3*%
X201792500Y-78212500D03*
D16*
X201792500Y-74712500D03*
%TD*%
D13*
%TO.C,H4*%
X135620000Y-117010000D03*
%TD*%
D10*
%TO.C,TP1*%
X135590000Y-91610000D03*
%TD*%
D13*
%TO.C,H1*%
X203110000Y-116900000D03*
%TD*%
D10*
%TO.C,TP3*%
X135450000Y-80960000D03*
%TD*%
D13*
%TO.C,H3*%
X135620000Y-66940000D03*
%TD*%
D14*
%TO.C,RV2*%
X176690000Y-108290000D03*
X184310000Y-110830000D03*
X189390000Y-108290000D03*
%TD*%
D10*
%TO.C,TP2*%
X135430000Y-76740000D03*
%TD*%
D17*
%TO.C,U1*%
X163720000Y-83990000D03*
X167480000Y-86160000D03*
X171760000Y-85410000D03*
X174550000Y-82080000D03*
X174550000Y-77740000D03*
X171760000Y-74410000D03*
X167480000Y-73660000D03*
X163720000Y-75830000D03*
D18*
X153480000Y-79910000D03*
X183680000Y-79910000D03*
%TD*%
D19*
%TO.C,R3*%
X179180000Y-107110000D03*
X179180000Y-110210000D03*
%TD*%
D20*
%TO.C,D1*%
X177760603Y-86223016D03*
X179740501Y-84243118D03*
%TD*%
D21*
%TO.C,D4*%
X180448319Y-69555300D03*
X176912785Y-73090834D03*
%TD*%
D22*
%TO.C,R7*%
X183430000Y-100010000D03*
X186530000Y-100010000D03*
%TD*%
D23*
%TO.C,R2*%
X180760000Y-103060000D03*
X180760000Y-99960000D03*
%TD*%
D22*
%TO.C,R1*%
X164302000Y-69978000D03*
X167402000Y-69978000D03*
%TD*%
D24*
%TO.C,D3*%
X170832785Y-90975300D03*
X174368319Y-94510834D03*
%TD*%
D25*
%TO.C,C3*%
X173680552Y-88843067D03*
X175890260Y-91052775D03*
%TD*%
D26*
%TO.C,D2*%
X181620501Y-86033118D03*
X179640603Y-88013016D03*
%TD*%
D27*
%TO.C,C4*%
X173785698Y-71577921D03*
X175995406Y-69368213D03*
%TD*%
D28*
%TO.C,C1*%
X161152000Y-70015500D03*
X161152000Y-73140500D03*
%TD*%
M02*
