%TF.GenerationSoftware,KiCad,Pcbnew,9.0.5*%
%TF.CreationDate,2025-11-24T15:53:12+01:00*%
%TF.ProjectId,simplified HV amp,73696d70-6c69-4666-9965-642048562061,rev?*%
%TF.SameCoordinates,Original*%
%TF.FileFunction,Legend,Top*%
%TF.FilePolarity,Positive*%
%FSLAX46Y46*%
G04 Gerber Fmt 4.6, Leading zero omitted, Abs format (unit mm)*
G04 Created by KiCad (PCBNEW 9.0.5) date 2025-11-24 15:53:12*
%MOMM*%
%LPD*%
G01*
G04 APERTURE LIST*
%ADD10C,0.200000*%
%ADD11C,0.150000*%
%ADD12C,0.120000*%
G04 APERTURE END LIST*
D10*
X131757142Y-73872100D02*
X132900000Y-73872100D01*
X133400000Y-72943528D02*
X133900000Y-74443528D01*
X133900000Y-74443528D02*
X134400000Y-72943528D01*
X134899999Y-74443528D02*
X134899999Y-72943528D01*
X134899999Y-73657814D02*
X135757142Y-73657814D01*
X135757142Y-74443528D02*
X135757142Y-72943528D01*
X136257143Y-72943528D02*
X136757143Y-74443528D01*
X136757143Y-74443528D02*
X137257143Y-72943528D01*
D11*
X196239047Y-103592438D02*
X196143809Y-103544819D01*
X196143809Y-103544819D02*
X196000952Y-103544819D01*
X196000952Y-103544819D02*
X195858095Y-103592438D01*
X195858095Y-103592438D02*
X195762857Y-103687676D01*
X195762857Y-103687676D02*
X195715238Y-103782914D01*
X195715238Y-103782914D02*
X195667619Y-103973390D01*
X195667619Y-103973390D02*
X195667619Y-104116247D01*
X195667619Y-104116247D02*
X195715238Y-104306723D01*
X195715238Y-104306723D02*
X195762857Y-104401961D01*
X195762857Y-104401961D02*
X195858095Y-104497200D01*
X195858095Y-104497200D02*
X196000952Y-104544819D01*
X196000952Y-104544819D02*
X196096190Y-104544819D01*
X196096190Y-104544819D02*
X196239047Y-104497200D01*
X196239047Y-104497200D02*
X196286666Y-104449580D01*
X196286666Y-104449580D02*
X196286666Y-104116247D01*
X196286666Y-104116247D02*
X196096190Y-104116247D01*
X197143809Y-104544819D02*
X197143809Y-104021009D01*
X197143809Y-104021009D02*
X197096190Y-103925771D01*
X197096190Y-103925771D02*
X197000952Y-103878152D01*
X197000952Y-103878152D02*
X196810476Y-103878152D01*
X196810476Y-103878152D02*
X196715238Y-103925771D01*
X197143809Y-104497200D02*
X197048571Y-104544819D01*
X197048571Y-104544819D02*
X196810476Y-104544819D01*
X196810476Y-104544819D02*
X196715238Y-104497200D01*
X196715238Y-104497200D02*
X196667619Y-104401961D01*
X196667619Y-104401961D02*
X196667619Y-104306723D01*
X196667619Y-104306723D02*
X196715238Y-104211485D01*
X196715238Y-104211485D02*
X196810476Y-104163866D01*
X196810476Y-104163866D02*
X197048571Y-104163866D01*
X197048571Y-104163866D02*
X197143809Y-104116247D01*
X197620000Y-104544819D02*
X197620000Y-103878152D01*
X197620000Y-103544819D02*
X197572381Y-103592438D01*
X197572381Y-103592438D02*
X197620000Y-103640057D01*
X197620000Y-103640057D02*
X197667619Y-103592438D01*
X197667619Y-103592438D02*
X197620000Y-103544819D01*
X197620000Y-103544819D02*
X197620000Y-103640057D01*
X198096190Y-103878152D02*
X198096190Y-104544819D01*
X198096190Y-103973390D02*
X198143809Y-103925771D01*
X198143809Y-103925771D02*
X198239047Y-103878152D01*
X198239047Y-103878152D02*
X198381904Y-103878152D01*
X198381904Y-103878152D02*
X198477142Y-103925771D01*
X198477142Y-103925771D02*
X198524761Y-104021009D01*
X198524761Y-104021009D02*
X198524761Y-104544819D01*
X199715238Y-104259104D02*
X200191428Y-104259104D01*
X199620000Y-104544819D02*
X199953333Y-103544819D01*
X199953333Y-103544819D02*
X200286666Y-104544819D01*
X201048571Y-104544819D02*
X201048571Y-103544819D01*
X201048571Y-104497200D02*
X200953333Y-104544819D01*
X200953333Y-104544819D02*
X200762857Y-104544819D01*
X200762857Y-104544819D02*
X200667619Y-104497200D01*
X200667619Y-104497200D02*
X200620000Y-104449580D01*
X200620000Y-104449580D02*
X200572381Y-104354342D01*
X200572381Y-104354342D02*
X200572381Y-104068628D01*
X200572381Y-104068628D02*
X200620000Y-103973390D01*
X200620000Y-103973390D02*
X200667619Y-103925771D01*
X200667619Y-103925771D02*
X200762857Y-103878152D01*
X200762857Y-103878152D02*
X200953333Y-103878152D01*
X200953333Y-103878152D02*
X201048571Y-103925771D01*
X201524762Y-103878152D02*
X201524762Y-104735295D01*
X201524762Y-104735295D02*
X201477143Y-104830533D01*
X201477143Y-104830533D02*
X201381905Y-104878152D01*
X201381905Y-104878152D02*
X201334286Y-104878152D01*
X201524762Y-103544819D02*
X201477143Y-103592438D01*
X201477143Y-103592438D02*
X201524762Y-103640057D01*
X201524762Y-103640057D02*
X201572381Y-103592438D01*
X201572381Y-103592438D02*
X201524762Y-103544819D01*
X201524762Y-103544819D02*
X201524762Y-103640057D01*
X195424285Y-108964819D02*
X195614761Y-108964819D01*
X195614761Y-108964819D02*
X195709999Y-109012438D01*
X195709999Y-109012438D02*
X195805237Y-109107676D01*
X195805237Y-109107676D02*
X195852856Y-109298152D01*
X195852856Y-109298152D02*
X195852856Y-109631485D01*
X195852856Y-109631485D02*
X195805237Y-109821961D01*
X195805237Y-109821961D02*
X195709999Y-109917200D01*
X195709999Y-109917200D02*
X195614761Y-109964819D01*
X195614761Y-109964819D02*
X195424285Y-109964819D01*
X195424285Y-109964819D02*
X195329047Y-109917200D01*
X195329047Y-109917200D02*
X195233809Y-109821961D01*
X195233809Y-109821961D02*
X195186190Y-109631485D01*
X195186190Y-109631485D02*
X195186190Y-109298152D01*
X195186190Y-109298152D02*
X195233809Y-109107676D01*
X195233809Y-109107676D02*
X195329047Y-109012438D01*
X195329047Y-109012438D02*
X195424285Y-108964819D01*
X196138571Y-109298152D02*
X196519523Y-109298152D01*
X196281428Y-109964819D02*
X196281428Y-109107676D01*
X196281428Y-109107676D02*
X196329047Y-109012438D01*
X196329047Y-109012438D02*
X196424285Y-108964819D01*
X196424285Y-108964819D02*
X196519523Y-108964819D01*
X196710000Y-109298152D02*
X197090952Y-109298152D01*
X196852857Y-109964819D02*
X196852857Y-109107676D01*
X196852857Y-109107676D02*
X196900476Y-109012438D01*
X196900476Y-109012438D02*
X196995714Y-108964819D01*
X196995714Y-108964819D02*
X197090952Y-108964819D01*
X197376667Y-109917200D02*
X197471905Y-109964819D01*
X197471905Y-109964819D02*
X197662381Y-109964819D01*
X197662381Y-109964819D02*
X197757619Y-109917200D01*
X197757619Y-109917200D02*
X197805238Y-109821961D01*
X197805238Y-109821961D02*
X197805238Y-109774342D01*
X197805238Y-109774342D02*
X197757619Y-109679104D01*
X197757619Y-109679104D02*
X197662381Y-109631485D01*
X197662381Y-109631485D02*
X197519524Y-109631485D01*
X197519524Y-109631485D02*
X197424286Y-109583866D01*
X197424286Y-109583866D02*
X197376667Y-109488628D01*
X197376667Y-109488628D02*
X197376667Y-109441009D01*
X197376667Y-109441009D02*
X197424286Y-109345771D01*
X197424286Y-109345771D02*
X197519524Y-109298152D01*
X197519524Y-109298152D02*
X197662381Y-109298152D01*
X197662381Y-109298152D02*
X197757619Y-109345771D01*
X198614762Y-109917200D02*
X198519524Y-109964819D01*
X198519524Y-109964819D02*
X198329048Y-109964819D01*
X198329048Y-109964819D02*
X198233810Y-109917200D01*
X198233810Y-109917200D02*
X198186191Y-109821961D01*
X198186191Y-109821961D02*
X198186191Y-109441009D01*
X198186191Y-109441009D02*
X198233810Y-109345771D01*
X198233810Y-109345771D02*
X198329048Y-109298152D01*
X198329048Y-109298152D02*
X198519524Y-109298152D01*
X198519524Y-109298152D02*
X198614762Y-109345771D01*
X198614762Y-109345771D02*
X198662381Y-109441009D01*
X198662381Y-109441009D02*
X198662381Y-109536247D01*
X198662381Y-109536247D02*
X198186191Y-109631485D01*
X198948096Y-109298152D02*
X199329048Y-109298152D01*
X199090953Y-108964819D02*
X199090953Y-109821961D01*
X199090953Y-109821961D02*
X199138572Y-109917200D01*
X199138572Y-109917200D02*
X199233810Y-109964819D01*
X199233810Y-109964819D02*
X199329048Y-109964819D01*
X200376668Y-109679104D02*
X200852858Y-109679104D01*
X200281430Y-109964819D02*
X200614763Y-108964819D01*
X200614763Y-108964819D02*
X200948096Y-109964819D01*
X201710001Y-109964819D02*
X201710001Y-108964819D01*
X201710001Y-109917200D02*
X201614763Y-109964819D01*
X201614763Y-109964819D02*
X201424287Y-109964819D01*
X201424287Y-109964819D02*
X201329049Y-109917200D01*
X201329049Y-109917200D02*
X201281430Y-109869580D01*
X201281430Y-109869580D02*
X201233811Y-109774342D01*
X201233811Y-109774342D02*
X201233811Y-109488628D01*
X201233811Y-109488628D02*
X201281430Y-109393390D01*
X201281430Y-109393390D02*
X201329049Y-109345771D01*
X201329049Y-109345771D02*
X201424287Y-109298152D01*
X201424287Y-109298152D02*
X201614763Y-109298152D01*
X201614763Y-109298152D02*
X201710001Y-109345771D01*
X202186192Y-109298152D02*
X202186192Y-110155295D01*
X202186192Y-110155295D02*
X202138573Y-110250533D01*
X202138573Y-110250533D02*
X202043335Y-110298152D01*
X202043335Y-110298152D02*
X201995716Y-110298152D01*
X202186192Y-108964819D02*
X202138573Y-109012438D01*
X202138573Y-109012438D02*
X202186192Y-109060057D01*
X202186192Y-109060057D02*
X202233811Y-109012438D01*
X202233811Y-109012438D02*
X202186192Y-108964819D01*
X202186192Y-108964819D02*
X202186192Y-109060057D01*
X162310553Y-63780409D02*
X162310553Y-62580409D01*
X162310553Y-62580409D02*
X162767696Y-62580409D01*
X162767696Y-62580409D02*
X162881981Y-62637552D01*
X162881981Y-62637552D02*
X162939124Y-62694695D01*
X162939124Y-62694695D02*
X162996267Y-62808981D01*
X162996267Y-62808981D02*
X162996267Y-62980409D01*
X162996267Y-62980409D02*
X162939124Y-63094695D01*
X162939124Y-63094695D02*
X162881981Y-63151838D01*
X162881981Y-63151838D02*
X162767696Y-63208981D01*
X162767696Y-63208981D02*
X162310553Y-63208981D01*
X163453410Y-63437552D02*
X164024839Y-63437552D01*
X163339124Y-63780409D02*
X163739124Y-62580409D01*
X163739124Y-62580409D02*
X164139124Y-63780409D01*
X164710552Y-63094695D02*
X164596267Y-63037552D01*
X164596267Y-63037552D02*
X164539124Y-62980409D01*
X164539124Y-62980409D02*
X164481981Y-62866124D01*
X164481981Y-62866124D02*
X164481981Y-62808981D01*
X164481981Y-62808981D02*
X164539124Y-62694695D01*
X164539124Y-62694695D02*
X164596267Y-62637552D01*
X164596267Y-62637552D02*
X164710552Y-62580409D01*
X164710552Y-62580409D02*
X164939124Y-62580409D01*
X164939124Y-62580409D02*
X165053410Y-62637552D01*
X165053410Y-62637552D02*
X165110552Y-62694695D01*
X165110552Y-62694695D02*
X165167695Y-62808981D01*
X165167695Y-62808981D02*
X165167695Y-62866124D01*
X165167695Y-62866124D02*
X165110552Y-62980409D01*
X165110552Y-62980409D02*
X165053410Y-63037552D01*
X165053410Y-63037552D02*
X164939124Y-63094695D01*
X164939124Y-63094695D02*
X164710552Y-63094695D01*
X164710552Y-63094695D02*
X164596267Y-63151838D01*
X164596267Y-63151838D02*
X164539124Y-63208981D01*
X164539124Y-63208981D02*
X164481981Y-63323267D01*
X164481981Y-63323267D02*
X164481981Y-63551838D01*
X164481981Y-63551838D02*
X164539124Y-63666124D01*
X164539124Y-63666124D02*
X164596267Y-63723267D01*
X164596267Y-63723267D02*
X164710552Y-63780409D01*
X164710552Y-63780409D02*
X164939124Y-63780409D01*
X164939124Y-63780409D02*
X165053410Y-63723267D01*
X165053410Y-63723267D02*
X165110552Y-63666124D01*
X165110552Y-63666124D02*
X165167695Y-63551838D01*
X165167695Y-63551838D02*
X165167695Y-63323267D01*
X165167695Y-63323267D02*
X165110552Y-63208981D01*
X165110552Y-63208981D02*
X165053410Y-63151838D01*
X165053410Y-63151838D02*
X164939124Y-63094695D01*
X165853409Y-63094695D02*
X165739124Y-63037552D01*
X165739124Y-63037552D02*
X165681981Y-62980409D01*
X165681981Y-62980409D02*
X165624838Y-62866124D01*
X165624838Y-62866124D02*
X165624838Y-62808981D01*
X165624838Y-62808981D02*
X165681981Y-62694695D01*
X165681981Y-62694695D02*
X165739124Y-62637552D01*
X165739124Y-62637552D02*
X165853409Y-62580409D01*
X165853409Y-62580409D02*
X166081981Y-62580409D01*
X166081981Y-62580409D02*
X166196267Y-62637552D01*
X166196267Y-62637552D02*
X166253409Y-62694695D01*
X166253409Y-62694695D02*
X166310552Y-62808981D01*
X166310552Y-62808981D02*
X166310552Y-62866124D01*
X166310552Y-62866124D02*
X166253409Y-62980409D01*
X166253409Y-62980409D02*
X166196267Y-63037552D01*
X166196267Y-63037552D02*
X166081981Y-63094695D01*
X166081981Y-63094695D02*
X165853409Y-63094695D01*
X165853409Y-63094695D02*
X165739124Y-63151838D01*
X165739124Y-63151838D02*
X165681981Y-63208981D01*
X165681981Y-63208981D02*
X165624838Y-63323267D01*
X165624838Y-63323267D02*
X165624838Y-63551838D01*
X165624838Y-63551838D02*
X165681981Y-63666124D01*
X165681981Y-63666124D02*
X165739124Y-63723267D01*
X165739124Y-63723267D02*
X165853409Y-63780409D01*
X165853409Y-63780409D02*
X166081981Y-63780409D01*
X166081981Y-63780409D02*
X166196267Y-63723267D01*
X166196267Y-63723267D02*
X166253409Y-63666124D01*
X166253409Y-63666124D02*
X166310552Y-63551838D01*
X166310552Y-63551838D02*
X166310552Y-63323267D01*
X166310552Y-63323267D02*
X166253409Y-63208981D01*
X166253409Y-63208981D02*
X166196267Y-63151838D01*
X166196267Y-63151838D02*
X166081981Y-63094695D01*
X167967695Y-62580409D02*
X168196267Y-62580409D01*
X168196267Y-62580409D02*
X168310552Y-62637552D01*
X168310552Y-62637552D02*
X168424838Y-62751838D01*
X168424838Y-62751838D02*
X168481981Y-62980409D01*
X168481981Y-62980409D02*
X168481981Y-63380409D01*
X168481981Y-63380409D02*
X168424838Y-63608981D01*
X168424838Y-63608981D02*
X168310552Y-63723267D01*
X168310552Y-63723267D02*
X168196267Y-63780409D01*
X168196267Y-63780409D02*
X167967695Y-63780409D01*
X167967695Y-63780409D02*
X167853410Y-63723267D01*
X167853410Y-63723267D02*
X167739124Y-63608981D01*
X167739124Y-63608981D02*
X167681981Y-63380409D01*
X167681981Y-63380409D02*
X167681981Y-62980409D01*
X167681981Y-62980409D02*
X167739124Y-62751838D01*
X167739124Y-62751838D02*
X167853410Y-62637552D01*
X167853410Y-62637552D02*
X167967695Y-62580409D01*
X168996267Y-62980409D02*
X168996267Y-64180409D01*
X168996267Y-63037552D02*
X169110553Y-62980409D01*
X169110553Y-62980409D02*
X169339124Y-62980409D01*
X169339124Y-62980409D02*
X169453410Y-63037552D01*
X169453410Y-63037552D02*
X169510553Y-63094695D01*
X169510553Y-63094695D02*
X169567695Y-63208981D01*
X169567695Y-63208981D02*
X169567695Y-63551838D01*
X169567695Y-63551838D02*
X169510553Y-63666124D01*
X169510553Y-63666124D02*
X169453410Y-63723267D01*
X169453410Y-63723267D02*
X169339124Y-63780409D01*
X169339124Y-63780409D02*
X169110553Y-63780409D01*
X169110553Y-63780409D02*
X168996267Y-63723267D01*
X170081981Y-63323267D02*
X170996267Y-63323267D01*
X171510552Y-63437552D02*
X172081981Y-63437552D01*
X171396266Y-63780409D02*
X171796266Y-62580409D01*
X171796266Y-62580409D02*
X172196266Y-63780409D01*
X172596266Y-63780409D02*
X172596266Y-62980409D01*
X172596266Y-63094695D02*
X172653409Y-63037552D01*
X172653409Y-63037552D02*
X172767694Y-62980409D01*
X172767694Y-62980409D02*
X172939123Y-62980409D01*
X172939123Y-62980409D02*
X173053409Y-63037552D01*
X173053409Y-63037552D02*
X173110552Y-63151838D01*
X173110552Y-63151838D02*
X173110552Y-63780409D01*
X173110552Y-63151838D02*
X173167694Y-63037552D01*
X173167694Y-63037552D02*
X173281980Y-62980409D01*
X173281980Y-62980409D02*
X173453409Y-62980409D01*
X173453409Y-62980409D02*
X173567694Y-63037552D01*
X173567694Y-63037552D02*
X173624837Y-63151838D01*
X173624837Y-63151838D02*
X173624837Y-63780409D01*
X174196266Y-62980409D02*
X174196266Y-64180409D01*
X174196266Y-63037552D02*
X174310552Y-62980409D01*
X174310552Y-62980409D02*
X174539123Y-62980409D01*
X174539123Y-62980409D02*
X174653409Y-63037552D01*
X174653409Y-63037552D02*
X174710552Y-63094695D01*
X174710552Y-63094695D02*
X174767694Y-63208981D01*
X174767694Y-63208981D02*
X174767694Y-63551838D01*
X174767694Y-63551838D02*
X174710552Y-63666124D01*
X174710552Y-63666124D02*
X174653409Y-63723267D01*
X174653409Y-63723267D02*
X174539123Y-63780409D01*
X174539123Y-63780409D02*
X174310552Y-63780409D01*
X174310552Y-63780409D02*
X174196266Y-63723267D01*
X206309580Y-78579047D02*
X206357200Y-78626666D01*
X206357200Y-78626666D02*
X206404819Y-78769523D01*
X206404819Y-78769523D02*
X206404819Y-78864761D01*
X206404819Y-78864761D02*
X206357200Y-79007618D01*
X206357200Y-79007618D02*
X206261961Y-79102856D01*
X206261961Y-79102856D02*
X206166723Y-79150475D01*
X206166723Y-79150475D02*
X205976247Y-79198094D01*
X205976247Y-79198094D02*
X205833390Y-79198094D01*
X205833390Y-79198094D02*
X205642914Y-79150475D01*
X205642914Y-79150475D02*
X205547676Y-79102856D01*
X205547676Y-79102856D02*
X205452438Y-79007618D01*
X205452438Y-79007618D02*
X205404819Y-78864761D01*
X205404819Y-78864761D02*
X205404819Y-78769523D01*
X205404819Y-78769523D02*
X205452438Y-78626666D01*
X205452438Y-78626666D02*
X205500057Y-78579047D01*
X205404819Y-78293332D02*
X205404819Y-77721904D01*
X206404819Y-78007618D02*
X205404819Y-78007618D01*
X206404819Y-76817142D02*
X205928628Y-77150475D01*
X206404819Y-77388570D02*
X205404819Y-77388570D01*
X205404819Y-77388570D02*
X205404819Y-77007618D01*
X205404819Y-77007618D02*
X205452438Y-76912380D01*
X205452438Y-76912380D02*
X205500057Y-76864761D01*
X205500057Y-76864761D02*
X205595295Y-76817142D01*
X205595295Y-76817142D02*
X205738152Y-76817142D01*
X205738152Y-76817142D02*
X205833390Y-76864761D01*
X205833390Y-76864761D02*
X205881009Y-76912380D01*
X205881009Y-76912380D02*
X205928628Y-77007618D01*
X205928628Y-77007618D02*
X205928628Y-77388570D01*
X206404819Y-75912380D02*
X206404819Y-76388570D01*
X206404819Y-76388570D02*
X205404819Y-76388570D01*
X206404819Y-74817141D02*
X205404819Y-74817141D01*
X206404819Y-74340951D02*
X205404819Y-74340951D01*
X205404819Y-74340951D02*
X206404819Y-73769523D01*
X206404819Y-73769523D02*
X205404819Y-73769523D01*
D10*
X134007143Y-83274957D02*
X133864286Y-83203528D01*
X133864286Y-83203528D02*
X133650000Y-83203528D01*
X133650000Y-83203528D02*
X133435714Y-83274957D01*
X133435714Y-83274957D02*
X133292857Y-83417814D01*
X133292857Y-83417814D02*
X133221428Y-83560671D01*
X133221428Y-83560671D02*
X133150000Y-83846385D01*
X133150000Y-83846385D02*
X133150000Y-84060671D01*
X133150000Y-84060671D02*
X133221428Y-84346385D01*
X133221428Y-84346385D02*
X133292857Y-84489242D01*
X133292857Y-84489242D02*
X133435714Y-84632100D01*
X133435714Y-84632100D02*
X133650000Y-84703528D01*
X133650000Y-84703528D02*
X133792857Y-84703528D01*
X133792857Y-84703528D02*
X134007143Y-84632100D01*
X134007143Y-84632100D02*
X134078571Y-84560671D01*
X134078571Y-84560671D02*
X134078571Y-84060671D01*
X134078571Y-84060671D02*
X133792857Y-84060671D01*
X134721428Y-84703528D02*
X134721428Y-83203528D01*
X134721428Y-83203528D02*
X135578571Y-84703528D01*
X135578571Y-84703528D02*
X135578571Y-83203528D01*
X136292857Y-84703528D02*
X136292857Y-83203528D01*
X136292857Y-83203528D02*
X136650000Y-83203528D01*
X136650000Y-83203528D02*
X136864286Y-83274957D01*
X136864286Y-83274957D02*
X137007143Y-83417814D01*
X137007143Y-83417814D02*
X137078572Y-83560671D01*
X137078572Y-83560671D02*
X137150000Y-83846385D01*
X137150000Y-83846385D02*
X137150000Y-84060671D01*
X137150000Y-84060671D02*
X137078572Y-84346385D01*
X137078572Y-84346385D02*
X137007143Y-84489242D01*
X137007143Y-84489242D02*
X136864286Y-84632100D01*
X136864286Y-84632100D02*
X136650000Y-84703528D01*
X136650000Y-84703528D02*
X136292857Y-84703528D01*
X132057142Y-94882100D02*
X133200000Y-94882100D01*
X132628571Y-95453528D02*
X132628571Y-94310671D01*
X133700000Y-93953528D02*
X134200000Y-95453528D01*
X134200000Y-95453528D02*
X134700000Y-93953528D01*
X135199999Y-95453528D02*
X135199999Y-93953528D01*
X135199999Y-94667814D02*
X136057142Y-94667814D01*
X136057142Y-95453528D02*
X136057142Y-93953528D01*
X136557143Y-93953528D02*
X137057143Y-95453528D01*
X137057143Y-95453528D02*
X137557143Y-93953528D01*
D11*
X155926190Y-112254819D02*
X155926190Y-111254819D01*
X155926190Y-111731009D02*
X156497618Y-111731009D01*
X156497618Y-112254819D02*
X156497618Y-111254819D01*
X156830952Y-111254819D02*
X157164285Y-112254819D01*
X157164285Y-112254819D02*
X157497618Y-111254819D01*
X158783333Y-111254819D02*
X158973809Y-111254819D01*
X158973809Y-111254819D02*
X159069047Y-111302438D01*
X159069047Y-111302438D02*
X159164285Y-111397676D01*
X159164285Y-111397676D02*
X159211904Y-111588152D01*
X159211904Y-111588152D02*
X159211904Y-111921485D01*
X159211904Y-111921485D02*
X159164285Y-112111961D01*
X159164285Y-112111961D02*
X159069047Y-112207200D01*
X159069047Y-112207200D02*
X158973809Y-112254819D01*
X158973809Y-112254819D02*
X158783333Y-112254819D01*
X158783333Y-112254819D02*
X158688095Y-112207200D01*
X158688095Y-112207200D02*
X158592857Y-112111961D01*
X158592857Y-112111961D02*
X158545238Y-111921485D01*
X158545238Y-111921485D02*
X158545238Y-111588152D01*
X158545238Y-111588152D02*
X158592857Y-111397676D01*
X158592857Y-111397676D02*
X158688095Y-111302438D01*
X158688095Y-111302438D02*
X158783333Y-111254819D01*
X159640476Y-111254819D02*
X159640476Y-112064342D01*
X159640476Y-112064342D02*
X159688095Y-112159580D01*
X159688095Y-112159580D02*
X159735714Y-112207200D01*
X159735714Y-112207200D02*
X159830952Y-112254819D01*
X159830952Y-112254819D02*
X160021428Y-112254819D01*
X160021428Y-112254819D02*
X160116666Y-112207200D01*
X160116666Y-112207200D02*
X160164285Y-112159580D01*
X160164285Y-112159580D02*
X160211904Y-112064342D01*
X160211904Y-112064342D02*
X160211904Y-111254819D01*
X160545238Y-111254819D02*
X161116666Y-111254819D01*
X160830952Y-112254819D02*
X160830952Y-111254819D01*
X156438095Y-113493866D02*
X157200000Y-113493866D01*
X156819047Y-113874819D02*
X156819047Y-113112914D01*
X159200000Y-113493866D02*
X159961905Y-113493866D01*
X207551366Y-78049404D02*
X207551366Y-77287500D01*
X207932319Y-77668452D02*
X207170414Y-77668452D01*
X207551366Y-75287499D02*
X207551366Y-74525595D01*
X202809580Y-93806666D02*
X202857200Y-93854285D01*
X202857200Y-93854285D02*
X202904819Y-93997142D01*
X202904819Y-93997142D02*
X202904819Y-94092380D01*
X202904819Y-94092380D02*
X202857200Y-94235237D01*
X202857200Y-94235237D02*
X202761961Y-94330475D01*
X202761961Y-94330475D02*
X202666723Y-94378094D01*
X202666723Y-94378094D02*
X202476247Y-94425713D01*
X202476247Y-94425713D02*
X202333390Y-94425713D01*
X202333390Y-94425713D02*
X202142914Y-94378094D01*
X202142914Y-94378094D02*
X202047676Y-94330475D01*
X202047676Y-94330475D02*
X201952438Y-94235237D01*
X201952438Y-94235237D02*
X201904819Y-94092380D01*
X201904819Y-94092380D02*
X201904819Y-93997142D01*
X201904819Y-93997142D02*
X201952438Y-93854285D01*
X201952438Y-93854285D02*
X202000057Y-93806666D01*
X202000057Y-93425713D02*
X201952438Y-93378094D01*
X201952438Y-93378094D02*
X201904819Y-93282856D01*
X201904819Y-93282856D02*
X201904819Y-93044761D01*
X201904819Y-93044761D02*
X201952438Y-92949523D01*
X201952438Y-92949523D02*
X202000057Y-92901904D01*
X202000057Y-92901904D02*
X202095295Y-92854285D01*
X202095295Y-92854285D02*
X202190533Y-92854285D01*
X202190533Y-92854285D02*
X202333390Y-92901904D01*
X202333390Y-92901904D02*
X202904819Y-93473332D01*
X202904819Y-93473332D02*
X202904819Y-92854285D01*
X197734819Y-94452857D02*
X197258628Y-94786190D01*
X197734819Y-95024285D02*
X196734819Y-95024285D01*
X196734819Y-95024285D02*
X196734819Y-94643333D01*
X196734819Y-94643333D02*
X196782438Y-94548095D01*
X196782438Y-94548095D02*
X196830057Y-94500476D01*
X196830057Y-94500476D02*
X196925295Y-94452857D01*
X196925295Y-94452857D02*
X197068152Y-94452857D01*
X197068152Y-94452857D02*
X197163390Y-94500476D01*
X197163390Y-94500476D02*
X197211009Y-94548095D01*
X197211009Y-94548095D02*
X197258628Y-94643333D01*
X197258628Y-94643333D02*
X197258628Y-95024285D01*
X197734819Y-93500476D02*
X197734819Y-94071904D01*
X197734819Y-93786190D02*
X196734819Y-93786190D01*
X196734819Y-93786190D02*
X196877676Y-93881428D01*
X196877676Y-93881428D02*
X196972914Y-93976666D01*
X196972914Y-93976666D02*
X197020533Y-94071904D01*
X196734819Y-93167142D02*
X196734819Y-92548095D01*
X196734819Y-92548095D02*
X197115771Y-92881428D01*
X197115771Y-92881428D02*
X197115771Y-92738571D01*
X197115771Y-92738571D02*
X197163390Y-92643333D01*
X197163390Y-92643333D02*
X197211009Y-92595714D01*
X197211009Y-92595714D02*
X197306247Y-92548095D01*
X197306247Y-92548095D02*
X197544342Y-92548095D01*
X197544342Y-92548095D02*
X197639580Y-92595714D01*
X197639580Y-92595714D02*
X197687200Y-92643333D01*
X197687200Y-92643333D02*
X197734819Y-92738571D01*
X197734819Y-92738571D02*
X197734819Y-93024285D01*
X197734819Y-93024285D02*
X197687200Y-93119523D01*
X197687200Y-93119523D02*
X197639580Y-93167142D01*
X157846666Y-101184819D02*
X157846666Y-101899104D01*
X157846666Y-101899104D02*
X157799047Y-102041961D01*
X157799047Y-102041961D02*
X157703809Y-102137200D01*
X157703809Y-102137200D02*
X157560952Y-102184819D01*
X157560952Y-102184819D02*
X157465714Y-102184819D01*
X158846666Y-102184819D02*
X158275238Y-102184819D01*
X158560952Y-102184819D02*
X158560952Y-101184819D01*
X158560952Y-101184819D02*
X158465714Y-101327676D01*
X158465714Y-101327676D02*
X158370476Y-101422914D01*
X158370476Y-101422914D02*
X158275238Y-101470533D01*
X190665371Y-94395924D02*
X190189180Y-94729257D01*
X190665371Y-94967352D02*
X189665371Y-94967352D01*
X189665371Y-94967352D02*
X189665371Y-94586400D01*
X189665371Y-94586400D02*
X189712990Y-94491162D01*
X189712990Y-94491162D02*
X189760609Y-94443543D01*
X189760609Y-94443543D02*
X189855847Y-94395924D01*
X189855847Y-94395924D02*
X189998704Y-94395924D01*
X189998704Y-94395924D02*
X190093942Y-94443543D01*
X190093942Y-94443543D02*
X190141561Y-94491162D01*
X190141561Y-94491162D02*
X190189180Y-94586400D01*
X190189180Y-94586400D02*
X190189180Y-94967352D01*
X190665371Y-93443543D02*
X190665371Y-94014971D01*
X190665371Y-93729257D02*
X189665371Y-93729257D01*
X189665371Y-93729257D02*
X189808228Y-93824495D01*
X189808228Y-93824495D02*
X189903466Y-93919733D01*
X189903466Y-93919733D02*
X189951085Y-94014971D01*
X189665371Y-92824495D02*
X189665371Y-92729257D01*
X189665371Y-92729257D02*
X189712990Y-92634019D01*
X189712990Y-92634019D02*
X189760609Y-92586400D01*
X189760609Y-92586400D02*
X189855847Y-92538781D01*
X189855847Y-92538781D02*
X190046323Y-92491162D01*
X190046323Y-92491162D02*
X190284418Y-92491162D01*
X190284418Y-92491162D02*
X190474894Y-92538781D01*
X190474894Y-92538781D02*
X190570132Y-92586400D01*
X190570132Y-92586400D02*
X190617752Y-92634019D01*
X190617752Y-92634019D02*
X190665371Y-92729257D01*
X190665371Y-92729257D02*
X190665371Y-92824495D01*
X190665371Y-92824495D02*
X190617752Y-92919733D01*
X190617752Y-92919733D02*
X190570132Y-92967352D01*
X190570132Y-92967352D02*
X190474894Y-93014971D01*
X190474894Y-93014971D02*
X190284418Y-93062590D01*
X190284418Y-93062590D02*
X190046323Y-93062590D01*
X190046323Y-93062590D02*
X189855847Y-93014971D01*
X189855847Y-93014971D02*
X189760609Y-92967352D01*
X189760609Y-92967352D02*
X189712990Y-92919733D01*
X189712990Y-92919733D02*
X189665371Y-92824495D01*
X202318095Y-63644819D02*
X202318095Y-62644819D01*
X202318095Y-63121009D02*
X202889523Y-63121009D01*
X202889523Y-63644819D02*
X202889523Y-62644819D01*
X203318095Y-62740057D02*
X203365714Y-62692438D01*
X203365714Y-62692438D02*
X203460952Y-62644819D01*
X203460952Y-62644819D02*
X203699047Y-62644819D01*
X203699047Y-62644819D02*
X203794285Y-62692438D01*
X203794285Y-62692438D02*
X203841904Y-62740057D01*
X203841904Y-62740057D02*
X203889523Y-62835295D01*
X203889523Y-62835295D02*
X203889523Y-62930533D01*
X203889523Y-62930533D02*
X203841904Y-63073390D01*
X203841904Y-63073390D02*
X203270476Y-63644819D01*
X203270476Y-63644819D02*
X203889523Y-63644819D01*
X183393885Y-96107886D02*
X183060552Y-95631695D01*
X182822457Y-96107886D02*
X182822457Y-95107886D01*
X182822457Y-95107886D02*
X183203409Y-95107886D01*
X183203409Y-95107886D02*
X183298647Y-95155505D01*
X183298647Y-95155505D02*
X183346266Y-95203124D01*
X183346266Y-95203124D02*
X183393885Y-95298362D01*
X183393885Y-95298362D02*
X183393885Y-95441219D01*
X183393885Y-95441219D02*
X183346266Y-95536457D01*
X183346266Y-95536457D02*
X183298647Y-95584076D01*
X183298647Y-95584076D02*
X183203409Y-95631695D01*
X183203409Y-95631695D02*
X182822457Y-95631695D01*
X183965314Y-95536457D02*
X183870076Y-95488838D01*
X183870076Y-95488838D02*
X183822457Y-95441219D01*
X183822457Y-95441219D02*
X183774838Y-95345981D01*
X183774838Y-95345981D02*
X183774838Y-95298362D01*
X183774838Y-95298362D02*
X183822457Y-95203124D01*
X183822457Y-95203124D02*
X183870076Y-95155505D01*
X183870076Y-95155505D02*
X183965314Y-95107886D01*
X183965314Y-95107886D02*
X184155790Y-95107886D01*
X184155790Y-95107886D02*
X184251028Y-95155505D01*
X184251028Y-95155505D02*
X184298647Y-95203124D01*
X184298647Y-95203124D02*
X184346266Y-95298362D01*
X184346266Y-95298362D02*
X184346266Y-95345981D01*
X184346266Y-95345981D02*
X184298647Y-95441219D01*
X184298647Y-95441219D02*
X184251028Y-95488838D01*
X184251028Y-95488838D02*
X184155790Y-95536457D01*
X184155790Y-95536457D02*
X183965314Y-95536457D01*
X183965314Y-95536457D02*
X183870076Y-95584076D01*
X183870076Y-95584076D02*
X183822457Y-95631695D01*
X183822457Y-95631695D02*
X183774838Y-95726933D01*
X183774838Y-95726933D02*
X183774838Y-95917409D01*
X183774838Y-95917409D02*
X183822457Y-96012647D01*
X183822457Y-96012647D02*
X183870076Y-96060267D01*
X183870076Y-96060267D02*
X183965314Y-96107886D01*
X183965314Y-96107886D02*
X184155790Y-96107886D01*
X184155790Y-96107886D02*
X184251028Y-96060267D01*
X184251028Y-96060267D02*
X184298647Y-96012647D01*
X184298647Y-96012647D02*
X184346266Y-95917409D01*
X184346266Y-95917409D02*
X184346266Y-95726933D01*
X184346266Y-95726933D02*
X184298647Y-95631695D01*
X184298647Y-95631695D02*
X184251028Y-95584076D01*
X184251028Y-95584076D02*
X184155790Y-95536457D01*
X182614075Y-67055371D02*
X182280742Y-66579180D01*
X182042647Y-67055371D02*
X182042647Y-66055371D01*
X182042647Y-66055371D02*
X182423599Y-66055371D01*
X182423599Y-66055371D02*
X182518837Y-66102990D01*
X182518837Y-66102990D02*
X182566456Y-66150609D01*
X182566456Y-66150609D02*
X182614075Y-66245847D01*
X182614075Y-66245847D02*
X182614075Y-66388704D01*
X182614075Y-66388704D02*
X182566456Y-66483942D01*
X182566456Y-66483942D02*
X182518837Y-66531561D01*
X182518837Y-66531561D02*
X182423599Y-66579180D01*
X182423599Y-66579180D02*
X182042647Y-66579180D01*
X183566456Y-67055371D02*
X182995028Y-67055371D01*
X183280742Y-67055371D02*
X183280742Y-66055371D01*
X183280742Y-66055371D02*
X183185504Y-66198228D01*
X183185504Y-66198228D02*
X183090266Y-66293466D01*
X183090266Y-66293466D02*
X182995028Y-66341085D01*
X183947409Y-66150609D02*
X183995028Y-66102990D01*
X183995028Y-66102990D02*
X184090266Y-66055371D01*
X184090266Y-66055371D02*
X184328361Y-66055371D01*
X184328361Y-66055371D02*
X184423599Y-66102990D01*
X184423599Y-66102990D02*
X184471218Y-66150609D01*
X184471218Y-66150609D02*
X184518837Y-66245847D01*
X184518837Y-66245847D02*
X184518837Y-66341085D01*
X184518837Y-66341085D02*
X184471218Y-66483942D01*
X184471218Y-66483942D02*
X183899790Y-67055371D01*
X183899790Y-67055371D02*
X184518837Y-67055371D01*
X179384761Y-105164819D02*
X179051428Y-104688628D01*
X178813333Y-105164819D02*
X178813333Y-104164819D01*
X178813333Y-104164819D02*
X179194285Y-104164819D01*
X179194285Y-104164819D02*
X179289523Y-104212438D01*
X179289523Y-104212438D02*
X179337142Y-104260057D01*
X179337142Y-104260057D02*
X179384761Y-104355295D01*
X179384761Y-104355295D02*
X179384761Y-104498152D01*
X179384761Y-104498152D02*
X179337142Y-104593390D01*
X179337142Y-104593390D02*
X179289523Y-104641009D01*
X179289523Y-104641009D02*
X179194285Y-104688628D01*
X179194285Y-104688628D02*
X178813333Y-104688628D01*
X179670476Y-104164819D02*
X180003809Y-105164819D01*
X180003809Y-105164819D02*
X180337142Y-104164819D01*
X181194285Y-105164819D02*
X180622857Y-105164819D01*
X180908571Y-105164819D02*
X180908571Y-104164819D01*
X180908571Y-104164819D02*
X180813333Y-104307676D01*
X180813333Y-104307676D02*
X180718095Y-104402914D01*
X180718095Y-104402914D02*
X180622857Y-104450533D01*
X188465371Y-90039733D02*
X187989180Y-90373066D01*
X188465371Y-90611161D02*
X187465371Y-90611161D01*
X187465371Y-90611161D02*
X187465371Y-90230209D01*
X187465371Y-90230209D02*
X187512990Y-90134971D01*
X187512990Y-90134971D02*
X187560609Y-90087352D01*
X187560609Y-90087352D02*
X187655847Y-90039733D01*
X187655847Y-90039733D02*
X187798704Y-90039733D01*
X187798704Y-90039733D02*
X187893942Y-90087352D01*
X187893942Y-90087352D02*
X187941561Y-90134971D01*
X187941561Y-90134971D02*
X187989180Y-90230209D01*
X187989180Y-90230209D02*
X187989180Y-90611161D01*
X188465371Y-89563542D02*
X188465371Y-89373066D01*
X188465371Y-89373066D02*
X188417752Y-89277828D01*
X188417752Y-89277828D02*
X188370132Y-89230209D01*
X188370132Y-89230209D02*
X188227275Y-89134971D01*
X188227275Y-89134971D02*
X188036799Y-89087352D01*
X188036799Y-89087352D02*
X187655847Y-89087352D01*
X187655847Y-89087352D02*
X187560609Y-89134971D01*
X187560609Y-89134971D02*
X187512990Y-89182590D01*
X187512990Y-89182590D02*
X187465371Y-89277828D01*
X187465371Y-89277828D02*
X187465371Y-89468304D01*
X187465371Y-89468304D02*
X187512990Y-89563542D01*
X187512990Y-89563542D02*
X187560609Y-89611161D01*
X187560609Y-89611161D02*
X187655847Y-89658780D01*
X187655847Y-89658780D02*
X187893942Y-89658780D01*
X187893942Y-89658780D02*
X187989180Y-89611161D01*
X187989180Y-89611161D02*
X188036799Y-89563542D01*
X188036799Y-89563542D02*
X188084418Y-89468304D01*
X188084418Y-89468304D02*
X188084418Y-89277828D01*
X188084418Y-89277828D02*
X188036799Y-89182590D01*
X188036799Y-89182590D02*
X187989180Y-89134971D01*
X187989180Y-89134971D02*
X187893942Y-89087352D01*
X188605371Y-88151161D02*
X187605371Y-88151161D01*
X187605371Y-88151161D02*
X187605371Y-87913066D01*
X187605371Y-87913066D02*
X187652990Y-87770209D01*
X187652990Y-87770209D02*
X187748228Y-87674971D01*
X187748228Y-87674971D02*
X187843466Y-87627352D01*
X187843466Y-87627352D02*
X188033942Y-87579733D01*
X188033942Y-87579733D02*
X188176799Y-87579733D01*
X188176799Y-87579733D02*
X188367275Y-87627352D01*
X188367275Y-87627352D02*
X188462513Y-87674971D01*
X188462513Y-87674971D02*
X188557752Y-87770209D01*
X188557752Y-87770209D02*
X188605371Y-87913066D01*
X188605371Y-87913066D02*
X188605371Y-88151161D01*
X187605371Y-86674971D02*
X187605371Y-87151161D01*
X187605371Y-87151161D02*
X188081561Y-87198780D01*
X188081561Y-87198780D02*
X188033942Y-87151161D01*
X188033942Y-87151161D02*
X187986323Y-87055923D01*
X187986323Y-87055923D02*
X187986323Y-86817828D01*
X187986323Y-86817828D02*
X188033942Y-86722590D01*
X188033942Y-86722590D02*
X188081561Y-86674971D01*
X188081561Y-86674971D02*
X188176799Y-86627352D01*
X188176799Y-86627352D02*
X188414894Y-86627352D01*
X188414894Y-86627352D02*
X188510132Y-86674971D01*
X188510132Y-86674971D02*
X188557752Y-86722590D01*
X188557752Y-86722590D02*
X188605371Y-86817828D01*
X188605371Y-86817828D02*
X188605371Y-87055923D01*
X188605371Y-87055923D02*
X188557752Y-87151161D01*
X188557752Y-87151161D02*
X188510132Y-87198780D01*
X134858095Y-113714819D02*
X134858095Y-112714819D01*
X134858095Y-113191009D02*
X135429523Y-113191009D01*
X135429523Y-113714819D02*
X135429523Y-112714819D01*
X136334285Y-113048152D02*
X136334285Y-113714819D01*
X136096190Y-112667200D02*
X135858095Y-113381485D01*
X135858095Y-113381485D02*
X136477142Y-113381485D01*
X199484819Y-94538094D02*
X198484819Y-94538094D01*
X198484819Y-94538094D02*
X198484819Y-94299999D01*
X198484819Y-94299999D02*
X198532438Y-94157142D01*
X198532438Y-94157142D02*
X198627676Y-94061904D01*
X198627676Y-94061904D02*
X198722914Y-94014285D01*
X198722914Y-94014285D02*
X198913390Y-93966666D01*
X198913390Y-93966666D02*
X199056247Y-93966666D01*
X199056247Y-93966666D02*
X199246723Y-94014285D01*
X199246723Y-94014285D02*
X199341961Y-94061904D01*
X199341961Y-94061904D02*
X199437200Y-94157142D01*
X199437200Y-94157142D02*
X199484819Y-94299999D01*
X199484819Y-94299999D02*
X199484819Y-94538094D01*
X198484819Y-93109523D02*
X198484819Y-93299999D01*
X198484819Y-93299999D02*
X198532438Y-93395237D01*
X198532438Y-93395237D02*
X198580057Y-93442856D01*
X198580057Y-93442856D02*
X198722914Y-93538094D01*
X198722914Y-93538094D02*
X198913390Y-93585713D01*
X198913390Y-93585713D02*
X199294342Y-93585713D01*
X199294342Y-93585713D02*
X199389580Y-93538094D01*
X199389580Y-93538094D02*
X199437200Y-93490475D01*
X199437200Y-93490475D02*
X199484819Y-93395237D01*
X199484819Y-93395237D02*
X199484819Y-93204761D01*
X199484819Y-93204761D02*
X199437200Y-93109523D01*
X199437200Y-93109523D02*
X199389580Y-93061904D01*
X199389580Y-93061904D02*
X199294342Y-93014285D01*
X199294342Y-93014285D02*
X199056247Y-93014285D01*
X199056247Y-93014285D02*
X198961009Y-93061904D01*
X198961009Y-93061904D02*
X198913390Y-93109523D01*
X198913390Y-93109523D02*
X198865771Y-93204761D01*
X198865771Y-93204761D02*
X198865771Y-93395237D01*
X198865771Y-93395237D02*
X198913390Y-93490475D01*
X198913390Y-93490475D02*
X198961009Y-93538094D01*
X198961009Y-93538094D02*
X199056247Y-93585713D01*
X177267142Y-66714819D02*
X176933809Y-66238628D01*
X176695714Y-66714819D02*
X176695714Y-65714819D01*
X176695714Y-65714819D02*
X177076666Y-65714819D01*
X177076666Y-65714819D02*
X177171904Y-65762438D01*
X177171904Y-65762438D02*
X177219523Y-65810057D01*
X177219523Y-65810057D02*
X177267142Y-65905295D01*
X177267142Y-65905295D02*
X177267142Y-66048152D01*
X177267142Y-66048152D02*
X177219523Y-66143390D01*
X177219523Y-66143390D02*
X177171904Y-66191009D01*
X177171904Y-66191009D02*
X177076666Y-66238628D01*
X177076666Y-66238628D02*
X176695714Y-66238628D01*
X178219523Y-66714819D02*
X177648095Y-66714819D01*
X177933809Y-66714819D02*
X177933809Y-65714819D01*
X177933809Y-65714819D02*
X177838571Y-65857676D01*
X177838571Y-65857676D02*
X177743333Y-65952914D01*
X177743333Y-65952914D02*
X177648095Y-66000533D01*
X179171904Y-66714819D02*
X178600476Y-66714819D01*
X178886190Y-66714819D02*
X178886190Y-65714819D01*
X178886190Y-65714819D02*
X178790952Y-65857676D01*
X178790952Y-65857676D02*
X178695714Y-65952914D01*
X178695714Y-65952914D02*
X178600476Y-66000533D01*
X195689580Y-87694166D02*
X195737200Y-87741785D01*
X195737200Y-87741785D02*
X195784819Y-87884642D01*
X195784819Y-87884642D02*
X195784819Y-87979880D01*
X195784819Y-87979880D02*
X195737200Y-88122737D01*
X195737200Y-88122737D02*
X195641961Y-88217975D01*
X195641961Y-88217975D02*
X195546723Y-88265594D01*
X195546723Y-88265594D02*
X195356247Y-88313213D01*
X195356247Y-88313213D02*
X195213390Y-88313213D01*
X195213390Y-88313213D02*
X195022914Y-88265594D01*
X195022914Y-88265594D02*
X194927676Y-88217975D01*
X194927676Y-88217975D02*
X194832438Y-88122737D01*
X194832438Y-88122737D02*
X194784819Y-87979880D01*
X194784819Y-87979880D02*
X194784819Y-87884642D01*
X194784819Y-87884642D02*
X194832438Y-87741785D01*
X194832438Y-87741785D02*
X194880057Y-87694166D01*
X194784819Y-86789404D02*
X194784819Y-87265594D01*
X194784819Y-87265594D02*
X195261009Y-87313213D01*
X195261009Y-87313213D02*
X195213390Y-87265594D01*
X195213390Y-87265594D02*
X195165771Y-87170356D01*
X195165771Y-87170356D02*
X195165771Y-86932261D01*
X195165771Y-86932261D02*
X195213390Y-86837023D01*
X195213390Y-86837023D02*
X195261009Y-86789404D01*
X195261009Y-86789404D02*
X195356247Y-86741785D01*
X195356247Y-86741785D02*
X195594342Y-86741785D01*
X195594342Y-86741785D02*
X195689580Y-86789404D01*
X195689580Y-86789404D02*
X195737200Y-86837023D01*
X195737200Y-86837023D02*
X195784819Y-86932261D01*
X195784819Y-86932261D02*
X195784819Y-87170356D01*
X195784819Y-87170356D02*
X195737200Y-87265594D01*
X195737200Y-87265594D02*
X195689580Y-87313213D01*
X195874819Y-72082857D02*
X195398628Y-72416190D01*
X195874819Y-72654285D02*
X194874819Y-72654285D01*
X194874819Y-72654285D02*
X194874819Y-72273333D01*
X194874819Y-72273333D02*
X194922438Y-72178095D01*
X194922438Y-72178095D02*
X194970057Y-72130476D01*
X194970057Y-72130476D02*
X195065295Y-72082857D01*
X195065295Y-72082857D02*
X195208152Y-72082857D01*
X195208152Y-72082857D02*
X195303390Y-72130476D01*
X195303390Y-72130476D02*
X195351009Y-72178095D01*
X195351009Y-72178095D02*
X195398628Y-72273333D01*
X195398628Y-72273333D02*
X195398628Y-72654285D01*
X195874819Y-71130476D02*
X195874819Y-71701904D01*
X195874819Y-71416190D02*
X194874819Y-71416190D01*
X194874819Y-71416190D02*
X195017676Y-71511428D01*
X195017676Y-71511428D02*
X195112914Y-71606666D01*
X195112914Y-71606666D02*
X195160533Y-71701904D01*
X194874819Y-70797142D02*
X194874819Y-70130476D01*
X194874819Y-70130476D02*
X195874819Y-70559047D01*
X134858095Y-63644819D02*
X134858095Y-62644819D01*
X134858095Y-63121009D02*
X135429523Y-63121009D01*
X135429523Y-63644819D02*
X135429523Y-62644819D01*
X135810476Y-62644819D02*
X136429523Y-62644819D01*
X136429523Y-62644819D02*
X136096190Y-63025771D01*
X136096190Y-63025771D02*
X136239047Y-63025771D01*
X136239047Y-63025771D02*
X136334285Y-63073390D01*
X136334285Y-63073390D02*
X136381904Y-63121009D01*
X136381904Y-63121009D02*
X136429523Y-63216247D01*
X136429523Y-63216247D02*
X136429523Y-63454342D01*
X136429523Y-63454342D02*
X136381904Y-63549580D01*
X136381904Y-63549580D02*
X136334285Y-63597200D01*
X136334285Y-63597200D02*
X136239047Y-63644819D01*
X136239047Y-63644819D02*
X135953333Y-63644819D01*
X135953333Y-63644819D02*
X135858095Y-63597200D01*
X135858095Y-63597200D02*
X135810476Y-63549580D01*
X183204761Y-113434819D02*
X182871428Y-112958628D01*
X182633333Y-113434819D02*
X182633333Y-112434819D01*
X182633333Y-112434819D02*
X183014285Y-112434819D01*
X183014285Y-112434819D02*
X183109523Y-112482438D01*
X183109523Y-112482438D02*
X183157142Y-112530057D01*
X183157142Y-112530057D02*
X183204761Y-112625295D01*
X183204761Y-112625295D02*
X183204761Y-112768152D01*
X183204761Y-112768152D02*
X183157142Y-112863390D01*
X183157142Y-112863390D02*
X183109523Y-112911009D01*
X183109523Y-112911009D02*
X183014285Y-112958628D01*
X183014285Y-112958628D02*
X182633333Y-112958628D01*
X183490476Y-112434819D02*
X183823809Y-113434819D01*
X183823809Y-113434819D02*
X184157142Y-112434819D01*
X184442857Y-112530057D02*
X184490476Y-112482438D01*
X184490476Y-112482438D02*
X184585714Y-112434819D01*
X184585714Y-112434819D02*
X184823809Y-112434819D01*
X184823809Y-112434819D02*
X184919047Y-112482438D01*
X184919047Y-112482438D02*
X184966666Y-112530057D01*
X184966666Y-112530057D02*
X185014285Y-112625295D01*
X185014285Y-112625295D02*
X185014285Y-112720533D01*
X185014285Y-112720533D02*
X184966666Y-112863390D01*
X184966666Y-112863390D02*
X184395238Y-113434819D01*
X184395238Y-113434819D02*
X185014285Y-113434819D01*
D12*
X167970476Y-64773855D02*
X167970476Y-65421474D01*
X167970476Y-65421474D02*
X168008571Y-65497664D01*
X168008571Y-65497664D02*
X168046666Y-65535760D01*
X168046666Y-65535760D02*
X168122857Y-65573855D01*
X168122857Y-65573855D02*
X168275238Y-65573855D01*
X168275238Y-65573855D02*
X168351428Y-65535760D01*
X168351428Y-65535760D02*
X168389523Y-65497664D01*
X168389523Y-65497664D02*
X168427619Y-65421474D01*
X168427619Y-65421474D02*
X168427619Y-64773855D01*
X169227618Y-65573855D02*
X168770475Y-65573855D01*
X168999047Y-65573855D02*
X168999047Y-64773855D01*
X168999047Y-64773855D02*
X168922856Y-64888140D01*
X168922856Y-64888140D02*
X168846666Y-64964331D01*
X168846666Y-64964331D02*
X168770475Y-65002426D01*
%TO.C,TP4*%
X134080000Y-85860000D02*
X136980000Y-85860000D01*
X134080000Y-88760000D02*
X134080000Y-85860000D01*
X136980000Y-85860000D02*
X136980000Y-88760000D01*
X136980000Y-88760000D02*
X134080000Y-88760000D01*
%TO.C,C2*%
X201540000Y-94351252D02*
X201540000Y-92928748D01*
X203360000Y-94351252D02*
X203360000Y-92928748D01*
%TO.C,R13*%
X194540000Y-93082936D02*
X194540000Y-94537064D01*
X196360000Y-93082936D02*
X196360000Y-94537064D01*
%TO.C,J1*%
X153480000Y-102430000D02*
X155480000Y-102430000D01*
X153480000Y-103680000D02*
X153480000Y-102430000D01*
X153870000Y-102820000D02*
X153870000Y-110290000D01*
X153870000Y-110290000D02*
X162490000Y-110290000D01*
X154930000Y-103780000D02*
X157930000Y-103780000D01*
X154930000Y-105130000D02*
X155680000Y-105130000D01*
X154930000Y-109430000D02*
X154930000Y-105130000D01*
X155180000Y-104780000D02*
X154930000Y-103780000D01*
X155680000Y-104780000D02*
X155180000Y-104780000D01*
X155680000Y-105130000D02*
X155680000Y-104780000D01*
X155680000Y-109430000D02*
X154930000Y-109430000D01*
X157180000Y-104780000D02*
X157180000Y-105130000D01*
X157180000Y-105130000D02*
X157930000Y-105130000D01*
X157680000Y-104780000D02*
X157180000Y-104780000D01*
X157930000Y-103780000D02*
X157680000Y-104780000D01*
X157930000Y-105130000D02*
X157930000Y-109430000D01*
X157930000Y-109430000D02*
X157180000Y-109430000D01*
X158430000Y-103780000D02*
X161430000Y-103780000D01*
X158430000Y-105130000D02*
X159180000Y-105130000D01*
X158430000Y-109430000D02*
X158430000Y-105130000D01*
X158680000Y-104780000D02*
X158430000Y-103780000D01*
X159180000Y-104780000D02*
X158680000Y-104780000D01*
X159180000Y-105130000D02*
X159180000Y-104780000D01*
X159180000Y-109430000D02*
X158430000Y-109430000D01*
X160680000Y-104780000D02*
X160680000Y-105130000D01*
X160680000Y-105130000D02*
X161430000Y-105130000D01*
X161180000Y-104780000D02*
X160680000Y-104780000D01*
X161430000Y-103780000D02*
X161180000Y-104780000D01*
X161430000Y-105130000D02*
X161430000Y-109430000D01*
X161430000Y-109430000D02*
X160680000Y-109430000D01*
X162490000Y-102820000D02*
X153870000Y-102820000D01*
X162490000Y-110290000D02*
X162490000Y-102820000D01*
X155680000Y-109430000D02*
G75*
G02*
X157179647Y-109429844I750000J-1700000D01*
G01*
X159180000Y-109430000D02*
G75*
G02*
X160679647Y-109429844I750000J-1700000D01*
G01*
%TO.C,R10*%
X189300552Y-94480131D02*
X189300552Y-93026003D01*
X191120552Y-94480131D02*
X191120552Y-93026003D01*
%TO.C,R8*%
X184287616Y-92913067D02*
X182833488Y-92913067D01*
X184287616Y-94733067D02*
X182833488Y-94733067D01*
%TO.C,R12*%
X184337064Y-63480000D02*
X182882936Y-63480000D01*
X184337064Y-65300000D02*
X182882936Y-65300000D01*
%TO.C,RV1*%
X173130000Y-101980000D02*
X175819000Y-101980000D01*
X173130000Y-106260000D02*
X173130000Y-101980000D01*
X177261000Y-101980000D02*
X188519000Y-101980000D01*
X183439000Y-106260000D02*
X173130000Y-106260000D01*
X189961000Y-101980000D02*
X192650000Y-101980000D01*
X192650000Y-101980000D02*
X192650000Y-106260000D01*
X192650000Y-102510000D02*
X194170000Y-102510000D01*
X192650000Y-105730000D02*
X192650000Y-102510000D01*
X192650000Y-106260000D02*
X184881000Y-106260000D01*
X194170000Y-102510000D02*
X194170000Y-105730000D01*
X194170000Y-104120000D02*
X193410000Y-104120000D01*
X194170000Y-105730000D02*
X192650000Y-105730000D01*
%TO.C,R9*%
X185270552Y-89146003D02*
X185270552Y-90600131D01*
X187090552Y-89146003D02*
X187090552Y-90600131D01*
%TO.C,D5*%
X189040552Y-85663067D02*
X189040552Y-90073067D01*
X189040552Y-90073067D02*
X191260552Y-90073067D01*
X191260552Y-90073067D02*
X191260552Y-85663067D01*
%TO.C,J3*%
X197042500Y-81162500D02*
X197042500Y-79162500D01*
X197432500Y-72152500D02*
X197432500Y-80772500D01*
X197432500Y-80772500D02*
X204902500Y-80772500D01*
X198292500Y-81162500D02*
X197042500Y-81162500D01*
X198392500Y-73212500D02*
X199392500Y-73462500D01*
X198392500Y-76212500D02*
X198392500Y-73212500D01*
X198392500Y-76712500D02*
X199392500Y-76962500D01*
X198392500Y-79712500D02*
X198392500Y-76712500D01*
X199392500Y-73462500D02*
X199392500Y-73962500D01*
X199392500Y-73962500D02*
X199742500Y-73962500D01*
X199392500Y-75462500D02*
X199392500Y-75962500D01*
X199392500Y-75962500D02*
X198392500Y-76212500D01*
X199392500Y-76962500D02*
X199392500Y-77462500D01*
X199392500Y-77462500D02*
X199742500Y-77462500D01*
X199392500Y-78962500D02*
X199392500Y-79462500D01*
X199392500Y-79462500D02*
X198392500Y-79712500D01*
X199742500Y-73212500D02*
X204042500Y-73212500D01*
X199742500Y-73962500D02*
X199742500Y-73212500D01*
X199742500Y-75462500D02*
X199392500Y-75462500D01*
X199742500Y-76212500D02*
X199742500Y-75462500D01*
X199742500Y-76712500D02*
X204042500Y-76712500D01*
X199742500Y-77462500D02*
X199742500Y-76712500D01*
X199742500Y-78962500D02*
X199392500Y-78962500D01*
X199742500Y-79712500D02*
X199742500Y-78962500D01*
X204042500Y-73212500D02*
X204042500Y-73962500D01*
X204042500Y-75462500D02*
X204042500Y-76212500D01*
X204042500Y-76212500D02*
X199742500Y-76212500D01*
X204042500Y-76712500D02*
X204042500Y-77462500D01*
X204042500Y-78962500D02*
X204042500Y-79712500D01*
X204042500Y-79712500D02*
X199742500Y-79712500D01*
X204902500Y-72152500D02*
X197432500Y-72152500D01*
X204902500Y-80772500D02*
X204902500Y-72152500D01*
X204042500Y-75462500D02*
G75*
G02*
X204042344Y-73962853I1700000J750000D01*
G01*
X204042500Y-78962500D02*
G75*
G02*
X204042344Y-77462853I1700000J750000D01*
G01*
%TO.C,TP1*%
X134140000Y-90160000D02*
X137040000Y-90160000D01*
X134140000Y-93060000D02*
X134140000Y-90160000D01*
X137040000Y-90160000D02*
X137040000Y-93060000D01*
X137040000Y-93060000D02*
X134140000Y-93060000D01*
%TO.C,TP3*%
X134000000Y-79510000D02*
X136900000Y-79510000D01*
X134000000Y-82410000D02*
X134000000Y-79510000D01*
X136900000Y-79510000D02*
X136900000Y-82410000D01*
X136900000Y-82410000D02*
X134000000Y-82410000D01*
%TO.C,D6*%
X197920000Y-92050000D02*
X197920000Y-96460000D01*
X197920000Y-96460000D02*
X200140000Y-96460000D01*
X200140000Y-96460000D02*
X200140000Y-92050000D01*
%TO.C,R11*%
X178637064Y-63520000D02*
X177182936Y-63520000D01*
X178637064Y-65340000D02*
X177182936Y-65340000D01*
%TO.C,C5*%
X192570000Y-86816248D02*
X192570000Y-88238752D01*
X194390000Y-86816248D02*
X194390000Y-88238752D01*
%TO.C,R17*%
X194420000Y-76727064D02*
X194420000Y-75272936D01*
X196240000Y-76727064D02*
X196240000Y-75272936D01*
%TO.C,RV2*%
X173280000Y-107420000D02*
X175969000Y-107420000D01*
X173280000Y-111700000D02*
X173280000Y-107420000D01*
X177411000Y-107420000D02*
X188669000Y-107420000D01*
X183589000Y-111700000D02*
X173280000Y-111700000D01*
X190111000Y-107420000D02*
X192800000Y-107420000D01*
X192800000Y-107420000D02*
X192800000Y-111700000D01*
X192800000Y-107950000D02*
X194320000Y-107950000D01*
X192800000Y-111170000D02*
X192800000Y-107950000D01*
X192800000Y-111700000D02*
X185031000Y-111700000D01*
X194320000Y-107950000D02*
X194320000Y-111170000D01*
X194320000Y-109560000D02*
X193560000Y-109560000D01*
X194320000Y-111170000D02*
X192800000Y-111170000D01*
%TO.C,TP2*%
X133980000Y-75290000D02*
X136880000Y-75290000D01*
X133980000Y-78190000D02*
X133980000Y-75290000D01*
X136880000Y-75290000D02*
X136880000Y-78190000D01*
X136880000Y-78190000D02*
X133980000Y-78190000D01*
%TO.C,U1*%
X162480000Y-67560000D02*
X150580000Y-75560000D01*
X162480000Y-92260000D02*
X150480000Y-84160000D01*
X174880000Y-67660000D02*
X186680000Y-75660000D01*
X174880000Y-92160000D02*
X186680000Y-84160000D01*
X150503033Y-84207694D02*
G75*
G02*
X150580000Y-75560000I2976966J4297694D01*
G01*
X162480000Y-67560000D02*
G75*
G02*
X174985870Y-67715848I6100000J-12350000D01*
G01*
X174985870Y-92104152D02*
G75*
G02*
X162480000Y-92260000I-6405870J12194152D01*
G01*
X186680000Y-75660000D02*
G75*
G02*
X186527176Y-84263859I-3000000J-4250000D01*
G01*
%TO.C,C19*%
X139875450Y-91730000D02*
X141961415Y-89644035D01*
X145147329Y-97001879D02*
X139875450Y-91730000D01*
X145900000Y-85705450D02*
X143814035Y-87791415D01*
X146652671Y-97001879D02*
X145147329Y-97001879D01*
X146652671Y-97001879D02*
X147985965Y-95668585D01*
X151171879Y-90977329D02*
X145900000Y-85705450D01*
X151171879Y-92482671D02*
X149838585Y-93815965D01*
X151171879Y-92482671D02*
X151171879Y-90977329D01*
%TO.C,C20*%
X140681535Y-68623916D02*
X145953414Y-63352037D01*
X140681535Y-70129258D02*
X140681535Y-68623916D01*
X140681535Y-70129258D02*
X142014829Y-71462552D01*
X145200743Y-74648466D02*
X143867449Y-73315172D01*
X145200743Y-74648466D02*
X146706085Y-74648466D01*
X145953414Y-63352037D02*
X148039379Y-65438002D01*
X146706085Y-74648466D02*
X151977964Y-69376587D01*
X151977964Y-69376587D02*
X149891999Y-67290622D01*
%TD*%
M02*
