M48
; DRILL file {KiCad 9.0.5} date 2025-11-24T16:56:34+0100
; FORMAT={-:-/ absolute / metric / decimal}
; #@! TF.CreationDate,2025-11-24T16:56:34+01:00
; #@! TF.GenerationSoftware,Kicad,Pcbnew,9.0.5
; #@! TF.FileFunction,Plated,1,2,PTH
FMAT,2
METRIC
; #@! TA.AperFunction,Plated,PTH,ViaDrill
T1C0.400
; #@! TA.AperFunction,Plated,PTH,ComponentDrill
T2C1.000
; #@! TA.AperFunction,Plated,PTH,ComponentDrill
T3C1.200
; #@! TA.AperFunction,Plated,PTH,ComponentDrill
T4C1.300
; #@! TA.AperFunction,Plated,PTH,ComponentDrill
T5C3.200
; #@! TA.AperFunction,Plated,PTH,ComponentDrill
T6C4.000
%
G90
G05
T1
X162.351Y-98.909
X181.531Y-86.033
X182.0Y-93.69
X190.151Y-85.663
X192.17Y-75.94
X192.17Y-78.91
X193.48Y-85.965
X195.33Y-74.45
X199.03Y-95.55
X202.45Y-95.203
T2
X176.54Y-102.85
X176.69Y-108.29
X184.16Y-105.39
X184.31Y-110.83
X189.24Y-102.85
X189.39Y-108.29
T3
X135.43Y-76.74
X135.45Y-80.96
X135.53Y-87.31
X135.59Y-91.61
X156.43Y-107.18
X159.93Y-107.18
X201.792Y-74.712
X201.792Y-78.212
T4
X163.72Y-75.83
X163.72Y-83.99
X167.48Y-73.66
X167.48Y-86.16
X171.76Y-74.41
X171.76Y-85.41
X174.55Y-77.74
X174.55Y-82.08
T5
X135.62Y-66.94
X135.62Y-117.01
X203.08Y-66.94
X203.11Y-116.9
T6
X153.48Y-79.91
X183.68Y-79.91
M30
