%TF.GenerationSoftware,KiCad,Pcbnew,9.0.5*%
%TF.CreationDate,2025-11-27T11:00:23+01:00*%
%TF.ProjectId,Powersupply,506f7765-7273-4757-9070-6c792e6b6963,rev?*%
%TF.SameCoordinates,Original*%
%TF.FileFunction,Copper,L2,Bot*%
%TF.FilePolarity,Positive*%
%FSLAX46Y46*%
G04 Gerber Fmt 4.6, Leading zero omitted, Abs format (unit mm)*
G04 Created by KiCad (PCBNEW 9.0.5) date 2025-11-27 11:00:23*
%MOMM*%
%LPD*%
G01*
G04 APERTURE LIST*
G04 Aperture macros list*
%AMRoundRect*
0 Rectangle with rounded corners*
0 $1 Rounding radius*
0 $2 $3 $4 $5 $6 $7 $8 $9 X,Y pos of 4 corners*
0 Add a 4 corners polygon primitive as box body*
4,1,4,$2,$3,$4,$5,$6,$7,$8,$9,$2,$3,0*
0 Add four circle primitives for the rounded corners*
1,1,$1+$1,$2,$3*
1,1,$1+$1,$4,$5*
1,1,$1+$1,$6,$7*
1,1,$1+$1,$8,$9*
0 Add four rect primitives between the rounded corners*
20,1,$1+$1,$2,$3,$4,$5,0*
20,1,$1+$1,$4,$5,$6,$7,0*
20,1,$1+$1,$6,$7,$8,$9,0*
20,1,$1+$1,$8,$9,$2,$3,0*%
G04 Aperture macros list end*
%TA.AperFunction,ComponentPad*%
%ADD10C,5.600000*%
%TD*%
%TA.AperFunction,ComponentPad*%
%ADD11RoundRect,0.250000X1.750000X-1.750000X1.750000X1.750000X-1.750000X1.750000X-1.750000X-1.750000X0*%
%TD*%
%TA.AperFunction,ComponentPad*%
%ADD12C,4.000000*%
%TD*%
%TA.AperFunction,ComponentPad*%
%ADD13RoundRect,0.250000X1.800000X-1.330000X1.800000X1.330000X-1.800000X1.330000X-1.800000X-1.330000X0*%
%TD*%
%TA.AperFunction,ComponentPad*%
%ADD14O,4.100000X3.160000*%
%TD*%
%TA.AperFunction,ComponentPad*%
%ADD15R,1.905000X2.000000*%
%TD*%
%TA.AperFunction,ComponentPad*%
%ADD16O,1.905000X2.000000*%
%TD*%
%TA.AperFunction,ComponentPad*%
%ADD17RoundRect,0.250001X-0.949999X0.949999X-0.949999X-0.949999X0.949999X-0.949999X0.949999X0.949999X0*%
%TD*%
%TA.AperFunction,ComponentPad*%
%ADD18C,2.400000*%
%TD*%
%TA.AperFunction,ComponentPad*%
%ADD19C,6.000000*%
%TD*%
%TA.AperFunction,ViaPad*%
%ADD20C,0.600000*%
%TD*%
%TA.AperFunction,Conductor*%
%ADD21C,0.500000*%
%TD*%
G04 APERTURE END LIST*
D10*
%TO.P,H3,1,1*%
%TO.N,unconnected-(H3-Pad1)*%
X174540000Y-85870000D03*
%TD*%
D11*
%TO.P,C2,1*%
%TO.N,Net-(D2-A)*%
X114160000Y-102227935D03*
D12*
%TO.P,C2,2*%
%TO.N,GND*%
X114160000Y-92227935D03*
%TD*%
D13*
%TO.P,J2,1,Pin_1*%
%TO.N,Net-(D4-A)*%
X185535000Y-94770000D03*
D14*
%TO.P,J2,2,Pin_2*%
%TO.N,GND*%
X185535000Y-90810000D03*
%TD*%
D10*
%TO.P,H1,1,1*%
%TO.N,unconnected-(H1-Pad1)*%
X132730000Y-106990000D03*
%TD*%
D15*
%TO.P,U1,1,G*%
%TO.N,Net-(D4-K)*%
X143990000Y-88800000D03*
D16*
%TO.P,U1,2,D*%
%TO.N,Net-(D2-A)*%
X146530000Y-88800000D03*
%TO.P,U1,3,S*%
%TO.N,Net-(U1-S)*%
X149070000Y-88800000D03*
%TD*%
D17*
%TO.P,C1,1*%
%TO.N,Net-(D4-A)*%
X179810000Y-102000000D03*
D18*
%TO.P,C1,2*%
%TO.N,GND*%
X179810000Y-107000000D03*
%TD*%
D19*
%TO.P,HS1,1*%
%TO.N,N/C*%
X133930000Y-84550000D03*
X159330000Y-84550000D03*
%TD*%
D13*
%TO.P,J1,1,Pin_1*%
%TO.N,Net-(J1-Pin_1)*%
X90100000Y-107420000D03*
D14*
%TO.P,J1,2,Pin_2*%
%TO.N,Net-(J1-Pin_2)*%
X90100000Y-103460000D03*
%TD*%
D10*
%TO.P,H2,1,1*%
%TO.N,unconnected-(H2-Pad1)*%
X99020000Y-85870000D03*
%TD*%
D20*
%TO.N,GND*%
X158480000Y-103962500D03*
X157410000Y-110287500D03*
X161100000Y-110307500D03*
X153312500Y-94180000D03*
%TO.N,Net-(D4-K)*%
X138557500Y-100482500D03*
X154040000Y-98977500D03*
X160340000Y-98977500D03*
X144867500Y-100492500D03*
%TD*%
D21*
%TO.N,Net-(D4-K)*%
X144867500Y-100492500D02*
X152525000Y-100492500D01*
X138567500Y-100492500D02*
X144867500Y-100492500D01*
X154040000Y-98977500D02*
X160340000Y-98977500D01*
X138557500Y-100482500D02*
X138567500Y-100492500D01*
X152525000Y-100492500D02*
X154040000Y-98977500D01*
%TD*%
%TA.AperFunction,Conductor*%
%TO.N,GND*%
G36*
X130975373Y-82020185D02*
G01*
X131021128Y-82072989D01*
X131031072Y-82142147D01*
X131004187Y-82203165D01*
X130913941Y-82313129D01*
X130913931Y-82313143D01*
X130709213Y-82619525D01*
X130709202Y-82619543D01*
X130535502Y-82944513D01*
X130535500Y-82944518D01*
X130394480Y-83284969D01*
X130287507Y-83637613D01*
X130287504Y-83637624D01*
X130215618Y-83999024D01*
X130179500Y-84365753D01*
X130179500Y-84734246D01*
X130215618Y-85100975D01*
X130287504Y-85462375D01*
X130287507Y-85462386D01*
X130394480Y-85815030D01*
X130535500Y-86155481D01*
X130535502Y-86155486D01*
X130709202Y-86480456D01*
X130709213Y-86480474D01*
X130913931Y-86786856D01*
X130913941Y-86786870D01*
X131147715Y-87071724D01*
X131408275Y-87332284D01*
X131408280Y-87332288D01*
X131408281Y-87332289D01*
X131693135Y-87566063D01*
X131999532Y-87770791D01*
X131999541Y-87770796D01*
X131999543Y-87770797D01*
X132122521Y-87836530D01*
X132172365Y-87885492D01*
X132187826Y-87953630D01*
X132163994Y-88019309D01*
X132111522Y-88060449D01*
X132024113Y-88096655D01*
X132024109Y-88096657D01*
X131825382Y-88211392D01*
X131643338Y-88351081D01*
X131481081Y-88513338D01*
X131341392Y-88695382D01*
X131226657Y-88894109D01*
X131226650Y-88894123D01*
X131138842Y-89106112D01*
X131138842Y-89106113D01*
X131082000Y-89318255D01*
X131079453Y-89327759D01*
X131079451Y-89327770D01*
X131049500Y-89555258D01*
X131049500Y-89784741D01*
X131074257Y-89972780D01*
X131079452Y-90012238D01*
X131111175Y-90130630D01*
X131138842Y-90233887D01*
X131226650Y-90445876D01*
X131226657Y-90445890D01*
X131341392Y-90644617D01*
X131481081Y-90826661D01*
X131481089Y-90826670D01*
X131643330Y-90988911D01*
X131643338Y-90988918D01*
X131825382Y-91128607D01*
X131825385Y-91128608D01*
X131825388Y-91128611D01*
X132024112Y-91243344D01*
X132024117Y-91243346D01*
X132024123Y-91243349D01*
X132079687Y-91266364D01*
X132236113Y-91331158D01*
X132457762Y-91390548D01*
X132685266Y-91420500D01*
X132685273Y-91420500D01*
X132914727Y-91420500D01*
X132914734Y-91420500D01*
X133142238Y-91390548D01*
X133363887Y-91331158D01*
X133575888Y-91243344D01*
X133774612Y-91128611D01*
X133956661Y-90988919D01*
X133956665Y-90988914D01*
X133956670Y-90988911D01*
X134118911Y-90826670D01*
X134118914Y-90826665D01*
X134118919Y-90826661D01*
X134258611Y-90644612D01*
X134373344Y-90445888D01*
X134461158Y-90233887D01*
X134520548Y-90012238D01*
X134550500Y-89784734D01*
X134550500Y-89555266D01*
X134520548Y-89327762D01*
X134461158Y-89106113D01*
X134392558Y-88940499D01*
X134373349Y-88894123D01*
X134373346Y-88894117D01*
X134373344Y-88894112D01*
X134258611Y-88695388D01*
X134258608Y-88695385D01*
X134258607Y-88695382D01*
X134118918Y-88513338D01*
X134118911Y-88513330D01*
X134110131Y-88504550D01*
X134076646Y-88443227D01*
X134081630Y-88373535D01*
X134123502Y-88317602D01*
X134185655Y-88293467D01*
X134480976Y-88264381D01*
X134544916Y-88251662D01*
X134734256Y-88214001D01*
X134803848Y-88220228D01*
X134859025Y-88263091D01*
X134882269Y-88328981D01*
X134878222Y-88367710D01*
X134859452Y-88437762D01*
X134859451Y-88437770D01*
X134829500Y-88665258D01*
X134829500Y-88894741D01*
X134845480Y-89016112D01*
X134859452Y-89122238D01*
X134891761Y-89242818D01*
X134918842Y-89343887D01*
X135006650Y-89555876D01*
X135006657Y-89555890D01*
X135033473Y-89602337D01*
X135086814Y-89694727D01*
X135121392Y-89754617D01*
X135261081Y-89936661D01*
X135261089Y-89936670D01*
X135423330Y-90098911D01*
X135423338Y-90098918D01*
X135605382Y-90238607D01*
X135605385Y-90238608D01*
X135605388Y-90238611D01*
X135804112Y-90353344D01*
X135804117Y-90353346D01*
X135804123Y-90353349D01*
X135863996Y-90378149D01*
X136016113Y-90441158D01*
X136237762Y-90500548D01*
X136465266Y-90530500D01*
X136465273Y-90530500D01*
X136694727Y-90530500D01*
X136694734Y-90530500D01*
X136922238Y-90500548D01*
X137143887Y-90441158D01*
X137355888Y-90353344D01*
X137554612Y-90238611D01*
X137736661Y-90098919D01*
X137736665Y-90098914D01*
X137736670Y-90098911D01*
X137898911Y-89936670D01*
X137898914Y-89936665D01*
X137898919Y-89936661D01*
X138038611Y-89754612D01*
X138153344Y-89555888D01*
X138241158Y-89343887D01*
X138300548Y-89122238D01*
X138330500Y-88894734D01*
X138330500Y-88665266D01*
X138300548Y-88437762D01*
X138241158Y-88216113D01*
X138159639Y-88019309D01*
X138153349Y-88004123D01*
X138153346Y-88004117D01*
X138153344Y-88004112D01*
X138038611Y-87805388D01*
X138038607Y-87805383D01*
X138038605Y-87805379D01*
X137996098Y-87749983D01*
X142287000Y-87749983D01*
X142287000Y-89850001D01*
X142287001Y-89850018D01*
X142297500Y-89952796D01*
X142297501Y-89952799D01*
X142352685Y-90119331D01*
X142352687Y-90119336D01*
X142365414Y-90139970D01*
X142444788Y-90268656D01*
X142568844Y-90392712D01*
X142718166Y-90484814D01*
X142884703Y-90539999D01*
X142987491Y-90550500D01*
X144992508Y-90550499D01*
X145095297Y-90539999D01*
X145261834Y-90484814D01*
X145411156Y-90392712D01*
X145486344Y-90317524D01*
X145547667Y-90284039D01*
X145617359Y-90289023D01*
X145636023Y-90297817D01*
X145775166Y-90378151D01*
X145981414Y-90463582D01*
X146197048Y-90521361D01*
X146408428Y-90549190D01*
X146418363Y-90550498D01*
X146418379Y-90550500D01*
X146418386Y-90550500D01*
X146641614Y-90550500D01*
X146641621Y-90550500D01*
X146862952Y-90521361D01*
X147078586Y-90463582D01*
X147284834Y-90378151D01*
X147478166Y-90266531D01*
X147655275Y-90130630D01*
X147712320Y-90073584D01*
X147773641Y-90040101D01*
X147843333Y-90045085D01*
X147887679Y-90073584D01*
X147933426Y-90119331D01*
X147944727Y-90130632D01*
X148121834Y-90266531D01*
X148315162Y-90378149D01*
X148315163Y-90378149D01*
X148315166Y-90378151D01*
X148521414Y-90463582D01*
X148737048Y-90521361D01*
X148948428Y-90549190D01*
X148958363Y-90550498D01*
X148958379Y-90550500D01*
X148958386Y-90550500D01*
X149181614Y-90550500D01*
X149181621Y-90550500D01*
X149402952Y-90521361D01*
X149618586Y-90463582D01*
X149824834Y-90378151D01*
X150018166Y-90266531D01*
X150195275Y-90130630D01*
X150353130Y-89972775D01*
X150489031Y-89795666D01*
X150600651Y-89602334D01*
X150686082Y-89396086D01*
X150743861Y-89180452D01*
X150773000Y-88959121D01*
X150773000Y-88640879D01*
X150743861Y-88419548D01*
X150686082Y-88203914D01*
X150600651Y-87997666D01*
X150594831Y-87987586D01*
X150489031Y-87804334D01*
X150353131Y-87627226D01*
X150353125Y-87627219D01*
X150195280Y-87469374D01*
X150195273Y-87469368D01*
X150018165Y-87333468D01*
X149824837Y-87221850D01*
X149824827Y-87221846D01*
X149618584Y-87136417D01*
X149518508Y-87109602D01*
X149402952Y-87078639D01*
X149350390Y-87071719D01*
X149181628Y-87049500D01*
X149181621Y-87049500D01*
X148958379Y-87049500D01*
X148958371Y-87049500D01*
X148761640Y-87075401D01*
X148737048Y-87078639D01*
X148679270Y-87094120D01*
X148521415Y-87136417D01*
X148315172Y-87221846D01*
X148315162Y-87221850D01*
X148121834Y-87333468D01*
X147944726Y-87469368D01*
X147944719Y-87469374D01*
X147887681Y-87526413D01*
X147826358Y-87559898D01*
X147756666Y-87554914D01*
X147712319Y-87526413D01*
X147655280Y-87469374D01*
X147655273Y-87469368D01*
X147478165Y-87333468D01*
X147284837Y-87221850D01*
X147284827Y-87221846D01*
X147078584Y-87136417D01*
X146978508Y-87109602D01*
X146862952Y-87078639D01*
X146810390Y-87071719D01*
X146641628Y-87049500D01*
X146641621Y-87049500D01*
X146418379Y-87049500D01*
X146418371Y-87049500D01*
X146221640Y-87075401D01*
X146197048Y-87078639D01*
X146139270Y-87094120D01*
X145981415Y-87136417D01*
X145775172Y-87221846D01*
X145775155Y-87221854D01*
X145636024Y-87302181D01*
X145568124Y-87318654D01*
X145502097Y-87295801D01*
X145486344Y-87282476D01*
X145485257Y-87281389D01*
X145411156Y-87207288D01*
X145296255Y-87136417D01*
X145261836Y-87115187D01*
X145261831Y-87115185D01*
X145260362Y-87114698D01*
X145095297Y-87060001D01*
X145095295Y-87060000D01*
X144992510Y-87049500D01*
X142987498Y-87049500D01*
X142987481Y-87049501D01*
X142884703Y-87060000D01*
X142884700Y-87060001D01*
X142718168Y-87115185D01*
X142718163Y-87115187D01*
X142568842Y-87207289D01*
X142444789Y-87331342D01*
X142352687Y-87480663D01*
X142352686Y-87480666D01*
X142297501Y-87647203D01*
X142297501Y-87647204D01*
X142297500Y-87647204D01*
X142287000Y-87749983D01*
X137996098Y-87749983D01*
X137917231Y-87647203D01*
X137898919Y-87623339D01*
X137898918Y-87623338D01*
X137898911Y-87623330D01*
X137736670Y-87461089D01*
X137736661Y-87461081D01*
X137554617Y-87321392D01*
X137355890Y-87206657D01*
X137355876Y-87206650D01*
X137143887Y-87118842D01*
X137130239Y-87115185D01*
X136944151Y-87065323D01*
X136884491Y-87028959D01*
X136853962Y-86966112D01*
X136862257Y-86896737D01*
X136880390Y-86866886D01*
X136946063Y-86786865D01*
X137150791Y-86480468D01*
X137324501Y-86155479D01*
X137465520Y-85815029D01*
X137572490Y-85462396D01*
X137572492Y-85462386D01*
X137572495Y-85462375D01*
X137644381Y-85100975D01*
X137680500Y-84734246D01*
X137680500Y-84365753D01*
X137678961Y-84350132D01*
X137644381Y-83999024D01*
X137595332Y-83752436D01*
X137572495Y-83637624D01*
X137572492Y-83637613D01*
X137572491Y-83637610D01*
X137572490Y-83637604D01*
X137465520Y-83284971D01*
X137324501Y-82944521D01*
X137258457Y-82820962D01*
X137150797Y-82619543D01*
X137150796Y-82619541D01*
X137150791Y-82619532D01*
X136946063Y-82313135D01*
X136855813Y-82203165D01*
X136828500Y-82138855D01*
X136840291Y-82069987D01*
X136887443Y-82018427D01*
X136951666Y-82000500D01*
X156308334Y-82000500D01*
X156375373Y-82020185D01*
X156421128Y-82072989D01*
X156431072Y-82142147D01*
X156404187Y-82203165D01*
X156313941Y-82313129D01*
X156313931Y-82313143D01*
X156109213Y-82619525D01*
X156109202Y-82619543D01*
X155935502Y-82944513D01*
X155935500Y-82944518D01*
X155794480Y-83284969D01*
X155687507Y-83637613D01*
X155687504Y-83637624D01*
X155615618Y-83999024D01*
X155579500Y-84365753D01*
X155579500Y-84734246D01*
X155615618Y-85100975D01*
X155687504Y-85462375D01*
X155687507Y-85462386D01*
X155794480Y-85815030D01*
X155935500Y-86155481D01*
X155935502Y-86155486D01*
X156109202Y-86480456D01*
X156109213Y-86480474D01*
X156313931Y-86786856D01*
X156313941Y-86786870D01*
X156368920Y-86853862D01*
X156396233Y-86918172D01*
X156384442Y-86987040D01*
X156337290Y-87038600D01*
X156305161Y-87052302D01*
X156256563Y-87065324D01*
X156206113Y-87078842D01*
X156206111Y-87078842D01*
X156206110Y-87078843D01*
X155994123Y-87166650D01*
X155994109Y-87166657D01*
X155795382Y-87281392D01*
X155613338Y-87421081D01*
X155451081Y-87583338D01*
X155311392Y-87765382D01*
X155196657Y-87964109D01*
X155196650Y-87964123D01*
X155108842Y-88176112D01*
X155049453Y-88397759D01*
X155049451Y-88397770D01*
X155019500Y-88625258D01*
X155019500Y-88854741D01*
X155033242Y-88959114D01*
X155049452Y-89082238D01*
X155100229Y-89271742D01*
X155108842Y-89303887D01*
X155196650Y-89515876D01*
X155196656Y-89515888D01*
X155299912Y-89694734D01*
X155311392Y-89714617D01*
X155451081Y-89896661D01*
X155451089Y-89896670D01*
X155613330Y-90058911D01*
X155613338Y-90058918D01*
X155795382Y-90198607D01*
X155795385Y-90198608D01*
X155795388Y-90198611D01*
X155994112Y-90313344D01*
X155994117Y-90313346D01*
X155994123Y-90313349D01*
X156085480Y-90351190D01*
X156206113Y-90401158D01*
X156427762Y-90460548D01*
X156655266Y-90490500D01*
X156655273Y-90490500D01*
X156884727Y-90490500D01*
X156884734Y-90490500D01*
X157112238Y-90460548D01*
X157333887Y-90401158D01*
X157545888Y-90313344D01*
X157744612Y-90198611D01*
X157926661Y-90058919D01*
X157926665Y-90058914D01*
X157926670Y-90058911D01*
X158088911Y-89896670D01*
X158088914Y-89896665D01*
X158088919Y-89896661D01*
X158228611Y-89714612D01*
X158343344Y-89515888D01*
X158421939Y-89326143D01*
X158465777Y-89271742D01*
X158532071Y-89249677D01*
X158599771Y-89266956D01*
X158647382Y-89318093D01*
X158659788Y-89386852D01*
X158659437Y-89389783D01*
X158649501Y-89465255D01*
X158649500Y-89465272D01*
X158649500Y-89694741D01*
X158669944Y-89850018D01*
X158679452Y-89922238D01*
X158735290Y-90130630D01*
X158738842Y-90143887D01*
X158826650Y-90355876D01*
X158826657Y-90355890D01*
X158941392Y-90554617D01*
X159081081Y-90736661D01*
X159081089Y-90736670D01*
X159243330Y-90898911D01*
X159243338Y-90898918D01*
X159425382Y-91038607D01*
X159425385Y-91038608D01*
X159425388Y-91038611D01*
X159624112Y-91153344D01*
X159624117Y-91153346D01*
X159624123Y-91153349D01*
X159715480Y-91191190D01*
X159836113Y-91241158D01*
X160057762Y-91300548D01*
X160285266Y-91330500D01*
X160285273Y-91330500D01*
X160514727Y-91330500D01*
X160514734Y-91330500D01*
X160742238Y-91300548D01*
X160963887Y-91241158D01*
X161175888Y-91153344D01*
X161374612Y-91038611D01*
X161556661Y-90898919D01*
X161556665Y-90898914D01*
X161556670Y-90898911D01*
X161718911Y-90736670D01*
X161718914Y-90736665D01*
X161718919Y-90736661D01*
X161858611Y-90554612D01*
X161973344Y-90355888D01*
X162061158Y-90143887D01*
X162120548Y-89922238D01*
X162150500Y-89694734D01*
X162150500Y-89465266D01*
X162120548Y-89237762D01*
X162061158Y-89016113D01*
X161994315Y-88854741D01*
X161973349Y-88804123D01*
X161973346Y-88804117D01*
X161973344Y-88804112D01*
X161858611Y-88605388D01*
X161858608Y-88605385D01*
X161858607Y-88605382D01*
X161718918Y-88423338D01*
X161718911Y-88423330D01*
X161556670Y-88261089D01*
X161556661Y-88261081D01*
X161374617Y-88121392D01*
X161197646Y-88019218D01*
X161149430Y-87968651D01*
X161136207Y-87900044D01*
X161162175Y-87835179D01*
X161201192Y-87802474D01*
X161260468Y-87770791D01*
X161566865Y-87566063D01*
X161851719Y-87332289D01*
X162112289Y-87071719D01*
X162346063Y-86786865D01*
X162550791Y-86480468D01*
X162724501Y-86155479D01*
X162865520Y-85815029D01*
X162901755Y-85695578D01*
X170989500Y-85695578D01*
X170989500Y-86044421D01*
X171023692Y-86391594D01*
X171091744Y-86733721D01*
X171091747Y-86733732D01*
X171193016Y-87067571D01*
X171326516Y-87389867D01*
X171326518Y-87389872D01*
X171490955Y-87697511D01*
X171490972Y-87697539D01*
X171684759Y-87987563D01*
X171684776Y-87987586D01*
X171906084Y-88257251D01*
X172152748Y-88503915D01*
X172152753Y-88503919D01*
X172152754Y-88503920D01*
X172422419Y-88725228D01*
X172422426Y-88725233D01*
X172422436Y-88725240D01*
X172712460Y-88919027D01*
X172712465Y-88919030D01*
X172712477Y-88919038D01*
X172712486Y-88919042D01*
X172712488Y-88919044D01*
X173020127Y-89083481D01*
X173020129Y-89083481D01*
X173020135Y-89083485D01*
X173342430Y-89216984D01*
X173676258Y-89318250D01*
X173676264Y-89318251D01*
X173676267Y-89318252D01*
X173676278Y-89318255D01*
X174018405Y-89386307D01*
X174365575Y-89420500D01*
X174365578Y-89420500D01*
X174714422Y-89420500D01*
X174714425Y-89420500D01*
X175061595Y-89386307D01*
X175128197Y-89373059D01*
X175403721Y-89318255D01*
X175403732Y-89318252D01*
X175403732Y-89318251D01*
X175403742Y-89318250D01*
X175737570Y-89216984D01*
X176059865Y-89083485D01*
X176367523Y-88919038D01*
X176657581Y-88725228D01*
X176927246Y-88503920D01*
X177173920Y-88257246D01*
X177395228Y-87987581D01*
X177589038Y-87697523D01*
X177753485Y-87389865D01*
X177886984Y-87067570D01*
X177988250Y-86733742D01*
X177988252Y-86733732D01*
X177988255Y-86733721D01*
X178056307Y-86391594D01*
X178090500Y-86044425D01*
X178090500Y-85695575D01*
X178056307Y-85348405D01*
X178007091Y-85100976D01*
X177988255Y-85006278D01*
X177988252Y-85006267D01*
X177988251Y-85006264D01*
X177988250Y-85006258D01*
X177886984Y-84672430D01*
X177753485Y-84350135D01*
X177589038Y-84042477D01*
X177560004Y-83999024D01*
X177395240Y-83752436D01*
X177395233Y-83752426D01*
X177395228Y-83752419D01*
X177173920Y-83482754D01*
X177173919Y-83482753D01*
X177173915Y-83482748D01*
X176927251Y-83236084D01*
X176657586Y-83014776D01*
X176657563Y-83014759D01*
X176367539Y-82820972D01*
X176367511Y-82820955D01*
X176059872Y-82656518D01*
X176059867Y-82656516D01*
X175737571Y-82523016D01*
X175403732Y-82421747D01*
X175403721Y-82421744D01*
X175061594Y-82353692D01*
X174800120Y-82327940D01*
X174714425Y-82319500D01*
X174365575Y-82319500D01*
X174286394Y-82327298D01*
X174018405Y-82353692D01*
X173676278Y-82421744D01*
X173676267Y-82421747D01*
X173342428Y-82523016D01*
X173020132Y-82656516D01*
X173020127Y-82656518D01*
X172712488Y-82820955D01*
X172712460Y-82820972D01*
X172422436Y-83014759D01*
X172422413Y-83014776D01*
X172152748Y-83236084D01*
X171906084Y-83482748D01*
X171684776Y-83752413D01*
X171684759Y-83752436D01*
X171490972Y-84042460D01*
X171490955Y-84042488D01*
X171326518Y-84350127D01*
X171326516Y-84350132D01*
X171193016Y-84672428D01*
X171091747Y-85006267D01*
X171091744Y-85006278D01*
X171023692Y-85348405D01*
X170989500Y-85695578D01*
X162901755Y-85695578D01*
X162972490Y-85462396D01*
X162972492Y-85462386D01*
X162972495Y-85462375D01*
X163044381Y-85100975D01*
X163080500Y-84734246D01*
X163080500Y-84365753D01*
X163078961Y-84350132D01*
X163044381Y-83999024D01*
X162995332Y-83752436D01*
X162972495Y-83637624D01*
X162972492Y-83637613D01*
X162972491Y-83637610D01*
X162972490Y-83637604D01*
X162865520Y-83284971D01*
X162724501Y-82944521D01*
X162658457Y-82820962D01*
X162550797Y-82619543D01*
X162550796Y-82619541D01*
X162550791Y-82619532D01*
X162346063Y-82313135D01*
X162255813Y-82203165D01*
X162228500Y-82138855D01*
X162240291Y-82069987D01*
X162287443Y-82018427D01*
X162351666Y-82000500D01*
X191405500Y-82000500D01*
X191472539Y-82020185D01*
X191518294Y-82072989D01*
X191529500Y-82124500D01*
X191529500Y-112055500D01*
X191509815Y-112122539D01*
X191457011Y-112168294D01*
X191405500Y-112179500D01*
X82654500Y-112179500D01*
X82587461Y-112159815D01*
X82541706Y-112107011D01*
X82530500Y-112055500D01*
X82530500Y-103307243D01*
X87299500Y-103307243D01*
X87299500Y-103612756D01*
X87339375Y-103915630D01*
X87418445Y-104210722D01*
X87535349Y-104492955D01*
X87535357Y-104492972D01*
X87627202Y-104652050D01*
X87688103Y-104757534D01*
X87688105Y-104757537D01*
X87688106Y-104757538D01*
X87874076Y-104999900D01*
X87874082Y-104999907D01*
X87875410Y-105001235D01*
X87875679Y-105001728D01*
X87876755Y-105002955D01*
X87876480Y-105003195D01*
X87908895Y-105062558D01*
X87903911Y-105132250D01*
X87862039Y-105188183D01*
X87845141Y-105198824D01*
X87746595Y-105250300D01*
X87746593Y-105250302D01*
X87588890Y-105378890D01*
X87460304Y-105536590D01*
X87366089Y-105716954D01*
X87310114Y-105912583D01*
X87310113Y-105912586D01*
X87299500Y-106031966D01*
X87299500Y-108808028D01*
X87299501Y-108808034D01*
X87310113Y-108927415D01*
X87366089Y-109123045D01*
X87366090Y-109123048D01*
X87366091Y-109123049D01*
X87460302Y-109303407D01*
X87460304Y-109303409D01*
X87588890Y-109461109D01*
X87682803Y-109537684D01*
X87746593Y-109589698D01*
X87926951Y-109683909D01*
X88122582Y-109739886D01*
X88241963Y-109750500D01*
X91958036Y-109750499D01*
X92077418Y-109739886D01*
X92273049Y-109683909D01*
X92453407Y-109589698D01*
X92611109Y-109461109D01*
X92739698Y-109303407D01*
X92833909Y-109123049D01*
X92889886Y-108927418D01*
X92900500Y-108808037D01*
X92900499Y-106815578D01*
X129179500Y-106815578D01*
X129179500Y-107164421D01*
X129213692Y-107511594D01*
X129281744Y-107853721D01*
X129281747Y-107853732D01*
X129383016Y-108187571D01*
X129516516Y-108509867D01*
X129516518Y-108509872D01*
X129680955Y-108817511D01*
X129680972Y-108817539D01*
X129874759Y-109107563D01*
X129874776Y-109107586D01*
X130096084Y-109377251D01*
X130342748Y-109623915D01*
X130342753Y-109623919D01*
X130342754Y-109623920D01*
X130612419Y-109845228D01*
X130612426Y-109845233D01*
X130612436Y-109845240D01*
X130902460Y-110039027D01*
X130902465Y-110039030D01*
X130902477Y-110039038D01*
X130902486Y-110039042D01*
X130902488Y-110039044D01*
X131210127Y-110203481D01*
X131210129Y-110203481D01*
X131210135Y-110203485D01*
X131532430Y-110336984D01*
X131866258Y-110438250D01*
X131866264Y-110438251D01*
X131866267Y-110438252D01*
X131866278Y-110438255D01*
X132208405Y-110506307D01*
X132555575Y-110540500D01*
X132555578Y-110540500D01*
X132904422Y-110540500D01*
X132904425Y-110540500D01*
X133251595Y-110506307D01*
X133318197Y-110493059D01*
X133593721Y-110438255D01*
X133593732Y-110438252D01*
X133593732Y-110438251D01*
X133593742Y-110438250D01*
X133927570Y-110336984D01*
X134249865Y-110203485D01*
X134557523Y-110039038D01*
X134847581Y-109845228D01*
X135117246Y-109623920D01*
X135363920Y-109377246D01*
X135585228Y-109107581D01*
X135779038Y-108817523D01*
X135943485Y-108509865D01*
X136076984Y-108187570D01*
X136178250Y-107853742D01*
X136178252Y-107853732D01*
X136178255Y-107853721D01*
X136233059Y-107578197D01*
X136246307Y-107511595D01*
X136280500Y-107164425D01*
X136280500Y-106888575D01*
X178110000Y-106888575D01*
X178110000Y-107111424D01*
X178139085Y-107332354D01*
X178139088Y-107332367D01*
X178196763Y-107547618D01*
X178282045Y-107753502D01*
X178282054Y-107753520D01*
X178393464Y-107946491D01*
X178393473Y-107946504D01*
X178444040Y-108012403D01*
X178444043Y-108012403D01*
X179245387Y-107211058D01*
X179250889Y-107231591D01*
X179329881Y-107368408D01*
X179441592Y-107480119D01*
X179578409Y-107559111D01*
X179598940Y-107564612D01*
X178797595Y-108365955D01*
X178797595Y-108365956D01*
X178863507Y-108416533D01*
X179056485Y-108527949D01*
X179056497Y-108527954D01*
X179262381Y-108613236D01*
X179477632Y-108670911D01*
X179477645Y-108670914D01*
X179698575Y-108700000D01*
X179921425Y-108700000D01*
X180142354Y-108670914D01*
X180142367Y-108670911D01*
X180357618Y-108613236D01*
X180563502Y-108527954D01*
X180563514Y-108527949D01*
X180756498Y-108416530D01*
X180822403Y-108365957D01*
X180822404Y-108365956D01*
X180021059Y-107564612D01*
X180041591Y-107559111D01*
X180178408Y-107480119D01*
X180290119Y-107368408D01*
X180369111Y-107231591D01*
X180374612Y-107211059D01*
X181175956Y-108012404D01*
X181175957Y-108012403D01*
X181226530Y-107946498D01*
X181337949Y-107753514D01*
X181337954Y-107753502D01*
X181423236Y-107547618D01*
X181480911Y-107332367D01*
X181480914Y-107332354D01*
X181510000Y-107111424D01*
X181510000Y-106888575D01*
X181480914Y-106667645D01*
X181480911Y-106667632D01*
X181423236Y-106452381D01*
X181337954Y-106246497D01*
X181337949Y-106246485D01*
X181226533Y-106053507D01*
X181175956Y-105987595D01*
X181175955Y-105987595D01*
X180374612Y-106788939D01*
X180369111Y-106768409D01*
X180290119Y-106631592D01*
X180178408Y-106519881D01*
X180041591Y-106440889D01*
X180021058Y-106435387D01*
X180822403Y-105634043D01*
X180822403Y-105634040D01*
X180756504Y-105583473D01*
X180756491Y-105583464D01*
X180563520Y-105472054D01*
X180563502Y-105472045D01*
X180357618Y-105386763D01*
X180142367Y-105329088D01*
X180142354Y-105329085D01*
X179921425Y-105300000D01*
X179698575Y-105300000D01*
X179477645Y-105329085D01*
X179477632Y-105329088D01*
X179262381Y-105386763D01*
X179056497Y-105472045D01*
X179056479Y-105472054D01*
X178863511Y-105583462D01*
X178797595Y-105634042D01*
X179598941Y-106435387D01*
X179578409Y-106440889D01*
X179441592Y-106519881D01*
X179329881Y-106631592D01*
X179250889Y-106768409D01*
X179245387Y-106788940D01*
X178444042Y-105987595D01*
X178393462Y-106053511D01*
X178282054Y-106246479D01*
X178282045Y-106246497D01*
X178196763Y-106452381D01*
X178139088Y-106667632D01*
X178139085Y-106667645D01*
X178110000Y-106888575D01*
X136280500Y-106888575D01*
X136280500Y-106815575D01*
X136246307Y-106468405D01*
X136240834Y-106440889D01*
X136178255Y-106126278D01*
X136178252Y-106126267D01*
X136178251Y-106126264D01*
X136178250Y-106126258D01*
X136076984Y-105792430D01*
X135943485Y-105470135D01*
X135894713Y-105378890D01*
X135779044Y-105162488D01*
X135779042Y-105162486D01*
X135779038Y-105162477D01*
X135770927Y-105150338D01*
X135585240Y-104872436D01*
X135585233Y-104872426D01*
X135585228Y-104872419D01*
X135363920Y-104602754D01*
X135363919Y-104602753D01*
X135363915Y-104602748D01*
X135117251Y-104356084D01*
X134847586Y-104134776D01*
X134847563Y-104134759D01*
X134557539Y-103940972D01*
X134557511Y-103940955D01*
X134249872Y-103776518D01*
X134249867Y-103776516D01*
X133927571Y-103643016D01*
X133593732Y-103541747D01*
X133593721Y-103541744D01*
X133251594Y-103473692D01*
X132990120Y-103447940D01*
X132904425Y-103439500D01*
X132555575Y-103439500D01*
X132476394Y-103447298D01*
X132208405Y-103473692D01*
X131866278Y-103541744D01*
X131866267Y-103541747D01*
X131532428Y-103643016D01*
X131210132Y-103776516D01*
X131210127Y-103776518D01*
X130902488Y-103940955D01*
X130902460Y-103940972D01*
X130612436Y-104134759D01*
X130612413Y-104134776D01*
X130342748Y-104356084D01*
X130096084Y-104602748D01*
X129874776Y-104872413D01*
X129874759Y-104872436D01*
X129680972Y-105162460D01*
X129680955Y-105162488D01*
X129516518Y-105470127D01*
X129516516Y-105470132D01*
X129383016Y-105792428D01*
X129281747Y-106126267D01*
X129281744Y-106126278D01*
X129213692Y-106468405D01*
X129187298Y-106736394D01*
X129184146Y-106768409D01*
X129179500Y-106815578D01*
X92900499Y-106815578D01*
X92900499Y-106031964D01*
X92889886Y-105912582D01*
X92833909Y-105716951D01*
X92739698Y-105536593D01*
X92685502Y-105470127D01*
X92611109Y-105378890D01*
X92453407Y-105250302D01*
X92453403Y-105250300D01*
X92354856Y-105198823D01*
X92304550Y-105150338D01*
X92288443Y-105082351D01*
X92311649Y-105016447D01*
X92324589Y-105001235D01*
X92325922Y-104999902D01*
X92511897Y-104757534D01*
X92664646Y-104492965D01*
X92781555Y-104210722D01*
X92860624Y-103915633D01*
X92900500Y-103612749D01*
X92900500Y-103307251D01*
X92860624Y-103004367D01*
X92781555Y-102709278D01*
X92664646Y-102427035D01*
X92664644Y-102427032D01*
X92664642Y-102427027D01*
X92610070Y-102332506D01*
X92511897Y-102162466D01*
X92325922Y-101920098D01*
X92325917Y-101920092D01*
X92109907Y-101704082D01*
X92109900Y-101704076D01*
X91867538Y-101518106D01*
X91867537Y-101518105D01*
X91867534Y-101518103D01*
X91714241Y-101429599D01*
X91602972Y-101365357D01*
X91602955Y-101365349D01*
X91320722Y-101248445D01*
X91025630Y-101169375D01*
X90722756Y-101129500D01*
X90722749Y-101129500D01*
X89477251Y-101129500D01*
X89477243Y-101129500D01*
X89174369Y-101169375D01*
X88879277Y-101248445D01*
X88597044Y-101365349D01*
X88597027Y-101365357D01*
X88332461Y-101518106D01*
X88090099Y-101704076D01*
X88090092Y-101704082D01*
X87874082Y-101920092D01*
X87874076Y-101920099D01*
X87688106Y-102162461D01*
X87535357Y-102427027D01*
X87535349Y-102427044D01*
X87418445Y-102709277D01*
X87339375Y-103004369D01*
X87299500Y-103307243D01*
X82530500Y-103307243D01*
X82530500Y-100419901D01*
X111409500Y-100419901D01*
X111409500Y-104035963D01*
X111409501Y-104035969D01*
X111420113Y-104155350D01*
X111476089Y-104350980D01*
X111476090Y-104350983D01*
X111476091Y-104350984D01*
X111570302Y-104531342D01*
X111570304Y-104531344D01*
X111698890Y-104689044D01*
X111782887Y-104757534D01*
X111856593Y-104817633D01*
X112036951Y-104911844D01*
X112232582Y-104967821D01*
X112351963Y-104978435D01*
X115968036Y-104978434D01*
X116087418Y-104967821D01*
X116283049Y-104911844D01*
X116463407Y-104817633D01*
X116621109Y-104689044D01*
X116749698Y-104531342D01*
X116843909Y-104350984D01*
X116899886Y-104155353D01*
X116910500Y-104035972D01*
X116910499Y-100419899D01*
X116906866Y-100379030D01*
X137507000Y-100379030D01*
X137507000Y-100585969D01*
X137547368Y-100788912D01*
X137547370Y-100788920D01*
X137626558Y-100980096D01*
X137741524Y-101152157D01*
X137887842Y-101298475D01*
X137887845Y-101298477D01*
X138059902Y-101413441D01*
X138251080Y-101492630D01*
X138454030Y-101532999D01*
X138454034Y-101533000D01*
X138454035Y-101533000D01*
X138660966Y-101533000D01*
X138660966Y-101532999D01*
X138850080Y-101495383D01*
X138874271Y-101493000D01*
X144513166Y-101493000D01*
X144555107Y-101501342D01*
X144555253Y-101500862D01*
X144560128Y-101502340D01*
X144560616Y-101502438D01*
X144561080Y-101502630D01*
X144764030Y-101542999D01*
X144764034Y-101543000D01*
X144764035Y-101543000D01*
X144970966Y-101543000D01*
X144970967Y-101542999D01*
X145173920Y-101502630D01*
X145174384Y-101502438D01*
X145174871Y-101502340D01*
X145179747Y-101500862D01*
X145179892Y-101501342D01*
X145221834Y-101493000D01*
X152623542Y-101493000D01*
X152654566Y-101486828D01*
X152720188Y-101473775D01*
X152816836Y-101454551D01*
X152870165Y-101432461D01*
X152998914Y-101379132D01*
X153162782Y-101269639D01*
X153302139Y-101130282D01*
X153302139Y-101130280D01*
X153312347Y-101120073D01*
X153312348Y-101120070D01*
X153440451Y-100991967D01*
X177859500Y-100991967D01*
X177859500Y-103008032D01*
X177870113Y-103127412D01*
X177870113Y-103127414D01*
X177870114Y-103127417D01*
X177892550Y-103205828D01*
X177926089Y-103323045D01*
X178020302Y-103503407D01*
X178148890Y-103661109D01*
X178277479Y-103765958D01*
X178306593Y-103789698D01*
X178486951Y-103883909D01*
X178682583Y-103939886D01*
X178801964Y-103950500D01*
X178801970Y-103950500D01*
X180818030Y-103950500D01*
X180818036Y-103950500D01*
X180937417Y-103939886D01*
X181133049Y-103883909D01*
X181313407Y-103789698D01*
X181471109Y-103661109D01*
X181599698Y-103503407D01*
X181693909Y-103323049D01*
X181749886Y-103127417D01*
X181760500Y-103008036D01*
X181760500Y-100991964D01*
X181749886Y-100872583D01*
X181693909Y-100676951D01*
X181599698Y-100496593D01*
X181537164Y-100419901D01*
X181471109Y-100338890D01*
X181313407Y-100210302D01*
X181133045Y-100116089D01*
X181015828Y-100082550D01*
X180937417Y-100060114D01*
X180937414Y-100060113D01*
X180937412Y-100060113D01*
X180864630Y-100053642D01*
X180818036Y-100049500D01*
X178801964Y-100049500D01*
X178767017Y-100052607D01*
X178682587Y-100060113D01*
X178682584Y-100060113D01*
X178682583Y-100060114D01*
X178643377Y-100071332D01*
X178486954Y-100116089D01*
X178306592Y-100210302D01*
X178148890Y-100338890D01*
X178020302Y-100496592D01*
X177926089Y-100676954D01*
X177870114Y-100872584D01*
X177870113Y-100872587D01*
X177859500Y-100991967D01*
X153440451Y-100991967D01*
X154418102Y-100014319D01*
X154479425Y-99980834D01*
X154505783Y-99978000D01*
X159985666Y-99978000D01*
X160027607Y-99986342D01*
X160027753Y-99985862D01*
X160032628Y-99987340D01*
X160033116Y-99987438D01*
X160033580Y-99987630D01*
X160167756Y-100014319D01*
X160236530Y-100027999D01*
X160236534Y-100028000D01*
X160236535Y-100028000D01*
X160443466Y-100028000D01*
X160443467Y-100027999D01*
X160646420Y-99987630D01*
X160837598Y-99908441D01*
X161009655Y-99793477D01*
X161155977Y-99647155D01*
X161270941Y-99475098D01*
X161350130Y-99283920D01*
X161390500Y-99080965D01*
X161390500Y-98874035D01*
X161350130Y-98671080D01*
X161270941Y-98479902D01*
X161155977Y-98307845D01*
X161155975Y-98307842D01*
X161009657Y-98161524D01*
X160923626Y-98104041D01*
X160837598Y-98046559D01*
X160646420Y-97967370D01*
X160646412Y-97967368D01*
X160443469Y-97927000D01*
X160443465Y-97927000D01*
X160236535Y-97927000D01*
X160236530Y-97927000D01*
X160033587Y-97967368D01*
X160033576Y-97967371D01*
X160033116Y-97967562D01*
X160032628Y-97967659D01*
X160027753Y-97969138D01*
X160027607Y-97968657D01*
X159985666Y-97977000D01*
X154394334Y-97977000D01*
X154352392Y-97968657D01*
X154352247Y-97969138D01*
X154347371Y-97967659D01*
X154346884Y-97967562D01*
X154346423Y-97967371D01*
X154346421Y-97967370D01*
X154346420Y-97967370D01*
X154346417Y-97967369D01*
X154346412Y-97967368D01*
X154143469Y-97927000D01*
X154143465Y-97927000D01*
X153936535Y-97927000D01*
X153936530Y-97927000D01*
X153733587Y-97967368D01*
X153733579Y-97967370D01*
X153542403Y-98046558D01*
X153370342Y-98161524D01*
X153224024Y-98307842D01*
X153109056Y-98479907D01*
X153109052Y-98479913D01*
X153108862Y-98480374D01*
X153108584Y-98480788D01*
X153106185Y-98485278D01*
X153105742Y-98485041D01*
X153081988Y-98520589D01*
X152146899Y-99455681D01*
X152085576Y-99489166D01*
X152059218Y-99492000D01*
X145221834Y-99492000D01*
X145179892Y-99483657D01*
X145179747Y-99484138D01*
X145174871Y-99482659D01*
X145174384Y-99482562D01*
X145173923Y-99482371D01*
X145173921Y-99482370D01*
X145173920Y-99482370D01*
X145173917Y-99482369D01*
X145173912Y-99482368D01*
X144970969Y-99442000D01*
X144970965Y-99442000D01*
X144764035Y-99442000D01*
X144764030Y-99442000D01*
X144561087Y-99482368D01*
X144561076Y-99482371D01*
X144560616Y-99482562D01*
X144560128Y-99482659D01*
X144555253Y-99484138D01*
X144555107Y-99483657D01*
X144513166Y-99492000D01*
X138935976Y-99492000D01*
X138888524Y-99482561D01*
X138863924Y-99472371D01*
X138863912Y-99472368D01*
X138660969Y-99432000D01*
X138660965Y-99432000D01*
X138454035Y-99432000D01*
X138454030Y-99432000D01*
X138251087Y-99472368D01*
X138251079Y-99472370D01*
X138059903Y-99551558D01*
X137887842Y-99666524D01*
X137741524Y-99812842D01*
X137626558Y-99984903D01*
X137547370Y-100176079D01*
X137547368Y-100176087D01*
X137507000Y-100379030D01*
X116906866Y-100379030D01*
X116899886Y-100300517D01*
X116843909Y-100104886D01*
X116749698Y-99924528D01*
X116658633Y-99812845D01*
X116621109Y-99766825D01*
X116498097Y-99666523D01*
X116463407Y-99638237D01*
X116283049Y-99544026D01*
X116283048Y-99544025D01*
X116283045Y-99544024D01*
X116165829Y-99510485D01*
X116087418Y-99488049D01*
X116087415Y-99488048D01*
X116087413Y-99488048D01*
X116021102Y-99482152D01*
X115968037Y-99477435D01*
X115968032Y-99477435D01*
X112351971Y-99477435D01*
X112351965Y-99477435D01*
X112351964Y-99477436D01*
X112340316Y-99478471D01*
X112232584Y-99488048D01*
X112036954Y-99544024D01*
X111946772Y-99591131D01*
X111856593Y-99638237D01*
X111856591Y-99638238D01*
X111856590Y-99638239D01*
X111698890Y-99766825D01*
X111570304Y-99924525D01*
X111476089Y-100104889D01*
X111420114Y-100300518D01*
X111420113Y-100300521D01*
X111409500Y-100419901D01*
X82530500Y-100419901D01*
X82530500Y-92087533D01*
X111660000Y-92087533D01*
X111660000Y-92368336D01*
X111691437Y-92647347D01*
X111691439Y-92647359D01*
X111753921Y-92921113D01*
X111753922Y-92921115D01*
X111846662Y-93186152D01*
X111968492Y-93439135D01*
X112117884Y-93676891D01*
X112224187Y-93810192D01*
X113297425Y-92736954D01*
X113383249Y-92865398D01*
X113522537Y-93004686D01*
X113650979Y-93090508D01*
X112577741Y-94163745D01*
X112577741Y-94163746D01*
X112711043Y-94270050D01*
X112948799Y-94419442D01*
X113201782Y-94541272D01*
X113466819Y-94634012D01*
X113466821Y-94634013D01*
X113740575Y-94696495D01*
X113740587Y-94696497D01*
X114019598Y-94727934D01*
X114019600Y-94727935D01*
X114300400Y-94727935D01*
X114300401Y-94727934D01*
X114579412Y-94696497D01*
X114579424Y-94696495D01*
X114853178Y-94634013D01*
X114853180Y-94634012D01*
X115118217Y-94541272D01*
X115371200Y-94419442D01*
X115608956Y-94270051D01*
X115742257Y-94163745D01*
X114669020Y-93090508D01*
X114797463Y-93004686D01*
X114936751Y-92865398D01*
X115022573Y-92736955D01*
X116095810Y-93810192D01*
X116202116Y-93676891D01*
X116351507Y-93439135D01*
X116379039Y-93381966D01*
X182734500Y-93381966D01*
X182734500Y-96158028D01*
X182734501Y-96158034D01*
X182745113Y-96277415D01*
X182801089Y-96473045D01*
X182801090Y-96473048D01*
X182801091Y-96473049D01*
X182895302Y-96653407D01*
X182895304Y-96653409D01*
X183023890Y-96811109D01*
X183117803Y-96887684D01*
X183181593Y-96939698D01*
X183361951Y-97033909D01*
X183557582Y-97089886D01*
X183676963Y-97100500D01*
X187393036Y-97100499D01*
X187512418Y-97089886D01*
X187708049Y-97033909D01*
X187888407Y-96939698D01*
X188046109Y-96811109D01*
X188174698Y-96653407D01*
X188268909Y-96473049D01*
X188324886Y-96277418D01*
X188335500Y-96158037D01*
X188335499Y-93381964D01*
X188324886Y-93262582D01*
X188268909Y-93066951D01*
X188174698Y-92886593D01*
X188122684Y-92822803D01*
X188046109Y-92728890D01*
X187888409Y-92600304D01*
X187888410Y-92600304D01*
X187888407Y-92600302D01*
X187708049Y-92506091D01*
X187708048Y-92506090D01*
X187708045Y-92506089D01*
X187593460Y-92473303D01*
X187554791Y-92462238D01*
X187495754Y-92424872D01*
X187466290Y-92361518D01*
X187475755Y-92292293D01*
X187501222Y-92255341D01*
X187572181Y-92184382D01*
X187738168Y-91968066D01*
X187874496Y-91731937D01*
X187874500Y-91731927D01*
X187978840Y-91480029D01*
X188049411Y-91216655D01*
X188070035Y-91060000D01*
X186351480Y-91060000D01*
X186352335Y-91057936D01*
X186385000Y-90893718D01*
X186385000Y-90726282D01*
X186352335Y-90562064D01*
X186351480Y-90560000D01*
X188070034Y-90560000D01*
X188049411Y-90403344D01*
X187978840Y-90139970D01*
X187874500Y-89888072D01*
X187874496Y-89888062D01*
X187738168Y-89651933D01*
X187572181Y-89435617D01*
X187572174Y-89435609D01*
X187379391Y-89242826D01*
X187379382Y-89242818D01*
X187163066Y-89076831D01*
X186926937Y-88940503D01*
X186926927Y-88940499D01*
X186675029Y-88836159D01*
X186411655Y-88765588D01*
X186141331Y-88730000D01*
X185785000Y-88730000D01*
X185785000Y-89993519D01*
X185782936Y-89992665D01*
X185618718Y-89960000D01*
X185451282Y-89960000D01*
X185287064Y-89992665D01*
X185285000Y-89993519D01*
X185285000Y-88730000D01*
X184928669Y-88730000D01*
X184658344Y-88765588D01*
X184394970Y-88836159D01*
X184143072Y-88940499D01*
X184143062Y-88940503D01*
X183906933Y-89076831D01*
X183690617Y-89242818D01*
X183497818Y-89435617D01*
X183331831Y-89651933D01*
X183195503Y-89888062D01*
X183195499Y-89888072D01*
X183091159Y-90139970D01*
X183020588Y-90403344D01*
X182999965Y-90560000D01*
X184718520Y-90560000D01*
X184717665Y-90562064D01*
X184685000Y-90726282D01*
X184685000Y-90893718D01*
X184717665Y-91057936D01*
X184718520Y-91060000D01*
X182999965Y-91060000D01*
X183020588Y-91216655D01*
X183091159Y-91480029D01*
X183195499Y-91731927D01*
X183195503Y-91731937D01*
X183331831Y-91968066D01*
X183497818Y-92184382D01*
X183497826Y-92184391D01*
X183568777Y-92255342D01*
X183602262Y-92316665D01*
X183597278Y-92386357D01*
X183555406Y-92442290D01*
X183515209Y-92462238D01*
X183453451Y-92479909D01*
X183361953Y-92506090D01*
X183361951Y-92506090D01*
X183361951Y-92506091D01*
X183181593Y-92600302D01*
X183181591Y-92600303D01*
X183181590Y-92600304D01*
X183023890Y-92728890D01*
X182912584Y-92865398D01*
X182895302Y-92886593D01*
X182848196Y-92976772D01*
X182801089Y-93066954D01*
X182745114Y-93262583D01*
X182745113Y-93262586D01*
X182734500Y-93381966D01*
X116379039Y-93381966D01*
X116406274Y-93325412D01*
X116406275Y-93325410D01*
X116473335Y-93186157D01*
X116473337Y-93186153D01*
X116566077Y-92921115D01*
X116566078Y-92921113D01*
X116628560Y-92647359D01*
X116628562Y-92647347D01*
X116659999Y-92368336D01*
X116660000Y-92368334D01*
X116660000Y-92087535D01*
X116659999Y-92087533D01*
X116628562Y-91808522D01*
X116628560Y-91808510D01*
X116566078Y-91534756D01*
X116566077Y-91534754D01*
X116473337Y-91269717D01*
X116351507Y-91016734D01*
X116202115Y-90778978D01*
X116095810Y-90645676D01*
X115022573Y-91718913D01*
X114936751Y-91590472D01*
X114797463Y-91451184D01*
X114669020Y-91365360D01*
X115742257Y-90292122D01*
X115608956Y-90185819D01*
X115371200Y-90036427D01*
X115118217Y-89914597D01*
X114853180Y-89821857D01*
X114853178Y-89821856D01*
X114579424Y-89759374D01*
X114579412Y-89759372D01*
X114300401Y-89727935D01*
X114019598Y-89727935D01*
X113740587Y-89759372D01*
X113740575Y-89759374D01*
X113466821Y-89821856D01*
X113466819Y-89821857D01*
X113201782Y-89914597D01*
X112948799Y-90036427D01*
X112711043Y-90185819D01*
X112577741Y-90292122D01*
X113650979Y-91365360D01*
X113522537Y-91451184D01*
X113383249Y-91590472D01*
X113297426Y-91718914D01*
X112224187Y-90645676D01*
X112117884Y-90778978D01*
X111968492Y-91016734D01*
X111846662Y-91269717D01*
X111753922Y-91534754D01*
X111753921Y-91534756D01*
X111691439Y-91808510D01*
X111691437Y-91808522D01*
X111660000Y-92087533D01*
X82530500Y-92087533D01*
X82530500Y-85695578D01*
X95469500Y-85695578D01*
X95469500Y-86044421D01*
X95503692Y-86391594D01*
X95571744Y-86733721D01*
X95571747Y-86733732D01*
X95673016Y-87067571D01*
X95806516Y-87389867D01*
X95806518Y-87389872D01*
X95970955Y-87697511D01*
X95970972Y-87697539D01*
X96164759Y-87987563D01*
X96164776Y-87987586D01*
X96386084Y-88257251D01*
X96632748Y-88503915D01*
X96632753Y-88503919D01*
X96632754Y-88503920D01*
X96902419Y-88725228D01*
X96902426Y-88725233D01*
X96902436Y-88725240D01*
X97192460Y-88919027D01*
X97192465Y-88919030D01*
X97192477Y-88919038D01*
X97192486Y-88919042D01*
X97192488Y-88919044D01*
X97500127Y-89083481D01*
X97500129Y-89083481D01*
X97500135Y-89083485D01*
X97822430Y-89216984D01*
X98156258Y-89318250D01*
X98156264Y-89318251D01*
X98156267Y-89318252D01*
X98156278Y-89318255D01*
X98498405Y-89386307D01*
X98845575Y-89420500D01*
X98845578Y-89420500D01*
X99194422Y-89420500D01*
X99194425Y-89420500D01*
X99541595Y-89386307D01*
X99608197Y-89373059D01*
X99883721Y-89318255D01*
X99883732Y-89318252D01*
X99883732Y-89318251D01*
X99883742Y-89318250D01*
X100217570Y-89216984D01*
X100539865Y-89083485D01*
X100847523Y-88919038D01*
X101137581Y-88725228D01*
X101407246Y-88503920D01*
X101653920Y-88257246D01*
X101875228Y-87987581D01*
X102069038Y-87697523D01*
X102233485Y-87389865D01*
X102366984Y-87067570D01*
X102468250Y-86733742D01*
X102468252Y-86733732D01*
X102468255Y-86733721D01*
X102536307Y-86391594D01*
X102570500Y-86044425D01*
X102570500Y-85695575D01*
X102536307Y-85348405D01*
X102487091Y-85100976D01*
X102468255Y-85006278D01*
X102468252Y-85006267D01*
X102468251Y-85006264D01*
X102468250Y-85006258D01*
X102366984Y-84672430D01*
X102233485Y-84350135D01*
X102069038Y-84042477D01*
X102040004Y-83999024D01*
X101875240Y-83752436D01*
X101875233Y-83752426D01*
X101875228Y-83752419D01*
X101653920Y-83482754D01*
X101653919Y-83482753D01*
X101653915Y-83482748D01*
X101407251Y-83236084D01*
X101137586Y-83014776D01*
X101137563Y-83014759D01*
X100847539Y-82820972D01*
X100847511Y-82820955D01*
X100539872Y-82656518D01*
X100539867Y-82656516D01*
X100217571Y-82523016D01*
X99883732Y-82421747D01*
X99883721Y-82421744D01*
X99541594Y-82353692D01*
X99280120Y-82327940D01*
X99194425Y-82319500D01*
X98845575Y-82319500D01*
X98766394Y-82327298D01*
X98498405Y-82353692D01*
X98156278Y-82421744D01*
X98156267Y-82421747D01*
X97822428Y-82523016D01*
X97500132Y-82656516D01*
X97500127Y-82656518D01*
X97192488Y-82820955D01*
X97192460Y-82820972D01*
X96902436Y-83014759D01*
X96902413Y-83014776D01*
X96632748Y-83236084D01*
X96386084Y-83482748D01*
X96164776Y-83752413D01*
X96164759Y-83752436D01*
X95970972Y-84042460D01*
X95970955Y-84042488D01*
X95806518Y-84350127D01*
X95806516Y-84350132D01*
X95673016Y-84672428D01*
X95571747Y-85006267D01*
X95571744Y-85006278D01*
X95503692Y-85348405D01*
X95469500Y-85695578D01*
X82530500Y-85695578D01*
X82530500Y-82124500D01*
X82550185Y-82057461D01*
X82602989Y-82011706D01*
X82654500Y-82000500D01*
X130908334Y-82000500D01*
X130975373Y-82020185D01*
G37*
%TD.AperFunction*%
%TD*%
M02*
