%TF.GenerationSoftware,KiCad,Pcbnew,9.0.5*%
%TF.CreationDate,2025-11-27T11:00:23+01:00*%
%TF.ProjectId,Powersupply,506f7765-7273-4757-9070-6c792e6b6963,rev?*%
%TF.SameCoordinates,Original*%
%TF.FileFunction,Soldermask,Top*%
%TF.FilePolarity,Negative*%
%FSLAX46Y46*%
G04 Gerber Fmt 4.6, Leading zero omitted, Abs format (unit mm)*
G04 Created by KiCad (PCBNEW 9.0.5) date 2025-11-27 11:00:23*
%MOMM*%
%LPD*%
G01*
G04 APERTURE LIST*
G04 Aperture macros list*
%AMRoundRect*
0 Rectangle with rounded corners*
0 $1 Rounding radius*
0 $2 $3 $4 $5 $6 $7 $8 $9 X,Y pos of 4 corners*
0 Add a 4 corners polygon primitive as box body*
4,1,4,$2,$3,$4,$5,$6,$7,$8,$9,$2,$3,0*
0 Add four circle primitives for the rounded corners*
1,1,$1+$1,$2,$3*
1,1,$1+$1,$4,$5*
1,1,$1+$1,$6,$7*
1,1,$1+$1,$8,$9*
0 Add four rect primitives between the rounded corners*
20,1,$1+$1,$2,$3,$4,$5,0*
20,1,$1+$1,$4,$5,$6,$7,0*
20,1,$1+$1,$6,$7,$8,$9,0*
20,1,$1+$1,$8,$9,$2,$3,0*%
G04 Aperture macros list end*
%ADD10RoundRect,0.250000X-0.475000X0.337500X-0.475000X-0.337500X0.475000X-0.337500X0.475000X0.337500X0*%
%ADD11RoundRect,0.375000X-0.625000X-0.375000X0.625000X-0.375000X0.625000X0.375000X-0.625000X0.375000X0*%
%ADD12RoundRect,0.500000X-0.500000X-1.400000X0.500000X-1.400000X0.500000X1.400000X-0.500000X1.400000X0*%
%ADD13C,5.600000*%
%ADD14C,3.000000*%
%ADD15RoundRect,0.250000X1.750000X-1.750000X1.750000X1.750000X-1.750000X1.750000X-1.750000X-1.750000X0*%
%ADD16C,4.000000*%
%ADD17RoundRect,0.250000X-0.400000X-0.600000X0.400000X-0.600000X0.400000X0.600000X-0.400000X0.600000X0*%
%ADD18RoundRect,0.250000X0.475000X-0.337500X0.475000X0.337500X-0.475000X0.337500X-0.475000X-0.337500X0*%
%ADD19RoundRect,0.250000X1.800000X-1.330000X1.800000X1.330000X-1.800000X1.330000X-1.800000X-1.330000X0*%
%ADD20O,4.100000X3.160000*%
%ADD21RoundRect,0.250000X0.400000X0.600000X-0.400000X0.600000X-0.400000X-0.600000X0.400000X-0.600000X0*%
%ADD22R,1.905000X2.000000*%
%ADD23O,1.905000X2.000000*%
%ADD24RoundRect,0.250000X-0.600000X0.400000X-0.600000X-0.400000X0.600000X-0.400000X0.600000X0.400000X0*%
%ADD25RoundRect,0.250000X0.337500X0.475000X-0.337500X0.475000X-0.337500X-0.475000X0.337500X-0.475000X0*%
%ADD26RoundRect,0.250001X-0.949999X0.949999X-0.949999X-0.949999X0.949999X-0.949999X0.949999X0.949999X0*%
%ADD27C,2.400000*%
%ADD28C,6.000000*%
%ADD29RoundRect,0.150000X-0.512500X-0.150000X0.512500X-0.150000X0.512500X0.150000X-0.512500X0.150000X0*%
%ADD30R,1.500000X1.300000*%
%ADD31RoundRect,0.250000X-0.337500X-0.475000X0.337500X-0.475000X0.337500X0.475000X-0.337500X0.475000X0*%
%ADD32RoundRect,0.375000X0.625000X0.375000X-0.625000X0.375000X-0.625000X-0.375000X0.625000X-0.375000X0*%
%ADD33RoundRect,0.500000X0.500000X1.400000X-0.500000X1.400000X-0.500000X-1.400000X0.500000X-1.400000X0*%
%ADD34RoundRect,0.150000X0.150000X-0.512500X0.150000X0.512500X-0.150000X0.512500X-0.150000X-0.512500X0*%
G04 APERTURE END LIST*
D10*
%TO.C,R6*%
X161100000Y-108232500D03*
X161100000Y-110307500D03*
%TD*%
D11*
%TO.C,Q2*%
X154040000Y-96677500D03*
X154040000Y-98977500D03*
D12*
X160340000Y-98977500D03*
D11*
X154040000Y-101277500D03*
%TD*%
D13*
%TO.C,H3*%
X174540000Y-85870000D03*
%TD*%
D14*
%TO.C,H5*%
X132800000Y-89670000D03*
%TD*%
D15*
%TO.C,C2*%
X114160000Y-102227935D03*
D16*
X114160000Y-92227935D03*
%TD*%
D14*
%TO.C,H6*%
X136580000Y-88780000D03*
%TD*%
D17*
%TO.C,D3*%
X149812500Y-94180000D03*
X153312500Y-94180000D03*
%TD*%
D14*
%TO.C,H8*%
X156770000Y-88740000D03*
%TD*%
D10*
%TO.C,R4*%
X149840000Y-96692500D03*
X149840000Y-98767500D03*
%TD*%
D18*
%TO.C,I_SET1*%
X171840000Y-101685000D03*
X171840000Y-99610000D03*
%TD*%
D14*
%TO.C,H7*%
X160400000Y-89580000D03*
%TD*%
D19*
%TO.C,J2*%
X185535000Y-94770000D03*
D20*
X185535000Y-90810000D03*
%TD*%
D13*
%TO.C,H1*%
X132730000Y-106990000D03*
%TD*%
D21*
%TO.C,D2*%
X144870000Y-106980000D03*
X141370000Y-106980000D03*
%TD*%
D22*
%TO.C,U1*%
X143990000Y-88800000D03*
D23*
X146530000Y-88800000D03*
X149070000Y-88800000D03*
%TD*%
D24*
%TO.C,D4*%
X164340000Y-100912500D03*
X164340000Y-104412500D03*
%TD*%
D25*
%TO.C,V_SET1*%
X168657500Y-108290000D03*
X166582500Y-108290000D03*
%TD*%
D21*
%TO.C,D1*%
X151497500Y-106980000D03*
X147997500Y-106980000D03*
%TD*%
D10*
%TO.C,R2*%
X149840000Y-100702500D03*
X149840000Y-102777500D03*
%TD*%
D26*
%TO.C,C1*%
X179810000Y-102000000D03*
D27*
X179810000Y-107000000D03*
%TD*%
D28*
%TO.C,HS1*%
X133930000Y-84550000D03*
X159330000Y-84550000D03*
%TD*%
D19*
%TO.C,J1*%
X90100000Y-107420000D03*
D20*
X90100000Y-103460000D03*
%TD*%
D13*
%TO.C,H2*%
X99020000Y-85870000D03*
%TD*%
D29*
%TO.C,U2*%
X166760000Y-100920000D03*
X166760000Y-102820000D03*
X169035000Y-101870000D03*
%TD*%
D30*
%TO.C,D5*%
X94260000Y-96390000D03*
X94260000Y-91290000D03*
X85360000Y-91290000D03*
X85360000Y-96390000D03*
%TD*%
D31*
%TO.C,R1*%
X142790000Y-94472500D03*
X144865000Y-94472500D03*
%TD*%
D10*
%TO.C,R5*%
X157410000Y-108212500D03*
X157410000Y-110287500D03*
%TD*%
D32*
%TO.C,Q1*%
X144867500Y-102792500D03*
X144867500Y-100492500D03*
D33*
X138567500Y-100492500D03*
D32*
X144867500Y-98192500D03*
%TD*%
D34*
%TO.C,U3*%
X157530000Y-106237500D03*
X159430000Y-106237500D03*
X158480000Y-103962500D03*
%TD*%
M02*
