M48
; DRILL file {KiCad 9.0.5} date 2025-11-27T11:00:26+0100
; FORMAT={-:-/ absolute / metric / decimal}
; #@! TF.CreationDate,2025-11-27T11:00:26+01:00
; #@! TF.GenerationSoftware,Kicad,Pcbnew,9.0.5
; #@! TF.FileFunction,Plated,1,2,PTH
FMAT,2
METRIC
; #@! TA.AperFunction,Plated,PTH,ViaDrill
T1C0.300
; #@! TA.AperFunction,Plated,PTH,ComponentDrill
T2C1.100
; #@! TA.AperFunction,Plated,PTH,ComponentDrill
T3C1.200
; #@! TA.AperFunction,Plated,PTH,ComponentDrill
T4C1.700
; #@! TA.AperFunction,Plated,PTH,ComponentDrill
T5C2.000
; #@! TA.AperFunction,Plated,PTH,ComponentDrill
T6C2.600
; #@! TA.AperFunction,Plated,PTH,ComponentDrill
T7C3.200
%
G90
G05
T1
X138.558Y-100.483
X144.868Y-100.492
X153.312Y-94.18
X154.04Y-98.977
X157.41Y-110.287
X158.48Y-103.962
X160.34Y-98.977
X161.1Y-110.307
T2
X143.99Y-88.8
X146.53Y-88.8
X149.07Y-88.8
T3
X179.81Y-102.0
X179.81Y-107.0
T4
X90.1Y-103.46
X90.1Y-107.42
X185.535Y-90.81
X185.535Y-94.77
T5
X114.16Y-92.228
X114.16Y-102.228
T6
X133.93Y-84.55
X159.33Y-84.55
T7
X99.02Y-85.87
X132.73Y-106.99
X174.54Y-85.87
M30
