%TF.GenerationSoftware,KiCad,Pcbnew,9.0.5*%
%TF.CreationDate,2025-11-27T11:00:23+01:00*%
%TF.ProjectId,Powersupply,506f7765-7273-4757-9070-6c792e6b6963,rev?*%
%TF.SameCoordinates,Original*%
%TF.FileFunction,Legend,Top*%
%TF.FilePolarity,Positive*%
%FSLAX46Y46*%
G04 Gerber Fmt 4.6, Leading zero omitted, Abs format (unit mm)*
G04 Created by KiCad (PCBNEW 9.0.5) date 2025-11-27 11:00:23*
%MOMM*%
%LPD*%
G01*
G04 APERTURE LIST*
%ADD10C,0.150000*%
%ADD11C,0.120000*%
G04 APERTURE END LIST*
D10*
X123136779Y-111959819D02*
X123136779Y-110959819D01*
X123136779Y-111340771D02*
X123232017Y-111293152D01*
X123232017Y-111293152D02*
X123422493Y-111293152D01*
X123422493Y-111293152D02*
X123517731Y-111340771D01*
X123517731Y-111340771D02*
X123565350Y-111388390D01*
X123565350Y-111388390D02*
X123612969Y-111483628D01*
X123612969Y-111483628D02*
X123612969Y-111769342D01*
X123612969Y-111769342D02*
X123565350Y-111864580D01*
X123565350Y-111864580D02*
X123517731Y-111912200D01*
X123517731Y-111912200D02*
X123422493Y-111959819D01*
X123422493Y-111959819D02*
X123232017Y-111959819D01*
X123232017Y-111959819D02*
X123136779Y-111912200D01*
X124470112Y-111959819D02*
X124470112Y-111436009D01*
X124470112Y-111436009D02*
X124422493Y-111340771D01*
X124422493Y-111340771D02*
X124327255Y-111293152D01*
X124327255Y-111293152D02*
X124136779Y-111293152D01*
X124136779Y-111293152D02*
X124041541Y-111340771D01*
X124470112Y-111912200D02*
X124374874Y-111959819D01*
X124374874Y-111959819D02*
X124136779Y-111959819D01*
X124136779Y-111959819D02*
X124041541Y-111912200D01*
X124041541Y-111912200D02*
X123993922Y-111816961D01*
X123993922Y-111816961D02*
X123993922Y-111721723D01*
X123993922Y-111721723D02*
X124041541Y-111626485D01*
X124041541Y-111626485D02*
X124136779Y-111578866D01*
X124136779Y-111578866D02*
X124374874Y-111578866D01*
X124374874Y-111578866D02*
X124470112Y-111531247D01*
X124898684Y-111912200D02*
X124993922Y-111959819D01*
X124993922Y-111959819D02*
X125184398Y-111959819D01*
X125184398Y-111959819D02*
X125279636Y-111912200D01*
X125279636Y-111912200D02*
X125327255Y-111816961D01*
X125327255Y-111816961D02*
X125327255Y-111769342D01*
X125327255Y-111769342D02*
X125279636Y-111674104D01*
X125279636Y-111674104D02*
X125184398Y-111626485D01*
X125184398Y-111626485D02*
X125041541Y-111626485D01*
X125041541Y-111626485D02*
X124946303Y-111578866D01*
X124946303Y-111578866D02*
X124898684Y-111483628D01*
X124898684Y-111483628D02*
X124898684Y-111436009D01*
X124898684Y-111436009D02*
X124946303Y-111340771D01*
X124946303Y-111340771D02*
X125041541Y-111293152D01*
X125041541Y-111293152D02*
X125184398Y-111293152D01*
X125184398Y-111293152D02*
X125279636Y-111340771D01*
X126136779Y-111912200D02*
X126041541Y-111959819D01*
X126041541Y-111959819D02*
X125851065Y-111959819D01*
X125851065Y-111959819D02*
X125755827Y-111912200D01*
X125755827Y-111912200D02*
X125708208Y-111816961D01*
X125708208Y-111816961D02*
X125708208Y-111436009D01*
X125708208Y-111436009D02*
X125755827Y-111340771D01*
X125755827Y-111340771D02*
X125851065Y-111293152D01*
X125851065Y-111293152D02*
X126041541Y-111293152D01*
X126041541Y-111293152D02*
X126136779Y-111340771D01*
X126136779Y-111340771D02*
X126184398Y-111436009D01*
X126184398Y-111436009D02*
X126184398Y-111531247D01*
X126184398Y-111531247D02*
X125708208Y-111626485D01*
X127041541Y-111959819D02*
X127041541Y-110959819D01*
X127041541Y-111912200D02*
X126946303Y-111959819D01*
X126946303Y-111959819D02*
X126755827Y-111959819D01*
X126755827Y-111959819D02*
X126660589Y-111912200D01*
X126660589Y-111912200D02*
X126612970Y-111864580D01*
X126612970Y-111864580D02*
X126565351Y-111769342D01*
X126565351Y-111769342D02*
X126565351Y-111483628D01*
X126565351Y-111483628D02*
X126612970Y-111388390D01*
X126612970Y-111388390D02*
X126660589Y-111340771D01*
X126660589Y-111340771D02*
X126755827Y-111293152D01*
X126755827Y-111293152D02*
X126946303Y-111293152D01*
X126946303Y-111293152D02*
X127041541Y-111340771D01*
X128422494Y-111959819D02*
X128327256Y-111912200D01*
X128327256Y-111912200D02*
X128279637Y-111864580D01*
X128279637Y-111864580D02*
X128232018Y-111769342D01*
X128232018Y-111769342D02*
X128232018Y-111483628D01*
X128232018Y-111483628D02*
X128279637Y-111388390D01*
X128279637Y-111388390D02*
X128327256Y-111340771D01*
X128327256Y-111340771D02*
X128422494Y-111293152D01*
X128422494Y-111293152D02*
X128565351Y-111293152D01*
X128565351Y-111293152D02*
X128660589Y-111340771D01*
X128660589Y-111340771D02*
X128708208Y-111388390D01*
X128708208Y-111388390D02*
X128755827Y-111483628D01*
X128755827Y-111483628D02*
X128755827Y-111769342D01*
X128755827Y-111769342D02*
X128708208Y-111864580D01*
X128708208Y-111864580D02*
X128660589Y-111912200D01*
X128660589Y-111912200D02*
X128565351Y-111959819D01*
X128565351Y-111959819D02*
X128422494Y-111959819D01*
X129184399Y-111293152D02*
X129184399Y-111959819D01*
X129184399Y-111388390D02*
X129232018Y-111340771D01*
X129232018Y-111340771D02*
X129327256Y-111293152D01*
X129327256Y-111293152D02*
X129470113Y-111293152D01*
X129470113Y-111293152D02*
X129565351Y-111340771D01*
X129565351Y-111340771D02*
X129612970Y-111436009D01*
X129612970Y-111436009D02*
X129612970Y-111959819D01*
X131279637Y-111912200D02*
X131184399Y-111959819D01*
X131184399Y-111959819D02*
X130993923Y-111959819D01*
X130993923Y-111959819D02*
X130898685Y-111912200D01*
X130898685Y-111912200D02*
X130851066Y-111864580D01*
X130851066Y-111864580D02*
X130803447Y-111769342D01*
X130803447Y-111769342D02*
X130803447Y-111483628D01*
X130803447Y-111483628D02*
X130851066Y-111388390D01*
X130851066Y-111388390D02*
X130898685Y-111340771D01*
X130898685Y-111340771D02*
X130993923Y-111293152D01*
X130993923Y-111293152D02*
X131184399Y-111293152D01*
X131184399Y-111293152D02*
X131279637Y-111340771D01*
X131708209Y-111959819D02*
X131708209Y-110959819D01*
X132136780Y-111959819D02*
X132136780Y-111436009D01*
X132136780Y-111436009D02*
X132089161Y-111340771D01*
X132089161Y-111340771D02*
X131993923Y-111293152D01*
X131993923Y-111293152D02*
X131851066Y-111293152D01*
X131851066Y-111293152D02*
X131755828Y-111340771D01*
X131755828Y-111340771D02*
X131708209Y-111388390D01*
X133041542Y-111959819D02*
X133041542Y-111436009D01*
X133041542Y-111436009D02*
X132993923Y-111340771D01*
X132993923Y-111340771D02*
X132898685Y-111293152D01*
X132898685Y-111293152D02*
X132708209Y-111293152D01*
X132708209Y-111293152D02*
X132612971Y-111340771D01*
X133041542Y-111912200D02*
X132946304Y-111959819D01*
X132946304Y-111959819D02*
X132708209Y-111959819D01*
X132708209Y-111959819D02*
X132612971Y-111912200D01*
X132612971Y-111912200D02*
X132565352Y-111816961D01*
X132565352Y-111816961D02*
X132565352Y-111721723D01*
X132565352Y-111721723D02*
X132612971Y-111626485D01*
X132612971Y-111626485D02*
X132708209Y-111578866D01*
X132708209Y-111578866D02*
X132946304Y-111578866D01*
X132946304Y-111578866D02*
X133041542Y-111531247D01*
X133517733Y-111293152D02*
X133517733Y-111959819D01*
X133517733Y-111388390D02*
X133565352Y-111340771D01*
X133565352Y-111340771D02*
X133660590Y-111293152D01*
X133660590Y-111293152D02*
X133803447Y-111293152D01*
X133803447Y-111293152D02*
X133898685Y-111340771D01*
X133898685Y-111340771D02*
X133946304Y-111436009D01*
X133946304Y-111436009D02*
X133946304Y-111959819D01*
X134851066Y-111293152D02*
X134851066Y-112102676D01*
X134851066Y-112102676D02*
X134803447Y-112197914D01*
X134803447Y-112197914D02*
X134755828Y-112245533D01*
X134755828Y-112245533D02*
X134660590Y-112293152D01*
X134660590Y-112293152D02*
X134517733Y-112293152D01*
X134517733Y-112293152D02*
X134422495Y-112245533D01*
X134851066Y-111912200D02*
X134755828Y-111959819D01*
X134755828Y-111959819D02*
X134565352Y-111959819D01*
X134565352Y-111959819D02*
X134470114Y-111912200D01*
X134470114Y-111912200D02*
X134422495Y-111864580D01*
X134422495Y-111864580D02*
X134374876Y-111769342D01*
X134374876Y-111769342D02*
X134374876Y-111483628D01*
X134374876Y-111483628D02*
X134422495Y-111388390D01*
X134422495Y-111388390D02*
X134470114Y-111340771D01*
X134470114Y-111340771D02*
X134565352Y-111293152D01*
X134565352Y-111293152D02*
X134755828Y-111293152D01*
X134755828Y-111293152D02*
X134851066Y-111340771D01*
X135327257Y-111293152D02*
X135327257Y-112293152D01*
X135327257Y-111340771D02*
X135422495Y-111293152D01*
X135422495Y-111293152D02*
X135612971Y-111293152D01*
X135612971Y-111293152D02*
X135708209Y-111340771D01*
X135708209Y-111340771D02*
X135755828Y-111388390D01*
X135755828Y-111388390D02*
X135803447Y-111483628D01*
X135803447Y-111483628D02*
X135803447Y-111769342D01*
X135803447Y-111769342D02*
X135755828Y-111864580D01*
X135755828Y-111864580D02*
X135708209Y-111912200D01*
X135708209Y-111912200D02*
X135612971Y-111959819D01*
X135612971Y-111959819D02*
X135422495Y-111959819D01*
X135422495Y-111959819D02*
X135327257Y-111912200D01*
X136660590Y-111293152D02*
X136660590Y-111959819D01*
X136232019Y-111293152D02*
X136232019Y-111816961D01*
X136232019Y-111816961D02*
X136279638Y-111912200D01*
X136279638Y-111912200D02*
X136374876Y-111959819D01*
X136374876Y-111959819D02*
X136517733Y-111959819D01*
X136517733Y-111959819D02*
X136612971Y-111912200D01*
X136612971Y-111912200D02*
X136660590Y-111864580D01*
X137565352Y-111959819D02*
X137565352Y-111436009D01*
X137565352Y-111436009D02*
X137517733Y-111340771D01*
X137517733Y-111340771D02*
X137422495Y-111293152D01*
X137422495Y-111293152D02*
X137232019Y-111293152D01*
X137232019Y-111293152D02*
X137136781Y-111340771D01*
X137565352Y-111912200D02*
X137470114Y-111959819D01*
X137470114Y-111959819D02*
X137232019Y-111959819D01*
X137232019Y-111959819D02*
X137136781Y-111912200D01*
X137136781Y-111912200D02*
X137089162Y-111816961D01*
X137089162Y-111816961D02*
X137089162Y-111721723D01*
X137089162Y-111721723D02*
X137136781Y-111626485D01*
X137136781Y-111626485D02*
X137232019Y-111578866D01*
X137232019Y-111578866D02*
X137470114Y-111578866D01*
X137470114Y-111578866D02*
X137565352Y-111531247D01*
X138041543Y-111959819D02*
X138041543Y-110959819D01*
X138136781Y-111578866D02*
X138422495Y-111959819D01*
X138422495Y-111293152D02*
X138041543Y-111674104D01*
X138851067Y-111864580D02*
X138898686Y-111912200D01*
X138898686Y-111912200D02*
X138851067Y-111959819D01*
X138851067Y-111959819D02*
X138803448Y-111912200D01*
X138803448Y-111912200D02*
X138851067Y-111864580D01*
X138851067Y-111864580D02*
X138851067Y-111959819D01*
X139755828Y-111912200D02*
X139660590Y-111959819D01*
X139660590Y-111959819D02*
X139470114Y-111959819D01*
X139470114Y-111959819D02*
X139374876Y-111912200D01*
X139374876Y-111912200D02*
X139327257Y-111864580D01*
X139327257Y-111864580D02*
X139279638Y-111769342D01*
X139279638Y-111769342D02*
X139279638Y-111483628D01*
X139279638Y-111483628D02*
X139327257Y-111388390D01*
X139327257Y-111388390D02*
X139374876Y-111340771D01*
X139374876Y-111340771D02*
X139470114Y-111293152D01*
X139470114Y-111293152D02*
X139660590Y-111293152D01*
X139660590Y-111293152D02*
X139755828Y-111340771D01*
X140184400Y-111959819D02*
X140184400Y-110959819D01*
X140612971Y-111959819D02*
X140612971Y-111436009D01*
X140612971Y-111436009D02*
X140565352Y-111340771D01*
X140565352Y-111340771D02*
X140470114Y-111293152D01*
X140470114Y-111293152D02*
X140327257Y-111293152D01*
X140327257Y-111293152D02*
X140232019Y-111340771D01*
X140232019Y-111340771D02*
X140184400Y-111388390D01*
X142517733Y-112055057D02*
X142422495Y-112007438D01*
X142422495Y-112007438D02*
X142327257Y-111912200D01*
X142327257Y-111912200D02*
X142184400Y-111769342D01*
X142184400Y-111769342D02*
X142089162Y-111721723D01*
X142089162Y-111721723D02*
X141993924Y-111721723D01*
X142041543Y-111959819D02*
X141946305Y-111912200D01*
X141946305Y-111912200D02*
X141851067Y-111816961D01*
X141851067Y-111816961D02*
X141803448Y-111626485D01*
X141803448Y-111626485D02*
X141803448Y-111293152D01*
X141803448Y-111293152D02*
X141851067Y-111102676D01*
X141851067Y-111102676D02*
X141946305Y-111007438D01*
X141946305Y-111007438D02*
X142041543Y-110959819D01*
X142041543Y-110959819D02*
X142232019Y-110959819D01*
X142232019Y-110959819D02*
X142327257Y-111007438D01*
X142327257Y-111007438D02*
X142422495Y-111102676D01*
X142422495Y-111102676D02*
X142470114Y-111293152D01*
X142470114Y-111293152D02*
X142470114Y-111626485D01*
X142470114Y-111626485D02*
X142422495Y-111816961D01*
X142422495Y-111816961D02*
X142327257Y-111912200D01*
X142327257Y-111912200D02*
X142232019Y-111959819D01*
X142232019Y-111959819D02*
X142041543Y-111959819D01*
X143089162Y-110959819D02*
X143279638Y-110959819D01*
X143279638Y-110959819D02*
X143374876Y-111007438D01*
X143374876Y-111007438D02*
X143470114Y-111102676D01*
X143470114Y-111102676D02*
X143517733Y-111293152D01*
X143517733Y-111293152D02*
X143517733Y-111626485D01*
X143517733Y-111626485D02*
X143470114Y-111816961D01*
X143470114Y-111816961D02*
X143374876Y-111912200D01*
X143374876Y-111912200D02*
X143279638Y-111959819D01*
X143279638Y-111959819D02*
X143089162Y-111959819D01*
X143089162Y-111959819D02*
X142993924Y-111912200D01*
X142993924Y-111912200D02*
X142898686Y-111816961D01*
X142898686Y-111816961D02*
X142851067Y-111626485D01*
X142851067Y-111626485D02*
X142851067Y-111293152D01*
X142851067Y-111293152D02*
X142898686Y-111102676D01*
X142898686Y-111102676D02*
X142993924Y-111007438D01*
X142993924Y-111007438D02*
X143089162Y-110959819D01*
X143946305Y-111578866D02*
X144708210Y-111578866D01*
X145612971Y-111293152D02*
X145612971Y-111959819D01*
X145374876Y-110912200D02*
X145136781Y-111626485D01*
X145136781Y-111626485D02*
X145755828Y-111626485D01*
X146327257Y-110959819D02*
X146422495Y-110959819D01*
X146422495Y-110959819D02*
X146517733Y-111007438D01*
X146517733Y-111007438D02*
X146565352Y-111055057D01*
X146565352Y-111055057D02*
X146612971Y-111150295D01*
X146612971Y-111150295D02*
X146660590Y-111340771D01*
X146660590Y-111340771D02*
X146660590Y-111578866D01*
X146660590Y-111578866D02*
X146612971Y-111769342D01*
X146612971Y-111769342D02*
X146565352Y-111864580D01*
X146565352Y-111864580D02*
X146517733Y-111912200D01*
X146517733Y-111912200D02*
X146422495Y-111959819D01*
X146422495Y-111959819D02*
X146327257Y-111959819D01*
X146327257Y-111959819D02*
X146232019Y-111912200D01*
X146232019Y-111912200D02*
X146184400Y-111864580D01*
X146184400Y-111864580D02*
X146136781Y-111769342D01*
X146136781Y-111769342D02*
X146089162Y-111578866D01*
X146089162Y-111578866D02*
X146089162Y-111340771D01*
X146089162Y-111340771D02*
X146136781Y-111150295D01*
X146136781Y-111150295D02*
X146184400Y-111055057D01*
X146184400Y-111055057D02*
X146232019Y-111007438D01*
X146232019Y-111007438D02*
X146327257Y-110959819D01*
X147232019Y-111388390D02*
X147136781Y-111340771D01*
X147136781Y-111340771D02*
X147089162Y-111293152D01*
X147089162Y-111293152D02*
X147041543Y-111197914D01*
X147041543Y-111197914D02*
X147041543Y-111150295D01*
X147041543Y-111150295D02*
X147089162Y-111055057D01*
X147089162Y-111055057D02*
X147136781Y-111007438D01*
X147136781Y-111007438D02*
X147232019Y-110959819D01*
X147232019Y-110959819D02*
X147422495Y-110959819D01*
X147422495Y-110959819D02*
X147517733Y-111007438D01*
X147517733Y-111007438D02*
X147565352Y-111055057D01*
X147565352Y-111055057D02*
X147612971Y-111150295D01*
X147612971Y-111150295D02*
X147612971Y-111197914D01*
X147612971Y-111197914D02*
X147565352Y-111293152D01*
X147565352Y-111293152D02*
X147517733Y-111340771D01*
X147517733Y-111340771D02*
X147422495Y-111388390D01*
X147422495Y-111388390D02*
X147232019Y-111388390D01*
X147232019Y-111388390D02*
X147136781Y-111436009D01*
X147136781Y-111436009D02*
X147089162Y-111483628D01*
X147089162Y-111483628D02*
X147041543Y-111578866D01*
X147041543Y-111578866D02*
X147041543Y-111769342D01*
X147041543Y-111769342D02*
X147089162Y-111864580D01*
X147089162Y-111864580D02*
X147136781Y-111912200D01*
X147136781Y-111912200D02*
X147232019Y-111959819D01*
X147232019Y-111959819D02*
X147422495Y-111959819D01*
X147422495Y-111959819D02*
X147517733Y-111912200D01*
X147517733Y-111912200D02*
X147565352Y-111864580D01*
X147565352Y-111864580D02*
X147612971Y-111769342D01*
X147612971Y-111769342D02*
X147612971Y-111578866D01*
X147612971Y-111578866D02*
X147565352Y-111483628D01*
X147565352Y-111483628D02*
X147517733Y-111436009D01*
X147517733Y-111436009D02*
X147422495Y-111388390D01*
X169206779Y-92679875D02*
X169206779Y-91679875D01*
X169206779Y-91679875D02*
X169444874Y-91679875D01*
X169444874Y-91679875D02*
X169587731Y-91727494D01*
X169587731Y-91727494D02*
X169682969Y-91822732D01*
X169682969Y-91822732D02*
X169730588Y-91917970D01*
X169730588Y-91917970D02*
X169778207Y-92108446D01*
X169778207Y-92108446D02*
X169778207Y-92251303D01*
X169778207Y-92251303D02*
X169730588Y-92441779D01*
X169730588Y-92441779D02*
X169682969Y-92537017D01*
X169682969Y-92537017D02*
X169587731Y-92632256D01*
X169587731Y-92632256D02*
X169444874Y-92679875D01*
X169444874Y-92679875D02*
X169206779Y-92679875D01*
X170635350Y-92679875D02*
X170635350Y-92156065D01*
X170635350Y-92156065D02*
X170587731Y-92060827D01*
X170587731Y-92060827D02*
X170492493Y-92013208D01*
X170492493Y-92013208D02*
X170302017Y-92013208D01*
X170302017Y-92013208D02*
X170206779Y-92060827D01*
X170635350Y-92632256D02*
X170540112Y-92679875D01*
X170540112Y-92679875D02*
X170302017Y-92679875D01*
X170302017Y-92679875D02*
X170206779Y-92632256D01*
X170206779Y-92632256D02*
X170159160Y-92537017D01*
X170159160Y-92537017D02*
X170159160Y-92441779D01*
X170159160Y-92441779D02*
X170206779Y-92346541D01*
X170206779Y-92346541D02*
X170302017Y-92298922D01*
X170302017Y-92298922D02*
X170540112Y-92298922D01*
X170540112Y-92298922D02*
X170635350Y-92251303D01*
X171111541Y-92013208D02*
X171111541Y-92679875D01*
X171111541Y-92108446D02*
X171159160Y-92060827D01*
X171159160Y-92060827D02*
X171254398Y-92013208D01*
X171254398Y-92013208D02*
X171397255Y-92013208D01*
X171397255Y-92013208D02*
X171492493Y-92060827D01*
X171492493Y-92060827D02*
X171540112Y-92156065D01*
X171540112Y-92156065D02*
X171540112Y-92679875D01*
X172444874Y-92013208D02*
X172444874Y-92822732D01*
X172444874Y-92822732D02*
X172397255Y-92917970D01*
X172397255Y-92917970D02*
X172349636Y-92965589D01*
X172349636Y-92965589D02*
X172254398Y-93013208D01*
X172254398Y-93013208D02*
X172111541Y-93013208D01*
X172111541Y-93013208D02*
X172016303Y-92965589D01*
X172444874Y-92632256D02*
X172349636Y-92679875D01*
X172349636Y-92679875D02*
X172159160Y-92679875D01*
X172159160Y-92679875D02*
X172063922Y-92632256D01*
X172063922Y-92632256D02*
X172016303Y-92584636D01*
X172016303Y-92584636D02*
X171968684Y-92489398D01*
X171968684Y-92489398D02*
X171968684Y-92203684D01*
X171968684Y-92203684D02*
X172016303Y-92108446D01*
X172016303Y-92108446D02*
X172063922Y-92060827D01*
X172063922Y-92060827D02*
X172159160Y-92013208D01*
X172159160Y-92013208D02*
X172349636Y-92013208D01*
X172349636Y-92013208D02*
X172444874Y-92060827D01*
X173302017Y-92632256D02*
X173206779Y-92679875D01*
X173206779Y-92679875D02*
X173016303Y-92679875D01*
X173016303Y-92679875D02*
X172921065Y-92632256D01*
X172921065Y-92632256D02*
X172873446Y-92537017D01*
X172873446Y-92537017D02*
X172873446Y-92156065D01*
X172873446Y-92156065D02*
X172921065Y-92060827D01*
X172921065Y-92060827D02*
X173016303Y-92013208D01*
X173016303Y-92013208D02*
X173206779Y-92013208D01*
X173206779Y-92013208D02*
X173302017Y-92060827D01*
X173302017Y-92060827D02*
X173349636Y-92156065D01*
X173349636Y-92156065D02*
X173349636Y-92251303D01*
X173349636Y-92251303D02*
X172873446Y-92346541D01*
X173778208Y-92679875D02*
X173778208Y-92013208D01*
X173778208Y-92203684D02*
X173825827Y-92108446D01*
X173825827Y-92108446D02*
X173873446Y-92060827D01*
X173873446Y-92060827D02*
X173968684Y-92013208D01*
X173968684Y-92013208D02*
X174063922Y-92013208D01*
X174397256Y-92584636D02*
X174444875Y-92632256D01*
X174444875Y-92632256D02*
X174397256Y-92679875D01*
X174397256Y-92679875D02*
X174349637Y-92632256D01*
X174349637Y-92632256D02*
X174397256Y-92584636D01*
X174397256Y-92584636D02*
X174397256Y-92679875D01*
X174397256Y-92298922D02*
X174349637Y-91727494D01*
X174349637Y-91727494D02*
X174397256Y-91679875D01*
X174397256Y-91679875D02*
X174444875Y-91727494D01*
X174444875Y-91727494D02*
X174397256Y-92298922D01*
X174397256Y-92298922D02*
X174397256Y-91679875D01*
X169206779Y-94289819D02*
X169206779Y-93289819D01*
X169206779Y-93766009D02*
X169778207Y-93766009D01*
X169778207Y-94289819D02*
X169778207Y-93289819D01*
X170254398Y-94289819D02*
X170254398Y-93623152D01*
X170254398Y-93289819D02*
X170206779Y-93337438D01*
X170206779Y-93337438D02*
X170254398Y-93385057D01*
X170254398Y-93385057D02*
X170302017Y-93337438D01*
X170302017Y-93337438D02*
X170254398Y-93289819D01*
X170254398Y-93289819D02*
X170254398Y-93385057D01*
X171159159Y-93623152D02*
X171159159Y-94432676D01*
X171159159Y-94432676D02*
X171111540Y-94527914D01*
X171111540Y-94527914D02*
X171063921Y-94575533D01*
X171063921Y-94575533D02*
X170968683Y-94623152D01*
X170968683Y-94623152D02*
X170825826Y-94623152D01*
X170825826Y-94623152D02*
X170730588Y-94575533D01*
X171159159Y-94242200D02*
X171063921Y-94289819D01*
X171063921Y-94289819D02*
X170873445Y-94289819D01*
X170873445Y-94289819D02*
X170778207Y-94242200D01*
X170778207Y-94242200D02*
X170730588Y-94194580D01*
X170730588Y-94194580D02*
X170682969Y-94099342D01*
X170682969Y-94099342D02*
X170682969Y-93813628D01*
X170682969Y-93813628D02*
X170730588Y-93718390D01*
X170730588Y-93718390D02*
X170778207Y-93670771D01*
X170778207Y-93670771D02*
X170873445Y-93623152D01*
X170873445Y-93623152D02*
X171063921Y-93623152D01*
X171063921Y-93623152D02*
X171159159Y-93670771D01*
X171635350Y-94289819D02*
X171635350Y-93289819D01*
X172063921Y-94289819D02*
X172063921Y-93766009D01*
X172063921Y-93766009D02*
X172016302Y-93670771D01*
X172016302Y-93670771D02*
X171921064Y-93623152D01*
X171921064Y-93623152D02*
X171778207Y-93623152D01*
X171778207Y-93623152D02*
X171682969Y-93670771D01*
X171682969Y-93670771D02*
X171635350Y-93718390D01*
X173159160Y-93289819D02*
X173492493Y-94289819D01*
X173492493Y-94289819D02*
X173825826Y-93289819D01*
X174302017Y-94289819D02*
X174206779Y-94242200D01*
X174206779Y-94242200D02*
X174159160Y-94194580D01*
X174159160Y-94194580D02*
X174111541Y-94099342D01*
X174111541Y-94099342D02*
X174111541Y-93813628D01*
X174111541Y-93813628D02*
X174159160Y-93718390D01*
X174159160Y-93718390D02*
X174206779Y-93670771D01*
X174206779Y-93670771D02*
X174302017Y-93623152D01*
X174302017Y-93623152D02*
X174444874Y-93623152D01*
X174444874Y-93623152D02*
X174540112Y-93670771D01*
X174540112Y-93670771D02*
X174587731Y-93718390D01*
X174587731Y-93718390D02*
X174635350Y-93813628D01*
X174635350Y-93813628D02*
X174635350Y-94099342D01*
X174635350Y-94099342D02*
X174587731Y-94194580D01*
X174587731Y-94194580D02*
X174540112Y-94242200D01*
X174540112Y-94242200D02*
X174444874Y-94289819D01*
X174444874Y-94289819D02*
X174302017Y-94289819D01*
X175206779Y-94289819D02*
X175111541Y-94242200D01*
X175111541Y-94242200D02*
X175063922Y-94146961D01*
X175063922Y-94146961D02*
X175063922Y-93289819D01*
X175444875Y-93623152D02*
X175825827Y-93623152D01*
X175587732Y-93289819D02*
X175587732Y-94146961D01*
X175587732Y-94146961D02*
X175635351Y-94242200D01*
X175635351Y-94242200D02*
X175730589Y-94289819D01*
X175730589Y-94289819D02*
X175825827Y-94289819D01*
X176587732Y-94289819D02*
X176587732Y-93766009D01*
X176587732Y-93766009D02*
X176540113Y-93670771D01*
X176540113Y-93670771D02*
X176444875Y-93623152D01*
X176444875Y-93623152D02*
X176254399Y-93623152D01*
X176254399Y-93623152D02*
X176159161Y-93670771D01*
X176587732Y-94242200D02*
X176492494Y-94289819D01*
X176492494Y-94289819D02*
X176254399Y-94289819D01*
X176254399Y-94289819D02*
X176159161Y-94242200D01*
X176159161Y-94242200D02*
X176111542Y-94146961D01*
X176111542Y-94146961D02*
X176111542Y-94051723D01*
X176111542Y-94051723D02*
X176159161Y-93956485D01*
X176159161Y-93956485D02*
X176254399Y-93908866D01*
X176254399Y-93908866D02*
X176492494Y-93908866D01*
X176492494Y-93908866D02*
X176587732Y-93861247D01*
X177492494Y-93623152D02*
X177492494Y-94432676D01*
X177492494Y-94432676D02*
X177444875Y-94527914D01*
X177444875Y-94527914D02*
X177397256Y-94575533D01*
X177397256Y-94575533D02*
X177302018Y-94623152D01*
X177302018Y-94623152D02*
X177159161Y-94623152D01*
X177159161Y-94623152D02*
X177063923Y-94575533D01*
X177492494Y-94242200D02*
X177397256Y-94289819D01*
X177397256Y-94289819D02*
X177206780Y-94289819D01*
X177206780Y-94289819D02*
X177111542Y-94242200D01*
X177111542Y-94242200D02*
X177063923Y-94194580D01*
X177063923Y-94194580D02*
X177016304Y-94099342D01*
X177016304Y-94099342D02*
X177016304Y-93813628D01*
X177016304Y-93813628D02*
X177063923Y-93718390D01*
X177063923Y-93718390D02*
X177111542Y-93670771D01*
X177111542Y-93670771D02*
X177206780Y-93623152D01*
X177206780Y-93623152D02*
X177397256Y-93623152D01*
X177397256Y-93623152D02*
X177492494Y-93670771D01*
X178349637Y-94242200D02*
X178254399Y-94289819D01*
X178254399Y-94289819D02*
X178063923Y-94289819D01*
X178063923Y-94289819D02*
X177968685Y-94242200D01*
X177968685Y-94242200D02*
X177921066Y-94146961D01*
X177921066Y-94146961D02*
X177921066Y-93766009D01*
X177921066Y-93766009D02*
X177968685Y-93670771D01*
X177968685Y-93670771D02*
X178063923Y-93623152D01*
X178063923Y-93623152D02*
X178254399Y-93623152D01*
X178254399Y-93623152D02*
X178349637Y-93670771D01*
X178349637Y-93670771D02*
X178397256Y-93766009D01*
X178397256Y-93766009D02*
X178397256Y-93861247D01*
X178397256Y-93861247D02*
X177921066Y-93956485D01*
X163234819Y-109436666D02*
X162758628Y-109769999D01*
X163234819Y-110008094D02*
X162234819Y-110008094D01*
X162234819Y-110008094D02*
X162234819Y-109627142D01*
X162234819Y-109627142D02*
X162282438Y-109531904D01*
X162282438Y-109531904D02*
X162330057Y-109484285D01*
X162330057Y-109484285D02*
X162425295Y-109436666D01*
X162425295Y-109436666D02*
X162568152Y-109436666D01*
X162568152Y-109436666D02*
X162663390Y-109484285D01*
X162663390Y-109484285D02*
X162711009Y-109531904D01*
X162711009Y-109531904D02*
X162758628Y-109627142D01*
X162758628Y-109627142D02*
X162758628Y-110008094D01*
X162234819Y-108579523D02*
X162234819Y-108769999D01*
X162234819Y-108769999D02*
X162282438Y-108865237D01*
X162282438Y-108865237D02*
X162330057Y-108912856D01*
X162330057Y-108912856D02*
X162472914Y-109008094D01*
X162472914Y-109008094D02*
X162663390Y-109055713D01*
X162663390Y-109055713D02*
X163044342Y-109055713D01*
X163044342Y-109055713D02*
X163139580Y-109008094D01*
X163139580Y-109008094D02*
X163187200Y-108960475D01*
X163187200Y-108960475D02*
X163234819Y-108865237D01*
X163234819Y-108865237D02*
X163234819Y-108674761D01*
X163234819Y-108674761D02*
X163187200Y-108579523D01*
X163187200Y-108579523D02*
X163139580Y-108531904D01*
X163139580Y-108531904D02*
X163044342Y-108484285D01*
X163044342Y-108484285D02*
X162806247Y-108484285D01*
X162806247Y-108484285D02*
X162711009Y-108531904D01*
X162711009Y-108531904D02*
X162663390Y-108579523D01*
X162663390Y-108579523D02*
X162615771Y-108674761D01*
X162615771Y-108674761D02*
X162615771Y-108865237D01*
X162615771Y-108865237D02*
X162663390Y-108960475D01*
X162663390Y-108960475D02*
X162711009Y-109008094D01*
X162711009Y-109008094D02*
X162806247Y-109055713D01*
X157094761Y-95027557D02*
X156999523Y-94979938D01*
X156999523Y-94979938D02*
X156904285Y-94884700D01*
X156904285Y-94884700D02*
X156761428Y-94741842D01*
X156761428Y-94741842D02*
X156666190Y-94694223D01*
X156666190Y-94694223D02*
X156570952Y-94694223D01*
X156618571Y-94932319D02*
X156523333Y-94884700D01*
X156523333Y-94884700D02*
X156428095Y-94789461D01*
X156428095Y-94789461D02*
X156380476Y-94598985D01*
X156380476Y-94598985D02*
X156380476Y-94265652D01*
X156380476Y-94265652D02*
X156428095Y-94075176D01*
X156428095Y-94075176D02*
X156523333Y-93979938D01*
X156523333Y-93979938D02*
X156618571Y-93932319D01*
X156618571Y-93932319D02*
X156809047Y-93932319D01*
X156809047Y-93932319D02*
X156904285Y-93979938D01*
X156904285Y-93979938D02*
X156999523Y-94075176D01*
X156999523Y-94075176D02*
X157047142Y-94265652D01*
X157047142Y-94265652D02*
X157047142Y-94598985D01*
X157047142Y-94598985D02*
X156999523Y-94789461D01*
X156999523Y-94789461D02*
X156904285Y-94884700D01*
X156904285Y-94884700D02*
X156809047Y-94932319D01*
X156809047Y-94932319D02*
X156618571Y-94932319D01*
X157428095Y-94027557D02*
X157475714Y-93979938D01*
X157475714Y-93979938D02*
X157570952Y-93932319D01*
X157570952Y-93932319D02*
X157809047Y-93932319D01*
X157809047Y-93932319D02*
X157904285Y-93979938D01*
X157904285Y-93979938D02*
X157951904Y-94027557D01*
X157951904Y-94027557D02*
X157999523Y-94122795D01*
X157999523Y-94122795D02*
X157999523Y-94218033D01*
X157999523Y-94218033D02*
X157951904Y-94360890D01*
X157951904Y-94360890D02*
X157380476Y-94932319D01*
X157380476Y-94932319D02*
X157999523Y-94932319D01*
X173778095Y-82574819D02*
X173778095Y-81574819D01*
X173778095Y-82051009D02*
X174349523Y-82051009D01*
X174349523Y-82574819D02*
X174349523Y-81574819D01*
X174730476Y-81574819D02*
X175349523Y-81574819D01*
X175349523Y-81574819D02*
X175016190Y-81955771D01*
X175016190Y-81955771D02*
X175159047Y-81955771D01*
X175159047Y-81955771D02*
X175254285Y-82003390D01*
X175254285Y-82003390D02*
X175301904Y-82051009D01*
X175301904Y-82051009D02*
X175349523Y-82146247D01*
X175349523Y-82146247D02*
X175349523Y-82384342D01*
X175349523Y-82384342D02*
X175301904Y-82479580D01*
X175301904Y-82479580D02*
X175254285Y-82527200D01*
X175254285Y-82527200D02*
X175159047Y-82574819D01*
X175159047Y-82574819D02*
X174873333Y-82574819D01*
X174873333Y-82574819D02*
X174778095Y-82527200D01*
X174778095Y-82527200D02*
X174730476Y-82479580D01*
X98269580Y-97394601D02*
X98317200Y-97442220D01*
X98317200Y-97442220D02*
X98364819Y-97585077D01*
X98364819Y-97585077D02*
X98364819Y-97680315D01*
X98364819Y-97680315D02*
X98317200Y-97823172D01*
X98317200Y-97823172D02*
X98221961Y-97918410D01*
X98221961Y-97918410D02*
X98126723Y-97966029D01*
X98126723Y-97966029D02*
X97936247Y-98013648D01*
X97936247Y-98013648D02*
X97793390Y-98013648D01*
X97793390Y-98013648D02*
X97602914Y-97966029D01*
X97602914Y-97966029D02*
X97507676Y-97918410D01*
X97507676Y-97918410D02*
X97412438Y-97823172D01*
X97412438Y-97823172D02*
X97364819Y-97680315D01*
X97364819Y-97680315D02*
X97364819Y-97585077D01*
X97364819Y-97585077D02*
X97412438Y-97442220D01*
X97412438Y-97442220D02*
X97460057Y-97394601D01*
X97460057Y-97013648D02*
X97412438Y-96966029D01*
X97412438Y-96966029D02*
X97364819Y-96870791D01*
X97364819Y-96870791D02*
X97364819Y-96632696D01*
X97364819Y-96632696D02*
X97412438Y-96537458D01*
X97412438Y-96537458D02*
X97460057Y-96489839D01*
X97460057Y-96489839D02*
X97555295Y-96442220D01*
X97555295Y-96442220D02*
X97650533Y-96442220D01*
X97650533Y-96442220D02*
X97793390Y-96489839D01*
X97793390Y-96489839D02*
X98364819Y-97061267D01*
X98364819Y-97061267D02*
X98364819Y-96442220D01*
X150824405Y-92634819D02*
X150824405Y-91634819D01*
X150824405Y-91634819D02*
X151062500Y-91634819D01*
X151062500Y-91634819D02*
X151205357Y-91682438D01*
X151205357Y-91682438D02*
X151300595Y-91777676D01*
X151300595Y-91777676D02*
X151348214Y-91872914D01*
X151348214Y-91872914D02*
X151395833Y-92063390D01*
X151395833Y-92063390D02*
X151395833Y-92206247D01*
X151395833Y-92206247D02*
X151348214Y-92396723D01*
X151348214Y-92396723D02*
X151300595Y-92491961D01*
X151300595Y-92491961D02*
X151205357Y-92587200D01*
X151205357Y-92587200D02*
X151062500Y-92634819D01*
X151062500Y-92634819D02*
X150824405Y-92634819D01*
X151729167Y-91634819D02*
X152348214Y-91634819D01*
X152348214Y-91634819D02*
X152014881Y-92015771D01*
X152014881Y-92015771D02*
X152157738Y-92015771D01*
X152157738Y-92015771D02*
X152252976Y-92063390D01*
X152252976Y-92063390D02*
X152300595Y-92111009D01*
X152300595Y-92111009D02*
X152348214Y-92206247D01*
X152348214Y-92206247D02*
X152348214Y-92444342D01*
X152348214Y-92444342D02*
X152300595Y-92539580D01*
X152300595Y-92539580D02*
X152252976Y-92587200D01*
X152252976Y-92587200D02*
X152157738Y-92634819D01*
X152157738Y-92634819D02*
X151872024Y-92634819D01*
X151872024Y-92634819D02*
X151776786Y-92587200D01*
X151776786Y-92587200D02*
X151729167Y-92539580D01*
X151974819Y-97896666D02*
X151498628Y-98229999D01*
X151974819Y-98468094D02*
X150974819Y-98468094D01*
X150974819Y-98468094D02*
X150974819Y-98087142D01*
X150974819Y-98087142D02*
X151022438Y-97991904D01*
X151022438Y-97991904D02*
X151070057Y-97944285D01*
X151070057Y-97944285D02*
X151165295Y-97896666D01*
X151165295Y-97896666D02*
X151308152Y-97896666D01*
X151308152Y-97896666D02*
X151403390Y-97944285D01*
X151403390Y-97944285D02*
X151451009Y-97991904D01*
X151451009Y-97991904D02*
X151498628Y-98087142D01*
X151498628Y-98087142D02*
X151498628Y-98468094D01*
X151308152Y-97039523D02*
X151974819Y-97039523D01*
X150927200Y-97277618D02*
X151641485Y-97515713D01*
X151641485Y-97515713D02*
X151641485Y-96896666D01*
X171083333Y-98174819D02*
X171083333Y-97174819D01*
X171321428Y-98270057D02*
X172083332Y-98270057D01*
X172273809Y-98127200D02*
X172416666Y-98174819D01*
X172416666Y-98174819D02*
X172654761Y-98174819D01*
X172654761Y-98174819D02*
X172749999Y-98127200D01*
X172749999Y-98127200D02*
X172797618Y-98079580D01*
X172797618Y-98079580D02*
X172845237Y-97984342D01*
X172845237Y-97984342D02*
X172845237Y-97889104D01*
X172845237Y-97889104D02*
X172797618Y-97793866D01*
X172797618Y-97793866D02*
X172749999Y-97746247D01*
X172749999Y-97746247D02*
X172654761Y-97698628D01*
X172654761Y-97698628D02*
X172464285Y-97651009D01*
X172464285Y-97651009D02*
X172369047Y-97603390D01*
X172369047Y-97603390D02*
X172321428Y-97555771D01*
X172321428Y-97555771D02*
X172273809Y-97460533D01*
X172273809Y-97460533D02*
X172273809Y-97365295D01*
X172273809Y-97365295D02*
X172321428Y-97270057D01*
X172321428Y-97270057D02*
X172369047Y-97222438D01*
X172369047Y-97222438D02*
X172464285Y-97174819D01*
X172464285Y-97174819D02*
X172702380Y-97174819D01*
X172702380Y-97174819D02*
X172845237Y-97222438D01*
X173273809Y-97651009D02*
X173607142Y-97651009D01*
X173749999Y-98174819D02*
X173273809Y-98174819D01*
X173273809Y-98174819D02*
X173273809Y-97174819D01*
X173273809Y-97174819D02*
X173749999Y-97174819D01*
X174035714Y-97174819D02*
X174607142Y-97174819D01*
X174321428Y-98174819D02*
X174321428Y-97174819D01*
X175464285Y-98174819D02*
X174892857Y-98174819D01*
X175178571Y-98174819D02*
X175178571Y-97174819D01*
X175178571Y-97174819D02*
X175083333Y-97317676D01*
X175083333Y-97317676D02*
X174988095Y-97412914D01*
X174988095Y-97412914D02*
X174892857Y-97460533D01*
X131968095Y-103694819D02*
X131968095Y-102694819D01*
X131968095Y-103171009D02*
X132539523Y-103171009D01*
X132539523Y-103694819D02*
X132539523Y-102694819D01*
X133539523Y-103694819D02*
X132968095Y-103694819D01*
X133253809Y-103694819D02*
X133253809Y-102694819D01*
X133253809Y-102694819D02*
X133158571Y-102837676D01*
X133158571Y-102837676D02*
X133063333Y-102932914D01*
X133063333Y-102932914D02*
X132968095Y-102980533D01*
X142381905Y-109434819D02*
X142381905Y-108434819D01*
X142381905Y-108434819D02*
X142620000Y-108434819D01*
X142620000Y-108434819D02*
X142762857Y-108482438D01*
X142762857Y-108482438D02*
X142858095Y-108577676D01*
X142858095Y-108577676D02*
X142905714Y-108672914D01*
X142905714Y-108672914D02*
X142953333Y-108863390D01*
X142953333Y-108863390D02*
X142953333Y-109006247D01*
X142953333Y-109006247D02*
X142905714Y-109196723D01*
X142905714Y-109196723D02*
X142858095Y-109291961D01*
X142858095Y-109291961D02*
X142762857Y-109387200D01*
X142762857Y-109387200D02*
X142620000Y-109434819D01*
X142620000Y-109434819D02*
X142381905Y-109434819D01*
X143334286Y-108530057D02*
X143381905Y-108482438D01*
X143381905Y-108482438D02*
X143477143Y-108434819D01*
X143477143Y-108434819D02*
X143715238Y-108434819D01*
X143715238Y-108434819D02*
X143810476Y-108482438D01*
X143810476Y-108482438D02*
X143858095Y-108530057D01*
X143858095Y-108530057D02*
X143905714Y-108625295D01*
X143905714Y-108625295D02*
X143905714Y-108720533D01*
X143905714Y-108720533D02*
X143858095Y-108863390D01*
X143858095Y-108863390D02*
X143286667Y-109434819D01*
X143286667Y-109434819D02*
X143905714Y-109434819D01*
X152238095Y-85814819D02*
X152238095Y-86624342D01*
X152238095Y-86624342D02*
X152285714Y-86719580D01*
X152285714Y-86719580D02*
X152333333Y-86767200D01*
X152333333Y-86767200D02*
X152428571Y-86814819D01*
X152428571Y-86814819D02*
X152619047Y-86814819D01*
X152619047Y-86814819D02*
X152714285Y-86767200D01*
X152714285Y-86767200D02*
X152761904Y-86719580D01*
X152761904Y-86719580D02*
X152809523Y-86624342D01*
X152809523Y-86624342D02*
X152809523Y-85814819D01*
X153809523Y-86814819D02*
X153238095Y-86814819D01*
X153523809Y-86814819D02*
X153523809Y-85814819D01*
X153523809Y-85814819D02*
X153428571Y-85957676D01*
X153428571Y-85957676D02*
X153333333Y-86052914D01*
X153333333Y-86052914D02*
X153238095Y-86100533D01*
X164794819Y-103378094D02*
X163794819Y-103378094D01*
X163794819Y-103378094D02*
X163794819Y-103139999D01*
X163794819Y-103139999D02*
X163842438Y-102997142D01*
X163842438Y-102997142D02*
X163937676Y-102901904D01*
X163937676Y-102901904D02*
X164032914Y-102854285D01*
X164032914Y-102854285D02*
X164223390Y-102806666D01*
X164223390Y-102806666D02*
X164366247Y-102806666D01*
X164366247Y-102806666D02*
X164556723Y-102854285D01*
X164556723Y-102854285D02*
X164651961Y-102901904D01*
X164651961Y-102901904D02*
X164747200Y-102997142D01*
X164747200Y-102997142D02*
X164794819Y-103139999D01*
X164794819Y-103139999D02*
X164794819Y-103378094D01*
X164128152Y-101949523D02*
X164794819Y-101949523D01*
X163747200Y-102187618D02*
X164461485Y-102425713D01*
X164461485Y-102425713D02*
X164461485Y-101806666D01*
X166940000Y-109744819D02*
X167273333Y-110744819D01*
X167273333Y-110744819D02*
X167606666Y-109744819D01*
X167701905Y-110840057D02*
X168463809Y-110840057D01*
X168654286Y-110697200D02*
X168797143Y-110744819D01*
X168797143Y-110744819D02*
X169035238Y-110744819D01*
X169035238Y-110744819D02*
X169130476Y-110697200D01*
X169130476Y-110697200D02*
X169178095Y-110649580D01*
X169178095Y-110649580D02*
X169225714Y-110554342D01*
X169225714Y-110554342D02*
X169225714Y-110459104D01*
X169225714Y-110459104D02*
X169178095Y-110363866D01*
X169178095Y-110363866D02*
X169130476Y-110316247D01*
X169130476Y-110316247D02*
X169035238Y-110268628D01*
X169035238Y-110268628D02*
X168844762Y-110221009D01*
X168844762Y-110221009D02*
X168749524Y-110173390D01*
X168749524Y-110173390D02*
X168701905Y-110125771D01*
X168701905Y-110125771D02*
X168654286Y-110030533D01*
X168654286Y-110030533D02*
X168654286Y-109935295D01*
X168654286Y-109935295D02*
X168701905Y-109840057D01*
X168701905Y-109840057D02*
X168749524Y-109792438D01*
X168749524Y-109792438D02*
X168844762Y-109744819D01*
X168844762Y-109744819D02*
X169082857Y-109744819D01*
X169082857Y-109744819D02*
X169225714Y-109792438D01*
X169654286Y-110221009D02*
X169987619Y-110221009D01*
X170130476Y-110744819D02*
X169654286Y-110744819D01*
X169654286Y-110744819D02*
X169654286Y-109744819D01*
X169654286Y-109744819D02*
X170130476Y-109744819D01*
X170416191Y-109744819D02*
X170987619Y-109744819D01*
X170701905Y-110744819D02*
X170701905Y-109744819D01*
X171844762Y-110744819D02*
X171273334Y-110744819D01*
X171559048Y-110744819D02*
X171559048Y-109744819D01*
X171559048Y-109744819D02*
X171463810Y-109887676D01*
X171463810Y-109887676D02*
X171368572Y-109982914D01*
X171368572Y-109982914D02*
X171273334Y-110030533D01*
X149009405Y-109434819D02*
X149009405Y-108434819D01*
X149009405Y-108434819D02*
X149247500Y-108434819D01*
X149247500Y-108434819D02*
X149390357Y-108482438D01*
X149390357Y-108482438D02*
X149485595Y-108577676D01*
X149485595Y-108577676D02*
X149533214Y-108672914D01*
X149533214Y-108672914D02*
X149580833Y-108863390D01*
X149580833Y-108863390D02*
X149580833Y-109006247D01*
X149580833Y-109006247D02*
X149533214Y-109196723D01*
X149533214Y-109196723D02*
X149485595Y-109291961D01*
X149485595Y-109291961D02*
X149390357Y-109387200D01*
X149390357Y-109387200D02*
X149247500Y-109434819D01*
X149247500Y-109434819D02*
X149009405Y-109434819D01*
X150533214Y-109434819D02*
X149961786Y-109434819D01*
X150247500Y-109434819D02*
X150247500Y-108434819D01*
X150247500Y-108434819D02*
X150152262Y-108577676D01*
X150152262Y-108577676D02*
X150057024Y-108672914D01*
X150057024Y-108672914D02*
X149961786Y-108720533D01*
X151974819Y-101906666D02*
X151498628Y-102239999D01*
X151974819Y-102478094D02*
X150974819Y-102478094D01*
X150974819Y-102478094D02*
X150974819Y-102097142D01*
X150974819Y-102097142D02*
X151022438Y-102001904D01*
X151022438Y-102001904D02*
X151070057Y-101954285D01*
X151070057Y-101954285D02*
X151165295Y-101906666D01*
X151165295Y-101906666D02*
X151308152Y-101906666D01*
X151308152Y-101906666D02*
X151403390Y-101954285D01*
X151403390Y-101954285D02*
X151451009Y-102001904D01*
X151451009Y-102001904D02*
X151498628Y-102097142D01*
X151498628Y-102097142D02*
X151498628Y-102478094D01*
X151070057Y-101525713D02*
X151022438Y-101478094D01*
X151022438Y-101478094D02*
X150974819Y-101382856D01*
X150974819Y-101382856D02*
X150974819Y-101144761D01*
X150974819Y-101144761D02*
X151022438Y-101049523D01*
X151022438Y-101049523D02*
X151070057Y-101001904D01*
X151070057Y-101001904D02*
X151165295Y-100954285D01*
X151165295Y-100954285D02*
X151260533Y-100954285D01*
X151260533Y-100954285D02*
X151403390Y-101001904D01*
X151403390Y-101001904D02*
X151974819Y-101573332D01*
X151974819Y-101573332D02*
X151974819Y-100954285D01*
X187669580Y-104666666D02*
X187717200Y-104714285D01*
X187717200Y-104714285D02*
X187764819Y-104857142D01*
X187764819Y-104857142D02*
X187764819Y-104952380D01*
X187764819Y-104952380D02*
X187717200Y-105095237D01*
X187717200Y-105095237D02*
X187621961Y-105190475D01*
X187621961Y-105190475D02*
X187526723Y-105238094D01*
X187526723Y-105238094D02*
X187336247Y-105285713D01*
X187336247Y-105285713D02*
X187193390Y-105285713D01*
X187193390Y-105285713D02*
X187002914Y-105238094D01*
X187002914Y-105238094D02*
X186907676Y-105190475D01*
X186907676Y-105190475D02*
X186812438Y-105095237D01*
X186812438Y-105095237D02*
X186764819Y-104952380D01*
X186764819Y-104952380D02*
X186764819Y-104857142D01*
X186764819Y-104857142D02*
X186812438Y-104714285D01*
X186812438Y-104714285D02*
X186860057Y-104666666D01*
X187764819Y-103714285D02*
X187764819Y-104285713D01*
X187764819Y-103999999D02*
X186764819Y-103999999D01*
X186764819Y-103999999D02*
X186907676Y-104095237D01*
X186907676Y-104095237D02*
X187002914Y-104190475D01*
X187002914Y-104190475D02*
X187050533Y-104285713D01*
X98258095Y-82574819D02*
X98258095Y-81574819D01*
X98258095Y-82051009D02*
X98829523Y-82051009D01*
X98829523Y-82574819D02*
X98829523Y-81574819D01*
X99258095Y-81670057D02*
X99305714Y-81622438D01*
X99305714Y-81622438D02*
X99400952Y-81574819D01*
X99400952Y-81574819D02*
X99639047Y-81574819D01*
X99639047Y-81574819D02*
X99734285Y-81622438D01*
X99734285Y-81622438D02*
X99781904Y-81670057D01*
X99781904Y-81670057D02*
X99829523Y-81765295D01*
X99829523Y-81765295D02*
X99829523Y-81860533D01*
X99829523Y-81860533D02*
X99781904Y-82003390D01*
X99781904Y-82003390D02*
X99210476Y-82574819D01*
X99210476Y-82574819D02*
X99829523Y-82574819D01*
X167135595Y-98924819D02*
X167135595Y-99734342D01*
X167135595Y-99734342D02*
X167183214Y-99829580D01*
X167183214Y-99829580D02*
X167230833Y-99877200D01*
X167230833Y-99877200D02*
X167326071Y-99924819D01*
X167326071Y-99924819D02*
X167516547Y-99924819D01*
X167516547Y-99924819D02*
X167611785Y-99877200D01*
X167611785Y-99877200D02*
X167659404Y-99829580D01*
X167659404Y-99829580D02*
X167707023Y-99734342D01*
X167707023Y-99734342D02*
X167707023Y-98924819D01*
X168135595Y-99020057D02*
X168183214Y-98972438D01*
X168183214Y-98972438D02*
X168278452Y-98924819D01*
X168278452Y-98924819D02*
X168516547Y-98924819D01*
X168516547Y-98924819D02*
X168611785Y-98972438D01*
X168611785Y-98972438D02*
X168659404Y-99020057D01*
X168659404Y-99020057D02*
X168707023Y-99115295D01*
X168707023Y-99115295D02*
X168707023Y-99210533D01*
X168707023Y-99210533D02*
X168659404Y-99353390D01*
X168659404Y-99353390D02*
X168087976Y-99924819D01*
X168087976Y-99924819D02*
X168707023Y-99924819D01*
X89071905Y-99394819D02*
X89071905Y-98394819D01*
X89071905Y-98394819D02*
X89310000Y-98394819D01*
X89310000Y-98394819D02*
X89452857Y-98442438D01*
X89452857Y-98442438D02*
X89548095Y-98537676D01*
X89548095Y-98537676D02*
X89595714Y-98632914D01*
X89595714Y-98632914D02*
X89643333Y-98823390D01*
X89643333Y-98823390D02*
X89643333Y-98966247D01*
X89643333Y-98966247D02*
X89595714Y-99156723D01*
X89595714Y-99156723D02*
X89548095Y-99251961D01*
X89548095Y-99251961D02*
X89452857Y-99347200D01*
X89452857Y-99347200D02*
X89310000Y-99394819D01*
X89310000Y-99394819D02*
X89071905Y-99394819D01*
X90548095Y-98394819D02*
X90071905Y-98394819D01*
X90071905Y-98394819D02*
X90024286Y-98871009D01*
X90024286Y-98871009D02*
X90071905Y-98823390D01*
X90071905Y-98823390D02*
X90167143Y-98775771D01*
X90167143Y-98775771D02*
X90405238Y-98775771D01*
X90405238Y-98775771D02*
X90500476Y-98823390D01*
X90500476Y-98823390D02*
X90548095Y-98871009D01*
X90548095Y-98871009D02*
X90595714Y-98966247D01*
X90595714Y-98966247D02*
X90595714Y-99204342D01*
X90595714Y-99204342D02*
X90548095Y-99299580D01*
X90548095Y-99299580D02*
X90500476Y-99347200D01*
X90500476Y-99347200D02*
X90405238Y-99394819D01*
X90405238Y-99394819D02*
X90167143Y-99394819D01*
X90167143Y-99394819D02*
X90071905Y-99347200D01*
X90071905Y-99347200D02*
X90024286Y-99299580D01*
X143660833Y-93247319D02*
X143327500Y-92771128D01*
X143089405Y-93247319D02*
X143089405Y-92247319D01*
X143089405Y-92247319D02*
X143470357Y-92247319D01*
X143470357Y-92247319D02*
X143565595Y-92294938D01*
X143565595Y-92294938D02*
X143613214Y-92342557D01*
X143613214Y-92342557D02*
X143660833Y-92437795D01*
X143660833Y-92437795D02*
X143660833Y-92580652D01*
X143660833Y-92580652D02*
X143613214Y-92675890D01*
X143613214Y-92675890D02*
X143565595Y-92723509D01*
X143565595Y-92723509D02*
X143470357Y-92771128D01*
X143470357Y-92771128D02*
X143089405Y-92771128D01*
X144613214Y-93247319D02*
X144041786Y-93247319D01*
X144327500Y-93247319D02*
X144327500Y-92247319D01*
X144327500Y-92247319D02*
X144232262Y-92390176D01*
X144232262Y-92390176D02*
X144137024Y-92485414D01*
X144137024Y-92485414D02*
X144041786Y-92533033D01*
X159544819Y-109416666D02*
X159068628Y-109749999D01*
X159544819Y-109988094D02*
X158544819Y-109988094D01*
X158544819Y-109988094D02*
X158544819Y-109607142D01*
X158544819Y-109607142D02*
X158592438Y-109511904D01*
X158592438Y-109511904D02*
X158640057Y-109464285D01*
X158640057Y-109464285D02*
X158735295Y-109416666D01*
X158735295Y-109416666D02*
X158878152Y-109416666D01*
X158878152Y-109416666D02*
X158973390Y-109464285D01*
X158973390Y-109464285D02*
X159021009Y-109511904D01*
X159021009Y-109511904D02*
X159068628Y-109607142D01*
X159068628Y-109607142D02*
X159068628Y-109988094D01*
X158544819Y-108511904D02*
X158544819Y-108988094D01*
X158544819Y-108988094D02*
X159021009Y-109035713D01*
X159021009Y-109035713D02*
X158973390Y-108988094D01*
X158973390Y-108988094D02*
X158925771Y-108892856D01*
X158925771Y-108892856D02*
X158925771Y-108654761D01*
X158925771Y-108654761D02*
X158973390Y-108559523D01*
X158973390Y-108559523D02*
X159021009Y-108511904D01*
X159021009Y-108511904D02*
X159116247Y-108464285D01*
X159116247Y-108464285D02*
X159354342Y-108464285D01*
X159354342Y-108464285D02*
X159449580Y-108511904D01*
X159449580Y-108511904D02*
X159497200Y-108559523D01*
X159497200Y-108559523D02*
X159544819Y-108654761D01*
X159544819Y-108654761D02*
X159544819Y-108892856D01*
X159544819Y-108892856D02*
X159497200Y-108988094D01*
X159497200Y-108988094D02*
X159449580Y-109035713D01*
X141622261Y-105542557D02*
X141527023Y-105494938D01*
X141527023Y-105494938D02*
X141431785Y-105399700D01*
X141431785Y-105399700D02*
X141288928Y-105256842D01*
X141288928Y-105256842D02*
X141193690Y-105209223D01*
X141193690Y-105209223D02*
X141098452Y-105209223D01*
X141146071Y-105447319D02*
X141050833Y-105399700D01*
X141050833Y-105399700D02*
X140955595Y-105304461D01*
X140955595Y-105304461D02*
X140907976Y-105113985D01*
X140907976Y-105113985D02*
X140907976Y-104780652D01*
X140907976Y-104780652D02*
X140955595Y-104590176D01*
X140955595Y-104590176D02*
X141050833Y-104494938D01*
X141050833Y-104494938D02*
X141146071Y-104447319D01*
X141146071Y-104447319D02*
X141336547Y-104447319D01*
X141336547Y-104447319D02*
X141431785Y-104494938D01*
X141431785Y-104494938D02*
X141527023Y-104590176D01*
X141527023Y-104590176D02*
X141574642Y-104780652D01*
X141574642Y-104780652D02*
X141574642Y-105113985D01*
X141574642Y-105113985D02*
X141527023Y-105304461D01*
X141527023Y-105304461D02*
X141431785Y-105399700D01*
X141431785Y-105399700D02*
X141336547Y-105447319D01*
X141336547Y-105447319D02*
X141146071Y-105447319D01*
X142527023Y-105447319D02*
X141955595Y-105447319D01*
X142241309Y-105447319D02*
X142241309Y-104447319D01*
X142241309Y-104447319D02*
X142146071Y-104590176D01*
X142146071Y-104590176D02*
X142050833Y-104685414D01*
X142050833Y-104685414D02*
X141955595Y-104733033D01*
X155534819Y-105861904D02*
X156344342Y-105861904D01*
X156344342Y-105861904D02*
X156439580Y-105814285D01*
X156439580Y-105814285D02*
X156487200Y-105766666D01*
X156487200Y-105766666D02*
X156534819Y-105671428D01*
X156534819Y-105671428D02*
X156534819Y-105480952D01*
X156534819Y-105480952D02*
X156487200Y-105385714D01*
X156487200Y-105385714D02*
X156439580Y-105338095D01*
X156439580Y-105338095D02*
X156344342Y-105290476D01*
X156344342Y-105290476D02*
X155534819Y-105290476D01*
X155534819Y-104909523D02*
X155534819Y-104290476D01*
X155534819Y-104290476D02*
X155915771Y-104623809D01*
X155915771Y-104623809D02*
X155915771Y-104480952D01*
X155915771Y-104480952D02*
X155963390Y-104385714D01*
X155963390Y-104385714D02*
X156011009Y-104338095D01*
X156011009Y-104338095D02*
X156106247Y-104290476D01*
X156106247Y-104290476D02*
X156344342Y-104290476D01*
X156344342Y-104290476D02*
X156439580Y-104338095D01*
X156439580Y-104338095D02*
X156487200Y-104385714D01*
X156487200Y-104385714D02*
X156534819Y-104480952D01*
X156534819Y-104480952D02*
X156534819Y-104766666D01*
X156534819Y-104766666D02*
X156487200Y-104861904D01*
X156487200Y-104861904D02*
X156439580Y-104909523D01*
D11*
%TO.C,R6*%
X160365000Y-109008748D02*
X160365000Y-109531252D01*
X161835000Y-109008748D02*
X161835000Y-109531252D01*
%TO.C,Q2*%
X155340000Y-95567500D02*
X159100000Y-95567500D01*
X155340000Y-102387500D02*
X159100000Y-102387500D01*
X159100000Y-95567500D02*
X159100000Y-96827500D01*
X159100000Y-102387500D02*
X159100000Y-101127500D01*
X154060000Y-95667500D02*
X153820000Y-95337500D01*
X154300000Y-95337500D01*
X154060000Y-95667500D01*
G36*
X154060000Y-95667500D02*
G01*
X153820000Y-95337500D01*
X154300000Y-95337500D01*
X154060000Y-95667500D01*
G37*
%TO.C,C2*%
X99080000Y-97107935D02*
X129240000Y-97107935D01*
X99080000Y-97147935D02*
X129240000Y-97147935D01*
X99080000Y-97187935D02*
X129240000Y-97187935D01*
X99080000Y-97227935D02*
X129240000Y-97227935D01*
X99081000Y-97027935D02*
X129239000Y-97027935D01*
X99081000Y-97067935D02*
X129239000Y-97067935D01*
X99082000Y-96987935D02*
X129238000Y-96987935D01*
X99083000Y-96907935D02*
X129237000Y-96907935D01*
X99083000Y-96947935D02*
X129237000Y-96947935D01*
X99084000Y-96867935D02*
X129236000Y-96867935D01*
X99085000Y-96827935D02*
X129235000Y-96827935D01*
X99086000Y-96787935D02*
X129234000Y-96787935D01*
X99088000Y-96747935D02*
X129232000Y-96747935D01*
X99089000Y-96707935D02*
X129231000Y-96707935D01*
X99090000Y-96667935D02*
X129230000Y-96667935D01*
X99092000Y-96627935D02*
X129228000Y-96627935D01*
X99094000Y-96587935D02*
X129226000Y-96587935D01*
X99095000Y-96547935D02*
X129225000Y-96547935D01*
X99097000Y-96507935D02*
X129223000Y-96507935D01*
X99099000Y-96467935D02*
X129221000Y-96467935D01*
X99101000Y-96427935D02*
X129219000Y-96427935D01*
X99103000Y-96387935D02*
X129217000Y-96387935D01*
X99106000Y-96347935D02*
X129214000Y-96347935D01*
X99108000Y-96307935D02*
X129212000Y-96307935D01*
X99111000Y-96267935D02*
X129209000Y-96267935D01*
X99113000Y-96227935D02*
X129207000Y-96227935D01*
X99116000Y-96187935D02*
X129204000Y-96187935D01*
X99119000Y-96147935D02*
X129201000Y-96147935D01*
X99122000Y-96107935D02*
X129198000Y-96107935D01*
X99125000Y-96067935D02*
X129195000Y-96067935D01*
X99128000Y-96027935D02*
X129192000Y-96027935D01*
X99131000Y-95987935D02*
X129189000Y-95987935D01*
X99134000Y-95947935D02*
X129186000Y-95947935D01*
X99138000Y-95907935D02*
X129182000Y-95907935D01*
X99141000Y-95867935D02*
X129179000Y-95867935D01*
X99145000Y-95827935D02*
X129175000Y-95827935D01*
X99149000Y-95787935D02*
X129171000Y-95787935D01*
X99153000Y-95747935D02*
X129167000Y-95747935D01*
X99157000Y-95707935D02*
X129163000Y-95707935D01*
X99161000Y-95667935D02*
X129159000Y-95667935D01*
X99165000Y-95627935D02*
X129155000Y-95627935D01*
X99169000Y-95587935D02*
X129151000Y-95587935D01*
X99174000Y-95547935D02*
X129146000Y-95547935D01*
X99178000Y-95507935D02*
X129142000Y-95507935D01*
X99183000Y-95467935D02*
X129137000Y-95467935D01*
X99188000Y-95427935D02*
X129132000Y-95427935D01*
X99192000Y-95387935D02*
X129128000Y-95387935D01*
X99197000Y-95347935D02*
X129123000Y-95347935D01*
X99202000Y-95307935D02*
X129118000Y-95307935D01*
X99208000Y-95267935D02*
X129112000Y-95267935D01*
X99213000Y-95227935D02*
X129107000Y-95227935D01*
X99218000Y-95187935D02*
X129102000Y-95187935D01*
X99224000Y-95147935D02*
X129096000Y-95147935D01*
X99229000Y-95107935D02*
X129091000Y-95107935D01*
X99235000Y-95067935D02*
X129085000Y-95067935D01*
X99241000Y-95027935D02*
X129079000Y-95027935D01*
X99247000Y-94987935D02*
X129073000Y-94987935D01*
X99253000Y-94947935D02*
X129067000Y-94947935D01*
X99259000Y-94907935D02*
X129061000Y-94907935D01*
X99265000Y-94867935D02*
X129055000Y-94867935D01*
X99272000Y-94827935D02*
X129048000Y-94827935D01*
X99278000Y-94787935D02*
X129042000Y-94787935D01*
X99285000Y-94747935D02*
X129035000Y-94747935D01*
X99291000Y-94707935D02*
X129029000Y-94707935D01*
X99298000Y-94667935D02*
X129022000Y-94667935D01*
X99305000Y-94627935D02*
X129015000Y-94627935D01*
X99312000Y-94587935D02*
X129008000Y-94587935D01*
X99319000Y-94547935D02*
X129001000Y-94547935D01*
X99327000Y-94507935D02*
X128993000Y-94507935D01*
X99334000Y-94467935D02*
X128986000Y-94467935D01*
X99342000Y-94427935D02*
X111920000Y-94427935D01*
X99349000Y-94387935D02*
X111920000Y-94387935D01*
X99357000Y-94347935D02*
X111920000Y-94347935D01*
X99365000Y-94307935D02*
X111920000Y-94307935D01*
X99373000Y-94267935D02*
X111920000Y-94267935D01*
X99381000Y-94227935D02*
X111920000Y-94227935D01*
X99389000Y-94187935D02*
X111920000Y-94187935D01*
X99397000Y-94147935D02*
X111920000Y-94147935D01*
X99405000Y-94107935D02*
X111920000Y-94107935D01*
X99414000Y-94067935D02*
X111920000Y-94067935D01*
X99423000Y-94027935D02*
X111920000Y-94027935D01*
X99431000Y-93987935D02*
X111920000Y-93987935D01*
X99440000Y-93947935D02*
X111920000Y-93947935D01*
X99449000Y-93907935D02*
X111920000Y-93907935D01*
X99458000Y-93867935D02*
X111920000Y-93867935D01*
X99467000Y-93827935D02*
X111920000Y-93827935D01*
X99477000Y-93787935D02*
X111920000Y-93787935D01*
X99486000Y-93747935D02*
X111920000Y-93747935D01*
X99495000Y-93707935D02*
X111920000Y-93707935D01*
X99505000Y-93667935D02*
X111920000Y-93667935D01*
X99515000Y-93627935D02*
X111920000Y-93627935D01*
X99525000Y-93587935D02*
X111920000Y-93587935D01*
X99535000Y-93547935D02*
X111920000Y-93547935D01*
X99545000Y-93507935D02*
X111920000Y-93507935D01*
X99555000Y-93467935D02*
X111920000Y-93467935D01*
X99565000Y-93427935D02*
X111920000Y-93427935D01*
X99576000Y-93387935D02*
X111920000Y-93387935D01*
X99586000Y-93347935D02*
X111920000Y-93347935D01*
X99597000Y-93307935D02*
X111920000Y-93307935D01*
X99608000Y-93267935D02*
X111920000Y-93267935D01*
X99619000Y-93227935D02*
X111920000Y-93227935D01*
X99630000Y-93187935D02*
X111920000Y-93187935D01*
X99641000Y-93147935D02*
X111920000Y-93147935D01*
X99652000Y-93107935D02*
X111920000Y-93107935D01*
X99664000Y-93067935D02*
X111920000Y-93067935D01*
X99675000Y-93027935D02*
X111920000Y-93027935D01*
X99687000Y-92987935D02*
X111920000Y-92987935D01*
X99698000Y-92947935D02*
X111920000Y-92947935D01*
X99710000Y-92907935D02*
X111920000Y-92907935D01*
X99722000Y-92867935D02*
X111920000Y-92867935D01*
X99734000Y-92827935D02*
X111920000Y-92827935D01*
X99747000Y-92787935D02*
X111920000Y-92787935D01*
X99759000Y-92747935D02*
X111920000Y-92747935D01*
X99771000Y-92707935D02*
X111920000Y-92707935D01*
X99784000Y-92667935D02*
X111920000Y-92667935D01*
X99797000Y-92627935D02*
X111920000Y-92627935D01*
X99810000Y-92587935D02*
X111920000Y-92587935D01*
X99823000Y-92547935D02*
X111920000Y-92547935D01*
X99836000Y-92507935D02*
X111920000Y-92507935D01*
X99849000Y-92467935D02*
X111920000Y-92467935D01*
X99862000Y-92427935D02*
X111920000Y-92427935D01*
X99876000Y-92387935D02*
X111920000Y-92387935D01*
X99889000Y-92347935D02*
X111920000Y-92347935D01*
X99903000Y-92307935D02*
X111920000Y-92307935D01*
X99917000Y-92267935D02*
X111920000Y-92267935D01*
X99931000Y-92227935D02*
X111920000Y-92227935D01*
X99945000Y-92187935D02*
X111920000Y-92187935D01*
X99959000Y-92147935D02*
X111920000Y-92147935D01*
X99973000Y-92107935D02*
X111920000Y-92107935D01*
X99988000Y-92067935D02*
X111920000Y-92067935D01*
X100002000Y-92027935D02*
X111920000Y-92027935D01*
X100017000Y-91987935D02*
X111920000Y-91987935D01*
X100032000Y-91947935D02*
X111920000Y-91947935D01*
X100047000Y-91907935D02*
X111920000Y-91907935D01*
X100062000Y-91867935D02*
X111920000Y-91867935D01*
X100077000Y-91827935D02*
X111920000Y-91827935D01*
X100093000Y-91787935D02*
X111920000Y-91787935D01*
X100108000Y-91747935D02*
X111920000Y-91747935D01*
X100124000Y-91707935D02*
X111920000Y-91707935D01*
X100139000Y-91667935D02*
X111920000Y-91667935D01*
X100155000Y-91627935D02*
X111920000Y-91627935D01*
X100171000Y-91587935D02*
X111920000Y-91587935D01*
X100187000Y-91547935D02*
X111920000Y-91547935D01*
X100204000Y-91507935D02*
X111920000Y-91507935D01*
X100220000Y-91467935D02*
X111920000Y-91467935D01*
X100237000Y-91427935D02*
X111920000Y-91427935D01*
X100253000Y-91387935D02*
X111920000Y-91387935D01*
X100270000Y-91347935D02*
X111920000Y-91347935D01*
X100287000Y-91307935D02*
X111920000Y-91307935D01*
X100304000Y-91267935D02*
X111920000Y-91267935D01*
X100321000Y-91227935D02*
X111920000Y-91227935D01*
X100339000Y-91187935D02*
X111920000Y-91187935D01*
X100356000Y-91147935D02*
X111920000Y-91147935D01*
X100374000Y-91107935D02*
X111920000Y-91107935D01*
X100392000Y-91067935D02*
X111920000Y-91067935D01*
X100410000Y-91027935D02*
X111920000Y-91027935D01*
X100428000Y-90987935D02*
X111920000Y-90987935D01*
X100446000Y-90947935D02*
X111920000Y-90947935D01*
X100464000Y-90907935D02*
X111920000Y-90907935D01*
X100483000Y-90867935D02*
X111920000Y-90867935D01*
X100501000Y-90827935D02*
X111920000Y-90827935D01*
X100520000Y-90787935D02*
X111920000Y-90787935D01*
X100539000Y-90747935D02*
X111920000Y-90747935D01*
X100558000Y-90707935D02*
X111920000Y-90707935D01*
X100577000Y-90667935D02*
X111920000Y-90667935D01*
X100597000Y-90627935D02*
X111920000Y-90627935D01*
X100616000Y-90587935D02*
X111920000Y-90587935D01*
X100636000Y-90547935D02*
X111920000Y-90547935D01*
X100655000Y-90507935D02*
X111920000Y-90507935D01*
X100675000Y-90467935D02*
X111920000Y-90467935D01*
X100695000Y-90427935D02*
X111920000Y-90427935D01*
X100716000Y-90387935D02*
X111920000Y-90387935D01*
X100736000Y-90347935D02*
X111920000Y-90347935D01*
X100756000Y-90307935D02*
X111920000Y-90307935D01*
X100777000Y-90267935D02*
X111920000Y-90267935D01*
X100798000Y-90227935D02*
X111920000Y-90227935D01*
X100819000Y-90187935D02*
X111920000Y-90187935D01*
X100840000Y-90147935D02*
X111920000Y-90147935D01*
X100861000Y-90107935D02*
X111920000Y-90107935D01*
X100883000Y-90067935D02*
X111920000Y-90067935D01*
X100904000Y-90027935D02*
X111920000Y-90027935D01*
X100926000Y-89987935D02*
X127394000Y-89987935D01*
X100948000Y-89947935D02*
X127372000Y-89947935D01*
X100970000Y-89907935D02*
X127350000Y-89907935D01*
X100992000Y-89867935D02*
X127328000Y-89867935D01*
X101015000Y-89827935D02*
X127305000Y-89827935D01*
X101037000Y-89787935D02*
X127283000Y-89787935D01*
X101060000Y-89747935D02*
X127260000Y-89747935D01*
X101083000Y-89707935D02*
X127237000Y-89707935D01*
X101106000Y-89667935D02*
X127214000Y-89667935D01*
X101129000Y-89627935D02*
X127191000Y-89627935D01*
X101152000Y-89587935D02*
X127168000Y-89587935D01*
X101176000Y-89547935D02*
X127144000Y-89547935D01*
X101199000Y-89507935D02*
X127121000Y-89507935D01*
X101223000Y-89467935D02*
X127097000Y-89467935D01*
X101247000Y-89427935D02*
X127073000Y-89427935D01*
X101271000Y-89387935D02*
X127049000Y-89387935D01*
X101296000Y-89347935D02*
X127024000Y-89347935D01*
X101320000Y-89307935D02*
X127000000Y-89307935D01*
X101345000Y-89267935D02*
X126975000Y-89267935D01*
X101370000Y-89227935D02*
X126950000Y-89227935D01*
X101395000Y-89187935D02*
X126925000Y-89187935D01*
X101420000Y-89147935D02*
X126900000Y-89147935D01*
X101445000Y-89107935D02*
X126875000Y-89107935D01*
X101471000Y-89067935D02*
X126849000Y-89067935D01*
X101497000Y-89027935D02*
X126823000Y-89027935D01*
X101523000Y-88987935D02*
X126797000Y-88987935D01*
X101549000Y-88947935D02*
X126771000Y-88947935D01*
X101575000Y-88907935D02*
X126745000Y-88907935D01*
X101601000Y-88867935D02*
X126719000Y-88867935D01*
X101628000Y-88827935D02*
X126692000Y-88827935D01*
X101655000Y-88787935D02*
X126665000Y-88787935D01*
X101682000Y-88747935D02*
X126638000Y-88747935D01*
X101709000Y-88707935D02*
X126611000Y-88707935D01*
X101736000Y-88667935D02*
X126584000Y-88667935D01*
X101764000Y-88627935D02*
X126556000Y-88627935D01*
X101792000Y-88587935D02*
X126528000Y-88587935D01*
X101820000Y-88547935D02*
X126500000Y-88547935D01*
X101848000Y-88507935D02*
X126472000Y-88507935D01*
X101876000Y-88467935D02*
X126444000Y-88467935D01*
X101905000Y-88427935D02*
X126415000Y-88427935D01*
X101933000Y-88387935D02*
X126387000Y-88387935D01*
X101962000Y-88347935D02*
X126358000Y-88347935D01*
X101991000Y-88307935D02*
X126329000Y-88307935D01*
X102021000Y-88267935D02*
X126299000Y-88267935D01*
X102050000Y-88227935D02*
X126270000Y-88227935D01*
X102080000Y-88187935D02*
X126240000Y-88187935D01*
X102110000Y-88147935D02*
X126210000Y-88147935D01*
X102140000Y-88107935D02*
X126180000Y-88107935D01*
X102171000Y-88067935D02*
X126149000Y-88067935D01*
X102201000Y-88027935D02*
X126119000Y-88027935D01*
X102232000Y-87987935D02*
X126088000Y-87987935D01*
X102263000Y-87947935D02*
X126057000Y-87947935D01*
X102294000Y-87907935D02*
X126026000Y-87907935D01*
X102325000Y-87867935D02*
X125995000Y-87867935D01*
X102357000Y-87827935D02*
X125963000Y-87827935D01*
X102389000Y-87787935D02*
X125931000Y-87787935D01*
X102421000Y-87747935D02*
X125899000Y-87747935D01*
X102453000Y-87707935D02*
X125867000Y-87707935D01*
X102486000Y-87667935D02*
X125834000Y-87667935D01*
X102519000Y-87627935D02*
X125801000Y-87627935D01*
X102552000Y-87587935D02*
X125768000Y-87587935D01*
X102585000Y-87547935D02*
X125735000Y-87547935D01*
X102618000Y-87507935D02*
X125702000Y-87507935D01*
X102652000Y-87467935D02*
X125668000Y-87467935D01*
X102686000Y-87427935D02*
X125634000Y-87427935D01*
X102720000Y-87387935D02*
X125600000Y-87387935D01*
X102754000Y-87347935D02*
X125566000Y-87347935D01*
X102789000Y-87307935D02*
X125531000Y-87307935D01*
X102824000Y-87267935D02*
X125496000Y-87267935D01*
X102859000Y-87227935D02*
X125461000Y-87227935D01*
X102895000Y-87187935D02*
X125425000Y-87187935D01*
X102930000Y-87147935D02*
X125390000Y-87147935D01*
X102966000Y-87107935D02*
X125354000Y-87107935D01*
X103002000Y-87067935D02*
X125318000Y-87067935D01*
X103039000Y-87027935D02*
X125281000Y-87027935D01*
X103075000Y-86987935D02*
X125245000Y-86987935D01*
X103112000Y-86947935D02*
X125208000Y-86947935D01*
X103150000Y-86907935D02*
X125170000Y-86907935D01*
X103187000Y-86867935D02*
X125133000Y-86867935D01*
X103225000Y-86827935D02*
X125095000Y-86827935D01*
X103263000Y-86787935D02*
X125057000Y-86787935D01*
X103301000Y-86747935D02*
X125019000Y-86747935D01*
X103340000Y-86707935D02*
X124980000Y-86707935D01*
X103379000Y-86667935D02*
X124941000Y-86667935D01*
X103418000Y-86627935D02*
X124902000Y-86627935D01*
X103457000Y-86587935D02*
X124863000Y-86587935D01*
X103497000Y-86547935D02*
X124823000Y-86547935D01*
X103537000Y-86507935D02*
X124783000Y-86507935D01*
X103578000Y-86467935D02*
X124742000Y-86467935D01*
X103618000Y-86427935D02*
X124702000Y-86427935D01*
X103659000Y-86387935D02*
X124661000Y-86387935D01*
X103700000Y-86347935D02*
X124620000Y-86347935D01*
X103742000Y-86307935D02*
X124578000Y-86307935D01*
X103784000Y-86267935D02*
X124536000Y-86267935D01*
X103826000Y-86227935D02*
X124494000Y-86227935D01*
X103869000Y-86187935D02*
X124451000Y-86187935D01*
X103912000Y-86147935D02*
X124408000Y-86147935D01*
X103955000Y-86107935D02*
X124365000Y-86107935D01*
X103999000Y-86067935D02*
X124321000Y-86067935D01*
X104043000Y-86027935D02*
X124277000Y-86027935D01*
X104087000Y-85987935D02*
X124233000Y-85987935D01*
X104131000Y-85947935D02*
X124189000Y-85947935D01*
X104176000Y-85907935D02*
X124144000Y-85907935D01*
X104185000Y-111907066D02*
X107185000Y-111907066D01*
X104222000Y-85867935D02*
X124098000Y-85867935D01*
X104268000Y-85827935D02*
X124052000Y-85827935D01*
X104314000Y-85787935D02*
X124006000Y-85787935D01*
X104360000Y-85747935D02*
X123960000Y-85747935D01*
X104407000Y-85707935D02*
X123913000Y-85707935D01*
X104454000Y-85667935D02*
X123866000Y-85667935D01*
X104502000Y-85627935D02*
X123818000Y-85627935D01*
X104550000Y-85587935D02*
X123770000Y-85587935D01*
X104598000Y-85547935D02*
X123722000Y-85547935D01*
X104647000Y-85507935D02*
X123673000Y-85507935D01*
X104696000Y-85467935D02*
X123624000Y-85467935D01*
X104746000Y-85427935D02*
X123574000Y-85427935D01*
X104796000Y-85387935D02*
X123524000Y-85387935D01*
X104847000Y-85347935D02*
X123473000Y-85347935D01*
X104898000Y-85307935D02*
X123422000Y-85307935D01*
X104949000Y-85267935D02*
X123371000Y-85267935D01*
X105001000Y-85227935D02*
X123319000Y-85227935D01*
X105054000Y-85187935D02*
X123266000Y-85187935D01*
X105107000Y-85147935D02*
X123213000Y-85147935D01*
X105160000Y-85107935D02*
X123160000Y-85107935D01*
X105214000Y-85067935D02*
X123106000Y-85067935D01*
X105268000Y-85027935D02*
X123052000Y-85027935D01*
X105323000Y-84987935D02*
X122997000Y-84987935D01*
X105379000Y-84947935D02*
X122941000Y-84947935D01*
X105435000Y-84907935D02*
X122885000Y-84907935D01*
X105491000Y-84867935D02*
X122829000Y-84867935D01*
X105548000Y-84827935D02*
X122772000Y-84827935D01*
X105606000Y-84787935D02*
X122714000Y-84787935D01*
X105664000Y-84747935D02*
X122656000Y-84747935D01*
X105685000Y-113407066D02*
X105685000Y-110407066D01*
X105723000Y-84707935D02*
X122597000Y-84707935D01*
X105782000Y-84667935D02*
X122538000Y-84667935D01*
X105842000Y-84627935D02*
X122478000Y-84627935D01*
X105903000Y-84587935D02*
X122417000Y-84587935D01*
X105964000Y-84547935D02*
X122356000Y-84547935D01*
X106026000Y-84507935D02*
X122294000Y-84507935D01*
X106088000Y-84467935D02*
X122232000Y-84467935D01*
X106152000Y-84427935D02*
X122168000Y-84427935D01*
X106216000Y-84387935D02*
X122104000Y-84387935D01*
X106280000Y-84347935D02*
X122040000Y-84347935D01*
X106346000Y-84307935D02*
X121974000Y-84307935D01*
X106412000Y-84267935D02*
X121908000Y-84267935D01*
X106479000Y-84227935D02*
X121841000Y-84227935D01*
X106547000Y-84187935D02*
X121773000Y-84187935D01*
X106615000Y-84147935D02*
X121705000Y-84147935D01*
X106685000Y-84107935D02*
X121635000Y-84107935D01*
X106755000Y-84067935D02*
X121565000Y-84067935D01*
X106826000Y-84027935D02*
X121494000Y-84027935D01*
X106898000Y-83987935D02*
X121422000Y-83987935D01*
X106971000Y-83947935D02*
X121349000Y-83947935D01*
X107045000Y-83907935D02*
X121275000Y-83907935D01*
X107120000Y-83867935D02*
X121200000Y-83867935D01*
X107196000Y-83827935D02*
X121124000Y-83827935D01*
X107273000Y-83787935D02*
X121047000Y-83787935D01*
X107351000Y-83747935D02*
X120969000Y-83747935D01*
X107431000Y-83707935D02*
X120889000Y-83707935D01*
X107511000Y-83667935D02*
X120809000Y-83667935D01*
X107593000Y-83627935D02*
X120727000Y-83627935D01*
X107676000Y-83587935D02*
X120644000Y-83587935D01*
X107760000Y-83547935D02*
X120560000Y-83547935D01*
X107846000Y-83507935D02*
X120474000Y-83507935D01*
X107933000Y-83467935D02*
X120387000Y-83467935D01*
X108021000Y-83427935D02*
X120299000Y-83427935D01*
X108112000Y-83387935D02*
X120208000Y-83387935D01*
X108203000Y-83347935D02*
X120117000Y-83347935D01*
X108297000Y-83307935D02*
X120023000Y-83307935D01*
X108392000Y-83267935D02*
X119928000Y-83267935D01*
X108489000Y-83227935D02*
X119831000Y-83227935D01*
X108588000Y-83187935D02*
X119732000Y-83187935D01*
X108689000Y-83147935D02*
X119631000Y-83147935D01*
X108793000Y-83107935D02*
X119527000Y-83107935D01*
X108898000Y-83067935D02*
X119422000Y-83067935D01*
X109006000Y-83027935D02*
X119314000Y-83027935D01*
X109117000Y-82987935D02*
X119203000Y-82987935D01*
X109230000Y-82947935D02*
X119090000Y-82947935D01*
X109347000Y-82907935D02*
X118973000Y-82907935D01*
X109467000Y-82867935D02*
X118853000Y-82867935D01*
X109590000Y-82827935D02*
X118730000Y-82827935D01*
X109717000Y-82787935D02*
X118603000Y-82787935D01*
X109848000Y-82747935D02*
X118472000Y-82747935D01*
X109983000Y-82707935D02*
X118337000Y-82707935D01*
X110123000Y-82667935D02*
X118197000Y-82667935D01*
X110269000Y-82627935D02*
X118051000Y-82627935D01*
X110420000Y-82587935D02*
X117900000Y-82587935D01*
X110579000Y-82547935D02*
X117741000Y-82547935D01*
X110745000Y-82507935D02*
X117575000Y-82507935D01*
X110920000Y-82467935D02*
X117400000Y-82467935D01*
X111106000Y-82427935D02*
X117214000Y-82427935D01*
X111304000Y-82387935D02*
X117016000Y-82387935D01*
X111517000Y-82347935D02*
X116803000Y-82347935D01*
X111749000Y-82307935D02*
X116571000Y-82307935D01*
X112006000Y-82267935D02*
X116314000Y-82267935D01*
X112299000Y-82227935D02*
X116021000Y-82227935D01*
X112647000Y-82187935D02*
X115673000Y-82187935D01*
X113101000Y-82147935D02*
X115219000Y-82147935D01*
X114200000Y-82107935D02*
X114120000Y-82107935D01*
X116400000Y-90027935D02*
X127416000Y-90027935D01*
X116400000Y-90067935D02*
X127437000Y-90067935D01*
X116400000Y-90107935D02*
X127459000Y-90107935D01*
X116400000Y-90147935D02*
X127480000Y-90147935D01*
X116400000Y-90187935D02*
X127501000Y-90187935D01*
X116400000Y-90227935D02*
X127522000Y-90227935D01*
X116400000Y-90267935D02*
X127543000Y-90267935D01*
X116400000Y-90307935D02*
X127564000Y-90307935D01*
X116400000Y-90347935D02*
X127584000Y-90347935D01*
X116400000Y-90387935D02*
X127604000Y-90387935D01*
X116400000Y-90427935D02*
X127625000Y-90427935D01*
X116400000Y-90467935D02*
X127645000Y-90467935D01*
X116400000Y-90507935D02*
X127665000Y-90507935D01*
X116400000Y-90547935D02*
X127684000Y-90547935D01*
X116400000Y-90587935D02*
X127704000Y-90587935D01*
X116400000Y-90627935D02*
X127723000Y-90627935D01*
X116400000Y-90667935D02*
X127743000Y-90667935D01*
X116400000Y-90707935D02*
X127762000Y-90707935D01*
X116400000Y-90747935D02*
X127781000Y-90747935D01*
X116400000Y-90787935D02*
X127800000Y-90787935D01*
X116400000Y-90827935D02*
X127819000Y-90827935D01*
X116400000Y-90867935D02*
X127837000Y-90867935D01*
X116400000Y-90907935D02*
X127856000Y-90907935D01*
X116400000Y-90947935D02*
X127874000Y-90947935D01*
X116400000Y-90987935D02*
X127892000Y-90987935D01*
X116400000Y-91027935D02*
X127910000Y-91027935D01*
X116400000Y-91067935D02*
X127928000Y-91067935D01*
X116400000Y-91107935D02*
X127946000Y-91107935D01*
X116400000Y-91147935D02*
X127964000Y-91147935D01*
X116400000Y-91187935D02*
X127981000Y-91187935D01*
X116400000Y-91227935D02*
X127999000Y-91227935D01*
X116400000Y-91267935D02*
X128016000Y-91267935D01*
X116400000Y-91307935D02*
X128033000Y-91307935D01*
X116400000Y-91347935D02*
X128050000Y-91347935D01*
X116400000Y-91387935D02*
X128067000Y-91387935D01*
X116400000Y-91427935D02*
X128083000Y-91427935D01*
X116400000Y-91467935D02*
X128100000Y-91467935D01*
X116400000Y-91507935D02*
X128116000Y-91507935D01*
X116400000Y-91547935D02*
X128133000Y-91547935D01*
X116400000Y-91587935D02*
X128149000Y-91587935D01*
X116400000Y-91627935D02*
X128165000Y-91627935D01*
X116400000Y-91667935D02*
X128181000Y-91667935D01*
X116400000Y-91707935D02*
X128196000Y-91707935D01*
X116400000Y-91747935D02*
X128212000Y-91747935D01*
X116400000Y-91787935D02*
X128227000Y-91787935D01*
X116400000Y-91827935D02*
X128243000Y-91827935D01*
X116400000Y-91867935D02*
X128258000Y-91867935D01*
X116400000Y-91907935D02*
X128273000Y-91907935D01*
X116400000Y-91947935D02*
X128288000Y-91947935D01*
X116400000Y-91987935D02*
X128303000Y-91987935D01*
X116400000Y-92027935D02*
X128318000Y-92027935D01*
X116400000Y-92067935D02*
X128332000Y-92067935D01*
X116400000Y-92107935D02*
X128347000Y-92107935D01*
X116400000Y-92147935D02*
X128361000Y-92147935D01*
X116400000Y-92187935D02*
X128375000Y-92187935D01*
X116400000Y-92227935D02*
X128389000Y-92227935D01*
X116400000Y-92267935D02*
X128403000Y-92267935D01*
X116400000Y-92307935D02*
X128417000Y-92307935D01*
X116400000Y-92347935D02*
X128431000Y-92347935D01*
X116400000Y-92387935D02*
X128444000Y-92387935D01*
X116400000Y-92427935D02*
X128458000Y-92427935D01*
X116400000Y-92467935D02*
X128471000Y-92467935D01*
X116400000Y-92507935D02*
X128484000Y-92507935D01*
X116400000Y-92547935D02*
X128497000Y-92547935D01*
X116400000Y-92587935D02*
X128510000Y-92587935D01*
X116400000Y-92627935D02*
X128523000Y-92627935D01*
X116400000Y-92667935D02*
X128536000Y-92667935D01*
X116400000Y-92707935D02*
X128549000Y-92707935D01*
X116400000Y-92747935D02*
X128561000Y-92747935D01*
X116400000Y-92787935D02*
X128573000Y-92787935D01*
X116400000Y-92827935D02*
X128586000Y-92827935D01*
X116400000Y-92867935D02*
X128598000Y-92867935D01*
X116400000Y-92907935D02*
X128610000Y-92907935D01*
X116400000Y-92947935D02*
X128622000Y-92947935D01*
X116400000Y-92987935D02*
X128633000Y-92987935D01*
X116400000Y-93027935D02*
X128645000Y-93027935D01*
X116400000Y-93067935D02*
X128656000Y-93067935D01*
X116400000Y-93107935D02*
X128668000Y-93107935D01*
X116400000Y-93147935D02*
X128679000Y-93147935D01*
X116400000Y-93187935D02*
X128690000Y-93187935D01*
X116400000Y-93227935D02*
X128701000Y-93227935D01*
X116400000Y-93267935D02*
X128712000Y-93267935D01*
X116400000Y-93307935D02*
X128723000Y-93307935D01*
X116400000Y-93347935D02*
X128734000Y-93347935D01*
X116400000Y-93387935D02*
X128744000Y-93387935D01*
X116400000Y-93427935D02*
X128755000Y-93427935D01*
X116400000Y-93467935D02*
X128765000Y-93467935D01*
X116400000Y-93507935D02*
X128775000Y-93507935D01*
X116400000Y-93547935D02*
X128785000Y-93547935D01*
X116400000Y-93587935D02*
X128795000Y-93587935D01*
X116400000Y-93627935D02*
X128805000Y-93627935D01*
X116400000Y-93667935D02*
X128815000Y-93667935D01*
X116400000Y-93707935D02*
X128825000Y-93707935D01*
X116400000Y-93747935D02*
X128834000Y-93747935D01*
X116400000Y-93787935D02*
X128843000Y-93787935D01*
X116400000Y-93827935D02*
X128853000Y-93827935D01*
X116400000Y-93867935D02*
X128862000Y-93867935D01*
X116400000Y-93907935D02*
X128871000Y-93907935D01*
X116400000Y-93947935D02*
X128880000Y-93947935D01*
X116400000Y-93987935D02*
X128889000Y-93987935D01*
X116400000Y-94027935D02*
X128897000Y-94027935D01*
X116400000Y-94067935D02*
X128906000Y-94067935D01*
X116400000Y-94107935D02*
X128915000Y-94107935D01*
X116400000Y-94147935D02*
X128923000Y-94147935D01*
X116400000Y-94187935D02*
X128931000Y-94187935D01*
X116400000Y-94227935D02*
X128939000Y-94227935D01*
X116400000Y-94267935D02*
X128947000Y-94267935D01*
X116400000Y-94307935D02*
X128955000Y-94307935D01*
X116400000Y-94347935D02*
X128963000Y-94347935D01*
X116400000Y-94387935D02*
X128971000Y-94387935D01*
X116400000Y-94427935D02*
X128978000Y-94427935D01*
X129280000Y-97227935D02*
G75*
G02*
X99040000Y-97227935I-15120000J0D01*
G01*
X99040000Y-97227935D02*
G75*
G02*
X129280000Y-97227935I15120000J0D01*
G01*
%TO.C,D3*%
X148902500Y-93070000D02*
X148902500Y-95290000D01*
X148902500Y-95290000D02*
X153312500Y-95290000D01*
X153312500Y-93070000D02*
X148902500Y-93070000D01*
%TO.C,R4*%
X149105000Y-97468748D02*
X149105000Y-97991252D01*
X150575000Y-97468748D02*
X150575000Y-97991252D01*
%TO.C,I_SET1*%
X171105000Y-100908752D02*
X171105000Y-100386248D01*
X172575000Y-100908752D02*
X172575000Y-100386248D01*
%TO.C,J2*%
X180315000Y-88790000D02*
X189540000Y-88790000D01*
X180315000Y-91610000D02*
X180915000Y-91610000D01*
X180315000Y-95570000D02*
X180915000Y-95570000D01*
X180315000Y-96790000D02*
X180315000Y-88790000D01*
X180915000Y-90010000D02*
X180315000Y-90010000D01*
X180915000Y-91610000D02*
X180915000Y-90010000D01*
X180915000Y-93970000D02*
X180315000Y-93970000D01*
X180915000Y-95570000D02*
X180915000Y-93970000D01*
X183535000Y-97080000D02*
X187535000Y-97080000D01*
X187875000Y-90810000D02*
X189545000Y-90810000D01*
X187875000Y-94770000D02*
X187875000Y-90810000D01*
X189540000Y-88790000D02*
X189540000Y-90695000D01*
X189540000Y-90695000D02*
X190545000Y-90695000D01*
X189540000Y-94885000D02*
X189540000Y-96790000D01*
X189540000Y-96790000D02*
X180315000Y-96790000D01*
X189545000Y-90810000D02*
X190545000Y-90810000D01*
X189545000Y-94770000D02*
X187875000Y-94770000D01*
X189545000Y-94770000D02*
X189545000Y-90810000D01*
X190545000Y-90695000D02*
X190545000Y-94885000D01*
X190545000Y-94770000D02*
X189545000Y-94770000D01*
X190545000Y-94885000D02*
X189540000Y-94885000D01*
%TO.C,D2*%
X141370000Y-108090000D02*
X145780000Y-108090000D01*
X145780000Y-105870000D02*
X141370000Y-105870000D01*
X145780000Y-108090000D02*
X145780000Y-105870000D01*
%TO.C,U1*%
X141420000Y-85540000D02*
X151640000Y-85540000D01*
X141420000Y-86920000D02*
X151640000Y-86920000D01*
X141420000Y-90160000D02*
X141420000Y-85540000D01*
X144680000Y-85540000D02*
X144680000Y-86920000D01*
X148380000Y-85540000D02*
X148380000Y-86920000D01*
X151640000Y-85540000D02*
X151640000Y-90160000D01*
X151640000Y-90160000D02*
X141420000Y-90160000D01*
%TO.C,D4*%
X163230000Y-100002500D02*
X163230000Y-104412500D01*
X165450000Y-100002500D02*
X163230000Y-100002500D01*
X165450000Y-104412500D02*
X165450000Y-100002500D01*
%TO.C,V_SET1*%
X167881252Y-107555000D02*
X167358748Y-107555000D01*
X167881252Y-109025000D02*
X167358748Y-109025000D01*
%TO.C,D1*%
X147997500Y-108090000D02*
X152407500Y-108090000D01*
X152407500Y-105870000D02*
X147997500Y-105870000D01*
X152407500Y-108090000D02*
X152407500Y-105870000D01*
%TO.C,R2*%
X149105000Y-101478748D02*
X149105000Y-102001252D01*
X150575000Y-101478748D02*
X150575000Y-102001252D01*
%TO.C,C1*%
X178370000Y-105580000D02*
X173572000Y-105580000D01*
X178370000Y-105620000D02*
X173579000Y-105620000D01*
X178370000Y-105660000D02*
X173587000Y-105660000D01*
X178370000Y-105700000D02*
X173594000Y-105700000D01*
X178370000Y-105740000D02*
X173602000Y-105740000D01*
X178370000Y-105780000D02*
X173610000Y-105780000D01*
X178370000Y-105820000D02*
X173618000Y-105820000D01*
X178370000Y-105860000D02*
X173627000Y-105860000D01*
X178370000Y-105900000D02*
X173636000Y-105900000D01*
X178370000Y-105940000D02*
X173645000Y-105940000D01*
X178370000Y-105980000D02*
X173654000Y-105980000D01*
X178370000Y-106020000D02*
X173664000Y-106020000D01*
X178370000Y-106060000D02*
X173674000Y-106060000D01*
X178370000Y-106100000D02*
X173684000Y-106100000D01*
X178370000Y-106140000D02*
X173695000Y-106140000D01*
X178370000Y-106180000D02*
X173706000Y-106180000D01*
X178370000Y-106220000D02*
X173717000Y-106220000D01*
X178370000Y-106260000D02*
X173728000Y-106260000D01*
X178370000Y-106300000D02*
X173740000Y-106300000D01*
X178370000Y-106340000D02*
X173752000Y-106340000D01*
X178370000Y-106380000D02*
X173764000Y-106380000D01*
X178370000Y-106420000D02*
X173776000Y-106420000D01*
X178370000Y-106460000D02*
X173789000Y-106460000D01*
X178370000Y-106500000D02*
X173802000Y-106500000D01*
X178370000Y-106540000D02*
X173815000Y-106540000D01*
X178370000Y-106580000D02*
X173829000Y-106580000D01*
X178370000Y-106620000D02*
X173843000Y-106620000D01*
X178370000Y-106660000D02*
X173857000Y-106660000D01*
X178370000Y-106700000D02*
X173872000Y-106700000D01*
X178370000Y-106740000D02*
X173887000Y-106740000D01*
X178370000Y-106780000D02*
X173902000Y-106780000D01*
X178370000Y-106820000D02*
X173918000Y-106820000D01*
X178370000Y-106860000D02*
X173933000Y-106860000D01*
X178370000Y-106900000D02*
X173949000Y-106900000D01*
X178370000Y-106940000D02*
X173966000Y-106940000D01*
X178370000Y-106980000D02*
X173983000Y-106980000D01*
X178370000Y-107020000D02*
X174000000Y-107020000D01*
X178370000Y-107060000D02*
X174017000Y-107060000D01*
X178370000Y-107100000D02*
X174035000Y-107100000D01*
X178370000Y-107140000D02*
X174053000Y-107140000D01*
X178370000Y-107180000D02*
X174071000Y-107180000D01*
X178370000Y-107220000D02*
X174090000Y-107220000D01*
X178370000Y-107260000D02*
X174109000Y-107260000D01*
X178370000Y-107300000D02*
X174128000Y-107300000D01*
X178370000Y-107340000D02*
X174148000Y-107340000D01*
X178370000Y-107380000D02*
X174168000Y-107380000D01*
X178370000Y-107420000D02*
X174189000Y-107420000D01*
X178370000Y-107460000D02*
X174209000Y-107460000D01*
X178370000Y-107500000D02*
X174231000Y-107500000D01*
X178370000Y-107540000D02*
X174252000Y-107540000D01*
X178370000Y-107580000D02*
X174274000Y-107580000D01*
X178370000Y-107620000D02*
X174296000Y-107620000D01*
X178370000Y-107660000D02*
X174319000Y-107660000D01*
X178370000Y-107700000D02*
X174342000Y-107700000D01*
X178370000Y-107740000D02*
X174366000Y-107740000D01*
X178370000Y-107780000D02*
X174389000Y-107780000D01*
X178370000Y-107820000D02*
X174414000Y-107820000D01*
X178370000Y-107860000D02*
X174438000Y-107860000D01*
X178370000Y-107900000D02*
X174463000Y-107900000D01*
X178370000Y-107940000D02*
X174489000Y-107940000D01*
X178370000Y-107980000D02*
X174515000Y-107980000D01*
X178370000Y-108020000D02*
X174541000Y-108020000D01*
X178370000Y-108060000D02*
X174568000Y-108060000D01*
X178370000Y-108100000D02*
X174595000Y-108100000D01*
X178370000Y-108140000D02*
X174622000Y-108140000D01*
X178370000Y-108180000D02*
X174651000Y-108180000D01*
X178370000Y-108220000D02*
X174679000Y-108220000D01*
X178370000Y-108260000D02*
X174708000Y-108260000D01*
X178370000Y-108300000D02*
X174738000Y-108300000D01*
X178370000Y-108340000D02*
X174768000Y-108340000D01*
X178370000Y-108380000D02*
X174798000Y-108380000D01*
X178370000Y-108420000D02*
X174829000Y-108420000D01*
X180127000Y-110860000D02*
X179493000Y-110860000D01*
X180567000Y-110820000D02*
X179053000Y-110820000D01*
X180837000Y-110780000D02*
X178783000Y-110780000D01*
X181050000Y-110740000D02*
X178570000Y-110740000D01*
X181232000Y-110700000D02*
X178388000Y-110700000D01*
X181392000Y-110660000D02*
X178228000Y-110660000D01*
X181537000Y-110620000D02*
X178083000Y-110620000D01*
X181670000Y-110580000D02*
X177950000Y-110580000D01*
X181794000Y-110540000D02*
X177826000Y-110540000D01*
X181909000Y-110500000D02*
X177711000Y-110500000D01*
X182018000Y-110460000D02*
X177602000Y-110460000D01*
X182122000Y-110420000D02*
X177498000Y-110420000D01*
X182220000Y-110380000D02*
X177400000Y-110380000D01*
X182314000Y-110340000D02*
X177306000Y-110340000D01*
X182404000Y-110300000D02*
X177216000Y-110300000D01*
X182490000Y-110260000D02*
X177130000Y-110260000D01*
X182573000Y-110220000D02*
X177047000Y-110220000D01*
X182653000Y-110180000D02*
X176967000Y-110180000D01*
X182731000Y-110140000D02*
X176889000Y-110140000D01*
X182806000Y-110100000D02*
X176814000Y-110100000D01*
X182879000Y-110060000D02*
X176741000Y-110060000D01*
X182949000Y-110020000D02*
X176671000Y-110020000D01*
X183018000Y-109980000D02*
X176602000Y-109980000D01*
X183084000Y-109940000D02*
X176536000Y-109940000D01*
X183149000Y-109900000D02*
X176471000Y-109900000D01*
X183212000Y-109860000D02*
X176408000Y-109860000D01*
X183273000Y-109820000D02*
X176347000Y-109820000D01*
X183333000Y-109780000D02*
X176287000Y-109780000D01*
X183385000Y-97682918D02*
X183385000Y-98932918D01*
X183392000Y-109740000D02*
X176228000Y-109740000D01*
X183449000Y-109700000D02*
X176171000Y-109700000D01*
X183505000Y-109660000D02*
X176115000Y-109660000D01*
X183560000Y-109620000D02*
X176060000Y-109620000D01*
X183613000Y-109580000D02*
X176007000Y-109580000D01*
X183666000Y-109540000D02*
X175954000Y-109540000D01*
X183717000Y-109500000D02*
X175903000Y-109500000D01*
X183767000Y-109460000D02*
X175853000Y-109460000D01*
X183816000Y-109420000D02*
X175804000Y-109420000D01*
X183864000Y-109380000D02*
X175756000Y-109380000D01*
X183911000Y-109340000D02*
X175709000Y-109340000D01*
X183958000Y-109300000D02*
X175662000Y-109300000D01*
X184003000Y-109260000D02*
X175617000Y-109260000D01*
X184010000Y-98307918D02*
X182760000Y-98307918D01*
X184048000Y-109220000D02*
X175572000Y-109220000D01*
X184091000Y-109180000D02*
X175529000Y-109180000D01*
X184134000Y-109140000D02*
X175486000Y-109140000D01*
X184176000Y-109100000D02*
X175444000Y-109100000D01*
X184218000Y-109060000D02*
X175402000Y-109060000D01*
X184258000Y-109020000D02*
X175362000Y-109020000D01*
X184298000Y-108980000D02*
X175322000Y-108980000D01*
X184338000Y-108940000D02*
X175282000Y-108940000D01*
X184376000Y-108900000D02*
X175244000Y-108900000D01*
X184414000Y-108860000D02*
X175206000Y-108860000D01*
X184451000Y-108820000D02*
X175169000Y-108820000D01*
X184488000Y-108780000D02*
X175132000Y-108780000D01*
X184524000Y-108740000D02*
X175096000Y-108740000D01*
X184559000Y-108700000D02*
X175061000Y-108700000D01*
X184594000Y-108660000D02*
X175026000Y-108660000D01*
X184628000Y-108620000D02*
X174992000Y-108620000D01*
X184662000Y-108580000D02*
X174958000Y-108580000D01*
X184695000Y-108540000D02*
X174925000Y-108540000D01*
X184728000Y-108500000D02*
X174892000Y-108500000D01*
X184760000Y-108460000D02*
X174860000Y-108460000D01*
X184791000Y-108420000D02*
X181250000Y-108420000D01*
X184822000Y-108380000D02*
X181250000Y-108380000D01*
X184852000Y-108340000D02*
X181250000Y-108340000D01*
X184882000Y-108300000D02*
X181250000Y-108300000D01*
X184912000Y-108260000D02*
X181250000Y-108260000D01*
X184941000Y-108220000D02*
X181250000Y-108220000D01*
X184969000Y-108180000D02*
X181250000Y-108180000D01*
X184998000Y-108140000D02*
X181250000Y-108140000D01*
X185025000Y-108100000D02*
X181250000Y-108100000D01*
X185052000Y-108060000D02*
X181250000Y-108060000D01*
X185079000Y-108020000D02*
X181250000Y-108020000D01*
X185105000Y-107980000D02*
X181250000Y-107980000D01*
X185131000Y-107940000D02*
X181250000Y-107940000D01*
X185157000Y-107900000D02*
X181250000Y-107900000D01*
X185182000Y-107860000D02*
X181250000Y-107860000D01*
X185206000Y-107820000D02*
X181250000Y-107820000D01*
X185231000Y-107780000D02*
X181250000Y-107780000D01*
X185254000Y-107740000D02*
X181250000Y-107740000D01*
X185278000Y-107700000D02*
X181250000Y-107700000D01*
X185301000Y-107660000D02*
X181250000Y-107660000D01*
X185324000Y-107620000D02*
X181250000Y-107620000D01*
X185346000Y-107580000D02*
X181250000Y-107580000D01*
X185368000Y-107540000D02*
X181250000Y-107540000D01*
X185389000Y-107500000D02*
X181250000Y-107500000D01*
X185411000Y-107460000D02*
X181250000Y-107460000D01*
X185431000Y-107420000D02*
X181250000Y-107420000D01*
X185452000Y-107380000D02*
X181250000Y-107380000D01*
X185472000Y-107340000D02*
X181250000Y-107340000D01*
X185492000Y-107300000D02*
X181250000Y-107300000D01*
X185511000Y-107260000D02*
X181250000Y-107260000D01*
X185530000Y-107220000D02*
X181250000Y-107220000D01*
X185549000Y-107180000D02*
X181250000Y-107180000D01*
X185567000Y-107140000D02*
X181250000Y-107140000D01*
X185585000Y-107100000D02*
X181250000Y-107100000D01*
X185603000Y-107060000D02*
X181250000Y-107060000D01*
X185620000Y-107020000D02*
X181250000Y-107020000D01*
X185637000Y-106980000D02*
X181250000Y-106980000D01*
X185654000Y-106940000D02*
X181250000Y-106940000D01*
X185671000Y-106900000D02*
X181250000Y-106900000D01*
X185687000Y-106860000D02*
X181250000Y-106860000D01*
X185702000Y-106820000D02*
X181250000Y-106820000D01*
X185718000Y-106780000D02*
X181250000Y-106780000D01*
X185733000Y-106740000D02*
X181250000Y-106740000D01*
X185748000Y-106700000D02*
X181250000Y-106700000D01*
X185763000Y-106660000D02*
X181250000Y-106660000D01*
X185777000Y-106620000D02*
X181250000Y-106620000D01*
X185791000Y-106580000D02*
X181250000Y-106580000D01*
X185805000Y-106540000D02*
X181250000Y-106540000D01*
X185818000Y-106500000D02*
X181250000Y-106500000D01*
X185831000Y-106460000D02*
X181250000Y-106460000D01*
X185844000Y-106420000D02*
X181250000Y-106420000D01*
X185856000Y-106380000D02*
X181250000Y-106380000D01*
X185868000Y-106340000D02*
X181250000Y-106340000D01*
X185880000Y-106300000D02*
X181250000Y-106300000D01*
X185892000Y-106260000D02*
X181250000Y-106260000D01*
X185903000Y-106220000D02*
X181250000Y-106220000D01*
X185914000Y-106180000D02*
X181250000Y-106180000D01*
X185925000Y-106140000D02*
X181250000Y-106140000D01*
X185936000Y-106100000D02*
X181250000Y-106100000D01*
X185946000Y-106060000D02*
X181250000Y-106060000D01*
X185956000Y-106020000D02*
X181250000Y-106020000D01*
X185966000Y-105980000D02*
X181250000Y-105980000D01*
X185975000Y-105940000D02*
X181250000Y-105940000D01*
X185984000Y-105900000D02*
X181250000Y-105900000D01*
X185993000Y-105860000D02*
X181250000Y-105860000D01*
X186002000Y-105820000D02*
X181250000Y-105820000D01*
X186010000Y-105780000D02*
X181250000Y-105780000D01*
X186018000Y-105740000D02*
X181250000Y-105740000D01*
X186026000Y-105700000D02*
X181250000Y-105700000D01*
X186033000Y-105660000D02*
X181250000Y-105660000D01*
X186041000Y-105620000D02*
X181250000Y-105620000D01*
X186048000Y-105580000D02*
X181250000Y-105580000D01*
X186055000Y-105540000D02*
X173565000Y-105540000D01*
X186061000Y-105500000D02*
X173559000Y-105500000D01*
X186067000Y-105460000D02*
X173553000Y-105460000D01*
X186073000Y-105420000D02*
X173547000Y-105420000D01*
X186079000Y-105380000D02*
X173541000Y-105380000D01*
X186084000Y-105340000D02*
X173536000Y-105340000D01*
X186090000Y-105300000D02*
X173530000Y-105300000D01*
X186094000Y-105260000D02*
X173526000Y-105260000D01*
X186099000Y-105220000D02*
X173521000Y-105220000D01*
X186104000Y-105180000D02*
X173516000Y-105180000D01*
X186108000Y-105140000D02*
X173512000Y-105140000D01*
X186112000Y-105100000D02*
X173508000Y-105100000D01*
X186115000Y-105060000D02*
X173505000Y-105060000D01*
X186119000Y-105020000D02*
X173501000Y-105020000D01*
X186122000Y-104980000D02*
X173498000Y-104980000D01*
X186125000Y-104940000D02*
X173495000Y-104940000D01*
X186127000Y-104900000D02*
X173493000Y-104900000D01*
X186130000Y-104860000D02*
X173490000Y-104860000D01*
X186132000Y-104820000D02*
X173488000Y-104820000D01*
X186134000Y-104780000D02*
X173486000Y-104780000D01*
X186135000Y-104740000D02*
X173485000Y-104740000D01*
X186137000Y-104700000D02*
X173483000Y-104700000D01*
X186138000Y-104660000D02*
X173482000Y-104660000D01*
X186139000Y-104580000D02*
X173481000Y-104580000D01*
X186139000Y-104620000D02*
X173481000Y-104620000D01*
X186140000Y-104500000D02*
X173480000Y-104500000D01*
X186140000Y-104540000D02*
X173480000Y-104540000D01*
X186180000Y-104500000D02*
G75*
G02*
X173440000Y-104500000I-6370000J0D01*
G01*
X173440000Y-104500000D02*
G75*
G02*
X186180000Y-104500000I6370000J0D01*
G01*
%TO.C,HS1*%
X129378678Y-79202953D02*
X131409505Y-80811514D01*
X129378678Y-89897047D02*
X131409505Y-88288486D01*
X129588609Y-81317756D02*
X131056715Y-81574675D01*
X129588609Y-87782244D02*
X131056715Y-87525325D01*
X130010278Y-78355194D02*
X133135804Y-80543062D01*
X130010278Y-90744806D02*
X133135804Y-88556938D01*
X131230000Y-82950000D02*
X129360786Y-81984964D01*
X131230000Y-86150000D02*
X129360786Y-87115036D01*
X133367778Y-78795194D02*
X133768880Y-80083124D01*
X133367778Y-90304806D02*
X133768880Y-89016876D01*
X134156369Y-78385197D02*
X136402892Y-81480449D01*
X134156369Y-90714803D02*
X136402892Y-87619551D01*
X137390000Y-81159985D02*
X137390000Y-78849995D01*
X137390000Y-87940015D02*
X137390000Y-90250005D01*
X138690000Y-78850000D02*
X138690000Y-83765009D01*
X138690000Y-83765009D02*
X146630000Y-83765009D01*
X138690000Y-85334991D02*
X146630000Y-85334991D01*
X138690000Y-90250000D02*
X138690000Y-85334991D01*
X154570000Y-78850000D02*
X154570000Y-83765009D01*
X154570000Y-83765009D02*
X146630000Y-83765009D01*
X154570000Y-85334991D02*
X146630000Y-85334991D01*
X154570000Y-90250000D02*
X154570000Y-85334991D01*
X155870000Y-81159985D02*
X155870000Y-78849995D01*
X155870000Y-87940015D02*
X155870000Y-90250005D01*
X159103631Y-78385197D02*
X156857108Y-81480449D01*
X159103631Y-90714803D02*
X156857108Y-87619551D01*
X159892222Y-78795194D02*
X159491120Y-80083124D01*
X159892222Y-90304806D02*
X159491120Y-89016876D01*
X162030000Y-82950000D02*
X163899214Y-81984964D01*
X162030000Y-86150000D02*
X163899214Y-87115036D01*
X163249722Y-78355194D02*
X160124196Y-80543062D01*
X163249722Y-90744806D02*
X160124196Y-88556938D01*
X163671391Y-81317756D02*
X162203285Y-81574675D01*
X163671391Y-87782244D02*
X162203285Y-87525325D01*
X163881322Y-79202953D02*
X161850495Y-80811514D01*
X163881322Y-89897047D02*
X161850495Y-88288486D01*
X129360786Y-81984964D02*
G75*
G02*
X129588609Y-81317756I166311J315712D01*
G01*
X129378678Y-79202953D02*
G75*
G02*
X130010278Y-78355194I320093J420681D01*
G01*
X129588609Y-87782244D02*
G75*
G02*
X129360786Y-87115036I-61512J351496D01*
G01*
X130010278Y-90744806D02*
G75*
G02*
X129378678Y-89897047I-311507J427078D01*
G01*
X131056715Y-87525325D02*
G75*
G02*
X131409505Y-88288486I74984J-428460D01*
G01*
X131409505Y-80811514D02*
G75*
G02*
X131056715Y-81574675I-277808J-334700D01*
G01*
X133135804Y-88556938D02*
G75*
G02*
X133768880Y-89016876I237314J-339016D01*
G01*
X133367778Y-78795194D02*
G75*
G02*
X134156369Y-78385197I424939J146059D01*
G01*
X133768880Y-80083124D02*
G75*
G02*
X133135804Y-80543062I-395762J-120922D01*
G01*
X134156369Y-90714803D02*
G75*
G02*
X133367778Y-90304806I-363652J263938D01*
G01*
X136402892Y-87619551D02*
G75*
G02*
X137390001Y-87940015I441539J-320452D01*
G01*
X137390000Y-78849995D02*
G75*
G02*
X138690000Y-78850000I650000J-15D01*
G01*
X137390000Y-81159985D02*
G75*
G02*
X136402892Y-81480449I-545568J-17D01*
G01*
X138690000Y-90250000D02*
G75*
G02*
X137390000Y-90250005I-650000J10D01*
G01*
X154570000Y-78850000D02*
G75*
G02*
X155870000Y-78849995I650000J0D01*
G01*
X155870000Y-87940015D02*
G75*
G02*
X156857110Y-87619550I545560J45D01*
G01*
X155870000Y-90250005D02*
G75*
G02*
X154570000Y-90250000I-650000J5D01*
G01*
X156857108Y-81480449D02*
G75*
G02*
X155870057Y-81159985I-441508J320449D01*
G01*
X159103631Y-78385197D02*
G75*
G02*
X159892220Y-78795193I363669J-263903D01*
G01*
X159491120Y-89016876D02*
G75*
G02*
X160124197Y-88556937I395760J120926D01*
G01*
X159892222Y-90304806D02*
G75*
G02*
X159103630Y-90714804I-424942J-146054D01*
G01*
X160124196Y-80543062D02*
G75*
G02*
X159491097Y-80083117I-237296J339062D01*
G01*
X161850495Y-88288486D02*
G75*
G02*
X162203280Y-87525351I277805J334686D01*
G01*
X162203285Y-81574675D02*
G75*
G02*
X161850478Y-80811493I-74985J428475D01*
G01*
X163249722Y-78355194D02*
G75*
G02*
X163881328Y-79202961I311478J-427106D01*
G01*
X163671391Y-81317756D02*
G75*
G02*
X163899168Y-81984876I61509J-351444D01*
G01*
X163881322Y-89897047D02*
G75*
G02*
X163249728Y-90744798I-320122J-420653D01*
G01*
X163899214Y-87115036D02*
G75*
G02*
X163671390Y-87782250I-166314J-315714D01*
G01*
%TO.C,J1*%
X84880000Y-101440000D02*
X94105000Y-101440000D01*
X84880000Y-104260000D02*
X85480000Y-104260000D01*
X84880000Y-108220000D02*
X85480000Y-108220000D01*
X84880000Y-109440000D02*
X84880000Y-101440000D01*
X85480000Y-102660000D02*
X84880000Y-102660000D01*
X85480000Y-104260000D02*
X85480000Y-102660000D01*
X85480000Y-106620000D02*
X84880000Y-106620000D01*
X85480000Y-108220000D02*
X85480000Y-106620000D01*
X88100000Y-109730000D02*
X92100000Y-109730000D01*
X92440000Y-103460000D02*
X94110000Y-103460000D01*
X92440000Y-107420000D02*
X92440000Y-103460000D01*
X94105000Y-101440000D02*
X94105000Y-103345000D01*
X94105000Y-103345000D02*
X95110000Y-103345000D01*
X94105000Y-107535000D02*
X94105000Y-109440000D01*
X94105000Y-109440000D02*
X84880000Y-109440000D01*
X94110000Y-103460000D02*
X95110000Y-103460000D01*
X94110000Y-107420000D02*
X92440000Y-107420000D01*
X94110000Y-107420000D02*
X94110000Y-103460000D01*
X95110000Y-103345000D02*
X95110000Y-107535000D01*
X95110000Y-107420000D02*
X94110000Y-107420000D01*
X95110000Y-107535000D02*
X94105000Y-107535000D01*
%TO.C,U2*%
X166987500Y-100310000D02*
X168807500Y-100310000D01*
X166987500Y-100360000D02*
X166987500Y-100310000D01*
X166987500Y-102260000D02*
X166987500Y-101480000D01*
X166987500Y-103430000D02*
X166987500Y-103380000D01*
X168807500Y-100310000D02*
X168807500Y-101310000D01*
X168807500Y-102430000D02*
X168807500Y-103430000D01*
X168807500Y-103430000D02*
X166987500Y-103430000D01*
X166687500Y-101820000D02*
X166207500Y-101820000D01*
X166447500Y-101490000D01*
X166687500Y-101820000D01*
G36*
X166687500Y-101820000D02*
G01*
X166207500Y-101820000D01*
X166447500Y-101490000D01*
X166687500Y-101820000D01*
G37*
%TO.C,D5*%
X86525000Y-89590000D02*
X86525000Y-90380000D01*
X86525000Y-95480000D02*
X86525000Y-92200000D01*
X86525000Y-97300000D02*
X86525000Y-98090000D01*
X93085000Y-98090000D02*
X86535000Y-98090000D01*
X93095000Y-89590000D02*
X86525000Y-89590000D01*
X93095000Y-90380000D02*
X93095000Y-89590000D01*
X93095000Y-95480000D02*
X93095000Y-92200000D01*
X93095000Y-98090000D02*
X93095000Y-97300000D01*
X94022500Y-97580000D02*
X94022500Y-97300000D01*
X94302500Y-97300000D01*
X94022500Y-97580000D01*
G36*
X94022500Y-97580000D02*
G01*
X94022500Y-97300000D01*
X94302500Y-97300000D01*
X94022500Y-97580000D01*
G37*
%TO.C,R1*%
X143566248Y-93737500D02*
X144088752Y-93737500D01*
X143566248Y-95207500D02*
X144088752Y-95207500D01*
%TO.C,R5*%
X156675000Y-108988748D02*
X156675000Y-109511252D01*
X158145000Y-108988748D02*
X158145000Y-109511252D01*
%TO.C,Q1*%
X139807500Y-97082500D02*
X139807500Y-98342500D01*
X139807500Y-103902500D02*
X139807500Y-102642500D01*
X143567500Y-97082500D02*
X139807500Y-97082500D01*
X143567500Y-103902500D02*
X139807500Y-103902500D01*
X145087500Y-104132500D02*
X144607500Y-104132500D01*
X144847500Y-103802500D01*
X145087500Y-104132500D01*
G36*
X145087500Y-104132500D02*
G01*
X144607500Y-104132500D01*
X144847500Y-103802500D01*
X145087500Y-104132500D01*
G37*
%TO.C,U3*%
X156920000Y-104190000D02*
X157920000Y-104190000D01*
X156920000Y-106010000D02*
X156920000Y-104190000D01*
X156970000Y-106010000D02*
X156920000Y-106010000D01*
X158870000Y-106010000D02*
X158090000Y-106010000D01*
X159040000Y-104190000D02*
X160040000Y-104190000D01*
X160040000Y-104190000D02*
X160040000Y-106010000D01*
X160040000Y-106010000D02*
X159990000Y-106010000D01*
X158430000Y-106790000D02*
X158100000Y-106550000D01*
X158430000Y-106310000D01*
X158430000Y-106790000D01*
G36*
X158430000Y-106790000D02*
G01*
X158100000Y-106550000D01*
X158430000Y-106310000D01*
X158430000Y-106790000D01*
G37*
%TD*%
M02*
